<svg width="16" height="31" viewBox="0 0 16 31" xmlns="http://www.w3.org/2000/svg" xmlns:xlink="http://www.w3.org/1999/xlink"><title>Group 3 Copy@2x</title><defs><path id="path-1" d="M0 .237h16v29H0z"/></defs><g id="01_User-Flow" fill="none" fill-rule="evenodd"><g id="1.0-Control-Center-01" transform="translate(-120 -766)"><g id="Group-10" transform="translate(120 766.237)"><g id="Group-3-Copy" transform="rotate(-180 8 15)"><mask id="mask-2" fill="#fff"><use xlink:href="#path-1"/></mask><path d="M15.975 14.869c.01-.044.025-.088.025-.133 0-.043-.016-.087-.025-.13-.008-.046-.01-.09-.029-.133-.017-.044-.05-.078-.076-.117-.025-.037-.04-.077-.074-.11-.001-.003-.004-.004-.007-.005l-.006-.009L1.227.436A.738.738 0 0 0 .204.45a.692.692 0 0 0 .015.996l14.021 13.29L.22 28.028a.692.692 0 0 0-.015.996c.142.142.33.213.518.213a.734.734 0 0 0 .505-.199l14.556-13.796c.003-.003.003-.006.006-.008.003-.003.006-.003.007-.006.033-.034.05-.073.074-.11.026-.04.06-.075.076-.117.02-.043.02-.087.03-.132" id="Fill-1" fill="#D2D1D1" mask="url(#mask-2)"/></g></g></g></g></svg>