<?xml version="1.0" encoding="UTF-8"?>
<svg width="16px" height="31px" viewBox="0 0 16 31" version="1.1" xmlns="http://www.w3.org/2000/svg" xmlns:xlink="http://www.w3.org/1999/xlink">
    <title>Group 3 Copy@2x</title>
    <defs>
        <polygon id="path-1" points="0 0.236842105 16 0.236842105 16 29.2368421 0 29.2368421"></polygon>
    </defs>
    <g id="01_User-Flow" stroke="none" stroke-width="1" fill="none" fill-rule="evenodd">
        <g id="1.0-Control-Center-01" transform="translate(-120.000000, -766.000000)">
            <g id="Group-10" transform="translate(120.000000, 766.236842)">
                <g id="Group-3-Copy" transform="translate(8.000000, 15.000000) rotate(-180.000000) translate(-8.000000, -15.000000) ">
                    <mask id="mask-2" fill="white">
                        <use xlink:href="#path-1"></use>
                    </mask>
                    <g id="Clip-2"></g>
                    <path d="M15.9754009,14.8687588 C15.9840829,14.8250911 16,14.7814234 16,14.7363471 C16,14.6926793 15.9840829,14.6490116 15.9754009,14.6053439 C15.9667188,14.5602676 15.9652718,14.5151913 15.9464607,14.4729322 C15.9290966,14.4292645 15.8958154,14.3954572 15.8697693,14.3560154 C15.8451701,14.3193909 15.829253,14.2785405 15.7959718,14.2461419 C15.7945248,14.2433246 15.7916308,14.2419159 15.7887368,14.2405073 C15.7858428,14.23769 15.7858428,14.2348728 15.7829488,14.2320555 L1.22749291,0.435878253 C0.942432288,0.165420214 0.483730677,0.171054756 0.204458088,0.449964609 C-0.0733674938,0.727465826 -0.0675794608,1.17400332 0.21892817,1.44586999 L14.240438,14.7363471 L0.21892817,28.0282327 C-0.0675794608,28.3000994 -0.0733674938,28.7452283 0.204458088,29.0241381 C0.346264895,29.1664103 0.534375966,29.2368421 0.722487036,29.2368421 C0.904810074,29.2368421 1.08713311,29.1706362 1.22749291,29.0382245 L15.7829488,15.2420472 C15.7858428,15.23923 15.7858428,15.2364127 15.7887368,15.2335954 C15.7916308,15.2307782 15.7945248,15.2307782 15.7959718,15.2279609 C15.829253,15.1941536 15.8451701,15.1547118 15.8697693,15.1180873 C15.8958154,15.0786455 15.9290966,15.0434296 15.9464607,15.0011705 C15.9652718,14.9575028 15.9667188,14.9138351 15.9754009,14.8687588" id="Fill-1" fill="#D2D1D1" mask="url(#mask-2)"></path>
                </g>
            </g>
        </g>
    </g>
</svg>