<svg width="67" height="67" viewBox="0 0 67 67" xmlns="http://www.w3.org/2000/svg" xmlns:xlink="http://www.w3.org/1999/xlink"><title>Group 4</title><defs><path id="path-1" d="M0 0h26.987v26.987H0z"/></defs><g id="01_User-Flow" fill="none" fill-rule="evenodd"><g id="1.2-Control-Center-03" transform="translate(-1919 -55)"><g id="Group-4" transform="translate(1919.063 55.473)"><g id="Group" fill="#FFF"><circle id="Oval" cx="32.984" cy="32.984" r="32.984"/></g><g id="Group-3" transform="translate(20.99 17.991)"><mask id="mask-2" fill="#fff"><use xlink:href="#path-1"/></mask><path d="M16.808 6.228H4.071l5.7-4.359A1.05 1.05 0 0 0 9.976.416 1.002 1.002 0 0 0 8.551.208L.426 6.422c-.029.021-.052.052-.08.077-.024.023-.049.044-.07.069-.016.016-.034.028-.048.044l-.043.058c-.023.034-.028.071-.049.105a.964.964 0 0 0-.116.39C.017 7.2 0 7.23 0 7.265c0 .017.01.03.01.046 0 .018-.007.035-.005.053v.002c.003.036.01.071.016.107v.003c.009.037.03.07.042.109a1.1 1.1 0 0 0 .057.145c.033.065.072.12.118.178.036.045.07.089.113.127.018.017.028.038.047.053l.001.001.003.002s.001.002.003.002l.003.003 8.143 6.227a1.008 1.008 0 0 0 1.424-.208 1.04 1.04 0 0 0 .204-.62c0-.317-.14-.63-.407-.833l-5.7-4.359h12.736c4.49 0 8.143 3.725 8.143 8.304a8.295 8.295 0 0 1-2.39 5.869 7.973 7.973 0 0 1-5.753 2.434H1.54c-.563 0-1.018.464-1.018 1.038 0 .574.455 1.038 1.018 1.038h15.268A9.97 9.97 0 0 0 24 23.945c1.927-1.953 2.988-4.558 2.988-7.337 0-5.724-4.566-10.38-10.179-10.38" id="Fill-1" fill="#FE0000" mask="url(#mask-2)"/></g></g></g></g></svg>