<svg width="59" height="46" viewBox="0 0 59 46" xmlns="http://www.w3.org/2000/svg"><title>Fill 1</title><g id="01_User-Flow" fill="none" fill-rule="evenodd"><g id="3.1-Output-02-Copy-3" transform="translate(-70 -66)" fill="#FFF"><g id="Group-13" transform="translate(70.88 52.474)"><path d="M56.772 31.591L29.41 14.386a.929.929 0 0 0-1.004.01L.422 32.635a.931.931 0 0 0 1.017 1.56l7.377-4.809V58.29a.93.93 0 1 0 1.863 0V28.175L28.924 16.28l18.89 11.88v30.13a.932.932 0 0 0 1.862 0V29.332l6.105 3.837a.929.929 0 0 0 1.283-.294.93.93 0 0 0-.292-1.284" id="Fill-1"/></g></g></g></svg>