<svg width="19" height="34" viewBox="0 0 19 34" xmlns="http://www.w3.org/2000/svg" xmlns:xlink="http://www.w3.org/1999/xlink"><title>Group 3 Copy</title><defs><path id="path-1" d="M0 0h17.991v33.334H0z"/></defs><g id="01_User-Flow" fill="none" fill-rule="evenodd"><g id="1.2-Control-Center-03" transform="translate(-1584 -1077)"><g id="Group-10-Copy" transform="translate(1584.726 1076.747)"><g id="Group-3-Copy" transform="rotate(-180 8.996 16.97)"><mask id="mask-2" fill="#fff"><use xlink:href="#path-1"/></mask><path d="M17.964 16.818c.01-.05.027-.1.027-.152 0-.05-.018-.1-.027-.15-.01-.052-.012-.104-.033-.152-.02-.05-.057-.09-.086-.135-.028-.042-.046-.089-.083-.126l-.008-.007c-.004-.003-.004-.006-.007-.01L1.38.23A.817.817 0 0 0 .23.245.807.807 0 0 0 .246 1.39l15.767 15.276L.246 31.945a.807.807 0 0 0 .566 1.389c.205 0 .41-.076.568-.229l16.367-15.857c.003-.004.003-.007.007-.01.003-.003.006-.003.008-.007.037-.038.055-.084.083-.126.03-.045.066-.086.086-.134.021-.05.023-.1.033-.153" id="Fill-1" fill="#FFF" mask="url(#mask-2)"/></g></g></g></g></svg>