<svg width="61" height="83" viewBox="0 0 61 83" xmlns="http://www.w3.org/2000/svg" xmlns:xlink="http://www.w3.org/1999/xlink"><title>Group 3</title><defs><path id="path-1" d="M0 0h61v83H0z"/></defs><g id="01_User-Flow" fill="none" fill-rule="evenodd"><g id="3.1-Output-02-Copy-4" transform="translate(-663 -319)"><g id="Group-12" transform="translate(344 240)"><g id="Group-3" transform="translate(319 79)"><mask id="mask-2" fill="#fff"><use xlink:href="#path-1"/></mask><path d="M19.342 62.862c-1.36 2.742-3.008 4.646-5.613 5.94-.572.286-.996.425-1.29.49.492-1.075 2.293-3.379 6.903-6.43zm24.013-9.274c2.881-.046 4.454.593 4.938.834.684.34.945.668 1.015.803-.172.186-.918.64-2.756.64-1.365 0-2.913-.828-4.513-2.212a20.31 20.31 0 0 1 1.316-.065zm-13.47-11.543c1.659 3.342 3.703 6.705 5.93 9.55-2.417.67-4.97 1.617-7.593 2.821-.99.455-1.938.907-2.84 1.354l.557-1.778c.396-1.266.816-2.606 1.274-4.023.567-1.753 1.208-3.627 1.827-5.44.293-.854.575-1.682.845-2.484zm-.061-15.036c.054.001.082.005.083 0 .058.071.643.923-.411 5.315a19.42 19.42 0 0 1-.507-2.524c-.238-1.915.103-2.665.294-2.713.274-.068.448-.078.54-.078zm.024-3.189a5.277 5.277 0 0 0-1.343.17c-1.257.313-3.28 1.534-2.703 6.201.255 2.061 1.014 4.689 2.14 7.516A322.759 322.759 0 0 1 26 43.501c-.623 1.826-1.27 3.712-1.844 5.491-.46 1.427-.884 2.777-1.283 4.053-.559 1.787-1.066 3.407-1.563 4.874-8.583 4.846-12.01 9.042-12.222 11.624-.085 1.05.327 1.96 1.131 2.5.403.272.983.5 1.787.5.808 0 1.845-.231 3.16-.885 4.632-2.302 6.819-6.111 8.77-11.539a93.06 93.06 0 0 1 5.631-2.805c3.337-1.53 6.178-2.476 8.566-3.032 2.76 2.883 5.68 4.776 8.42 4.776 2.98 0 5.082-.98 5.767-2.687.505-1.258.119-2.657-1.032-3.743-1.635-1.542-4.543-2.332-8.182-2.228a26.824 26.824 0 0 0-3.822.403c-3.025-3.61-5.962-8.624-7.936-13.238 2.023-6.49 2.761-10.73.918-12.722-.461-.497-1.224-1.008-2.418-1.023zm8.679-19.51l17.457 18.037H38.527V4.31zM6.433 3.192h28.883v20.75c0 .882.719 1.596 1.605 1.596H57.79V76.62c0 1.758-1.445 3.187-3.223 3.187H6.433c-1.777 0-3.223-1.428-3.223-3.187V6.38c0-1.758 1.446-3.188 3.223-3.188zm0-3.192C2.886 0 0 2.862 0 6.38v70.24C0 80.138 2.886 83 6.433 83h48.134C58.114 83 61 80.138 61 76.62V23.568c0-.413-.161-.809-.448-1.106L39.285.489A1.611 1.611 0 0 0 38.128 0H6.433z" id="Fill-1" fill="#F00" mask="url(#mask-2)"/></g></g></g></g></svg>