<svg width="36" height="31" viewBox="0 0 36 31" xmlns="http://www.w3.org/2000/svg" xmlns:xlink="http://www.w3.org/1999/xlink"><title>Group 3</title><defs><path id="path-1" d="M0 .517h36v29H0z"/></defs><g id="01_User-Flow" fill="none" fill-rule="evenodd"><g id="0.0-Home-Page" transform="translate(-202 -45)"><g id="Group-13" transform="translate(47.276 35)"><g id="Group-6" transform="translate(154.724)"><g id="Group-3" transform="translate(0 10.483)"><mask id="mask-2" fill="#fff"><use xlink:href="#path-1"/></mask><path d="M34.995 28.535H9.44v-8.402h9.189c.277 0 .502-.22.502-.49v-8.015h15.865v16.907zm-16.87-16.298v6.915h-7.877l7.877-6.915zm-17.12-2.232h9.188c.277 0 .503-.22.503-.49V1.498H26.56v9.146h-7.932a.504.504 0 0 0-.319.12c-.004.003-.012.002-.017.006l-8.948 7.854a.497.497 0 0 0-.407-.22H1.005v-8.4zM9.69 2.108v6.915H1.814L9.69 2.108zm25.807 8.537h-7.933V1.008a.497.497 0 0 0-.503-.491H10.193a.502.502 0 0 0-.318.12c-.005.003-.012 0-.017.005L.167 9.15c-.004.003-.005.007-.008.01a.503.503 0 0 0-.089.119c-.008.015-.02.025-.027.04A.476.476 0 0 0 0 9.514v9.383c0 .271.225.49.502.49h8.016l-.013.02c-.008.014-.021.025-.028.04a.472.472 0 0 0-.043.195v9.384c0 .27.225.49.503.49h26.56c.278 0 .503-.22.503-.49v-17.89a.497.497 0 0 0-.502-.491z" id="Fill-1" fill="#6E6E6E" mask="url(#mask-2)"/></g></g></g></g></g></svg>