<svg width="37" height="37" viewBox="0 0 37 37" xmlns="http://www.w3.org/2000/svg"><title>Group 3</title><g id="01_User-Flow" fill="none" fill-rule="evenodd" stroke-linecap="round" stroke-linejoin="round"><g id="0.0-Home-Page" transform="translate(-128 -42)" stroke="#6E6E6E"><g id="Group-13" transform="translate(47.276 35)"><g id="Group-5" transform="translate(81.724 8)"><path d="M24.488 17a7 7 0 1 1-14.001-.002 7 7 0 0 1 14 .003z" id="Stroke-1"/><path d="M35.488 18.312v-1.624a2.761 2.761 0 0 0-2.761-2.76c-2.257 0-3.387-2.728-1.791-4.324a2.76 2.76 0 0 0 0-3.905l-1.147-1.148a2.762 2.762 0 0 0-3.905 0c-1.596 1.596-4.325.466-4.325-1.791A2.76 2.76 0 0 0 18.8 0h-1.623a2.76 2.76 0 0 0-2.761 2.76v.001c0 2.257-2.728 3.387-4.324 1.791v-.001a2.762 2.762 0 0 0-3.904 0L5.039 5.699a2.762 2.762 0 0 0 0 3.905c1.596 1.596.465 4.323-1.791 4.323a2.76 2.76 0 0 0-2.76 2.761v1.624a2.76 2.76 0 0 0 2.76 2.76c2.256 0 3.387 2.728 1.79 4.324a2.762 2.762 0 0 0 0 3.905l1.149 1.147a2.758 2.758 0 0 0 3.903 0h.001c1.596-1.596 4.324-.466 4.324 1.79A2.761 2.761 0 0 0 17.176 35H18.8a2.76 2.76 0 0 0 2.76-2.761c0-2.256 2.73-3.386 4.325-1.79a2.76 2.76 0 0 0 3.903 0l1.149-1.148a2.76 2.76 0 0 0 0-3.905c-1.598-1.596-.467-4.325 1.79-4.325a2.76 2.76 0 0 0 2.762-2.76z" id="Stroke-3"/></g></g></g></g></svg>