<svg id="Layer_1" xmlns="http://www.w3.org/2000/svg" viewBox="0 0 409 115" enable-background="new 0 0 409 115"><style>.st0{filter:url(#filter-2)}.st1,.st2{fill-rule:evenodd;clip-rule:evenodd}.st2{fill:#fff}.st3{filter:url(#filter-4)}.st4{fill:none;stroke:#fff;stroke-width:1.4993}.st5{filter:url(#filter-6)}.st6{fill:none;stroke:#485cc7;stroke-width:1.4993;stroke-linecap:round;stroke-linejoin:round}.st7{filter:url(#Adobe_OpacityMaskFilter)}.st8{mask:url(#mask-8_1_);fill:none;stroke:#485cc7;stroke-width:1.4993;stroke-linecap:round;stroke-linejoin:round}.st9{filter:url(#Adobe_OpacityMaskFilter_1_)}.st10{mask:url(#mask-10_1_);fill-rule:evenodd;clip-rule:evenodd;fill:#fff}</style><filter filterUnits="objectBoundingBox" height="142.9%" id="filter-6" width="142.9%" x="-21.4%" y="-10.7%"><feOffset dy="9" in="SourceAlpha" result="shadowOffsetOuter1"/><feGaussianBlur in="shadowOffsetOuter1" result="shadowBlurOuter1" stdDeviation="4.5"/><feColorMatrix in="shadowBlurOuter1" values="0 0 0 0 0 0 0 0 0 0 0 0 0 0 0 0 0 0 0.0951704545 0"/></filter><filter filterUnits="objectBoundingBox" height="142.9%" id="filter-4" width="142.9%" x="-21.4%" y="-10.7%"><feOffset dy="9" in="SourceAlpha" result="shadowOffsetOuter1"/><feMorphology in="SourceAlpha" radius="1.499" result="shadowInner"/><feOffset dy="9" in="shadowInner" result="shadowInner"/><feComposite in="shadowOffsetOuter1" in2="shadowInner" operator="out" result="shadowOffsetOuter1"/><feGaussianBlur in="shadowOffsetOuter1" result="shadowBlurOuter1" stdDeviation="4.5"/><feColorMatrix in="shadowBlurOuter1" values="0 0 0 0 0 0 0 0 0 0 0 0 0 0 0 0 0 0 0.0951704545 0"/></filter><filter filterUnits="objectBoundingBox" height="142.9%" id="filter-2" width="142.9%" x="-21.4%" y="-10.7%"><feOffset dy="9" in="SourceAlpha" result="shadowOffsetOuter1"/><feGaussianBlur in="shadowOffsetOuter1" result="shadowBlurOuter1" stdDeviation="4.5"/><feColorMatrix in="shadowBlurOuter1" values="0 0 0 0 0 0 0 0 0 0 0 0 0 0 0 0 0 0 0.0951704545 0"/></filter><g id="_x30_1_x5F_User-Flow"><g id="_x33_.1-Output-02-Copy-3" transform="translate(-233 -215)"><g id="Group-9" transform="translate(242.694 217.019)"><g id="button-bg"><g class="st0" transform="translate(119.941 10.87)"><circle id="path-1_2_" class="st1" cx="42" cy="42" r="42"/></g><g transform="translate(119.941 10.87)"><circle id="path-1_1_" class="st2" cx="42" cy="42" r="42"/></g></g><g id="button-bg_1_" transform="translate(235.572 10.87)"><g class="st3"><circle id="path-3_1_" class="st1" cx="42" cy="42" r="42"/></g><circle class="st4" cx="42" cy="42" r="41.2"/></g><g id="button-bg_2_"><g class="st5" transform="translate(0 10.87)"><circle id="path-5_2_" class="st1" cx="42" cy="42" r="42"/></g><g transform="translate(0 10.87)"><circle id="path-5_1_" class="st2" cx="42" cy="42" r="42"/></g></g><g id="Group-11" transform="translate(22.489 30.896)"><g id="Group-5" transform="translate(.58)"><path id="Stroke-1" class="st6" d="M7.9 15.1h21V0h-21z"/><path id="Stroke-3_1_" class="st6" d="M7.9 42.3h20.9v-15H7.9z"/><path id="Stroke-4" class="st6" d="M0 21.5h37.3"/></g><path id="Stroke-6" class="st6" d="M12 30.2h13.5"/><path id="Stroke-7" class="st6" d="M12 34.7h13.5"/><path id="Stroke-8" class="st6" d="M12 39.2h13.5"/><path id="Stroke-9" class="st6" d="M5.1 38.4H0V16h39v22.4h-5.1"/></g><g id="Group-6" transform="translate(140.931 37.856)"><path id="Stroke-1_1_" class="st6" d="M21 16.6L0 1.5V30h42V1.5z"/><g id="Group-5_1_" transform="translate(9.204)"><defs><filter id="Adobe_OpacityMaskFilter" filterUnits="userSpaceOnUse" x="-.7" y="0" width="27.6" height="1.5"><feColorMatrix values="1 0 0 0 0 0 1 0 0 0 0 0 1 0 0 0 0 0 1 0"/></filter></defs><mask maskUnits="userSpaceOnUse" x="-.7" y="0" width="27.6" height="1.5" id="mask-8_1_"><g class="st7"><path id="path-7_1_" class="st2" d="M0 0h26.1v1.5H0z"/></g></mask><path id="Stroke-3_2_" class="st8" d="M0 .7h26.1"/></g></g><g id="Group-3" transform="translate(265.558 36.357)"><defs><filter id="Adobe_OpacityMaskFilter_1_" filterUnits="userSpaceOnUse" x="0" y="0" width="30" height="30"><feColorMatrix values="1 0 0 0 0 0 1 0 0 0 0 0 1 0 0 0 0 0 1 0"/></filter></defs><mask maskUnits="userSpaceOnUse" x="0" y="0" width="30" height="30" id="mask-10_1_"><g class="st9"><path id="path-9_1_" class="st2" d="M0 0h30v30H0z"/></g></mask><path id="Fill-1" class="st10" d="M18.7 6.9H4.5l6.3-4.8c.5-.4.6-1.1.2-1.6-.3-.5-1-.7-1.5-.3l-9 6.9-.1.1s-.1 0-.1.1H.2v.1s0 .1-.1.1c0 .1-.1.1-.1.2V8.5c0 .1 0 .1.1.2 0 .1.1.1.1.2s.1.1.1.1l.1.1 9 6.9c.2.2.4.2.7.2.3 0 .7-.2.9-.5.2-.2.2-.4.2-.7 0-.4-.2-.7-.5-.9L4.5 9.2h14.2c5 0 9 4.1 9 9.2 0 2.5-.9 4.8-2.7 6.5-1.7 1.7-4 2.7-6.4 2.7h-17c-.6 0-1.1.5-1.1 1.2S1.1 30 1.7 30h17c3 0 5.9-1.2 8-3.4 2.1-2.2 3.3-5.1 3.3-8.2 0-6.3-5.1-11.5-11.3-11.5"/></g></g></g></g></svg>