<svg width="34" height="35" viewBox="0 0 34 35" xmlns="http://www.w3.org/2000/svg" xmlns:xlink="http://www.w3.org/1999/xlink"><title>Group 8</title><defs><path id="path-1" d="M0 .426h33.575V34H0z"/></defs><g id="01_User-Flow" fill="none" fill-rule="evenodd"><g id="0.0-Home-Page" transform="translate(-1285 -43)"><g id="Group-13" transform="translate(47.276 35)"><g id="Group-8" transform="translate(1237.724 8)"><path d="M16.99 8.704a4.129 4.129 0 0 0-4.124 4.124 4.128 4.128 0 0 0 4.124 4.123 4.128 4.128 0 0 0 4.124-4.123 4.129 4.129 0 0 0-4.124-4.124m0 9.247a5.13 5.13 0 0 1-5.124-5.123 5.13 5.13 0 0 1 5.124-5.124 5.13 5.13 0 0 1 5.124 5.124 5.13 5.13 0 0 1-5.124 5.123" id="Fill-1" fill="#6E6E6E"/><path d="M26.471 25.59a.501.501 0 0 1-.488-.392c-.039-.164-1.064-4.1-8.993-4.1-7.945 0-9.11 3.951-9.156 4.12a.5.5 0 0 1-.968-.252c.051-.199 1.347-4.869 10.124-4.869 8.79 0 9.926 4.686 9.97 4.885a.5.5 0 0 1-.489.608" id="Fill-3" fill="#6E6E6E"/><g id="Group-7" transform="translate(0 .574)"><mask id="mask-2" fill="#fff"><use xlink:href="#path-1"/></mask><path d="M16.788 1.426C8.083 1.426 1 8.508 1 17.213 1 25.918 8.083 33 16.788 33s15.787-7.082 15.787-15.787c0-8.705-7.082-15.787-15.787-15.787m0 32.574C7.53 34 0 26.469 0 17.213S7.53.426 16.788.426c9.256 0 16.787 7.53 16.787 16.787C33.575 26.469 26.044 34 16.788 34" id="Fill-5" fill="#6E6E6E" mask="url(#mask-2)"/></g></g></g></g></g></svg>