<svg width="51" height="52" viewBox="0 0 51 52" xmlns="http://www.w3.org/2000/svg" xmlns:xlink="http://www.w3.org/1999/xlink"><title>Group 8</title><defs><path id="path-1" d="M0 0h50.337v50.336H0z"/></defs><g id="01_User-Flow" fill="none" fill-rule="evenodd"><g id="3.1-Output-02-Copy-3" transform="translate(-1926 -65)"><g id="Group-13" transform="translate(70.88 52.474)"><g id="Group-8" transform="translate(1855.68 13.494)"><path d="M25.472 11.55a6.19 6.19 0 0 0-6.183 6.182 6.19 6.19 0 0 0 6.183 6.182 6.19 6.19 0 0 0 6.183-6.182 6.19 6.19 0 0 0-6.183-6.183m0 13.864c-4.235 0-7.682-3.445-7.682-7.68 0-4.237 3.447-7.683 7.682-7.683 4.236 0 7.682 3.446 7.682 7.682 0 4.236-3.446 7.681-7.682 7.681" id="Fill-1" fill="#FFF"/><path d="M39.687 36.867a.752.752 0 0 1-.731-.588c-.059-.245-1.595-6.148-13.483-6.148-11.912 0-13.658 5.925-13.727 6.177a.75.75 0 0 1-1.452-.376c.077-.299 2.02-7.3 15.179-7.3 13.178 0 14.882 7.025 14.948 7.324a.75.75 0 0 1-.734.911" id="Fill-3" fill="#FFF"/><g id="Group-7"><mask id="mask-2" fill="#fff"><use xlink:href="#path-1"/></mask><path d="M25.17 1.499c-13.052 0-23.671 10.618-23.671 23.669s10.619 23.669 23.67 23.669c13.051 0 23.67-10.618 23.67-23.67 0-13.05-10.619-23.668-23.67-23.668m0 48.837C11.29 50.336 0 39.046 0 25.168 0 11.29 11.29 0 25.17 0c13.877 0 25.168 11.29 25.168 25.168 0 13.877-11.29 25.168-25.168 25.168" id="Fill-5" fill="#FFF" mask="url(#mask-2)"/></g></g></g></g></g></svg>