<svg><defs><font id="AvenirNext-Medium" horiz-adv-x="250"><font-face font-family="Avenir Next Medium" font-weight="500" panose-1="2 11 6 3 2 2 2 2 2 4" ascent="800" descent="-200" x-height="474" cap-height="708" bbox="-440 -435 1369 1199" underline-thickness="50" underline-position="-50" unicode-range="U+000D-U+FE48"/><glyph glyph-name="IJ" unicode="IJ" horiz-adv-x="758" d="M185 0H86v708h99V0zm185 158q8-38 35-63t67-25q32 0 52.5 12t32.5 32.5 17 48 5 58.5v487h99V217q0-37-8-78t-30-76-61.5-58T477-18q-81 0-132 42t-67 108z"/><glyph glyph-name="ij" unicode="ij" horiz-adv-x="515" d="M176 0H82v474h94V0zm16 645q0-26-18.5-43T129 585t-44 17.5T67 645q0 26 18 43.5t44 17.5 44.5-17.5T192 645zm42-799q20-5 38-5 21 0 34 8t20 21.5 9.5 32T338-58v532h94V-61q0-36-6.5-68T402-186t-47-39.5-77-14.5q-13 0-28 2t-26 4zm214 799q0-26-18.5-43T385 585t-44.5 17.5T322 645q0 26 18.5 43.5T385 706t44.5-17.5T448 645z"/><glyph glyph-name="napostrophe" unicode="&amp;quot;n" horiz-adv-x="602" d="M186 474q2-18 3-40.5t1-37.5h3q9 19 24.5 35.5t35.5 29 44 19.5 50 7q46 0 79-15.5t55-41.5 32.5-61 10.5-75V0h-94v263q0 29-4.5 55T409 364t-33 32-54 12q-56 0-91.5-42.5T195 252V0h-94v372q0 19-1 49t-3 53h89zM67 518h-79l64 190h93z"/><glyph glyph-name="fl" unicode="fl" horiz-adv-x="574" d="M491 0h-94v756h94V0zM304 397H194V0h-94v397H6v77h94v99q0 42 9.5 77.5t31 61.5 55 41 81.5 15q34 0 59-7l-11-81q-11 3-22 5t-25 2q-27 0-43.5-9.5T209 652t-12-36.5-3-42.5v-99h110v-77z"/><glyph glyph-name="fi" unicode="fi" horiz-adv-x="574" d="M304 397H194V0h-94v397H6v77h94v99q0 42 9.5 77.5t31 61.5 55 41 81.5 15q34 0 59-7l-11-81q-11 3-22 5t-25 2q-27 0-43.5-9.5T209 652t-12-36.5-3-42.5v-99h110v-77zM491 0h-94v474h94V0zm16 645q0-26-18.5-43T444 585t-44 17.5-18 42.5q0 26 18 43.5t44 17.5 44.5-17.5T507 645z"/><glyph glyph-name=".notdef" horiz-adv-x="512" d="M222 117v67h56v-67h-56zm3 117l-2 17q0 56 13 81 7 13 18 27.5t28 31.5q16 15 26 26.5t15 21 7 18 2 17.5q0 36-22.5 60.5T256 559t-53.5-22-28.5-73l-50 8q7 72 44 104.5t91 32.5 89-35.5 35-95.5q0-32-12.5-58.5T320 358q-37-33-43-52-6-20-6-72h-46zM462 50v617H50V50h412zm50 668V0H0v718h512z"/><glyph glyph-name=".null" horiz-adv-x="500"/><glyph glyph-name=".null" horiz-adv-x="500"/><glyph glyph-name="nonmarkingreturn" horiz-adv-x="0"/><glyph glyph-name="space"/><glyph glyph-name="exclam" unicode="!" horiz-adv-x="334" d="M216 207h-99v501h99V207zm18-147q0-26-19-46T167-6q-28 0-47.5 19.5T100 59q0 27 19 46.5t48 19.5 48-19 19-46z"/><glyph glyph-name="quotedbl" unicode="&amp;quot;" horiz-adv-x="423" d="M90 708h82V458H90v250zm161 0h82V458h-82v250z"/><glyph glyph-name="numbersign" unicode="#" horiz-adv-x="574" d="M137 211H41v73h106l19 141H68v73h109l29 210h75l-30-210h118l29 210h75l-30-210h90v-73H433l-20-141h93v-73H404L374 0h-75l30 211H211L181 0h-74zm84 73h118l19 141H241z"/><glyph glyph-name="dollar" unicode="$" horiz-adv-x="595" d="M264 323q-39 11-75.5 26.5t-64 39T80 445t-17 80q0 44 16.5 79t44 59.5 64 39T264 719v70h51v-69q52-1 105.5-19.5T512 644l-68-63q-23 29-58.5 44T315 641V403q38-13 75.5-29t67-40.5T505 274t18-84q0-47-16.5-84t-45-63T395 3.5 315-11v-72h-51v72q-67 2-124 27.5T41 88l73 62q13-19 32-34t39-25.5 40.5-16T264 69v254zm51-254q22 1 42 9t35.5 22.5 25 36.5 9.5 52q0 48-32 76t-80 44V69zm-51 572q-44-3-75-31.5T158 531q0-48 29.5-73.5T264 418v223z"/><glyph glyph-name="percent" unicode="%" horiz-adv-x="870" d="M475 165q0 37 14 69t38 56 56 38 69 14 69-14 56-38 38-56 14-69-14-69-38-56-56-38-69-14-69 14-56 38-38 56-14 69zm271 0q0 19-7.5 36.5t-20 30-30 20T652 259q-20 0-37-7.5t-29.5-20-20-30T558 165q0-20 7.5-37t20-29.5 29.5-20 37-7.5q19 0 36.5 7.5t30 20 20 29.5 7.5 37zM41 543q0 37 14 69t38 56 56 38 69 14 69-14 56-38 38-56 14-69-14-69-38-56-56-38-69-14-69 14-56 38-38 56-14 69zm271 0q0 19-7.5 36.5t-20 30-30 20T218 637q-20 0-37-7.5t-29.5-20-20-30T124 543q0-20 7.5-37t20-29.5 29.5-20 37-7.5q19 0 36.5 7.5t30 20 20 29.5 7.5 37zM253-32L185 1l434 739 67-33z"/><glyph glyph-name="ampersand" unicode="&amp;" horiz-adv-x="723" d="M550 167L712 0H581l-88 93q-40-50-90.5-78T278-13q-46 0-88 13t-73.5 38.5-50 63T48 188q0 40 13.5 71.5T97 316t51 44 59 33q-34 35-57.5 74.5T126 555q0 43 15.5 75t42 53.5 60.5 32 71 10.5 70-10.5 58-31.5 40-52 15-72q0-35-12.5-63T452 446t-48.5-41-57.5-32l141-145 89 150h110zM407 558q0 38-25.5 64T316 648q-41 0-68-26t-27-68q0-17 6.5-34t16.5-33.5 22.5-30.5 24.5-25q22 10 43 22t37 28 26 35 10 42zM262 332q-52-22-83-55t-31-87q0-28 11-51t29.5-39T231 75.5t49-8.5q51 0 86 22.5t64 66.5z"/><glyph glyph-name="quotesingle" unicode="'" horiz-adv-x="262" d="M90 708h82V458H90v250z"/><glyph glyph-name="parenleft" unicode="(" horiz-adv-x="315" d="M119 288q0-110 35-214.5T248-113l-68-44Q114-68 74 47T34 288t40 241 106 204l68-44q-59-82-94-186.5T119 288z"/><glyph glyph-name="parenright" unicode=")" horiz-adv-x="315" d="M196 288q0 110-35 214.5T67 689l68 44q66-89 106-204t40-241-40-241-106-204l-68 44q59 82 94 186.5T196 288z"/><glyph glyph-name="asterisk" unicode="*" horiz-adv-x="454" d="M389 620l27-76-127-41 81-109-64-48-84 113-84-113-64 48 81 109-127 41 27 76 127-41v129h80V579z"/><glyph glyph-name="plus" unicode="+" horiz-adv-x="666" d="M374 344h222v-82H374V40h-82v222H70v82h222v222h82V344z"/><glyph glyph-name="comma" unicode="," horiz-adv-x="260" d="M114-133H34l69 250h94z"/><glyph glyph-name="hyphen" unicode="-" horiz-adv-x="320" d="M276 204H44v80h232v-80z"/><glyph glyph-name="period" unicode="." horiz-adv-x="260" d="M197 60q0-26-19-46T130-6q-28 0-47.5 19.5T63 59q0 27 19 46.5t48 19.5 48-19 19-46z"/><glyph glyph-name="slash" unicode="/" horiz-adv-x="380" d="M69-33L-2-9l307 751 71-26z"/><glyph glyph-name="zero" unicode="0" horiz-adv-x="595" d="M298 726q63 0 108.5-29t75-79.5T525 499t14-145q0-78-14-145.5t-43.5-118-75-79.5T298-18 189 11t-75.5 79.5-43.5 118T56 354q0 77 14 145t43.5 118.5T189 697t109 29zm0-81q-44 0-72-28.5t-43.5-72T161 450t-6-96 6-96 21.5-94T226 92.5 298 64q43 0 70.5 28.5T412 164t22 94 6 96-6 96-22 94.5-43.5 72T298 645z"/><glyph glyph-name="one" unicode="1" horiz-adv-x="595" d="M379 0h-97v590L148 478l-57 67 201 163h87V0z"/><glyph glyph-name="two" unicode="2" horiz-adv-x="595" d="M522 0H60v93l282 280q32 33 55 69t23 81q0 28-10 50.5T383 612t-40 24.5-49 8.5q-54 0-89-34.5T161 522l-95 16q6 40 25.5 74.5t49.5 60 69.5 39.5 84.5 14q44 0 84.5-13t71.5-38 49.5-63 18.5-87q0-34-9-63t-24.5-55-36.5-49.5-44-46.5L175 87h347V0z"/><glyph glyph-name="three" unicode="3" horiz-adv-x="595" d="M213 410h31q30 0 58.5 5.5t50.5 19 35.5 36.5 13.5 57q0 27-10 48.5T364.5 613t-40 23.5T277 645q-45 0-76.5-23T153 558l-88 31q26 64 83.5 100.5T281 726q44 0 83.5-12.5T434 677t47.5-60 17.5-83q0-30-9.5-56t-26-47-39.5-36-50-22v-2q31-6 57.5-21t45.5-37.5 30-51.5 11-63q0-53-20-93.5T445 37 369-4t-88-14q-84 0-148 38T40 138l90 30q16-46 54.5-75T279 64q27 0 52.5 8.5T377 98t32 42 12 59q0 37-16 62t-41.5 40.5-57.5 22-63 6.5h-30v80z"/><glyph glyph-name="four" unicode="4" horiz-adv-x="595" d="M451 242h102v-83H451V0h-94v159H31v88l301 461h119V242zm-94 355h-2L131 242h226v355z"/><glyph glyph-name="five" unicode="5" horiz-adv-x="595" d="M490 622H198l-6-186q20 7 44.5 10t46.5 3q51 0 94.5-15.5t75-44.5 49.5-70.5 18-92.5q0-56-19-101t-52-76.5-78-49T273-18q-83 0-140 38.5T47 124l88 35q17-43 53.5-69T273 64q31 0 58 11t47 31 31.5 48 11.5 62q0 40-13.5 69.5T371 334t-53 28-63 9q-40 0-82-11t-75-28l10 376h382v-86z"/><glyph glyph-name="six" unicode="6" horiz-adv-x="595" d="M231 423l1-2q15 9 40 14t48 5q46 0 86.5-16.5t70.5-46 47-70.5 17-89q0-53-18.5-96.5T471 47 393.5-1 297-18q-53 0-98 17.5T121.5 48t-51 74T52 215q0 58 19 105t50 96l185 292h115zm-81-209q0-31 10.5-58.5t30-47.5T237 76t60-12 59.5 11 46 31.5 30 48T443 215q0 32-10.5 59t-29 47-45.5 31-60 11-60.5-11-47-31-30-47-10.5-60z"/><glyph glyph-name="seven" unicode="7" horiz-adv-x="595" d="M515 620L231 0H120l295 622H64v86h451v-88z"/><glyph glyph-name="eight" unicode="8" horiz-adv-x="595" d="M401 373q28-7 52.5-23.5T496 310t28.5-53 10.5-64q0-50-19-89t-51.5-66T389-3.5 298-18 206.5-3.5t-76 41.5T79 104t-19 89q0 35 10.5 65t29 53 43 38.5T194 373v2q-48 17-78.5 58T85 533q0 44 17 79.5t46 61 67.5 39T298 726q43 0 82-13.5t67.5-38 45.5-60 17-79.5q0-58-30.5-101T401 375v-2zM182 530q0-24 8.5-45t24-36.5 37-24.5 46.5-9q24 0 45 9t37 24.5 25 36.5 9 45q0 25-9.5 46.5t-25 37-36.5 24-45 8.5q-25 0-46.5-8.5t-37-24-24-37T182 530zm-23-332q0-30 10-55t28.5-42.5 44-27.5T298 63q30 0 55.5 10t43.5 27.5 28.5 42.5 10.5 55q0 29-10.5 53.5T397 294t-43.5 28-55.5 10-55.5-10-44-28-29-42.5T159 198z"/><glyph glyph-name="nine" unicode="9" horiz-adv-x="595" d="M365 286l-1 1q-15-9-41-14-12-2-24.5-3.5T275 268q-47 0-87 16.5t-70 46T71 401t-17 89q0 53 18.5 96.5T124 661t78 48 97 17 97-17.5 77.5-48.5 51-74 18.5-93q0-58-19-105t-49-96L290 0H175zm81 208q0 31-10.5 58.5t-30 48T359 633t-60 12-60-11.5-46.5-31.5-30-48-10.5-61q0-32 10.5-59t29.5-47 46-31 60-11 60.5 11 47 31 30 47 10.5 60z"/><glyph glyph-name="colon" unicode=":" horiz-adv-x="300" d="M217 415q0-27-19-46.5T150 349q-28 0-47.5 19T83 414q0 26 19 46t48 20 48-19.5 19-45.5zm0-355q0-26-19-46T150-6q-28 0-47.5 19.5T83 59q0 27 19 46.5t48 19.5 48-19 19-46z"/><glyph glyph-name="semicolon" unicode=";" horiz-adv-x="300" d="M217 415q0-27-19-46.5T150 349q-28 0-47.5 19T83 414q0 26 19 46t48 20 48-19.5 19-45.5zm-94-548H43l69 250h94z"/><glyph glyph-name="less" unicode="&amp;lt;" horiz-adv-x="666" d="M589 479L204 303l383-176V42L79 273v60l510 231v-85z"/><glyph glyph-name="equal" unicode="=" horiz-adv-x="666" d="M596 426v-81H70v81h526zm0-165v-81H70v81h526z"/><glyph glyph-name="greater" unicode="&amp;gt;" horiz-adv-x="666" d="M79 564l508-231v-60L79 42v85l383 176L79 479v85z"/><glyph glyph-name="question" unicode="?" horiz-adv-x="500" d="M301 201h-94v48q0 26 5 47t14.5 38 23 32.5T280 398l37 35q22 19 36.5 41.5T368 532q0 48-30.5 76.5T259 637q-50 0-80-32t-35-78l-96 11q6 43 25 77.5t47.5 58.5 65.5 36.5 79 12.5 78.5-12 64.5-35.5 44-58 16-79.5q0-32-7-56t-19.5-43.5T411 402t-39-35q-20-17-34-30.5T316 309t-11.5-31-3.5-42v-35zm25-141q0-26-19-46T259-6q-28 0-47.5 19.5T192 59q0 27 19 46.5t48 19.5 48-19 19-46z"/><glyph glyph-name="at" unicode="@" horiz-adv-x="800" d="M412 478q-27 0-47.5-14.5T330 426t-21-51-7-55q0-13 3-28.5t11-29 22-22.5 36-9q31 0 52 15.5t34.5 38 19.5 49 6 48.5q0 18-3.5 35t-12 30.5-22.5 22-36 8.5zm316-376q-59-62-139.5-91T415-18q-86 0-156.5 27.5T138 86 60.5 203.5 33 353q0 80 30 148t82 118 121.5 78.5T415 726q68 0 132-20t113.5-60 79-100T769 405q0-60-16-106t-43-77-62.5-46.5T573 160q-42 0-64.5 20.5T486 230h-5q-6-11-17-23.5t-27-23-35.5-17T358 160q-68 0-106 45.5T214 323q0 42 14 83t40 72.5 62.5 51T412 549q38 0 65-16.5t36-40.5h2l9 42h76l-39-188q-3-14-6.5-35t-3.5-36q0-17 7-31t33-14q22 0 40.5 12.5T663 277t20.5 53 7.5 67q0 63-20.5 111T613 588.5t-88 49T414 654q-66 0-120-23t-93-64-60-96.5T120 351q0-68 22.5-123t62.5-93.5T300.5 75 423 54q85 0 146.5 26.5T682 155z"/><glyph glyph-name="A" unicode="A" horiz-adv-x="711" d="M115 0H5l307 708h90L706 0H594l-72 174H186zm106 261h265L354 593z"/><glyph glyph-name="B" unicode="B" horiz-adv-x="642" d="M86 708h244q40 0 80-9t71.5-30 51-55 19.5-85q0-59-34-99t-90-55v-2q34-4 63-17.5t50-35.5 32.5-52 11.5-67q0-51-21-89t-57-62.5-84.5-37T319 0H86v708zm99-299h129q28 0 53.5 6.5t44.5 20 30 34 11 49.5q0 57-42 81.5T298 625H185V409zm0-325h124q31 0 62.5 5.5t57 19.5 41 37.5T485 206q0 63-43 91t-124 28H185V84z"/><glyph glyph-name="C" unicode="C" horiz-adv-x="708" d="M693 110q-42-57-109-92.5T423-18q-81 0-149.5 27.5t-118 77-77.5 118T50 355q0 83 28.5 151.5t79 117T277 699t150 27q36 0 73-7t71-21 62-34.5 48-47.5l-78-60q-26 36-73.5 59.5T427 639q-62 0-111.5-22.5T231 555t-54-90.5T158 355q0-60 18.5-112t53-90.5 84-60.5T424 70q60 0 109 24t81 70z"/><glyph glyph-name="D" unicode="D" horiz-adv-x="761" d="M86 708h243q68 0 136-20t123-63 89-110 34-161q0-91-34-157.5t-89-110-123-65T329 0H86v708zm99-621h124q64 0 118.5 18t94 52 61.5 84 22 113q0 66-22 116t-61.5 83.5-94 51T309 622H185V87z"/><glyph glyph-name="E" unicode="E" horiz-adv-x="601" d="M185 88h370V0H86v708h454v-87H185V409h334v-85H185V88z"/><glyph glyph-name="F" unicode="F" horiz-adv-x="568" d="M185 0H86v708h442v-87H185V401h321v-85H185V0z"/><glyph glyph-name="G" unicode="G" horiz-adv-x="778" d="M620 562q-32 35-81.5 56T428 639q-62 0-112-22.5T231 555t-54-90.5T158 355q0-59 19-111t54-90.5T317 93t114-22q50 0 92 9t73 26v197H439v84h255V44Q638 14 572-2T428-18q-83 0-152.5 27.5T156 86.5t-78 118T50 355q0 83 28.5 151.5t79 117T277 699t150 27q85 0 151.5-25T689 634z"/><glyph glyph-name="H" unicode="H" horiz-adv-x="729" d="M86 708h99V412h358v296h100V0H543v324H185V0H86v708z"/><glyph glyph-name="I" unicode="I" horiz-adv-x="271" d="M185 0H86v708h99V0z"/><glyph glyph-name="J" unicode="J" horiz-adv-x="495" d="M107 158q8-38 35-63t67-25q32 0 52.5 12t32.5 32.5 17 48 5 58.5v487h99V217q0-37-8-78t-30-76-61.5-58T214-18q-81 0-132 42T15 132z"/><glyph glyph-name="K" unicode="K" horiz-adv-x="659" d="M185 396h2l316 312h137L296 384 661 0H519L187 366h-2V0H86v708h99V396z"/><glyph glyph-name="L" unicode="L" horiz-adv-x="511" d="M185 88h316V0H86v708h99V88z"/><glyph glyph-name="M" unicode="M" horiz-adv-x="903" d="M452 164h2l209 544h154V0h-99v592h-2L481 0h-63L184 592h-2V0H86v708h154z"/><glyph glyph-name="N" unicode="N" horiz-adv-x="772" d="M585 142h2v566h99V0H561L187 578h-2V0H86v708h129z"/><glyph glyph-name="O" unicode="O" horiz-adv-x="849" d="M800 355q0-82-28.5-150.5T693 86.5t-119-77T424-18 274.5 9.5 156 86.5t-78 118T50 355q0 83 28 151.5t78 117T274.5 699 424 726t150-27 119-75.5 78.5-117T800 355zm-107 0q0 58-19 109.5T620 555t-84.5 61.5T424 639q-61 0-110.5-22.5t-84-61.5-53.5-90.5T157 355q0-59 19-111t54-90.5T314 93t110-22 111 22 85 60.5 54 90.5 19 111z"/><glyph glyph-name="P" unicode="P" horiz-adv-x="595" d="M86 708h216q57 0 104-11.5t80-35.5 51-61 18-89q0-53-19.5-91t-54-62-82-35.5T297 311H185V0H86v708zm99-313h105q36 0 66.5 6.5t52.5 20 34 35.5 12 54-12.5 53.5-34 35-51.5 19-65 5.5H185V395z"/><glyph glyph-name="Q" unicode="Q" horiz-adv-x="846" d="M834 0H418q-81 0-148.5 26T153 99 77 213 50 363q0 80 28 146.5T155 624t116.5 75T419 726q79 0 146-27t116-75 76.5-114.5T785 363q0-95-40-166T639 85v-2h195V0zM157 363q0-58 18.5-108.5T228 167t82-58.5T418 87q58 0 106.5 21.5T607 167t53 87.5T679 363q0 57-18 107t-52 87.5-82 59.5-108 22-108-22-82.5-59.5-53-87.5T157 363z"/><glyph glyph-name="R" unicode="R" horiz-adv-x="614" d="M185 0H86v708h227q51 0 97-10.5t80.5-33.5 54.5-60.5 20-91.5q0-78-48-126t-124-61L591 0H471L291 315H185V0zm0 398h114q35 0 65 6t52.5 19.5 35.5 35 13 53.5-13 53.5-34.5 34.5-50.5 18.5-61 5.5H185V398z"/><glyph glyph-name="S" unicode="S" horiz-adv-x="569" d="M438 577q-21 29-57 47.5T300 643q-24 0-48.5-6.5t-44.5-21-32.5-36T162 528q0-29 11.5-48.5t31-33 46-23L307 404q36-11 73-25t67-37 49-57.5 19-87.5q0-55-20.5-95.5t-54.5-67T361.5-5 270-18q-67 0-129.5 26T37 85l77 65q25-37 67-60t91-23q25 0 50 7t45.5 22 33.5 37.5 13 54.5-13.5 53.5T364 278t-53.5 25.5L246 325q-34 10-67 24.5t-59 37T78 442t-16 82q0 53 21.5 91t56 63 78 36.5T305 726q62 0 116-22t87-59z"/><glyph glyph-name="T" unicode="T" horiz-adv-x="569" d="M334 0h-99v621H8v87h553v-87H334V0z"/><glyph glyph-name="U" unicode="U" horiz-adv-x="712" d="M356-18q-70 0-122 23.5T148 68t-50.5 89.5T81 262v446h99V268q0-36 9-71.5t29.5-63.5 54-45T356 71q49 0 83 17t54.5 45 29.5 63.5 9 71.5v440h99V262q0-54-16.5-104.5T564 68 478 5.5 356-18z"/><glyph glyph-name="V" unicode="V" horiz-adv-x="642" d="M321 128h3l213 580h107L366 0h-92L-2 708h110z"/><glyph glyph-name="W" unicode="W" horiz-adv-x="988" d="M273 144h2l166 564h109l165-564h2l156 564h105L770 0H667L495 569h-2L321 0H218L10 708h107z"/><glyph glyph-name="X" unicode="X" horiz-adv-x="668" d="M334 444l168 264h116L392 373 649 0H524L330 298 140 0H18l253 375L43 708h121z"/><glyph glyph-name="Y" unicode="Y" horiz-adv-x="624" d="M362 0H262v306L-3 708h122l196-320 197 320h115L362 306V0z"/><glyph glyph-name="Z" unicode="Z" horiz-adv-x="592" d="M553 621L153 88h406V0H33v87l399 534H41v87h512v-87z"/><glyph glyph-name="bracketleft" unicode="[" horiz-adv-x="315" d="M236 666h-93V-90h93v-66H59v888h177v-66z"/><glyph glyph-name="backslash" unicode="\" horiz-adv-x="380" d="M4 716l70 26L382-9l-71-24z"/><glyph glyph-name="bracketright" unicode="]" horiz-adv-x="315" d="M79-90h93v756H79v66h177v-888H79v66z"/><glyph glyph-name="asciicircum" unicode="^" horiz-adv-x="666" d="M300 708h66l226-399h-91L332 609 165 309H74z"/><glyph glyph-name="underscore" unicode="_" horiz-adv-x="500" d="M0-75h500v-63H0v63z"/><glyph glyph-name="grave" unicode="`" d="M-34 708H79l100-144h-77z"/><glyph glyph-name="a" unicode="a" horiz-adv-x="542" d="M376 307q0 53-32 78.5T259 411q-40 0-75.5-15.5T124 356l-50 60q35 33 85.5 52T268 487q51 0 88.5-14.5T418 433t36-59 12-73V94q0-24 1.5-50.5T473 0h-85q-8 34-8 68h-3q-26-38-65.5-59T218-12q-28 0-58.5 7.5T104 20 62.5 65 46 134q0 54 29 85.5t76 48T257 289t119 5v13zm-23-81q-35 0-72.5-3t-68-12-50.5-27-20-48q0-21 8.5-35T173 78t31-12.5 35-3.5q66 0 101.5 39.5T376 201v25h-23z"/><glyph glyph-name="b" unicode="b" horiz-adv-x="636" d="M174 75V0H83v756h94V403h3q24 35 67 59.5T349 487q53 0 96.5-19t75-53 48.5-79.5 17-97.5-17-98-48-80-75-53.5T347-13q-51 0-97 22.5T176 75h-2zm315 163q0 33-10 64t-30 55-49.5 38-68.5 14q-36 0-65.5-14T215 357t-32.5-55-11.5-65 11.5-65 32.5-54.5T265.5 80 331 66q39 0 68.5 14.5T449 119t30 55 10 64z"/><glyph glyph-name="c" unicode="c" horiz-adv-x="494" d="M413 354q-15 23-45 38.5T304 408q-37 0-65.5-14T190 356.5 159.5 302 149 237t10.5-65 30.5-54.5T239 80t66-14q36 0 65.5 14t48.5 38l63-57q-30-35-75-54.5T305-13q-55 0-101.5 18T123 55.5 69.5 134 50 237q0 56 19 102t53 79 80.5 51T303 487q50 0 99.5-20t78.5-58z"/><glyph glyph-name="d" unicode="d" horiz-adv-x="635" d="M459 75q-27-43-73.5-65.5T288-13q-55 0-99 19.5T114 60t-48 80-17 98 17 97.5 48.5 79.5 75.5 53 97 19q58 0 101-24.5t68-59.5h2v353h94V0h-91v75h-2zM147 238q0-33 10-64t30-55 49-38.5T304 66q36 0 65.5 14t50.5 37.5 32.5 54.5 11.5 65-11.5 65-32.5 55-50.5 38-65.5 14q-39 0-68-14t-49-38-30-55-10-64z"/><glyph glyph-name="e" unicode="e" horiz-adv-x="573" d="M428 279q-1 28-9.5 52.5t-25 42.5-41 28.5T295 413q-30 0-56.5-10.5t-46-28.5-32-42.5T146 279h282zm95-38v-16l-1-16H146q1-30 13.5-56.5t33.5-46T241.5 76 300 65q48 0 83 21t55 51l66-53q-38-50-89.5-73.5T300-13q-54 0-100 18t-79 50.5T69 134 50 236q0 55 18.5 101.5T120 417t78 51.5 97 18.5 94.5-17 72-49 45.5-77.5T523 241z"/><glyph glyph-name="f" unicode="f" horiz-adv-x="310" d="M304 397H194V0h-94v397H6v77h94v99q0 42 9.5 77.5t31 61.5 55 41 81.5 15q34 0 59-7l-11-81q-11 3-22 5t-25 2q-27 0-43.5-9.5T209 652t-12-36.5-3-42.5v-99h110v-77z"/><glyph glyph-name="g" unicode="g" horiz-adv-x="632" d="M118-81q31-35 77.5-56t95.5-21q47 0 79 13.5t51.5 37 28 55.5 8.5 69v61h-2q-26-40-71-61T289-4q-54 0-98.5 19T115 67t-48 77.5T50 240t17 96 48 78.5 75 53 98 19.5q51 0 97.5-22t73.5-67h2v76h91V24q0-52-13-99.5t-44-84-81-58.5-124-22q-62 0-124.5 22.5T58-154zm29 323q0-33 10.5-63t31-53T238 89t66-14q36 0 66 13t51 35.5 32.5 53T465 242q0 34-11.5 64t-33 53-51 36.5T304 409q-37 0-66-13.5t-49.5-36-31-53T147 242z"/><glyph glyph-name="h" unicode="h" horiz-adv-x="584" d="M179 402q17 35 58 60t92 25q46 0 79-15.5t55-41.5 32.5-61 10.5-75V0h-94v262q0 29-4.5 55T391 363t-32.5 32-53.5 12q-56 0-92-42.5T177 251V0H83v756h94V402h2z"/><glyph glyph-name="i" unicode="i" horiz-adv-x="259" d="M176 0H82v474h94V0zm16 645q0-26-18.5-43T129 585t-44 17.5T67 645q0 26 18 43.5t44 17.5 44.5-17.5T192 645z"/><glyph glyph-name="j" unicode="j" horiz-adv-x="260" d="M-21-154q20-5 38-5 21 0 34 8t20 21.5 9.5 32T83-58v532h94V-61q0-36-6.5-68T147-186t-47-39.5T23-240q-13 0-28 2t-26 4zm214 799q0-26-18.5-43T130 585t-44.5 17.5T67 645q0 26 18.5 43.5T130 706t44.5-17.5T193 645z"/><glyph glyph-name="k" unicode="k" horiz-adv-x="527" d="M177 268h3l199 206h126L283 259 524 0H394L180 246h-3V0H83v756h94V268z"/><glyph glyph-name="l" unicode="l" horiz-adv-x="260" d="M177 0H83v756h94V0z"/><glyph glyph-name="m" unicode="m" horiz-adv-x="887" d="M173 396q18 38 57.5 64.5T324 487q48 0 86.5-22t60.5-73q24 46 67 70.5t94 24.5q46 0 79-15.5t55-41.5 32.5-61 10.5-75V0h-94v263q0 29-5 55t-17 46-32 32-51 12q-32 0-55-13.5t-37.5-35-21-48.5-6.5-55V0h-94v282q0 28-5 51t-17 39.5-31 26-47 9.5q-52 0-86.5-42.5T175 252V0H81v372q0 19-1 49t-3 53h89q2-18 3-40.5t1-37.5h3z"/><glyph glyph-name="n" unicode="n" horiz-adv-x="582" d="M166 474q2-18 3-40.5t1-37.5h3q9 19 24.5 35.5t35.5 29 44 19.5 50 7q46 0 79-15.5t55-41.5 32.5-61 10.5-75V0h-94v263q0 29-4.5 55T389 364t-33 32-54 12q-56 0-91.5-42.5T175 252V0H81v372q0 19-1 49t-3 53h89z"/><glyph glyph-name="o" unicode="o" horiz-adv-x="610" d="M561 238q0-55-19.5-101t-54-79.5-81.5-52T305-13 204 5.5t-81 52T69.5 137 50 238t19.5 100.5T123 417t81 51.5T305 487t101-18.5 81.5-51.5 54-78.5T561 238zm-98 0q0 34-10.5 65T422 357.5 372.5 395 305 409t-67.5-14-49.5-37.5-30.5-54.5-10.5-65 10.5-65 30.5-55 49.5-38T305 66t67.5 14 49.5 38 30.5 55 10.5 65z"/><glyph glyph-name="p" unicode="p" horiz-adv-x="634" d="M175-240H81v714h92v-74h3q23 38 67.5 62.5T347 487q53 0 96.5-19t75-53 48.5-79.5 17-97.5-17-98-48-80-75-53.5T345-13q-51 0-96 22t-71 62h-3v-311zm312 478q0 33-10 64t-30 55-49.5 38-68.5 14q-36 0-65.5-14T213 357t-32.5-55-11.5-65 11.5-65 32.5-54.5T263.5 80 329 66q39 0 68.5 14.5T447 119t30 55 10 64z"/><glyph glyph-name="q" unicode="q" horiz-adv-x="633" d="M456 71q-26-40-71.5-62T288-13q-55 0-99 19.5T114 60t-48 80-17 98 17 97.5 48.5 79.5 75.5 53 97 19q58 0 102.5-24.5T458 400h3v74h91v-714h-94V71h-2zM147 238q0-33 10-64t30-55 49-38.5T304 66q36 0 65.5 14t50.5 37.5 32.5 54.5 11.5 65-11.5 65-32.5 55-50.5 38-65.5 14q-39 0-68-14t-49-38-30-55-10-64z"/><glyph glyph-name="r" unicode="r" horiz-adv-x="362" d="M81 372q0 19-1 49t-3 53h89q2-18 3-41.5t1-38.5h3q20 42 58.5 67.5T318 487q22 0 37-4l-4-87q-20 5-43 5-34 0-59-12.5T207.5 355 183 306.5t-8-57.5V0H81v372z"/><glyph glyph-name="s" unicode="s" horiz-adv-x="444" d="M337 354q-16 26-45 42.5T227 413q-16 0-32-3.5t-28.5-11-20-19T139 351q0-30 27-44.5t81-26.5q34-8 63-19t50.5-27.5T394 194t12-54q0-42-16-71t-42.5-47.5T287-5t-70-8q-54 0-105.5 21T26 72l67 57q19-28 52.5-47T219 63q18 0 34.5 3.5t30 11.5T305 99t8 33q0 33-31.5 49T189 211q-24 6-48.5 14.5T96 249t-32.5 37.5T51 342q0 38 15.5 65.5t40.5 45 57 26 66 8.5q51 0 98.5-20t73.5-58z"/><glyph glyph-name="t" unicode="t" horiz-adv-x="329" d="M313 397H187V150q0-43 16-61.5T254 70q13 0 28 3t27 9l3-77q-17-6-37.5-9.5T232-8q-67 0-102.5 37T94 140v257H3v77h91v136h93V474h126v-77z"/><glyph glyph-name="u" unicode="u" horiz-adv-x="582" d="M415 0q-2 18-3 40.5T411 78h-2q-18-38-60.5-64.5T254-13q-46 0-79.5 15t-55 41.5-32 61.5T77 180v294h94V212q0-29 4.5-55.5T192 110t33-32 54-12q57 0 92 42.5T406 222v252h94V102q0-19 1-49t3-53h-89z"/><glyph glyph-name="v" unicode="v" horiz-adv-x="504" d="M304 0H202L9 474h104l139-373h2l140 373h100z"/><glyph glyph-name="w" unicode="w" horiz-adv-x="773" d="M116 474l107-362h2l113 362h99l115-362h2l107 362h99L603 0h-98L388 356h-2L270 0h-98L14 474h102z"/><glyph glyph-name="x" unicode="x" horiz-adv-x="511" d="M197 249L24 474h116l116-163 117 163h110L312 250 503 0H386L254 185 120 0H7z"/><glyph glyph-name="y" unicode="y" horiz-adv-x="504" d="M261 102h2l131 372h100L264-112q-12-30-26-53.5t-33-40-44.5-25.5-60.5-9q-15 0-30.5 1.5T38-233l9 83q24-8 47-8 37 0 55 20.5T182-79l30 79L9 474h105z"/><glyph glyph-name="z" unicode="z" horiz-adv-x="462" d="M419 397L149 79h281V0H33v77l268 320H46v77h373v-77z"/><glyph glyph-name="braceleft" unicode="{" horiz-adv-x="315" d="M5 325q30 0 52 21t22 69v188q0 34 9.5 58.5t26 40.5 38 23 44.5 7h68v-69h-51q-17 0-27-6.5t-15-17-7-23-2-25.5V408q0-33-10.5-55T127 317.5 96 297t-26-8v-2q10-1 26-7t31-19.5 25.5-36.5 10.5-59V-15q0-13 2-25.5t7-23 15-17 27-6.5h51v-69h-68q-23 0-44.5 7t-38 23-26 40T79-27v184q0 51-22 72.5T5 251v74z"/><glyph glyph-name="bar" unicode="|" horiz-adv-x="222" d="M152 750V-250H70V750h82z"/><glyph glyph-name="braceright" unicode="}" horiz-adv-x="315" d="M310 251q-30 0-52-21.5T236 157V-27q0-35-9.5-59t-26-40-38-23-44.5-7H50v69h52q16 0 26 6.5t15 17 7 23 2 25.5v180q0 36 10.5 59t25.5 36.5 31 19.5 27 7v2q-11 1-27 8t-31 20.5-25.5 35.5-10.5 55v183q0 13-2 25.5t-7 23-15 17-26 6.5H50v69h68q23 0 44.5-7t38-23 26-40.5T236 603V415q0-48 22-69t52-21v-74z"/><glyph glyph-name="asciitilde" unicode="~" horiz-adv-x="666" d="M340 346q19-12 33-20t25-12 20.5-5.5T439 307q50 0 87 68l59-55q-18-29-36-48t-36.5-30-36.5-15-35-4q-29 0-55 8t-61 30q-19 12-32.5 19.5T268 292t-20.5 5.5T227 299q-50 0-87-68l-59 55q35 58 72.5 78t71.5 20q30 0 55.5-8t59.5-30z"/><glyph glyph-name="uni00A0"/><glyph glyph-name="exclamdown" unicode="¡" horiz-adv-x="334" d="M117-221v501h99v-501h-99zm117 648q0-27-19-46t-48-19-48 19.5-19 46.5q0 26 19.5 45.5T167 493q29 0 48-20t19-46z"/><glyph glyph-name="cent" unicode="¢" horiz-adv-x="595" d="M299 403q-60-11-91.5-57.5T176 237t32-108 91-58v332zm51-333q32 1 58.5 16t43.5 37l64-60q-32-37-76-55t-90-20v-66h-51v67q-50 5-90 26t-68 54-43 76-15 93 15 92.5 43 75 68 53 90 26.5v65h51v-64q47-2 90.5-19.5T516 411l-66-60q-17 22-42.5 36.5T350 404V70z"/><glyph glyph-name="sterling" unicode="£" horiz-adv-x="595" d="M434 325H268V84h263V0H70v84h100v241H73v72h97v88q0 40 11.5 82.5t38 78 70.5 58T399 726q48 0 90.5-15t74.5-45l-59-67q-19 21-47 33.5T397 645q-40 0-65-16.5T292.5 587 273 533t-5-54v-82h166v-72z"/><glyph glyph-name="currency" unicode="¤" horiz-adv-x="595" d="M494 420q21-29 32-64t11-77-12.5-79-32.5-66l84-85-51-52-87 85q-28-20-63-31t-76-11q-38 0-74 12t-65 32L72-3 20 49l86 88q-19 28-31 64.5T63 279q0 42 10.5 76t29.5 63l-83 84 52 51 84-82q29 20 65.5 32.5T299 516q42 0 78-12.5t64-32.5l83 82 52-51zm-195 17q-35 0-63-12.5t-48-34-30.5-50T147 279t10.5-61.5T188 167t48-34.5 63-12.5 63.5 12.5T411 167t30.5 50.5T452 279t-10.5 61.5-30.5 50-48.5 34T299 437z"/><glyph glyph-name="yen" unicode="¥" horiz-adv-x="595" d="M250 228v91H80v66h145L13 708h115l174-294 170 294h110L374 385h141v-66H345v-91h170v-66H345V0h-95v162H80v66h170z"/><glyph glyph-name="brokenbar" unicode="¦" horiz-adv-x="222" d="M152 675V325H70v350h82zm0-500v-350H70v350h82z"/><glyph glyph-name="section" unicode="§" horiz-adv-x="595" d="M431 584q-14 26-43 45t-68 19-69-20-30-58q0-20 8.5-35.5t24.5-29 40-25 55-24.5q35-15 65.5-30.5t53-36 35-46.5 12.5-60q0-45-25-79.5T430 153q61-41 61-120 0-44-17.5-76.5t-46-53.5-65-31.5T288-139q-65 0-123.5 28T75-25l83 46q17-41 54-59.5T288-57q16 0 34.5 4.5t34.5 14T383-13t10 40q0 21-8 36.5T359.5 92 315 117.5L249 147q-32 14-60.5 28.5T139 208t-33.5 42T93 308q0 52 29 87t71 52q-27 17-48 44.5T124 564q0 41 17 71.5t44.5 50.5 62.5 30 71 10q63 0 110.5-24t72.5-66zM259 402q-12-3-25.5-9.5t-24-16-17.5-23-7-31.5q0-19 7.5-33t20.5-24.5 30.5-19L280 228l84-36q23 8 41 28.5t18 49.5q0 21-7.5 36t-20 26.5-28.5 20-33 16.5z"/><glyph glyph-name="dieresis" unicode="¨" d="M-34 645q0 24 17.5 42.5T28 706q26 0 44-17.5T90 645q0-25-18-42.5T28 585q-27 0-44.5 18.5T-34 645zm194 0q0 24 17.5 42.5T222 706q26 0 44-17.5t18-43.5q0-25-18-42.5T222 585q-27 0-44.5 18.5T160 645z"/><glyph glyph-name="copyright" unicode="©" horiz-adv-x="800" d="M20 353q0 79 30 147.5T131.5 620t121 80.5T401 730q78 0 147-29.5T668.5 620 750 500.5 780 353q0-78-30-146.5T668.5 87 548 7 401-22q-79 0-148.5 29t-121 80T50 206.5 20 353zm60 0q0-66 25.5-124t69-101.5 102-68.5T401 34t124 25 101.5 68.5T695 229t25 124-25 124.5-68.5 102-101.5 69T401 674t-124.5-25.5-102-69-69-102T80 353zm435 120q-17 23-44.5 33.5T417 517q-33 0-60.5-12t-47-33-30.5-50-11-62q0-71 39.5-115T414 201q35 0 61.5 13.5T519 251l61-43q-29-36-70.5-56T413 132q-50 0-92.5 16.5t-73 46.5-47.5 72-17 93q0 52 18 93.5t49.5 70.5 74 45 92.5 16q21 0 43-4t43-12 39-20.5 31-29.5z"/><glyph glyph-name="ordfeminine" unicode="ª" horiz-adv-x="380" d="M247 468h-1q-11-19-34.5-31.5T157 424q-17 0-35.5 4.5T87 443t-26 27-10 42q0 31 18 50t46 29.5 63 13.5 68 3v7q0 26-19 39t-46 13q-23 0-43.5-9T103 635l-36 43q24 23 56 34t64 11q38 0 62.5-10.5t39-28 20-39T314 603V431h-67v37zm-1 92h-16q-17 0-36-1.5t-35-6.5-26.5-14-10.5-25q0-21 15.5-28.5T172 477q36 0 55 19.5t19 53.5v10z"/><glyph glyph-name="guillemotleft" unicode="«" horiz-adv-x="500" d="M132 244L248 69l-62-43L40 244l146 217 61-42zm203 0L450 69l-61-43-146 218 146 217 61-42z"/><glyph glyph-name="logicalnot" unicode="¬" horiz-adv-x="666" d="M596 139h-81v206H70v81h526V139z"/><glyph glyph-name="uni00AD" unicode="­" horiz-adv-x="320" d="M276 204H44v80h232v-80z"/><glyph glyph-name="registered" unicode="®" horiz-adv-x="600" d="M311 511q14 0 25.5 9t11.5 24q0 16-13 23t-24 7h-47v-63h47zm44-143l-55 99h-36v-99h-61v256h110q18 0 35-4t31-13 22.5-24.5T410 544q0-26-14.5-43T359 476l68-108h-72zM72 493q0 47 18 88.5t49 72 72.5 48.5 88.5 18 88.5-18 72.5-48.5 49-72 18-88.5-18-88-49-71.5-72.5-48T300 268t-88.5 17.5-72.5 48T90 405t-18 88zm36 0q0-39 15-74t41-61.5 61-41.5 75-15 75 15 61 41.5 41 61.5 15 74q0 40-15 75t-41 61-61 41-75 15-75-15-61-41-41-61-15-75z"/><glyph glyph-name="macron" unicode="¯" d="M273 597H-23v67h296v-67z"/><glyph glyph-name="degree" unicode="°" horiz-adv-x="400" d="M355 565q0-33-12-61t-33-48.5-49-32.5-61-12-61 12-49 32.5T57 504t-12 61 12 61 33 49 49 33 61 12 61-12 49-33 33-49 12-61zm-64 0q0 19-7 36t-19.5 29.5-29 19.5-35.5 7-35.5-7-29-19.5T116 601t-7-36q0-38 26.5-64.5T200 474t64.5 26.5T291 565z"/><glyph glyph-name="plusminus" unicode="±" horiz-adv-x="666" d="M70 419h223v150h81V419h222v-81H374V191h-81v147H70v81zm0-298h526V40H70v81z"/><glyph glyph-name="twosuperior" unicode="²" horiz-adv-x="385" d="M333 286H50v67l164 165q16 17 28 35.5t12 42.5q0 26-17 40.5T194 651q-27 0-45-18.5T126 583l-74 10q8 55 47 90.5t95 35.5q27 0 52-7.5t44-23 30.5-38.5 11.5-54q0-43-21.5-73T262 467L148 355h185v-69z"/><glyph glyph-name="threesuperior" unicode="³" horiz-adv-x="385" d="M143 538h27q32 0 56 14t24 49q0 24-18 38.5T189 654q-22 0-39.5-14T123 603l-68 23q18 45 54.5 69.5T191 720q28 0 52.5-7t43-21.5 29-36.5 10.5-51q0-34-18-58t-44-35q32-10 52.5-37t20.5-64q0-33-12.5-57t-33-40.5T245 288t-54-8q-51 0-91 24.5T40 385l71 22q9-27 29-43.5t49-16.5q27 0 50 15.5t23 49.5q0 19-8.5 31T232 462.5 202.5 473t-32.5 3h-27v62z"/><glyph glyph-name="acute" unicode="´" d="M148 564H71l100 144h113z"/><glyph glyph-name="mu" unicode="µ" horiz-adv-x="578" d="M413 0q-2 18-3 40.5T409 78h-2q-18-38-60.5-64.5T252-13q-25 0-47.5 8T169 17v-257H75v714h94V212q0-29 4.5-55.5T190 110t33-32 54-12q57 0 92 42.5T404 222v252h94V102q0-19 1-49t3-53h-89z"/><glyph glyph-name="paragraph" unicode="¶" horiz-adv-x="600" d="M523-126h-78v771H330v-771h-79v453q-47 0-86 14t-67 39-43.5 58.5T39 511q0 99 63 148t168 49h253v-834z"/><glyph glyph-name="periodcentered" unicode="·" horiz-adv-x="260" d="M198 303q0-26-19-46t-48-20-48.5 19.5T63 302q0 27 19.5 47t48.5 20q28 0 47.5-19.5T198 303z"/><glyph glyph-name="cedilla" unicode="¸" d="M121-69q7 2 13 2h14q17 0 33.5-4t30-13 22-24 8.5-37q0-26-12-43.5t-30.5-28-41-14.5-43.5-4q-26 0-54 6t-49 17l20 42q37-17 77-17 8 0 18.5 2t20 6.5 16 12.5 6.5 21q0 22-17 30t-37 8q-9 0-20-2t-21-5L55-94l62 94h50z"/><glyph glyph-name="onesuperior" unicode="¹" horiz-adv-x="385" d="M247 282h-78v332l-68-59-46 51 125 102h67V282z"/><glyph glyph-name="ordmasculine" unicode="º" horiz-adv-x="380" d="M342 574q0-32-11.5-59.5t-31.5-47-48-30.5-61-11-61 11-48 30.5-31.5 47T38 574q0 33 11.5 60T81 680.5t48 30.5 61 11 61-11 48-30.5 31.5-46.5 11.5-60zm-75 0q0 33-19.5 57.5T190 656t-57-24.5-19-57.5q0-32 19-57t57-25 57.5 25 19.5 57z"/><glyph glyph-name="guillemotright" unicode="»" horiz-adv-x="500" d="M314 461l146-217L314 26l-62 43 116 175-115 175zm-203 0l146-217L111 26 50 69l115 175L50 419z"/><glyph glyph-name="onequarter" unicode="¼" horiz-adv-x="870" d="M746 158h59V91h-59V0h-71v91H486v64l177 271h83V158zm-74 174L563 158h112v174h-3zm-425-50h-78v332l-68-59-46 51 125 102h67V282zM227-35L169-4l451 743 57-31z"/><glyph glyph-name="onehalf" unicode="½" horiz-adv-x="870" d="M247 282h-78v332l-68-59-46 51 125 102h67V282zM811 0H528v67l164 165q16 17 28 35.5t12 42.5q0 26-17 40.5T672 365q-27 0-45-18.5T604 297l-74 10q8 55 47 90.5t95 35.5q27 0 52-7.5t44-23 30.5-38.5 11.5-54q0-43-21.5-73T740 181L626 69h185V0zM227-35L169-4l451 743 57-31z"/><glyph glyph-name="threequarters" unicode="¾" horiz-adv-x="870" d="M746 158h59V91h-59V0h-71v91H486v64l177 271h83V158zm-74 174L563 158h112v174h-3zM227-35L169-4l451 743 57-31zm-84 573h27q32 0 56 14t24 49q0 24-18 38.5T189 654q-22 0-39.5-14T123 603l-68 23q18 45 54.5 69.5T191 720q28 0 52.5-7t43-21.5 29-36.5 10.5-51q0-34-18-58t-44-35q32-10 52.5-37t20.5-64q0-33-12.5-57t-33-40.5T245 288t-54-8q-51 0-91 24.5T40 385l71 22q9-27 29-43.5t49-16.5q27 0 50 15.5t23 49.5q0 19-8.5 31T232 462.5 202.5 473t-32.5 3h-27v62z"/><glyph glyph-name="questiondown" unicode="¿" horiz-adv-x="500" d="M205 286h94v-48q0-26-5-47t-14.5-38-23-32.5T226 89l-37-35q-22-19-36.5-41.5T138-45q0-48 30.5-76.5T247-150q50 0 80 32t35 78l96-11q-6-43-25-77.5T385.5-187 320-223.5 241-236t-78.5 12T98-188.5t-44 58T38-51q0 32 7 56t19.5 43.5T95 85t39 35q20 17 33.5 30.5t22 27.5 12 31 3.5 42v35zm-25 141q0 26 19 46t48 20q28 0 47.5-19.5T314 428q0-27-19-46.5T247 362t-48 19-19 46z"/><glyph glyph-name="Agrave" unicode="À" horiz-adv-x="711" d="M115 0H5l307 708h90L706 0H594l-72 174H186zm106 261h265L354 593zm-38 647h114l100-144h-77z"/><glyph glyph-name="Aacute" unicode="Á" horiz-adv-x="711" d="M115 0H5l307 708h90L706 0H594l-72 174H186zm106 261h265L354 593zm177 503h-76l99 144h114z"/><glyph glyph-name="Acircumflex" unicode="Â" horiz-adv-x="711" d="M115 0H5l307 708h90L706 0H594l-72 174H186zm106 261h265L354 593zm304 503h-91l-75 99-76-99h-90l112 144h108z"/><glyph glyph-name="Atilde" unicode="Ã" horiz-adv-x="711" d="M115 0H5l307 708h90L706 0H594l-72 174H186zm106 261h265L354 593zm-36 511q4 22 10.5 42.5t18.5 37 29.5 26.5 43.5 10q19 0 38.5-6t36.5-14q20-9 36.5-15.5T429 846q22 0 32.5 14.5T477 892h54q-4-22-10.5-42.5t-18.5-37-30-26.5-43-10q-19 0-39 6.5T352 797q-18 9-34.5 15t-30.5 6q-21 0-31.5-14.5T240 772h-55z"/><glyph glyph-name="Adieresis" unicode="Ä" horiz-adv-x="711" d="M115 0H5l307 708h90L706 0H594l-72 174H186zm106 261h265L354 593zm-23 584q0 24 17.5 42.5T260 906q26 0 44-17.5t18-43.5q0-25-18-42.5T260 785q-27 0-44.5 18.5T198 845zm194 0q0 24 17.5 42.5T454 906q26 0 44-17.5t18-43.5q0-25-18-42.5T454 785q-27 0-44.5 18.5T392 845z"/><glyph glyph-name="Aring" unicode="Å" horiz-adv-x="711" d="M115 0H5l307 708h90L706 0H594l-72 174H186zm106 261h265L354 593zm238 592q0-43-29.5-71T358 754q-21 0-39 7.5T287.5 782 266 813t-8 39q0 43 29 71t71 28 71.5-28 29.5-70zm-41 0q0 25-17.5 41.5T358 911t-42-17-17-42q0-24 17-40.5t42-16.5 42.5 16.5T418 853z"/><glyph glyph-name="AE" unicode="Æ" horiz-adv-x="1015" d="M623 88h346V0H524v192H241L120 0H2l457 708h495v-87H623V409h310v-85H623V88zm-99 190v343h-14L293 278h231z"/><glyph glyph-name="Ccedilla" unicode="Ç" horiz-adv-x="708" d="M693 110q-40-54-104-89T437-17l-34-52q7 2 13 2h14q17 0 33.5-4t30-13 22-24 8.5-37q0-26-12-43.5t-30.5-28-41-14.5-43.5-4q-26 0-54 6t-49 17l20 42q37-17 77-17 8 0 18.5 2t20 6.5 16 12.5 6.5 21q0 22-17 30t-37 8q-9 0-20-2t-21-5l-20 20 51 78q-75 6-137 35.5T144.5 98 75 212.5 50 355q0 83 28.5 151.5t79 117T277 699t150 27q36 0 73-7t71-21 62-34.5 48-47.5l-78-60q-26 36-73.5 59.5T427 639q-62 0-111.5-22.5T231 555t-54-90.5T158 355q0-60 18.5-112t53-90.5 84-60.5T424 70q60 0 109 24t81 70z"/><glyph glyph-name="Egrave" unicode="È" horiz-adv-x="601" d="M185 88h370V0H86v708h454v-87H185V409h334v-85H185V88zm-9 820h114l100-144h-77z"/><glyph glyph-name="Eacute" unicode="É" horiz-adv-x="601" d="M185 88h370V0H86v708h454v-87H185V409h334v-85H185V88zm153 676h-76l99 144h114z"/><glyph glyph-name="Ecircumflex" unicode="Ê" horiz-adv-x="601" d="M185 88h370V0H86v708h454v-87H185V409h334v-85H185V88zm299 676h-91l-75 99-76-99h-90l112 144h108z"/><glyph glyph-name="Edieresis" unicode="Ë" horiz-adv-x="601" d="M185 88h370V0H86v708h454v-87H185V409h334v-85H185V88zm-27 757q0 24 17.5 42.5T220 906q26 0 44-17.5t18-43.5q0-25-18-42.5T220 785q-27 0-44.5 18.5T158 845zm194 0q0 24 17.5 42.5T414 906q26 0 44-17.5t18-43.5q0-25-18-42.5T414 785q-27 0-44.5 18.5T352 845z"/><glyph glyph-name="Igrave" unicode="Ì" horiz-adv-x="271" d="M185 0H86v708h99V0zM-28 908H86l100-144h-77z"/><glyph glyph-name="Iacute" unicode="Í" horiz-adv-x="271" d="M185 0H86v708h99V0zm-24 764H85l99 144h114z"/><glyph glyph-name="Icircumflex" unicode="Î" horiz-adv-x="271" d="M185 0H86v708h99V0zm115 764h-91l-75 99-76-99h-90L80 908h108z"/><glyph glyph-name="Idieresis" unicode="Ï" horiz-adv-x="271" d="M185 0H86v708h99V0zM-23 845q0 24 17.5 42.5T39 906q26 0 44-17.5t18-43.5q0-25-18-42.5T39 785q-27 0-44.5 18.5T-23 845zm194 0q0 24 17.5 42.5T233 906q26 0 44-17.5t18-43.5q0-25-18-42.5T233 785q-27 0-44.5 18.5T171 845z"/><glyph glyph-name="Eth" unicode="Ð" horiz-adv-x="761" d="M82 335H13v70h69v303h258q68 0 133.5-22T591 620t83.5-110.5T706 354q0-90-34-156.5T584 87 463.5 21.5 332 0H82v335zM182 90h117q70 0 125.5 19t94.5 53.5 60 83T600 354t-19.5 108.5-56.5 83-91.5 53.5T309 618H182V405h237v-70H182V90z"/><glyph glyph-name="Ntilde" unicode="Ñ" horiz-adv-x="772" d="M585 142h2v566h99V0H561L187 578h-2V0H86v708h129zM211 772q4 22 10.5 42.5t18.5 37 29.5 26.5 43.5 10q19 0 38.5-6t36.5-14q20-9 36.5-15.5T455 846q22 0 32.5 14.5T503 892h54q-4-22-10.5-42.5t-18.5-37-30-26.5-43-10q-19 0-39 6.5T378 797q-18 9-34.5 15t-30.5 6q-21 0-31.5-14.5T266 772h-55z"/><glyph glyph-name="Ograve" unicode="Ò" horiz-adv-x="849" d="M800 355q0-82-28.5-150.5T693 86.5t-119-77T424-18 274.5 9.5 156 86.5t-78 118T50 355q0 83 28 151.5t78 117T274.5 699 424 726t150-27 119-75.5 78.5-117T800 355zm-107 0q0 58-19 109.5T620 555t-84.5 61.5T424 639q-61 0-110.5-22.5t-84-61.5-53.5-90.5T157 355q0-59 19-111t54-90.5T314 93t110-22 111 22 85 60.5 54 90.5 19 111zM272 908h114l100-144h-77z"/><glyph glyph-name="Oacute" unicode="Ó" horiz-adv-x="849" d="M800 355q0-82-28.5-150.5T693 86.5t-119-77T424-18 274.5 9.5 156 86.5t-78 118T50 355q0 83 28 151.5t78 117T274.5 699 424 726t150-27 119-75.5 78.5-117T800 355zm-107 0q0 58-19 109.5T620 555t-84.5 61.5T424 639q-61 0-110.5-22.5t-84-61.5-53.5-90.5T157 355q0-59 19-111t54-90.5T314 93t110-22 111 22 85 60.5 54 90.5 19 111zM447 764h-76l99 144h114z"/><glyph glyph-name="Ocircumflex" unicode="Ô" horiz-adv-x="849" d="M800 355q0-82-28.5-150.5T693 86.5t-119-77T424-18 274.5 9.5 156 86.5t-78 118T50 355q0 83 28 151.5t78 117T274.5 699 424 726t150-27 119-75.5 78.5-117T800 355zm-107 0q0 58-19 109.5T620 555t-84.5 61.5T424 639q-61 0-110.5-22.5t-84-61.5-53.5-90.5T157 355q0-59 19-111t54-90.5T314 93t110-22 111 22 85 60.5 54 90.5 19 111zM590 764h-91l-75 99-76-99h-90l112 144h108z"/><glyph glyph-name="Otilde" unicode="Õ" horiz-adv-x="849" d="M800 355q0-82-28.5-150.5T693 86.5t-119-77T424-18 274.5 9.5 156 86.5t-78 118T50 355q0 83 28 151.5t78 117T274.5 699 424 726t150-27 119-75.5 78.5-117T800 355zm-107 0q0 58-19 109.5T620 555t-84.5 61.5T424 639q-61 0-110.5-22.5t-84-61.5-53.5-90.5T157 355q0-59 19-111t54-90.5T314 93t110-22 111 22 85 60.5 54 90.5 19 111zM251 772q4 22 10.5 42.5t18.5 37 29.5 26.5 43.5 10q19 0 38.5-6t36.5-14q20-9 36.5-15.5T495 846q22 0 32.5 14.5T543 892h54q-4-22-10.5-42.5t-18.5-37-30-26.5-43-10q-19 0-39 6.5T418 797q-18 9-34.5 15t-30.5 6q-21 0-31.5-14.5T306 772h-55z"/><glyph glyph-name="Odieresis" unicode="Ö" horiz-adv-x="849" d="M800 355q0-82-28.5-150.5T693 86.5t-119-77T424-18 274.5 9.5 156 86.5t-78 118T50 355q0 83 28 151.5t78 117T274.5 699 424 726t150-27 119-75.5 78.5-117T800 355zm-107 0q0 58-19 109.5T620 555t-84.5 61.5T424 639q-61 0-110.5-22.5t-84-61.5-53.5-90.5T157 355q0-59 19-111t54-90.5T314 93t110-22 111 22 85 60.5 54 90.5 19 111zM265 845q0 24 17.5 42.5T327 906q26 0 44-17.5t18-43.5q0-25-18-42.5T327 785q-27 0-44.5 18.5T265 845zm194 0q0 24 17.5 42.5T521 906q26 0 44-17.5t18-43.5q0-25-18-42.5T521 785q-27 0-44.5 18.5T459 845z"/><glyph glyph-name="multiply" unicode="×" horiz-adv-x="666" d="M333 360l170 171 57-56-170-171 172-173-59-58-171 170L162 73l-58 58 172 170-171 174 57 56z"/><glyph glyph-name="Oslash" unicode="Ø" horiz-adv-x="849" d="M699 617q48-49 74.5-115T800 355q0-82-28.5-150T693 87.5t-119-77T424-18q-70 0-130 20.5T186 61l-81-87-43 39 81 88q-45 48-69 113T50 355q0 83 28 151.5t78 117T274.5 699 424 726q66 0 124.5-18T654 655l81 87 43-39zm-107-32q-31 26-73.5 40.5T424 640q-63 0-113-22.5t-85-61-53.5-90.5T154 355q0-109 57-181zM251 130q33-29 76-45t97-16q62 0 112.5 22.5t86 61T677 243t19 112q0 54-15.5 102.5T634 544z"/><glyph glyph-name="Ugrave" unicode="Ù" horiz-adv-x="712" d="M356-18q-70 0-122 23.5T148 68t-50.5 89.5T81 262v446h99V268q0-36 9-71.5t29.5-63.5 54-45T356 71q49 0 83 17t54.5 45 29.5 63.5 9 71.5v440h99V262q0-54-16.5-104.5T564 68 478 5.5 356-18zM186 908h114l100-144h-77z"/><glyph glyph-name="Uacute" unicode="Ú" horiz-adv-x="712" d="M356-18q-70 0-122 23.5T148 68t-50.5 89.5T81 262v446h99V268q0-36 9-71.5t29.5-63.5 54-45T356 71q49 0 83 17t54.5 45 29.5 63.5 9 71.5v440h99V262q0-54-16.5-104.5T564 68 478 5.5 356-18zm15 782h-76l99 144h114z"/><glyph glyph-name="Ucircumflex" unicode="Û" horiz-adv-x="712" d="M356-18q-70 0-122 23.5T148 68t-50.5 89.5T81 262v446h99V268q0-36 9-71.5t29.5-63.5 54-45T356 71q49 0 83 17t54.5 45 29.5 63.5 9 71.5v440h99V262q0-54-16.5-104.5T564 68 478 5.5 356-18zm164 782h-91l-75 99-76-99h-90l112 144h108z"/><glyph glyph-name="Udieresis" unicode="Ü" horiz-adv-x="712" d="M356-18q-70 0-122 23.5T148 68t-50.5 89.5T81 262v446h99V268q0-36 9-71.5t29.5-63.5 54-45T356 71q49 0 83 17t54.5 45 29.5 63.5 9 71.5v440h99V262q0-54-16.5-104.5T564 68 478 5.5 356-18zM197 845q0 24 17.5 42.5T259 906q26 0 44-17.5t18-43.5q0-25-18-42.5T259 785q-27 0-44.5 18.5T197 845zm194 0q0 24 17.5 42.5T453 906q26 0 44-17.5t18-43.5q0-25-18-42.5T453 785q-27 0-44.5 18.5T391 845z"/><glyph glyph-name="Yacute" unicode="Ý" horiz-adv-x="624" d="M362 0H262v306L-3 708h122l196-320 197 320h115L362 306V0zm-17 764h-76l99 144h114z"/><glyph glyph-name="Thorn" unicode="Þ" horiz-adv-x="595" d="M86 708h99V562h117q57 0 104-12t80-36.5 51-61.5 18-87q0-54-19.5-92t-54-62-82-35T297 165H185V0H86v708zm99-458h102q36 0 66.5 6t52.5 19.5 34 35 12 53.5q0 31-12.5 52.5t-34 35T354 471t-65 6H185V250z"/><glyph glyph-name="germandbls" unicode="ß" horiz-adv-x="612" d="M174 0H80v525q0 45 11.5 89t38 78 70 55T307 768q43 0 80-13.5t64.5-38 43-58.5 15.5-76q0-56-29.5-96.5T399 428v-2q38-6 69-23t52.5-43.5T554 298t12-76q0-52-17-95t-48.5-74T424 5 323-12q-34 0-71 8v79q11-3 28.5-5t30.5-2q72 0 115 42t43 116q0 39-13 68.5T419.5 343t-55 28.5T296 381h-11v82h11q53 0 86.5 28t33.5 82q0 49-30.5 80.5T303 685q-40 0-65-15.5T198.5 630 179 577t-5-56V0z"/><glyph glyph-name="agrave" unicode="à" horiz-adv-x="542" d="M376 307q0 53-32 78.5T259 411q-40 0-75.5-15.5T124 356l-50 60q35 33 85.5 52T268 487q51 0 88.5-14.5T418 433t36-59 12-73V94q0-24 1.5-50.5T473 0h-85q-8 34-8 68h-3q-26-38-65.5-59T218-12q-28 0-58.5 7.5T104 20 62.5 65 46 134q0 54 29 85.5t76 48T257 289t119 5v13zm-23-81q-35 0-72.5-3t-68-12-50.5-27-20-48q0-21 8.5-35T173 78t31-12.5 35-3.5q66 0 101.5 39.5T376 201v25h-23zM120 708h113l100-144h-77z"/><glyph glyph-name="aacute" unicode="á" horiz-adv-x="542" d="M376 307q0 53-32 78.5T259 411q-40 0-75.5-15.5T124 356l-50 60q35 33 85.5 52T268 487q51 0 88.5-14.5T418 433t36-59 12-73V94q0-24 1.5-50.5T473 0h-85q-8 34-8 68h-3q-26-38-65.5-59T218-12q-28 0-58.5 7.5T104 20 62.5 65 46 134q0 54 29 85.5t76 48T257 289t119 5v13zm-23-81q-35 0-72.5-3t-68-12-50.5-27-20-48q0-21 8.5-35T173 78t31-12.5 35-3.5q66 0 101.5 39.5T376 201v25h-23zm-49 338h-77l100 144h113z"/><glyph glyph-name="acircumflex" unicode="â" horiz-adv-x="542" d="M376 307q0 53-32 78.5T259 411q-40 0-75.5-15.5T124 356l-50 60q35 33 85.5 52T268 487q51 0 88.5-14.5T418 433t36-59 12-73V94q0-24 1.5-50.5T473 0h-85q-8 34-8 68h-3q-26-38-65.5-59T218-12q-28 0-58.5 7.5T104 20 62.5 65 46 134q0 54 29 85.5t76 48T257 289t119 5v13zm-23-81q-35 0-72.5-3t-68-12-50.5-27-20-48q0-21 8.5-35T173 78t31-12.5 35-3.5q66 0 101.5 39.5T376 201v25h-23zm81 338h-91l-75 99-76-99h-90l112 144h108z"/><glyph glyph-name="atilde" unicode="ã" horiz-adv-x="542" d="M376 307q0 53-32 78.5T259 411q-40 0-75.5-15.5T124 356l-50 60q35 33 85.5 52T268 487q51 0 88.5-14.5T418 433t36-59 12-73V94q0-24 1.5-50.5T473 0h-85q-8 34-8 68h-3q-26-38-65.5-59T218-12q-28 0-58.5 7.5T104 20 62.5 65 46 134q0 54 29 85.5t76 48T257 289t119 5v13zm-23-81q-35 0-72.5-3t-68-12-50.5-27-20-48q0-21 8.5-35T173 78t31-12.5 35-3.5q66 0 101.5 39.5T376 201v25h-23zM95 572q4 22 10.5 42.5t18.5 37 29.5 26.5 43.5 10q19 0 38.5-6t36.5-14q20-9 36.5-15.5T339 646q22 0 32.5 14.5T387 692h54q-4-22-10.5-42.5t-18.5-37-30-26.5-43-10q-19 0-39 6.5T262 597q-18 9-34.5 15t-30.5 6q-21 0-31.5-14.5T150 572H95z"/><glyph glyph-name="adieresis" unicode="ä" horiz-adv-x="542" d="M376 307q0 53-32 78.5T259 411q-40 0-75.5-15.5T124 356l-50 60q35 33 85.5 52T268 487q51 0 88.5-14.5T418 433t36-59 12-73V94q0-24 1.5-50.5T473 0h-85q-8 34-8 68h-3q-26-38-65.5-59T218-12q-28 0-58.5 7.5T104 20 62.5 65 46 134q0 54 29 85.5t76 48T257 289t119 5v13zm-23-81q-35 0-72.5-3t-68-12-50.5-27-20-48q0-21 8.5-35T173 78t31-12.5 35-3.5q66 0 101.5 39.5T376 201v25h-23zM110 645q0 24 17.5 42.5T172 706q26 0 44-17.5t18-43.5q0-25-18-42.5T172 585q-27 0-44.5 18.5T110 645zm194 0q0 24 17.5 42.5T366 706q26 0 44-17.5t18-43.5q0-25-18-42.5T366 585q-27 0-44.5 18.5T304 645z"/><glyph glyph-name="aring" unicode="å" horiz-adv-x="542" d="M376 307q0 53-32 78.5T259 411q-40 0-75.5-15.5T124 356l-50 60q35 33 85.5 52T268 487q51 0 88.5-14.5T418 433t36-59 12-73V94q0-24 1.5-50.5T473 0h-85q-8 34-8 68h-3q-26-38-65.5-59T218-12q-28 0-58.5 7.5T104 20 62.5 65 46 134q0 54 29 85.5t76 48T257 289t119 5v13zm-23-81q-35 0-72.5-3t-68-12-50.5-27-20-48q0-21 8.5-35T173 78t31-12.5 35-3.5q66 0 101.5 39.5T376 201v25h-23zm16 427q0-43-29.5-71T268 554q-21 0-39 7.5T197.5 582 176 613t-8 39q0 43 29 71t71 28 71.5-28 29.5-70zm-42 0q0 24-17.5 40T268 709q-23 0-40.5-16T210 653t17.5-40.5T268 596q24 0 41.5 16t17.5 41z"/><glyph glyph-name="ae" unicode="æ" horiz-adv-x="877" d="M350 209q-44 0-82-2.5T202 196t-44-23-16-40q0-21 8.5-34.5t22-22 31-12T240 61q66 0 100 33t34 90v25h-24zm384 70q0 28-8.5 52.5T701 374t-40 28.5-55 10.5q-29 0-54.5-10.5t-45-28.5-31.5-42.5-13-52.5h272zM419 85q-29-54-82.5-75.5T218-12q-28 0-58.5 6.5T104 16 62.5 56.5 46 121q0 52 24 83.5t67.5 48 104 21.5 134.5 5v11q0 67-32 94t-85 27q-40 0-75.5-15.5T124 356l-50 60q35 33 85.5 52T268 487q40 0 69-8.5t48.5-21.5 31-28.5T434 399q28 39 69 63.5T607 487q51 0 92-17t69.5-49 44-77.5T828 241v-16l-1-16H463q1-30 13-56.5t32.5-46 47-30.5T612 65q47 0 80.5 21t53.5 51l63-53q-37-50-86.5-73.5T612-13q-63 0-114 25.5T419 85z"/><glyph glyph-name="ccedilla" unicode="ç" horiz-adv-x="494" d="M413 354q-15 23-45 38.5T304 408q-37 0-65.5-14T190 356.5 159.5 302 149 237t10.5-65 30.5-54.5T239 80t66-14q36 0 65.5 14t48.5 38l63-57q-29-33-70-52.5T317-13l-37-56q7 2 13 2h14q17 0 33.5-4t30-13 22-24 8.5-37q0-26-12-43.5t-30.5-28-41-14.5-43.5-4q-26 0-54 6t-49 17l20 42q37-17 77-17 8 0 18.5 2t20 6.5 16 12.5 6.5 21q0 22-17 30t-37 8q-9 0-20-2t-21-5l-20 20 55 83q-48 6-88 26t-69.5 52T66 142t-16 95q0 56 19 102t53 79 80.5 51T303 487q50 0 99.5-20t78.5-58z"/><glyph glyph-name="egrave" unicode="è" horiz-adv-x="573" d="M428 279q-1 28-9.5 52.5t-25 42.5-41 28.5T295 413q-30 0-56.5-10.5t-46-28.5-32-42.5T146 279h282zm95-38v-16l-1-16H146q1-30 13.5-56.5t33.5-46T241.5 76 300 65q48 0 83 21t55 51l66-53q-38-50-89.5-73.5T300-13q-54 0-100 18t-79 50.5T69 134 50 236q0 55 18.5 101.5T120 417t78 51.5 97 18.5 94.5-17 72-49 45.5-77.5T523 241zM134 708h113l100-144h-77z"/><glyph glyph-name="eacute" unicode="é" horiz-adv-x="573" d="M428 279q-1 28-9.5 52.5t-25 42.5-41 28.5T295 413q-30 0-56.5-10.5t-46-28.5-32-42.5T146 279h282zm95-38v-16l-1-16H146q1-30 13.5-56.5t33.5-46T241.5 76 300 65q48 0 83 21t55 51l66-53q-38-50-89.5-73.5T300-13q-54 0-100 18t-79 50.5T69 134 50 236q0 55 18.5 101.5T120 417t78 51.5 97 18.5 94.5-17 72-49 45.5-77.5T523 241zM322 564h-77l100 144h113z"/><glyph glyph-name="ecircumflex" unicode="ê" horiz-adv-x="573" d="M428 279q-1 28-9.5 52.5t-25 42.5-41 28.5T295 413q-30 0-56.5-10.5t-46-28.5-32-42.5T146 279h282zm95-38v-16l-1-16H146q1-30 13.5-56.5t33.5-46T241.5 76 300 65q48 0 83 21t55 51l66-53q-38-50-89.5-73.5T300-13q-54 0-100 18t-79 50.5T69 134 50 236q0 55 18.5 101.5T120 417t78 51.5 97 18.5 94.5-17 72-49 45.5-77.5T523 241zm-56 323h-91l-75 99-76-99h-90l112 144h108z"/><glyph glyph-name="edieresis" unicode="ë" horiz-adv-x="573" d="M428 279q-1 28-9.5 52.5t-25 42.5-41 28.5T295 413q-30 0-56.5-10.5t-46-28.5-32-42.5T146 279h282zm95-38v-16l-1-16H146q1-30 13.5-56.5t33.5-46T241.5 76 300 65q48 0 83 21t55 51l66-53q-38-50-89.5-73.5T300-13q-54 0-100 18t-79 50.5T69 134 50 236q0 55 18.5 101.5T120 417t78 51.5 97 18.5 94.5-17 72-49 45.5-77.5T523 241zM141 645q0 24 17.5 42.5T203 706q26 0 44-17.5t18-43.5q0-25-18-42.5T203 585q-27 0-44.5 18.5T141 645zm194 0q0 24 17.5 42.5T397 706q26 0 44-17.5t18-43.5q0-25-18-42.5T397 585q-27 0-44.5 18.5T335 645z"/><glyph glyph-name="igrave" unicode="ì" horiz-adv-x="259" d="M176 0H82v474h94V0zM-36 708H77l100-144h-77z"/><glyph glyph-name="iacute" unicode="í" horiz-adv-x="259" d="M176 0H82v474h94V0zm-17 564H82l100 144h113z"/><glyph glyph-name="icircumflex" unicode="î" horiz-adv-x="259" d="M176 0H82v474h94V0zm120 564h-91l-75 99-76-99h-90L76 708h108z"/><glyph glyph-name="idieresis" unicode="ï" horiz-adv-x="259" d="M176 0H82v474h94V0zM-29 645q0 24 17.5 42.5T33 706q26 0 44-17.5T95 645q0-25-18-42.5T33 585q-27 0-44.5 18.5T-29 645zm194 0q0 24 17.5 42.5T227 706q26 0 44-17.5t18-43.5q0-25-18-42.5T227 585q-27 0-44.5 18.5T165 645z"/><glyph glyph-name="eth" unicode="ð" horiz-adv-x="610" d="M371 659q38-39 72-84t59-95.5 39.5-105T556 262q0-53-15-103t-46-88-79.5-61T301-13q-55 0-102 18.5T118 57t-53 79-19 101 19 101 53 79 80 51.5 99 18.5q38 0 69.5-11.5T427 438l2 2q-26 50-62 97t-79 83l-110-53-48 47 110 53q-20 19-44 37l-45 33 77 47 51-41 42-37 108 53 52-46zM142 237q0-34 10.5-64.5t30.5-54T233 81t68-14 67.5 14 49.5 37.5 30.5 54T459 237t-10.5 64.5-30.5 54-49.5 37.5-67.5 14-68-14-50-37.5-30.5-54T142 237z"/><glyph glyph-name="ntilde" unicode="ñ" horiz-adv-x="582" d="M166 474q2-18 3-40.5t1-37.5h3q9 19 24.5 35.5t35.5 29 44 19.5 50 7q46 0 79-15.5t55-41.5 32.5-61 10.5-75V0h-94v263q0 29-4.5 55T389 364t-33 32-54 12q-56 0-91.5-42.5T175 252V0H81v372q0 19-1 49t-3 53h89zm-45 98q4 22 10.5 42.5t18.5 37 29.5 26.5 43.5 10q19 0 38.5-6t36.5-14q20-9 36.5-15.5T365 646q22 0 32.5 14.5T413 692h54q-4-22-10.5-42.5t-18.5-37-30-26.5-43-10q-19 0-39 6.5T288 597q-18 9-34.5 15t-30.5 6q-21 0-31.5-14.5T176 572h-55z"/><glyph glyph-name="ograve" unicode="ò" horiz-adv-x="610" d="M561 238q0-55-19.5-101t-54-79.5-81.5-52T305-13 204 5.5t-81 52T69.5 137 50 238t19.5 100.5T123 417t81 51.5T305 487t101-18.5 81.5-51.5 54-78.5T561 238zm-98 0q0 34-10.5 65T422 357.5 372.5 395 305 409t-67.5-14-49.5-37.5-30.5-54.5-10.5-65 10.5-65 30.5-55 49.5-38T305 66t67.5 14 49.5 38 30.5 55 10.5 65zM147 708h113l100-144h-77z"/><glyph glyph-name="oacute" unicode="ó" horiz-adv-x="610" d="M561 238q0-55-19.5-101t-54-79.5-81.5-52T305-13 204 5.5t-81 52T69.5 137 50 238t19.5 100.5T123 417t81 51.5T305 487t101-18.5 81.5-51.5 54-78.5T561 238zm-98 0q0 34-10.5 65T422 357.5 372.5 395 305 409t-67.5-14-49.5-37.5-30.5-54.5-10.5-65 10.5-65 30.5-55 49.5-38T305 66t67.5 14 49.5 38 30.5 55 10.5 65zM325 564h-77l100 144h113z"/><glyph glyph-name="ocircumflex" unicode="ô" horiz-adv-x="610" d="M561 238q0-55-19.5-101t-54-79.5-81.5-52T305-13 204 5.5t-81 52T69.5 137 50 238t19.5 100.5T123 417t81 51.5T305 487t101-18.5 81.5-51.5 54-78.5T561 238zm-98 0q0 34-10.5 65T422 357.5 372.5 395 305 409t-67.5-14-49.5-37.5-30.5-54.5-10.5-65 10.5-65 30.5-55 49.5-38T305 66t67.5 14 49.5 38 30.5 55 10.5 65zm9 326h-91l-75 99-76-99h-90l112 144h108z"/><glyph glyph-name="otilde" unicode="õ" horiz-adv-x="610" d="M561 238q0-55-19.5-101t-54-79.5-81.5-52T305-13 204 5.5t-81 52T69.5 137 50 238t19.5 100.5T123 417t81 51.5T305 487t101-18.5 81.5-51.5 54-78.5T561 238zm-98 0q0 34-10.5 65T422 357.5 372.5 395 305 409t-67.5-14-49.5-37.5-30.5-54.5-10.5-65 10.5-65 30.5-55 49.5-38T305 66t67.5 14 49.5 38 30.5 55 10.5 65zM133 572q4 22 10.5 42.5t18.5 37 29.5 26.5 43.5 10q19 0 38.5-6t36.5-14q20-9 36.5-15.5T377 646q22 0 32.5 14.5T425 692h54q-4-22-10.5-42.5t-18.5-37-30-26.5-43-10q-19 0-39 6.5T300 597q-18 9-34.5 15t-30.5 6q-21 0-31.5-14.5T188 572h-55z"/><glyph glyph-name="odieresis" unicode="ö" horiz-adv-x="610" d="M561 238q0-55-19.5-101t-54-79.5-81.5-52T305-13 204 5.5t-81 52T69.5 137 50 238t19.5 100.5T123 417t81 51.5T305 487t101-18.5 81.5-51.5 54-78.5T561 238zm-98 0q0 34-10.5 65T422 357.5 372.5 395 305 409t-67.5-14-49.5-37.5-30.5-54.5-10.5-65 10.5-65 30.5-55 49.5-38T305 66t67.5 14 49.5 38 30.5 55 10.5 65zM147 645q0 24 17.5 42.5T209 706q26 0 44-17.5t18-43.5q0-25-18-42.5T209 585q-27 0-44.5 18.5T147 645zm194 0q0 24 17.5 42.5T403 706q26 0 44-17.5t18-43.5q0-25-18-42.5T403 585q-27 0-44.5 18.5T341 645z"/><glyph glyph-name="divide" unicode="÷" horiz-adv-x="666" d="M596 262H70v82h526v-82zM398 132q0-26-18.5-45.5T333 67t-46.5 19.5T268 132t18.5 45.5T333 197t46.5-19.5T398 132zm0 337q0-26-18.5-45.5T333 404t-46.5 19.5T268 469t18.5 45.5T333 534t46.5-19.5T398 469z"/><glyph glyph-name="oslash" unicode="ø" horiz-adv-x="610" d="M501 401q28-32 44-73.5t16-90.5q0-55-19.5-101t-54-79T406 5.5 305-13q-47 0-87 13.5T146 38L78-31 42 5l66 68q-28 32-43 73.5T50 237q0 55 19.5 101t53.5 79 81 51.5T305 487q93 0 158-51l68 70 37-35zm-95-24q-18 17-45 26t-56 9q-39 0-69-14.5t-50.5-39-31-56T144 237q0-28 7-55t21-46zM203 98q41-35 101-35 40 0 70.5 14.5t51 39 31 56T467 238q0 27-7.5 54T438 338z"/><glyph glyph-name="ugrave" unicode="ù" horiz-adv-x="582" d="M415 0q-2 18-3 40.5T411 78h-2q-18-38-60.5-64.5T254-13q-46 0-79.5 15t-55 41.5-32 61.5T77 180v294h94V212q0-29 4.5-55.5T192 110t33-32 54-12q57 0 92 42.5T406 222v252h94V102q0-19 1-49t3-53h-89zM131 708h113l100-144h-77z"/><glyph glyph-name="uacute" unicode="ú" horiz-adv-x="582" d="M415 0q-2 18-3 40.5T411 78h-2q-18-38-60.5-64.5T254-13q-46 0-79.5 15t-55 41.5-32 61.5T77 180v294h94V212q0-29 4.5-55.5T192 110t33-32 54-12q57 0 92 42.5T406 222v252h94V102q0-19 1-49t3-53h-89zm-99 564h-77l100 144h113z"/><glyph glyph-name="ucircumflex" unicode="û" horiz-adv-x="582" d="M415 0q-2 18-3 40.5T411 78h-2q-18-38-60.5-64.5T254-13q-46 0-79.5 15t-55 41.5-32 61.5T77 180v294h94V212q0-29 4.5-55.5T192 110t33-32 54-12q57 0 92 42.5T406 222v252h94V102q0-19 1-49t3-53h-89zm42 564h-91l-75 99-76-99h-90l112 144h108z"/><glyph glyph-name="udieresis" unicode="ü" horiz-adv-x="582" d="M415 0q-2 18-3 40.5T411 78h-2q-18-38-60.5-64.5T254-13q-46 0-79.5 15t-55 41.5-32 61.5T77 180v294h94V212q0-29 4.5-55.5T192 110t33-32 54-12q57 0 92 42.5T406 222v252h94V102q0-19 1-49t3-53h-89zM131 645q0 24 17.5 42.5T193 706q26 0 44-17.5t18-43.5q0-25-18-42.5T193 585q-27 0-44.5 18.5T131 645zm194 0q0 24 17.5 42.5T387 706q26 0 44-17.5t18-43.5q0-25-18-42.5T387 585q-27 0-44.5 18.5T325 645z"/><glyph glyph-name="yacute" unicode="ý" horiz-adv-x="504" d="M261 102h2l131 372h100L264-112q-12-30-26-53.5t-33-40-44.5-25.5-60.5-9q-15 0-30.5 1.5T38-233l9 83q24-8 47-8 37 0 55 20.5T182-79l30 79L9 474h105zm25 462h-77l100 144h113z"/><glyph glyph-name="thorn" unicode="þ" horiz-adv-x="636" d="M175-240H82v996h93V400h3q22 38 66 62.5T347 487q53 0 96.5-19t75-53 48.5-79.5 17-97.5-17-98-48-80-75-53.5T345-13q-51 0-96 22t-71 62h-3v-311zm312 478q0 33-10 64t-30 55-49.5 38-68.5 14q-36 0-65.5-14T213 357t-32.5-55-11.5-65 11.5-65 32.5-54.5T263.5 80 329 66q39 0 68.5 14.5T447 119t30 55 10 64z"/><glyph glyph-name="ydieresis" unicode="ÿ" horiz-adv-x="504" d="M261 102h2l131 372h100L264-112q-12-30-26-53.5t-33-40-44.5-25.5-60.5-9q-15 0-30.5 1.5T38-233l9 83q24-8 47-8 37 0 55 20.5T182-79l30 79L9 474h105zM101 645q0 24 17.5 42.5T163 706q26 0 44-17.5t18-43.5q0-25-18-42.5T163 585q-27 0-44.5 18.5T101 645zm194 0q0 24 17.5 42.5T357 706q26 0 44-17.5t18-43.5q0-25-18-42.5T357 585q-27 0-44.5 18.5T295 645z"/><glyph glyph-name="Amacron" unicode="Ā" horiz-adv-x="711" d="M115 0H5l307 708h90L706 0H594l-72 174H186zm106 261h265L354 593zm281 536H206v67h296v-67z"/><glyph glyph-name="amacron" unicode="ā" horiz-adv-x="542" d="M376 307q0 53-32 78.5T259 411q-40 0-75.5-15.5T124 356l-50 60q35 33 85.5 52T268 487q51 0 88.5-14.5T418 433t36-59 12-73V94q0-24 1.5-50.5T473 0h-85q-8 34-8 68h-3q-26-38-65.5-59T218-12q-28 0-58.5 7.5T104 20 62.5 65 46 134q0 54 29 85.5t76 48T257 289t119 5v13zm-23-81q-35 0-72.5-3t-68-12-50.5-27-20-48q0-21 8.5-35T173 78t31-12.5 35-3.5q66 0 101.5 39.5T376 201v25h-23zm65 371H122v67h296v-67z"/><glyph glyph-name="Abreve" unicode="Ă" horiz-adv-x="711" d="M115 0H5l307 708h90L706 0H594l-72 174H186zm106 261h265L354 593zm292 647q-6-69-49.5-103.5T354 770q-67 0-110.5 34.5T195 908h56q7-38 36-55t67-17q41 0 68 15.5t36 56.5h55z"/><glyph glyph-name="abreve" unicode="ă" horiz-adv-x="542" d="M376 307q0 53-32 78.5T259 411q-40 0-75.5-15.5T124 356l-50 60q35 33 85.5 52T268 487q51 0 88.5-14.5T418 433t36-59 12-73V94q0-24 1.5-50.5T473 0h-85q-8 34-8 68h-3q-26-38-65.5-59T218-12q-28 0-58.5 7.5T104 20 62.5 65 46 134q0 54 29 85.5t76 48T257 289t119 5v13zm-23-81q-35 0-72.5-3t-68-12-50.5-27-20-48q0-21 8.5-35T173 78t31-12.5 35-3.5q66 0 101.5 39.5T376 201v25h-23zm75 482q-6-69-49.5-103.5T269 570q-67 0-110.5 34.5T110 708h56q7-38 36-55t67-17q41 0 68 15.5t36 56.5h55z"/><glyph glyph-name="Aogonek" unicode="Ą" horiz-adv-x="711" d="M693-189q-20-17-44.5-27T598-226q-19 0-36.5 6t-31 17-21.5 27.5-8 36.5q0 21 8.5 41.5T531-59t29.5 34T592 3l-70 171H186L115 0H5l307 708h90L706 0h-63q-28-27-50.5-58T570-119q0-20 14-33.5t34-13.5q14 0 28 6t25 16zM221 261h265L354 593z"/><glyph glyph-name="aogonek" unicode="ą" horiz-adv-x="542" d="M487-189q-20-17-44.5-27T392-226q-19 0-36.5 6t-31 17-21.5 27.5-8 36.5q0 21 8.5 41.5t22 38.5T355-25t32 28q-4 15-5.5 32T380 68h-3q-26-38-65.5-59T218-12q-28 0-58.5 7.5T104 20 62.5 65 46 134q0 54 29 85.5t76 48T257 289t119 5v13q0 53-32 78.5T259 411q-40 0-75.5-15.5T124 356l-50 60q35 33 85.5 52T268 487q51 0 88.5-14.5T418 433t36-59 12-73V94q0-24 1.5-50.5T473 0h-36q-28-27-50.5-58T364-119q0-20 14-33.5t34-13.5q14 0 28 6t25 16zM353 226q-35 0-72.5-3t-68-12-50.5-27-20-48q0-21 8.5-35T173 78t31-12.5 35-3.5q66 0 101.5 39.5T376 201v25h-23z"/><glyph glyph-name="Cacute" unicode="Ć" horiz-adv-x="708" d="M693 110q-42-57-109-92.5T423-18q-81 0-149.5 27.5t-118 77-77.5 118T50 355q0 83 28.5 151.5t79 117T277 699t150 27q36 0 73-7t71-21 62-34.5 48-47.5l-78-60q-26 36-73.5 59.5T427 639q-62 0-111.5-22.5T231 555t-54-90.5T158 355q0-60 18.5-112t53-90.5 84-60.5T424 70q60 0 109 24t81 70zM431 764h-76l99 144h114z"/><glyph glyph-name="cacute" unicode="ć" horiz-adv-x="494" d="M413 354q-15 23-45 38.5T304 408q-37 0-65.5-14T190 356.5 159.5 302 149 237t10.5-65 30.5-54.5T239 80t66-14q36 0 65.5 14t48.5 38l63-57q-30-35-75-54.5T305-13q-55 0-101.5 18T123 55.5 69.5 134 50 237q0 56 19 102t53 79 80.5 51T303 487q50 0 99.5-20t78.5-58zm-93 210h-77l100 144h113z"/><glyph glyph-name="Ccircumflex" unicode="Ĉ" horiz-adv-x="708" d="M693 110q-42-57-109-92.5T423-18q-81 0-149.5 27.5t-118 77-77.5 118T50 355q0 83 28.5 151.5t79 117T277 699t150 27q36 0 73-7t71-21 62-34.5 48-47.5l-78-60q-26 36-73.5 59.5T427 639q-62 0-111.5-22.5T231 555t-54-90.5T158 355q0-60 18.5-112t53-90.5 84-60.5T424 70q60 0 109 24t81 70zM589 764h-91l-75 99-76-99h-90l112 144h108z"/><glyph glyph-name="ccircumflex" unicode="ĉ" horiz-adv-x="494" d="M413 354q-15 23-45 38.5T304 408q-37 0-65.5-14T190 356.5 159.5 302 149 237t10.5-65 30.5-54.5T239 80t66-14q36 0 65.5 14t48.5 38l63-57q-30-35-75-54.5T305-13q-55 0-101.5 18T123 55.5 69.5 134 50 237q0 56 19 102t53 79 80.5 51T303 487q50 0 99.5-20t78.5-58zm56 210h-91l-75 99-76-99h-90l112 144h108z"/><glyph glyph-name="Cdotaccent" unicode="Ċ" horiz-adv-x="708" d="M693 110q-42-57-109-92.5T423-18q-81 0-149.5 27.5t-118 77-77.5 118T50 355q0 83 28.5 151.5t79 117T277 699t150 27q36 0 73-7t71-21 62-34.5 48-47.5l-78-60q-26 36-73.5 59.5T427 639q-62 0-111.5-22.5T231 555t-54-90.5T158 355q0-60 18.5-112t53-90.5 84-60.5T424 70q60 0 109 24t81 70zM486 845q0-26-18.5-43T423 785t-44 17.5-18 42.5q0 26 18 43.5t44 17.5 44.5-17.5T486 845z"/><glyph glyph-name="cdotaccent" unicode="ċ" horiz-adv-x="494" d="M413 354q-15 23-45 38.5T304 408q-37 0-65.5-14T190 356.5 159.5 302 149 237t10.5-65 30.5-54.5T239 80t66-14q36 0 65.5 14t48.5 38l63-57q-30-35-75-54.5T305-13q-55 0-101.5 18T123 55.5 69.5 134 50 237q0 56 19 102t53 79 80.5 51T303 487q50 0 99.5-20t78.5-58zm-50 291q0-26-18.5-43T300 585t-44 17.5-18 42.5q0 26 18 43.5t44 17.5 44.5-17.5T363 645z"/><glyph glyph-name="Ccaron" unicode="Č" horiz-adv-x="708" d="M693 110q-42-57-109-92.5T423-18q-81 0-149.5 27.5t-118 77-77.5 118T50 355q0 83 28.5 151.5t79 117T277 699t150 27q36 0 73-7t71-21 62-34.5 48-47.5l-78-60q-26 36-73.5 59.5T427 639q-62 0-111.5-22.5T231 555t-54-90.5T158 355q0-60 18.5-112t53-90.5 84-60.5T424 70q60 0 109 24t81 70zM476 764H369L258 908h90l76-99 76 99h88z"/><glyph glyph-name="ccaron" unicode="č" horiz-adv-x="494" d="M413 354q-15 23-45 38.5T304 408q-37 0-65.5-14T190 356.5 159.5 302 149 237t10.5-65 30.5-54.5T239 80t66-14q36 0 65.5 14t48.5 38l63-57q-30-35-75-54.5T305-13q-55 0-101.5 18T123 55.5 69.5 134 50 237q0 56 19 102t53 79 80.5 51T303 487q50 0 99.5-20t78.5-58zm-56 210H250L139 708h90l76-99 76 99h88z"/><glyph glyph-name="Dcaron" unicode="Ď" horiz-adv-x="761" d="M86 708h243q68 0 136-20t123-63 89-110 34-161q0-91-34-157.5t-89-110-123-65T329 0H86v708zm99-621h124q64 0 118.5 18t94 52 61.5 84 22 113q0 66-22 116t-61.5 83.5-94 51T309 622H185V87zm212 677H290L179 908h90l76-99 76 99h88z"/><glyph glyph-name="dcaron" unicode="ď" horiz-adv-x="635" d="M459 75q-27-43-73.5-65.5T288-13q-55 0-99 19.5T114 60t-48 80-17 98 17 97.5 48.5 79.5 75.5 53 97 19q58 0 101-24.5t68-59.5h2v353h94V0h-91v75h-2zM147 238q0-33 10-64t30-55 49-38.5T304 66q36 0 65.5 14t50.5 37.5 32.5 54.5 11.5 65-11.5 65-32.5 55-50.5 38-65.5 14q-39 0-68-14t-49-38-30-55-10-64zm518 280h-79l64 190h93z"/><glyph glyph-name="Dcroat" unicode="Đ" horiz-adv-x="761" d="M82 335H13v70h69v303h258q68 0 133.5-22T591 620t83.5-110.5T706 354q0-90-34-156.5T584 87 463.5 21.5 332 0H82v335zM182 90h117q70 0 125.5 19t94.5 53.5 60 83T600 354t-19.5 108.5-56.5 83-91.5 53.5T309 618H182V405h237v-70H182V90z"/><glyph glyph-name="dcroat" unicode="đ" horiz-adv-x="635" d="M458 633v123h94V633h56v-63h-56V0h-91v75h-2q-27-43-73.5-65.5T288-13q-55 0-99 19.5T114 60t-48 80-17 98 17 97.5 48.5 79.5 75.5 53 97 19q58 0 101-24.5t68-59.5h2v167H295v63h163zM147 238q0-33 10-64t30-55 49-38.5T304 66q36 0 65.5 14t50.5 37.5 32.5 54.5 11.5 65-11.5 65-32.5 55-50.5 38-65.5 14q-39 0-68-14t-49-38-30-55-10-64z"/><glyph glyph-name="Emacron" unicode="Ē" horiz-adv-x="601" d="M185 88h370V0H86v708h454v-87H185V409h334v-85H185V88zm277 709H166v67h296v-67z"/><glyph glyph-name="emacron" unicode="ē" horiz-adv-x="573" d="M428 279q-1 28-9.5 52.5t-25 42.5-41 28.5T295 413q-30 0-56.5-10.5t-46-28.5-32-42.5T146 279h282zm95-38v-16l-1-16H146q1-30 13.5-56.5t33.5-46T241.5 76 300 65q48 0 83 21t55 51l66-53q-38-50-89.5-73.5T300-13q-54 0-100 18t-79 50.5T69 134 50 236q0 55 18.5 101.5T120 417t78 51.5 97 18.5 94.5-17 72-49 45.5-77.5T523 241zm-79 356H148v67h296v-67z"/><glyph glyph-name="Ebreve" unicode="Ĕ" horiz-adv-x="601" d="M185 88h370V0H86v708h454v-87H185V409h334v-85H185V88zm291 820q-6-69-49.5-103.5T317 770q-67 0-110.5 34.5T158 908h56q7-38 36-55t67-17q41 0 68 15.5t36 56.5h55z"/><glyph glyph-name="ebreve" unicode="ĕ" horiz-adv-x="573" d="M428 279q-1 28-9.5 52.5t-25 42.5-41 28.5T295 413q-30 0-56.5-10.5t-46-28.5-32-42.5T146 279h282zm95-38v-16l-1-16H146q1-30 13.5-56.5t33.5-46T241.5 76 300 65q48 0 83 21t55 51l66-53q-38-50-89.5-73.5T300-13q-54 0-100 18t-79 50.5T69 134 50 236q0 55 18.5 101.5T120 417t78 51.5 97 18.5 94.5-17 72-49 45.5-77.5T523 241zm-65 467q-6-69-49.5-103.5T299 570q-67 0-110.5 34.5T140 708h56q7-38 36-55t67-17q41 0 68 15.5t36 56.5h55z"/><glyph glyph-name="Edotaccent" unicode="Ė" horiz-adv-x="601" d="M185 88h370V0H86v708h454v-87H185V409h334v-85H185V88zm192 757q0-26-18.5-43T314 785t-44 17.5-18 42.5q0 26 18 43.5t44 17.5 44.5-17.5T377 845z"/><glyph glyph-name="edotaccent" unicode="ė" horiz-adv-x="573" d="M428 279q-1 28-9.5 52.5t-25 42.5-41 28.5T295 413q-30 0-56.5-10.5t-46-28.5-32-42.5T146 279h282zm95-38v-16l-1-16H146q1-30 13.5-56.5t33.5-46T241.5 76 300 65q48 0 83 21t55 51l66-53q-38-50-89.5-73.5T300-13q-54 0-100 18t-79 50.5T69 134 50 236q0 55 18.5 101.5T120 417t78 51.5 97 18.5 94.5-17 72-49 45.5-77.5T523 241zM359 645q0-26-18.5-43T296 585t-44 17.5-18 42.5q0 26 18 43.5t44 17.5 44.5-17.5T359 645z"/><glyph glyph-name="Eogonek" unicode="Ę" horiz-adv-x="601" d="M590-189q-20-17-44.5-27T495-226q-19 0-36.5 6t-31 17-21.5 27.5-8 36.5 8 39.5T426.5-62t28 34T485 0H86v708h454v-87H185V409h334v-85H185V88h370V0h-15q-28-27-50.5-58T467-119q0-20 14-33.5t34-13.5q14 0 28 6t25 16z"/><glyph glyph-name="eogonek" unicode="ę" horiz-adv-x="573" d="M400-189q-20-17-44.5-27T305-226q-19 0-36.5 6t-31 17-21.5 27.5-8 36.5q0 36 22.5 69T281-12q-51 3-93 22t-73 51.5T67 138t-17 98q0 55 18.5 101.5T120 417t78 51.5 97 18.5 94.5-17 72-49 45.5-77.5T523 241v-16l-1-16H146q1-30 13.5-56.5t33.5-46T241.5 76 300 65q48 0 83 21t55 51l66-53Q440 2 340-10q-25-26-44-54t-19-55q0-20 14-33.5t34-13.5q14 0 28 6t25 16zm28 468q-1 28-9.5 52.5t-25 42.5-41 28.5T295 413q-30 0-56.5-10.5t-46-28.5-32-42.5T146 279h282z"/><glyph glyph-name="Ecaron" unicode="Ě" horiz-adv-x="601" d="M185 88h370V0H86v708h454v-87H185V409h334v-85H185V88zm185 676H263L152 908h90l76-99 76 99h88z"/><glyph glyph-name="ecaron" unicode="ě" horiz-adv-x="573" d="M428 279q-1 28-9.5 52.5t-25 42.5-41 28.5T295 413q-30 0-56.5-10.5t-46-28.5-32-42.5T146 279h282zm95-38v-16l-1-16H146q1-30 13.5-56.5t33.5-46T241.5 76 300 65q48 0 83 21t55 51l66-53q-38-50-89.5-73.5T300-13q-54 0-100 18t-79 50.5T69 134 50 236q0 55 18.5 101.5T120 417t78 51.5 97 18.5 94.5-17 72-49 45.5-77.5T523 241zM349 564H242L131 708h90l76-99 76 99h88z"/><glyph glyph-name="Gcircumflex" unicode="Ĝ" horiz-adv-x="778" d="M620 562q-32 35-81.5 56T428 639q-62 0-112-22.5T231 555t-54-90.5T158 355q0-59 19-111t54-90.5T317 93t114-22q50 0 92 9t73 26v197H439v84h255V44Q638 14 572-2T428-18q-83 0-152.5 27.5T156 86.5t-78 118T50 355q0 83 28.5 151.5t79 117T277 699t150 27q85 0 151.5-25T689 634zm-27 202h-91l-75 99-76-99h-90l112 144h108z"/><glyph glyph-name="gcircumflex" unicode="ĝ" horiz-adv-x="632" d="M118-81q31-35 77.5-56t95.5-21q47 0 79 13.5t51.5 37 28 55.5 8.5 69v61h-2q-26-40-71-61T289-4q-54 0-98.5 19T115 67t-48 77.5T50 240t17 96 48 78.5 75 53 98 19.5q51 0 97.5-22t73.5-67h2v76h91V24q0-52-13-99.5t-44-84-81-58.5-124-22q-62 0-124.5 22.5T58-154zm29 323q0-33 10.5-63t31-53T238 89t66-14q36 0 66 13t51 35.5 32.5 53T465 242q0 34-11.5 64t-33 53-51 36.5T304 409q-37 0-66-13.5t-49.5-36-31-53T147 242zm329 322h-91l-75 99-76-99h-90l112 144h108z"/><glyph glyph-name="Gbreve" unicode="Ğ" horiz-adv-x="778" d="M620 562q-32 35-81.5 56T428 639q-62 0-112-22.5T231 555t-54-90.5T158 355q0-59 19-111t54-90.5T317 93t114-22q50 0 92 9t73 26v197H439v84h255V44Q638 14 572-2T428-18q-83 0-152.5 27.5T156 86.5t-78 118T50 355q0 83 28.5 151.5t79 117T277 699t150 27q85 0 151.5-25T689 634zm-34 346q-6-69-49.5-103.5T427 770q-67 0-110.5 34.5T268 908h56q7-38 36-55t67-17q41 0 68 15.5t36 56.5h55z"/><glyph glyph-name="gbreve" unicode="ğ" horiz-adv-x="632" d="M118-81q31-35 77.5-56t95.5-21q47 0 79 13.5t51.5 37 28 55.5 8.5 69v61h-2q-26-40-71-61T289-4q-54 0-98.5 19T115 67t-48 77.5T50 240t17 96 48 78.5 75 53 98 19.5q51 0 97.5-22t73.5-67h2v76h91V24q0-52-13-99.5t-44-84-81-58.5-124-22q-62 0-124.5 22.5T58-154zm29 323q0-33 10.5-63t31-53T238 89t66-14q36 0 66 13t51 35.5 32.5 53T465 242q0 34-11.5 64t-33 53-51 36.5T304 409q-37 0-66-13.5t-49.5-36-31-53T147 242zm318 466q-6-69-49.5-103.5T306 570q-67 0-110.5 34.5T147 708h56q7-38 36-55t67-17q41 0 68 15.5t36 56.5h55z"/><glyph glyph-name="Gdotaccent" unicode="Ġ" horiz-adv-x="778" d="M620 562q-32 35-81.5 56T428 639q-62 0-112-22.5T231 555t-54-90.5T158 355q0-59 19-111t54-90.5T317 93t114-22q50 0 92 9t73 26v197H439v84h255V44Q638 14 572-2T428-18q-83 0-152.5 27.5T156 86.5t-78 118T50 355q0 83 28.5 151.5t79 117T277 699t150 27q85 0 151.5-25T689 634zM489 845q0-26-18.5-43T426 785t-44 17.5-18 42.5q0 26 18 43.5t44 17.5 44.5-17.5T489 845z"/><glyph glyph-name="gdotaccent" unicode="ġ" horiz-adv-x="632" d="M118-81q31-35 77.5-56t95.5-21q47 0 79 13.5t51.5 37 28 55.5 8.5 69v61h-2q-26-40-71-61T289-4q-54 0-98.5 19T115 67t-48 77.5T50 240t17 96 48 78.5 75 53 98 19.5q51 0 97.5-22t73.5-67h2v76h91V24q0-52-13-99.5t-44-84-81-58.5-124-22q-62 0-124.5 22.5T58-154zm29 323q0-33 10.5-63t31-53T238 89t66-14q36 0 66 13t51 35.5 32.5 53T465 242q0 34-11.5 64t-33 53-51 36.5T304 409q-37 0-66-13.5t-49.5-36-31-53T147 242zm233 403q0-26-18.5-43T317 585t-44 17.5-18 42.5q0 26 18 43.5t44 17.5 44.5-17.5T380 645z"/><glyph glyph-name="Gcommaaccent" unicode="Ģ" horiz-adv-x="778" d="M620 562q-32 35-81.5 56T428 639q-62 0-112-22.5T231 555t-54-90.5T158 355q0-59 19-111t54-90.5T317 93t114-22q50 0 92 9t73 26v197H439v84h255V44Q638 14 572-2T428-18q-83 0-152.5 27.5T156 86.5t-78 118T50 355q0 83 28.5 151.5t79 117T277 699t150 27q85 0 151.5-25T689 634zM412-235h-79l64 190h93z"/><glyph glyph-name="gcommaaccent" unicode="ģ" horiz-adv-x="632" d="M118-81q31-35 77.5-56t95.5-21q47 0 79 13.5t51.5 37 28 55.5 8.5 69v61h-2q-26-40-71-61T289-4q-54 0-98.5 19T115 67t-48 77.5T50 240t17 96 48 78.5 75 53 98 19.5q51 0 97.5-22t73.5-67h2v76h91V24q0-52-13-99.5t-44-84-81-58.5-124-22q-62 0-124.5 22.5T58-154zm29 323q0-33 10.5-63t31-53T238 89t66-14q36 0 66 13t51 35.5 32.5 53T465 242q0 34-11.5 64t-33 53-51 36.5T304 409q-37 0-66-13.5t-49.5-36-31-53T147 242zm203 512h79l-64-190h-93z"/><glyph glyph-name="Hcircumflex" unicode="Ĥ" horiz-adv-x="729" d="M86 708h99V412h358v296h100V0H543v324H185V0H86v708zm444 56h-91l-75 99-76-99h-90l112 144h108z"/><glyph glyph-name="hcircumflex" unicode="ĥ" horiz-adv-x="584" d="M179 402q17 35 58 60t92 25q46 0 79-15.5t55-41.5 32.5-61 10.5-75V0h-94v262q0 29-4.5 55T391 363t-32.5 32-53.5 12q-56 0-92-42.5T177 251V0H83v756h94V402h2zm282 394h-91l-75 99-76-99h-90l112 144h108z"/><glyph glyph-name="Hbar" unicode="Ħ" horiz-adv-x="729" d="M86 708h99V563h358v145h100V0H543v324H185V0H86v708zm457-296v88H185v-88h358z"/><glyph glyph-name="hbar" unicode="ħ" horiz-adv-x="584" d="M83 633v123h94V633h164v-63H177V402h2q17 35 58 60t92 25q46 0 79.5-15.5T464 430t32.5-61 10.5-75V0h-95v262q0 29-4.5 55T391 363t-32.5 32-53.5 12q-56 0-92-42.5T177 251V0H83v570H29v63h54z"/><glyph glyph-name="Itilde" unicode="Ĩ" horiz-adv-x="271" d="M185 0H86v708h99V0zM-38 772q4 22 10.5 42.5t18.5 37T20.5 878 64 888q19 0 38.5-6t36.5-14q20-9 36.5-15.5T206 846q22 0 32.5 14.5T254 892h54q-4-22-10.5-42.5t-18.5-37-30-26.5-43-10q-19 0-39 6.5T129 797q-18 9-34.5 15T64 818q-21 0-31.5-14.5T17 772h-55z"/><glyph glyph-name="itilde" unicode="ĩ" horiz-adv-x="259" d="M176 0H82v474h94V0zM-42 572q4 22 10.5 42.5t18.5 37T16.5 678 60 688q19 0 38.5-6t36.5-14q20-9 36.5-15.5T202 646q22 0 32.5 14.5T250 692h54q-4-22-10.5-42.5t-18.5-37-30-26.5-43-10q-19 0-39 6.5T125 597q-18 9-34.5 15T60 618q-21 0-31.5-14.5T13 572h-55z"/><glyph glyph-name="Imacron" unicode="Ī" horiz-adv-x="271" d="M185 0H86v708h99V0zm97 797H-14v67h296v-67z"/><glyph glyph-name="imacron" unicode="ī" horiz-adv-x="259" d="M176 0H82v474h94V0zm102 597H-18v67h296v-67z"/><glyph glyph-name="Iogonek" unicode="Į" horiz-adv-x="271" d="M227-189q-20-17-44.5-27T132-226q-19 0-36.5 6t-31 17T43-175.5 35-139t8 39.5T63.5-62t28 34T122 0H86v708h99V0h-8q-28-27-50.5-58T104-119q0-20 14-33.5t34-13.5q14 0 28 6t25 16z"/><glyph glyph-name="iogonek" unicode="į" horiz-adv-x="259" d="M215-189q-20-17-44.5-27T120-226q-19 0-36.5 6t-31 17T31-175.5 23-139t8 39.5T51.5-62t28 34T110 0H82v474h94V0h-11q-28-27-50.5-58T92-119q0-20 14-33.5t34-13.5q14 0 28 6t25 16zm-23 834q0-26-18.5-43T129 585t-44 17.5T67 645q0 26 18 43.5t44 17.5 44.5-17.5T192 645z"/><glyph glyph-name="Idotaccent" unicode="İ" horiz-adv-x="271" d="M185 0H86v708h99V0zm15 845q0-26-18.5-43T137 785t-44 17.5T75 845q0 26 18 43.5t44 17.5 44.5-17.5T200 845z"/><glyph glyph-name="dotlessi" unicode="ı" horiz-adv-x="259" d="M176 0H82v474h94V0z"/><glyph glyph-name="Jcircumflex" unicode="Ĵ" horiz-adv-x="495" d="M107 158q8-38 35-63t67-25q32 0 52.5 12t32.5 32.5 17 48 5 58.5v487h99V217q0-37-8-78t-30-76-61.5-58T214-18q-81 0-132 42T15 132zm424 606h-91l-75 99-76-99h-90l112 144h108z"/><glyph glyph-name="jcircumflex" unicode="ĵ" horiz-adv-x="260" d="M-21-154q20-5 38-5 21 0 34 8t20 21.5 9.5 32T83-58v532h94V-61q0-36-6.5-68T147-186t-47-39.5T23-240q-13 0-28 2t-26 4zm315 718h-91l-75 99-76-99h-90L74 708h108z"/><glyph glyph-name="Kcommaaccent" unicode="Ķ" horiz-adv-x="659" d="M185 396h2l316 312h137L296 384 661 0H519L187 366h-2V0H86v708h99V396zm137-631h-79l64 190h93z"/><glyph glyph-name="kcommaaccent" unicode="ķ" horiz-adv-x="527" d="M177 268h3l199 206h126L283 259 524 0H394L180 246h-3V0H83v756h94V268zm78-503h-79l64 190h93z"/><glyph glyph-name="Lacute" unicode="Ĺ" horiz-adv-x="511" d="M185 88h316V0H86v708h99V88zm-19 676H90l99 144h114z"/><glyph glyph-name="lacute" unicode="ĺ" horiz-adv-x="260" d="M177 0H83v756h94V0zm-17 792H83l100 144h113z"/><glyph glyph-name="Lcommaaccent" unicode="Ļ" horiz-adv-x="511" d="M185 88h316V0H86v708h99V88zm92-323h-79l64 190h93z"/><glyph glyph-name="lcommaaccent" unicode="ļ" horiz-adv-x="260" d="M177 0H83v756h94V0zm-62-235H36l64 190h93z"/><glyph glyph-name="Lcaron" unicode="Ľ" horiz-adv-x="511" d="M185 88h316V0H86v708h99V88zm123 430h-79l64 190h93z"/><glyph glyph-name="lcaron" unicode="ľ" horiz-adv-x="260" d="M177 0H83v756h94V0zm114 518h-79l64 190h93z"/><glyph glyph-name="Ldot" unicode="Ŀ" horiz-adv-x="511" d="M185 88h316V0H86v708h99V88zm264 247q0-26-18.5-43T386 275t-44 17.5-18 42.5q0 26 18 43.5t44 17.5 44.5-17.5T449 335z"/><glyph glyph-name="ldot" unicode="ŀ" horiz-adv-x="350" d="M177 0H83v756h94V0zm187 335q0-26-18.5-43T301 275t-44 17.5-18 42.5q0 26 18 43.5t44 17.5 44.5-17.5T364 335z"/><glyph glyph-name="Lslash" unicode="Ł" horiz-adv-x="511" d="M185 385l211 184v-90L185 295V88h316V0H86v221l-76-66v91l76 65v397h99V385z"/><glyph glyph-name="lslash" unicode="ł" horiz-adv-x="260" d="M176 480l75 76v-90l-75-75V0H83v314L8 238v92l75 75v351h93V480z"/><glyph glyph-name="Nacute" unicode="Ń" horiz-adv-x="772" d="M585 142h2v566h99V0H561L187 578h-2V0H86v708h129zM391 764h-76l99 144h114z"/><glyph glyph-name="nacute" unicode="ń" horiz-adv-x="582" d="M166 474q2-18 3-40.5t1-37.5h3q9 19 24.5 35.5t35.5 29 44 19.5 50 7q46 0 79-15.5t55-41.5 32.5-61 10.5-75V0h-94v263q0 29-4.5 55T389 364t-33 32-54 12q-56 0-91.5-42.5T175 252V0H81v372q0 19-1 49t-3 53h89zm144 90h-77l100 144h113z"/><glyph glyph-name="Ncommaaccent" unicode="Ņ" horiz-adv-x="772" d="M585 142h2v566h99V0H561L187 578h-2V0H86v708h129zM377-235h-79l64 190h93z"/><glyph glyph-name="ncommaaccent" unicode="ņ" horiz-adv-x="582" d="M166 474q2-18 3-40.5t1-37.5h3q9 19 24.5 35.5t35.5 29 44 19.5 50 7q46 0 79-15.5t55-41.5 32.5-61 10.5-75V0h-94v263q0 29-4.5 55T389 364t-33 32-54 12q-56 0-91.5-42.5T175 252V0H81v372q0 19-1 49t-3 53h89zm111-709h-79l64 190h93z"/><glyph glyph-name="Ncaron" unicode="Ň" horiz-adv-x="772" d="M585 142h2v566h99V0H561L187 578h-2V0H86v708h129zM442 764H335L224 908h90l76-99 76 99h88z"/><glyph glyph-name="ncaron" unicode="ň" horiz-adv-x="582" d="M166 474q2-18 3-40.5t1-37.5h3q9 19 24.5 35.5t35.5 29 44 19.5 50 7q46 0 79-15.5t55-41.5 32.5-61 10.5-75V0h-94v263q0 29-4.5 55T389 364t-33 32-54 12q-56 0-91.5-42.5T175 252V0H81v372q0 19-1 49t-3 53h89zm179 90H238L127 708h90l76-99 76 99h88z"/><glyph glyph-name="Omacron" unicode="Ō" horiz-adv-x="849" d="M800 355q0-82-28.5-150.5T693 86.5t-119-77T424-18 274.5 9.5 156 86.5t-78 118T50 355q0 83 28 151.5t78 117T274.5 699 424 726t150-27 119-75.5 78.5-117T800 355zm-107 0q0 58-19 109.5T620 555t-84.5 61.5T424 639q-61 0-110.5-22.5t-84-61.5-53.5-90.5T157 355q0-59 19-111t54-90.5T314 93t110-22 111 22 85 60.5 54 90.5 19 111zM573 797H277v67h296v-67z"/><glyph glyph-name="omacron" unicode="ō" horiz-adv-x="610" d="M561 238q0-55-19.5-101t-54-79.5-81.5-52T305-13 204 5.5t-81 52T69.5 137 50 238t19.5 100.5T123 417t81 51.5T305 487t101-18.5 81.5-51.5 54-78.5T561 238zm-98 0q0 34-10.5 65T422 357.5 372.5 395 305 409t-67.5-14-49.5-37.5-30.5-54.5-10.5-65 10.5-65 30.5-55 49.5-38T305 66t67.5 14 49.5 38 30.5 55 10.5 65zm-9 359H158v67h296v-67z"/><glyph glyph-name="Obreve" unicode="Ŏ" horiz-adv-x="849" d="M800 355q0-82-28.5-150.5T693 86.5t-119-77T424-18 274.5 9.5 156 86.5t-78 118T50 355q0 83 28 151.5t78 117T274.5 699 424 726t150-27 119-75.5 78.5-117T800 355zm-107 0q0 58-19 109.5T620 555t-84.5 61.5T424 639q-61 0-110.5-22.5t-84-61.5-53.5-90.5T157 355q0-59 19-111t54-90.5T314 93t110-22 111 22 85 60.5 54 90.5 19 111zM583 908q-6-69-49.5-103.5T424 770q-67 0-110.5 34.5T265 908h56q7-38 36-55t67-17q41 0 68 15.5t36 56.5h55z"/><glyph glyph-name="obreve" unicode="ŏ" horiz-adv-x="610" d="M561 238q0-55-19.5-101t-54-79.5-81.5-52T305-13 204 5.5t-81 52T69.5 137 50 238t19.5 100.5T123 417t81 51.5T305 487t101-18.5 81.5-51.5 54-78.5T561 238zm-98 0q0 34-10.5 65T422 357.5 372.5 395 305 409t-67.5-14-49.5-37.5-30.5-54.5-10.5-65 10.5-65 30.5-55 49.5-38T305 66t67.5 14 49.5 38 30.5 55 10.5 65zm2 470q-6-69-49.5-103.5T306 570q-67 0-110.5 34.5T147 708h56q7-38 36-55t67-17q41 0 68 15.5t36 56.5h55z"/><glyph glyph-name="Ohungarumlaut" unicode="Ő" horiz-adv-x="849" d="M800 355q0-82-28.5-150.5T693 86.5t-119-77T424-18 274.5 9.5 156 86.5t-78 118T50 355q0 83 28 151.5t78 117T274.5 699 424 726t150-27 119-75.5 78.5-117T800 355zm-107 0q0 58-19 109.5T620 555t-84.5 61.5T424 639q-61 0-110.5-22.5t-84-61.5-53.5-90.5T157 355q0-59 19-111t54-90.5T314 93t110-22 111 22 85 60.5 54 90.5 19 111zM363 764h-77l100 144h114zm183 0h-77l100 144h113z"/><glyph glyph-name="ohungarumlaut" unicode="ő" horiz-adv-x="610" d="M561 238q0-55-19.5-101t-54-79.5-81.5-52T305-13 204 5.5t-81 52T69.5 137 50 238t19.5 100.5T123 417t81 51.5T305 487t101-18.5 81.5-51.5 54-78.5T561 238zm-98 0q0 34-10.5 65T422 357.5 372.5 395 305 409t-67.5-14-49.5-37.5-30.5-54.5-10.5-65 10.5-65 30.5-55 49.5-38T305 66t67.5 14 49.5 38 30.5 55 10.5 65zM249 564h-77l100 144h114zm183 0h-77l100 144h113z"/><glyph glyph-name="OE" unicode="Œ" horiz-adv-x="1003" d="M942 708v-87H611V409h310v-85H611V88h346V0H432q-68 0-136 21.5t-123 65-89 110T50 354q0 94 34 161t89 110 123 63 136 20h510zm-490-87q-64 0-118.5-17t-94-51-61.5-83.5T156 354q0-63 22-112.5t61.5-83.5 94-52T452 88h60v533h-60z"/><glyph glyph-name="oe" unicode="œ" horiz-adv-x="975" d="M698 487q53 0 95-17t71.5-49 45.5-77.5T926 241v-16l-1-16H548q2-31 14.5-57t33.5-45.5T644.5 76 703 65q49 0 83.5 21t54.5 51l65-53q-75-97-204-97-66 0-117.5 27.5T503 89q-31-47-83-74.5T302-13q-54 0-100.5 18.5t-80 52T69 137 50 238t19 100.5 52.5 78.5 80 51.5T302 487q66 0 118.5-28t83.5-75q31 46 80.5 74.5T698 487zM463 238q0 34-10.5 65T422 357.5 372.5 395 305 409t-68-14-50-37.5-30.5-54.5-10.5-65 10.5-65 30.5-55 50-38 68-14 67.5 14 49.5 38 30.5 55 10.5 65zm369 41q-1 28-9.5 52.5T797 374t-41.5 28.5T698 413q-30 0-56.5-10.5t-46-28.5-32-42.5T549 279h283z"/><glyph glyph-name="Racute" unicode="Ŕ" horiz-adv-x="614" d="M185 0H86v708h227q51 0 97-10.5t80.5-33.5 54.5-60.5 20-91.5q0-78-48-126t-124-61L591 0H471L291 315H185V0zm0 398h114q35 0 65 6t52.5 19.5 35.5 35 13 53.5-13 53.5-34.5 34.5-50.5 18.5-61 5.5H185V398zm113 366h-76l99 144h114z"/><glyph glyph-name="racute" unicode="ŕ" horiz-adv-x="362" d="M81 372q0 19-1 49t-3 53h89q2-18 3-41.5t1-38.5h3q20 42 58.5 67.5T318 487q22 0 37-4l-4-87q-20 5-43 5-34 0-59-12.5T207.5 355 183 306.5t-8-57.5V0H81v372zm100 192h-77l100 144h113z"/><glyph glyph-name="Rcommaaccent" unicode="Ŗ" horiz-adv-x="614" d="M185 0H86v708h227q51 0 97-10.5t80.5-33.5 54.5-60.5 20-91.5q0-78-48-126t-124-61L591 0H471L291 315H185V0zm0 398h114q35 0 65 6t52.5 19.5 35.5 35 13 53.5-13 53.5-34.5 34.5-50.5 18.5-61 5.5H185V398zm116-633h-79l64 190h93z"/><glyph glyph-name="rcommaaccent" unicode="ŗ" horiz-adv-x="362" d="M81 372q0 19-1 49t-3 53h89q2-18 3-41.5t1-38.5h3q20 42 58.5 67.5T318 487q22 0 37-4l-4-87q-20 5-43 5-34 0-59-12.5T207.5 355 183 306.5t-8-57.5V0H81v372zm33-607H35L99-45h93z"/><glyph glyph-name="Rcaron" unicode="Ř" horiz-adv-x="614" d="M185 0H86v708h227q51 0 97-10.5t80.5-33.5 54.5-60.5 20-91.5q0-78-48-126t-124-61L591 0H471L291 315H185V0zm0 398h114q35 0 65 6t52.5 19.5 35.5 35 13 53.5-13 53.5-34.5 34.5-50.5 18.5-61 5.5H185V398zm162 366H240L129 908h90l76-99 76 99h88z"/><glyph glyph-name="rcaron" unicode="ř" horiz-adv-x="362" d="M81 372q0 19-1 49t-3 53h89q2-18 3-41.5t1-38.5h3q20 42 58.5 67.5T318 487q22 0 37-4l-4-87q-20 5-43 5-34 0-59-12.5T207.5 355 183 306.5t-8-57.5V0H81v372zm185 192H159L48 708h90l76-99 76 99h88z"/><glyph glyph-name="Sacute" unicode="Ś" horiz-adv-x="569" d="M438 577q-21 29-57 47.5T300 643q-24 0-48.5-6.5t-44.5-21-32.5-36T162 528q0-29 11.5-48.5t31-33 46-23L307 404q36-11 73-25t67-37 49-57.5 19-87.5q0-55-20.5-95.5t-54.5-67T361.5-5 270-18q-67 0-129.5 26T37 85l77 65q25-37 67-60t91-23q25 0 50 7t45.5 22 33.5 37.5 13 54.5-13.5 53.5T364 278t-53.5 25.5L246 325q-34 10-67 24.5t-59 37T78 442t-16 82q0 53 21.5 91t56 63 78 36.5T305 726q62 0 116-22t87-59zM306 764h-76l99 144h114z"/><glyph glyph-name="sacute" unicode="ś" horiz-adv-x="444" d="M337 354q-16 26-45 42.5T227 413q-16 0-32-3.5t-28.5-11-20-19T139 351q0-30 27-44.5t81-26.5q34-8 63-19t50.5-27.5T394 194t12-54q0-42-16-71t-42.5-47.5T287-5t-70-8q-54 0-105.5 21T26 72l67 57q19-28 52.5-47T219 63q18 0 34.5 3.5t30 11.5T305 99t8 33q0 33-31.5 49T189 211q-24 6-48.5 14.5T96 249t-32.5 37.5T51 342q0 38 15.5 65.5t40.5 45 57 26 66 8.5q51 0 98.5-20t73.5-58zM236 564h-77l100 144h113z"/><glyph glyph-name="Scircumflex" unicode="Ŝ" horiz-adv-x="569" d="M438 577q-21 29-57 47.5T300 643q-24 0-48.5-6.5t-44.5-21-32.5-36T162 528q0-29 11.5-48.5t31-33 46-23L307 404q36-11 73-25t67-37 49-57.5 19-87.5q0-55-20.5-95.5t-54.5-67T361.5-5 270-18q-67 0-129.5 26T37 85l77 65q25-37 67-60t91-23q25 0 50 7t45.5 22 33.5 37.5 13 54.5-13.5 53.5T364 278t-53.5 25.5L246 325q-34 10-67 24.5t-59 37T78 442t-16 82q0 53 21.5 91t56 63 78 36.5T305 726q62 0 116-22t87-59zm31 187h-91l-75 99-76-99h-90l112 144h108z"/><glyph glyph-name="scircumflex" unicode="ŝ" horiz-adv-x="444" d="M337 354q-16 26-45 42.5T227 413q-16 0-32-3.5t-28.5-11-20-19T139 351q0-30 27-44.5t81-26.5q34-8 63-19t50.5-27.5T394 194t12-54q0-42-16-71t-42.5-47.5T287-5t-70-8q-54 0-105.5 21T26 72l67 57q19-28 52.5-47T219 63q18 0 34.5 3.5t30 11.5T305 99t8 33q0 33-31.5 49T189 211q-24 6-48.5 14.5T96 249t-32.5 37.5T51 342q0 38 15.5 65.5t40.5 45 57 26 66 8.5q51 0 98.5-20t73.5-58zm62 210h-91l-75 99-76-99H67l112 144h108z"/><glyph glyph-name="Scedilla" unicode="Ş" horiz-adv-x="569" d="M438 577q-21 29-57 47.5T300 643q-24 0-48.5-6.5t-44.5-21-32.5-36T162 528q0-29 11.5-48.5t31-33 46-23L307 404q36-11 73-25t67-37 49-57.5 19-87.5q0-50-16.5-87.5t-45-63.5T388 4.5 309-16l-35-53q7 2 13 2h14q17 0 33.5-4t30-13 22-24 8.5-37q0-26-12-43.5t-30.5-28-41-14.5-43.5-4q-26 0-54 6t-49 17l20 42q37-17 77-17 8 0 18.5 2t20 6.5 16 12.5 6.5 21q0 22-17 30t-37 8q-9 0-20-2t-21-5l-20 20 50 76q-64 2-123.5 28T37 85l77 65q25-37 67-60t91-23q25 0 50 7t45.5 22 33.5 37.5 13 54.5-13.5 53.5T364 278t-53.5 25.5L246 325q-34 10-67 24.5t-59 37T78 442t-16 82q0 53 21.5 91t56 63 78 36.5T305 726q62 0 116-22t87-59z"/><glyph glyph-name="scedilla" unicode="ş" horiz-adv-x="444" d="M337 354q-16 26-45 42.5T227 413q-16 0-32-3.5t-28.5-11-20-19T139 351q0-30 27-44.5t81-26.5q34-8 63-19t50.5-27.5T394 194t12-54q0-38-13.5-65.5t-36-46T304 .5 242-12l-38-57q7 2 13 2h14q17 0 33.5-4t30-13 22-24 8.5-37q0-26-12-43.5t-30.5-28-41-14.5-43.5-4q-26 0-54 6t-49 17l20 42q37-17 77-17 8 0 18.5 2t20 6.5 16 12.5 6.5 21q0 22-17 30t-37 8q-9 0-20-2t-21-5l-20 20 54 83q-48 4-92 24.5T26 72l67 57q19-28 52.5-47T219 63q18 0 34.5 3.5t30 11.5T305 99t8 33q0 33-31.5 49T189 211q-24 6-48.5 14.5T96 249t-32.5 37.5T51 342q0 38 15.5 65.5t40.5 45 57 26 66 8.5q51 0 98.5-20t73.5-58z"/><glyph glyph-name="Scaron" unicode="Š" horiz-adv-x="569" d="M438 577q-21 29-57 47.5T300 643q-24 0-48.5-6.5t-44.5-21-32.5-36T162 528q0-29 11.5-48.5t31-33 46-23L307 404q36-11 73-25t67-37 49-57.5 19-87.5q0-55-20.5-95.5t-54.5-67T361.5-5 270-18q-67 0-129.5 26T37 85l77 65q25-37 67-60t91-23q25 0 50 7t45.5 22 33.5 37.5 13 54.5-13.5 53.5T364 278t-53.5 25.5L246 325q-34 10-67 24.5t-59 37T78 442t-16 82q0 53 21.5 91t56 63 78 36.5T305 726q62 0 116-22t87-59zm-87 187H244L133 908h90l76-99 76 99h88z"/><glyph glyph-name="scaron" unicode="š" horiz-adv-x="444" d="M337 354q-16 26-45 42.5T227 413q-16 0-32-3.5t-28.5-11-20-19T139 351q0-30 27-44.5t81-26.5q34-8 63-19t50.5-27.5T394 194t12-54q0-42-16-71t-42.5-47.5T287-5t-70-8q-54 0-105.5 21T26 72l67 57q19-28 52.5-47T219 63q18 0 34.5 3.5t30 11.5T305 99t8 33q0 33-31.5 49T189 211q-24 6-48.5 14.5T96 249t-32.5 37.5T51 342q0 38 15.5 65.5t40.5 45 57 26 66 8.5q51 0 98.5-20t73.5-58zm-53 210H177L66 708h90l76-99 76 99h88z"/><glyph glyph-name="Tcommaaccent" unicode="Ţ" horiz-adv-x="569" d="M334 0h-99v621H8v87h553v-87H334V0zm-66-69q7 2 13 2h14q17 0 33.5-4t30-13 22-24 8.5-37q0-26-12-43.5t-30.5-28-41-14.5-43.5-4q-26 0-54 6t-49 17l20 42q37-17 77-17 8 0 18.5 2t20 6.5 16 12.5 6.5 21q0 22-17 30t-37 8q-9 0-20-2t-21-5l-20 20 62 94h50z"/><glyph glyph-name="tcommaaccent" unicode="ţ" horiz-adv-x="329" d="M313 397H187V150q0-43 16-61.5T254 70q13 0 28 3t27 9l3-77q-17-6-37.5-9.5T232-8q-67 0-102.5 37T94 140v257H3v77h91v136h93V474h126v-77zM213-69q7 2 13 2h14q17 0 33.5-4t30-13 22-24 8.5-37q0-26-12-43.5t-30.5-28-41-14.5-43.5-4q-26 0-54 6t-49 17l20 42q37-17 77-17 8 0 18.5 2t20 6.5 16 12.5 6.5 21q0 22-17 30t-37 8q-9 0-20-2t-21-5l-20 20 62 94h50z"/><glyph glyph-name="Tcaron" unicode="Ť" horiz-adv-x="569" d="M334 0h-99v621H8v87h553v-87H334V0zm2 764H229L118 908h90l76-99 76 99h88z"/><glyph glyph-name="tcaron" unicode="ť" horiz-adv-x="329" d="M313 397H187V150q0-43 16-61.5T254 70q13 0 28 3t27 9l3-77q-17-6-37.5-9.5T232-8q-67 0-102.5 37T94 140v257H3v77h91v136h93V474h126v-77zm-16 144h-79l64 190h93z"/><glyph glyph-name="Tbar" unicode="Ŧ" horiz-adv-x="569" d="M235 525v96H8v87h553v-87H334v-96h163v-63H334V0h-99v462H72v63h163z"/><glyph glyph-name="tbar" unicode="ŧ" horiz-adv-x="329" d="M94 304v93H3v77h91v136h93V474h126v-77H187v-93h112v-63H187v-91q0-43 16-61.5T254 70q13 0 28 3t27 9l3-77q-17-6-37.5-9.5T232-8q-67 0-102.5 37T94 140v101H12v63h82z"/><glyph glyph-name="Utilde" unicode="Ũ" horiz-adv-x="712" d="M356-18q-70 0-122 23.5T148 68t-50.5 89.5T81 262v446h99V268q0-36 9-71.5t29.5-63.5 54-45T356 71q49 0 83 17t54.5 45 29.5 63.5 9 71.5v440h99V262q0-54-16.5-104.5T564 68 478 5.5 356-18zM179 772q4 22 10.5 42.5t18.5 37 29.5 26.5 43.5 10q19 0 38.5-6t36.5-14q20-9 36.5-15.5T423 846q22 0 32.5 14.5T471 892h54q-4-22-10.5-42.5t-18.5-37-30-26.5-43-10q-19 0-39 6.5T346 797q-18 9-34.5 15t-30.5 6q-21 0-31.5-14.5T234 772h-55z"/><glyph glyph-name="utilde" unicode="ũ" horiz-adv-x="582" d="M415 0q-2 18-3 40.5T411 78h-2q-18-38-60.5-64.5T254-13q-46 0-79.5 15t-55 41.5-32 61.5T77 180v294h94V212q0-29 4.5-55.5T192 110t33-32 54-12q57 0 92 42.5T406 222v252h94V102q0-19 1-49t3-53h-89zM116 572q4 22 10.5 42.5t18.5 37 29.5 26.5 43.5 10q19 0 38.5-6t36.5-14q20-9 36.5-15.5T360 646q22 0 32.5 14.5T408 692h54q-4-22-10.5-42.5t-18.5-37-30-26.5-43-10q-19 0-39 6.5T283 597q-18 9-34.5 15t-30.5 6q-21 0-31.5-14.5T171 572h-55z"/><glyph glyph-name="Umacron" unicode="Ū" horiz-adv-x="712" d="M356-18q-70 0-122 23.5T148 68t-50.5 89.5T81 262v446h99V268q0-36 9-71.5t29.5-63.5 54-45T356 71q49 0 83 17t54.5 45 29.5 63.5 9 71.5v440h99V262q0-54-16.5-104.5T564 68 478 5.5 356-18zm144 815H204v67h296v-67z"/><glyph glyph-name="umacron" unicode="ū" horiz-adv-x="582" d="M415 0q-2 18-3 40.5T411 78h-2q-18-38-60.5-64.5T254-13q-46 0-79.5 15t-55 41.5-32 61.5T77 180v294h94V212q0-29 4.5-55.5T192 110t33-32 54-12q57 0 92 42.5T406 222v252h94V102q0-19 1-49t3-53h-89zm22 597H141v67h296v-67z"/><glyph glyph-name="Ubreve" unicode="Ŭ" horiz-adv-x="712" d="M356-18q-70 0-122 23.5T148 68t-50.5 89.5T81 262v446h99V268q0-36 9-71.5t29.5-63.5 54-45T356 71q49 0 83 17t54.5 45 29.5 63.5 9 71.5v440h99V262q0-54-16.5-104.5T564 68 478 5.5 356-18zm160 926q-6-69-49.5-103.5T357 770q-67 0-110.5 34.5T198 908h56q7-38 36-55t67-17q41 0 68 15.5t36 56.5h55z"/><glyph glyph-name="ubreve" unicode="ŭ" horiz-adv-x="582" d="M415 0q-2 18-3 40.5T411 78h-2q-18-38-60.5-64.5T254-13q-46 0-79.5 15t-55 41.5-32 61.5T77 180v294h94V212q0-29 4.5-55.5T192 110t33-32 54-12q57 0 92 42.5T406 222v252h94V102q0-19 1-49t3-53h-89zm34 708q-6-69-49.5-103.5T290 570q-67 0-110.5 34.5T131 708h56q7-38 36-55t67-17q41 0 68 15.5t36 56.5h55z"/><glyph glyph-name="Uring" unicode="Ů" horiz-adv-x="712" d="M356-18q-70 0-122 23.5T148 68t-50.5 89.5T81 262v446h99V268q0-36 9-71.5t29.5-63.5 54-45T356 71q49 0 83 17t54.5 45 29.5 63.5 9 71.5v440h99V262q0-54-16.5-104.5T564 68 478 5.5 356-18zm97 871q0-43-29.5-71T352 754q-21 0-39 7.5T281.5 782 260 813t-8 39q0 43 29 71t71 28 71.5-28 29.5-70zm-41 0q0 25-17.5 41.5T352 911t-42-17-17-42q0-24 17-40.5t42-16.5 42.5 16.5T412 853z"/><glyph glyph-name="uring" unicode="ů" horiz-adv-x="582" d="M415 0q-2 18-3 40.5T411 78h-2q-18-38-60.5-64.5T254-13q-46 0-79.5 15t-55 41.5-32 61.5T77 180v294h94V212q0-29 4.5-55.5T192 110t33-32 54-12q57 0 92 42.5T406 222v252h94V102q0-19 1-49t3-53h-89zm-26 653q0-43-29.5-71T288 554q-21 0-39 7.5T217.5 582 196 613t-8 39q0 43 29 71t71 28 71.5-28 29.5-70zm-42 0q0 24-17.5 40T288 709q-23 0-40.5-16T230 653t17.5-40.5T288 596q24 0 41.5 16t17.5 41z"/><glyph glyph-name="Uhungarumlaut" unicode="Ű" horiz-adv-x="712" d="M356-18q-70 0-122 23.5T148 68t-50.5 89.5T81 262v446h99V268q0-36 9-71.5t29.5-63.5 54-45T356 71q49 0 83 17t54.5 45 29.5 63.5 9 71.5v440h99V262q0-54-16.5-104.5T564 68 478 5.5 356-18zm-65 782h-77l100 144h114zm183 0h-77l100 144h113z"/><glyph glyph-name="uhungarumlaut" unicode="ű" horiz-adv-x="582" d="M415 0q-2 18-3 40.5T411 78h-2q-18-38-60.5-64.5T254-13q-46 0-79.5 15t-55 41.5-32 61.5T77 180v294h94V212q0-29 4.5-55.5T192 110t33-32 54-12q57 0 92 42.5T406 222v252h94V102q0-19 1-49t3-53h-89zM231 564h-77l100 144h114zm183 0h-77l100 144h113z"/><glyph glyph-name="Uogonek" unicode="Ų" horiz-adv-x="712" d="M470-189q-20-17-44.5-27T375-226q-19 0-36.5 6t-31 17-21.5 27.5-8 36.5q0 34 20.5 65.5T345-17q-68 2-117.5 25.5t-82 62-48.5 88T81 262v446h99V268q0-36 9-71.5t29.5-63.5 54-45T356 71q49 0 83 17t54.5 45 29.5 63.5 9 71.5v440h99V262q0-49-13.5-95.5t-41.5-84-70.5-63T406-14q-23-25-41-52t-18-53q0-20 14-33.5t34-13.5q14 0 28 6t25 16z"/><glyph glyph-name="uogonek" unicode="ų" horiz-adv-x="582" d="M511-189q-20-17-44.5-27T416-226q-19 0-36.5 6t-31 17-21.5 27.5-8 36.5q0 21 9 42t23 39.5 30.5 35T414 6q-2 17-2.5 37.5T411 78h-2q-18-38-60.5-64.5T254-13q-46 0-79.5 15t-55 41.5-32 61.5T77 180v294h94V212q0-29 4.5-55.5T192 110t33-32 54-12q57 0 92 42.5T406 222v252h94V102q0-19 1-49t3-53h-43q-28-27-50.5-58T388-119q0-20 14-33.5t34-13.5q14 0 28 6t25 16z"/><glyph glyph-name="Wcircumflex" unicode="Ŵ" horiz-adv-x="988" d="M273 144h2l166 564h109l165-564h2l156 564h105L770 0H667L495 569h-2L321 0H218L10 708h107zm389 620h-91l-75 99-76-99h-90l112 144h108z"/><glyph glyph-name="wcircumflex" unicode="ŵ" horiz-adv-x="773" d="M116 474l107-362h2l113 362h99l115-362h2l107 362h99L603 0h-98L388 356h-2L270 0h-98L14 474h102zm436 90h-91l-75 99-76-99h-90l112 144h108z"/><glyph glyph-name="Ycircumflex" unicode="Ŷ" horiz-adv-x="624" d="M362 0H262v306L-3 708h122l196-320 197 320h115L362 306V0zm118 764h-91l-75 99-76-99h-90l112 144h108z"/><glyph glyph-name="ycircumflex" unicode="ŷ" horiz-adv-x="504" d="M261 102h2l131 372h100L264-112q-12-30-26-53.5t-33-40-44.5-25.5-60.5-9q-15 0-30.5 1.5T38-233l9 83q24-8 47-8 37 0 55 20.5T182-79l30 79L9 474h105zm165 462h-91l-75 99-76-99H94l112 144h108z"/><glyph glyph-name="Ydieresis" unicode="Ÿ" horiz-adv-x="624" d="M362 0H262v306L-3 708h122l196-320 197 320h115L362 306V0zM156 845q0 24 17.5 42.5T218 906q26 0 44-17.5t18-43.5q0-25-18-42.5T218 785q-27 0-44.5 18.5T156 845zm194 0q0 24 17.5 42.5T412 906q26 0 44-17.5t18-43.5q0-25-18-42.5T412 785q-27 0-44.5 18.5T350 845z"/><glyph glyph-name="Zacute" unicode="Ź" horiz-adv-x="592" d="M553 621L153 88h406V0H33v87l399 534H41v87h512v-87zM302 764h-76l99 144h114z"/><glyph glyph-name="zacute" unicode="ź" horiz-adv-x="462" d="M419 397L149 79h281V0H33v77l268 320H46v77h373v-77zM241 564h-77l100 144h113z"/><glyph glyph-name="Zdotaccent" unicode="Ż" horiz-adv-x="592" d="M553 621L153 88h406V0H33v87l399 534H41v87h512v-87zM359 845q0-26-18.5-43T296 785t-44 17.5-18 42.5q0 26 18 43.5t44 17.5 44.5-17.5T359 845z"/><glyph glyph-name="zdotaccent" unicode="ż" horiz-adv-x="462" d="M419 397L149 79h281V0H33v77l268 320H46v77h373v-77zM301 645q0-26-18.5-43T238 585t-44 17.5-18 42.5q0 26 18 43.5t44 17.5 44.5-17.5T301 645z"/><glyph glyph-name="Zcaron" unicode="Ž" horiz-adv-x="592" d="M553 621L153 88h406V0H33v87l399 534H41v87h512v-87zM351 764H244L133 908h90l76-99 76 99h88z"/><glyph glyph-name="zcaron" unicode="ž" horiz-adv-x="462" d="M419 397L149 79h281V0H33v77l268 320H46v77h373v-77zM290 564H183L72 708h90l76-99 76 99h88z"/><glyph glyph-name="florin" unicode="ƒ" horiz-adv-x="595" d="M472 350H343L281 31q-7-38-20-69t-33-53.5-49-35-69-12.5q-24 0-48 6t-44 18l38 71q11-7 24.5-10.5T106-58q21 0 35.5 8.5t23.5 23T179.5 7t9.5 40l58 303H136v73h125l25 127q6 34 17.5 65t31 54 48 37 69.5 14q29 0 55.5-8t50.5-22l-40-71q-13 8-27 12.5t-29 4.5q-23 0-38-11t-24.5-27-14.5-35.5-8-35.5l-20-104h115v-73z"/><glyph glyph-name="Scommaaccent" unicode="Ș" horiz-adv-x="569" d="M438 577q-21 29-57 47.5T300 643q-24 0-48.5-6.5t-44.5-21-32.5-36T162 528q0-29 11.5-48.5t31-33 46-23L307 404q36-11 73-25t67-37 49-57.5 19-87.5q0-55-20.5-95.5t-54.5-67T361.5-5 270-18q-67 0-129.5 26T37 85l77 65q25-37 67-60t91-23q25 0 50 7t45.5 22 33.5 37.5 13 54.5-13.5 53.5T364 278t-53.5 25.5L246 325q-34 10-67 24.5t-59 37T78 442t-16 82q0 53 21.5 91t56 63 78 36.5T305 726q62 0 116-22t87-59zM267-235h-79l64 190h93z"/><glyph glyph-name="scommaaccent" unicode="ș" horiz-adv-x="444" d="M337 354q-16 26-45 42.5T227 413q-16 0-32-3.5t-28.5-11-20-19T139 351q0-30 27-44.5t81-26.5q34-8 63-19t50.5-27.5T394 194t12-54q0-42-16-71t-42.5-47.5T287-5t-70-8q-54 0-105.5 21T26 72l67 57q19-28 52.5-47T219 63q18 0 34.5 3.5t30 11.5T305 99t8 33q0 33-31.5 49T189 211q-24 6-48.5 14.5T96 249t-32.5 37.5T51 342q0 38 15.5 65.5t40.5 45 57 26 66 8.5q51 0 98.5-20t73.5-58zM204-235h-79l64 190h93z"/><glyph glyph-name="uni021A" unicode="Ț" horiz-adv-x="569" d="M334 0h-99v621H8v87h553v-87H334V0zm-65-235h-79l64 190h93z"/><glyph glyph-name="uni021B" unicode="ț" horiz-adv-x="329" d="M313 397H187V150q0-43 16-61.5T254 70q13 0 28 3t27 9l3-77q-17-6-37.5-9.5T232-8q-67 0-102.5 37T94 140v257H3v77h91v136h93V474h126v-77zM183-235h-79l64 190h93z"/><glyph glyph-name="circumflex" unicode="ˆ" d="M291 564h-91l-75 99-76-99h-90L71 708h108z"/><glyph glyph-name="caron" unicode="ˇ" d="M178 564H71L-40 708h90l76-99 76 99h88z"/><glyph glyph-name="uni02C9" unicode="ˉ" d="M273 797H-23v67h296v-67z"/><glyph glyph-name="breve" unicode="˘" d="M284 708q-6-69-49.5-103.5T125 570q-67 0-110.5 34.5T-34 708h56q7-38 36-55t67-17q41 0 68 15.5t36 56.5h55z"/><glyph glyph-name="dotaccent" unicode="˙" d="M188 645q0-26-18.5-43T125 585t-44 17.5T63 645q0 26 18 43.5t44 17.5 44.5-17.5T188 645z"/><glyph glyph-name="ring" unicode="˚" d="M226 653q0-43-29.5-71T125 554q-21 0-39 7.5T54.5 582 33 613t-8 39q0 43 29 71t71 28 71.5-28 29.5-70zm-42 0q0 24-17.5 40T125 709q-23 0-40.5-16T67 653t17.5-40.5T125 596q24 0 41.5 16t17.5 41z"/><glyph glyph-name="ogonek" unicode="˛" d="M206-189q-20-17-44.5-27T111-226q-19 0-36.5 6t-31 17T22-175.5 14-139q0 21 9 42t23 39.5 30.5 35T109 6h54q-15-14-29-29.5T108.5-55 90-87t-7-32q0-20 14-33.5t34-13.5q14 0 28 6t25 16z"/><glyph glyph-name="tilde" unicode="˜" d="M-48 572q4 22 10.5 42.5t18.5 37T10.5 678 54 688q19 0 38.5-6t36.5-14q20-9 36.5-15.5T196 646q22 0 32.5 14.5T244 692h54q-4-22-10.5-42.5t-18.5-37-30-26.5-43-10q-19 0-39 6.5T119 597q-18 9-34.5 15T54 618q-21 0-31.5-14.5T7 572h-55z"/><glyph glyph-name="hungarumlaut" unicode="˝" d="M39 564h-77L62 708h114zm183 0h-77l100 144h113z"/><glyph glyph-name="endash" unicode="–" horiz-adv-x="400" d="M370 207H30v75h340v-75z"/><glyph glyph-name="emdash" unicode="—" horiz-adv-x="600" d="M570 207H30v75h540v-75z"/><glyph glyph-name="quoteleft" unicode="‘" horiz-adv-x="246" d="M125 708h79l-68-250H42z"/><glyph glyph-name="quoteright" unicode="’" horiz-adv-x="246" d="M121 458H42l69 250h93z"/><glyph glyph-name="quotesinglbase" unicode="‚" horiz-adv-x="246" d="M121-133H42l69 250h93z"/><glyph glyph-name="quotedblleft" unicode="“" horiz-adv-x="426" d="M125 708h79l-68-250H42zm180 0h79l-68-250h-94z"/><glyph glyph-name="quotedblright" unicode="”" horiz-adv-x="426" d="M301 458h-79l69 250h93zm-180 0H42l69 250h93z"/><glyph glyph-name="quotedblbase" unicode="„" horiz-adv-x="426" d="M301-133h-79l69 250h93zm-180 0H42l69 250h93z"/><glyph glyph-name="uni0394" horiz-adv-x="678" d="M11 0l276 712h95L667 0H11zm322 613L134 83h406z"/><glyph glyph-name="uni03A9" horiz-adv-x="752" d="M429 0v185q42 8 74 28t53.5 49.5 32.5 66 11 77.5q0 49-17 91.5T535 571t-73 49-91 18q-50 0-92.5-18t-73-49-48-74-17.5-92q0-83 43-143t126-77V0H46v77h190v62q-46 13-81.5 39.5T95 241t-36.5 79T46 410q0 68 25.5 125t70 98.5T245 698t125 23q67 0 125.5-22.5T598 635t69.5-98T693 412q0-48-12-91.5T645 241t-59.5-62.5T503 139V77h190V0H429z"/><glyph glyph-name="uni03BC" horiz-adv-x="578" d="M413 0q-2 18-3 40.5T409 78h-2q-18-38-60.5-64.5T252-13q-25 0-47.5 8T169 17v-257H75v714h94V212q0-29 4.5-55.5T190 110t33-32 54-12q57 0 92 42.5T404 222v252h94V102q0-19 1-49t3-53h-89z"/><glyph glyph-name="pi" horiz-adv-x="578" d="M545 12q-19-9-36.5-14T471-7q-32 0-50 10t-28 27-12.5 39.5T378 118v275H187V0h-86v393H31v81h511v-81h-78V123q0-22 5.5-39T502 67q21 0 43 10V12z"/><glyph glyph-name="dagger" unicode="†" horiz-adv-x="575" d="M332 505h202v-79H332v-552h-90v552H41v79h201v203h90V505z"/><glyph glyph-name="daggerdbl" unicode="‡" horiz-adv-x="575" d="M332 520h194v-79H332V141h194V63H332v-189h-90V63H48v78h194v300H48v79h194v188h90V520z"/><glyph glyph-name="bullet" unicode="•" horiz-adv-x="500" d="M73 354q0 37 14 69t38 56 56 38 69 14 69-14 56-38 38-56 14-69-14-69-38-56-56-38-69-14-69 14-56 38-38 56-14 69z"/><glyph glyph-name="ellipsis" unicode="…" horiz-adv-x="1000" d="M87 70q0 32 23.5 55t56.5 23q32 0 56-22t24-54-23.5-55T167-6q-16 0-30.5 6T111 16 93.5 40 87 70zm333 0q0 32 23.5 55t56.5 23q32 0 56-22t24-54-23.5-55T500-6q-16 0-30.5 6T444 16t-17.5 24-6.5 30zm333 0q0 32 23.5 55t56.5 23q32 0 56-22t24-54-23.5-55T833-6q-16 0-30.5 6T777 16t-17.5 24-6.5 30z"/><glyph glyph-name="perthousand" unicode="‰" horiz-adv-x="1048" d="M39 563q0 33 12.5 62t34 50.5 50.5 34 62 12.5 62.5-12.5 51-34 34-50.5 12.5-62-12.5-62-34-50.5-51-34T198 404t-62 12.5-50.5 34-34 50.5T39 563zm244 0q0 35-25 59.5T198 647q-17 0-32.5-6.5t-27-18-18-26.5-6.5-33 6.5-33.5 18-27 27-18T198 478q35 0 60 25t25 60zm61-415q0 33 12.5 62t34 50.5 50.5 34 62 12.5 62.5-12.5 51-34 34-50.5 12.5-62-12.5-62-34-50.5-51-34T503-11 441 1.5t-50.5 34-34 50.5-12.5 62zm244 0q0 35-25 59.5T503 232q-17 0-32.5-6.5t-27-18-18-26.5-6.5-33 6.5-33.5 18-27 27-18T503 63q35 0 60 25t25 60zm108 0q0 33 12.5 62t34 50.5 50.5 34 62 12.5 62.5-12.5 51-34 34-50.5 12.5-62-12.5-62-34-50.5-51-34T855-11 793 1.5t-50.5 34-34 50.5-12.5 62zm244 0q0 35-25 59.5T855 232q-17 0-32.5-6.5t-27-18-18-26.5-6.5-33 6.5-33.5 18-27 27-18T855 63q35 0 60 25t25 60zM143-32L87 0l470 739 55-32z"/><glyph glyph-name="guilsinglleft" unicode="‹" horiz-adv-x="298" d="M248 69l-62-43L40 244l146 217 62-42-115-175z"/><glyph glyph-name="guilsinglright" unicode="›" horiz-adv-x="298" d="M50 419l62 42 146-218L112 26 51 69l115 174z"/><glyph glyph-name="fraction" unicode="⁄" horiz-adv-x="100" d="M-144-32l-66 33 434 739 64-33z"/><glyph glyph-name="Euro" unicode="€" horiz-adv-x="595" d="M527 613q-25 14-57.5 21.5T399 642q-37 0-69.5-11.5T270 598t-46.5-51.5T194 478h294l-23-71H180q-2-13-3-27.5t-1-29.5q0-11 .5-25t2.5-25h256l-23-71H190q7-36 25.5-65.5t46-51 62-33.5T398 67q39 0 72 8.5t62 27.5l35-76Q535 6 490.5-6T392-18q-65 0-115.5 20.5t-88 54.5-61 78.5T94 229H14l24 71h47q-1 11-1.5 24.5T83 350q0 14 .5 30t2.5 27H16l25 71h56q14 58 42.5 104t68 78 89.5 49 107 17q45 0 85.5-9t68.5-24l-31-80z"/><glyph glyph-name="afii61289" unicode="ℓ" horiz-adv-x="500" d="M428 44q-65-58-143-58-63 0-100.5 34.5T147 120v91l-58-57h-2l-33 48 92 85v253q0 42 11 75.5t30.5 57 46 36T291 721q55 0 88.5-36t33.5-99q0-75-44.5-152T236 272V134q0-24 6.5-39.5t16.5-25 22.5-13T306 53q43 0 88 38h2zm-89 536q0 35-14 57.5T290 660q-22 0-38-26t-16-79V350q51 59 77 118t26 112z"/><glyph glyph-name="trademark" unicode="™" horiz-adv-x="1000" d="M393 636H266V296h-81v340H56v72h337v-72zm544-340h-82v307h-2L734 296h-55L559 603h-2V296h-81v412h118l113-292 113 292h117V296z"/><glyph glyph-name="Omega" unicode="Ω" horiz-adv-x="752" d="M429 0v185q42 8 74 28t53.5 49.5 32.5 66 11 77.5q0 49-17 91.5T535 571t-73 49-91 18q-50 0-92.5-18t-73-49-48-74-17.5-92q0-83 43-143t126-77V0H46v77h190v62q-46 13-81.5 39.5T95 241t-36.5 79T46 410q0 68 25.5 125t70 98.5T245 698t125 23q67 0 125.5-22.5T598 635t69.5-98T693 412q0-48-12-91.5T645 241t-59.5-62.5T503 139V77h190V0H429z"/><glyph glyph-name="estimated" unicode="℮" horiz-adv-x="800" d="M595 402v193q-82 79-194 79t-191-79V402h385zm-385-47V115q76-78 192-78 83 0 144 37.5T658 196l46-28q-30-48-61.5-82T575 30.5t-78.5-32T402-12q-78 0-141 28.5T153 95 84 211.5 60 355t24 143.5 69 116T261 692t141 28q76 0 139.5-27T650 617.5 720 502t25-147H210z"/><glyph glyph-name="partialdiff" unicode="∂" horiz-adv-x="523" d="M481 360q0-59-9-124.5T437 115t-72.5-91T243-12q-48 0-86.5 18T91 54.5 49.5 126 35 213q0 45 14 84.5t40.5 69 64 46T238 429q46 0 85.5-19t70.5-51q0 10 .5 20t.5 21q0 39-8 83t-27 81.5-51 62-81 24.5q-35 0-62.5-13T112 604l-23.5 27.5L65 659q37 29 74 45.5t85 16.5q75 0 124.5-33t79-85.5T469 486t12-126zm-90-89q-23 42-60 66t-82 24q-33 0-57.5-12.5t-41-33.5-24.5-48.5-8-57.5q0-29 7.5-56.5T149 103t40-35.5T245 54q40 0 67.5 22t44.5 54.5 25 70.5 9 70z"/><glyph glyph-name="Delta" unicode="∆" horiz-adv-x="678" d="M11 0l276 712h95L667 0H11zm322 613L134 83h406z"/><glyph glyph-name="product" unicode="∏" horiz-adv-x="726" d="M570-214v917H157v-917H66V786h594V-214h-90z"/><glyph glyph-name="summation" unicode="∑" horiz-adv-x="626" d="M25-214v72l316 433L38 713v73h551v-83H157l292-412-311-423h463v-82H25z"/><glyph glyph-name="minus" unicode="−" horiz-adv-x="666" d="M596 262H70v82h526v-82z"/><glyph glyph-name="uni2215" unicode="∕" horiz-adv-x="100" d="M-144-32l-66 33 434 739 64-33z"/><glyph glyph-name="uni2219" unicode="∙" horiz-adv-x="260" d="M198 303q0-26-19-46t-48-20-48.5 19.5T63 302q0 27 19.5 47t48.5 20q28 0 47.5-19.5T198 303z"/><glyph glyph-name="radical" unicode="√" horiz-adv-x="515" d="M315-214h-86L71 114 23 91l-33 70 124 58L258-83l178 869h90z"/><glyph glyph-name="infinity" unicode="∞" horiz-adv-x="778" d="M681 260q0 37-21 63t-61 26q-20 0-40-9t-38.5-22.5-35-29.5L456 259l31.5-29 34.5-27 38-20 42-8q38 0 58.5 24.5T681 260zm-320-1l-31 28.5-36 29-39.5 22.5-40.5 9q-37 0-57.5-26.5T136 260q0-38 22-61.5t60-23.5q19 0 39 8t39 20.5 35.5 27.5 29.5 28zm393 4q0-36-11-68t-31.5-55.5-50.5-37T593 89q-30 0-55.5 9t-48 23.5-42.5 34-39 40.5l-39.5-40-41-34L281 98.5 225 90q-38 0-68.5 13T105 139t-32.5 54.5T61 262q0 36 11 67t31.5 54 50 36.5T221 433q31 0 57-9.5t48.5-25.5 42.5-36.5 39-42.5q18 22 38 42.5t42.5 36.5 48.5 26 57 10q37 0 66.5-13.5T711 384t32-54 11-67z"/><glyph glyph-name="integral" unicode="∫" horiz-adv-x="574" d="M442 723q0-19-12.5-30.5T398 681q-18 0-27 8.5t-14 19l-9 19-13 8.5-14.5-8.5-8-21-3-28-.5-28.5q0-26 1-49t1-37V-4q0-35-4.5-72T288-143.5t-40-50-69-19.5q-13 0-27.5 3t-27 10-20.5 18.5-8 28.5 12.5 29 29.5 12q18 0 26.5-8.5T178-139l9-18.5 12-8.5q9 0 14.5 10.5t7.5 25 2.5 29.5.5 24q0 20-1 37t-1 28q0 3 .5 6t.5 6v499q0 17-.5 36t-.5 39q0 37 4 74.5t17.5 68 39.5 50 71 19.5q12 0 27-3.5t28.5-11 23-19.5 9.5-29z"/><glyph glyph-name="approxequal" unicode="≈" horiz-adv-x="666" d="M599 440q-3-30-12-57.5T561.5 333t-41-35-58.5-13q-31 0-67.5 11T322 321l-68.5 24-56.5 11q-31 0-48.5-23.5T126 282H67q3 29 12.5 57t25.5 50 40.5 35.5T203 438q32 0 66.5-10.5T339 403q35-13 69-24t63-11q32 0 48.5 21.5T541 440h58zm0-200q-3-30-12-57.5T561.5 133t-41-35T462 85q-31 0-67.5 11T322 121l-68.5 24-56.5 11q-31 0-48.5-23.5T126 82H67q3 29 12.5 57t25.5 50 40.5 35.5T203 238q32 0 66.5-10.5T339 203q35-13 69-24t63-11q32 0 48.5 21.5T541 240h58z"/><glyph glyph-name="notequal" unicode="≠" horiz-adv-x="666" d="M266 108L189-41 116-3l58 111H40v84h177l63 123H40v84h284l77 149 74-37-59-112h136v-84H373l-64-123h243v-84H266z"/><glyph glyph-name="lessequal" unicode="≤" horiz-adv-x="666" d="M77 309v86l512 183v-89L192 352l397-134v-88zM77 8v84h512V8H77z"/><glyph glyph-name="greaterequal" unicode="≥" horiz-adv-x="666" d="M77 130v88l397 134L77 489v89l512-183v-86zM77 8v84h512V8H77z"/><glyph glyph-name="lozenge" unicode="◊" horiz-adv-x="593" d="M337-35h-82L82 356l173 391h82l174-391zm-41 696L169 356 296 51l128 305z"/><glyph glyph-name="dotlessj" unicode="" horiz-adv-x="260" d="M-21-154q20-5 38-5 21 0 34 8t20 21.5 9.5 32T83-58v532h94V-61q0-36-6.5-68T147-186t-47-39.5T23-240q-13 0-28 2t-26 4z"/><glyph glyph-name="commaaccent" unicode="" d="M124-235H45l64 190h93z"/><glyph glyph-name="uniF8FF" unicode="" horiz-adv-x="876" d="M484 664q24 29 55 43.5t52 14.5q0-67-46-119t-110-52q0 31 14 61 8 17 35 52zm194-427q19-29 44.5-51.5T766 158l-9-25-8-19q-23-50-48-78-40-44-58-57-26-17-60-17-29 0-69 17-38 16-59 16-19 0-75-22-30-11-48-11-49 0-103 58-22 23-44 56-41 60-61 115.5T104 319q0 88 54 159 58 76 146 76 42 0 71-12 63-26 78-26 27 0 57 12 66 26 90 26 58 0 90-23 15-12 60-64-42-19-67-59.5T658 321q0-55 20-84z"/><glyph glyph-name="thorn.sc" horiz-adv-x="505" d="M84 536h96v-95h92q101 0 149-39t48-113q0-72-53-115t-150-43h-86V0H84v536zm96-327h80q60 0 85.5 21t25.5 59q0 36-24 54t-84 18h-83V209z"/><glyph glyph-name="cent.sc" horiz-adv-x="504" d="M274 403q-60-11-91.5-57.5T151 237t32-108 91-58v332zm51-333q32 1 58.5 16t43.5 37l64-60q-32-37-76-55t-90-20v-66h-51v67q-50 5-90 26t-68 54-43 76-15 93 15 92.5 43 75 68 53 90 26.5v65h51v-64q47-2 90.5-19.5T491 411l-66-60q-17 22-42.5 36.5T325 404V70z"/><glyph glyph-name="ordfeminine.sc" horiz-adv-x="380" d="M157 724h69l126-293h-80l-25 62H133l-24-62H30zm70-180l-37 96-38-96h75z"/><glyph glyph-name="florin.sc" horiz-adv-x="504" d="M377 270h-92L241 46q-14-68-49.5-100T95-86q-23 0-42.5 6T18-65L48 6q8-6 20-9.5T91-7q22 0 37.5 15T152 61l39 209h-79v70h91l13 73q11 65 43.5 101t89.5 36q26 0 50-7t42-22l-41-69q-12 9-22.5 12.5T354 468q-16 0-28-13t-17-45l-12-70h80v-70z"/><glyph glyph-name="questiondown.sc" horiz-adv-x="440" d="M177 363h92v-26q0-27-9-50.5T231 245l-24-21q-30-26-42.5-45.5T152 134q0-23 15.5-43.5T219 70q29 0 48 17.5t25 53.5l93-12q-11-70-56.5-106.5T213-14q-42 0-72 12.5t-49.5 33-28.5 47-9 54.5q0 35 16.5 66.5T124 260q32 26 42.5 42.5T177 342v21zm-22 115q0 27 18 45.5t47 18.5q28 0 47-18t19-45q0-26-18.5-45T220 415q-28 0-46.5 18.5T155 478z"/><glyph glyph-name="ampersand.sc" horiz-adv-x="619" d="M465 127L590 0H463l-52 55q-28-33-67-51t-93-18q-35 0-68 9.5t-58 29-40 49T70 142q0 56 32 94.5t79 61.5q-26 30-39.5 57.5T128 415q0 31 12 56.5t32.5 42.5 47.5 26.5 57 9.5 56.5-9 46.5-25.5 31.5-40.5 11.5-55q0-25-8.5-46T391 336t-35-31-43-26l91-93 56 98h105zM334 419q0 25-16 39t-40 14q-26 0-42-16.5T220 414q0-36 42-81 40 18 56 40.5t16 45.5zM233 239q-67-28-67-96 0-35 23.5-57T250 64q35 0 60 14t42 37z"/><glyph glyph-name="percent.sc" horiz-adv-x="706" d="M45 412q0 30 11 54.5t29.5 42 44 26.5 55.5 9q61 0 101-35.5t40-96.5q0-30-10.5-54.5t-29.5-42-45-27.5-56-10-55.5 10-44 27.5-29.5 42T45 412zm81 0q0-29 16.5-46t42.5-17q27 0 43.5 17t16.5 46q0 28-16 45t-44 17q-26 0-42.5-17T126 412zm258-290q0 30 11 54.5t29.5 42 44 26.5 55.5 9q61 0 101-35.5t40-96.5q0-30-10.5-54.5t-29.5-42T580-2t-56-10-55.5 10-44 27.5-29.5 42-11 54.5zm81 0q0-29 16.5-46T524 59q27 0 43.5 17t16.5 46q0 28-16 45t-44 17q-26 0-42.5-17T465 122zM223-30L159 6l328 559 63-37z"/><glyph glyph-name="dollar.sc" horiz-adv-x="504" d="M229 242q-37 11-65.5 24t-48 30.5-29.5 41T76 392q0 63 41.5 101T229 536v61h48v-61q42-2 76.5-16.5T420 478l-60-62q-20 22-40 32t-43 12V311q84-24 120.5-63.5T434 151q0-32-11-58.5t-31-47T342.5 13 277 0v-63h-48V0q-50 2-93.5 21T60 77l34 30 34 30q22-30 49.5-45T229 76v166zm48-166q31 3 49 21.5t18 49.5q0 57-67 82V76zm-48 384q-29-2-46.5-19T165 396q0-29 16-45t48-26v135z"/><glyph glyph-name="exclam.sc" horiz-adv-x="320" d="M208 173h-96v363h96V173zm18-114q0-26-19-45.5T160-6q-27 0-46.5 19T94 58t19 45.5 47 19.5 47-19 19-45z"/><glyph glyph-name="zero.sc" horiz-adv-x="504" d="M252 548q49 0 85.5-21.5t60.5-59 36-89T446 267t-12-111.5-36-89-60.5-59T252-14q-50 0-86.5 21.5t-60.5 59-35.5 89T58 267t11.5 111.5 35.5 89 60.5 59T252 548zm0-86q-26 0-44-16.5T178.5 402t-17-62-5.5-73 5.5-73.5 17-62.5T208 88t44-16 44 16 29.5 43 17 62.5T348 267t-5.5 73-17 62-30 43.5T252 462z"/><glyph glyph-name="one.sc" horiz-adv-x="504" d="M333 0h-95v417l-92-79-56 65 161 133h82V0z"/><glyph glyph-name="two.sc" horiz-adv-x="504" d="M429 0H73v83l196 195q58 58 58 115 0 30-20 52.5T251 468q-34 0-56.5-21.5T164 384l-91 16q11 68 59 109t119 41q36 0 67.5-9.5t55-29 37-48.5 13.5-67q0-46-23-88.5T335 223L188 81h241V0z"/><glyph glyph-name="three.sc" horiz-adv-x="504" d="M188 318h36q20 0 38.5 4t32.5 13 22 24 8 37q0 32-23.5 52.5T246 469q-26 0-48.5-15.5T163 405l-85 31q22 55 66.5 84.5T249 550q35 0 66-9.5t54-28.5 36.5-47 13.5-64q0-42-22.5-73T332 282v-1q47-12 73.5-46t26.5-81q0-41-15.5-72.5t-41-52.5T317-3t-69-11q-65 0-113.5 30T60 114l88 30q28-76 99-76 17 0 33.5 5.5t29 16T330 116t8 38q0 46-33.5 66.5T223 241h-35v77z"/><glyph glyph-name="four.sc" horiz-adv-x="504" d="M384 194h73v-80h-73V0h-92v114H53v77l215 345h116V194zm-92 234h-3L153 194h139v234z"/><glyph glyph-name="five.sc" horiz-adv-x="504" d="M410 456H198l-4-116q27 8 55 8 41 0 75-12t58.5-34.5 38-55T434 174q0-41-14.5-75.5t-40-59.5-62-39T238-14q-63 0-110.5 29.5T57 104l83 37q14-41 41-57.5T239 67q45 0 72.5 28t27.5 74q0 27-8.5 46.5t-23.5 32-34.5 18.5-41.5 6q-29 0-63.5-10.5T101 234l8 302h301v-80z"/><glyph glyph-name="six.sc" horiz-adv-x="504" d="M158 165q0-45 27.5-72T254 66q42 0 68.5 28t26.5 72q0 42-25.5 70T254 264q-42 0-69-28t-27-71zm64 162q12 5 26.5 8t25.5 3q36 0 67.5-12t54-33.5 35.5-53 13-70.5q0-41-14.5-74.5t-40-57.5T329-.5 254-14q-41 0-76 13t-60.5 36.5-40 56.5T63 164q0 43 17 85t43 84l127 203h112L221 328z"/><glyph glyph-name="seven.sc" horiz-adv-x="504" d="M426 460L215 0H106l219 451H72v85h354v-76z"/><glyph glyph-name="eight.sc" horiz-adv-x="504" d="M419 401q0-38-21-70t-59-47v-2q47-16 73.5-50t26.5-82q0-39-14.5-69.5t-40-51.5T325-3t-73-11-73.5 11-60 32-40 51.5T64 150q0 48 26 82t71 50v2q-35 14-56 45t-21 70q0 34 13 62t36 48 53.5 30.5T252 550q34 0 64.5-10t53.5-29.5 36-47 13-62.5zM160 153q0-40 25.5-64T252 65q40 0 65.5 24t25.5 64q0 39-26 65t-65 26q-40 0-66-26t-26-65zm16 241q0-34 22-54t54-20q30 0 52.5 20t22.5 54q0 35-22 56t-53 21q-32 0-54-21t-22-56z"/><glyph glyph-name="nine.sc" horiz-adv-x="504" d="M348 374q0 45-28 70.5T251 470q-42 0-68-26.5T157 373q0-42 25.5-70t69.5-28q42 0 69 28t27 71zm-64-162q-12-5-26.5-8t-25.5-3q-36 0-67.5 12t-54 33.5-35.5 53T62 370q0 41 14.5 74t39.5 56.5 59.5 36.5 75.5 13 76-13 60.5-36.5 40-56.5 14.5-72q0-43-17-85t-43-84L255 0H143l142 211z"/><glyph glyph-name="zero.onum" horiz-adv-x="697" d="M637 270q0-62-22-114t-61-89.5T462 8 347-13q-61 0-113.5 21t-91 58.5T82 156 60 270q0 63 22 114.5t60.5 88.5 91 57T347 550q62 0 115-20t92-57 61-88.5T637 270zm-103 0q0 42-13 77.5T483.5 409t-59 41-77.5 15q-42 0-76-15t-58-41-37-61.5-13-77.5 13-78.5 37-63T271 87t76-15q43 0 77.5 15t59 41.5 37.5 63 13 78.5z"/><glyph glyph-name="one.onum" horiz-adv-x="400" d="M280 0h-95v417l-92-79-56 65 161 133h82V0z"/><glyph glyph-name="two.onum" horiz-adv-x="540" d="M479 0H68v85l57 38 110 74.5 78.5 61L361 314l16 59q0 42-28 68.5T263 468q-43 0-78-22t-57-61l-71 50q33 54 88 84.5T265 550q99 0 153.5-46T473 376q0-43-19-78.5t-50.5-67-73-60L245 113l-42-27v-3h276V0z"/><glyph glyph-name="three.onum" horiz-adv-x="550" d="M456 449q-18-17-45.5-40L353 361.5 292.5 314 238 274v-4q12 3 32 3 47 0 86-15t67.5-41.5T468 154t16-78q0-58-21.5-104T403-105.5t-91.5-48T194-170q-28 0-56.5 2T86-161l14 84q20-5 44-7.5t47-2.5q94 0 144.5 41T386 70q0 58-40.5 95.5T219 203q-26 0-52-4.5T117 188l-19 71 62.5 47 68 53 63 51 47.5 41v4H76v81h380v-87z"/><glyph glyph-name="four.onum" horiz-adv-x="586" d="M135 89h217v236h92V89h112V6H444v-176h-92V6H40v86l270 458h101z"/><glyph glyph-name="five.onum" horiz-adv-x="544" d="M208 214q-29 0-62-5t-59-13l40 340h350v-86H206l-23-165q28 6 61 6 48 0 89.5-14.5t71.5-42 47.5-67T470 78q0-61-20.5-107t-57-77.5-88-47.5T192-170q-27 0-58 2t-54 7l13 84q41-11 91-11 95 0 142.5 41T374 74q0 36-12.5 62t-35 43.5-53 26T208 214z"/><glyph glyph-name="six.onum" horiz-adv-x="609" d="M158 213q0-31 10.5-58.5t30-47.5T245 75t60-12 59.5 11 46 31.5 30 48T451 214q0 32-10.5 59t-29 47-45.5 31-60 11-60.5-11-47-31-30-47-10.5-60zm291 449q-34-25-68-55t-65.5-62.5-58-67T212 410l3-2q19 15 48.5 23t64.5 8q46 0 86.5-16.5t70.5-46 47-70.5 17-89q0-53-18.5-96.5T479 46 401.5-2 305-19q-53 0-98 17t-77.5 48.5-51 77.5T60 227q0 60 26.5 126T157 484.5t100.5 125T373 715z"/><glyph glyph-name="seven.onum" horiz-adv-x="530" d="M480 448l-80.5-164-78-168L251-44l-58-139-98 26 65.5 145.5L238 154l77.5 162L382 450H44v86h436v-88z"/><glyph glyph-name="eight.onum" horiz-adv-x="595" d="M401 373q28-7 52.5-23.5T496 310t28.5-53 10.5-64q0-50-19-89t-51.5-66T389-3.5 298-18 206.5-3.5t-76 41.5T79 104t-19 89q0 35 10.5 65t29 53 43 38.5T194 373v2q-48 17-78.5 58T85 533q0 44 17 79.5t46 61 67.5 39T298 726q43 0 82-13.5t67.5-38 45.5-60 17-79.5q0-58-30.5-101T401 375v-2zM182 530q0-24 8.5-45t24-36.5 37-24.5 46.5-9q24 0 45 9t37 24.5 25 36.5 9 45q0 25-9.5 46.5t-25 37-36.5 24-45 8.5q-25 0-46.5-8.5t-37-24-24-37T182 530zm-23-332q0-30 10-55t28.5-42.5 44-27.5T298 63q30 0 55.5 10t43.5 27.5 28.5 42.5 10.5 55q0 29-10.5 53.5T397 294t-43.5 28-55.5 10-55.5-10-44-28-29-42.5T159 198z"/><glyph glyph-name="nine.onum" horiz-adv-x="609" d="M451 318q0 31-10.5 58.5t-30 47.5-46.5 32-60 12-59.5-11-46-31.5-30-48T158 317q0-32 10.5-59t29-47 45.5-31 60-11 60.5 11 47 31 30 47 10.5 60zM160-131q34 25 68 55t65.5 62.5 58 67T397 121l-3 2q-19-15-48.5-23T281 92q-47 0-87 16.5t-70 46T77 225t-17 89q0 53 18.5 96.5T130 485t77.5 48 96.5 17q53 0 98-17t77.5-48.5 51-77.5T549 304q0-60-26.5-126T452 46.5t-100.5-125T236-184z"/><glyph glyph-name="Euro.sc" horiz-adv-x="504" d="M437 443q-43 25-97 25-48 0-85.5-26.5T202 364h211l-21-66H191q-3-18-3-36 0-7 .5-15.5T190 232h184l-22-67H203q12-46 49-72t82-26q26 0 51 7t49 23l34-73q-57-38-136-38-87 0-146 49t-76 130H40l23 67h36q-1 7-1 16v16q0 9 .5 19t1.5 15H43l23 66h44q23 88 85 137t148 49q35 0 67-8t58-21z"/><glyph glyph-name="sterling.sc" horiz-adv-x="504" d="M355 237H241V81h187V0H81v81h65v156H84v70h62v61q0 37 12 70t34.5 57.5T248 534t76 14q42 0 73-12t57-35l-57-64q-18 19-36.5 25.5T322 469q-35 0-58-26t-23-80v-56h114v-70z"/><glyph glyph-name="yen.sc" horiz-adv-x="504" d="M205 168v60H86v64h99L24 536h108l124-208 120 208h103L322 292h96v-64H298v-60h120v-64H298V0h-93v104H86v64h119z"/><glyph glyph-name="perthousand.sc" horiz-adv-x="1020" d="M45 412q0 30 11 54.5t29.5 42 44 26.5 55.5 9q61 0 101-35.5t40-96.5q0-30-10.5-54.5t-29.5-42-45-27.5-56-10-55.5 10-44 27.5-29.5 42T45 412zm81 0q0-29 16.5-46t42.5-17q27 0 43.5 17t16.5 46q0 28-16 45t-44 17q-26 0-42.5-17T126 412zm259-290q0 30 11 54.5t29.5 42 44 26.5 55.5 9q61 0 101-35.5t40-96.5q0-30-10.5-54.5t-29.5-42T581-2t-56-10-55.5 10-44 27.5-29.5 42-11 54.5zm81 0q0-29 16.5-46T525 59q27 0 43.5 17t16.5 46q0 28-16 45t-44 17q-26 0-42.5-17T466 122zm234 0q0 30 11 54.5t29.5 42 44 26.5 55.5 9q61 0 101-35.5t40-96.5q0-30-10.5-54.5t-29.5-42T896-2t-56-10-55.5 10-44 27.5-29.5 42-11 54.5zm81 0q0-29 16.5-46T840 59q27 0 43.5 17t16.5 46q0 28-16 45t-44 17q-26 0-42.5-17T781 122zM223-30L159 6l328 559 63-37z"/><glyph glyph-name="question.sc" horiz-adv-x="440" d="M263 173h-92v26q0 27 9 50.5t29 41.5l24 21q30 26 42.5 45.5T288 402q0 23-15.5 43.5T221 466q-29 0-48-17.5T148 395l-93 12q11 70 56.5 106.5T227 550q42 0 72-12.5t49.5-33 28.5-47 9-54.5q0-35-16.5-66.5T316 276q-32-26-42.5-42.5T263 194v-21zm22-115q0-27-18-45.5T220-6q-28 0-47 18t-19 45q0 26 18.5 45t47.5 19q28 0 46.5-18.5T285 58z"/><glyph glyph-name="exclamdown.sc" horiz-adv-x="320" d="M112 0v363h96V0h-96zm114 477q0-26-19-45t-47-19-47 19.5T94 478t19.5 45 46.5 19q28 0 47-19.5t19-45.5z"/><glyph glyph-name="a.sc" horiz-adv-x="550" d="M104 0H3l228 536h89L547 0H443l-50 124H155zm80 201h179l-89 225z"/><glyph glyph-name="b.sc" horiz-adv-x="539" d="M84 536h199q33 0 63.5-7.5t54.5-24 38-42.5 14-64q0-42-21-71t-56-44v-2q46-11 73.5-43t27.5-83q0-41-17-70.5T414.5 36 349 8.5 271 0H84v536zm94-221h89q39 0 64.5 18.5T357 389q0 67-97 67h-82V315zm0-234h90q46 0 79 18t33 62q0 77-104 77h-98V81z"/><glyph glyph-name="c.sc" horiz-adv-x="566" d="M548 87q-38-47-88-74T335-14q-63 0-115 20.5T130.5 64t-58 89T52 269q0 63 22 115t60.5 88.5 91.5 57T341 550q60 0 112.5-22.5T538 463l-75-59q-21 30-54 45.5T339 465q-42 0-76-15t-58-41.5-37-62-13-77.5q0-41 14-77t38-63 57-42.5T335 71q42 0 76.5 16.5T472 140z"/><glyph glyph-name="d.sc" horiz-adv-x="619" d="M84 536h193q54 0 106-14.5t93-46.5 66-82.5T567 269q0-69-25.5-120T475 65t-93.5-49T275 0H84v536zm96-455h80q44 0 81.5 12t65 36 43 59 15.5 81q0 50-16 85.5t-43.5 58-65 33T260 456h-80V81z"/><glyph glyph-name="e.sc" horiz-adv-x="507" d="M179 81h273V0H84v536h356v-80H179V315h247v-77H179V81z"/><glyph glyph-name="f.sc" horiz-adv-x="476" d="M180 0H84v536h347v-80H180V306h236v-78H180V0z"/><glyph glyph-name="g.sc" horiz-adv-x="625" d="M477 409q-23 26-58.5 41T340 465t-77-15-58-41.5-37-62.5-13-77 13.5-77 38-63T266 86.5 344 71q63 0 108 21v132H339v78h209V34q-43-23-94.5-35.5T342-14q-64 0-117.5 21T133 65.5 73.5 155 52 269q0 63 22 115t60 88.5 90.5 57T339 550q65 0 117.5-20t87.5-52z"/><glyph glyph-name="h.sc" horiz-adv-x="607" d="M84 536h96V316h247v220h96V0h-96v237H180V0H84v536z"/><glyph glyph-name="i.sc" horiz-adv-x="264" d="M180 0H84v536h96V0z"/><glyph glyph-name="j.sc" horiz-adv-x="407" d="M105 138q10-36 28-51t38-15q31 0 46.5 23.5T233 171v365h96V169q0-34-8-67t-26.5-58.5T246 2t-75-16q-31 0-56.5 9.5T69 22 35 62t-20 50z"/><glyph glyph-name="k.sc" horiz-adv-x="543" d="M180 307h2l219 229h128L278 289 543 0H412L182 265h-2V0H84v536h96V307z"/><glyph glyph-name="l.sc" horiz-adv-x="420" d="M180 81h230V0H84v536h96V81z"/><glyph glyph-name="m.sc" horiz-adv-x="737" d="M371 153h2l142 383h138V0h-94v409h-2L400 0h-64L180 409h-2V0H84v536h142z"/><glyph glyph-name="n.sc" horiz-adv-x="618" d="M439 130h2v406h93V0H420L179 404h-2V0H84v536h116z"/><glyph glyph-name="o.sc" horiz-adv-x="681" d="M629 269q0-62-22-114t-61-89.5T454 7 339-14q-61 0-113.5 21t-91 58.5T74 155 52 269q0 63 22 115t60.5 88.5 91 57T339 550q62 0 115-20.5t92-57 61-88.5 22-115zm-103 0q0 42-13 77.5t-37.5 62-59 41.5-77.5 15q-42 0-76-15t-58-41.5-37-62-13-77.5 13-78.5 37-63T263 86t76-15q43 0 77.5 15t59 41.5 37.5 63 13 78.5z"/><glyph glyph-name="p.sc" horiz-adv-x="505" d="M84 536h186q93 0 146-42.5T469 372q0-82-55-125.5T267 203h-87V0H84v536zm96-255h81q51 0 81.5 22t30.5 67q0 42-28 64t-80 22h-85V281z"/><glyph glyph-name="q.sc" horiz-adv-x="687" d="M653 0H335q-63 0-115 19t-89.5 54.5-58 86.5T52 275q0 60 21.5 110.5t59.5 87 89.5 57T335 550t112.5-19.5 89-55 59-85.5T617 279q0-66-25.5-114.5T523 84v-3h130V0zM155 275q0-42 13-77.5t37-61.5 57-40.5T335 81t73.5 14.5T466 136t37 61.5 13 77.5q0 40-13 75t-37 60.5-57.5 40.5-73.5 15q-39 0-72-15t-57-40.5-37.5-60.5-13.5-75z"/><glyph glyph-name="r.sc" horiz-adv-x="525" d="M180 0H84v536h191q40 0 75.5-7.5T413 504t42.5-46 15.5-71q0-59-32.5-96T354 240L493 0H382L257 226h-77V0zm0 304h83q22 0 42 4t35.5 13.5T365 346t9 38q0 21-8.5 35t-23 22.5T309 453t-40 3h-89V304z"/><glyph glyph-name="s.sc" horiz-adv-x="465" d="M347 419q-17 22-45 35.5T242 468q-36 0-61.5-18.5T155 396q0-18 6.5-30.5t19-21.5 30.5-16.5 41-14.5q28-9 56.5-21t51-30 36.5-44.5 14-64.5q0-43-15-74.5t-41-52T294-4t-73-10q-57 0-106.5 22T34 69l66 61q24-32 58-46t65-14q38 0 65.5 17.5T316 141q0 40-30.5 60T199 238q-26 8-51 19t-44.5 28T72 327t-12 62q0 41 16 71.5t42.5 50.5 60.5 29.5 69 9.5q50 0 91-18t69-49z"/><glyph glyph-name="t.sc" horiz-adv-x="442" d="M268 0h-96v456H8v80h426v-80H268V0z"/><glyph glyph-name="u.sc" horiz-adv-x="595" d="M297-14q-52 0-93 16.5t-69 45T92.5 115 78 200v336h96V207q0-27 6.5-51t21-43 38-30T297 72t57.5 11 38.5 30 21.5 43 6.5 51v329h96V200q0-46-15-85t-43-67.5-69-45T297-14z"/><glyph glyph-name="v.sc" horiz-adv-x="504" d="M252 126h3l150 410h101L294 0h-86L-2 536h104z"/><glyph glyph-name="w.sc" horiz-adv-x="796" d="M111 536l115-409h2l118 409h104l121-409h2l115 409h102L625 0H522L399 402h-2L275 0H172L6 536h105z"/><glyph glyph-name="x.sc" horiz-adv-x="508" d="M255 351l116 185h111L311 283 506 0H387L252 210 117 0H2l192 283L22 536h115z"/><glyph glyph-name="y.sc" horiz-adv-x="473" d="M284 0h-96v216L-6 536h108l137-243 137 243h103L284 216V0z"/><glyph glyph-name="z.sc" horiz-adv-x="496" d="M446 456L165 81h285V0H46v79l282 377H50v80h396v-80z"/><glyph glyph-name="aacute.sc" horiz-adv-x="550" d="M104 0H3l228 536h89L547 0H443l-50 124H155zm80 201h179l-89 225zm127 393h-77l100 144h113z"/><glyph glyph-name="acircumflex.sc" horiz-adv-x="550" d="M104 0H3l228 536h89L547 0H443l-50 124H155zm80 201h179l-89 225zm256 393h-91l-75 99-76-99h-90l112 144h108z"/><glyph glyph-name="adieresis.sc" horiz-adv-x="550" d="M104 0H3l228 536h89L547 0H443l-50 124H155zm80 201h179l-89 225zm-68 474q0 24 17.5 42.5T178 736q26 0 44-17.5t18-43.5q0-25-18-42.5T178 615q-27 0-44.5 18.5T116 675zm194 0q0 24 17.5 42.5T372 736q26 0 44-17.5t18-43.5q0-25-18-42.5T372 615q-27 0-44.5 18.5T310 675z"/><glyph glyph-name="aring.sc" horiz-adv-x="550" d="M104 0H3l228 536h89L547 0H443l-50 124H155zm80 201h179l-89 225zm192 482q0-43-29.5-71T275 584q-21 0-39 7.5T204.5 612 183 643t-8 39q0 43 29 71t71 28 71.5-28 29.5-70zm-42 0q0 24-17.5 40T275 739q-23 0-40.5-16T217 683t17.5-40.5T275 626q24 0 41.5 16t17.5 41z"/><glyph glyph-name="amacron.sc" horiz-adv-x="550" d="M104 0H3l228 536h89L547 0H443l-50 124H155zm80 201h179l-89 225zm238 426H126v67h296v-67z"/><glyph glyph-name="ae.sc" horiz-adv-x="840" d="M513 81h272V0H417v134H202L119 0H4l345 536h424v-80H513V315h246v-77H513V81zM250 211h167v251h-10z"/><glyph glyph-name="agrave.sc" horiz-adv-x="550" d="M104 0H3l228 536h89L547 0H443l-50 124H155zm80 201h179l-89 225zm-78 537h113l100-144h-77z"/><glyph glyph-name="atilde.sc" horiz-adv-x="550" d="M104 0H3l228 536h89L547 0H443l-50 124H155zm80 201h179l-89 225zm-82 401q4 22 10.5 42.5t18.5 37 29.5 26.5 43.5 10q19 0 38.5-6t36.5-14q20-9 36.5-15.5T346 676q22 0 32.5 14.5T394 722h54q-4-22-10.5-42.5t-18.5-37-30-26.5-43-10q-19 0-39 6.5T269 627q-18 9-34.5 15t-30.5 6q-21 0-31.5-14.5T157 602h-55z"/><glyph glyph-name="aogonek.sc" horiz-adv-x="550" d="M540-195q-20-17-44.5-27T445-232q-19 0-36.5 6t-31 17-21.5 27.5-8 36.5q0 21 9 42t23 39.5 30.5 35T443 0l-50 124H155L104 0H3l228 536h89L547 0h-50q-15-14-29-29.5T442.5-61 424-93t-7-32q0-20 14-33.5t34-13.5q14 0 28 6t25 16zM184 201h179l-89 225z"/><glyph glyph-name="abreve.sc" horiz-adv-x="550" d="M104 0H3l228 536h89L547 0H443l-50 124H155zm80 201h179l-89 225zm249 537q-6-69-49.5-103.5T274 600q-67 0-110.5 34.5T115 738h56q7-38 36-55t67-17q41 0 68 15.5t36 56.5h55z"/><glyph glyph-name="cacute.sc" horiz-adv-x="566" d="M548 87q-38-47-88-74T335-14q-63 0-115 20.5T130.5 64t-58 89T52 269q0 63 22 115t60.5 88.5 91.5 57T341 550q60 0 112.5-22.5T538 463l-75-59q-21 30-54 45.5T339 465q-42 0-76-15t-58-41.5-37-62-13-77.5q0-41 14-77t38-63 57-42.5T335 71q42 0 76.5 16.5T472 140zM339 594h-77l100 144h113z"/><glyph glyph-name="ccaron.sc" horiz-adv-x="566" d="M548 87q-38-47-88-74T335-14q-63 0-115 20.5T130.5 64t-58 89T52 269q0 63 22 115t60.5 88.5 91.5 57T341 550q60 0 112.5-22.5T538 463l-75-59q-21 30-54 45.5T339 465q-42 0-76-15t-58-41.5-37-62-13-77.5q0-41 14-77t38-63 57-42.5T335 71q42 0 76.5 16.5T472 140zM393 594H286L175 738h90l76-99 76 99h88z"/><glyph glyph-name="cdotaccent.sc" horiz-adv-x="566" d="M548 87q-38-47-88-74T335-14q-63 0-115 20.5T130.5 64t-58 89T52 269q0 63 22 115t60.5 88.5 91.5 57T341 550q60 0 112.5-22.5T538 463l-75-59q-21 30-54 45.5T339 465q-42 0-76-15t-58-41.5-37-62-13-77.5q0-41 14-77t38-63 57-42.5T335 71q42 0 76.5 16.5T472 140zM402 675q0-26-18.5-43T339 615t-44 17.5-18 42.5q0 26 18 43.5t44 17.5 44.5-17.5T402 675z"/><glyph glyph-name="ccedilla.sc" horiz-adv-x="566" d="M548 87q-36-44-81-70T356-13l-37-56q7 2 13 2h14q17 0 33.5-4t30-13 22-24 8.5-37q0-26-12-43.5t-30.5-28-41-14.5-43.5-4q-26 0-54 6t-49 17l20 42q37-17 77-17 8 0 18.5 2t20 6.5 16 12.5 6.5 21q0 22-17 30t-37 8q-9 0-20-2t-21-5l-20 20 53 82q-57 4-104 26t-80 58.5T70.5 159 52 269q0 63 22 115t60.5 88.5 91.5 57T341 550q60 0 112.5-22.5T538 463l-75-59q-21 30-54 45.5T339 465q-42 0-76-15t-58-41.5-37-62-13-77.5q0-41 14-77t38-63 57-42.5T335 71q42 0 76.5 16.5T472 140z"/><glyph glyph-name="ccircumflex.sc" horiz-adv-x="566" d="M548 87q-38-47-88-74T335-14q-63 0-115 20.5T130.5 64t-58 89T52 269q0 63 22 115t60.5 88.5 91.5 57T341 550q60 0 112.5-22.5T538 463l-75-59q-21 30-54 45.5T339 465q-42 0-76-15t-58-41.5-37-62-13-77.5q0-41 14-77t38-63 57-42.5T335 71q42 0 76.5 16.5T472 140zm-42 507h-91l-75 99-76-99h-90l112 144h108z"/><glyph glyph-name="dcaron.sc" horiz-adv-x="619" d="M84 536h193q54 0 106-14.5t93-46.5 66-82.5T567 269q0-69-25.5-120T475 65t-93.5-49T275 0H84v536zm96-455h80q44 0 81.5 12t65 36 43 59 15.5 81q0 50-16 85.5t-43.5 58-65 33T260 456h-80V81zm173 513H246L135 738h90l76-99 76 99h88z"/><glyph glyph-name="dcroat.sc" horiz-adv-x="619" d="M84 244H15v70h69v222h193q54 0 106-14.5t93-46.5 66-82.5T567 269q0-69-25.5-120T475 65t-93.5-49T275 0H84v244zm96 70h131v-70H180V81h80q44 0 81.5 12t65 36 43 59 15.5 81q0 50-16 85.5t-43.5 58-65 33T260 456h-80V314z"/><glyph glyph-name="egrave.sc" horiz-adv-x="507" d="M179 81h273V0H84v536h356v-80H179V315h247v-77H179V81zm-73 657h113l100-144h-77z"/><glyph glyph-name="ecircumflex.sc" horiz-adv-x="507" d="M179 81h273V0H84v536h356v-80H179V315h247v-77H179V81zm249 513h-91l-75 99-76-99H96l112 144h108z"/><glyph glyph-name="ecaron.sc" horiz-adv-x="507" d="M179 81h273V0H84v536h356v-80H179V315h247v-77H179V81zm137 513H209L98 738h90l76-99 76 99h88z"/><glyph glyph-name="edieresis.sc" horiz-adv-x="507" d="M179 81h273V0H84v536h356v-80H179V315h247v-77H179V81zm-76 594q0 24 17.5 42.5T165 736q26 0 44-17.5t18-43.5q0-25-18-42.5T165 615q-27 0-44.5 18.5T103 675zm194 0q0 24 17.5 42.5T359 736q26 0 44-17.5t18-43.5q0-25-18-42.5T359 615q-27 0-44.5 18.5T297 675z"/><glyph glyph-name="ebreve.sc" horiz-adv-x="507" d="M179 81h273V0H84v536h356v-80H179V315h247v-77H179V81zm240 657q-6-69-49.5-103.5T260 600q-67 0-110.5 34.5T101 738h56q7-38 36-55t67-17q41 0 68 15.5t36 56.5h55z"/><glyph glyph-name="eogonek.sc" horiz-adv-x="507" d="M462-195q-20-17-44.5-27T367-232q-19 0-36.5 6t-31 17-21.5 27.5-8 36.5q0 21 9 42t23 39.5 30.5 35T365 0H84v536h356v-80H179V315h247v-77H179V81h273V0h-33q-15-14-29-29.5T364.5-61 346-93t-7-32q0-20 14-33.5t34-13.5q14 0 28 6t25 16z"/><glyph glyph-name="emacron.sc" horiz-adv-x="507" d="M179 81h273V0H84v536h356v-80H179V315h247v-77H179V81zm229 546H112v67h296v-67z"/><glyph glyph-name="eacute.sc" horiz-adv-x="507" d="M179 81h273V0H84v536h356v-80H179V315h247v-77H179V81zm113 513h-77l100 144h113z"/><glyph glyph-name="edotaccent.sc" horiz-adv-x="507" d="M179 81h273V0H84v536h356v-80H179V315h247v-77H179V81zm149 594q0-26-18.5-43T265 615t-44 17.5-18 42.5q0 26 18 43.5t44 17.5 44.5-17.5T328 675z"/><glyph glyph-name="gdotaccent.sc" horiz-adv-x="625" d="M477 409q-23 26-58.5 41T340 465t-77-15-58-41.5-37-62.5-13-77 13.5-77 38-63T266 86.5 344 71q63 0 108 21v132H339v78h209V34q-43-23-94.5-35.5T342-14q-64 0-117.5 21T133 65.5 73.5 155 52 269q0 63 22 115t60 88.5 90.5 57T339 550q65 0 117.5-20t87.5-52zm-74 266q0-26-18.5-43T340 615t-44 17.5-18 42.5q0 26 18 43.5t44 17.5 44.5-17.5T403 675z"/><glyph glyph-name="gbreve.sc" horiz-adv-x="625" d="M477 409q-23 26-58.5 41T340 465t-77-15-58-41.5-37-62.5-13-77 13.5-77 38-63T266 86.5 344 71q63 0 108 21v132H339v78h209V34q-43-23-94.5-35.5T342-14q-64 0-117.5 21T133 65.5 73.5 155 52 269q0 63 22 115t60 88.5 90.5 57T339 550q65 0 117.5-20t87.5-52zm24 329q-6-69-49.5-103.5T342 600q-67 0-110.5 34.5T183 738h56q7-38 36-55t67-17q41 0 68 15.5t36 56.5h55z"/><glyph glyph-name="gcommaaccent.sc" horiz-adv-x="625" d="M477 409q-23 26-58.5 41T340 465t-77-15-58-41.5-37-62.5-13-77 13.5-77 38-63T266 86.5 344 71q63 0 108 21v132H339v78h209V34q-43-23-94.5-35.5T342-14q-64 0-117.5 21T133 65.5 73.5 155 52 269q0 63 22 115t60 88.5 90.5 57T339 550q65 0 117.5-20t87.5-52zM317-235h-79l64 190h93z"/><glyph glyph-name="gcircumflex.sc" horiz-adv-x="625" d="M477 409q-23 26-58.5 41T340 465t-77-15-58-41.5-37-62.5-13-77 13.5-77 38-63T266 86.5 344 71q63 0 108 21v132H339v78h209V34q-43-23-94.5-35.5T342-14q-64 0-117.5 21T133 65.5 73.5 155 52 269q0 63 22 115t60 88.5 90.5 57T339 550q65 0 117.5-20t87.5-52zm32 185h-91l-75 99-76-99h-90l112 144h108z"/><glyph glyph-name="hbar.sc" horiz-adv-x="607" d="M84 536h96v-93h247v93h96V0h-96v237H180V0H84v536zm343-226v80H180v-80h247z"/><glyph glyph-name="hcircumflex.sc" horiz-adv-x="607" d="M84 536h96V316h247v220h96V0h-96v237H180V0H84v536zm387 58h-91l-75 99-76-99h-90l112 144h108z"/><glyph glyph-name="iogonek.sc" horiz-adv-x="264" d="M223-195q-20-17-44.5-27T128-232q-19 0-36.5 6t-31 17T39-181.5 31-145q0 21 9 42t23 39.5 30.5 35T126 0H84v536h96V0q-15-14-29-29.5T125.5-61 107-93t-7-32q0-20 14-33.5t34-13.5q14 0 28 6t25 16z"/><glyph glyph-name="iacute.sc" horiz-adv-x="264" d="M180 0H84v536h96V0zm-16 594H87l100 144h113z"/><glyph glyph-name="itilde.sc" horiz-adv-x="264" d="M180 0H84v536h96V0zM-41 602q4 22 10.5 42.5t18.5 37T17.5 708 61 718q19 0 38.5-6t36.5-14q20-9 36.5-15.5T203 676q22 0 32.5 14.5T251 722h54q-4-22-10.5-42.5t-18.5-37-30-26.5-43-10q-19 0-39 6.5T126 627q-18 9-34.5 15T61 648q-21 0-31.5-14.5T14 602h-55z"/><glyph glyph-name="idotaccent.sc" horiz-adv-x="264" d="M180 0H84v536h96V0zm14 675q0-26-18.5-43T131 615t-44 17.5T69 675q0 26 18 43.5t44 17.5 44.5-17.5T194 675z"/><glyph glyph-name="icircumflex.sc" horiz-adv-x="264" d="M180 0H84v536h96V0zm118 594h-91l-75 99-76-99h-90L78 738h108z"/><glyph glyph-name="idieresis.sc" horiz-adv-x="264" d="M180 0H84v536h96V0zM-26 675q0 24 17.5 42.5T36 736q26 0 44-17.5T98 675q0-25-18-42.5T36 615q-27 0-44.5 18.5T-26 675zm194 0q0 24 17.5 42.5T230 736q26 0 44-17.5t18-43.5q0-25-18-42.5T230 615q-27 0-44.5 18.5T168 675z"/><glyph glyph-name="imacron.sc" horiz-adv-x="264" d="M180 0H84v536h96V0zm100 627H-16v67h296v-67z"/><glyph glyph-name="igrave.sc" horiz-adv-x="264" d="M180 0H84v536h96V0zM-33 738H80l100-144h-77z"/><glyph glyph-name="jcircumflex.sc" horiz-adv-x="407" d="M105 138q10-36 28-51t38-15q31 0 46.5 23.5T233 171v365h96V169q0-34-8-67t-26.5-58.5T246 2t-75-16q-31 0-56.5 9.5T69 22 35 62t-20 50zm343 456h-91l-75 99-76-99h-90l112 144h108z"/><glyph glyph-name="kcommaaccent.sc" horiz-adv-x="543" d="M180 307h2l219 229h128L278 289 543 0H412L182 265h-2V0H84v536h96V307zm90-542h-79l64 190h93z"/><glyph glyph-name="lslash.sc" horiz-adv-x="420" d="M180 390l110 92v-90l-110-93V81h230V0H84v219L8 155v91l76 63v227h96V390z"/><glyph glyph-name="lacute.sc" horiz-adv-x="420" d="M180 81h230V0H84v536h96V81zm-11 513H92l100 144h113z"/><glyph glyph-name="lcaron.sc" horiz-adv-x="420" d="M180 81h230V0H84v536h96V81zm133 265h-79l64 190h93z"/><glyph glyph-name="lcommaaccent.sc" horiz-adv-x="420" d="M180 81h230V0H84v536h96V81zm52-316h-79l64 190h93z"/><glyph glyph-name="ldot.sc" horiz-adv-x="420" d="M180 81h230V0H84v536h96V81zm219 194q0-26-18.5-43T336 215t-44 17.5-18 42.5q0 26 18 43.5t44 17.5 44.5-17.5T399 275z"/><glyph glyph-name="nacute.sc" horiz-adv-x="618" d="M439 130h2v406h93V0H420L179 404h-2V0H84v536h116zM315 594h-77l100 144h113z"/><glyph glyph-name="ncommaaccent.sc" horiz-adv-x="618" d="M439 130h2v406h93V0H420L179 404h-2V0H84v536h116zM292-235h-79l64 190h93z"/><glyph glyph-name="ncaron.sc" horiz-adv-x="618" d="M439 130h2v406h93V0H420L179 404h-2V0H84v536h116zm-79 464H253L142 738h90l76-99 76 99h88z"/><glyph glyph-name="ntilde.sc" horiz-adv-x="618" d="M439 130h2v406h93V0H420L179 404h-2V0H84v536h116zM133 602q4 22 10.5 42.5t18.5 37 29.5 26.5 43.5 10q19 0 38.5-6t36.5-14q20-9 36.5-15.5T377 676q22 0 32.5 14.5T425 722h54q-4-22-10.5-42.5t-18.5-37-30-26.5-43-10q-19 0-39 6.5T300 627q-18 9-34.5 15t-30.5 6q-21 0-31.5-14.5T188 602h-55z"/><glyph glyph-name="ograve.sc" horiz-adv-x="681" d="M629 269q0-62-22-114t-61-89.5T454 7 339-14q-61 0-113.5 21t-91 58.5T74 155 52 269q0 63 22 115t60.5 88.5 91 57T339 550q62 0 115-20.5t92-57 61-88.5 22-115zm-103 0q0 42-13 77.5t-37.5 62-59 41.5-77.5 15q-42 0-76-15t-58-41.5-37-62-13-77.5 13-78.5 37-63T263 86t76-15q43 0 77.5 15t59 41.5 37.5 63 13 78.5zM178 738h113l100-144h-77z"/><glyph glyph-name="oacute.sc" horiz-adv-x="681" d="M629 269q0-62-22-114t-61-89.5T454 7 339-14q-61 0-113.5 21t-91 58.5T74 155 52 269q0 63 22 115t60.5 88.5 91 57T339 550q62 0 115-20.5t92-57 61-88.5 22-115zm-103 0q0 42-13 77.5t-37.5 62-59 41.5-77.5 15q-42 0-76-15t-58-41.5-37-62-13-77.5 13-78.5 37-63T263 86t76-15q43 0 77.5 15t59 41.5 37.5 63 13 78.5zM365 594h-77l100 144h113z"/><glyph glyph-name="ocircumflex.sc" horiz-adv-x="681" d="M629 269q0-62-22-114t-61-89.5T454 7 339-14q-61 0-113.5 21t-91 58.5T74 155 52 269q0 63 22 115t60.5 88.5 91 57T339 550q62 0 115-20.5t92-57 61-88.5 22-115zm-103 0q0 42-13 77.5t-37.5 62-59 41.5-77.5 15q-42 0-76-15t-58-41.5-37-62-13-77.5 13-78.5 37-63T263 86t76-15q43 0 77.5 15t59 41.5 37.5 63 13 78.5zm-20 325h-91l-75 99-76-99h-90l112 144h108z"/><glyph glyph-name="omacron.sc" horiz-adv-x="681" d="M629 269q0-62-22-114t-61-89.5T454 7 339-14q-61 0-113.5 21t-91 58.5T74 155 52 269q0 63 22 115t60.5 88.5 91 57T339 550q62 0 115-20.5t92-57 61-88.5 22-115zm-103 0q0 42-13 77.5t-37.5 62-59 41.5-77.5 15q-42 0-76-15t-58-41.5-37-62-13-77.5 13-78.5 37-63T263 86t76-15q43 0 77.5 15t59 41.5 37.5 63 13 78.5zm-39 358H191v67h296v-67z"/><glyph glyph-name="obreve.sc" horiz-adv-x="681" d="M629 269q0-62-22-114t-61-89.5T454 7 339-14q-61 0-113.5 21t-91 58.5T74 155 52 269q0 63 22 115t60.5 88.5 91 57T339 550q62 0 115-20.5t92-57 61-88.5 22-115zm-103 0q0 42-13 77.5t-37.5 62-59 41.5-77.5 15q-42 0-76-15t-58-41.5-37-62-13-77.5 13-78.5 37-63T263 86t76-15q43 0 77.5 15t59 41.5 37.5 63 13 78.5zm-27 469q-6-69-49.5-103.5T340 600q-67 0-110.5 34.5T181 738h56q7-38 36-55t67-17q41 0 68 15.5t36 56.5h55z"/><glyph glyph-name="oslash.sc" horiz-adv-x="681" d="M560 458q32-36 50.5-84T629 269q0-62-22-114t-61-89.5T454 7 339-14q-53 0-98.5 15T158 44L85-31 49 5l72 74q-33 36-51 84.5T52 269q0 63 22 115t60.5 89 91 57T339 550q54 0 100-15t83-43l70 72 37-35zm-35-189q0 67-34 118L223 111q47-39 116-39 42 0 76.5 15t59 41.5T512 191t13 78zm-369 0q0-69 33-119l267 275q-23 18-52.5 28.5T339 464q-42 0-76-15t-57.5-41.5-36.5-62-13-76.5z"/><glyph glyph-name="odieresis.sc" horiz-adv-x="681" d="M629 269q0-62-22-114t-61-89.5T454 7 339-14q-61 0-113.5 21t-91 58.5T74 155 52 269q0 63 22 115t60.5 88.5 91 57T339 550q62 0 115-20.5t92-57 61-88.5 22-115zm-103 0q0 42-13 77.5t-37.5 62-59 41.5-77.5 15q-42 0-76-15t-58-41.5-37-62-13-77.5 13-78.5 37-63T263 86t76-15q43 0 77.5 15t59 41.5 37.5 63 13 78.5zM180 675q0 24 17.5 42.5T242 736q26 0 44-17.5t18-43.5q0-25-18-42.5T242 615q-27 0-44.5 18.5T180 675zm194 0q0 24 17.5 42.5T436 736q26 0 44-17.5t18-43.5q0-25-18-42.5T436 615q-27 0-44.5 18.5T374 675z"/><glyph glyph-name="otilde.sc" horiz-adv-x="681" d="M629 269q0-62-22-114t-61-89.5T454 7 339-14q-61 0-113.5 21t-91 58.5T74 155 52 269q0 63 22 115t60.5 88.5 91 57T339 550q62 0 115-20.5t92-57 61-88.5 22-115zm-103 0q0 42-13 77.5t-37.5 62-59 41.5-77.5 15q-42 0-76-15t-58-41.5-37-62-13-77.5 13-78.5 37-63T263 86t76-15q43 0 77.5 15t59 41.5 37.5 63 13 78.5zM167 602q4 22 10.5 42.5t18.5 37 29.5 26.5 43.5 10q19 0 38.5-6t36.5-14q20-9 36.5-15.5T411 676q22 0 32.5 14.5T459 722h54q-4-22-10.5-42.5t-18.5-37-30-26.5-43-10q-19 0-39 6.5T334 627q-18 9-34.5 15t-30.5 6q-21 0-31.5-14.5T222 602h-55z"/><glyph glyph-name="ohungarumlaut.sc" horiz-adv-x="681" d="M629 269q0-62-22-114t-61-89.5T454 7 339-14q-61 0-113.5 21t-91 58.5T74 155 52 269q0 63 22 115t60.5 88.5 91 57T339 550q62 0 115-20.5t92-57 61-88.5 22-115zm-103 0q0 42-13 77.5t-37.5 62-59 41.5-77.5 15q-42 0-76-15t-58-41.5-37-62-13-77.5 13-78.5 37-63T263 86t76-15q43 0 77.5 15t59 41.5 37.5 63 13 78.5zM281 594h-77l100 144h114zm183 0h-77l100 144h113z"/><glyph glyph-name="racute.sc" horiz-adv-x="525" d="M180 0H84v536h191q40 0 75.5-7.5T413 504t42.5-46 15.5-71q0-59-32.5-96T354 240L493 0H382L257 226h-77V0zm0 304h83q22 0 42 4t35.5 13.5T365 346t9 38q0 21-8.5 35t-23 22.5T309 453t-40 3h-89V304zm89 290h-77l100 144h113z"/><glyph glyph-name="rcommaaccent.sc" horiz-adv-x="525" d="M180 0H84v536h191q40 0 75.5-7.5T413 504t42.5-46 15.5-71q0-59-32.5-96T354 240L493 0H382L257 226h-77V0zm0 304h83q22 0 42 4t35.5 13.5T365 346t9 38q0 21-8.5 35t-23 22.5T309 453t-40 3h-89V304zm74-539h-79l64 190h93z"/><glyph glyph-name="rcaron.sc" horiz-adv-x="525" d="M180 0H84v536h191q40 0 75.5-7.5T413 504t42.5-46 15.5-71q0-59-32.5-96T354 240L493 0H382L257 226h-77V0zm0 304h83q22 0 42 4t35.5 13.5T365 346t9 38q0 21-8.5 35t-23 22.5T309 453t-40 3h-89V304zm134 290H207L96 738h90l76-99 76 99h88z"/><glyph glyph-name="sacute.sc" horiz-adv-x="465" d="M347 419q-17 22-45 35.5T242 468q-36 0-61.5-18.5T155 396q0-18 6.5-30.5t19-21.5 30.5-16.5 41-14.5q28-9 56.5-21t51-30 36.5-44.5 14-64.5q0-43-15-74.5t-41-52T294-4t-73-10q-57 0-106.5 22T34 69l66 61q24-32 58-46t65-14q38 0 65.5 17.5T316 141q0 40-30.5 60T199 238q-26 8-51 19t-44.5 28T72 327t-12 62q0 41 16 71.5t42.5 50.5 60.5 29.5 69 9.5q50 0 91-18t69-49zm-93 175h-77l100 144h113z"/><glyph glyph-name="scaron.sc" horiz-adv-x="465" d="M347 419q-17 22-45 35.5T242 468q-36 0-61.5-18.5T155 396q0-18 6.5-30.5t19-21.5 30.5-16.5 41-14.5q28-9 56.5-21t51-30 36.5-44.5 14-64.5q0-43-15-74.5t-41-52T294-4t-73-10q-57 0-106.5 22T34 69l66 61q24-32 58-46t65-14q38 0 65.5 17.5T316 141q0 40-30.5 60T199 238q-26 8-51 19t-44.5 28T72 327t-12 62q0 41 16 71.5t42.5 50.5 60.5 29.5 69 9.5q50 0 91-18t69-49zm-46 175H194L83 738h90l76-99 76 99h88z"/><glyph glyph-name="scommaaccent.sc" horiz-adv-x="465" d="M347 419q-17 22-45 35.5T242 468q-36 0-61.5-18.5T155 396q0-18 6.5-30.5t19-21.5 30.5-16.5 41-14.5q28-9 56.5-21t51-30 36.5-44.5 14-64.5q0-43-15-74.5t-41-52T294-4t-73-10q-57 0-106.5 22T34 69l66 61q24-32 58-46t65-14q38 0 65.5 17.5T316 141q0 40-30.5 60T199 238q-26 8-51 19t-44.5 28T72 327t-12 62q0 41 16 71.5t42.5 50.5 60.5 29.5 69 9.5q50 0 91-18t69-49zM203-235h-79l64 190h93z"/><glyph glyph-name="scedilla.sc" horiz-adv-x="465" d="M347 419q-17 22-45 35.5T242 468q-36 0-61.5-18.5T155 396q0-18 6.5-30.5t19-21.5 30.5-16.5 41-14.5q28-9 56.5-21t51-30 36.5-44.5 14-64.5-11.5-66.5-32-49T318 5t-60-16l-38-58q7 2 13 2h14q17 0 33.5-4t30-13 22-24 8.5-37q0-26-12-43.5t-30.5-28-41-14.5-43.5-4q-26 0-54 6t-49 17l20 42q37-17 77-17 8 0 18.5 2t20 6.5 16 12.5 6.5 21q0 22-17 30t-37 8q-9 0-20-2t-21-5l-20 20 53 81q-53 2-98.5 23.5T34 69l66 61q24-32 58-46t65-14q38 0 65.5 17.5T316 141q0 40-30.5 60T199 238q-26 8-51 19t-44.5 28T72 327t-12 62q0 41 16 71.5t42.5 50.5 60.5 29.5 69 9.5q50 0 91-18t69-49z"/><glyph glyph-name="scircumflex.sc" horiz-adv-x="465" d="M347 419q-17 22-45 35.5T242 468q-36 0-61.5-18.5T155 396q0-18 6.5-30.5t19-21.5 30.5-16.5 41-14.5q28-9 56.5-21t51-30 36.5-44.5 14-64.5q0-43-15-74.5t-41-52T294-4t-73-10q-57 0-106.5 22T34 69l66 61q24-32 58-46t65-14q38 0 65.5 17.5T316 141q0 40-30.5 60T199 238q-26 8-51 19t-44.5 28T72 327t-12 62q0 41 16 71.5t42.5 50.5 60.5 29.5 69 9.5q50 0 91-18t69-49zm67 175h-91l-75 99-76-99H82l112 144h108z"/><glyph glyph-name="germandbls.sc" horiz-adv-x="930" d="M347 417q-17 22-45 35.5T242 466q-36 0-61.5-18.5T155 396q0-18 6.5-30.5t19-21.5 30.5-16.5 41-14.5q28-9 56.5-21t51-30 36.5-44.5 14-64.5q0-43-15-74.5t-41-52T294-4t-73-10q-57 0-106.5 22T34 69l66 61q24-32 58-46t65-14q38 0 65.5 17.5T316 141q0 40-30.5 60T199 238q-26 8-51 19t-44.5 28T72 327t-12 62q0 41 16 71t42.5 49.5 60.5 29 69 9.5q50 0 91-18t69-49zm465 0q-17 22-45 35.5T707 466q-36 0-61.5-18.5T620 396q0-18 6.5-30.5t19-21.5 30.5-16.5 41-14.5q28-9 56.5-21t51-30 36.5-44.5 14-64.5q0-43-15-74.5t-41-52T759-4t-73-10q-57 0-106.5 22T499 69l66 61q24-32 58-46t65-14q38 0 65.5 17.5T781 141q0 40-30.5 60T664 238q-26 8-51 19t-44.5 28-31.5 42-12 62q0 41 16 71t42.5 49.5 60.5 29 69 9.5q50 0 91-18t69-49z"/><glyph glyph-name="tcommaaccent.sc" horiz-adv-x="442" d="M268 0h-96v456H8v80h426v-80H268V0zm-62-235h-79l64 190h93z"/><glyph glyph-name="tcaron.sc" horiz-adv-x="442" d="M268 0h-96v456H8v80h426v-80H268V0zm5 594H166L55 738h90l76-99 76 99h88z"/><glyph glyph-name="tbar.sc" horiz-adv-x="442" d="M268 290V0h-96v290H67v63h105v103H8v80h426v-80H268V353h106v-63H268z"/><glyph glyph-name="uogonek.sc" horiz-adv-x="595" d="M398-195q-20-17-44.5-27T303-232q-19 0-36.5 6t-31 17-21.5 27.5-8 36.5q0 19 7 37t18 35 25 32 28 27q-49 2-87.5 19T132 50.5t-40 67T78 200v336h96V207q0-27 6.5-51t21-43 38-30T297 72t57.5 11 38.5 30 21.5 43 6.5 51v329h96V200q0-41-11.5-76T472 61.5t-54.5-46T344-10q-27-27-48-56.5T275-125q0-20 14-33.5t34-13.5q14 0 28 6t25 16z"/><glyph glyph-name="uacute.sc" horiz-adv-x="595" d="M297-14q-52 0-93 16.5t-69 45T92.5 115 78 200v336h96V207q0-27 6.5-51t21-43 38-30T297 72t57.5 11 38.5 30 21.5 43 6.5 51v329h96V200q0-46-15-85t-43-67.5-69-45T297-14zm37 608h-77l100 144h113z"/><glyph glyph-name="ugrave.sc" horiz-adv-x="595" d="M297-14q-52 0-93 16.5t-69 45T92.5 115 78 200v336h96V207q0-27 6.5-51t21-43 38-30T297 72t57.5 11 38.5 30 21.5 43 6.5 51v329h96V200q0-46-15-85t-43-67.5-69-45T297-14zM134 738h113l100-144h-77z"/><glyph glyph-name="ucircumflex.sc" horiz-adv-x="595" d="M297-14q-52 0-93 16.5t-69 45T92.5 115 78 200v336h96V207q0-27 6.5-51t21-43 38-30T297 72t57.5 11 38.5 30 21.5 43 6.5 51v329h96V200q0-46-15-85t-43-67.5-69-45T297-14zm170 608h-91l-75 99-76-99h-90l112 144h108z"/><glyph glyph-name="udieresis.sc" horiz-adv-x="595" d="M297-14q-52 0-93 16.5t-69 45T92.5 115 78 200v336h96V207q0-27 6.5-51t21-43 38-30T297 72t57.5 11 38.5 30 21.5 43 6.5 51v329h96V200q0-46-15-85t-43-67.5-69-45T297-14zM142 675q0 24 17.5 42.5T204 736q26 0 44-17.5t18-43.5q0-25-18-42.5T204 615q-27 0-44.5 18.5T142 675zm194 0q0 24 17.5 42.5T398 736q26 0 44-17.5t18-43.5q0-25-18-42.5T398 615q-27 0-44.5 18.5T336 675z"/><glyph glyph-name="ubreve.sc" horiz-adv-x="595" d="M297-14q-52 0-93 16.5t-69 45T92.5 115 78 200v336h96V207q0-27 6.5-51t21-43 38-30T297 72t57.5 11 38.5 30 21.5 43 6.5 51v329h96V200q0-46-15-85t-43-67.5-69-45T297-14zm159 752q-6-69-49.5-103.5T297 600q-67 0-110.5 34.5T138 738h56q7-38 36-55t67-17q41 0 68 15.5t36 56.5h55z"/><glyph glyph-name="uhungarumlaut.sc" horiz-adv-x="595" d="M297-14q-52 0-93 16.5t-69 45T92.5 115 78 200v336h96V207q0-27 6.5-51t21-43 38-30T297 72t57.5 11 38.5 30 21.5 43 6.5 51v329h96V200q0-46-15-85t-43-67.5-69-45T297-14zm-70 608h-77l100 144h114zm183 0h-77l100 144h113z"/><glyph glyph-name="umacron.sc" horiz-adv-x="595" d="M297-14q-52 0-93 16.5t-69 45T92.5 115 78 200v336h96V207q0-27 6.5-51t21-43 38-30T297 72t57.5 11 38.5 30 21.5 43 6.5 51v329h96V200q0-46-15-85t-43-67.5-69-45T297-14zm150 641H151v67h296v-67z"/><glyph glyph-name="utilde.sc" horiz-adv-x="595" d="M297-14q-52 0-93 16.5t-69 45T92.5 115 78 200v336h96V207q0-27 6.5-51t21-43 38-30T297 72t57.5 11 38.5 30 21.5 43 6.5 51v329h96V200q0-46-15-85t-43-67.5-69-45T297-14zM126 602q4 22 10.5 42.5t18.5 37 29.5 26.5 43.5 10q19 0 38.5-6t36.5-14q20-9 36.5-15.5T370 676q22 0 32.5 14.5T418 722h54q-4-22-10.5-42.5t-18.5-37-30-26.5-43-10q-19 0-39 6.5T293 627q-18 9-34.5 15t-30.5 6q-21 0-31.5-14.5T181 602h-55z"/><glyph glyph-name="uring.sc" horiz-adv-x="595" d="M297-14q-52 0-93 16.5t-69 45T92.5 115 78 200v336h96V207q0-27 6.5-51t21-43 38-30T297 72t57.5 11 38.5 30 21.5 43 6.5 51v329h96V200q0-46-15-85t-43-67.5-69-45T297-14zm103 697q0-43-29.5-71T299 584q-21 0-39 7.5T228.5 612 207 643t-8 39q0 43 29 71t71 28 71.5-28 29.5-70zm-42 0q0 24-17.5 40T299 739q-23 0-40.5-16T241 683t17.5-40.5T299 626q24 0 41.5 16t17.5 41z"/><glyph glyph-name="wcircumflex.sc" horiz-adv-x="796" d="M111 536l115-409h2l118 409h104l121-409h2l115 409h102L625 0H522L399 402h-2L275 0H172L6 536h105zm454 58h-91l-75 99-76-99h-90l112 144h108z"/><glyph glyph-name="ycircumflex.sc" horiz-adv-x="473" d="M284 0h-96v216L-6 536h108l137-243 137 243h103L284 216V0zm121 594h-91l-75 99-76-99H73l112 144h108z"/><glyph glyph-name="yacute.sc" horiz-adv-x="473" d="M284 0h-96v216L-6 536h108l137-243 137 243h103L284 216V0zm-23 594h-77l100 144h113z"/><glyph glyph-name="ydieresis.sc" horiz-adv-x="473" d="M284 0h-96v216L-6 536h108l137-243 137 243h103L284 216V0zM81 675q0 24 17.5 42.5T143 736q26 0 44-17.5t18-43.5q0-25-18-42.5T143 615q-27 0-44.5 18.5T81 675zm194 0q0 24 17.5 42.5T337 736q26 0 44-17.5t18-43.5q0-25-18-42.5T337 615q-27 0-44.5 18.5T275 675z"/><glyph glyph-name="zacute.sc" horiz-adv-x="496" d="M446 456L165 81h285V0H46v79l282 377H50v80h396v-80zM244 594h-77l100 144h113z"/><glyph glyph-name="zdotaccent.sc" horiz-adv-x="496" d="M446 456L165 81h285V0H46v79l282 377H50v80h396v-80zM315 675q0-26-18.5-43T252 615t-44 17.5-18 42.5q0 26 18 43.5t44 17.5 44.5-17.5T315 675z"/><glyph glyph-name="zcaron.sc" horiz-adv-x="496" d="M446 456L165 81h285V0H46v79l282 377H50v80h396v-80zM302 594H195L84 738h90l76-99 76 99h88z"/><glyph glyph-name="ij.sc" horiz-adv-x="670" d="M180 0H84v536h96V0zm188 138q10-36 28-51t38-15q31 0 46.5 23.5T496 171v365h96V169q0-34-8-67t-26.5-58.5T509 2t-75-16q-31 0-56.5 9.5T332 22t-34 40-20 50z"/><glyph glyph-name="fi.sc" horiz-adv-x="740" d="M180 0H84v536h347v-80H180V306h236v-78H180V0zm476 0h-96v536h96V0z"/><glyph glyph-name="fl.sc" horiz-adv-x="896" d="M180 0H84v536h347v-80H180V306h236v-78H180V0zm476 81h230V0H560v536h96V81z"/><glyph glyph-name="oe.sc" horiz-adv-x="808" d="M481 81h272V0H354q-61 0-114.5 18.5t-93 53.5T84 156.5 61 268q0 63 23 112.5t62.5 84 93 53T354 536h387v-80H481V315h246v-77H481V81zM165 268q0-42 14-75.5t39-57.5 59.5-36.5T354 86h31v364h-31q-42 0-77-13t-59.5-37-38.5-57.5-14-74.5z"/><glyph glyph-name="eth.sc" horiz-adv-x="619" d="M84 244H15v70h69v222h193q54 0 106-14.5t93-46.5 66-82.5T567 269q0-69-25.5-120T475 65t-93.5-49T275 0H84v244zm96 70h131v-70H180V81h80q44 0 81.5 12t65 36 43 59 15.5 81q0 50-16 85.5t-43.5 58-65 33T260 456h-80V314z"/><glyph glyph-name="circumflex.sc" d="M291 594h-91l-75 99-76-99h-90L71 738h108z"/><glyph glyph-name="caron.sc" d="M178 594H71L-40 738h90l76-99 76 99h88z"/><glyph glyph-name="tilde.sc" d="M-48 602q4 22 10.5 42.5t18.5 37T10.5 708 54 718q19 0 38.5-6t36.5-14q20-9 36.5-15.5T196 676q22 0 32.5 14.5T244 722h54q-4-22-10.5-42.5t-18.5-37-30-26.5-43-10q-19 0-39 6.5T119 627q-18 9-34.5 15T54 648q-21 0-31.5-14.5T7 602h-55z"/><glyph glyph-name="dieresis.sc" d="M-34 675q0 24 17.5 42.5T28 736q26 0 44-17.5T90 675q0-25-18-42.5T28 615q-27 0-44.5 18.5T-34 675zm194 0q0 24 17.5 42.5T222 736q26 0 44-17.5t18-43.5q0-25-18-42.5T222 615q-27 0-44.5 18.5T160 675z"/><glyph glyph-name="macron.sc" d="M273 627H-23v67h296v-67z"/><glyph glyph-name="breve.sc" d="M284 738q-6-69-49.5-103.5T125 600q-67 0-110.5 34.5T-34 738h56q7-38 36-55t67-17q41 0 68 15.5t36 56.5h55z"/><glyph glyph-name="ring.sc" d="M226 683q0-43-29.5-71T125 584q-21 0-39 7.5T54.5 612 33 643t-8 39q0 43 29 71t71 28 71.5-28 29.5-70zm-42 0q0 24-17.5 40T125 739q-23 0-40.5-16T67 683t17.5-40.5T125 626q24 0 41.5 16t17.5 41z"/><glyph glyph-name="hungarumlaut.sc" d="M39 594h-77L62 738h114zm183 0h-77l100 144h113z"/><glyph glyph-name="dotaccent.sc" d="M188 675q0-26-18.5-43T125 615t-44 17.5T63 675q0 26 18 43.5t44 17.5 44.5-17.5T188 675z"/><glyph glyph-name="grave.sc" d="M-34 738H79l100-144h-77z"/><glyph glyph-name="acute.sc" d="M148 594H71l100 144h113z"/><glyph glyph-name="hungarumlaut.cap" d="M39 764h-77L62 908h114zm183 0h-77l100 144h113z"/><glyph glyph-name="dotaccent.cap" d="M188 845q0-26-18.5-43T125 785t-44 17.5T63 845q0 26 18 43.5t44 17.5 44.5-17.5T188 845z"/><glyph glyph-name="caron.cap" d="M178 764H71L-40 908h90l76-99 76 99h88z"/><glyph glyph-name="tilde.cap" d="M-48 772q4 22 10.5 42.5t18.5 37T10.5 878 54 888q19 0 38.5-6t36.5-14q20-9 36.5-15.5T196 846q22 0 32.5 14.5T244 892h54q-4-22-10.5-42.5t-18.5-37-30-26.5-43-10q-19 0-39 6.5T119 797q-18 9-34.5 15T54 818q-21 0-31.5-14.5T7 772h-55z"/><glyph glyph-name="dieresis.cap" d="M-34 845q0 24 17.5 42.5T28 906q26 0 44-17.5T90 845q0-25-18-42.5T28 785q-27 0-44.5 18.5T-34 845zm194 0q0 24 17.5 42.5T222 906q26 0 44-17.5t18-43.5q0-25-18-42.5T222 785q-27 0-44.5 18.5T160 845z"/><glyph glyph-name="macron.cap" d="M273 797H-23v67h296v-67z"/><glyph glyph-name="breve.cap" d="M284 908q-6-69-49.5-103.5T125 770q-67 0-110.5 34.5T-34 908h56q7-38 36-55t67-17q41 0 68 15.5t36 56.5h55z"/><glyph glyph-name="ring.cap" d="M226 853q0-43-29.5-71T125 754q-21 0-39 7.5T54.5 782 33 813t-8 39q0 43 29 71t71 28 71.5-28 29.5-70zm-41 0q0 25-17.5 41.5T125 911t-42-17-17-42q0-24 17-40.5t42-16.5 42.5 16.5T185 853z"/><glyph glyph-name="grave.cap" d="M-23 908H91l100-144h-77z"/><glyph glyph-name="acute.cap" d="M136 764H60l99 144h114z"/><glyph glyph-name="circumflex.cap" d="M291 764h-91l-75 99-76-99h-90L71 908h108z"/><glyph glyph-name="caron.alt" d="M150 518H71l64 190h93z"/><glyph glyph-name="commaaccent.alt" d="M148 754h79l-64-190H70z"/><glyph glyph-name="Ohorn" unicode="Ơ" horiz-adv-x="849" d="M829 742q0-62-33.5-94.5T702 613q48-51 73-117t25-141q0-82-28.5-150.5T693 86.5t-119-77T424-18 274.5 9.5 156 86.5t-78 118T50 355q0 83 28 151.5t78 117T274.5 699 424 726q52 0 88.5-9t64-19.5L626 678l46-9q42 0 59 19t17 54q0 15-4.5 31.5T732 801l81 21q16-32 16-80zM157 355q0-59 19-111t53.5-90.5 84-60.5T424 71t111 22 85 60.5 54 90.5 19 111q0 58-19 109.5T620 555t-84.5 61.5T424 639t-111-22.5-84-61.5-53.5-90.5T157 355z"/><glyph glyph-name="ohorn" unicode="ơ" horiz-adv-x="617" d="M633 525q0-62-33-94.5T507 396q27-34 40.5-74t13.5-84q0-55-19.5-101t-54-79.5-81.5-52T305-13 204 5.5t-81 52T69.5 137 50 238t19.5 100.5T123 417t81 51.5T305 487q33 0 57-5.5t43-12.5 35.5-12.5T475 451q42 0 59.5 19.5T552 525q0 15-4.5 31.5T536 584l81 21q16-32 16-80zM147 238q0-34 10.5-65t30.5-55 49.5-38T305 66t67.5 14 49.5 38 30.5 55 10.5 65-10.5 65-30.5 54.5-49.5 37.5-67.5 14-67.5-14-49.5-37.5-30.5-54.5-10.5-65z"/><glyph glyph-name="Uhorn" unicode="Ư" horiz-adv-x="722" d="M631 262q0-54-16.5-104.5T564 68 478 5.5 356-18 234 5.5 148 68t-50.5 89.5T81 262v446h99V268q0-37 9-72.5t29.5-63 54-44.5T356 71q49 0 83 17t54.5 44.5 29.5 63 9 72.5v440h67q42 0 59.5 19t17.5 55q0 15-4.5 31T660 841l81 21q16-33 16-80 0-63-33.5-95.5T631 652V262z"/><glyph glyph-name="uhorn" unicode="ư" horiz-adv-x="597" d="M415 0q-2 18-3 40.5T411 78h-2q-18-38-60.5-64.5T254-13q-46 0-79.5 15t-55 41.5-32 61.5T77 180v294h94V212q0-29 4.5-55.5T192 110t33-32 54-12q57 0 92 42.5T406 222v252h62q42 0 60 19t18 55q0 15-4.5 31T530 607l81 21q16-33 16-80 0-63-33.5-95.5T500 418V102q0-19 1-49t3-53h-89z"/><glyph glyph-name="hookabovecomb" unicode="̉" d="M92 555q0 23 9.5 39.5T138 625q31 15 31 40 0 17-10 26.5t-30 9.5q-21 0-33-11.5T80 652l-66 8q8 46 38.5 68.5T131 751q49 0 76.5-24t27.5-59q0-53-51-76-17-8-23.5-17t-6.5-20H92z"/><glyph glyph-name="uni037E" unicode=";" horiz-adv-x="300" d="M217 415q0-27-19-46.5T150 349q-28 0-47.5 19T83 414q0 26 19 46t48 20 48-19.5 19-45.5zm-94-548H43l69 250h94z"/><glyph glyph-name="uni1E02" unicode="Ḃ" horiz-adv-x="642" d="M86 708h244q40 0 80-9t71.5-30 51-55 19.5-85q0-59-34-99t-90-55v-2q34-4 63-17.5t50-35.5 32.5-52 11.5-67q0-51-21-89t-57-62.5-84.5-37T319 0H86v708zm99-299h129q28 0 53.5 6.5t44.5 20 30 34 11 49.5q0 57-42 81.5T298 625H185V409zm0-325h124q31 0 62.5 5.5t57 19.5 41 37.5T485 206q0 63-43 91t-124 28H185V84zm184 761q0-26-18.5-43T306 785t-44 17.5-18 42.5q0 26 18 43.5t44 17.5 44.5-17.5T369 845z"/><glyph glyph-name="uni1E03" unicode="ḃ" horiz-adv-x="636" d="M174 75V0H83v756h94V403h3q24 35 67 59.5T349 487q53 0 96.5-19t75-53 48.5-79.5 17-97.5-17-98-48-80-75-53.5T347-13q-51 0-97 22.5T176 75h-2zm315 163q0 33-10 64t-30 55-49.5 38-68.5 14q-36 0-65.5-14T215 357t-32.5-55-11.5-65 11.5-65 32.5-54.5T265.5 80 331 66q39 0 68.5 14.5T449 119t30 55 10 64zM380 845q0-26-18.5-43T317 785t-44 17.5-18 42.5q0 26 18 43.5t44 17.5 44.5-17.5T380 845z"/><glyph glyph-name="uni1E0A" unicode="Ḋ" horiz-adv-x="761" d="M86 708h243q68 0 136-20t123-63 89-110 34-161q0-91-34-157.5t-89-110-123-65T329 0H86v708zm99-621h124q64 0 118.5 18t94 52 61.5 84 22 113q0 66-22 116t-61.5 83.5-94 51T309 622H185V87zm223 758q0-26-18.5-43T345 785t-44 17.5-18 42.5q0 26 18 43.5t44 17.5 44.5-17.5T408 845z"/><glyph glyph-name="uni1E0B" unicode="ḋ" horiz-adv-x="635" d="M459 75q-27-43-73.5-65.5T288-13q-55 0-99 19.5T114 60t-48 80-17 98 17 97.5 48.5 79.5 75.5 53 97 19q58 0 101-24.5t68-59.5h2v353h94V0h-91v75h-2zM147 238q0-33 10-64t30-55 49-38.5T304 66q36 0 65.5 14t50.5 37.5 32.5 54.5 11.5 65-11.5 65-32.5 55-50.5 38-65.5 14q-39 0-68-14t-49-38-30-55-10-64zm227 607q0-26-18.5-43T311 785t-44 17.5-18 42.5q0 26 18 43.5t44 17.5 44.5-17.5T374 845z"/><glyph glyph-name="uni1E1E" unicode="Ḟ" horiz-adv-x="568" d="M185 0H86v708h442v-87H185V401h321v-85H185V0zm184 845q0-26-18.5-43T306 785t-44 17.5-18 42.5q0 26 18 43.5t44 17.5 44.5-17.5T369 845z"/><glyph glyph-name="uni1E1F" unicode="ḟ" horiz-adv-x="310" d="M304 397H194V0h-94v397H6v77h94v99q0 42 9.5 77.5t31 61.5 55 41 81.5 15q34 0 59-7l-11-81q-11 3-22 5t-25 2q-27 0-43.5-9.5T209 652t-12-36.5-3-42.5v-99h110v-77zm-65 484q0-26-18.5-43T176 821t-44 17.5-18 42.5q0 26 18 43.5t44 17.5 44.5-17.5T239 881z"/><glyph glyph-name="uni1E22" unicode="Ḣ" horiz-adv-x="729" d="M86 708h99V412h358v296h100V0H543v324H185V0H86v708zm340 137q0-26-18.5-43T363 785t-44 17.5-18 42.5q0 26 18 43.5t44 17.5 44.5-17.5T426 845z"/><glyph glyph-name="uni1E23" unicode="ḣ" horiz-adv-x="584" d="M179 402q17 35 58 60t92 25q46 0 79-15.5t55-41.5 32.5-61 10.5-75V0h-94v262q0 29-4.5 55T391 363t-32.5 32-53.5 12q-56 0-92-42.5T177 251V0H83v756h94V402h2zm201 443q0-26-18.5-43T317 785t-44 17.5-18 42.5q0 26 18 43.5t44 17.5 44.5-17.5T380 845z"/><glyph glyph-name="uni1E56" unicode="Ṗ" horiz-adv-x="595" d="M86 708h216q57 0 104-11.5t80-35.5 51-61 18-89q0-53-19.5-91t-54-62-82-35.5T297 311H185V0H86v708zm99-313h105q36 0 66.5 6.5t52.5 20 34 35.5 12 54-12.5 53.5-34 35-51.5 19-65 5.5H185V395zm176 450q0-26-18.5-43T298 785t-44 17.5-18 42.5q0 26 18 43.5t44 17.5 44.5-17.5T361 845z"/><glyph glyph-name="uni1E57" unicode="ṗ" horiz-adv-x="634" d="M175-240H81v714h92v-74h3q23 38 67.5 62.5T347 487q53 0 96.5-19t75-53 48.5-79.5 17-97.5-17-98-48-80-75-53.5T345-13q-51 0-96 22t-71 62h-3v-311zm312 478q0 33-10 64t-30 55-49.5 38-68.5 14q-36 0-65.5-14T213 357t-32.5-55-11.5-65 11.5-65 32.5-54.5T263.5 80 329 66q39 0 68.5 14.5T447 119t30 55 10 64zM382 645q0-26-18.5-43T319 585t-44 17.5-18 42.5q0 26 18 43.5t44 17.5 44.5-17.5T382 645z"/><glyph glyph-name="uni1E60" unicode="Ṡ" horiz-adv-x="569" d="M438 577q-21 29-57 47.5T300 643q-24 0-48.5-6.5t-44.5-21-32.5-36T162 528q0-29 11.5-48.5t31-33 46-23L307 404q36-11 73-25t67-37 49-57.5 19-87.5q0-55-20.5-95.5t-54.5-67T361.5-5 270-18q-67 0-129.5 26T37 85l77 65q25-37 67-60t91-23q25 0 50 7t45.5 22 33.5 37.5 13 54.5-13.5 53.5T364 278t-53.5 25.5L246 325q-34 10-67 24.5t-59 37T78 442t-16 82q0 53 21.5 91t56 63 78 36.5T305 726q62 0 116-22t87-59zm-73 268q0-26-18.5-43T302 785t-44 17.5-18 42.5q0 26 18 43.5t44 17.5 44.5-17.5T365 845z"/><glyph glyph-name="uni1E61" unicode="ṡ" horiz-adv-x="444" d="M337 354q-16 26-45 42.5T227 413q-16 0-32-3.5t-28.5-11-20-19T139 351q0-30 27-44.5t81-26.5q34-8 63-19t50.5-27.5T394 194t12-54q0-42-16-71t-42.5-47.5T287-5t-70-8q-54 0-105.5 21T26 72l67 57q19-28 52.5-47T219 63q18 0 34.5 3.5t30 11.5T305 99t8 33q0 33-31.5 49T189 211q-24 6-48.5 14.5T96 249t-32.5 37.5T51 342q0 38 15.5 65.5t40.5 45 57 26 66 8.5q51 0 98.5-20t73.5-58zm-45 291q0-26-18.5-43T229 585t-44 17.5-18 42.5q0 26 18 43.5t44 17.5 44.5-17.5T292 645z"/><glyph glyph-name="uni1E6A" unicode="Ṫ" horiz-adv-x="569" d="M334 0h-99v621H8v87h553v-87H334V0zm13 845q0-26-18.5-43T284 785t-44 17.5-18 42.5q0 26 18 43.5t44 17.5 44.5-17.5T347 845z"/><glyph glyph-name="uni1E6B" unicode="ṫ" horiz-adv-x="329" d="M313 397H187V150q0-43 16-61.5T254 70q13 0 28 3t27 9l3-77q-17-6-37.5-9.5T232-8q-67 0-102.5 37T94 140v257H3v77h91v136h93V474h126v-77zM203 755q0-26-18.5-43T140 695t-44 17.5T78 755q0 26 18 43.5t44 17.5 44.5-17.5T203 755z"/><glyph glyph-name="uni1EA0" unicode="Ạ" horiz-adv-x="711" d="M115 0H5l307 708h90L706 0H594l-72 174H186zm106 261h265L354 593zm73-407q0 23 16 40t41 17q26 0 42.5-16.5T410-146t-16.5-40.5T351-203q-25 0-41 17t-16 40z"/><glyph glyph-name="uni1EA1" unicode="ạ" horiz-adv-x="542" d="M376 307q0 53-32 78.5T259 411q-40 0-75.5-15.5T124 356l-50 60q35 33 85.5 52T268 487q51 0 88.5-14.5T418 433t36-59 12-73V94q0-24 1.5-50.5T473 0h-85q-8 34-8 68h-3q-26-38-65.5-59T218-12q-28 0-58.5 7.5T104 20 62.5 65 46 134q0 54 29 85.5t76 48T257 289t119 5v13zm-23-81q-35 0-72.5-3t-68-12-50.5-27-20-48q0-21 8.5-35T173 78t31-12.5 35-3.5q66 0 101.5 39.5T376 201v25h-23zM213-146q0 23 16 40t41 17q26 0 42.5-16.5T329-146t-16.5-40.5T270-203q-25 0-41 17t-16 40z"/><glyph glyph-name="uni1EA2" unicode="Ả" horiz-adv-x="711" d="M115 0H5l307 708h90L706 0H594l-72 174H186zm106 261h265L354 593zm98 493q0 23 9.5 39.5T365 824q31 15 31 40 0 17-10 26.5t-30 9.5q-21 0-33-11.5T307 851l-66 8q8 46 38.5 68.5T358 950q49 0 76.5-24t27.5-59q0-53-51-76-17-8-23.5-17t-6.5-20h-62z"/><glyph glyph-name="uni1EA3" unicode="ả" horiz-adv-x="542" d="M376 307q0 53-32 78.5T259 411q-40 0-75.5-15.5T124 356l-50 60q35 33 85.5 52T268 487q51 0 88.5-14.5T418 433t36-59 12-73V94q0-24 1.5-50.5T473 0h-85q-8 34-8 68h-3q-26-38-65.5-59T218-12q-28 0-58.5 7.5T104 20 62.5 65 46 134q0 54 29 85.5t76 48T257 289t119 5v13zm-23-81q-35 0-72.5-3t-68-12-50.5-27-20-48q0-21 8.5-35T173 78t31-12.5 35-3.5q66 0 101.5 39.5T376 201v25h-23zM238 555q0 23 9.5 39.5T284 625q31 15 31 40 0 17-10 26.5t-30 9.5q-21 0-33-11.5T226 652l-66 8q8 46 38.5 68.5T277 751q49 0 76.5-24t27.5-59q0-53-51-76-17-8-23.5-17t-6.5-20h-62z"/><glyph glyph-name="uni1EA4" unicode="Ấ" horiz-adv-x="711" d="M115 0H5l307 708h90L706 0H594l-72 174H186zm106 261h265L354 593zm206 493l-76 99-76-99h-89l112 144h108l111-144h-90zm110 234h111L538 858h-72z"/><glyph glyph-name="uni1EA5" unicode="ấ" horiz-adv-x="542" d="M376 307q0 53-32 78.5T259 411q-40 0-75.5-15.5T124 356l-50 60q35 33 85.5 52T268 487q51 0 88.5-14.5T418 433t36-59 12-73V94q0-24 1.5-50.5T473 0h-85q-8 34-8 68h-3q-26-38-65.5-59T218-12q-28 0-58.5 7.5T104 20 62.5 65 46 134q0 54 29 85.5t76 48T257 289t119 5v13zm-23-81q-35 0-72.5-3t-68-12-50.5-27-20-48q0-21 8.5-35T173 78t31-12.5 35-3.5q66 0 101.5 39.5T376 201v25h-23zm-7 318l-76 99-76-99h-89l112 144h108l111-144h-90zm113 249h112L457 658h-72z"/><glyph glyph-name="uni1EA6" unicode="Ầ" horiz-adv-x="711" d="M115 0H5l307 708h90L706 0H594l-72 174H186zm106 261h265L354 593zm17 597h-73L56 988h110zm189-104l-76 99-76-99h-89l112 144h108l111-144h-90z"/><glyph glyph-name="uni1EA7" unicode="ầ" horiz-adv-x="542" d="M376 307q0 53-32 78.5T259 411q-40 0-75.5-15.5T124 356l-50 60q35 33 85.5 52T268 487q51 0 88.5-14.5T418 433t36-59 12-73V94q0-24 1.5-50.5T473 0h-85q-8 34-8 68h-3q-26-38-65.5-59T218-12q-28 0-58.5 7.5T104 20 62.5 65 46 134q0 54 29 85.5t76 48T257 289t119 5v13zm-23-81q-35 0-72.5-3t-68-12-50.5-27-20-48q0-21 8.5-35T173 78t31-12.5 35-3.5q66 0 101.5 39.5T376 201v25h-23zM157 658H84L-29 793H82zm189-114l-76 99-76-99h-89l112 144h108l111-144h-90z"/><glyph glyph-name="uni1EA8" unicode="Ẩ" horiz-adv-x="711" d="M115 0H5l307 708h90L706 0H594l-72 174H186zm106 261h265L354 593zm270 583q0 20 7 34.5t29 26.5q8 5 13 9t7 12 1 13q-2 7-8.5 12t-17.5 5q-29 0-36-34l-58 7q6 35 31 53t63 18q40 0 63-18.5t23-45.5q0-23-10.5-37T564 874q-14-7-18.5-14t-4.5-16h-50zm-64-90l-76 99-76-99h-89l112 144h108l111-144h-90z"/><glyph glyph-name="uni1EA9" unicode="ẩ" horiz-adv-x="542" d="M376 307q0 53-32 78.5T259 411q-40 0-75.5-15.5T124 356l-50 60q35 33 85.5 52T268 487q51 0 88.5-14.5T418 433t36-59 12-73V94q0-24 1.5-50.5T473 0h-85q-8 34-8 68h-3q-26-38-65.5-59T218-12q-28 0-58.5 7.5T104 20 62.5 65 46 134q0 54 29 85.5t76 48T257 289t119 5v13zm-23-81q-35 0-72.5-3t-68-12-50.5-27-20-48q0-21 8.5-35T173 78t31-12.5 35-3.5q66 0 101.5 39.5T376 201v25h-23zm52 423q0 20 7 34.5t29 26.5q8 5 13 9t7 12 1 13q-2 7-8.5 12t-17.5 5q-29 0-36-34l-58 7q6 35 31 53t63 18q40 0 63-18.5t23-45.5q0-23-10.5-37T478 679q-14-7-18.5-14t-4.5-16h-50zm-59-105l-76 99-76-99h-89l112 144h108l111-144h-90z"/><glyph glyph-name="uni1EAA" unicode="Ẫ" horiz-adv-x="711" d="M115 0H5l307 708h90L706 0H594l-72 174H186zm106 261h265L354 593zm-30 641q4 20 10.5 39.5T219 976t27 24 40 9q20 0 37.5-6.5t33.5-14 31-13.5 29-6q21 0 31 13.5t15 30.5h49q-3-20-9.5-39T485 940t-27.5-24-40.5-9q-20 0-37 6t-33 13.5l-30.5 14L286 947q-20 0-30-13.5T241 902h-50zm234-148l-73 72-74-72h-92l112 114h108l111-114h-92z"/><glyph glyph-name="uni1EAB" unicode="ẫ" horiz-adv-x="542" d="M376 307q0 53-32 78.5T259 411q-40 0-75.5-15.5T124 356l-50 60q35 33 85.5 52T268 487q51 0 88.5-14.5T418 433t36-59 12-73V94q0-24 1.5-50.5T473 0h-85q-8 34-8 68h-3q-26-38-65.5-59T218-12q-28 0-58.5 7.5T104 20 62.5 65 46 134q0 54 29 85.5t76 48T257 289t119 5v13zm-23-81q-35 0-72.5-3t-68-12-50.5-27-20-48q0-21 8.5-35T173 78t31-12.5 35-3.5q66 0 101.5 39.5T376 201v25h-23zM110 724q4 21 10.5 40.5T138 799t27 24.5 40 9.5q19 0 37-6.5t34.5-14.5l31-14.5L336 791q21 0 31 14.5t15 31.5h49q-3-20-9.5-39.5T404 763t-27.5-24.5T336 729q-20 0-37 6.5T266 750t-31 14.5-30 6.5q-20 0-30-14.5T160 724h-50zm236-180l-76 99-76-99h-89l112 144h108l111-144h-90z"/><glyph glyph-name="uni1EAC" unicode="Ậ" horiz-adv-x="711" d="M115 0H5l307 708h90L706 0H594l-72 174H186zm106 261h265L354 593zm73-407q0 23 16 40t41 17q26 0 42.5-16.5T410-146t-16.5-40.5T351-203q-25 0-41 17t-16 40zm224 910h-91l-75 99-76-99h-90l112 144h108z"/><glyph glyph-name="uni1EAD" unicode="ậ" horiz-adv-x="542" d="M376 307q0 53-32 78.5T259 411q-40 0-75.5-15.5T124 356l-50 60q35 33 85.5 52T268 487q51 0 88.5-14.5T418 433t36-59 12-73V94q0-24 1.5-50.5T473 0h-85q-8 34-8 68h-3q-26-38-65.5-59T218-12q-28 0-58.5 7.5T104 20 62.5 65 46 134q0 54 29 85.5t76 48T257 289t119 5v13zm-23-81q-35 0-72.5-3t-68-12-50.5-27-20-48q0-21 8.5-35T173 78t31-12.5 35-3.5q66 0 101.5 39.5T376 201v25h-23zm84 338h-91l-75 99-76-99h-90l112 144h108zM213-146q0 23 16 40t41 17q26 0 42.5-16.5T329-146t-16.5-40.5T270-203q-25 0-41 17t-16 40z"/><glyph glyph-name="uni1EAE" unicode="Ắ" horiz-adv-x="711" d="M115 0H5l307 708h90L706 0H594l-72 174H186zm106 261h265L354 593zm28 628q7-38 36-55t67-17q40 0 67.5 15.5T455 889h55q-5-69-48.5-103.5T351 751q-66 0-109.5 34.5T193 889h56zm116 106h108L369 872h-72z"/><glyph glyph-name="uni1EAF" unicode="ắ" horiz-adv-x="542" d="M376 307q0 53-32 78.5T259 411q-40 0-75.5-15.5T124 356l-50 60q35 33 85.5 52T268 487q51 0 88.5-14.5T418 433t36-59 12-73V94q0-24 1.5-50.5T473 0h-85q-8 34-8 68h-3q-26-38-65.5-59T218-12q-28 0-58.5 7.5T104 20 62.5 65 46 134q0 54 29 85.5t76 48T257 289t119 5v13zm-23-81q-35 0-72.5-3t-68-12-50.5-27-20-48q0-21 8.5-35T173 78t31-12.5 35-3.5q66 0 101.5 39.5T376 201v25h-23zM168 688q7-38 36-55t67-17q40 0 67.5 15.5T374 688h55q-5-69-48.5-103.5T270 550q-66 0-109.5 34.5T112 688h56zm122 141h112L288 695h-72z"/><glyph glyph-name="uni1EB0" unicode="Ằ" horiz-adv-x="711" d="M115 0H5l307 708h90L706 0H594l-72 174H186zm106 261h265L354 593zm28 628q7-38 36-55t67-17q40 0 67.5 15.5T455 889h55q-5-69-48.5-103.5T351 751q-66 0-109.5 34.5T193 889h56zm158-17h-73L230 995h109z"/><glyph glyph-name="uni1EB1" unicode="ằ" horiz-adv-x="542" d="M376 307q0 53-32 78.5T259 411q-40 0-75.5-15.5T124 356l-50 60q35 33 85.5 52T268 487q51 0 88.5-14.5T418 433t36-59 12-73V94q0-24 1.5-50.5T473 0h-85q-8 34-8 68h-3q-26-38-65.5-59T218-12q-28 0-58.5 7.5T104 20 62.5 65 46 134q0 54 29 85.5t76 48T257 289t119 5v13zm-23-81q-35 0-72.5-3t-68-12-50.5-27-20-48q0-21 8.5-35T173 78t31-12.5 35-3.5q66 0 101.5 39.5T376 201v25h-23zM168 688q7-38 36-55t67-17q40 0 67.5 15.5T374 688h55q-5-69-48.5-103.5T270 550q-66 0-109.5 34.5T112 688h56zm156 7h-73L138 829h111z"/><glyph glyph-name="uni1EB2" unicode="Ẳ" horiz-adv-x="711" d="M115 0H5l307 708h90L706 0H594l-72 174H186zm106 261h265L354 593zm28 628q7-38 36-55t67-17q40 0 67.5 15.5T455 889h55q-5-69-48.5-103.5T351 751q-66 0-109.5 34.5T193 889h56zm70-27q0 20 7 33t29 25q11 6 16.5 12t5.5 15-6.5 15.5T350 969q-29 0-36-34l-58 7q6 35 31 53t63 18q40 0 63-18.5t23-44.5q0-23-10.5-36.5T392 889q-14-7-18.5-13.5T369 862h-50z"/><glyph glyph-name="uni1EB3" unicode="ẳ" horiz-adv-x="542" d="M376 307q0 53-32 78.5T259 411q-40 0-75.5-15.5T124 356l-50 60q35 33 85.5 52T268 487q51 0 88.5-14.5T418 433t36-59 12-73V94q0-24 1.5-50.5T473 0h-85q-8 34-8 68h-3q-26-38-65.5-59T218-12q-28 0-58.5 7.5T104 20 62.5 65 46 134q0 54 29 85.5t76 48T257 289t119 5v13zm-23-81q-35 0-72.5-3t-68-12-50.5-27-20-48q0-21 8.5-35T173 78t31-12.5 35-3.5q66 0 101.5 39.5T376 201v25h-23zM168 688q7-38 36-55t67-17q40 0 67.5 15.5T374 688h55q-5-69-48.5-103.5T270 550q-66 0-109.5 34.5T112 688h56zm70-2q0 20 7 34.5t29 26.5q11 6 16.5 12t5.5 16q0 9-6.5 16t-20.5 7q-29 0-36-34l-58 7q6 35 31 53t63 18q40 0 63-18.5t23-45.5q0-23-10.5-37T311 716q-14-7-18.5-14.5T288 686h-50z"/><glyph glyph-name="uni1EB4" unicode="Ẵ" horiz-adv-x="711" d="M115 0H5l307 708h90L706 0H594l-72 174H186zm106 261h265L354 593zm28 611q7-30 36-43.5t67-13.5q40 0 67.5 12.5T455 872h55q-5-60-48.5-90.5T351 751q-66 0-109.5 30T193 872h56zm-58 35q4 19 10.5 37.5T219 977t27 23 40 9q20 0 37.5-6.5t33.5-14 31-13.5 29-6q21 0 31 13.5t15 30.5h49q-3-20-9.5-39T485 940t-27.5-24-40.5-9q-20 0-37 6t-33 13.5l-30.5 14L286 947q-20 0-30-12t-15-28h-50z"/><glyph glyph-name="uni1EB5" unicode="ẵ" horiz-adv-x="542" d="M376 307q0 53-32 78.5T259 411q-40 0-75.5-15.5T124 356l-50 60q35 33 85.5 52T268 487q51 0 88.5-14.5T418 433t36-59 12-73V94q0-24 1.5-50.5T473 0h-85q-8 34-8 68h-3q-26-38-65.5-59T218-12q-28 0-58.5 7.5T104 20 62.5 65 46 134q0 54 29 85.5t76 48T257 289t119 5v13zm-23-81q-35 0-72.5-3t-68-12-50.5-27-20-48q0-21 8.5-35T173 78t31-12.5 35-3.5q66 0 101.5 39.5T376 201v25h-23zM168 673q7-32 36-45.5t67-13.5q40 0 67.5 12.5T374 673h55q-5-62-48.5-92.5T270 550q-66 0-109.5 30T112 673h56zm-58 56q4 19 10.5 38t17.5 33.5 27 23.5 40 9q19 0 37-6.5t34.5-14.5l31-14.5L336 791q21 0 31 14.5t15 31.5h49q-3-20-9.5-39.5T404 763t-27.5-24.5T336 729q-20 0-37 6.5T266 750t-31 14.5-30 6.5q-20 0-30-13t-15-29h-50z"/><glyph glyph-name="uni1EB6" unicode="Ặ" horiz-adv-x="711" d="M115 0H5l307 708h90L706 0H594l-72 174H186zm106 261h265L354 593zm290 647q-6-69-49.5-103.5T352 770q-67 0-110.5 34.5T193 908h56q7-38 36-55t67-17q41 0 68 15.5t36 56.5h55zM294-146q0 23 16 40t41 17q26 0 42.5-16.5T410-146t-16.5-40.5T351-203q-25 0-41 17t-16 40z"/><glyph glyph-name="uni1EB7" unicode="ặ" horiz-adv-x="542" d="M376 307q0 53-32 78.5T259 411q-40 0-75.5-15.5T124 356l-50 60q35 33 85.5 52T268 487q51 0 88.5-14.5T418 433t36-59 12-73V94q0-24 1.5-50.5T473 0h-85q-8 34-8 68h-3q-26-38-65.5-59T218-12q-28 0-58.5 7.5T104 20 62.5 65 46 134q0 54 29 85.5t76 48T257 289t119 5v13zm-23-81q-35 0-72.5-3t-68-12-50.5-27-20-48q0-21 8.5-35T173 78t31-12.5 35-3.5q66 0 101.5 39.5T376 201v25h-23zm77 482q-6-69-49.5-103.5T271 570q-67 0-110.5 34.5T112 708h56q7-38 36-55t67-17q41 0 68 15.5t36 56.5h55zM213-146q0 23 16 40t41 17q26 0 42.5-16.5T329-146t-16.5-40.5T270-203q-25 0-41 17t-16 40z"/><glyph glyph-name="uni1EB8" unicode="Ẹ" horiz-adv-x="601" d="M185 88h370V0H86v708h454v-87H185V409h334v-85H185V88zm73-234q0 23 16 40t41 17q26 0 42.5-16.5T374-146t-16.5-40.5T315-203q-25 0-41 17t-16 40z"/><glyph glyph-name="uni1EB9" unicode="ẹ" horiz-adv-x="573" d="M428 279q-1 28-9.5 52.5t-25 42.5-41 28.5T295 413q-30 0-56.5-10.5t-46-28.5-32-42.5T146 279h282zm95-38v-16l-1-16H146q1-30 13.5-56.5t33.5-46T241.5 76 300 65q48 0 83 21t55 51l66-53q-38-50-89.5-73.5T300-13q-54 0-100 18t-79 50.5T69 134 50 236q0 55 18.5 101.5T120 417t78 51.5 97 18.5 94.5-17 72-49 45.5-77.5T523 241zM242-146q0 23 16 40t41 17q26 0 42.5-16.5T358-146t-16.5-40.5T299-203q-25 0-41 17t-16 40z"/><glyph glyph-name="uni1EBA" unicode="Ẻ" horiz-adv-x="601" d="M185 88h370V0H86v708h454v-87H185V409h334v-85H185V88zm98 666q0 23 9.5 39.5T329 824q31 15 31 40 0 17-10 26.5t-30 9.5q-21 0-33-11.5T271 851l-66 8q8 46 38.5 68.5T322 950q49 0 76.5-24t27.5-59q0-53-51-76-17-8-23.5-17t-6.5-20h-62z"/><glyph glyph-name="uni1EBB" unicode="ẻ" horiz-adv-x="573" d="M428 279q-1 28-9.5 52.5t-25 42.5-41 28.5T295 413q-30 0-56.5-10.5t-46-28.5-32-42.5T146 279h282zm95-38v-16l-1-16H146q1-30 13.5-56.5t33.5-46T241.5 76 300 65q48 0 83 21t55 51l66-53q-38-50-89.5-73.5T300-13q-54 0-100 18t-79 50.5T69 134 50 236q0 55 18.5 101.5T120 417t78 51.5 97 18.5 94.5-17 72-49 45.5-77.5T523 241zM267 555q0 23 9.5 39.5T313 625q31 15 31 40 0 17-10 26.5t-30 9.5q-21 0-33-11.5T255 652l-66 8q8 46 38.5 68.5T306 751q49 0 76.5-24t27.5-59q0-53-51-76-17-8-23.5-17t-6.5-20h-62z"/><glyph glyph-name="uni1EBC" unicode="Ẽ" horiz-adv-x="601" d="M185 88h370V0H86v708h454v-87H185V409h334v-85H185V88zm-42 684q4 22 10.5 42.5t18.5 37 29.5 26.5 43.5 10q19 0 38.5-6t36.5-14q20-9 36.5-15.5T387 846q22 0 32.5 14.5T435 892h54q-4-22-10.5-42.5t-18.5-37-30-26.5-43-10q-19 0-39 6.5T310 797q-18 9-34.5 15t-30.5 6q-21 0-31.5-14.5T198 772h-55z"/><glyph glyph-name="uni1EBD" unicode="ẽ" horiz-adv-x="573" d="M428 279q-1 28-9.5 52.5t-25 42.5-41 28.5T295 413q-30 0-56.5-10.5t-46-28.5-32-42.5T146 279h282zm95-38v-16l-1-16H146q1-30 13.5-56.5t33.5-46T241.5 76 300 65q48 0 83 21t55 51l66-53q-38-50-89.5-73.5T300-13q-54 0-100 18t-79 50.5T69 134 50 236q0 55 18.5 101.5T120 417t78 51.5 97 18.5 94.5-17 72-49 45.5-77.5T523 241zM127 572q4 22 10.5 42.5t18.5 37 29.5 26.5 43.5 10q19 0 38.5-6t36.5-14q20-9 36.5-15.5T371 646q22 0 32.5 14.5T419 692h54q-4-22-10.5-42.5t-18.5-37-30-26.5-43-10q-19 0-39 6.5T294 597q-18 9-34.5 15t-30.5 6q-21 0-31.5-14.5T182 572h-55z"/><glyph glyph-name="uni1EBE" unicode="Ế" horiz-adv-x="601" d="M185 88h370V0H86v708h454v-87H185V409h334v-85H185V88zm206 666l-76 99-76-99h-89l112 144h108l111-144h-90zm110 234h111L502 858h-72z"/><glyph glyph-name="uni1EBF" unicode="ế" horiz-adv-x="573" d="M428 279q-1 28-9.5 52.5t-25 42.5-41 28.5T295 413q-30 0-56.5-10.5t-46-28.5-32-42.5T146 279h282zm95-38v-16l-1-16H146q1-30 13.5-56.5t33.5-46T241.5 76 300 65q48 0 83 21t55 51l66-53q-38-50-89.5-73.5T300-13q-54 0-100 18t-79 50.5T69 134 50 236q0 55 18.5 101.5T120 417t78 51.5 97 18.5 94.5-17 72-49 45.5-77.5T523 241zM375 544l-76 99-76-99h-89l112 144h108l111-144h-90zm113 249h112L486 658h-72z"/><glyph glyph-name="uni1EC0" unicode="Ề" horiz-adv-x="601" d="M185 88h370V0H86v708h454v-87H185V409h334v-85H185V88zm17 770h-73L20 988h110zm189-104l-76 99-76-99h-89l112 144h108l111-144h-90z"/><glyph glyph-name="uni1EC1" unicode="ề" horiz-adv-x="573" d="M428 279q-1 28-9.5 52.5t-25 42.5-41 28.5T295 413q-30 0-56.5-10.5t-46-28.5-32-42.5T146 279h282zm95-38v-16l-1-16H146q1-30 13.5-56.5t33.5-46T241.5 76 300 65q48 0 83 21t55 51l66-53q-38-50-89.5-73.5T300-13q-54 0-100 18t-79 50.5T69 134 50 236q0 55 18.5 101.5T120 417t78 51.5 97 18.5 94.5-17 72-49 45.5-77.5T523 241zM186 658h-73L0 793h111zm189-114l-76 99-76-99h-89l112 144h108l111-144h-90z"/><glyph glyph-name="uni1EC2" unicode="Ể" horiz-adv-x="601" d="M185 88h370V0H86v708h454v-87H185V409h334v-85H185V88zm270 756q0 20 7 34.5t29 26.5q8 5 13 9t7 12 1 13q-2 7-8.5 12t-17.5 5q-29 0-36-34l-58 7q6 35 31 53t63 18q40 0 63-18.5t23-45.5q0-23-10.5-37T528 874q-14-7-18.5-14t-4.5-16h-50zm-64-90l-76 99-76-99h-89l112 144h108l111-144h-90z"/><glyph glyph-name="uni1EC3" unicode="ể" horiz-adv-x="573" d="M428 279q-1 28-9.5 52.5t-25 42.5-41 28.5T295 413q-30 0-56.5-10.5t-46-28.5-32-42.5T146 279h282zm95-38v-16l-1-16H146q1-30 13.5-56.5t33.5-46T241.5 76 300 65q48 0 83 21t55 51l66-53q-38-50-89.5-73.5T300-13q-54 0-100 18t-79 50.5T69 134 50 236q0 55 18.5 101.5T120 417t78 51.5 97 18.5 94.5-17 72-49 45.5-77.5T523 241zm-89 408q0 20 7 34.5t29 26.5q8 5 13 9t7 12 1 13q-2 7-8.5 12t-17.5 5q-29 0-36-34l-58 7q6 35 31 53t63 18q40 0 63-18.5t23-45.5q0-23-10.5-37T507 679q-14-7-18.5-14t-4.5-16h-50zm-59-105l-76 99-76-99h-89l112 144h108l111-144h-90z"/><glyph glyph-name="uni1EC4" unicode="Ễ" horiz-adv-x="601" d="M185 88h370V0H86v708h454v-87H185V409h334v-85H185V88zm-30 814q4 20 10.5 39.5T183 976t27 24 40 9q20 0 37.5-6.5t33.5-14 31-13.5 29-6q21 0 31 13.5t15 30.5h49q-3-20-9.5-39T449 940t-27.5-24-40.5-9q-20 0-37 6t-33 13.5l-30.5 14L250 947q-20 0-30-13.5T205 902h-50zm234-148l-73 72-74-72h-92l112 114h108l111-114h-92z"/><glyph glyph-name="uni1EC5" unicode="ễ" horiz-adv-x="573" d="M428 279q-1 28-9.5 52.5t-25 42.5-41 28.5T295 413q-30 0-56.5-10.5t-46-28.5-32-42.5T146 279h282zm95-38v-16l-1-16H146q1-30 13.5-56.5t33.5-46T241.5 76 300 65q48 0 83 21t55 51l66-53q-38-50-89.5-73.5T300-13q-54 0-100 18t-79 50.5T69 134 50 236q0 55 18.5 101.5T120 417t78 51.5 97 18.5 94.5-17 72-49 45.5-77.5T523 241zM139 724q4 21 10.5 40.5T167 799t27 24.5 40 9.5q19 0 37-6.5t34.5-14.5l31-14.5L365 791q21 0 31 14.5t15 31.5h49q-3-20-9.5-39.5T433 763t-27.5-24.5T365 729q-20 0-37 6.5T295 750t-31 14.5-30 6.5q-20 0-30-14.5T189 724h-50zm236-180l-76 99-76-99h-89l112 144h108l111-144h-90z"/><glyph glyph-name="uni1EC6" unicode="Ệ" horiz-adv-x="601" d="M185 88h370V0H86v708h454v-87H185V409h334v-85H185V88zm73-234q0 23 16 40t41 17q26 0 42.5-16.5T374-146t-16.5-40.5T315-203q-25 0-41 17t-16 40zm224 910h-91l-75 99-76-99h-90l112 144h108z"/><glyph glyph-name="uni1EC7" unicode="ệ" horiz-adv-x="573" d="M428 279q-1 28-9.5 52.5t-25 42.5-41 28.5T295 413q-30 0-56.5-10.5t-46-28.5-32-42.5T146 279h282zm95-38v-16l-1-16H146q1-30 13.5-56.5t33.5-46T241.5 76 300 65q48 0 83 21t55 51l66-53q-38-50-89.5-73.5T300-13q-54 0-100 18t-79 50.5T69 134 50 236q0 55 18.5 101.5T120 417t78 51.5 97 18.5 94.5-17 72-49 45.5-77.5T523 241zm-57 323h-91l-75 99-76-99h-90l112 144h108zM242-146q0 23 16 40t41 17q26 0 42.5-16.5T358-146t-16.5-40.5T299-203q-25 0-41 17t-16 40z"/><glyph glyph-name="uni1EC8" unicode="Ỉ" horiz-adv-x="271" d="M185 0H86v708h99V0zm-83 754q0 23 9.5 39.5T148 824q31 15 31 40 0 17-10 26.5t-30 9.5q-21 0-33-11.5T90 851l-66 8q8 46 38.5 68.5T141 950q49 0 76.5-24t27.5-59q0-53-51-76-17-8-23.5-17t-6.5-20h-62z"/><glyph glyph-name="uni1EC9" unicode="ỉ" horiz-adv-x="259" d="M176 0H82v474h94V0zM96 555q0 23 9.5 39.5T142 625q31 15 31 40 0 17-10 26.5t-30 9.5q-21 0-33-11.5T84 652l-66 8q8 46 38.5 68.5T135 751q49 0 76.5-24t27.5-59q0-53-51-76-17-8-23.5-17t-6.5-20H96z"/><glyph glyph-name="uni1ECA" unicode="Ị" horiz-adv-x="271" d="M185 0H86v708h99V0zM77-146q0 23 16 40t41 17q26 0 42.5-16.5T193-146t-16.5-40.5T134-203q-25 0-41 17t-16 40z"/><glyph glyph-name="uni1ECB" unicode="ị" horiz-adv-x="259" d="M176 0H82v474h94V0zm16 645q0-26-18.5-43T129 585t-44 17.5T67 645q0 26 18 43.5t44 17.5 44.5-17.5T192 645zM71-146q0 23 16 40t41 17q26 0 42.5-16.5T187-146t-16.5-40.5T128-203q-25 0-41 17t-16 40z"/><glyph glyph-name="uni1ECC" unicode="Ọ" horiz-adv-x="849" d="M800 355q0-82-28.5-150.5T693 86.5t-119-77T424-18 274.5 9.5 156 86.5t-78 118T50 355q0 83 28 151.5t78 117T274.5 699 424 726t150-27 119-75.5 78.5-117T800 355zm-107 0q0 58-19 109.5T620 555t-84.5 61.5T424 639q-61 0-110.5-22.5t-84-61.5-53.5-90.5T157 355q0-59 19-111t54-90.5T314 93t110-22 111 22 85 60.5 54 90.5 19 111zM369-146q0 23 16 40t41 17q26 0 42.5-16.5T485-146t-16.5-40.5T426-203q-25 0-41 17t-16 40z"/><glyph glyph-name="uni1ECD" unicode="ọ" horiz-adv-x="610" d="M561 238q0-55-19.5-101t-54-79.5-81.5-52T305-13 204 5.5t-81 52T69.5 137 50 238t19.5 100.5T123 417t81 51.5T305 487t101-18.5 81.5-51.5 54-78.5T561 238zm-98 0q0 34-10.5 65T422 357.5 372.5 395 305 409t-67.5-14-49.5-37.5-30.5-54.5-10.5-65 10.5-65 30.5-55 49.5-38T305 66t67.5 14 49.5 38 30.5 55 10.5 65zM247-146q0 23 16 40t41 17q26 0 42.5-16.5T363-146t-16.5-40.5T304-203q-25 0-41 17t-16 40z"/><glyph glyph-name="uni1ECE" unicode="Ỏ" horiz-adv-x="849" d="M800 355q0-82-28.5-150.5T693 86.5t-119-77T424-18 274.5 9.5 156 86.5t-78 118T50 355q0 83 28 151.5t78 117T274.5 699 424 726t150-27 119-75.5 78.5-117T800 355zm-107 0q0 58-19 109.5T620 555t-84.5 61.5T424 639q-61 0-110.5-22.5t-84-61.5-53.5-90.5T157 355q0-59 19-111t54-90.5T314 93t110-22 111 22 85 60.5 54 90.5 19 111zM394 754q0 23 9.5 39.5T440 824q31 15 31 40 0 17-10 26.5t-30 9.5q-21 0-33-11.5T382 851l-66 8q8 46 38.5 68.5T433 950q49 0 76.5-24t27.5-59q0-53-51-76-17-8-23.5-17t-6.5-20h-62z"/><glyph glyph-name="uni1ECF" unicode="ỏ" horiz-adv-x="610" d="M561 238q0-55-19.5-101t-54-79.5-81.5-52T305-13 204 5.5t-81 52T69.5 137 50 238t19.5 100.5T123 417t81 51.5T305 487t101-18.5 81.5-51.5 54-78.5T561 238zm-98 0q0 34-10.5 65T422 357.5 372.5 395 305 409t-67.5-14-49.5-37.5-30.5-54.5-10.5-65 10.5-65 30.5-55 49.5-38T305 66t67.5 14 49.5 38 30.5 55 10.5 65zM272 555q0 23 9.5 39.5T318 625q31 15 31 40 0 17-10 26.5t-30 9.5q-21 0-33-11.5T260 652l-66 8q8 46 38.5 68.5T311 751q49 0 76.5-24t27.5-59q0-53-51-76-17-8-23.5-17t-6.5-20h-62z"/><glyph glyph-name="uni1ED0" unicode="Ố" horiz-adv-x="849" d="M800 355q0-82-28.5-150.5T693 86.5t-119-77T424-18 274.5 9.5 156 86.5t-78 118T50 355q0 83 28 151.5t78 117T274.5 699 424 726t150-27 119-75.5 78.5-117T800 355zm-107 0q0 58-19 109.5T620 555t-84.5 61.5T424 639q-61 0-110.5-22.5t-84-61.5-53.5-90.5T157 355q0-59 19-111t54-90.5T314 93t110-22 111 22 85 60.5 54 90.5 19 111zM502 754l-76 99-76-99h-89l112 144h108l111-144h-90zm110 234h111L613 858h-72z"/><glyph glyph-name="uni1ED1" unicode="ố" horiz-adv-x="610" d="M561 238q0-55-19.5-101t-54-79.5-81.5-52T305-13 204 5.5t-81 52T69.5 137 50 238t19.5 100.5T123 417t81 51.5T305 487t101-18.5 81.5-51.5 54-78.5T561 238zm-98 0q0 34-10.5 65T422 357.5 372.5 395 305 409t-67.5-14-49.5-37.5-30.5-54.5-10.5-65 10.5-65 30.5-55 49.5-38T305 66t67.5 14 49.5 38 30.5 55 10.5 65zm-83 306l-76 99-76-99h-89l112 144h108l111-144h-90zm113 249h112L491 658h-72z"/><glyph glyph-name="uni1ED2" unicode="Ồ" horiz-adv-x="849" d="M800 355q0-82-28.5-150.5T693 86.5t-119-77T424-18 274.5 9.5 156 86.5t-78 118T50 355q0 83 28 151.5t78 117T274.5 699 424 726t150-27 119-75.5 78.5-117T800 355zm-107 0q0 58-19 109.5T620 555t-84.5 61.5T424 639q-61 0-110.5-22.5t-84-61.5-53.5-90.5T157 355q0-59 19-111t54-90.5T314 93t110-22 111 22 85 60.5 54 90.5 19 111zM313 858h-73L131 988h110zm189-104l-76 99-76-99h-89l112 144h108l111-144h-90z"/><glyph glyph-name="uni1ED3" unicode="ồ" horiz-adv-x="610" d="M561 238q0-55-19.5-101t-54-79.5-81.5-52T305-13 204 5.5t-81 52T69.5 137 50 238t19.5 100.5T123 417t81 51.5T305 487t101-18.5 81.5-51.5 54-78.5T561 238zm-98 0q0 34-10.5 65T422 357.5 372.5 395 305 409t-67.5-14-49.5-37.5-30.5-54.5-10.5-65 10.5-65 30.5-55 49.5-38T305 66t67.5 14 49.5 38 30.5 55 10.5 65zM191 658h-73L5 793h111zm189-114l-76 99-76-99h-89l112 144h108l111-144h-90z"/><glyph glyph-name="uni1ED4" unicode="Ổ" horiz-adv-x="849" d="M800 355q0-82-28.5-150.5T693 86.5t-119-77T424-18 274.5 9.5 156 86.5t-78 118T50 355q0 83 28 151.5t78 117T274.5 699 424 726t150-27 119-75.5 78.5-117T800 355zm-107 0q0 58-19 109.5T620 555t-84.5 61.5T424 639q-61 0-110.5-22.5t-84-61.5-53.5-90.5T157 355q0-59 19-111t54-90.5T314 93t110-22 111 22 85 60.5 54 90.5 19 111zM566 844q0 20 7 34.5t29 26.5q8 5 13 9t7 12 1 13q-2 7-8.5 12t-17.5 5q-29 0-36-34l-58 7q6 35 31 53t63 18q40 0 63-18.5t23-45.5q0-23-10.5-37T639 874q-14-7-18.5-14t-4.5-16h-50zm-64-90l-76 99-76-99h-89l112 144h108l111-144h-90z"/><glyph glyph-name="uni1ED5" unicode="ổ" horiz-adv-x="610" d="M561 238q0-55-19.5-101t-54-79.5-81.5-52T305-13 204 5.5t-81 52T69.5 137 50 238t19.5 100.5T123 417t81 51.5T305 487t101-18.5 81.5-51.5 54-78.5T561 238zm-98 0q0 34-10.5 65T422 357.5 372.5 395 305 409t-67.5-14-49.5-37.5-30.5-54.5-10.5-65 10.5-65 30.5-55 49.5-38T305 66t67.5 14 49.5 38 30.5 55 10.5 65zm-24 411q0 20 7 34.5t29 26.5q8 5 13 9t7 12 1 13q-2 7-8.5 12t-17.5 5q-29 0-36-34l-58 7q6 35 31 53t63 18q40 0 63-18.5t23-45.5q0-23-10.5-37T512 679q-14-7-18.5-14t-4.5-16h-50zm-59-105l-76 99-76-99h-89l112 144h108l111-144h-90z"/><glyph glyph-name="uni1ED6" unicode="Ỗ" horiz-adv-x="849" d="M800 355q0-82-28.5-150.5T693 86.5t-119-77T424-18 274.5 9.5 156 86.5t-78 118T50 355q0 83 28 151.5t78 117T274.5 699 424 726t150-27 119-75.5 78.5-117T800 355zm-107 0q0 58-19 109.5T620 555t-84.5 61.5T424 639q-61 0-110.5-22.5t-84-61.5-53.5-90.5T157 355q0-59 19-111t54-90.5T314 93t110-22 111 22 85 60.5 54 90.5 19 111zM266 902q4 20 10.5 39.5T294 976t27 24 40 9q20 0 37.5-6.5t33.5-14 31-13.5 29-6q21 0 31 13.5t15 30.5h49q-3-20-9.5-39T560 940t-27.5-24-40.5-9q-20 0-37 6t-33 13.5l-30.5 14L361 947q-20 0-30-13.5T316 902h-50zm234-148l-73 72-74-72h-92l112 114h108l111-114h-92z"/><glyph glyph-name="uni1ED7" unicode="ỗ" horiz-adv-x="610" d="M561 238q0-55-19.5-101t-54-79.5-81.5-52T305-13 204 5.5t-81 52T69.5 137 50 238t19.5 100.5T123 417t81 51.5T305 487t101-18.5 81.5-51.5 54-78.5T561 238zm-98 0q0 34-10.5 65T422 357.5 372.5 395 305 409t-67.5-14-49.5-37.5-30.5-54.5-10.5-65 10.5-65 30.5-55 49.5-38T305 66t67.5 14 49.5 38 30.5 55 10.5 65zM144 724q4 21 10.5 40.5T172 799t27 24.5 40 9.5q19 0 37-6.5t34.5-14.5l31-14.5L370 791q21 0 31 14.5t15 31.5h49q-3-20-9.5-39.5T438 763t-27.5-24.5T370 729q-20 0-37 6.5T300 750t-31 14.5-30 6.5q-20 0-30-14.5T194 724h-50zm236-180l-76 99-76-99h-89l112 144h108l111-144h-90z"/><glyph glyph-name="uni1ED8" unicode="Ộ" horiz-adv-x="849" d="M800 355q0-82-28.5-150.5T693 86.5t-119-77T424-18 274.5 9.5 156 86.5t-78 118T50 355q0 83 28 151.5t78 117T274.5 699 424 726t150-27 119-75.5 78.5-117T800 355zm-107 0q0 58-19 109.5T620 555t-84.5 61.5T424 639q-61 0-110.5-22.5t-84-61.5-53.5-90.5T157 355q0-59 19-111t54-90.5T314 93t110-22 111 22 85 60.5 54 90.5 19 111zM369-146q0 23 16 40t41 17q26 0 42.5-16.5T485-146t-16.5-40.5T426-203q-25 0-41 17t-16 40zm224 910h-91l-75 99-76-99h-90l112 144h108z"/><glyph glyph-name="uni1ED9" unicode="ộ" horiz-adv-x="610" d="M561 238q0-55-19.5-101t-54-79.5-81.5-52T305-13 204 5.5t-81 52T69.5 137 50 238t19.5 100.5T123 417t81 51.5T305 487t101-18.5 81.5-51.5 54-78.5T561 238zm-98 0q0 34-10.5 65T422 357.5 372.5 395 305 409t-67.5-14-49.5-37.5-30.5-54.5-10.5-65 10.5-65 30.5-55 49.5-38T305 66t67.5 14 49.5 38 30.5 55 10.5 65zm8 326h-91l-75 99-76-99h-90l112 144h108zM247-146q0 23 16 40t41 17q26 0 42.5-16.5T363-146t-16.5-40.5T304-203q-25 0-41 17t-16 40z"/><glyph glyph-name="uni1EDA" unicode="Ớ" horiz-adv-x="849" d="M829 742q0-62-33.5-94.5T702 613q48-51 73-117t25-141q0-82-28.5-150.5T693 86.5t-119-77T424-18 274.5 9.5 156 86.5t-78 118T50 355q0 83 28 151.5t78 117T274.5 699 424 726q52 0 88.5-9t64-19.5L626 678l46-9q42 0 59 19t17 54q0 15-4.5 31.5T732 801l81 21q16-32 16-80zM157 355q0-59 19-111t53.5-90.5 84-60.5T424 71t111 22 85 60.5 54 90.5 19 111q0 58-19 109.5T620 555t-84.5 61.5T424 639t-111-22.5-84-61.5-53.5-90.5T157 355zm281 409h-76l99 144h114z"/><glyph glyph-name="uni1EDB" unicode="ớ" horiz-adv-x="617" d="M633 525q0-62-33-94.5T507 396q27-34 40.5-74t13.5-84q0-55-19.5-101t-54-79.5-81.5-52T305-13 204 5.5t-81 52T69.5 137 50 238t19.5 100.5T123 417t81 51.5T305 487q33 0 57-5.5t43-12.5 35.5-12.5T475 451q42 0 59.5 19.5T552 525q0 15-4.5 31.5T536 584l81 21q16-32 16-80zM147 238q0-34 10.5-65t30.5-55 49.5-38T305 66t67.5 14 49.5 38 30.5 55 10.5 65-10.5 65-30.5 54.5-49.5 37.5-67.5 14-67.5-14-49.5-37.5-30.5-54.5-10.5-65zm171 326h-77l100 144h113z"/><glyph glyph-name="uni1EDC" unicode="Ờ" horiz-adv-x="849" d="M829 742q0-62-33.5-94.5T702 613q48-51 73-117t25-141q0-82-28.5-150.5T693 86.5t-119-77T424-18 274.5 9.5 156 86.5t-78 118T50 355q0 83 28 151.5t78 117T274.5 699 424 726q52 0 88.5-9t64-19.5L626 678l46-9q42 0 59 19t17 54q0 15-4.5 31.5T732 801l81 21q16-32 16-80zM157 355q0-59 19-111t53.5-90.5 84-60.5T424 71t111 22 85 60.5 54 90.5 19 111q0 58-19 109.5T620 555t-84.5 61.5T424 639t-111-22.5-84-61.5-53.5-90.5T157 355zm122 553h114l100-144h-77z"/><glyph glyph-name="uni1EDD" unicode="ờ" horiz-adv-x="617" d="M633 525q0-62-33-94.5T507 396q27-34 40.5-74t13.5-84q0-55-19.5-101t-54-79.5-81.5-52T305-13 204 5.5t-81 52T69.5 137 50 238t19.5 100.5T123 417t81 51.5T305 487q33 0 57-5.5t43-12.5 35.5-12.5T475 451q42 0 59.5 19.5T552 525q0 15-4.5 31.5T536 584l81 21q16-32 16-80zM147 238q0-34 10.5-65t30.5-55 49.5-38T305 66t67.5 14 49.5 38 30.5 55 10.5 65-10.5 65-30.5 54.5-49.5 37.5-67.5 14-67.5-14-49.5-37.5-30.5-54.5-10.5-65zm14 470h113l100-144h-77z"/><glyph glyph-name="uni1EDE" unicode="Ở" horiz-adv-x="849" d="M829 742q0-62-33.5-94.5T702 613q48-51 73-117t25-141q0-82-28.5-150.5T693 86.5t-119-77T424-18 274.5 9.5 156 86.5t-78 118T50 355q0 83 28 151.5t78 117T274.5 699 424 726q52 0 88.5-9t64-19.5L626 678l46-9q42 0 59 19t17 54q0 15-4.5 31.5T732 801l81 21q16-32 16-80zM157 355q0-59 19-111t53.5-90.5 84-60.5T424 71t111 22 85 60.5 54 90.5 19 111q0 58-19 109.5T620 555t-84.5 61.5T424 639t-111-22.5-84-61.5-53.5-90.5T157 355zm237 399q0 23 9.5 39.5T440 824q31 15 31 40 0 17-10 26.5t-30 9.5q-21 0-33-11.5T382 851l-66 8q8 46 38.5 68.5T433 950q49 0 76.5-24t27.5-59q0-53-51-76-17-8-23.5-17t-6.5-20h-62z"/><glyph glyph-name="uni1EDF" unicode="ở" horiz-adv-x="617" d="M633 525q0-62-33-94.5T507 396q27-34 40.5-74t13.5-84q0-55-19.5-101t-54-79.5-81.5-52T305-13 204 5.5t-81 52T69.5 137 50 238t19.5 100.5T123 417t81 51.5T305 487q33 0 57-5.5t43-12.5 35.5-12.5T475 451q42 0 59.5 19.5T552 525q0 15-4.5 31.5T536 584l81 21q16-32 16-80zM147 238q0-34 10.5-65t30.5-55 49.5-38T305 66t67.5 14 49.5 38 30.5 55 10.5 65-10.5 65-30.5 54.5-49.5 37.5-67.5 14-67.5-14-49.5-37.5-30.5-54.5-10.5-65zm125 317q0 23 9.5 39.5T318 625q31 15 31 40 0 17-10 26.5t-30 9.5q-21 0-33-11.5T260 652l-66 8q8 46 38.5 68.5T311 751q49 0 76.5-24t27.5-59q0-53-51-76-17-8-23.5-17t-6.5-20h-62z"/><glyph glyph-name="uni1EE0" unicode="Ỡ" horiz-adv-x="849" d="M829 742q0-62-33.5-94.5T702 613q48-51 73-117t25-141q0-82-28.5-150.5T693 86.5t-119-77T424-18 274.5 9.5 156 86.5t-78 118T50 355q0 83 28 151.5t78 117T274.5 699 424 726q52 0 88.5-9t64-19.5L626 678l46-9q42 0 59 19t17 54q0 15-4.5 31.5T732 801l81 21q16-32 16-80zM157 355q0-59 19-111t53.5-90.5 84-60.5T424 71t111 22 85 60.5 54 90.5 19 111q0 58-19 109.5T620 555t-84.5 61.5T424 639t-111-22.5-84-61.5-53.5-90.5T157 355zm97 417q4 22 10.5 42.5t18.5 37 29.5 26.5 43.5 10q19 0 38.5-6t36.5-14q20-9 36.5-15.5T498 846q22 0 32.5 14.5T546 892h54q-4-22-10.5-42.5t-18.5-37-30-26.5-43-10q-19 0-39 6.5T421 797q-18 9-34.5 15t-30.5 6q-21 0-31.5-14.5T309 772h-55z"/><glyph glyph-name="uni1EE1" unicode="ỡ" horiz-adv-x="617" d="M633 525q0-62-33-94.5T507 396q27-34 40.5-74t13.5-84q0-55-19.5-101t-54-79.5-81.5-52T305-13 204 5.5t-81 52T69.5 137 50 238t19.5 100.5T123 417t81 51.5T305 487q33 0 57-5.5t43-12.5 35.5-12.5T475 451q42 0 59.5 19.5T552 525q0 15-4.5 31.5T536 584l81 21q16-32 16-80zM147 238q0-34 10.5-65t30.5-55 49.5-38T305 66t67.5 14 49.5 38 30.5 55 10.5 65-10.5 65-30.5 54.5-49.5 37.5-67.5 14-67.5-14-49.5-37.5-30.5-54.5-10.5-65zm-15 334q4 22 10.5 42.5t18.5 37 29.5 26.5 43.5 10q19 0 38.5-6t36.5-14q20-9 36.5-15.5T376 646q22 0 32.5 14.5T424 692h54q-4-22-10.5-42.5t-18.5-37-30-26.5-43-10q-19 0-39 6.5T299 597q-18 9-34.5 15t-30.5 6q-21 0-31.5-14.5T187 572h-55z"/><glyph glyph-name="uni1EE2" unicode="Ợ" horiz-adv-x="849" d="M829 742q0-62-33.5-94.5T702 613q48-51 73-117t25-141q0-82-28.5-150.5T693 86.5t-119-77T424-18 274.5 9.5 156 86.5t-78 118T50 355q0 83 28 151.5t78 117T274.5 699 424 726q52 0 88.5-9t64-19.5L626 678l46-9q42 0 59 19t17 54q0 15-4.5 31.5T732 801l81 21q16-32 16-80zM157 355q0-59 19-111t53.5-90.5 84-60.5T424 71t111 22 85 60.5 54 90.5 19 111q0 58-19 109.5T620 555t-84.5 61.5T424 639t-111-22.5-84-61.5-53.5-90.5T157 355zm212-501q0 23 16 40t41 17q26 0 42.5-16.5T485-146t-16.5-40.5T426-203q-25 0-41 17t-16 40z"/><glyph glyph-name="uni1EE3" unicode="ợ" horiz-adv-x="617" d="M633 525q0-62-33-94.5T507 396q27-34 40.5-74t13.5-84q0-55-19.5-101t-54-79.5-81.5-52T305-13 204 5.5t-81 52T69.5 137 50 238t19.5 100.5T123 417t81 51.5T305 487q33 0 57-5.5t43-12.5 35.5-12.5T475 451q42 0 59.5 19.5T552 525q0 15-4.5 31.5T536 584l81 21q16-32 16-80zM147 238q0-34 10.5-65t30.5-55 49.5-38T305 66t67.5 14 49.5 38 30.5 55 10.5 65-10.5 65-30.5 54.5-49.5 37.5-67.5 14-67.5-14-49.5-37.5-30.5-54.5-10.5-65zm100-384q0 23 16 40t41 17q26 0 42.5-16.5T363-146t-16.5-40.5T304-203q-25 0-41 17t-16 40z"/><glyph glyph-name="uni1EE4" unicode="Ụ" horiz-adv-x="712" d="M356-18q-70 0-122 23.5T148 68t-50.5 89.5T81 262v446h99V268q0-36 9-71.5t29.5-63.5 54-45T356 71q49 0 83 17t54.5 45 29.5 63.5 9 71.5v440h99V262q0-54-16.5-104.5T564 68 478 5.5 356-18zm-58-128q0 23 16 40t41 17q26 0 42.5-16.5T414-146t-16.5-40.5T355-203q-25 0-41 17t-16 40z"/><glyph glyph-name="uni1EE5" unicode="ụ" horiz-adv-x="582" d="M415 0q-2 18-3 40.5T411 78h-2q-18-38-60.5-64.5T254-13q-46 0-79.5 15t-55 41.5-32 61.5T77 180v294h94V212q0-29 4.5-55.5T192 110t33-32 54-12q57 0 92 42.5T406 222v252h94V102q0-19 1-49t3-53h-89zM231-146q0 23 16 40t41 17q26 0 42.5-16.5T347-146t-16.5-40.5T288-203q-25 0-41 17t-16 40z"/><glyph glyph-name="uni1EE6" unicode="Ủ" horiz-adv-x="712" d="M356-18q-70 0-122 23.5T148 68t-50.5 89.5T81 262v446h99V268q0-36 9-71.5t29.5-63.5 54-45T356 71q49 0 83 17t54.5 45 29.5 63.5 9 71.5v440h99V262q0-54-16.5-104.5T564 68 478 5.5 356-18zm-33 772q0 23 9.5 39.5T369 824q31 15 31 40 0 17-10 26.5t-30 9.5q-21 0-33-11.5T311 851l-66 8q8 46 38.5 68.5T362 950q49 0 76.5-24t27.5-59q0-53-51-76-17-8-23.5-17t-6.5-20h-62z"/><glyph glyph-name="uni1EE7" unicode="ủ" horiz-adv-x="582" d="M415 0q-2 18-3 40.5T411 78h-2q-18-38-60.5-64.5T254-13q-46 0-79.5 15t-55 41.5-32 61.5T77 180v294h94V212q0-29 4.5-55.5T192 110t33-32 54-12q57 0 92 42.5T406 222v252h94V102q0-19 1-49t3-53h-89zM256 555q0 23 9.5 39.5T302 625q31 15 31 40 0 17-10 26.5t-30 9.5q-21 0-33-11.5T244 652l-66 8q8 46 38.5 68.5T295 751q49 0 76.5-24t27.5-59q0-53-51-76-17-8-23.5-17t-6.5-20h-62z"/><glyph glyph-name="uni1EE8" unicode="Ứ" horiz-adv-x="722" d="M631 262q0-54-16.5-104.5T564 68 478 5.5 356-18 234 5.5 148 68t-50.5 89.5T81 262v446h99V268q0-37 9-72.5t29.5-63 54-44.5T356 71q49 0 83 17t54.5 44.5 29.5 63 9 72.5v440h67q42 0 59.5 19t17.5 55q0 15-4.5 31T660 841l81 21q16-33 16-80 0-63-33.5-95.5T631 652V262zM367 764h-76l99 144h114z"/><glyph glyph-name="uni1EE9" unicode="ứ" horiz-adv-x="597" d="M301 564h-77l100 144h113zM415 0q-2 18-3 40.5T411 78h-2q-18-38-60.5-64.5T254-13q-46 0-79.5 15t-55 41.5-32 61.5T77 180v294h94V212q0-29 4.5-55.5T192 110t33-32 54-12q57 0 92 42.5T406 222v252h62q42 0 60 19t18 55q0 15-4.5 31T530 607l81 21q16-33 16-80 0-63-33.5-95.5T500 418V102q0-19 1-49t3-53h-89z"/><glyph glyph-name="uni1EEA" unicode="Ừ" horiz-adv-x="722" d="M631 262q0-54-16.5-104.5T564 68 478 5.5 356-18 234 5.5 148 68t-50.5 89.5T81 262v446h99V268q0-37 9-72.5t29.5-63 54-44.5T356 71q49 0 83 17t54.5 44.5 29.5 63 9 72.5v440h67q42 0 59.5 19t17.5 55q0 15-4.5 31T660 841l81 21q16-33 16-80 0-63-33.5-95.5T631 652V262zM208 908h114l100-144h-77z"/><glyph glyph-name="uni1EEB" unicode="ừ" horiz-adv-x="597" d="M145 708h113l100-144h-77zM415 0q-2 18-3 40.5T411 78h-2q-18-38-60.5-64.5T254-13q-46 0-79.5 15t-55 41.5-32 61.5T77 180v294h94V212q0-29 4.5-55.5T192 110t33-32 54-12q57 0 92 42.5T406 222v252h62q42 0 60 19t18 55q0 15-4.5 31T530 607l81 21q16-33 16-80 0-63-33.5-95.5T500 418V102q0-19 1-49t3-53h-89z"/><glyph glyph-name="uni1EEC" unicode="Ử" horiz-adv-x="722" d="M631 262q0-54-16.5-104.5T564 68 478 5.5 356-18 234 5.5 148 68t-50.5 89.5T81 262v446h99V268q0-37 9-72.5t29.5-63 54-44.5T356 71q49 0 83 17t54.5 44.5 29.5 63 9 72.5v440h67q42 0 59.5 19t17.5 55q0 15-4.5 31T660 841l81 21q16-33 16-80 0-63-33.5-95.5T631 652V262zM323 754q0 23 9.5 39.5T369 824q31 15 31 40 0 17-10 26.5t-30 9.5q-21 0-33-11.5T311 851l-66 8q8 46 38.5 68.5T362 950q49 0 76.5-24t27.5-59q0-53-51-76-17-8-23.5-17t-6.5-20h-62z"/><glyph glyph-name="uni1EED" unicode="ử" horiz-adv-x="597" d="M415 0q-2 18-3 40.5T411 78h-2q-18-38-60.5-64.5T254-13q-46 0-79.5 15t-55 41.5-32 61.5T77 180v294h94V212q0-29 4.5-55.5T192 110t33-32 54-12q57 0 92 42.5T406 222v252h62q42 0 60 19t18 55q0 15-4.5 31T530 607l81 21q16-33 16-80 0-63-33.5-95.5T500 418V102q0-19 1-49t3-53h-89zM256 555q0 23 9.5 39.5T302 625q31 15 31 40 0 17-10 26.5t-30 9.5q-21 0-33-11.5T244 652l-66 8q8 46 38.5 68.5T295 751q49 0 76.5-24t27.5-59q0-53-51-76-17-8-23.5-17t-6.5-20h-62z"/><glyph glyph-name="uni1EEE" unicode="Ữ" horiz-adv-x="722" d="M631 262q0-54-16.5-104.5T564 68 478 5.5 356-18 234 5.5 148 68t-50.5 89.5T81 262v446h99V268q0-37 9-72.5t29.5-63 54-44.5T356 71q49 0 83 17t54.5 44.5 29.5 63 9 72.5v440h67q42 0 59.5 19t17.5 55q0 15-4.5 31T660 841l81 21q16-33 16-80 0-63-33.5-95.5T631 652V262zM183 772q4 22 10.5 42.5t18.5 37 29.5 26.5 43.5 10q19 0 38.5-6t36.5-14q20-9 36.5-15.5T427 846q22 0 32.5 14.5T475 892h54q-4-22-10.5-42.5t-18.5-37-30-26.5-43-10q-19 0-39 6.5T350 797q-18 9-34.5 15t-30.5 6q-21 0-31.5-14.5T238 772h-55z"/><glyph glyph-name="uni1EEF" unicode="ữ" horiz-adv-x="597" d="M116 572q4 22 10.5 42.5t18.5 37 29.5 26.5 43.5 10q19 0 38.5-6t36.5-14q20-9 36.5-15.5T360 646q22 0 32.5 14.5T408 692h54q-4-22-10.5-42.5t-18.5-37-30-26.5-43-10q-19 0-39 6.5T283 597q-18 9-34.5 15t-30.5 6q-21 0-31.5-14.5T171 572h-55zM415 0q-2 18-3 40.5T411 78h-2q-18-38-60.5-64.5T254-13q-46 0-79.5 15t-55 41.5-32 61.5T77 180v294h94V212q0-29 4.5-55.5T192 110t33-32 54-12q57 0 92 42.5T406 222v252h62q42 0 60 19t18 55q0 15-4.5 31T530 607l81 21q16-33 16-80 0-63-33.5-95.5T500 418V102q0-19 1-49t3-53h-89z"/><glyph glyph-name="uni1EF0" unicode="Ự" horiz-adv-x="722" d="M631 262q0-54-16.5-104.5T564 68 478 5.5 356-18 234 5.5 148 68t-50.5 89.5T81 262v446h99V268q0-37 9-72.5t29.5-63 54-44.5T356 71q49 0 83 17t54.5 44.5 29.5 63 9 72.5v440h67q42 0 59.5 19t17.5 55q0 15-4.5 31T660 841l81 21q16-33 16-80 0-63-33.5-95.5T631 652V262zM298-146q0 23 16 40t41 17q26 0 42.5-16.5T414-146t-16.5-40.5T355-203q-25 0-41 17t-16 40z"/><glyph glyph-name="uni1EF1" unicode="ự" horiz-adv-x="597" d="M415 0q-2 18-3 40.5T411 78h-2q-18-38-60.5-64.5T254-13q-46 0-79.5 15t-55 41.5-32 61.5T77 180v294h94V212q0-29 4.5-55.5T192 110t33-32 54-12q57 0 92 42.5T406 222v252h62q42 0 60 19t18 55q0 15-4.5 31T530 607l81 21q16-33 16-80 0-63-33.5-95.5T500 418V102q0-19 1-49t3-53h-89zM254-146q0 23 16 40t41 17q26 0 42.5-16.5T370-146t-16.5-40.5T311-203q-25 0-41 17t-16 40z"/><glyph glyph-name="Ygrave" unicode="Ỳ" horiz-adv-x="624" d="M362 0H262v306L-3 708h122l196-320 197 320h115L362 306V0zM159 908h114l100-144h-77z"/><glyph glyph-name="ygrave" unicode="ỳ" horiz-adv-x="504" d="M261 102h2l131 372h100L264-112q-12-30-26-53.5t-33-40-44.5-25.5-60.5-9q-15 0-30.5 1.5T38-233l9 83q24-8 47-8 37 0 55 20.5T182-79l30 79L9 474h105zM115 708h113l100-144h-77z"/><glyph glyph-name="quotereversed" unicode="‛" horiz-adv-x="246" d="M204 458h-79L42 708h93z"/><glyph glyph-name="dong" unicode="₫" horiz-adv-x="635" d="M550-140H64v57h486v-57zm57 710h-55V0h-91v75h-2q-27-43-73.5-65.5T288-13q-55 0-99 19.5T114 60t-48 80-17 98 17 97.5 48.5 79.5 75.5 53 97 19q58 0 101-24.5t68-59.5h2v167H295v62h163v124h94V632h55v-62zM146 238q0-34 10-65t30-55 49.5-38T304 66q36 0 65.5 14t50.5 37.5 32.5 54.5 11.5 65-11.5 65-32.5 55-50.5 38-65.5 14q-39 0-68.5-14T186 357t-30-55-10-64z"/><glyph glyph-name="dotmath" unicode="⋅" horiz-adv-x="260" d="M198 303q0-26-19-46t-48-20-48.5 19.5T63 302q0 27 19.5 47t48.5 20q28 0 47.5-19.5T198 303z"/><glyph glyph-name="dotbelowcomb" d="M67-146q0 23 16 40t41 17q26 0 42.5-16.5T183-146t-16.5-40.5T124-203q-25 0-41 17t-16 40z"/><glyph glyph-name="gravecmb" unicode="̀" horiz-adv-x="0" d="M-250 708h113l100-144h-77z"/><glyph glyph-name="acutecmb" unicode="́" horiz-adv-x="0" d="M-173 564h-77l100 144h113z"/><glyph glyph-name="circumflexcmb" unicode="̂" horiz-adv-x="0" d="M82 564H-9l-75 99-76-99h-90l112 144h108z"/><glyph glyph-name="tildecmb" unicode="̃" horiz-adv-x="0" d="M-250 572q4 22 10.5 42.5t18.5 37 29.5 26.5 43.5 10q19 0 38.5-6t36.5-14q20-9 36.5-15.5T-6 646q22 0 32.5 14.5T42 692h54q-4-22-10.5-42.5t-18.5-37T37 586t-43-10q-19 0-39 6.5T-83 597q-18 9-34.5 15t-30.5 6q-21 0-31.5-14.5T-195 572h-55z"/><glyph glyph-name="macroncmb" unicode="̄" horiz-adv-x="0" d="M46 597h-296v67H46v-67z"/><glyph glyph-name="brevecmb" unicode="̆" horiz-adv-x="0" d="M68 708q-6-69-49.5-103.5T-91 570q-67 0-110.5 34.5T-250 708h56q7-38 36-55t67-17q41 0 68 15.5T13 708h55z"/><glyph glyph-name="dotaccentcmb" unicode="̇" horiz-adv-x="0" d="M-125 645q0-26-18.5-43t-44.5-17-44 17.5-18 42.5q0 26 18 43.5t44 17.5 44.5-17.5T-125 645z"/><glyph glyph-name="dieresiscmb" unicode="̈" horiz-adv-x="0" d="M-250 645q0 24 17.5 42.5T-188 706q26 0 44-17.5t18-43.5q0-25-18-42.5t-44-17.5q-27 0-44.5 18.5T-250 645zm194 0q0 24 17.5 42.5T6 706q26 0 44-17.5T68 645q0-25-18-42.5T6 585q-27 0-44.5 18.5T-56 645z"/><glyph glyph-name="ringcmb" unicode="̊" horiz-adv-x="0" d="M-49 653q0-43-29.5-71t-71.5-28q-21 0-39 7.5t-31.5 20.5-21.5 31-8 39q0 43 29 71t71 28 71.5-28 29.5-70zm-42 0q0 24-17.5 40t-41.5 16q-23 0-40.5-16t-17.5-40 17.5-40.5T-150 596q24 0 41.5 16t17.5 41z"/><glyph glyph-name="hungarumlautcmb" unicode="̋" horiz-adv-x="0" d="M-173 564h-77l100 144h114zm183 0h-77L33 708h113z"/><glyph glyph-name="caroncmb" unicode="̌" horiz-adv-x="0" d="M-32 564h-107l-111 144h90l76-99 76 99h88z"/><glyph glyph-name="doublegravecmb" unicode="̏" horiz-adv-x="0" d="M-250 708h113l100-144h-77zm-190 0h113l100-144h-77z"/><glyph glyph-name="invertedbrevecmb" unicode="̑" horiz-adv-x="0" d="M0 708q-6-69-49.5-103.5T-159 570q-67 0-110.5 34.5T-318 708h56q7-38 36-55t67-17q41 0 68 15.5t36 56.5H0z"/><glyph glyph-name="horncmb" unicode="̛" horiz-adv-x="0" d="M-220 474q42 0 60 19t18 55q0 15-4.5 31t-11.5 28l81 21q16-33 16-80 0-63-33.5-95.5T-188 418q-30-1-53 4t-39 12q-18 8-33 18l1 22h92z"/><glyph glyph-name="dotbelowcmb" unicode="̣" horiz-adv-x="0" d="M-126-135q0-26-19-46t-48-20q-28 0-47.5 19.5T-260-136q0 27 19 46.5t48 19.5 48-19 19-46z"/><glyph glyph-name="dieresisbelowcmb" unicode="̤" horiz-adv-x="0" d="M-250-131q0 24 17.5 42.5T-188-70q26 0 44-17.5t18-43.5q0-25-18-42.5t-44-17.5q-27 0-44.5 18.5T-250-131zm194 0q0 24 17.5 42.5T6-70q26 0 44-17.5T68-131q0-25-18-42.5T6-191q-27 0-44.5 18.5T-56-131z"/><glyph glyph-name="ringbelowcmb" unicode="̥" horiz-adv-x="0" d="M-49-168q0-43-29.5-71t-71.5-28q-21 0-39 7.5t-31.5 20.5-21.5 31-8 39q0 43 29 71t71 28 71.5-28 29.5-70zm-42 0q0 24-17.5 40t-41.5 16q-23 0-40.5-16t-17.5-40 17.5-40.5T-150-225q24 0 41.5 16t17.5 41z"/><glyph glyph-name="commabelowcmb" unicode="̦" horiz-adv-x="0" d="M-180-320h-80l69 250h94z"/><glyph glyph-name="cedillacmb" unicode="̧" horiz-adv-x="0" d="M-141-69q7 2 13 2h14q17 0 33.5-4t30-13 22-24 8.5-37q0-26-12-43.5t-30.5-28-41-14.5-43.5-4q-26 0-54 6t-49 17l20 42q37-17 77-17 8 0 18.5 2t20 6.5 16 12.5 6.5 21q0 22-17 30t-37 8q-9 0-20-2t-21-5l-20 20 62 94h50z"/><glyph glyph-name="ogonekcmb" unicode="̨" horiz-adv-x="0" d="M-58-189q-20-17-44.5-27t-50.5-10q-19 0-36.5 6t-31 17-21.5 27.5-8 36.5q0 21 9 42t23 39.5 30.5 35T-155 6h54q-15-14-29-29.5T-155.5-55-174-87t-7-32q0-20 14-33.5t34-13.5q14 0 28 6t25 16z"/><glyph glyph-name="circumflexbelowcmb" unicode="̭" horiz-adv-x="0" d="M82-214H-9l-75 99-76-99h-90l112 144h108z"/><glyph glyph-name="brevebelowcmb" unicode="̮" horiz-adv-x="0" d="M68-70q-6-69-49.5-103.5T-91-208q-67 0-110.5 34.5T-250-70h56q7-38 36-55t67-17q41 0 68 15.5T13-70h55z"/><glyph glyph-name="tildebelowcmb" unicode="̰" horiz-adv-x="0" d="M-250-190q4 22 10.5 42.5t18.5 37 29.5 26.5 43.5 10q19 0 38.5-6T-73-94q20-9 36.5-15.5T-6-116q22 0 32.5 14.5T42-70h54q-4-22-10.5-42.5t-18.5-37T37-176t-43-10q-19 0-39 6.5T-83-165q-18 9-34.5 15t-30.5 6q-21 0-31.5-14.5T-195-190h-55z"/><glyph glyph-name="macronbelowcmb" unicode="̱" horiz-adv-x="0" d="M46-137h-296v67H46v-67z"/><glyph glyph-name="clickdental" unicode="ǀ" horiz-adv-x="222" d="M152 750V-250H70V750h82z"/><glyph glyph-name="clicklateral" unicode="ǁ" horiz-adv-x="444" d="M152 750V-250H70V750h82zm222 0V-250h-82V750h82z"/><glyph glyph-name="combininggraphemejoiner" unicode="͏" horiz-adv-x="500"/><glyph glyph-name="zerowidthspace" unicode="​" horiz-adv-x="500"/><glyph glyph-name="afii61664" unicode="‌" horiz-adv-x="500"/><glyph glyph-name="afii301" unicode="‍" horiz-adv-x="500"/><glyph glyph-name="centigrade" unicode="℃" horiz-adv-x="1108" d="M355 565q0-33-12-61t-33-48.5-49-32.5-61-12-61 12-49 32.5T57 504t-12 61 12 61 33 49 49 33 61 12 61-12 49-33 33-49 12-61zm-64 0q0 19-7 36t-19.5 29.5-29 19.5-35.5 7-35.5-7-29-19.5T116 601t-7-36q0-38 26.5-64.5T200 474t64.5 26.5T291 565zm802-455q-42-57-109-92.5T823-18q-81 0-149.5 27.5t-118 77-77.5 118T450 355q0 83 28.5 151.5t79 117T677 699t150 27q36 0 73-7t71-21 62-34.5 48-47.5l-78-60q-26 36-73.5 59.5T827 639q-62 0-111.5-22.5T631 555t-54-90.5T558 355q0-60 18.5-112t53-90.5 84-60.5T824 70q60 0 109 24t81 70z"/><glyph glyph-name="fahrenheit" unicode="℉" horiz-adv-x="968" d="M355 565q0-33-12-61t-33-48.5-49-32.5-61-12-61 12-49 32.5T57 504t-12 61 12 61 33 49 49 33 61 12 61-12 49-33 33-49 12-61zm-64 0q0 19-7 36t-19.5 29.5-29 19.5-35.5 7-35.5-7-29-19.5T116 601t-7-36q0-38 26.5-64.5T200 474t64.5 26.5T291 565zM585 0h-99v708h442v-87H585V401h321v-85H585V0z"/><glyph glyph-name="kelvin" unicode="K" horiz-adv-x="659" d="M185 396h2l316 312h137L296 384 661 0H519L187 366h-2V0H86v708h99V396z"/><glyph glyph-name="angstrom" unicode="Å" horiz-adv-x="711" d="M115 0H5l307 708h90L706 0H594l-72 174H186zm106 261h265L354 593zm238 592q0-43-29.5-71T358 754q-21 0-39 7.5T287.5 782 266 813t-8 39q0 43 29 71t71 28 71.5-28 29.5-70zm-41 0q0 25-17.5 41.5T358 911t-42-17-17-42q0-24 17-40.5t42-16.5 42.5 16.5T418 853z"/><glyph glyph-name="Oneroman" unicode="Ⅰ" horiz-adv-x="271" d="M185 0H86v708h99V0z"/><glyph glyph-name="Tworoman" unicode="Ⅱ" horiz-adv-x="542" d="M185 0H86v708h99V0zm271 0h-99v708h99V0z"/><glyph glyph-name="Threeroman" unicode="Ⅲ" horiz-adv-x="813" d="M185 0H86v708h99V0zm271 0h-99v708h99V0zm271 0h-99v708h99V0z"/><glyph glyph-name="Fourroman" unicode="Ⅳ" horiz-adv-x="913" d="M185 0H86v708h99V0zm407 128h3l213 580h107L637 0h-92L269 708h110z"/><glyph glyph-name="Fiveroman" unicode="Ⅴ" horiz-adv-x="642" d="M321 128h3l213 580h107L366 0h-92L-2 708h110z"/><glyph glyph-name="Sixroman" unicode="Ⅵ" horiz-adv-x="913" d="M321 128h3l213 580h107L366 0h-92L-2 708h110zM827 0h-99v708h99V0z"/><glyph glyph-name="Sevenroman" unicode="Ⅶ" horiz-adv-x="1184" d="M321 128h3l213 580h107L366 0h-92L-2 708h110zM827 0h-99v708h99V0zm271 0h-99v708h99V0z"/><glyph glyph-name="Eightroman" unicode="Ⅷ" horiz-adv-x="1455" d="M321 128h3l213 580h107L366 0h-92L-2 708h110zM827 0h-99v708h99V0zm271 0h-99v708h99V0zm271 0h-99v708h99V0z"/><glyph glyph-name="Nineroman" unicode="Ⅸ" horiz-adv-x="939" d="M185 0H86v708h99V0zm420 444l168 264h116L663 373 920 0H795L601 298 411 0H289l253 375-228 333h121z"/><glyph glyph-name="Tenroman" unicode="Ⅹ" horiz-adv-x="668" d="M334 444l168 264h116L392 373 649 0H524L330 298 140 0H18l253 375L43 708h121z"/><glyph glyph-name="Elevenroman" unicode="Ⅺ" horiz-adv-x="939" d="M334 444l168 264h116L392 373 649 0H524L330 298 140 0H18l253 375L43 708h121zM853 0h-99v708h99V0z"/><glyph glyph-name="Twelveroman" unicode="Ⅻ" horiz-adv-x="1210" d="M334 444l168 264h116L392 373 649 0H524L330 298 140 0H18l253 375L43 708h121zM853 0h-99v708h99V0zm271 0h-99v708h99V0z"/><glyph glyph-name="uni216C" unicode="Ⅼ" horiz-adv-x="511" d="M185 88h316V0H86v708h99V88z"/><glyph glyph-name="uni216D" unicode="Ⅽ" horiz-adv-x="708" d="M693 110q-42-57-109-92.5T423-18q-81 0-149.5 27.5t-118 77-77.5 118T50 355q0 83 28.5 151.5t79 117T277 699t150 27q36 0 73-7t71-21 62-34.5 48-47.5l-78-60q-26 36-73.5 59.5T427 639q-62 0-111.5-22.5T231 555t-54-90.5T158 355q0-60 18.5-112t53-90.5 84-60.5T424 70q60 0 109 24t81 70z"/><glyph glyph-name="uni216E" unicode="Ⅾ" horiz-adv-x="761" d="M86 708h243q68 0 136-20t123-63 89-110 34-161q0-91-34-157.5t-89-110-123-65T329 0H86v708zm99-621h124q64 0 118.5 18t94 52 61.5 84 22 113q0 66-22 116t-61.5 83.5-94 51T309 622H185V87z"/><glyph glyph-name="uni216F" unicode="Ⅿ" horiz-adv-x="903" d="M452 164h2l209 544h154V0h-99v592h-2L481 0h-63L184 592h-2V0H86v708h154z"/><glyph glyph-name="oneroman" unicode="ⅰ" horiz-adv-x="259" d="M176 0H82v474h94V0zm16 645q0-26-18.5-43T129 585t-44 17.5T67 645q0 26 18 43.5t44 17.5 44.5-17.5T192 645z"/><glyph glyph-name="tworoman" unicode="ⅱ" horiz-adv-x="518" d="M176 0H82v474h94V0zm16 645q0-26-18.5-43T129 585t-44 17.5T67 645q0 26 18 43.5t44 17.5 44.5-17.5T192 645zM435 0h-94v474h94V0zm16 645q0-26-18.5-43T388 585t-44 17.5-18 42.5q0 26 18 43.5t44 17.5 44.5-17.5T451 645z"/></font>
</defs>
</svg>
