<svg xmlns="http://www.w3.org/2000/svg"><defs><font id="AvenirNextHeavy" horiz-adv-x="360"><font-face font-family="AvenirNextHeavy" font-weight="900" panose-1="2 11 9 3 2 2 2 2 2 4" ascent="800" descent="-200" x-height="526" cap-height="708" bbox="-163 -250 1237 971" underline-thickness="50" underline-position="-150" unicode-range="U+000D-FB02"/><glyph glyph-name=".notdef" horiz-adv-x="512" d="M222 117v67h56v-67h-56zm3 117l-2 17q0 56 13 81 7 13 18 27.5t28 31.5q16 15 26 26.5t15 21 7 18 2 17.5q0 36-22.5 60.5T256 559t-53.5-22-28.5-73l-50 8q7 72 44 104.5t91 32.5 89-35.5 35-95.5q0-32-12.5-58.5T320 358q-37-33-43-52-6-20-6-72h-46zM462 50v617H50V50h412zm50 668V0H0v718h512z"/><glyph glyph-name=".null" horiz-adv-x="500"/><glyph glyph-name=".null" horiz-adv-x="500"/><glyph glyph-name="nonmarkingreturn" horiz-adv-x="0"/><glyph glyph-name="space" horiz-adv-x="250"/><glyph glyph-name="exclam" unicode="!" horiz-adv-x="448" d="M224-16q-26 0-48.5 9.5T136 19t-26.5 38-9.5 48q0 25 9.5 47t26.5 38.5 39.5 26T224 226t48.5-9.5 39.5-26 26.5-38.5 9.5-47q0-26-9.5-48T312 19 272.5-6.5 224-16zM104 708h240V260H104v448z"/><glyph glyph-name="quotedbl" unicode="&amp;quot;" horiz-adv-x="556" d="M303 708h172V426H303v282zm-222 0h173V426H81v282z"/><glyph glyph-name="numbersign" unicode="#" horiz-adv-x="620" d="M471 321h77V187h-95L426 0H281l26 187h-40L240 0H95l26 187H45v134h95l10 66H73v134h95l26 187h146l-27-187h41l27 187h145l-27-187h76V387h-95zm-186 0h41l10 66h-42z"/><glyph glyph-name="dollar" unicode="$" horiz-adv-x="700" d="M401 714q66-4 131.5-29.5T649 614L501 467q-24 29-59 44t-63 15q-26 0-42-7t-16-24q0-16 16.5-23.5T391 452q38-12 80-27.5t77.5-40 58.5-61 23-89.5q0-56-20-99t-53-73.5T480.5 14 390-7v-76H288v75q-70 5-135.5 32T40 91l145 154q12-13 29.5-25t37.5-21.5 41.5-15T337 178q20 0 36.5 7t16.5 25q0 10-5.5 17T365 241t-38.5 15.5T265 277q-36 12-69 28t-58.5 39.5T97 401t-15 78q0 53 18 93.5t48 69 69.5 46T299 712v74h102v-72z"/><glyph glyph-name="percent" unicode="%" horiz-adv-x="935" d="M224 333q-41 0-76.5 15T85 389.5 42.5 451 27 526q0 41 15.5 76.5T85 664t62.5 41 76.5 15q40 0 76-15t62.5-41 42-61.5T420 526q0-40-15.5-75t-42-61.5T300 348t-76-15zm0 253q-24 0-42-17.5T164 526q0-24 18-41t42-17q23 0 41 17t18 41q0 25-18 42.5T224 586zM711-12q-41 0-76.5 15T572 44.5 529.5 106 514 181q0 41 15.5 76.5T572 319t62.5 41 76.5 15q40 0 76-15t62.5-41 42-61.5T907 181q0-40-15.5-75t-42-61.5T787 3t-76-15zm0 253q-24 0-42-17.5T651 181q0-24 18-41t42-17q23 0 41 17t18 41q0 25-18 42.5T711 241zM208 16l420 723 97-55L306-37z"/><glyph glyph-name="ampersand" unicode="&amp;" horiz-adv-x="840" d="M520 51q-32-28-81.5-46.5T320-14q-51 0-101 12t-89.5 38T65 104 40 205q0 34 11 63.5t29.5 53 44 42T179 394q-29 26-49 62.5T110 539q0 52 23.5 88t60.5 58.5 82 32.5 88 10q44 0 87.5-10.5T530 684t57-59.5 22-88.5q0-33-11-59.5t-30-48-43.5-39T472 357l49-46 55 79h249L655 183 847 0H569zM366 575q-23 0-34.5-14T320 529q0-17 10-32t27-28q23 9 38 24.5t15 35.5-11 33-33 13zm-62-302q-14-5-26.5-18T265 218q0-15 6-25t16-17 22-10 23-3q19 0 35.5 6t24.5 15z"/><glyph glyph-name="quotesingle" unicode="'" horiz-adv-x="334" d="M81 708h172V426H81v282z"/><glyph glyph-name="parenleft" unicode="(" d="M18 288q0 122 37 244.5T167 758l153-56Q187 518 187 288t133-414l-153-56Q92-79 55 43.5T18 288z"/><glyph glyph-name="parenright" unicode=")" d="M342 288q0-122-37-244.5T193-182L40-126Q173 58 173 288T40 702l153 56q75-103 112-225.5T342 288z"/><glyph glyph-name="asterisk" unicode="*" horiz-adv-x="527" d="M457 374l-121-83-74 95-71-90-120 83 74 89-117 37 48 130 114-38v111h149V596l116 35 44-130-114-34z"/><glyph glyph-name="plus" unicode="+" horiz-adv-x="666" d="M253 378v198h158V378h206V228H413V30H255v198H49v150h204z"/><glyph glyph-name="comma" unicode="," d="M14-120l82 313h218L200-120H14z"/><glyph glyph-name="hyphen" unicode="-" horiz-adv-x="336" d="M30 371h276V199H30v172z"/><glyph glyph-name="period" unicode="." d="M48 113q0 27 10.5 50.5t29 41 43 28T182 243q26 0 49.5-10.5t41.5-28 28.5-41T312 113t-10.5-51T273 21 231.5-6 182-16q-27 0-51.5 10t-43 27-29 41T48 113z"/><glyph glyph-name="slash" unicode="/" horiz-adv-x="455" d="M-3-11l303 778 158-48L154-59z"/><glyph glyph-name="zero" unicode="0" horiz-adv-x="700" d="M350-20q-65 0-114 17t-84 46-58.5 67-37 80-19 85-5.5 83q0 39 5.5 82t19 84 37 78 58.5 65 84 44.5T350 728q98 0 160-35.5t97-90 48-120T668 358q0-39-5.5-82.5t-19-85.5-36.5-80-58.5-67T464-3 350-20zm0 543q-22 0-36-15t-22-39-11-53.5-3-57.5q0-29 3-59.5t11-55.5 22-40.5 36-15.5 36.5 15.5 22 40.5 10.5 55.5 3 59.5q0 28-3 57.5T408.5 469t-22 39-36.5 15z"/><glyph glyph-name="one" unicode="1" horiz-adv-x="700" d="M288 456l-119-82L57 548l251 160h220V0H288v456z"/><glyph glyph-name="two" unicode="2" horiz-adv-x="700" d="M346 409q17 13 28 29t11 33q0 20-12.5 35T333 521q-29 0-48-23t-21-62L37 462q7 69 36 119t72.5 83 97 48.5T353 728q52 0 103.5-13t91.5-40.5 65-71.5 25-106q0-44-11.5-77.5t-31-59.5-44-47-51.5-40l-104-74h244V0H66v185z"/><glyph glyph-name="three" unicode="3" horiz-adv-x="700" d="M533 371q27-9 49.5-25t38.5-37 24.5-45.5T654 214q0-62-26-106.5t-68-73T465-7 358-20 251.5-7.5t-96 39.5-76 68T33 198l222 52q6-26 29.5-48t60.5-22q10 0 21 2.5t20 8 15 14.5 6 23q0 32-28 42t-75 10h-68v164h76q38 0 61 10.5t23 40.5q0 23-18 32t-38 9q-25 0-46-15.5T268 475L47 522q18 58 51 97.5t75.5 63.5 91 34.5T360 728t97-11.5 91-37 67-65 26-95.5q0-60-31.5-95.5T533 375v-4z"/><glyph glyph-name="four" unicode="4" horiz-adv-x="700" d="M588 0H372v125H31v194l268 389h288V311h96V125h-95V0zM371 490L253 311h122v179h-4z"/><glyph glyph-name="five" unicode="5" horiz-adv-x="700" d="M650 238q0-74-27-123.5T553.5 35t-95-42.5T355-20q-54 0-106 14.5T154 37t-73 68.5T41 198l220 56q6-29 29.5-50.5T347 182q26 0 46 12t20 42q0 18-11.5 29.5T372 284t-40.5 9.5T287 296q-16 0-38.5-1.5T201 290t-50.5-7-48.5-8l25 433h481V510H328l-4-51q14 2 28 3.5t25 1.5q55 0 104.5-13t87-40.5T628 340t22-102z"/><glyph glyph-name="six" unicode="6" horiz-adv-x="700" d="M418 486q46 0 89.5-15.5T585 425t54.5-74T660 250q0-67-25-117.5T567 48 468-3 350-20 232-3.5 133 46t-68 83.5T40 248q0 67 26.5 125.5T128 481l162 227h289L416 497l-9-11h11zm-68-166q-32 0-52.5-20.5T277 249q0-31 20.5-52t52.5-21q34 0 54.5 21t20.5 52q0 30-20.5 50.5T350 320z"/><glyph glyph-name="seven" unicode="7" horiz-adv-x="700" d="M116 0l269 510H81v198h564V539L392 0H116z"/><glyph glyph-name="eight" unicode="8" horiz-adv-x="700" d="M350 551q-27 0-42.5-16.5T292 499q0-20 15.5-37t42.5-17 42.5 17 15.5 37q0 19-15.5 35.5T350 551zm0-274q-31 0-46.5-18T288 218t15.5-40.5T350 160t46.5 17.5T412 218t-15.5 41-46.5 18zm176 91q51-19 84.5-61.5T644 204t-25.5-102.5-67-69.5-94-39.5T350-20 242-8t-94 39-66.5 69.5T56 203q0 58 32.5 100t85.5 64v3q-44 17-75 55.5T68 519t24 95 63.5 65 90.5 37 104 12q52 0 103-12t90.5-37 64-65 24.5-95-29-93.5-77-54.5v-3z"/><glyph glyph-name="nine" unicode="9" horiz-adv-x="700" d="M282 222q-46 0-89.5 15.5T115 283t-54.5 74T40 458q0 67 25 117.5t68 84.5 99 51 118 17 118-16.5 99-49.5 68-83.5T660 460q0-67-26.5-125.5T572 227L410 0H121l167 216 5 6h-11zm68 168q32 0 52.5 20.5T423 461q0 31-20.5 52T350 534q-34 0-54.5-21T275 461q0-30 20.5-50.5T350 390z"/><glyph glyph-name="colon" unicode=":" horiz-adv-x="380" d="M66 115q0 25 10 47.5t27 39 40 26 49 9.5q24 0 46.5-9.5t39-26 26.5-39 10-47.5q0-26-10-48t-26.5-38-39-25.5T192-6q-26 0-49 9.5T103 29 76 67t-10 48zm0 294q0 25 10 47.5t27 39 40 26 49 9.5q24 0 46.5-9.5t39-26 26.5-39 10-47.5q0-26-10-48t-26.5-38-39-25.5T192 288q-26 0-49 9.5T103 323t-27 38-10 48z"/><glyph glyph-name="semicolon" unicode=";" horiz-adv-x="380" d="M13-120l82 313h218L199-120H13zm53 529q0 25 10 47.5t27 39 40 26 49 9.5q24 0 46.5-9.5t39-26 26.5-39 10-47.5q0-26-10-48t-26.5-38-39-25.5T192 288q-26 0-49 9.5T103 323t-27 38-10 48z"/><glyph glyph-name="less" unicode="&amp;lt;" horiz-adv-x="666" d="M588 32Q460 83 333 133.5T78 235v134q128 51 255 101.5T588 572V410q-69-29-137-55.5T314 299q69-26 137-51.5T588 196V32z"/><glyph glyph-name="equal" unicode="=" horiz-adv-x="666" d="M610 472V328H56v144h554zm0-190V138H56v144h554z"/><glyph glyph-name="greater" unicode="&amp;gt;" horiz-adv-x="666" d="M78 572q128-51 255-101.5T588 369V235q-128-51-255-101.5T78 32v164q69 26 137 51.5T352 299q-69 29-137 55.5T78 410v162z"/><glyph glyph-name="question" unicode="?" horiz-adv-x="587" d="M304-16q-26 0-48.5 9.5T216 19t-26.5 38-9.5 48q0 25 9.5 47t26.5 38.5 39.5 26T304 226t48.5-9.5 39.5-26 26.5-38.5 9.5-47q0-26-9.5-48T392 19 352.5-6.5 304-16zm142 344q-21-13-28.5-25t-7.5-25v-26H197v37q0 30 7.5 52.5T225 382t31 33.5 39 30.5l17 12q16 11 24.5 21.5T345 502q0 21-12.5 29.5T303 540q-33 0-47-23.5T242 462L27 490q6 64 31.5 109.5t64 74 86 41.5 98.5 13q46 0 94-10.5t87-35 64-65 25-99.5q0-35-9-62t-26-49.5-41.5-41.5-54.5-37z"/><glyph glyph-name="at" unicode="@" horiz-adv-x="800" d="M617 534l-19-108q-8-41-13-69.5t-5-43.5q0-11 5-20.5t19-9.5q9 0 19 5t18.5 17.5T656 340t6 56q0 56-18 98t-50.5 70-78 42T415 620q-58 0-106.5-20t-83-55.5T172 460t-19-106q0-60 20.5-108.5T231 163t88-52.5T431 92q57 0 111.5 18t93.5 50l75-85Q599-18 417-18q-84 0-156 27.5T136.5 86t-82 117T25 353q0 80 31 148t84 118 123.5 78.5T414 726q73 0 140-21.5T671.5 641 752 537t30-143q0-53-14.5-96t-42-73.5T658 177t-91-17q-40 0-67.5 15T461 219h-2q-11-21-40-40t-73-19q-34 0-61.5 13.5t-47 37.5-30 57-10.5 71q0 43 13 83t37 71 58.5 50 77.5 19q39 0 62-17t29-35h2l5 24h136zm-212-91q-12 0-23-8.5T363 412t-13-32-5-37q0-26 9.5-43t31.5-17q14 0 25.5 9t19 23 11.5 31 4 34q0 26-8 44.5T405 443z"/><glyph glyph-name="A" unicode="A" horiz-adv-x="776" d="M263 708h253L792 0H533l-37 104H271L236 0H-16zm123-247l-58-175h115z"/><glyph glyph-name="B" unicode="B" horiz-adv-x="693" d="M288 523v-87h64q25 0 41 11.5t16 35.5q0 20-17 30t-45 10h-59zm0-240v-96h71q28 0 45.5 12.5T422 236q0 14-7.5 23T396 273.5t-23.5 7.5-23.5 2h-61zm241 85q25-6 49-19.5t43-34 30-47.5 11-60q0-58-23.5-97.5t-62-64-88-35T387 0H66v708h291q43 0 91.5-6.5t89.5-26 68-57 27-98.5q0-57-28.5-94T529 371v-3z"/><glyph glyph-name="C" unicode="C" horiz-adv-x="696" d="M34 354q0 85 30 154t82 118 122.5 75.5T419 728q82 0 155-26.5T696 630L550 454q-20 26-50 39.5T433 507q-30 0-56-10.5T331.5 466 301 417.5 290 354t11.5-62.5 31-47.5 45.5-30.5 55-10.5q41 0 70.5 17t46.5 40L696 85Q648 37 578 8.5T419-20q-80 0-150.5 27T146 83.5t-82 118T34 354z"/><glyph glyph-name="D" unicode="D" horiz-adv-x="788" d="M66 0v708h264q84 0 160.5-16.5t135-57T719 527t35-169q0-93-33.5-161T631 85.5 502 21 350 0H66zm229 506V204h44q84 0 129 36.5T513 360q0 69-45 107.5T348 506h-53z"/><glyph glyph-name="E" unicode="E" horiz-adv-x="603" d="M66 708h487V510H290v-61h247V264H290v-66h280V0H66v708z"/><glyph glyph-name="F" unicode="F" horiz-adv-x="581" d="M299 434h216V240H300V0H66v708h478V509H299v-75z"/><glyph glyph-name="G" unicode="G" horiz-adv-x="762" d="M426-18q-84 0-155.5 26t-124 74.5T64 200 34 354t30 154 82 118 122 75.5T418 728q83 0 157.5-27T697 627L558 460q-22 26-52 41.5T432 517q-29 0-56.5-11.5t-48.5-33-34-51.5-13-67q0-74 38.5-120.5T442 187q15 0 31 2.5t25 7.5v54H384v187h325V51q-25-15-57.5-27.5T582.5 2 506-12.5 426-18z"/><glyph glyph-name="H" unicode="H" horiz-adv-x="802" d="M498 269H304V0H66v708h237V468h194v240h239V0H498v269z"/><glyph glyph-name="I" unicode="I" horiz-adv-x="372" d="M66 708h240V0H66v708z"/><glyph glyph-name="J" unicode="J" horiz-adv-x="573" d="M248-20q-48 0-91 14T79.5 32 20 89t-35 71l204 78q4-16 14.5-28.5T232 197q23 0 31 15.5t8 39.5v456h239V262q0-48-10.5-98T460 73 380 6 248-20z"/><glyph glyph-name="K" unicode="K" horiz-adv-x="763" d="M300 282h-2V0H66v708h231V447h2l189 261h280L502 384 781 0H489z"/><glyph glyph-name="L" unicode="L" horiz-adv-x="549" d="M66 708h240V204h235V0H66v708z"/><glyph glyph-name="M" unicode="M" horiz-adv-x="1008" d="M277 400L288 0H66v708h311l128-381h5l111 381h321V0H711l7 398-6 1L580 0H412L282 400h-5z"/><glyph glyph-name="N" unicode="N" horiz-adv-x="791" d="M66 708h237l202-359h4l-10 359h226V0H482L286 338h-4L292 0H66v708z"/><glyph glyph-name="O" unicode="O" horiz-adv-x="855" d="M34 358q0 85 30 153.5T146.5 628 271 702t156 26 156-26 125-74 83-116.5T821 358t-30-155-83-119.5T583 7 427-20 271 7 146.5 83.5 64 203 34 358zm253 0q0-35 10.5-64t29-50 44.5-32.5 56-11.5 55.5 11.5T527 244t29.5 50 10.5 64q0 34-10.5 62.5t-29.5 48-44.5 30.5-55.5 11-56-11-44.5-30.5-29-48T287 358z"/><glyph glyph-name="P" unicode="P" horiz-adv-x="684" d="M303 228V0H66v708h304q54 0 106-11.5t93-39 66-73T660 470q0-66-24.5-112t-65-75-93-42T370 228h-67zm0 295V409h50q27 0 49.5 13.5T425 468q0 17-6 27.5T402.5 512t-23.5 8.5-26 2.5h-50z"/><glyph glyph-name="Q" unicode="Q" horiz-adv-x="864" d="M740 180l112 7V0H414q-84 0-154 23.5T140 93 62 206.5 34 362q0 81 30 148.5t82.5 116 124.5 75T427 728t155-26.5T704.5 628 785 515t29-144q0-30-6.5-59t-17-53.5-24-44T740 184v-4zM287 358q0-35 10.5-64t29-50 44.5-32.5 56-11.5 55.5 11.5T527 244t29.5 50 10.5 64q0 34-10.5 62.5t-29.5 48-44.5 30.5-55.5 11-56-11-44.5-30.5-29-48T287 358z"/><glyph glyph-name="R" unicode="R" horiz-adv-x="714" d="M66 708h305q52 0 103.5-10.5t92-37 65.5-71T657 478q0-65-32-114.5T533 287L713 0H439L303 253h-7V0H66v708zm228-299h47q12 0 26.5 2t27 8.5 21 18T424 468t-7 30-18 16.5-24 7-24 1.5h-57V409z"/><glyph glyph-name="S" unicode="S" horiz-adv-x="617" d="M298-20q-43 0-84.5 7.5t-80 22-72.5 34T0 87l145 158q25-27 66.5-48t85.5-21q20 0 36.5 7t16.5 26q0 10-5.5 17T325 240.5 286.5 257 225 278q-36 12-69 28.5T97.5 347 57 404.5 42 485q0 66 27 112t69.5 75.5T234 715t105 13q70 0 142.5-27T609 623L461 472q-24 30-59 45.5T339 533q-26 0-42-7.5T281 501q0-16 16.5-24t53.5-20q38-12 80-28t77.5-41.5T567 325t23-92q0-64-25.5-111.5t-67-79-93.5-47T298-20z"/><glyph glyph-name="T" unicode="T" horiz-adv-x="600" d="M419 0H181v507H7v201h586V507H419V0z"/><glyph glyph-name="U" unicode="U" horiz-adv-x="775" d="M384-20q-83 0-144.5 23T137 66t-61 94.5T56 278v430h238V304q0-51 24.5-79.5T388 196t69.5 28.5T482 304v404h237V278q0-63-21.5-117.5T634 66 529.5 3 384-20z"/><glyph glyph-name="V" unicode="V" horiz-adv-x="739" d="M-16 708h269l117-438h4l112 438h269L499 0H235z"/><glyph glyph-name="W" unicode="W" horiz-adv-x="1077" d="M433 0H193L0 708h252l76-398h4l82 398h249l89-398h4l77 398h244L880 0H640L540 400h-4z"/><glyph glyph-name="X" unicode="X" horiz-adv-x="800" d="M393 207L270 0H-12l253 369L1 708h287l112-186 107 186h280L551 372 812 0H521z"/><glyph glyph-name="Y" unicode="Y" horiz-adv-x="738" d="M481 0H243v290L-24 708h287l112-208 107 208h280L481 290V0z"/><glyph glyph-name="Z" unicode="Z" horiz-adv-x="672" d="M44 199l265 312H55v197h565V536L338 203h290V0H44v199z"/><glyph glyph-name="bracketleft" unicode="[" d="M42 732h252V595h-87V-19h87v-137H42v888z"/><glyph glyph-name="backslash" unicode="\" horiz-adv-x="455" d="M-3 719l158 48L458-11 301-59z"/><glyph glyph-name="bracketright" unicode="]" d="M318-156H66v137h87v614H66v137h252v-888z"/><glyph glyph-name="asciicircum" unicode="^" horiz-adv-x="714" d="M77 343q51 92 101.5 182.5T280 708h154q51-92 100.5-182.5T635 343H457q-25 47-50.5 93.5T356 530q-26-47-50.5-93.5T255 343H77z"/><glyph glyph-name="underscore" unicode="_" horiz-adv-x="500" d="M0-75h500v-110H0v110z"/><glyph glyph-name="grave" unicode="`" d="M-36 728h212l111-144H118z"/><glyph glyph-name="a" unicode="a" horiz-adv-x="591" d="M334 218q-51 0-82-11t-31-41q0-11 5-18.5t13-12.5 17.5-7.5T274 125q33 0 53 21t20 54v18h-13zm-2 116q0 24-16.5 35.5T272 381q-32 0-60.5-13.5T161 336L46 450q48 46 114 71t136 25q75 0 124-21t77.5-58 40-86T549 277V0H340v42h-2q-20-30-57-43t-72-13q-31 0-63.5 9t-59 29T43 76t-17 79q0 55 28.5 89.5t72.5 54 98.5 26.5 106.5 7v2z"/><glyph glyph-name="b" unicode="b" horiz-adv-x="694" d="M662 265q0-52-15.5-102T601 73.5 526 10 422-14q-49 0-93 18.5T262 55h-2V0H53v756h230V484h2q23 27 61 41.5t76 14.5q59 0 104-24t75-63 45.5-88T662 265zm-214 0q0 35-22 61t-64 26q-41 0-65.5-26T272 265q0-37 24.5-63t65.5-26q42 0 64 25.5t22 63.5z"/><glyph glyph-name="c" unicode="c" horiz-adv-x="526" d="M339-20q-67 0-123 20t-97 57-64 89-23 117q0 64 23.5 116.5T121 469t98.5 57T342 546q27 0 54.5-4.5t53-12.5 47-18 36.5-22L418 323q-12 14-31.5 21.5T349 352q-17 0-33-5.5t-28.5-17-20.5-28-8-38.5 8-38.5 20.5-27 28.5-16 33-5.5q20 0 39 7.5t31 20.5L535 42q-33-26-85.5-44T339-20z"/><glyph glyph-name="d" unicode="d" horiz-adv-x="694" d="M32 265q0 51 15.5 100T93 453t75 63 104 24q38 0 76-14.5t61-41.5h2v272h230V0H434v55h-2q-23-32-67-50.5T272-14q-59 0-104 24T93 73.5 47.5 163 32 265zm214 0q0-38 22-63.5t64-25.5q41 0 65.5 26t24.5 63q0 35-24.5 61T332 352q-42 0-64-26t-22-61z"/><glyph glyph-name="e" unicode="e" horiz-adv-x="630" d="M403 333q0 28-20.5 46T327 397q-38 0-59-21t-24-43h159zm199-75q0-13-.5-26.5T600 209H246q1-14 9.5-25t21-19 28-12 31.5-4q32 0 53.5 11.5T422 186l164-83q-35-57-101.5-90T330-20q-57 0-111 18t-95.5 53.5T57 140 32 263q0 65 23 117.5t62.5 89 93 56.5T325 546q62 0 113-21.5t87.5-60T582 373t20-115z"/><glyph glyph-name="f" unicode="f" horiz-adv-x="424" d="M426 598q-9 4-21 6.5t-24 2.5q-34 0-47.5-21T320 533v-7h111V361H320V0H90v361H0v165h90v12q0 49 11.5 94t39.5 79.5 75.5 54.5T336 786q23 0 53.5-3.5T441 771l-15-173z"/><glyph glyph-name="g" unicode="g" horiz-adv-x="697" d="M32 265q0 51 15.5 100T93 453t75 63 104 24q42 0 82.5-16t66.5-51h3v53h217V54q0-86-28-143t-74.5-90.5-105.5-47T313-240q-75 0-150 19.5T32-163L133-10q38-29 80-42.5T293-66q25 0 47.5 6.5t39.5 19 27 31T417 33v23h-3q-19-22-56.5-39T272 0q-61 0-106 21.5t-75 58T46.5 164 32 265zm214 0q0-38 22-63.5t64-25.5q41 0 65.5 26t24.5 63q0 35-24.5 61T332 352q-42 0-64-26t-22-61z"/><glyph glyph-name="h" unicode="h" horiz-adv-x="666" d="M430 540q55 0 91.5-20t58-51.5 30-70.5 8.5-78V0H386v280q0 40-12.5 56T336 352q-20 0-36-17.5T284 279V0H53v756h231V468h2q20 29 57 50.5t87 21.5z"/><glyph glyph-name="i" unicode="i" horiz-adv-x="339" d="M54 526h231V0H54v526zm-4 152q0 24 9.5 45.5t26 37.5 38.5 25.5 47 9.5q24 0 45-9.5t37.5-25.5 26-37.5T289 678q0-25-9.5-46.5t-26-37T216 570t-45-9q-25 0-47 9t-38.5 24.5-26 37T50 678z"/><glyph glyph-name="j" unicode="j" horiz-adv-x="346" d="M292 12q0-51-10.5-96.5t-37.5-80-73-55T55-240q-20 0-48 3t-48 9l12 188q11-3 20.5-4T8-45q26 0 39.5 14.5T61 19v507h231V12zM57 678q0 24 9.5 45.5t26 37.5 38.5 25.5 46 9.5 45.5-9.5 38-25.5 26-37.5T296 678q0-25-9.5-46.5t-26-37-38-24.5-45.5-9-46 9-38.5 24.5-26 37T57 678z"/><glyph glyph-name="k" unicode="k" horiz-adv-x="670" d="M284 229V0H53v756h231V325h3l125 201h268L510 289 679 0H410L287 229h-3z"/><glyph glyph-name="l" unicode="l" horiz-adv-x="342" d="M53 756h236V0H53v756z"/><glyph glyph-name="m" unicode="m" horiz-adv-x="976" d="M375 0v276q0 40-10 58t-33 18q-17 0-32.5-16T284 279V0H53v526h225v-58h2q10 13 24.5 25.5t33 23 41.5 17 50 6.5q52 0 90-18.5t60-57.5q26 32 64 54t96 22q56 0 92.5-22t58-55 30-71.5T928 320V0H697v280q0 43-10.5 57.5T654 352q-20 0-34-18.5T606 279V0H375z"/><glyph glyph-name="n" unicode="n" horiz-adv-x="666" d="M53 526h225v-58h2q20 29 59.5 50.5T430 540q55 0 91.5-20t58-51.5 30-70.5 8.5-78V0H386v280q0 40-12.5 56T336 352q-23 0-37.5-18.5T284 280V0H53v526z"/><glyph glyph-name="o" unicode="o" horiz-adv-x="664" d="M632 265q0-68-24.5-121t-66-89.5-96-55.5T331-20q-59 0-113.5 19T122 54.5 56.5 144 32 265q0 67 24.5 119.5T122 473t95.5 54.5T331 546q60 0 114.5-18.5t96-54.5 66-88.5T632 265zm-301 87q-38 0-61.5-26T246 265q0-37 24-63t62-26 62 26 24 63q0 35-24.5 61T331 352z"/><glyph glyph-name="p" unicode="p" horiz-adv-x="694" d="M423-14q-39 0-77 14.5T284 41h-2v-281H53v766h217v-53h2q29 33 70 50t80 17q59 0 104-24t75-63 45.5-88T662 265q0-52-15.5-102T601 73.5 526.5 10 423-14zm25 279q0 35-22 61t-64 26q-41 0-65.5-26T272 265q0-37 24.5-63t65.5-26q42 0 64 25.5t22 63.5z"/><glyph glyph-name="q" unicode="q" horiz-adv-x="694" d="M271-14q-59 0-103.5 24T93 73.5 47.5 163 32 265q0 51 15.5 100T93 453t75 63 104 24q39 0 80-17t70-50h2v53h217v-766H412V41h-2Q386 15 348 .5T271-14zm-25 279q0-38 22-63.5t64-25.5q41 0 65.5 26t24.5 63q0 35-24.5 61T332 352q-42 0-64-26t-22-61z"/><glyph glyph-name="r" unicode="r" horiz-adv-x="445" d="M53 526h222v-60h2q17 32 50.5 53t78.5 21q27 0 44-5l-18-196q-11 3-24.5 4.5T383 345q-45 0-72-26t-27-64V0H53v526z"/><glyph glyph-name="s" unicode="s" horiz-adv-x="513" d="M484 167q0-53-22.5-89t-57-57.5-75.5-31-78-9.5Q183-20 117.5-.5T4 55l113 131q24-22 56.5-35.5T236 137q12 0 22.5 4.5T269 158q0 13-18.5 20.5T186 197q-25 6-51 17.5T87.5 245 52 291.5 38 357q0 51 22.5 87t57 58.5 75 33T269 546q61 0 121-18t108-50L390 349q-25 16-51 25t-51 9q-17 0-28-4.5T249 361q0-10 12.5-15.5T319 331q31-6 60.5-18.5t53-32T470 233t14-66z"/><glyph glyph-name="t" unicode="t" horiz-adv-x="421" d="M282-14q-106 0-157 45.5T74 173v188H0v165h73v118h224V526h114V361H297V221q0-38 16.5-51.5T359 156q11 0 23 2t19 4V4q-18-8-50.5-13T282-14z"/><glyph glyph-name="u" unicode="u" horiz-adv-x="663" d="M610 0H385v58h-2q-20-29-59.5-50.5T233-14q-56 0-92 19.5t-57.5 51-30 71T45 206v320h232V248q0-40 12.5-56t37.5-16q23 0 37.5 18.5T379 248v278h231V0z"/><glyph glyph-name="v" unicode="v" horiz-adv-x="638" d="M-8 526h256l75-284h4l72 284h247L443 0H192z"/><glyph glyph-name="w" unicode="w" horiz-adv-x="973" d="M404 0H175L-5 526h247l66-272h4l68 272h222l73-272h3l64 272h236L796 0H566l-81 270h-2z"/><glyph glyph-name="x" unicode="x" horiz-adv-x="675" d="M338 119L252 0H-8l203 270L6 526h262l76-110 75 110h254L484 270 683 0H419z"/><glyph glyph-name="y" unicode="y" horiz-adv-x="638" d="M205 20L-8 526h256l78-277h4l69 277h247L430-32q-19-49-43-87.5T331-185t-75.5-41T154-240q-18 0-37 1.5t-36.5 4-32.5 5-25 5.5L52-34q13-5 31.5-8.5T117-46q38 0 56.5 15.5T201 9z"/><glyph glyph-name="z" unicode="z" horiz-adv-x="557" d="M33 161l197 194H38v171h479V376L304 171h219V0H33v161z"/><glyph glyph-name="braceleft" unicode="{" d="M0 359q30 0 47.5 13.5T65 429v132q0 34 8.5 65t26.5 54.5 46 37.5 68 14h96V595h-34q-29 0-39.5-19T226 535V400q0-29-9-49.5T195.5 317 168 297t-27-8v-2q12-2 27-8.5t27.5-19.5 21.5-33.5 9-49.5V41q0-22 10.5-41T276-19h34v-137h-96q-40 0-68 14t-46 37.5T73.5-50 65 15v132q0 43-17.5 56.5T0 217v142z"/><glyph glyph-name="bar" unicode="|" horiz-adv-x="269" d="M49 750h172V-250H49V750z"/><glyph glyph-name="braceright" unicode="}" d="M360 217q-30 0-47.5-13.5T295 147V15q0-34-8.5-65T260-104.5 214-142t-68-14H50v137h34q29 0 39.5 19T134 41v135q0 29 9 49.5t21.5 33.5 27.5 19.5 27 8.5v2q-12 1-27 8t-27.5 20-21.5 33.5-9 49.5v135q0 22-10.5 41T84 595H50v137h96q40 0 68-14t46-37.5 26.5-54.5 8.5-65V429q0-43 17.5-56.5T360 359V217z"/><glyph glyph-name="asciitilde" unicode="~" horiz-adv-x="666" d="M355 384q21-14 34.5-21t23-10 17.5-3.5 19-.5q24 0 46 18.5t38 48.5l74-135q-35-58-77-82t-82-24q-32 0-60 8.5T327 213q-20 12-34 19t-24.5 10.5-18.5 4-16 .5q-11 0-24.5-3.5T182 232t-27-20.5-22-30.5L59 316q18 30 40.5 50.5t46 33T192 417t43 5q37 0 63-9t57-29z"/><glyph glyph-name="uni00A0" horiz-adv-x="250"/><glyph glyph-name="exclamdown" unicode="¡" horiz-adv-x="448" d="M224 546q26 0 48.5-9.5T312 511t26.5-38.5T348 425t-9.5-47-26.5-38.5-39.5-26T224 304t-48.5 9.5-39.5 26-26.5 38.5-9.5 47 9.5 47.5T136 511t39.5 25.5T224 546zm120-276v-448H104v448h240z"/><glyph glyph-name="cent" unicode="¢" horiz-adv-x="700" d="M341-13q-54 8-98.5 31t-77 58.5-50 82.5T98 263q0 55 18 102t50 82.5 76.5 58.5 98.5 32v64h109v-61q45-4 85-18.5t64-33.5L484 323q-12 14-31.5 21.5T415 352q-17 0-33-5.5t-28.5-17-20.5-28-8-38.5 8-38.5 20.5-27 28.5-16 33-5.5q20 0 39 7.5t31 20.5L601 42q-26-21-66-36.5T450-15v-57H341v59z"/><glyph glyph-name="sterling" unicode="£" horiz-adv-x="700" d="M553 495q-12 14-32 22.5t-40 8.5q-24 0-39.5-6T417 503.5t-12.5-24T401 451v-9h145V280H401v-87h251V0H80v193h92v87H80v162h92v28q0 46 17.5 92.5t52.5 83 88.5 59.5T455 728q81 0 139-23.5t93-57.5L553 495z"/><glyph glyph-name="currency" unicode="¤" horiz-adv-x="700" d="M575 424q15-26 23.5-57.5T607 297q0-75-34-132l81-81-94-95-85 85q-56-28-123-28-31 0-60.5 6.5T227 76l-87-87-94 95 83 83q-31 56-31 130 0 70 30 124l-82 82 95 94 84-83q58 29 127 29 70 0 125-28l82 82 95-94zm-223-39q-18 0-34-7.5T291 358t-17.5-28-6.5-33q0-38 24-64.5t61-26.5 60.5 26.5T436 297q0 17-6.5 33T412 358t-26.5 19.5T352 385z"/><glyph glyph-name="yen" unicode="¥" horiz-adv-x="700" d="M644 458V318H460v-47h184V131H460V0H244v131H63v140h181v47H63v140h100L5 708h253l98-217 98 217h247L544 458h100z"/><glyph glyph-name="brokenbar" unicode="¦" horiz-adv-x="269" d="M221 718V312H49v406h172zm0-518v-406H49v406h172z"/><glyph glyph-name="section" unicode="§" horiz-adv-x="650" d="M539 158q23-16 34-44.5T584 56q0-61-27-101.5T488.5-110 397-144t-96-10q-42 0-84 9t-80.5 26T65-77.5 10-21l157 130q15-22 33.5-37t38-24 39-13 34.5-4q14 0 26 5.5T350 52q0 8-4 14t-15.5 11.5-31 12T249 105q-52 15-91 31t-65.5 37.5-40 50T39 292q0 45 19.5 76.5T110 420q-21 20-31 48t-10 62q0 54 26 92t65 61 84.5 33.5T330 727q97 0 166.5-33.5T601 597L435 487q-15 26-41.5 41T344 543q-17 0-30-6t-13-17q0-6 4-11t15-10.5 30-11.5 49-15q49-15 87-32t64-39.5 40-52.5 14-70q0-38-16-69t-49-51zM250 345q-7-4-11.5-12t-4.5-16q0-22 22-32t56-22l81-28q13 8 13 26 0 19-21 31.5T332 316z"/><glyph glyph-name="dieresis" unicode="¨" d="M205 678q0 20 8 38t22 31.5 32 21.5 39 8q20 0 38-8t31.5-21.5T397 716t8-38q0-21-8-38.5t-21.5-31-31.5-21-38-7.5q-42 0-71.5 28T205 678zm-249 0q0 20 8 38t22 31.5T18 769t39 8q20 0 38-8t31.5-21.5T148 716t8-38q0-21-8-38.5t-21.5-31-31.5-21-38-7.5q-42 0-71.5 28T-44 678z"/><glyph glyph-name="copyright" unicode="©" horiz-adv-x="800" d="M596 515q-29 36-76 56t-99 20q-51 0-96-16.5T246.5 527 193 452t-20-99q0-57 19.5-101.5t53.5-75 79-46.5 96-16q52 0 97 17.5t77 49.5l-92 88q-14-17-35.5-25t-44.5-8q-26 0-45.5 10.5t-32.5 27-19.5 37.5-6.5 43 6.5 43 19 37.5T375 461t42 10q25 0 46-8.5t35-27.5zM20 353q0 79 30 147.5T131.5 620t121 80.5T401 730q78 0 147-29.5T668.5 620 750 500.5 780 353q0-78-30-146.5T668.5 87 548 7 401-22q-79 0-148.5 29t-121 80T50 206.5 20 353zm60 0q0-66 24.5-124T172 127.5 273 59t124-25 124.5 25 103 68.5 70 101.5T720 353t-25 124.5-68.5 102-101.5 69T401 674t-124.5-25.5-102-69-69-102T80 353z"/><glyph glyph-name="ordfeminine" unicode="ª" horiz-adv-x="390" d="M221 547q-29 0-46.5-5.5T157 520q0-11 10.5-15.5T187 500q19 0 30.5 10.5T229 538v9h-8zm0 64q0 13-9.5 19t-25.5 6q-20 0-36.5-7T120 612l-69 61q29 25 68 38.5t80 13.5q45 0 74-11.5t46-31 23.5-46T349 580V431H225v23h-1q-11-17-33.5-23.5T148 424q-18 0-37.5 4.5t-35 15.5-26 28T39 515q0 29 17 47.5t43 29 58.5 14.5 63.5 4v1z"/><glyph glyph-name="guillemotleft" unicode="«" horiz-adv-x="580" d="M247 274l175 248 130-83-115-165 115-165-130-83zm-230 0l176 248 129-83-115-165 115-165-129-83z"/><glyph glyph-name="logicalnot" unicode="¬" horiz-adv-x="666" d="M447 314H37v144h568V143H447v171z"/><glyph glyph-name="uni00AD" unicode="­" horiz-adv-x="336" d="M30 371h276V199H30v172z"/><glyph glyph-name="registered" unicode="®" horiz-adv-x="600" d="M305 521q12 0 20 6.5t8 16.5q0 8-8.5 13t-19.5 5h-26v-41h26zm34-156l-44 94h-16v-94h-88v266h114q21 0 43-4t39-14 28-26.5 11-41.5q0-55-48-74l61-106H339zM72 492q0 47 18 88.5t49 72 73 48.5 89 18 88.5-18 72-48.5 48.5-72 18-88.5-18-88-48.5-71.5-72-48T301 267t-89 17.5-73 48T90 404t-18 88zm36 0q0-39 15-74t41.5-61.5T226 315t75-15 74.5 15 60.5 41.5 41 61.5 15 74q0 40-15 75t-41 61-60.5 41-74.5 15-75-15-61.5-41-41.5-61-15-75z"/><glyph glyph-name="macron" unicode="¯" d="M0 707h360v-96H0v96z"/><glyph glyph-name="degree" unicode="°" horiz-adv-x="440" d="M399 554q0-39-13.5-71.5T348 426t-56.5-37.5T220 375t-71.5 13.5T92 426t-37.5 56.5T41 554t13.5 71.5T92 682t56.5 37.5T220 733t71.5-13.5T348 682t37.5-56.5T399 554zm-82 0q0 41-28 69t-69 28-69-28-28-69 28-69 69-28 69 28 28 69z"/><glyph glyph-name="plusminus" unicode="±" horiz-adv-x="666" d="M251 606h164V485h220V333H415V212H251v121H31v152h220v121zM31 182h604V30H31v152z"/><glyph glyph-name="twosuperior" unicode="²" horiz-adv-x="450" d="M235 526q8 7 13.5 14.5T254 559q0 12-7.5 21t-24.5 9q-18 0-30-14t-14-39L35 552q4 44 22.5 75.5t45.5 52 61 30.5 70 10q33 0 65-8t57.5-25 41.5-45 16-67q0-27-7.5-48T387 489.5t-27.5-30T327 434l-66-46h154V262H53v117z"/><glyph glyph-name="threesuperior" unicode="³" horiz-adv-x="450" d="M349 496q33-11 50-38.5t17-60.5q0-39-16-66.5T358.5 285 301 259t-65-8-65 8-59 24.5T65.5 326 37 388l136 33q4-17 17.5-31t33.5-14q16 0 29 6.5t13 23.5q0 20-17 26.5t-46 6.5h-42v103h47q26 0 38.5 7t12.5 24q0 11-8.5 19t-26.5 8q-14 0-27.5-10.5T180 560L46 591q10 36 31 61t47 40 56 21.5 59 6.5 59-7 54.5-22 40-38.5T408 595q0-41-17-64.5T349 496z"/><glyph glyph-name="acute" unicode="´" d="M73 584l111 144h212L242 584H73z"/><glyph glyph-name="mu" unicode="µ" horiz-adv-x="758" d="M314 526V263q0-14 3.5-32.5t11-35 20-28T380 156q41 0 56.5 29t15.5 71v270h234V0H460v37q-14-17-34-28T375-2q-37 0-61 16v-238H80v750h234z"/><glyph glyph-name="paragraph" unicode="¶" horiz-adv-x="646" d="M432 566h-52v-699H226v463q-100 5-156.5 52.5T13 515q0 60 22 97.5t58 59 83 29 97 7.5h314v-841H432v699z"/><glyph glyph-name="periodcentered" unicode="·" d="M48 289q0 27 10.5 50.5t29 41 43 28T182 419q26 0 49.5-10.5t41.5-28 28.5-41T312 289t-10.5-51-28.5-41-41.5-27-49.5-10q-27 0-51.5 10t-43 27-29 41T48 289z"/><glyph glyph-name="cedilla" unicode="¸" d="M159-240q-16 0-33.5 1.5T90-234t-34.5 7.5T26-217l34 78q17-8 41.5-12t43.5-4q15 0 27.5 4.5T185-134q0 11-11.5 14.5T148-116q-23 0-41-6L63-88l75 88h117l-50-53q5 1 16 1 17 0 35-3.5T289-69t24.5-26.5T323-137q0-31-16.5-51t-41-31.5-53-16T159-240z"/><glyph glyph-name="onesuperior" unicode="¹" horiz-adv-x="450" d="M198 550l-75-52-71 110 158 100h139V262H198v288z"/><glyph glyph-name="ordmasculine" unicode="º" horiz-adv-x="390" d="M357 576q0-37-13-65.5t-35.5-48-52-30T195 422t-60.5 10.5-51 30-35.5 48T35 576q0 36 13 64t35.5 47 51 29 60.5 10 61.5-10 52-29 35.5-47 13-64zm-162 46q-20 0-32.5-14T150 576q0-20 13-34t33-14 33 14 13 34q0 18-13.5 32T195 622z"/><glyph glyph-name="guillemotright" unicode="»" horiz-adv-x="580" d="M258 109l115 165-115 165 130 83 175-248L388 26zm-230 0l115 165L28 439l130 83 175-248L158 26z"/><glyph glyph-name="onequarter" unicode="¼" horiz-adv-x="1000" d="M907 0H771v79H556v122l169 245h182V196h60V79h-60V0zM771 309l-75-113h77v113h-2zM198 550l-75-52-71 110 158 100h139V262H198v288zm89-537l346 726 99-45L386-27z"/><glyph glyph-name="onehalf" unicode="½" horiz-adv-x="1000" d="M198 550l-75-52-71 110 158 100h139V262H198v288zm598-286q8 7 13.5 14.5T815 297q0 12-7.5 21t-24.5 9q-18 0-30-14t-14-39l-143 16q4 44 22.5 75.5t45.5 52 61 30.5 70 10q33 0 65-8t57.5-25 41.5-45 16-67q0-27-7.5-48T948 227.5t-27.5-30T888 172l-66-46h154V0H614v117zM287 13l346 726 99-45L386-27z"/><glyph glyph-name="threequarters" unicode="¾" horiz-adv-x="1000" d="M907 0H771v79H556v122l169 245h182V196h60V79h-60V0zM771 309l-75-113h77v113h-2zM349 496q33-11 50-38.5t17-60.5q0-39-16-66.5T358.5 285 301 259t-65-8-65 8-59 24.5T65.5 326 37 388l136 33q4-17 17.5-31t33.5-14q16 0 29 6.5t13 23.5q0 20-17 26.5t-46 6.5h-42v103h47q26 0 38.5 7t12.5 24q0 11-8.5 19t-26.5 8q-14 0-27.5-10.5T180 560L46 591q10 36 31 61t47 40 56 21.5 59 6.5 59-7 54.5-22 40-38.5T408 595q0-41-17-64.5T349 496zM287 13l346 726 99-45L386-27z"/><glyph glyph-name="questiondown" unicode="¿" horiz-adv-x="587" d="M278 546q26 0 48.5-9.5T366 511t26.5-38.5T402 425t-9.5-47-26.5-38.5-39.5-26T278 304t-48.5 9.5-39.5 26-26.5 38.5-9.5 47 9.5 47.5T190 511t39.5 25.5T278 546zM136 202q21 13 28.5 25t7.5 25v26h213v-37q0-30-7.5-52.5T357 148t-31-33.5T287 84l-17-12q-16-11-24.5-21.5T237 28q0-21 12.5-29.5T279-10q33 0 47 23.5T340 68l215-28q-6-65-31.5-110t-64-73.5-86-41.5-98.5-13q-47 0-95 10.5t-87 35-63.5 65T5 12q0 34 9 61.5t26 50T81.5 165t54.5 37z"/><glyph glyph-name="Agrave" unicode="À" horiz-adv-x="776" d="M263 708h253L792 0H533l-37 104H271L236 0H-16zm123-247l-58-175h115zM177 908h212l111-144H331z"/><glyph glyph-name="Aacute" unicode="Á" horiz-adv-x="776" d="M263 708h253L792 0H533l-37 104H271L236 0H-16zm123-247l-58-175h115zM278 764l111 144h212L447 764H278z"/><glyph glyph-name="Acircumflex" unicode="Â" horiz-adv-x="776" d="M263 708h253L792 0H533l-37 104H271L236 0H-16zm123-247l-58-175h115zm3 371l-67-68H170l137 144h169l134-144H456z"/><glyph glyph-name="Atilde" unicode="Ã" horiz-adv-x="776" d="M263 708h253L792 0H533l-37 104H271L236 0H-16zm123-247l-58-175h115zm192 439q-2-30-10-55t-22.5-44-35-29.5T464 761q-21 0-40.5 6T383 784q-24 13-36 17.5t-27 4.5q-16 0-25-10.5T283 770h-80q3 57 32 96.5t81 39.5q23 0 42-6.5t41-17.5q23-12 36-17t29-5 23.5 10 11.5 30h79z"/><glyph glyph-name="Adieresis" unicode="Ä" horiz-adv-x="776" d="M263 708h253L792 0H533l-37 104H271L236 0H-16zm123-247l-58-175h115zm29 397q0 20 8 38t22 31.5 32 21.5 39 8q20 0 38-8t31.5-21.5T607 896t8-38q0-21-8-38.5t-21.5-31-31.5-21-38-7.5q-42 0-71.5 28T415 858zm-249 0q0 20 8 38t22 31.5 32 21.5 39 8q20 0 38-8t31.5-21.5T358 896t8-38q0-21-8-38.5t-21.5-31-31.5-21-38-7.5q-42 0-71.5 28T166 858z"/><glyph glyph-name="Aring" unicode="Å" horiz-adv-x="776" d="M263 708h253L792 0H533l-37 104H271L236 0H-16zm123-247l-58-175h115zm118 396q0-24-9.5-45t-25-36.5-36.5-24-44-8.5-44 8.5-37 24-25 36.5-9 45 9 45 25 36.5 37 24 44 8.5 44-8.5 36.5-24 25-36.5 9.5-45zm-55 0q0 25-17.5 42T389 916t-42.5-17-17.5-42 17.5-42 42.5-17 42.5 17 17.5 42z"/><glyph glyph-name="AE" unicode="Æ" horiz-adv-x="1014" d="M492 104H315L266 0H0l354 708h610V510H711v-61h237V264H711v-66h270V0H492v104zM386 286h106v224h-4z"/><glyph glyph-name="Ccedilla" unicode="Ç" horiz-adv-x="696" d="M389-240q-16 0-33.5 1.5T320-234t-34.5 7.5T256-217l34 78q17-8 41.5-12t43.5-4q15 0 27.5 4.5T415-134q0 11-11.5 14.5T378-116q-23 0-41-6l-44 34 62 73Q286-5 227.5 25.5T126 104 58.5 215.5 34 354q0 85 30 154t82 118 122.5 75.5T419 728q82 0 155-26.5T696 630L550 454q-20 26-50 39.5T433 507q-30 0-56-10.5T331.5 466 301 417.5 290 354t11.5-62.5 31-47.5 45.5-30.5 55-10.5q41 0 70.5 17t46.5 40L696 85q-41-41-98.5-67.5T468-17l-33-36q5 1 16 1 17 0 35-3.5T519-69t24.5-26.5T553-137q0-31-16.5-51t-41-31.5-53-16T389-240z"/><glyph glyph-name="Egrave" unicode="È" horiz-adv-x="603" d="M66 708h487V510H290v-61h247V264H290v-66h280V0H66v708zm42 200h212l111-144H262z"/><glyph glyph-name="Eacute" unicode="É" horiz-adv-x="603" d="M66 708h487V510H290v-61h247V264H290v-66h280V0H66v708zm126 56l111 144h212L361 764H192z"/><glyph glyph-name="Ecircumflex" unicode="Ê" horiz-adv-x="603" d="M66 708h487V510H290v-61h247V264H290v-66h280V0H66v708zm245 124l-67-68H92l137 144h169l134-144H378z"/><glyph glyph-name="Edieresis" unicode="Ë" horiz-adv-x="603" d="M66 708h487V510H290v-61h247V264H290v-66h280V0H66v708zm270 150q0 20 8 38t22 31.5 32 21.5 39 8q20 0 38-8t31.5-21.5T528 896t8-38q0-21-8-38.5t-21.5-31-31.5-21-38-7.5q-42 0-71.5 28T336 858zm-249 0q0 20 8 38t22 31.5 32 21.5 39 8q20 0 38-8t31.5-21.5T279 896t8-38q0-21-8-38.5t-21.5-31-31.5-21-38-7.5q-42 0-71.5 28T87 858z"/><glyph glyph-name="Igrave" unicode="Ì" horiz-adv-x="372" d="M66 708h240V0H66v708zm-84 200h212l111-144H136z"/><glyph glyph-name="Iacute" unicode="Í" horiz-adv-x="372" d="M66 708h240V0H66v708zm0 56l111 144h212L235 764H66z"/><glyph glyph-name="Icircumflex" unicode="Î" horiz-adv-x="372" d="M66 708h240V0H66v708zm121 124l-67-68H-32l137 144h169l134-144H254z"/><glyph glyph-name="Idieresis" unicode="Ï" horiz-adv-x="372" d="M66 708h240V0H66v708zm147 150q0 20 8 38t22 31.5 32 21.5 39 8q20 0 38-8t31.5-21.5T405 896t8-38q0-21-8-38.5t-21.5-31-31.5-21-38-7.5q-42 0-71.5 28T213 858zm-249 0q0 20 8 38t22 31.5T26 949t39 8q20 0 38-8t31.5-21.5T156 896t8-38q0-21-8-38.5t-21.5-31-31.5-21-38-7.5q-42 0-71.5 28T-36 858z"/><glyph glyph-name="Eth" unicode="Ð" horiz-adv-x="788" d="M12 286v142h54v280h264q84 0 160.5-16.5t135-57T719 527t35-169q0-93-33.5-161T631 85.5 502 21 350 0H66v286H12zm411 142V286H295v-82h44q84 0 129 36.5T513 360q0 69-45 107.5T348 506h-53v-78h128z"/><glyph glyph-name="Ntilde" unicode="Ñ" horiz-adv-x="791" d="M66 708h237l202-359h4l-10 359h226V0H482L286 338h-4L292 0H66v708zm521 192q-2-30-10-55t-22.5-44-35-29.5T473 761q-21 0-40.5 6T392 784q-24 13-36 17.5t-27 4.5q-16 0-25-10.5T292 770h-80q3 57 32 96.5t81 39.5q23 0 42-6.5t41-17.5q23-12 36-17t29-5 23.5 10 11.5 30h79z"/><glyph glyph-name="Ograve" unicode="Ò" horiz-adv-x="855" d="M34 358q0 85 30 153.5T146.5 628 271 702t156 26 156-26 125-74 83-116.5T821 358t-30-155-83-119.5T583 7 427-20 271 7 146.5 83.5 64 203 34 358zm253 0q0-35 10.5-64t29-50 44.5-32.5 56-11.5 55.5 11.5T527 244t29.5 50 10.5 64q0 34-10.5 62.5t-29.5 48-44.5 30.5-55.5 11-56-11-44.5-30.5-29-48T287 358zm-72 550h212l111-144H369z"/><glyph glyph-name="Oacute" unicode="Ó" horiz-adv-x="855" d="M34 358q0 85 30 153.5T146.5 628 271 702t156 26 156-26 125-74 83-116.5T821 358t-30-155-83-119.5T583 7 427-20 271 7 146.5 83.5 64 203 34 358zm253 0q0-35 10.5-64t29-50 44.5-32.5 56-11.5 55.5 11.5T527 244t29.5 50 10.5 64q0 34-10.5 62.5t-29.5 48-44.5 30.5-55.5 11-56-11-44.5-30.5-29-48T287 358zm32 406l111 144h212L488 764H319z"/><glyph glyph-name="Ocircumflex" unicode="Ô" horiz-adv-x="855" d="M34 358q0 85 30 153.5T146.5 628 271 702t156 26 156-26 125-74 83-116.5T821 358t-30-155-83-119.5T583 7 427-20 271 7 146.5 83.5 64 203 34 358zm253 0q0-35 10.5-64t29-50 44.5-32.5 56-11.5 55.5 11.5T527 244t29.5 50 10.5 64q0 34-10.5 62.5t-29.5 48-44.5 30.5-55.5 11-56-11-44.5-30.5-29-48T287 358zm139 474l-67-68H207l137 144h169l134-144H493z"/><glyph glyph-name="Otilde" unicode="Õ" horiz-adv-x="855" d="M34 358q0 85 30 153.5T146.5 628 271 702t156 26 156-26 125-74 83-116.5T821 358t-30-155-83-119.5T583 7 427-20 271 7 146.5 83.5 64 203 34 358zm253 0q0-35 10.5-64t29-50 44.5-32.5 56-11.5 55.5 11.5T527 244t29.5 50 10.5 64q0 34-10.5 62.5t-29.5 48-44.5 30.5-55.5 11-56-11-44.5-30.5-29-48T287 358zm328 542q-2-30-10-55t-22.5-44-35-29.5T501 761q-21 0-40.5 6T420 784q-24 13-36 17.5t-27 4.5q-16 0-25-10.5T320 770h-80q3 57 32 96.5t81 39.5q23 0 42-6.5t41-17.5q23-12 36-17t29-5 23.5 10 11.5 30h79z"/><glyph glyph-name="Odieresis" unicode="Ö" horiz-adv-x="855" d="M34 358q0 85 30 153.5T146.5 628 271 702t156 26 156-26 125-74 83-116.5T821 358t-30-155-83-119.5T583 7 427-20 271 7 146.5 83.5 64 203 34 358zm253 0q0-35 10.5-64t29-50 44.5-32.5 56-11.5 55.5 11.5T527 244t29.5 50 10.5 64q0 34-10.5 62.5t-29.5 48-44.5 30.5-55.5 11-56-11-44.5-30.5-29-48T287 358zm165 500q0 20 8 38t22 31.5 32 21.5 39 8q20 0 38-8t31.5-21.5T644 896t8-38q0-21-8-38.5t-21.5-31-31.5-21-38-7.5q-42 0-71.5 28T452 858zm-249 0q0 20 8 38t22 31.5 32 21.5 39 8q20 0 38-8t31.5-21.5T395 896t8-38q0-21-8-38.5t-21.5-31-31.5-21-38-7.5q-42 0-71.5 28T203 858z"/><glyph glyph-name="multiply" unicode="×" horiz-adv-x="666" d="M164 575q43-42 85.5-81.5T335 412q42 40 83 81t83 81l56-52 56-52q-42-42-83.5-82.5T446 305q44-41 86.5-82t86.5-82q-28-28-57-56t-57-56q-43 42-85.5 82.5T334 194q-44-42-85.5-82.5T163 29q-28 27-56 52.5T51 134q42 42 84.5 84t84.5 84q-43 41-86 81t-86 81q29 27 58 55.5t58 55.5z"/><glyph glyph-name="Oslash" unicode="Ø" horiz-adv-x="855" d="M427-20q-62 0-118.5 15T213 40L120-61 26 19l92 100q-41 47-62.5 107.5T34 358q0 85 30 153.5T146.5 628t125 74T428 728q60 0 112.5-13.5T638 675l90 102 94-81-89-96q88-97 88-242 0-85-30-155T708 83.5 583 7 427-20zm0 542q-38 0-67-14t-48-37-28.5-53-9.5-63q0-40 9-62l201 220q-23 9-57 9zm-2-331q38 0 67 13.5t48 36.5 28.5 53 9.5 63q0 38-10 63L367 200q11-5 26.5-7t31.5-2z"/><glyph glyph-name="Ugrave" unicode="Ù" horiz-adv-x="775" d="M384-20q-83 0-144.5 23T137 66t-61 94.5T56 278v430h238V304q0-51 24.5-79.5T388 196t69.5 28.5T482 304v404h237V278q0-63-21.5-117.5T634 66 529.5 3 384-20zM175 908h212l111-144H329z"/><glyph glyph-name="Uacute" unicode="Ú" horiz-adv-x="775" d="M384-20q-83 0-144.5 23T137 66t-61 94.5T56 278v430h238V304q0-51 24.5-79.5T388 196t69.5 28.5T482 304v404h237V278q0-63-21.5-117.5T634 66 529.5 3 384-20zM280 764l111 144h212L449 764H280z"/><glyph glyph-name="Ucircumflex" unicode="Û" horiz-adv-x="775" d="M384-20q-83 0-144.5 23T137 66t-61 94.5T56 278v430h238V304q0-51 24.5-79.5T388 196t69.5 28.5T482 304v404h237V278q0-63-21.5-117.5T634 66 529.5 3 384-20zm4 852l-67-68H169l137 144h169l134-144H455z"/><glyph glyph-name="Udieresis" unicode="Ü" horiz-adv-x="775" d="M384-20q-83 0-144.5 23T137 66t-61 94.5T56 278v430h238V304q0-51 24.5-79.5T388 196t69.5 28.5T482 304v404h237V278q0-63-21.5-117.5T634 66 529.5 3 384-20zm30 878q0 20 8 38t22 31.5 32 21.5 39 8q20 0 38-8t31.5-21.5T606 896t8-38q0-21-8-38.5t-21.5-31-31.5-21-38-7.5q-42 0-71.5 28T414 858zm-249 0q0 20 8 38t22 31.5 32 21.5 39 8q20 0 38-8t31.5-21.5T357 896t8-38q0-21-8-38.5t-21.5-31-31.5-21-38-7.5q-42 0-71.5 28T165 858z"/><glyph glyph-name="Yacute" unicode="Ý" horiz-adv-x="738" d="M481 0H243v290L-24 708h287l112-208 107 208h280L481 290V0zM286 764l111 144h212L455 764H286z"/><glyph glyph-name="Thorn" unicode="Þ" horiz-adv-x="684" d="M303 127V0H66v708h237V607h67q54 0 106-11.5t93-39 66-73T660 369q0-66-24.5-112t-65-75-93-42T370 127h-67zm0 295V308h50q27 0 49.5 13.5T425 367q0 17-6 27.5T402.5 411t-23.5 8.5-26 2.5h-50z"/><glyph glyph-name="germandbls" unicode="ß" horiz-adv-x="727" d="M557 410q59-15 98-61.5T694 223q0-61-20.5-106T617 42.5t-85.5-44T423-16q-26 0-54 4T315-2v169q14-5 30.5-7.5T372 157q38 0 64 17.5t26 59.5q0 45-30 63t-75 18h-34v169h33q27 0 47 14.5t20 43.5q0 25-17.5 38T362 593q-42 0-60-27.5T284 500V0H53v493q0 130 80.5 202.5T372 768q54 0 105-12t91-37 64-64 24-93q0-62-29.5-99T557 410z"/><glyph glyph-name="agrave" unicode="à" horiz-adv-x="591" d="M334 218q-51 0-82-11t-31-41q0-11 5-18.5t13-12.5 17.5-7.5T274 125q33 0 53 21t20 54v18h-13zm-2 116q0 24-16.5 35.5T272 381q-32 0-60.5-13.5T161 336L46 450q48 46 114 71t136 25q75 0 124-21t77.5-58 40-86T549 277V0H340v42h-2q-20-30-57-43t-72-13q-31 0-63.5 9t-59 29T43 76t-17 79q0 55 28.5 89.5t72.5 54 98.5 26.5 106.5 7v2zM86 728h212l111-144H240z"/><glyph glyph-name="aacute" unicode="á" horiz-adv-x="591" d="M334 218q-51 0-82-11t-31-41q0-11 5-18.5t13-12.5 17.5-7.5T274 125q33 0 53 21t20 54v18h-13zm-2 116q0 24-16.5 35.5T272 381q-32 0-60.5-13.5T161 336L46 450q48 46 114 71t136 25q75 0 124-21t77.5-58 40-86T549 277V0H340v42h-2q-20-30-57-43t-72-13q-31 0-63.5 9t-59 29T43 76t-17 79q0 55 28.5 89.5t72.5 54 98.5 26.5 106.5 7v2zM191 584l111 144h212L360 584H191z"/><glyph glyph-name="acircumflex" unicode="â" horiz-adv-x="591" d="M334 218q-51 0-82-11t-31-41q0-11 5-18.5t13-12.5 17.5-7.5T274 125q33 0 53 21t20 54v18h-13zm-2 116q0 24-16.5 35.5T272 381q-32 0-60.5-13.5T161 336L46 450q48 46 114 71t136 25q75 0 124-21t77.5-58 40-86T549 277V0H340v42h-2q-20-30-57-43t-72-13q-31 0-63.5 9t-59 29T43 76t-17 79q0 55 28.5 89.5t72.5 54 98.5 26.5 106.5 7v2zm-32 318l-67-68H81l137 144h169l134-144H367z"/><glyph glyph-name="atilde" unicode="ã" horiz-adv-x="591" d="M334 218q-51 0-82-11t-31-41q0-11 5-18.5t13-12.5 17.5-7.5T274 125q33 0 53 21t20 54v18h-13zm-2 116q0 24-16.5 35.5T272 381q-32 0-60.5-13.5T161 336L46 450q48 46 114 71t136 25q75 0 124-21t77.5-58 40-86T549 277V0H340v42h-2q-20-30-57-43t-72-13q-31 0-63.5 9t-59 29T43 76t-17 79q0 55 28.5 89.5t72.5 54 98.5 26.5 106.5 7v2zm157 386q-2-30-10-55t-22.5-44-35-29.5T375 581q-21 0-40.5 6T294 604q-24 13-36 17.5t-27 4.5q-16 0-25-10.5T194 590h-80q3 57 32 96.5t81 39.5q23 0 42-6.5t41-17.5q23-12 36-17t29-5 23.5 10 11.5 30h79z"/><glyph glyph-name="adieresis" unicode="ä" horiz-adv-x="591" d="M334 218q-51 0-82-11t-31-41q0-11 5-18.5t13-12.5 17.5-7.5T274 125q33 0 53 21t20 54v18h-13zm-2 116q0 24-16.5 35.5T272 381q-32 0-60.5-13.5T161 336L46 450q48 46 114 71t136 25q75 0 124-21t77.5-58 40-86T549 277V0H340v42h-2q-20-30-57-43t-72-13q-31 0-63.5 9t-59 29T43 76t-17 79q0 55 28.5 89.5t72.5 54 98.5 26.5 106.5 7v2zm-6 344q0 20 8 38t22 31.5 32 21.5 39 8q20 0 38-8t31.5-21.5T518 716t8-38q0-21-8-38.5t-21.5-31-31.5-21-38-7.5q-42 0-71.5 28T326 678zm-249 0q0 20 8 38t22 31.5 32 21.5 39 8q20 0 38-8t31.5-21.5T269 716t8-38q0-21-8-38.5t-21.5-31-31.5-21-38-7.5q-42 0-71.5 28T77 678z"/><glyph glyph-name="aring" unicode="å" horiz-adv-x="591" d="M334 218q-51 0-82-11t-31-41q0-11 5-18.5t13-12.5 17.5-7.5T274 125q33 0 53 21t20 54v18h-13zm-2 116q0 24-16.5 35.5T272 381q-32 0-60.5-13.5T161 336L46 450q48 46 114 71t136 25q75 0 124-21t77.5-58 40-86T549 277V0H340v42h-2q-20-30-57-43t-72-13q-31 0-63.5 9t-59 29T43 76t-17 79q0 55 28.5 89.5t72.5 54 98.5 26.5 106.5 7v2zm84 343q0-24-9.5-45t-25-36.5-36.5-24-44-8.5-44 8.5-37 24-25 36.5-9 45 9 45 25 36.5 37 24 44 8.5 44-8.5 36.5-24 25-36.5 9.5-45zm-55 0q0 25-17.5 42T301 736t-42.5-17-17.5-42 17.5-42 42.5-17 42.5 17 17.5 42z"/><glyph glyph-name="ae" unicode="æ" horiz-adv-x="916" d="M616-20q-25 0-51.5 5.5T514 1.5t-45 26T433 62q-27-35-74.5-55.5T229-14q-35 0-71 9T92.5 24t-48 52T26 155q0 55 28.5 89.5t72.5 54 98.5 26.5 106.5 7v2q0 24-16.5 35.5T272 381q-32 0-61-13.5T161 336L46 450q48 46 114 71t136 25q62 0 100-18t58-43q28 26 68.5 43.5T611 546q62 0 113-21.5t87.5-60T868 373t20-115q0-13-.5-26.5T886 209H532q1-14 9.5-25t21-19 28-12 31.5-4q32 0 53.5 11.5T708 186l164-83q-35-57-101.5-90T616-20zM333 216q-50 0-79.5-10.5T224 166q0-20 17.5-29.5T275 127q32 0 51 20t19 52v17h-12zm356 117q0 28-20.5 46T613 397q-38 0-59-21t-24-43h159z"/><glyph glyph-name="ccedilla" unicode="ç" horiz-adv-x="526" d="M283-240q-16 0-33.5 1.5T214-234t-34.5 7.5T150-217l34 78q17-8 41.5-12t43.5-4q15 0 27.5 4.5T309-134q0 11-11.5 14.5T272-116q-23 0-41-6l-44 34 66 78q-50 11-90.5 35T93 84t-45 80-16 99q0 64 23.5 116.5T121 469t98.5 57T342 546q27 0 54.5-4.5t53-12.5 47-18 36.5-22L418 323q-12 14-31.5 21.5T349 352q-17 0-33-5.5t-28.5-17-20.5-28-8-38.5 8-38.5 20.5-27 28.5-16 33-5.5q20 0 39 7.5t31 20.5L535 42q-30-24-76-41t-98-20l-32-34q5 1 16 1 17 0 35-3.5T413-69t24.5-26.5T447-137q0-31-16.5-51t-41-31.5-53-16T283-240z"/><glyph glyph-name="egrave" unicode="è" horiz-adv-x="630" d="M403 333q0 28-20.5 46T327 397q-38 0-59-21t-24-43h159zm199-75q0-13-.5-26.5T600 209H246q1-14 9.5-25t21-19 28-12 31.5-4q32 0 53.5 11.5T422 186l164-83q-35-57-101.5-90T330-20q-57 0-111 18t-95.5 53.5T57 140 32 263q0 65 23 117.5t62.5 89 93 56.5T325 546q62 0 113-21.5t87.5-60T582 373t20-115zM114 728h212l111-144H268z"/><glyph glyph-name="eacute" unicode="é" horiz-adv-x="630" d="M403 333q0 28-20.5 46T327 397q-38 0-59-21t-24-43h159zm199-75q0-13-.5-26.5T600 209H246q1-14 9.5-25t21-19 28-12 31.5-4q32 0 53.5 11.5T422 186l164-83q-35-57-101.5-90T330-20q-57 0-111 18t-95.5 53.5T57 140 32 263q0 65 23 117.5t62.5 89 93 56.5T325 546q62 0 113-21.5t87.5-60T582 373t20-115zM219 584l111 144h212L388 584H219z"/><glyph glyph-name="ecircumflex" unicode="ê" horiz-adv-x="630" d="M403 333q0 28-20.5 46T327 397q-38 0-59-21t-24-43h159zm199-75q0-13-.5-26.5T600 209H246q1-14 9.5-25t21-19 28-12 31.5-4q32 0 53.5 11.5T422 186l164-83q-35-57-101.5-90T330-20q-57 0-111 18t-95.5 53.5T57 140 32 263q0 65 23 117.5t62.5 89 93 56.5T325 546q62 0 113-21.5t87.5-60T582 373t20-115zM332 652l-67-68H113l137 144h169l134-144H399z"/><glyph glyph-name="edieresis" unicode="ë" horiz-adv-x="630" d="M403 333q0 28-20.5 46T327 397q-38 0-59-21t-24-43h159zm199-75q0-13-.5-26.5T600 209H246q1-14 9.5-25t21-19 28-12 31.5-4q32 0 53.5 11.5T422 186l164-83q-35-57-101.5-90T330-20q-57 0-111 18t-95.5 53.5T57 140 32 263q0 65 23 117.5t62.5 89 93 56.5T325 546q62 0 113-21.5t87.5-60T582 373t20-115zM355 678q0 20 8 38t22 31.5 32 21.5 39 8q20 0 38-8t31.5-21.5T547 716t8-38q0-21-8-38.5t-21.5-31-31.5-21-38-7.5q-42 0-71.5 28T355 678zm-249 0q0 20 8 38t22 31.5 32 21.5 39 8q20 0 38-8t31.5-21.5T298 716t8-38q0-21-8-38.5t-21.5-31-31.5-21-38-7.5q-42 0-71.5 28T106 678z"/><glyph glyph-name="igrave" unicode="ì" horiz-adv-x="339" d="M54 526h231V0H54v526zm-94 202h212l111-144H114z"/><glyph glyph-name="iacute" unicode="í" horiz-adv-x="339" d="M54 526h231V0H54v526zm8 58l111 144h212L231 584H62z"/><glyph glyph-name="icircumflex" unicode="î" horiz-adv-x="339" d="M54 526h231V0H54v526zm118 126l-67-68H-47L90 728h169l134-144H239z"/><glyph glyph-name="idieresis" unicode="ï" horiz-adv-x="339" d="M54 526h231V0H54v526zm143 152q0 20 8 38t22 31.5 32 21.5 39 8q20 0 38-8t31.5-21.5T389 716t8-38q0-21-8-38.5t-21.5-31-31.5-21-38-7.5q-42 0-71.5 28T197 678zm-249 0q0 20 8 38t22 31.5T10 769t39 8q20 0 38-8t31.5-21.5T140 716t8-38q0-21-8-38.5t-21.5-31-31.5-21-38-7.5q-42 0-71.5 28T-52 678z"/><glyph glyph-name="eth" unicode="ð" horiz-adv-x="664" d="M331 352q-38 0-61.5-26T246 265q0-37 24-63t62-26 62 26 24 63q0 35-24.5 61T331 352zm20 180q-15 15-29 27t-26 22l-107-43-110 89 107 43q-8 7-29 21.5T116 719l176 94q29-20 48.5-36.5T377 745l112 45 121-94-127-49q70-74 109.5-157.5T632 297q0-81-24.5-140.5t-66-99-96-58.5T331-20q-59 0-113.5 19T122 54.5 56.5 144 32 265q0 64 21.5 114.5t59.5 85 89.5 52.5T313 535q6 0 15-1t21-3z"/><glyph glyph-name="ntilde" unicode="ñ" horiz-adv-x="666" d="M53 526h225v-58h2q20 29 59.5 50.5T430 540q55 0 91.5-20t58-51.5 30-70.5 8.5-78V0H386v280q0 40-12.5 56T336 352q-23 0-37.5-18.5T284 280V0H53v526zm466 194q-2-30-10-55t-22.5-44-35-29.5T405 581q-21 0-40.5 6T324 604q-24 13-36 17.5t-27 4.5q-16 0-25-10.5T224 590h-80q3 57 32 96.5t81 39.5q23 0 42-6.5t41-17.5q23-12 36-17t29-5 23.5 10 11.5 30h79z"/><glyph glyph-name="ograve" unicode="ò" horiz-adv-x="664" d="M632 265q0-68-24.5-121t-66-89.5-96-55.5T331-20q-59 0-113.5 19T122 54.5 56.5 144 32 265q0 67 24.5 119.5T122 473t95.5 54.5T331 546q60 0 114.5-18.5t96-54.5 66-88.5T632 265zm-301 87q-38 0-61.5-26T246 265q0-37 24-63t62-26 62 26 24 63q0 35-24.5 61T331 352zM118 728h212l111-144H272z"/><glyph glyph-name="oacute" unicode="ó" horiz-adv-x="664" d="M632 265q0-68-24.5-121t-66-89.5-96-55.5T331-20q-59 0-113.5 19T122 54.5 56.5 144 32 265q0 67 24.5 119.5T122 473t95.5 54.5T331 546q60 0 114.5-18.5t96-54.5 66-88.5T632 265zm-301 87q-38 0-61.5-26T246 265q0-37 24-63t62-26 62 26 24 63q0 35-24.5 61T331 352zM224 584l111 144h212L393 584H224z"/><glyph glyph-name="ocircumflex" unicode="ô" horiz-adv-x="664" d="M632 265q0-68-24.5-121t-66-89.5-96-55.5T331-20q-59 0-113.5 19T122 54.5 56.5 144 32 265q0 67 24.5 119.5T122 473t95.5 54.5T331 546q60 0 114.5-18.5t96-54.5 66-88.5T632 265zm-301 87q-38 0-61.5-26T246 265q0-37 24-63t62-26 62 26 24 63q0 35-24.5 61T331 352zm1 300l-67-68H113l137 144h169l134-144H399z"/><glyph glyph-name="otilde" unicode="õ" horiz-adv-x="664" d="M632 265q0-68-24.5-121t-66-89.5-96-55.5T331-20q-59 0-113.5 19T122 54.5 56.5 144 32 265q0 67 24.5 119.5T122 473t95.5 54.5T331 546q60 0 114.5-18.5t96-54.5 66-88.5T632 265zm-301 87q-38 0-61.5-26T246 265q0-37 24-63t62-26 62 26 24 63q0 35-24.5 61T331 352zm190 368q-2-30-10-55t-22.5-44-35-29.5T407 581q-21 0-40.5 6T326 604q-24 13-36 17.5t-27 4.5q-16 0-25-10.5T226 590h-80q3 57 32 96.5t81 39.5q23 0 42-6.5t41-17.5q23-12 36-17t29-5 23.5 10 11.5 30h79z"/><glyph glyph-name="odieresis" unicode="ö" horiz-adv-x="664" d="M632 265q0-68-24.5-121t-66-89.5-96-55.5T331-20q-59 0-113.5 19T122 54.5 56.5 144 32 265q0 67 24.5 119.5T122 473t95.5 54.5T331 546q60 0 114.5-18.5t96-54.5 66-88.5T632 265zm-301 87q-38 0-61.5-26T246 265q0-37 24-63t62-26 62 26 24 63q0 35-24.5 61T331 352zm26 326q0 20 8 38t22 31.5 32 21.5 39 8q20 0 38-8t31.5-21.5T549 716t8-38q0-21-8-38.5t-21.5-31-31.5-21-38-7.5q-42 0-71.5 28T357 678zm-249 0q0 20 8 38t22 31.5 32 21.5 39 8q20 0 38-8t31.5-21.5T300 716t8-38q0-21-8-38.5t-21.5-31-31.5-21-38-7.5q-42 0-71.5 28T108 678z"/><glyph glyph-name="divide" unicode="÷" horiz-adv-x="666" d="M235 495q0 19 8 36t21.5 29.5 31.5 20 38 7.5 37.5-7.5 31-20 21-29.5 7.5-36q0-40-28.5-67.5T334 400q-20 0-38 7.5t-31.5 20-21.5 30-8 37.5zm0-384q0 19 8 36t21.5 29.5 31.5 20 38 7.5 37.5-7.5 31-20 21-29.5 7.5-36-7.5-36.5-21-30.5-31-20.5T334 16t-38 7.5T264.5 44 243 74.5t-8 36.5zM79 230v147h508V230H79z"/><glyph glyph-name="oslash" unicode="ø" horiz-adv-x="664" d="M580 422q27-30 39.5-70.5T632 265q0-65-24-117.5t-65-90T447 0 331-20q-42 0-82.5 10.5T176 23L96-57 10 27l76 75q-25 29-39.5 71T32 264q0 65 23.5 117.5t64.5 89 95 56T331 546q45 0 86-11t72-32l73 71 87-84zM334 170q41 0 64.5 25t23.5 64q0 13-3 21L312 173q6-3 22-3zm-10 196q-41 0-64.5-25.5T236 276q0-12 2-20l107 108q-6 2-21 2z"/><glyph glyph-name="ugrave" unicode="ù" horiz-adv-x="663" d="M610 0H385v58h-2q-20-29-59.5-50.5T233-14q-56 0-92 19.5t-57.5 51-30 71T45 206v320h232V248q0-40 12.5-56t37.5-16q23 0 37.5 18.5T379 248v278h231V0zM109 728h212l111-144H263z"/><glyph glyph-name="uacute" unicode="ú" horiz-adv-x="663" d="M610 0H385v58h-2q-20-29-59.5-50.5T233-14q-56 0-92 19.5t-57.5 51-30 71T45 206v320h232V248q0-40 12.5-56t37.5-16q23 0 37.5 18.5T379 248v278h231V0zM232 584l111 144h212L401 584H232z"/><glyph glyph-name="ucircumflex" unicode="û" horiz-adv-x="663" d="M610 0H385v58h-2q-20-29-59.5-50.5T233-14q-56 0-92 19.5t-57.5 51-30 71T45 206v320h232V248q0-40 12.5-56t37.5-16q23 0 37.5 18.5T379 248v278h231V0zM327 652l-67-68H108l137 144h169l134-144H394z"/><glyph glyph-name="udieresis" unicode="ü" horiz-adv-x="663" d="M610 0H385v58h-2q-20-29-59.5-50.5T233-14q-56 0-92 19.5t-57.5 51-30 71T45 206v320h232V248q0-40 12.5-56t37.5-16q23 0 37.5 18.5T379 248v278h231V0zM353 678q0 20 8 38t22 31.5 32 21.5 39 8q20 0 38-8t31.5-21.5T545 716t8-38q0-21-8-38.5t-21.5-31-31.5-21-38-7.5q-42 0-71.5 28T353 678zm-249 0q0 20 8 38t22 31.5 32 21.5 39 8q20 0 38-8t31.5-21.5T296 716t8-38q0-21-8-38.5t-21.5-31-31.5-21-38-7.5q-42 0-71.5 28T104 678z"/><glyph glyph-name="yacute" unicode="ý" horiz-adv-x="638" d="M205 20L-8 526h256l78-277h4l69 277h247L430-32q-19-49-43-87.5T331-185t-75.5-41T154-240q-18 0-37 1.5t-36.5 4-32.5 5-25 5.5L52-34q13-5 31.5-8.5T117-46q38 0 56.5 15.5T201 9zm33 564l111 144h212L407 584H238z"/><glyph glyph-name="thorn" unicode="þ" horiz-adv-x="694" d="M422 540q59 0 104-24t75-63 45.5-88T662 265q0-52-15.5-102T601 73.5 526.5 10 423-14q-39 0-77 14.5T284 41h-2v-281H53v996h229V485h2q24 26 62 40.5t76 14.5zm26-275q0 35-22 61t-64 26q-41 0-65.5-26T272 265q0-37 24.5-63t65.5-26q42 0 64 25.5t22 63.5z"/><glyph glyph-name="ydieresis" unicode="ÿ" horiz-adv-x="638" d="M205 20L-8 526h256l78-277h4l69 277h247L430-32q-19-49-43-87.5T331-185t-75.5-41T154-240q-18 0-37 1.5t-36.5 4-32.5 5-25 5.5L52-34q13-5 31.5-8.5T117-46q38 0 56.5 15.5T201 9zm147 658q0 20 8 38t22 31.5 32 21.5 39 8q20 0 38-8t31.5-21.5T544 716t8-38q0-21-8-38.5t-21.5-31-31.5-21-38-7.5q-42 0-71.5 28T352 678zm-249 0q0 20 8 38t22 31.5 32 21.5 39 8q20 0 38-8t31.5-21.5T295 716t8-38q0-21-8-38.5t-21.5-31-31.5-21-38-7.5q-42 0-71.5 28T103 678z"/><glyph glyph-name="Amacron" unicode="Ā" horiz-adv-x="776" d="M263 708h253L792 0H533l-37 104H271L236 0H-16zm123-247l-58-175h115zM206 887h360v-96H206v96z"/><glyph glyph-name="amacron" unicode="ā" horiz-adv-x="591" d="M334 218q-51 0-82-11t-31-41q0-11 5-18.5t13-12.5 17.5-7.5T274 125q33 0 53 21t20 54v18h-13zm-2 116q0 24-16.5 35.5T272 381q-32 0-60.5-13.5T161 336L46 450q48 46 114 71t136 25q75 0 124-21t77.5-58 40-86T549 277V0H340v42h-2q-20-30-57-43t-72-13q-31 0-63.5 9t-59 29T43 76t-17 79q0 55 28.5 89.5t72.5 54 98.5 26.5 106.5 7v2zM123 707h360v-96H123v96z"/><glyph glyph-name="Abreve" unicode="Ă" horiz-adv-x="776" d="M263 708h253L792 0H533l-37 104H271L236 0H-16zm123-247l-58-175h115zm-1 303q-33 0-64 6.5t-55.5 23-41 44.5-19.5 70h110q1-12 8.5-20t17.5-12 22-5.5 22-1.5 22 1.5 22.5 5.5 17.5 12 8 20h110q-3-42-19-70t-41-44.5-56-23-64-6.5z"/><glyph glyph-name="abreve" unicode="ă" horiz-adv-x="591" d="M334 218q-51 0-82-11t-31-41q0-11 5-18.5t13-12.5 17.5-7.5T274 125q33 0 53 21t20 54v18h-13zm-2 116q0 24-16.5 35.5T272 381q-32 0-60.5-13.5T161 336L46 450q48 46 114 71t136 25q75 0 124-21t77.5-58 40-86T549 277V0H340v42h-2q-20-30-57-43t-72-13q-31 0-63.5 9t-59 29T43 76t-17 79q0 55 28.5 89.5t72.5 54 98.5 26.5 106.5 7v2zm-27 250q-33 0-64 6.5t-55.5 23-41 44.5-19.5 70h110q1-12 8.5-20t17.5-12 22-5.5 22-1.5 22 1.5 22.5 5.5 17.5 12 8 20h110q-3-42-19-70t-41-44.5-56-23-64-6.5z"/><glyph glyph-name="Aogonek" unicode="Ą" horiz-adv-x="776" d="M541-240q-20 0-42.5 4T457-221.5t-31 29-12 46.5q0 24 11 45t28 39 38.5 33.5T533 0l-37 104H271L236 0H-16l279 708h253L792 0H670q-64-45-88.5-69.5T557-112q0-20 23-20 26 0 56 18l44-83q-28-18-64.5-30.5T541-240zM386 461l-58-175h115z"/><glyph glyph-name="aogonek" unicode="ą" horiz-adv-x="591" d="M347-240q-20 0-42.5 4T263-221.5t-31 29-12 46.5q0 24 11 45t28 39 38.5 33.5T339 0h1v42h-2q-20-30-57-43t-72-13q-31 0-63.5 9t-59 29T43 76t-17 79q0 55 28.5 89.5t72.5 54 98.5 26.5 106.5 7v2q0 24-16.5 35.5T272 381q-32 0-60.5-13.5T161 336L46 450q48 46 114 71t136 25q75 0 124-21t77.5-58 40-86T549 277V0h-73q-64-45-88.5-69.5T363-112q0-20 23-20 26 0 56 18l44-83q-28-18-64.5-30.5T347-240zm-13 458q-51 0-82-11t-31-41q0-11 5-18.5t13-12.5 17.5-7.5T274 125q33 0 53 21t20 54v18h-13z"/><glyph glyph-name="Cacute" unicode="Ć" horiz-adv-x="696" d="M34 354q0 85 30 154t82 118 122.5 75.5T419 728q82 0 155-26.5T696 630L550 454q-20 26-50 39.5T433 507q-30 0-56-10.5T331.5 466 301 417.5 290 354t11.5-62.5 31-47.5 45.5-30.5 55-10.5q41 0 70.5 17t46.5 40L696 85Q648 37 578 8.5T419-20q-80 0-150.5 27T146 83.5t-82 118T34 354zm281 410l111 144h212L484 764H315z"/><glyph glyph-name="cacute" unicode="ć" horiz-adv-x="526" d="M339-20q-67 0-123 20t-97 57-64 89-23 117q0 64 23.5 116.5T121 469t98.5 57T342 546q27 0 54.5-4.5t53-12.5 47-18 36.5-22L418 323q-12 14-31.5 21.5T349 352q-17 0-33-5.5t-28.5-17-20.5-28-8-38.5 8-38.5 20.5-27 28.5-16 33-5.5q20 0 39 7.5t31 20.5L535 42q-33-26-85.5-44T339-20zM232 584l111 144h212L401 584H232z"/><glyph glyph-name="Ccircumflex" unicode="Ĉ" horiz-adv-x="696" d="M34 354q0 85 30 154t82 118 122.5 75.5T419 728q82 0 155-26.5T696 630L550 454q-20 26-50 39.5T433 507q-30 0-56-10.5T331.5 466 301 417.5 290 354t11.5-62.5 31-47.5 45.5-30.5 55-10.5q41 0 70.5 17t46.5 40L696 85Q648 37 578 8.5T419-20q-80 0-150.5 27T146 83.5t-82 118T34 354zm398 478l-67-68H213l137 144h169l134-144H499z"/><glyph glyph-name="ccircumflex" unicode="ĉ" horiz-adv-x="526" d="M339-20q-67 0-123 20t-97 57-64 89-23 117q0 64 23.5 116.5T121 469t98.5 57T342 546q27 0 54.5-4.5t53-12.5 47-18 36.5-22L418 323q-12 14-31.5 21.5T349 352q-17 0-33-5.5t-28.5-17-20.5-28-8-38.5 8-38.5 20.5-27 28.5-16 33-5.5q20 0 39 7.5t31 20.5L535 42q-33-26-85.5-44T339-20zm0 672l-67-68H120l137 144h169l134-144H406z"/><glyph glyph-name="Cdotaccent" unicode="Ċ" horiz-adv-x="696" d="M34 354q0 85 30 154t82 118 122.5 75.5T419 728q82 0 155-26.5T696 630L550 454q-20 26-50 39.5T433 507q-30 0-56-10.5T331.5 466 301 417.5 290 354t11.5-62.5 31-47.5 45.5-30.5 55-10.5q41 0 70.5 17t46.5 40L696 85Q648 37 578 8.5T419-20q-80 0-150.5 27T146 83.5t-82 118T34 354zm284 504q0 22 8.5 41t23.5 33.5 34.5 23T427 964q21 0 40.5-8.5t34-23 23-33.5 8.5-41-8.5-41-23-33.5-34-22.5-40.5-8q-23 0-42.5 8T350 783.5 326.5 817t-8.5 41z"/><glyph glyph-name="cdotaccent" unicode="ċ" horiz-adv-x="526" d="M339-20q-67 0-123 20t-97 57-64 89-23 117q0 64 23.5 116.5T121 469t98.5 57T342 546q27 0 54.5-4.5t53-12.5 47-18 36.5-22L418 323q-12 14-31.5 21.5T349 352q-17 0-33-5.5t-28.5-17-20.5-28-8-38.5 8-38.5 20.5-27 28.5-16 33-5.5q20 0 39 7.5t31 20.5L535 42q-33-26-85.5-44T339-20zM232 678q0 22 8.5 41t23.5 33.5 34.5 23T341 784q21 0 40.5-8.5t34-23 23-33.5 8.5-41-8.5-41-23-33.5-34-22.5-40.5-8q-23 0-42.5 8T264 603.5 240.5 637t-8.5 41z"/><glyph glyph-name="Ccaron" unicode="Č" horiz-adv-x="696" d="M34 354q0 85 30 154t82 118 122.5 75.5T419 728q82 0 155-26.5T696 630L550 454q-20 26-50 39.5T433 507q-30 0-56-10.5T331.5 466 301 417.5 290 354t11.5-62.5 31-47.5 45.5-30.5 55-10.5q41 0 70.5 17t46.5 40L696 85Q648 37 578 8.5T419-20q-80 0-150.5 27T146 83.5t-82 118T34 354zm620 554L520 764H351L214 908h152l67-68 67 68h154z"/><glyph glyph-name="ccaron" unicode="č" horiz-adv-x="526" d="M339-20q-67 0-123 20t-97 57-64 89-23 117q0 64 23.5 116.5T121 469t98.5 57T342 546q27 0 54.5-4.5t53-12.5 47-18 36.5-22L418 323q-12 14-31.5 21.5T349 352q-17 0-33-5.5t-28.5-17-20.5-28-8-38.5 8-38.5 20.5-27 28.5-16 33-5.5q20 0 39 7.5t31 20.5L535 42q-33-26-85.5-44T339-20zm221 748L426 584H257L120 728h152l67-68 67 68h154z"/><glyph glyph-name="Dcaron" unicode="Ď" horiz-adv-x="788" d="M66 0v708h264q84 0 160.5-16.5t135-57T719 527t35-169q0-93-33.5-161T631 85.5 502 21 350 0H66zm229 506V204h44q84 0 129 36.5T513 360q0 69-45 107.5T348 506h-53zm286 402L447 764H278L141 908h152l67-68 67 68h154z"/><glyph glyph-name="dcaron" unicode="ď" horiz-adv-x="694" d="M32 265q0 51 15.5 100T93 453t75 63 104 24q38 0 76-14.5t61-41.5h2v272h230V0H434v55h-2q-23-32-67-50.5T272-14q-59 0-104 24T93 73.5 47.5 163 32 265zm214 0q0-38 22-63.5t64-25.5q41 0 65.5 26t24.5 63q0 35-24.5 61T332 352q-42 0-64-26t-22-61zm663 443l-87-177H658l62 177h189z"/><glyph glyph-name="Dcroat" unicode="Đ" horiz-adv-x="788" d="M12 286v142h54v280h264q84 0 160.5-16.5t135-57T719 527t35-169q0-93-33.5-161T631 85.5 502 21 350 0H66v286H12zm411 142V286H295v-82h44q84 0 129 36.5T513 360q0 69-45 107.5T348 506h-53v-78h128z"/><glyph glyph-name="dcroat" unicode="đ" horiz-adv-x="694" d="M293 680h118v76h230v-76h33V570h-33V0H434v55h-2q-23-32-67-50.5T272-14q-59 0-104 24T93 73.5 47.5 163 32 265q0 51 15.5 100T93 453t75 63 104 24q38 0 76-14.5t61-41.5h2v86H293v110zm-47-415q0-38 22-63.5t64-25.5q41 0 65.5 26t24.5 63q0 35-24.5 61T332 352q-42 0-64-26t-22-61z"/><glyph glyph-name="Emacron" unicode="Ē" horiz-adv-x="603" d="M66 708h487V510H290v-61h247V264H290v-66h280V0H66v708zm60 179h360v-96H126v96z"/><glyph glyph-name="emacron" unicode="ē" horiz-adv-x="630" d="M403 333q0 28-20.5 46T327 397q-38 0-59-21t-24-43h159zm199-75q0-13-.5-26.5T600 209H246q1-14 9.5-25t21-19 28-12 31.5-4q32 0 53.5 11.5T422 186l164-83q-35-57-101.5-90T330-20q-57 0-111 18t-95.5 53.5T57 140 32 263q0 65 23 117.5t62.5 89 93 56.5T325 546q62 0 113-21.5t87.5-60T582 373t20-115zM152 707h360v-96H152v96z"/><glyph glyph-name="Ebreve" unicode="Ĕ" horiz-adv-x="603" d="M66 708h487V510H290v-61h247V264H290v-66h280V0H66v708zm247 56q-33 0-64 6.5t-55.5 23-41 44.5-19.5 70h110q1-12 8.5-20t17.5-12 22-5.5 22-1.5 22 1.5 22.5 5.5 17.5 12 8 20h110q-3-42-19-70t-41-44.5-56-23-64-6.5z"/><glyph glyph-name="ebreve" unicode="ĕ" horiz-adv-x="630" d="M403 333q0 28-20.5 46T327 397q-38 0-59-21t-24-43h159zm199-75q0-13-.5-26.5T600 209H246q1-14 9.5-25t21-19 28-12 31.5-4q32 0 53.5 11.5T422 186l164-83q-35-57-101.5-90T330-20q-57 0-111 18t-95.5 53.5T57 140 32 263q0 65 23 117.5t62.5 89 93 56.5T325 546q62 0 113-21.5t87.5-60T582 373t20-115zM330 584q-33 0-64 6.5t-55.5 23-41 44.5-19.5 70h110q1-12 8.5-20t17.5-12 22-5.5 22-1.5 22 1.5 22.5 5.5 17.5 12 8 20h110q-3-42-19-70t-41-44.5-56-23-64-6.5z"/><glyph glyph-name="Edotaccent" unicode="Ė" horiz-adv-x="603" d="M66 708h487V510H290v-61h247V264H290v-66h280V0H66v708zm141 150q0 22 8.5 41t23.5 33.5 34.5 23T316 964q21 0 40.5-8.5t34-23 23-33.5 8.5-41-8.5-41-23-33.5-34-22.5-40.5-8q-23 0-42.5 8T239 783.5 215.5 817t-8.5 41z"/><glyph glyph-name="edotaccent" unicode="ė" horiz-adv-x="630" d="M403 333q0 28-20.5 46T327 397q-38 0-59-21t-24-43h159zm199-75q0-13-.5-26.5T600 209H246q1-14 9.5-25t21-19 28-12 31.5-4q32 0 53.5 11.5T422 186l164-83q-35-57-101.5-90T330-20q-57 0-111 18t-95.5 53.5T57 140 32 263q0 65 23 117.5t62.5 89 93 56.5T325 546q62 0 113-21.5t87.5-60T582 373t20-115zM222 678q0 22 8.5 41t23.5 33.5 34.5 23T331 784q21 0 40.5-8.5t34-23 23-33.5 8.5-41-8.5-41-23-33.5-34-22.5-40.5-8q-23 0-42.5 8T254 603.5 230.5 637t-8.5 41z"/><glyph glyph-name="Eogonek" unicode="Ę" horiz-adv-x="603" d="M66 708h487V510H290v-61h247V264H290v-66h280V0h-22q-64-45-88.5-69.5T435-112q0-20 23-20 26 0 56 18l44-83q-28-18-64.5-30.5T419-240q-20 0-42.5 4T335-221.5t-31 29-12 46.5q0 24 11 45t28 39 38.5 33.5T411 0H66v708z"/><glyph glyph-name="eogonek" unicode="ę" horiz-adv-x="630" d="M305-240q-20 0-42.5 4T221-221.5t-31 29-12 46.5q0 21 8 39t21.5 34.5 30.5 31T273-15q-49 7-92.5 28.5T104 70t-52.5 83.5T32 263q0 65 23 117.5t62.5 89 93 56.5T325 546q62 0 113-21.5t87.5-60T582 373t20-115q0-13-.5-26.5T600 209H246q1-14 9.5-25t21-19 28-12 31.5-4q32 0 53.5 11.5T422 186l164-83q-26-42-68-70.5T420-9q-28-20-47-35.5T342.5-72 326-93.5t-5-18.5q0-20 23-20 26 0 56 18l44-83q-28-18-64.5-30.5T305-240zm98 573q0 28-20.5 46T327 397q-38 0-59-21t-24-43h159z"/><glyph glyph-name="Ecaron" unicode="Ě" horiz-adv-x="603" d="M66 708h487V510H290v-61h247V264H290v-66h280V0H66v708zm467 200L399 764H230L93 908h152l67-68 67 68h154z"/><glyph glyph-name="ecaron" unicode="ě" horiz-adv-x="630" d="M403 333q0 28-20.5 46T327 397q-38 0-59-21t-24-43h159zm199-75q0-13-.5-26.5T600 209H246q1-14 9.5-25t21-19 28-12 31.5-4q32 0 53.5 11.5T422 186l164-83q-35-57-101.5-90T330-20q-57 0-111 18t-95.5 53.5T57 140 32 263q0 65 23 117.5t62.5 89 93 56.5T325 546q62 0 113-21.5t87.5-60T582 373t20-115zm-51 470L417 584H248L111 728h152l67-68 67 68h154z"/><glyph glyph-name="Gcircumflex" unicode="Ĝ" horiz-adv-x="762" d="M426-18q-84 0-155.5 26t-124 74.5T64 200 34 354t30 154 82 118 122 75.5T418 728q83 0 157.5-27T697 627L558 460q-22 26-52 41.5T432 517q-29 0-56.5-11.5t-48.5-33-34-51.5-13-67q0-74 38.5-120.5T442 187q15 0 31 2.5t25 7.5v54H384v187h325V51q-25-15-57.5-27.5T582.5 2 506-12.5 426-18zm4 850l-67-68H211l137 144h169l134-144H497z"/><glyph glyph-name="gcircumflex" unicode="ĝ" horiz-adv-x="697" d="M32 265q0 51 15.5 100T93 453t75 63 104 24q42 0 82.5-16t66.5-51h3v53h217V54q0-86-28-143t-74.5-90.5-105.5-47T313-240q-75 0-150 19.5T32-163L133-10q38-29 80-42.5T293-66q25 0 47.5 6.5t39.5 19 27 31T417 33v23h-3q-19-22-56.5-39T272 0q-61 0-106 21.5t-75 58T46.5 164 32 265zm214 0q0-38 22-63.5t64-25.5q41 0 65.5 26t24.5 63q0 35-24.5 61T332 352q-42 0-64-26t-22-61zm114 387l-67-68H141l137 144h169l134-144H427z"/><glyph glyph-name="Gbreve" unicode="Ğ" horiz-adv-x="762" d="M426-18q-84 0-155.5 26t-124 74.5T64 200 34 354t30 154 82 118 122 75.5T418 728q83 0 157.5-27T697 627L558 460q-22 26-52 41.5T432 517q-29 0-56.5-11.5t-48.5-33-34-51.5-13-67q0-74 38.5-120.5T442 187q15 0 31 2.5t25 7.5v54H384v187h325V51q-25-15-57.5-27.5T582.5 2 506-12.5 426-18zm-5 782q-33 0-64 6.5t-55.5 23-41 44.5-19.5 70h110q1-12 8.5-20t17.5-12 22-5.5 22-1.5 22 1.5 22.5 5.5 17.5 12 8 20h110q-3-42-19-70t-41-44.5-56-23-64-6.5z"/><glyph glyph-name="gbreve" unicode="ğ" horiz-adv-x="697" d="M32 265q0 51 15.5 100T93 453t75 63 104 24q42 0 82.5-16t66.5-51h3v53h217V54q0-86-28-143t-74.5-90.5-105.5-47T313-240q-75 0-150 19.5T32-163L133-10q38-29 80-42.5T293-66q25 0 47.5 6.5t39.5 19 27 31T417 33v23h-3q-19-22-56.5-39T272 0q-61 0-106 21.5t-75 58T46.5 164 32 265zm214 0q0-38 22-63.5t64-25.5q41 0 65.5 26t24.5 63q0 35-24.5 61T332 352q-42 0-64-26t-22-61zm107 319q-33 0-64 6.5t-55.5 23-41 44.5-19.5 70h110q1-12 8.5-20t17.5-12 22-5.5 22-1.5 22 1.5 22.5 5.5 17.5 12 8 20h110q-3-42-19-70t-41-44.5-56-23-64-6.5z"/><glyph glyph-name="Gdotaccent" unicode="Ġ" horiz-adv-x="762" d="M426-18q-84 0-155.5 26t-124 74.5T64 200 34 354t30 154 82 118 122 75.5T418 728q83 0 157.5-27T697 627L558 460q-22 26-52 41.5T432 517q-29 0-56.5-11.5t-48.5-33-34-51.5-13-67q0-74 38.5-120.5T442 187q15 0 31 2.5t25 7.5v54H384v187h325V51q-25-15-57.5-27.5T582.5 2 506-12.5 426-18zM309 858q0 22 8.5 41t23.5 33.5 34.5 23T418 964q21 0 40.5-8.5t34-23 23-33.5 8.5-41-8.5-41-23-33.5-34-22.5-40.5-8q-23 0-42.5 8T341 783.5 317.5 817t-8.5 41z"/><glyph glyph-name="gdotaccent" unicode="ġ" horiz-adv-x="697" d="M32 265q0 51 15.5 100T93 453t75 63 104 24q42 0 82.5-16t66.5-51h3v53h217V54q0-86-28-143t-74.5-90.5-105.5-47T313-240q-75 0-150 19.5T32-163L133-10q38-29 80-42.5T293-66q25 0 47.5 6.5t39.5 19 27 31T417 33v23h-3q-19-22-56.5-39T272 0q-61 0-106 21.5t-75 58T46.5 164 32 265zm214 0q0-38 22-63.5t64-25.5q41 0 65.5 26t24.5 63q0 35-24.5 61T332 352q-42 0-64-26t-22-61zm5 413q0 22 8.5 41t23.5 33.5 34.5 23T360 784q21 0 40.5-8.5t34-23 23-33.5 8.5-41-8.5-41-23-33.5-34-22.5-40.5-8q-23 0-42.5 8T283 603.5 259.5 637t-8.5 41z"/><glyph glyph-name="Gcommaaccent" unicode="Ģ" horiz-adv-x="762" d="M426-18q-84 0-155.5 26t-124 74.5T64 200 34 354t30 154 82 118 122 75.5T418 728q83 0 157.5-27T697 627L558 460q-22 26-52 41.5T432 517q-29 0-56.5-11.5t-48.5-33-34-51.5-13-67q0-74 38.5-120.5T442 187q15 0 31 2.5t25 7.5v54H384v187h325V51q-25-15-57.5-27.5T582.5 2 506-12.5 426-18zm100-27l-93-195H269l68 195h189z"/><glyph glyph-name="gcommaaccent" unicode="ģ" horiz-adv-x="697" d="M32 265q0 51 15.5 100T93 453t75 63 104 24q42 0 82.5-16t66.5-51h3v53h217V54q0-86-28-143t-74.5-90.5-105.5-47T313-240q-75 0-150 19.5T32-163L133-10q38-29 80-42.5T293-66q25 0 47.5 6.5t39.5 19 27 31T417 33v23h-3q-19-22-56.5-39T272 0q-61 0-106 21.5t-75 58T46.5 164 32 265zm214 0q0-38 22-63.5t64-25.5q41 0 65.5 26t24.5 63q0 35-24.5 61T332 352q-42 0-64-26t-22-61zm-10 319l93 195h164l-68-195H236z"/><glyph glyph-name="Hcircumflex" unicode="Ĥ" horiz-adv-x="802" d="M498 269H304V0H66v708h237V468h194v240h239V0H498v269zm-97 563l-67-68H182l137 144h169l134-144H468z"/><glyph glyph-name="hcircumflex" unicode="ĥ" horiz-adv-x="666" d="M430 540q55 0 91.5-20t58-51.5 30-70.5 8.5-78V0H386v280q0 40-12.5 56T336 352q-20 0-36-17.5T284 279V0H53v756h231V468h2q20 29 57 50.5t87 21.5zm-95 324l-67-68H116l137 144h169l134-144H402z"/><glyph glyph-name="Hbar" unicode="Ħ" horiz-adv-x="802" d="M498 269H304V0H66v708h237v-78h194v78h239V0H498v269zm-1 199v52H303v-52h194z"/><glyph glyph-name="hbar" unicode="ħ" horiz-adv-x="666" d="M20 680h33v76h231v-76h117V570H284V468h2q20 29 57 50.5t87 21.5q55 0 91.5-20t58-51.5 30-70.5 8.5-78V0H386v280q0 40-12.5 56T336 352q-20 0-36-17.5T284 279V0H53v570H20v110z"/><glyph glyph-name="Itilde" unicode="Ĩ" horiz-adv-x="372" d="M66 708h240V0H66v708zm308 192q-2-30-10-55t-22.5-44-35-29.5T260 761q-21 0-40.5 6T179 784q-24 13-36 17.5t-27 4.5q-16 0-25-10.5T79 770H-1q3 57 32 96.5t81 39.5q23 0 42-6.5t41-17.5q23-12 36-17t29-5 23.5 10 11.5 30h79z"/><glyph glyph-name="itilde" unicode="ĩ" horiz-adv-x="339" d="M54 526h231V0H54v526zm304 194q-2-30-10-55t-22.5-44-35-29.5T244 581q-21 0-40.5 6T163 604q-24 13-36 17.5t-27 4.5q-16 0-25-10.5T63 590h-80q3 57 32 96.5T96 726q23 0 42-6.5t41-17.5q23-12 36-17t29-5 23.5 10 11.5 30h79z"/><glyph glyph-name="Imacron" unicode="Ī" horiz-adv-x="372" d="M66 708h240V0H66v708zM6 887h360v-96H6v96z"/><glyph glyph-name="imacron" unicode="ī" horiz-adv-x="339" d="M54 526h231V0H54v526zM-9 707h360v-96H-9v96z"/><glyph glyph-name="Iogonek" unicode="Į" horiz-adv-x="372" d="M66 708h240V0h-18q-64-45-88.5-69.5T175-112q0-20 23-20 26 0 56 18l44-83q-28-18-64.5-30.5T159-240q-20 0-42.5 4T75-221.5t-31 29T32-146q0 24 11 45t28 39 38.5 33.5T151 0H66v708z"/><glyph glyph-name="iogonek" unicode="į" horiz-adv-x="339" d="M54 526h231V0h-9q-64-45-88.5-69.5T163-112q0-20 23-20 26 0 56 18l44-83q-28-18-64.5-30.5T147-240q-20 0-42.5 4T63-221.5t-31 29T20-146q0 24 11 45t28 39 38.5 33.5T139 0H54v526zm-4 152q0 24 9.5 45.5t26 37.5 38.5 25.5 47 9.5q24 0 45-9.5t37.5-25.5 26-37.5T289 678q0-25-9.5-46.5t-26-37T216 570t-45-9q-25 0-47 9t-38.5 24.5-26 37T50 678z"/><glyph glyph-name="Idotaccent" unicode="İ" horiz-adv-x="372" d="M66 708h240V0H66v708zm12 150q0 22 8.5 41t23.5 33.5 34.5 23T187 964q21 0 40.5-8.5t34-23 23-33.5 8.5-41-8.5-41-23-33.5-34-22.5-40.5-8q-23 0-42.5 8T110 783.5 86.5 817 78 858z"/><glyph glyph-name="dotlessi" unicode="ı" horiz-adv-x="339" d="M54 526h231V0H54v526z"/><glyph glyph-name="IJ" unicode="Ĳ" horiz-adv-x="938" d="M66 708h240V0H66v708zM613-20q-48 0-91 14t-77.5 38T385 89t-35 71l204 78q4-16 14.5-28.5T597 197q23 0 31 15.5t8 39.5v456h239V262q0-48-10.5-98T825 73 745 6 613-20z"/><glyph glyph-name="ij" unicode="ĳ" horiz-adv-x="675" d="M54 526h231V0H54v526zm-4 152q0 24 9.5 45.5t26 37.5 38.5 25.5 47 9.5q24 0 45-9.5t37.5-25.5 26-37.5T289 678q0-25-9.5-46.5t-26-37T216 570t-45-9q-25 0-47 9t-38.5 24.5-26 37T50 678zM621 12q0-51-10.5-96.5t-37.5-80-73-55T384-240q-20 0-48 3t-48 9l12 188q11-3 20.5-4t16.5-1q26 0 39.5 14.5T390 19v507h231V12zM386 678q0 24 9.5 45.5t26 37.5 38.5 25.5 46 9.5 45.5-9.5 38-25.5 26-37.5T625 678q0-25-9.5-46.5t-26-37-38-24.5-45.5-9-46 9-38.5 24.5-26 37T386 678z"/><glyph glyph-name="Jcircumflex" unicode="Ĵ" horiz-adv-x="573" d="M248-20q-48 0-91 14T79.5 32 20 89t-35 71l204 78q4-16 14.5-28.5T232 197q23 0 31 15.5t8 39.5v456h239V262q0-48-10.5-98T460 73 380 6 248-20zm142 852l-67-68H171l137 144h169l134-144H457z"/><glyph glyph-name="jcircumflex" unicode="ĵ" horiz-adv-x="346" d="M292 12q0-51-10.5-96.5t-37.5-80-73-55T55-240q-20 0-48 3t-48 9l12 188q11-3 20.5-4T8-45q26 0 39.5 14.5T61 19v507h231V12zM179 652l-67-68H-40L97 728h169l134-144H246z"/><glyph glyph-name="Kcommaaccent" unicode="Ķ" horiz-adv-x="763" d="M300 282h-2V0H66v708h231V447h2l189 261h280L502 384 781 0H489zM506-45l-93-195H249l68 195h189z"/><glyph glyph-name="kcommaaccent" unicode="ķ" horiz-adv-x="674" d="M284 229V0H53v756h231V325h3l125 201h268L510 289 679 0H410L287 229h-3zM453-45l-93-195H196l68 195h189z"/><glyph glyph-name="Lacute" unicode="Ĺ" horiz-adv-x="549" d="M66 708h240V204h235V0H66v708zm32 56l111 144h212L267 764H98z"/><glyph glyph-name="lacute" unicode="ĺ" horiz-adv-x="342" d="M53 756h236V0H53v756zm0 36l111 144h212L222 792H53z"/><glyph glyph-name="Lcommaaccent" unicode="Ļ" horiz-adv-x="549" d="M66 708h240V204h235V0H66v708zM409-45l-93-195H152l68 195h189z"/><glyph glyph-name="lcommaaccent" unicode="ļ" horiz-adv-x="342" d="M53 756h236V0H53v756zM277-46l-93-195H20L88-46h189z"/><glyph glyph-name="Lcaron" unicode="Ľ" horiz-adv-x="549" d="M66 708h240V204h235V0H66v708zm519 0l-87-177H334l62 177h189z"/><glyph glyph-name="lcaron" unicode="ľ" horiz-adv-x="342" d="M53 756h236V0H53v756zm504-48l-87-177H306l62 177h189z"/><glyph glyph-name="Ldot" unicode="Ŀ" horiz-adv-x="549" d="M66 708h240V204h235V0H66v708zm286-320q0 22 8.5 41t23.5 33.5 34.5 23T461 494q21 0 40.5-8.5t34-23 23-33.5 8.5-41-8.5-41-23-33.5-34-22.5-40.5-8q-23 0-42.5 8T384 313.5 360.5 347t-8.5 41z"/><glyph glyph-name="ldot" unicode="ŀ" horiz-adv-x="524" d="M53 756h236V0H53v756zm272-368q0 22 8.5 41t23.5 33.5 34.5 23T434 494q21 0 40.5-8.5t34-23 23-33.5 8.5-41-8.5-41-23-33.5-34-22.5-40.5-8q-23 0-42.5 8T357 313.5 333.5 347t-8.5 41z"/><glyph glyph-name="Lslash" unicode="Ł" horiz-adv-x="549" d="M11 94v190l55 48v376h240V504l170 146V461L306 316V204h235V0H66v142z"/><glyph glyph-name="lslash" unicode="ł" horiz-adv-x="342" d="M289 0H53v221l-41-38v194l41 39v340h236V597l41 38V441l-41-39V0z"/><glyph glyph-name="Nacute" unicode="Ń" horiz-adv-x="791" d="M66 708h237l202-359h4l-10 359h226V0H482L286 338h-4L292 0H66v708zm222 56l111 144h212L457 764H288z"/><glyph glyph-name="nacute" unicode="ń" horiz-adv-x="666" d="M53 526h225v-58h2q20 29 59.5 50.5T430 540q55 0 91.5-20t58-51.5 30-70.5 8.5-78V0H386v280q0 40-12.5 56T336 352q-23 0-37.5-18.5T284 280V0H53v526zm170 58l111 144h212L392 584H223z"/><glyph glyph-name="Ncommaaccent" unicode="Ņ" horiz-adv-x="791" d="M66 708h237l202-359h4l-10 359h226V0H482L286 338h-4L292 0H66v708zM504-45l-93-195H247l68 195h189z"/><glyph glyph-name="ncommaaccent" unicode="ņ" horiz-adv-x="666" d="M53 526h225v-58h2q20 29 59.5 50.5T430 540q55 0 91.5-20t58-51.5 30-70.5 8.5-78V0H386v280q0 40-12.5 56T336 352q-23 0-37.5-18.5T284 280V0H53v526zM437-45l-93-195H180l68 195h189z"/><glyph glyph-name="Ncaron" unicode="Ň" horiz-adv-x="791" d="M66 708h237l202-359h4l-10 359h226V0H482L286 338h-4L292 0H66v708zm552 200L484 764H315L178 908h152l67-68 67 68h154z"/><glyph glyph-name="ncaron" unicode="ň" horiz-adv-x="666" d="M53 526h225v-58h2q20 29 59.5 50.5T430 540q55 0 91.5-20t58-51.5 30-70.5 8.5-78V0H386v280q0 40-12.5 56T336 352q-23 0-37.5-18.5T284 280V0H53v526zm501 202L420 584H251L114 728h152l67-68 67 68h154z"/><glyph glyph-name="napostrophe" unicode="ŉ" horiz-adv-x="831" d="M218 526h225v-58h2q20 29 59.5 50.5T595 540q55 0 91.5-20t58-51.5 30-70.5 8.5-78V0H551v280q0 40-12.5 56T501 352q-23 0-37.5-18.5T449 280V0H218v526zm30 182l-87-177H-3l62 177h189z"/><glyph glyph-name="Omacron" unicode="Ō" horiz-adv-x="855" d="M34 358q0 85 30 153.5T146.5 628 271 702t156 26 156-26 125-74 83-116.5T821 358t-30-155-83-119.5T583 7 427-20 271 7 146.5 83.5 64 203 34 358zm253 0q0-35 10.5-64t29-50 44.5-32.5 56-11.5 55.5 11.5T527 244t29.5 50 10.5 64q0 34-10.5 62.5t-29.5 48-44.5 30.5-55.5 11-56-11-44.5-30.5-29-48T287 358zm-39 529h360v-96H248v96z"/><glyph glyph-name="omacron" unicode="ō" horiz-adv-x="664" d="M632 265q0-68-24.5-121t-66-89.5-96-55.5T331-20q-59 0-113.5 19T122 54.5 56.5 144 32 265q0 67 24.5 119.5T122 473t95.5 54.5T331 546q60 0 114.5-18.5t96-54.5 66-88.5T632 265zm-301 87q-38 0-61.5-26T246 265q0-37 24-63t62-26 62 26 24 63q0 35-24.5 61T331 352zM153 707h360v-96H153v96z"/><glyph glyph-name="Obreve" unicode="Ŏ" horiz-adv-x="855" d="M34 358q0 85 30 153.5T146.5 628 271 702t156 26 156-26 125-74 83-116.5T821 358t-30-155-83-119.5T583 7 427-20 271 7 146.5 83.5 64 203 34 358zm253 0q0-35 10.5-64t29-50 44.5-32.5 56-11.5 55.5 11.5T527 244t29.5 50 10.5 64q0 34-10.5 62.5t-29.5 48-44.5 30.5-55.5 11-56-11-44.5-30.5-29-48T287 358zm140 406q-33 0-64 6.5t-55.5 23-41 44.5-19.5 70h110q1-12 8.5-20t17.5-12 22-5.5 22-1.5 22 1.5 22.5 5.5 17.5 12 8 20h110q-3-42-19-70t-41-44.5-56-23-64-6.5z"/><glyph glyph-name="obreve" unicode="ŏ" horiz-adv-x="664" d="M632 265q0-68-24.5-121t-66-89.5-96-55.5T331-20q-59 0-113.5 19T122 54.5 56.5 144 32 265q0 67 24.5 119.5T122 473t95.5 54.5T331 546q60 0 114.5-18.5t96-54.5 66-88.5T632 265zm-301 87q-38 0-61.5-26T246 265q0-37 24-63t62-26 62 26 24 63q0 35-24.5 61T331 352zm2 232q-33 0-64 6.5t-55.5 23-41 44.5-19.5 70h110q1-12 8.5-20t17.5-12 22-5.5 22-1.5 22 1.5 22.5 5.5 17.5 12 8 20h110q-3-42-19-70t-41-44.5-56-23-64-6.5z"/><glyph glyph-name="Ohungarumlaut" unicode="Ő" horiz-adv-x="855" d="M34 358q0 85 30 153.5T146.5 628 271 702t156 26 156-26 125-74 83-116.5T821 358t-30-155-83-119.5T583 7 427-20 271 7 146.5 83.5 64 203 34 358zm253 0q0-35 10.5-64t29-50 44.5-32.5 56-11.5 55.5 11.5T527 244t29.5 50 10.5 64q0 34-10.5 62.5t-29.5 48-44.5 30.5-55.5 11-56-11-44.5-30.5-29-48T287 358zm-61 406l111 144h212L395 764H226zm243 0l111 144h212L638 764H469z"/><glyph glyph-name="ohungarumlaut" unicode="ő" horiz-adv-x="664" d="M632 265q0-68-24.5-121t-66-89.5-96-55.5T331-20q-59 0-113.5 19T122 54.5 56.5 144 32 265q0 67 24.5 119.5T122 473t95.5 54.5T331 546q60 0 114.5-18.5t96-54.5 66-88.5T632 265zm-301 87q-38 0-61.5-26T246 265q0-37 24-63t62-26 62 26 24 63q0 35-24.5 61T331 352zM122 584l111 144h212L291 584H122zm243 0l111 144h212L534 584H365z"/><glyph glyph-name="OE" unicode="Œ" horiz-adv-x="1007" d="M957 708V510H704v-61h238V264H704v-66h270V0H452q-84 0-159.5 17.5t-133 59T68 186 34 356q0 93 34 160t91.5 109.5 133 62.5T452 708h505zM487 198v312h-34q-78 0-123-39.5T285 348q0-34 12-62t33-47.5 50-30 64-10.5h43z"/><glyph glyph-name="oe" unicode="œ" horiz-adv-x="995" d="M693 546q61 0 111.5-21.5t86.5-60 56-91.5 20-115q0-13-.5-26.5T965 209H611q1-14 9.5-25t21-19 28-12 31.5-4q32 0 53.5 11.5T787 186l164-83q-35-57-101-90T698-20q-63 0-112 21.5T511 52q-27-32-72-52T331-20q-59 0-113.5 19T122 54.5 56.5 144 32 265q0 67 24.5 119.5T122 473t95.5 54.5T331 546q62 0 108-23t72-55q29 32 76 55t106 23zM331 352q-38 0-61.5-26T246 265q0-37 24-63t62-26 62 26 24 63q0 35-24.5 61T331 352zm437-19q0 28-20.5 46T692 397q-38 0-59-21t-24-43h159z"/><glyph glyph-name="Racute" unicode="Ŕ" horiz-adv-x="714" d="M66 708h305q52 0 103.5-10.5t92-37 65.5-71T657 478q0-65-32-114.5T533 287L713 0H439L303 253h-7V0H66v708zm228-299h47q12 0 26.5 2t27 8.5 21 18T424 468t-7 30-18 16.5-24 7-24 1.5h-57V409zm-63 355l111 144h212L400 764H231z"/><glyph glyph-name="racute" unicode="ŕ" horiz-adv-x="445" d="M53 526h222v-60h2q17 32 50.5 53t78.5 21q27 0 44-5l-18-196q-11 3-24.5 4.5T383 345q-45 0-72-26t-27-64V0H53v526zm55 58l111 144h212L277 584H108z"/><glyph glyph-name="Rcommaaccent" unicode="Ŗ" horiz-adv-x="714" d="M66 708h305q52 0 103.5-10.5t92-37 65.5-71T657 478q0-65-32-114.5T533 287L713 0H439L303 253h-7V0H66v708zm228-299h47q12 0 26.5 2t27 8.5 21 18T424 468t-7 30-18 16.5-24 7-24 1.5h-57V409zM471-45l-93-195H214l68 195h189z"/><glyph glyph-name="rcommaaccent" unicode="ŗ" horiz-adv-x="445" d="M53 526h222v-60h2q17 32 50.5 53t78.5 21q27 0 44-5l-18-196q-11 3-24.5 4.5T383 345q-45 0-72-26t-27-64V0H53v526zM275-46l-93-195H18L86-46h189z"/><glyph glyph-name="Rcaron" unicode="Ř" horiz-adv-x="714" d="M66 708h305q52 0 103.5-10.5t92-37 65.5-71T657 478q0-65-32-114.5T533 287L713 0H439L303 253h-7V0H66v708zm228-299h47q12 0 26.5 2t27 8.5 21 18T424 468t-7 30-18 16.5-24 7-24 1.5h-57V409zm266 499L426 764H257L120 908h152l67-68 67 68h154z"/><glyph glyph-name="rcaron" unicode="ř" horiz-adv-x="445" d="M53 526h222v-60h2q17 32 50.5 53t78.5 21q27 0 44-5l-18-196q-11 3-24.5 4.5T383 345q-45 0-72-26t-27-64V0H53v526zm417 202L336 584H167L30 728h152l67-68 67 68h154z"/><glyph glyph-name="Sacute" unicode="Ś" horiz-adv-x="617" d="M298-20q-43 0-84.5 7.5t-80 22-72.5 34T0 87l145 158q25-27 66.5-48t85.5-21q20 0 36.5 7t16.5 26q0 10-5.5 17T325 240.5 286.5 257 225 278q-36 12-69 28.5T97.5 347 57 404.5 42 485q0 66 27 112t69.5 75.5T234 715t105 13q70 0 142.5-27T609 623L461 472q-24 30-59 45.5T339 533q-26 0-42-7.5T281 501q0-16 16.5-24t53.5-20q38-12 80-28t77.5-41.5T567 325t23-92q0-64-25.5-111.5t-67-79-93.5-47T298-20zm-71 784l111 144h212L396 764H227z"/><glyph glyph-name="sacute" unicode="ś" horiz-adv-x="513" d="M484 167q0-53-22.5-89t-57-57.5-75.5-31-78-9.5Q183-20 117.5-.5T4 55l113 131q24-22 56.5-35.5T236 137q12 0 22.5 4.5T269 158q0 13-18.5 20.5T186 197q-25 6-51 17.5T87.5 245 52 291.5 38 357q0 51 22.5 87t57 58.5 75 33T269 546q61 0 121-18t108-50L390 349q-25 16-51 25t-51 9q-17 0-28-4.5T249 361q0-10 12.5-15.5T319 331q31-6 60.5-18.5t53-32T470 233t14-66zM164 584l111 144h212L333 584H164z"/><glyph glyph-name="Scircumflex" unicode="Ŝ" horiz-adv-x="617" d="M298-20q-43 0-84.5 7.5t-80 22-72.5 34T0 87l145 158q25-27 66.5-48t85.5-21q20 0 36.5 7t16.5 26q0 10-5.5 17T325 240.5 286.5 257 225 278q-36 12-69 28.5T97.5 347 57 404.5 42 485q0 66 27 112t69.5 75.5T234 715t105 13q70 0 142.5-27T609 623L461 472q-24 30-59 45.5T339 533q-26 0-42-7.5T281 501q0-16 16.5-24t53.5-20q38-12 80-28t77.5-41.5T567 325t23-92q0-64-25.5-111.5t-67-79-93.5-47T298-20zm39 852l-67-68H118l137 144h169l134-144H404z"/><glyph glyph-name="scircumflex" unicode="ŝ" horiz-adv-x="513" d="M484 167q0-53-22.5-89t-57-57.5-75.5-31-78-9.5Q183-20 117.5-.5T4 55l113 131q24-22 56.5-35.5T236 137q12 0 22.5 4.5T269 158q0 13-18.5 20.5T186 197q-25 6-51 17.5T87.5 245 52 291.5 38 357q0 51 22.5 87t57 58.5 75 33T269 546q61 0 121-18t108-50L390 349q-25 16-51 25t-51 9q-17 0-28-4.5T249 361q0-10 12.5-15.5T319 331q31-6 60.5-18.5t53-32T470 233t14-66zM283 652l-67-68H64l137 144h169l134-144H350z"/><glyph glyph-name="Scedilla" unicode="Ş" horiz-adv-x="617" d="M273-240q-16 0-33.5 1.5T204-234t-34.5 7.5T140-217l34 78q17-8 41.5-12t43.5-4q15 0 27.5 4.5T299-134q0 11-11.5 14.5T262-116q-23 0-41-6l-44 34 61 72q-69 9-131 36T0 87l145 158q25-27 66.5-48t85.5-21q20 0 36.5 7t16.5 26q0 10-5.5 17T325 240.5 286.5 257 225 278q-36 12-69 28.5T97.5 347 57 404.5 42 485q0 66 27 112t69.5 75.5T234 715t105 13q70 0 142.5-27T609 623L461 472q-24 30-59 45.5T339 533q-26 0-42-7.5T281 501q0-16 16.5-24t53.5-20q38-12 80-28t77.5-41.5T567 325t23-92q0-56-19.5-99T518 60t-75.5-49.5T354-15l-35-38q5 1 16 1 17 0 35-3.5T403-69t24.5-26.5T437-137q0-31-16.5-51t-41-31.5-53-16T273-240z"/><glyph glyph-name="scedilla" unicode="ş" horiz-adv-x="513" d="M227-240q-16 0-33.5 1.5T158-234t-34.5 7.5T94-217l34 78q17-8 41.5-12t43.5-4q15 0 27.5 4.5T253-134q0 11-11.5 14.5T216-116q-23 0-41-6l-44 34 61 72Q138-9 89.5 8.5T4 55l113 131q24-22 56.5-35.5T236 137q12 0 22.5 4.5T269 158q0 13-18.5 20.5T186 197q-25 6-51 17.5T87.5 245 52 291.5 38 357q0 51 22.5 87t57 58.5 75 33T269 546q61 0 121-18t108-50L390 349q-25 16-51 25t-51 9q-17 0-28-4.5T249 361q0-10 12.5-15.5T319 331q31-6 60.5-18.5t53-32T470 233t14-66q0-43-15.5-74.5t-40-53.5-56-34.5T309-14l-36-39q5 1 16 1 17 0 35-3.5T357-69t24.5-26.5T391-137q0-31-16.5-51t-41-31.5-53-16T227-240z"/><glyph glyph-name="Scaron" unicode="Š" horiz-adv-x="617" d="M298-20q-43 0-84.5 7.5t-80 22-72.5 34T0 87l145 158q25-27 66.5-48t85.5-21q20 0 36.5 7t16.5 26q0 10-5.5 17T325 240.5 286.5 257 225 278q-36 12-69 28.5T97.5 347 57 404.5 42 485q0 66 27 112t69.5 75.5T234 715t105 13q70 0 142.5-27T609 623L461 472q-24 30-59 45.5T339 533q-26 0-42-7.5T281 501q0-16 16.5-24t53.5-20q38-12 80-28t77.5-41.5T567 325t23-92q0-64-25.5-111.5t-67-79-93.5-47T298-20zm260 928L424 764H255L118 908h152l67-68 67 68h154z"/><glyph glyph-name="scaron" unicode="š" horiz-adv-x="513" d="M484 167q0-53-22.5-89t-57-57.5-75.5-31-78-9.5Q183-20 117.5-.5T4 55l113 131q24-22 56.5-35.5T236 137q12 0 22.5 4.5T269 158q0 13-18.5 20.5T186 197q-25 6-51 17.5T87.5 245 52 291.5 38 357q0 51 22.5 87t57 58.5 75 33T269 546q61 0 121-18t108-50L390 349q-25 16-51 25t-51 9q-17 0-28-4.5T249 361q0-10 12.5-15.5T319 331q31-6 60.5-18.5t53-32T470 233t14-66zm12 561L362 584H193L56 728h152l67-68 67 68h154z"/><glyph glyph-name="Tcommaaccent" unicode="Ţ" horiz-adv-x="600" d="M419 0H181v507H7v201h586V507H419V0zm-12-45l-93-195H150l68 195h189z"/><glyph glyph-name="tcommaaccent" unicode="ţ" horiz-adv-x="421" d="M282-14q-106 0-157 45.5T74 173v188H0v165h73v118h224V526h114V361H297V221q0-38 16.5-51.5T359 156q11 0 23 2t19 4V4q-18-8-50.5-13T282-14zm70-31l-93-195H95l68 195h189z"/><glyph glyph-name="Tcaron" unicode="Ť" horiz-adv-x="600" d="M419 0H181v507H7v201h586V507H419V0zm102 908L387 764H218L81 908h152l67-68 67 68h154z"/><glyph glyph-name="tcaron" unicode="ť" horiz-adv-x="421" d="M282-14q-106 0-157 45.5T74 173v188H0v165h73v118h224V526h114V361H297V221q0-38 16.5-51.5T359 156q11 0 23 2t19 4V4q-18-8-50.5-13T282-14zm285 745l-87-177H316l62 177h189z"/><glyph glyph-name="Tbar" unicode="Ŧ" horiz-adv-x="600" d="M76 431h105v76H7v201h586V507H419v-76h103V321H419V0H181v321H76v110z"/><glyph glyph-name="tbar" unicode="ŧ" horiz-adv-x="421" d="M10 319h64v42H0v165h73v118h224V526h114V361H297v-42h82V209h-82q3-31 19-42t43-11q11 0 23 2t19 4V4q-18-8-50.5-13T282-14q-106 0-157 45.5T74 173v36H10v110z"/><glyph glyph-name="Utilde" unicode="Ũ" horiz-adv-x="775" d="M384-20q-83 0-144.5 23T137 66t-61 94.5T56 278v430h238V304q0-51 24.5-79.5T388 196t69.5 28.5T482 304v404h237V278q0-63-21.5-117.5T634 66 529.5 3 384-20zm193 920q-2-30-10-55t-22.5-44-35-29.5T463 761q-21 0-40.5 6T382 784q-24 13-36 17.5t-27 4.5q-16 0-25-10.5T282 770h-80q3 57 32 96.5t81 39.5q23 0 42-6.5t41-17.5q23-12 36-17t29-5 23.5 10 11.5 30h79z"/><glyph glyph-name="utilde" unicode="ũ" horiz-adv-x="663" d="M610 0H385v58h-2q-20-29-59.5-50.5T233-14q-56 0-92 19.5t-57.5 51-30 71T45 206v320h232V248q0-40 12.5-56t37.5-16q23 0 37.5 18.5T379 248v278h231V0zm-94 720q-2-30-10-55t-22.5-44-35-29.5T402 581q-21 0-40.5 6T321 604q-24 13-36 17.5t-27 4.5q-16 0-25-10.5T221 590h-80q3 57 32 96.5t81 39.5q23 0 42-6.5t41-17.5q23-12 36-17t29-5 23.5 10 11.5 30h79z"/><glyph glyph-name="Umacron" unicode="Ū" horiz-adv-x="775" d="M384-20q-83 0-144.5 23T137 66t-61 94.5T56 278v430h238V304q0-51 24.5-79.5T388 196t69.5 28.5T482 304v404h237V278q0-63-21.5-117.5T634 66 529.5 3 384-20zM208 887h360v-96H208v96z"/><glyph glyph-name="umacron" unicode="ū" horiz-adv-x="663" d="M610 0H385v58h-2q-20-29-59.5-50.5T233-14q-56 0-92 19.5t-57.5 51-30 71T45 206v320h232V248q0-40 12.5-56t37.5-16q23 0 37.5 18.5T379 248v278h231V0zM147 707h360v-96H147v96z"/><glyph glyph-name="Ubreve" unicode="Ŭ" horiz-adv-x="775" d="M384-20q-83 0-144.5 23T137 66t-61 94.5T56 278v430h238V304q0-51 24.5-79.5T388 196t69.5 28.5T482 304v404h237V278q0-63-21.5-117.5T634 66 529.5 3 384-20zm4 784q-33 0-64 6.5t-55.5 23-41 44.5-19.5 70h110q1-12 8.5-20t17.5-12 22-5.5 22-1.5 22 1.5 22.5 5.5 17.5 12 8 20h110q-3-42-19-70t-41-44.5-56-23-64-6.5z"/><glyph glyph-name="ubreve" unicode="ŭ" horiz-adv-x="663" d="M610 0H385v58h-2q-20-29-59.5-50.5T233-14q-56 0-92 19.5t-57.5 51-30 71T45 206v320h232V248q0-40 12.5-56t37.5-16q23 0 37.5 18.5T379 248v278h231V0zM327 584q-33 0-64 6.5t-55.5 23-41 44.5-19.5 70h110q1-12 8.5-20t17.5-12 22-5.5 22-1.5 22 1.5 22.5 5.5 17.5 12 8 20h110q-3-42-19-70t-41-44.5-56-23-64-6.5z"/><glyph glyph-name="Uring" unicode="Ů" horiz-adv-x="775" d="M384-20q-83 0-144.5 23T137 66t-61 94.5T56 278v430h238V304q0-51 24.5-79.5T388 196t69.5 28.5T482 304v404h237V278q0-63-21.5-117.5T634 66 529.5 3 384-20zm120 877q0-24-9.5-45t-25-36.5-36.5-24-44-8.5-44 8.5-37 24-25 36.5-9 45 9 45 25 36.5 37 24 44 8.5 44-8.5 36.5-24 25-36.5 9.5-45zm-55 0q0 25-17.5 42T389 916t-42.5-17-17.5-42 17.5-42 42.5-17 42.5 17 17.5 42z"/><glyph glyph-name="uring" unicode="ů" horiz-adv-x="663" d="M610 0H385v58h-2q-20-29-59.5-50.5T233-14q-56 0-92 19.5t-57.5 51-30 71T45 206v320h232V248q0-40 12.5-56t37.5-16q23 0 37.5 18.5T379 248v278h231V0zM440 677q0-24-9.5-45t-25-36.5-36.5-24-44-8.5-44 8.5-37 24-25 36.5-9 45 9 45 25 36.5 37 24 44 8.5 44-8.5 36.5-24 25-36.5 9.5-45zm-55 0q0 25-17.5 42T325 736t-42.5-17-17.5-42 17.5-42 42.5-17 42.5 17 17.5 42z"/><glyph glyph-name="Uhungarumlaut" unicode="Ű" horiz-adv-x="775" d="M384-20q-83 0-144.5 23T137 66t-61 94.5T56 278v430h238V304q0-51 24.5-79.5T388 196t69.5 28.5T482 304v404h237V278q0-63-21.5-117.5T634 66 529.5 3 384-20zM180 764l111 144h212L349 764H180zm243 0l111 144h212L592 764H423z"/><glyph glyph-name="uhungarumlaut" unicode="ű" horiz-adv-x="663" d="M610 0H385v58h-2q-20-29-59.5-50.5T233-14q-56 0-92 19.5t-57.5 51-30 71T45 206v320h232V248q0-40 12.5-56t37.5-16q23 0 37.5 18.5T379 248v278h231V0zM119 584l111 144h212L288 584H119zm243 0l111 144h212L531 584H362z"/><glyph glyph-name="Uogonek" unicode="Ų" horiz-adv-x="775" d="M375-240q-20 0-42.5 4T291-221.5t-31 29-12 46.5q0 20 7.5 38T276-74t29.5 30T339-18q-72 6-125 31t-88 64.5T73.5 168 56 278v430h238V304q0-51 24.5-79.5T388 196t69.5 28.5T482 304v404h237V278q0-52-14.5-98t-43-83T591 33 493-7q-58-41-80-64.5T391-112q0-20 23-20 26 0 56 18l44-83q-28-18-64.5-30.5T375-240z"/><glyph glyph-name="uogonek" unicode="ų" horiz-adv-x="663" d="M397-240q-20 0-42.5 4T313-221.5t-31 29-12 46.5q0 24 11 45t28 39 38.5 33.5T389 0h-4v58h-2q-20-29-59.5-50.5T233-14q-56 0-92 19.5t-57.5 51-30 71T45 206v320h232V248q0-40 12.5-56t37.5-16q23 0 37.5 18.5T379 248v278h231V0h-84q-64-45-88.5-69.5T413-112q0-20 23-20 26 0 56 18l44-83q-28-18-64.5-30.5T397-240z"/><glyph glyph-name="Wcircumflex" unicode="Ŵ" horiz-adv-x="1077" d="M433 0H193L0 708h252l76-398h4l82 398h249l89-398h4l77 398h244L880 0H640L540 400h-4zm104 832l-67-68H318l137 144h169l134-144H604z"/><glyph glyph-name="wcircumflex" unicode="ŵ" horiz-adv-x="973" d="M404 0H175L-5 526h247l66-272h4l68 272h222l73-272h3l64 272h236L796 0H566l-81 270h-2zm88 652l-67-68H273l137 144h169l134-144H559z"/><glyph glyph-name="Ycircumflex" unicode="Ŷ" horiz-adv-x="738" d="M481 0H243v290L-24 708h287l112-208 107 208h280L481 290V0zM374 832l-67-68H155l137 144h169l134-144H441z"/><glyph glyph-name="ycircumflex" unicode="ŷ" horiz-adv-x="638" d="M205 20L-8 526h256l78-277h4l69 277h247L430-32q-19-49-43-87.5T331-185t-75.5-41T154-240q-18 0-37 1.5t-36.5 4-32.5 5-25 5.5L52-34q13-5 31.5-8.5T117-46q38 0 56.5 15.5T201 9zm122 632l-67-68H108l137 144h169l134-144H394z"/><glyph glyph-name="Ydieresis" unicode="Ÿ" horiz-adv-x="738" d="M481 0H243v290L-24 708h287l112-208 107 208h280L481 290V0zm-81 858q0 20 8 38t22 31.5 32 21.5 39 8q20 0 38-8t31.5-21.5T592 896t8-38q0-21-8-38.5t-21.5-31-31.5-21-38-7.5q-42 0-71.5 28T400 858zm-249 0q0 20 8 38t22 31.5 32 21.5 39 8q20 0 38-8t31.5-21.5T343 896t8-38q0-21-8-38.5t-21.5-31-31.5-21-38-7.5q-42 0-71.5 28T151 858z"/><glyph glyph-name="Zacute" unicode="Ź" horiz-adv-x="672" d="M44 199l265 312H55v197h565V536L338 203h290V0H44v199zm198 565l111 144h212L411 764H242z"/><glyph glyph-name="zacute" unicode="ź" horiz-adv-x="557" d="M33 161l197 194H38v171h479V376L304 171h219V0H33v161zm142 423l111 144h212L344 584H175z"/><glyph glyph-name="Zdotaccent" unicode="Ż" horiz-adv-x="672" d="M44 199l265 312H55v197h565V536L338 203h290V0H44v199zm188 659q0 22 8.5 41t23.5 33.5 34.5 23T341 964q21 0 40.5-8.5t34-23 23-33.5 8.5-41-8.5-41-23-33.5-34-22.5-40.5-8q-23 0-42.5 8T264 783.5 240.5 817t-8.5 41z"/><glyph glyph-name="zdotaccent" unicode="ż" horiz-adv-x="557" d="M33 161l197 194H38v171h479V376L304 171h219V0H33v161zm142 517q0 22 8.5 41t23.5 33.5 34.5 23T284 784q21 0 40.5-8.5t34-23 23-33.5 8.5-41-8.5-41-23-33.5-34-22.5-40.5-8q-23 0-42.5 8T207 603.5 183.5 637t-8.5 41z"/><glyph glyph-name="Zcaron" unicode="Ž" horiz-adv-x="672" d="M44 199l265 312H55v197h565V536L338 203h290V0H44v199zm520 709L430 764H261L124 908h152l67-68 67 68h154z"/><glyph glyph-name="zcaron" unicode="ž" horiz-adv-x="557" d="M33 161l197 194H38v171h479V376L304 171h219V0H33v161zm471 567L370 584H201L64 728h152l67-68 67 68h154z"/><glyph glyph-name="florin" unicode="ƒ" horiz-adv-x="700" d="M597 526q-18 11-33.5 16t-26.5 5q-23 0-38-11t-24-49l-7-36h132V304H438L386 50q-9-42-26-76.5T315-86t-68-39-95-14q-38 0-79 9T2-104L79 58q15-11 29.5-15.5T133 38q24 0 36.5 17.5T189 105l41 199H116v147h139q11 54 25.5 104t42 88.5T395 705t116 23q54 0 97.5-11.5T679 688l-82-162z"/><glyph glyph-name="Scommaaccent" unicode="Ș" horiz-adv-x="617" d="M298-20q-43 0-84.5 7.5t-80 22-72.5 34T0 87l145 158q25-27 66.5-48t85.5-21q20 0 36.5 7t16.5 26q0 10-5.5 17T325 240.5 286.5 257 225 278q-36 12-69 28.5T97.5 347 57 404.5 42 485q0 66 27 112t69.5 75.5T234 715t105 13q70 0 142.5-27T609 623L461 472q-24 30-59 45.5T339 533q-26 0-42-7.5T281 501q0-16 16.5-24t53.5-20q38-12 80-28t77.5-41.5T567 325t23-92q0-64-25.5-111.5t-67-79-93.5-47T298-20zm116-25l-93-195H157l68 195h189z"/><glyph glyph-name="scommaaccent" unicode="ș" horiz-adv-x="513" d="M484 167q0-53-22.5-89t-57-57.5-75.5-31-78-9.5Q183-20 117.5-.5T4 55l113 131q24-22 56.5-35.5T236 137q12 0 22.5 4.5T269 158q0 13-18.5 20.5T186 197q-25 6-51 17.5T87.5 245 52 291.5 38 357q0 51 22.5 87t57 58.5 75 33T269 546q61 0 121-18t108-50L390 349q-25 16-51 25t-51 9q-17 0-28-4.5T249 361q0-10 12.5-15.5T319 331q31-6 60.5-18.5t53-32T470 233t14-66zM356-45l-93-195H99l68 195h189z"/><glyph glyph-name="uni021A" unicode="Ț" horiz-adv-x="600" d="M419 0H181v507H7v201h586V507H419V0zm-12-45l-93-195H150l68 195h189z"/><glyph glyph-name="uni021B" unicode="ț" horiz-adv-x="421" d="M282-14q-106 0-157 45.5T74 173v188H0v165h73v118h224V526h114V361H297V221q0-38 16.5-51.5T359 156q11 0 23 2t19 4V4q-18-8-50.5-13T282-14zm70-31l-93-195H95l68 195h189z"/><glyph glyph-name="circumflex" unicode="ˆ" d="M179 652l-67-68H-40L97 728h169l134-144H246z"/><glyph glyph-name="caron" unicode="ˇ" d="M400 728L266 584H97L-40 728h152l67-68 67 68h154z"/><glyph glyph-name="uni02C9" unicode="ˉ" d="M0 887h360v-96H0v96z"/><glyph glyph-name="breve" unicode="˘" d="M180 584q-33 0-64 6.5t-55.5 23-41 44.5T0 728h110q1-12 8.5-20t17.5-12 22-5.5 22-1.5 22 1.5 22.5 5.5 17.5 12 8 20h110q-3-42-19-70t-41-44.5-56-23-64-6.5z"/><glyph glyph-name="dotaccent" unicode="˙" d="M72 678q0 22 8.5 41t23.5 33.5 34.5 23T181 784q21 0 40.5-8.5t34-23 23-33.5 8.5-41-8.5-41-23-33.5-34-22.5-40.5-8q-23 0-42.5 8T104 603.5 80.5 637 72 678z"/><glyph glyph-name="ring" unicode="˚" d="M295 677q0-24-9.5-45t-25-36.5-36.5-24-44-8.5-44 8.5-37 24T74 632t-9 45 9 45 25 36.5 37 24 44 8.5 44-8.5 36.5-24 25-36.5 9.5-45zm-55 0q0 25-17.5 42T180 736t-42.5-17-17.5-42 17.5-42 42.5-17 42.5 17 17.5 42z"/><glyph glyph-name="ogonek" unicode="˛" d="M159-240q-20 0-42.5 4T75-221.5t-31 29T32-146q0 24 11 45t28 39 38.5 33.5T151 0h137q-64-45-88.5-69.5T175-112q0-20 23-20 26 0 56 18l44-83q-28-18-64.5-30.5T159-240z"/><glyph glyph-name="tilde" unicode="˜" d="M367 720q-2-30-10-55t-22.5-44-35-29.5T253 581q-21 0-40.5 6T172 604q-24 13-36 17.5t-27 4.5q-16 0-25-10.5T72 590H-8q3 57 32 96.5t81 39.5q23 0 42-6.5t41-17.5q23-12 36-17t29-5 23.5 10 11.5 30h79z"/><glyph glyph-name="hungarumlaut" unicode="˝" d="M-55 584L56 728h212L114 584H-55zm243 0l111 144h212L357 584H188z"/><glyph glyph-name="uni0394" unicode="Δ" horiz-adv-x="735" d="M10 0q66 179 133 354t133 354h165q72-179 142-354T725 0H10zm422 189q-19 58-38 115t-39 115q-18-58-36-115t-36-115h149z"/><glyph glyph-name="uni03A9" unicode="Ω" horiz-adv-x="783" d="M419 0v279q51 12 72 48t21 86q0 52-34 86t-87 34q-26 0-48-9t-39-25.5-26.5-38.5-9.5-48q0-49 21-85t74-48V0H50v181h142v11q-32 10-58.5 31.5t-45 52T60 344t-10 82q0 72 27.5 127.5t74 92.5T260 702t131 19q70 0 132-19t108.5-56 74-92T733 427q0-44-10.5-82.5t-29-69-44.5-52-57-31.5v-11h141V0H419z"/><glyph glyph-name="uni03BC" unicode="μ" horiz-adv-x="758" d="M314 526V263q0-14 3.5-32.5t11-35 20-28T380 156q41 0 56.5 29t15.5 71v270h234V0H460v37q-14-17-34-28T375-2q-37 0-61 16v-238H80v750h234z"/><glyph glyph-name="pi" unicode="π" horiz-adv-x="739" d="M686 23Q663 6 630.5-3T569-12q-81 0-124.5 34.5T401 138v202h-84V0H94v340H41v186h644V340h-67V190q0-11 7.5-19.5T647 162q10 0 17.5 3t21.5 11V23z"/><glyph glyph-name="endash" unicode="–" horiz-adv-x="400" d="M30 345h340V225H30v120z"/><glyph glyph-name="emdash" unicode="—" horiz-adv-x="600" d="M30 345h540V225H30v120z"/><glyph glyph-name="quoteleft" unicode="‘" horiz-adv-x="342" d="M42 426l99 282h164l-74-282H42z"/><glyph glyph-name="quoteright" unicode="’" horiz-adv-x="342" d="M300 708l-99-282H37l74 282h189z"/><glyph glyph-name="quotesinglbase" unicode="‚" horiz-adv-x="342" d="M300 156l-99-282H37l74 282h189z"/><glyph glyph-name="quotedblleft" unicode="“" horiz-adv-x="568" d="M273 426l94 282h164l-74-282H273zm-231 0l99 282h164l-79-282H42z"/><glyph glyph-name="quotedblright" unicode="”" horiz-adv-x="568" d="M295 708l-94-282H37l74 282h184zm231 0l-99-282H263l79 282h184z"/><glyph glyph-name="quotedblbase" unicode="„" horiz-adv-x="568" d="M295 156l-94-282H37l74 282h184zm231 0l-99-282H263l79 282h184z"/><glyph glyph-name="dagger" unicode="†" horiz-adv-x="619" d="M399-133H215v474H34v170h180v197h184V511h187V341H399v-474z"/><glyph glyph-name="daggerdbl" unicode="‡" horiz-adv-x="619" d="M401-133H218V36H34v164h184v175H34v164h183v169h183V539h185V375H400V200h185V36H401v-169z"/><glyph glyph-name="bullet" unicode="•" horiz-adv-x="500" d="M73 354q0 37 14 69t38 56 56 38 69 14 69-14 56-38 38-56 14-69-14-69-38-56-56-38-69-14-69 14-56 38-38 56-14 69z"/><glyph glyph-name="ellipsis" unicode="…" horiz-adv-x="1000" d="M34 113q0 27 10.5 50.5t29 41 43 28T168 243q26 0 49.5-10.5t41.5-28 28.5-41T298 113t-10.5-51T259 21 217.5-6 168-16q-27 0-51.5 10t-43 27-29 41T34 113zm332 0q0 27 10.5 50.5t29 41 43 28T500 243q26 0 49.5-10.5t41.5-28 28.5-41T630 113t-10.5-51T591 21 549.5-6 500-16q-27 0-51.5 10t-43 27-29 41-10.5 51zm333 0q0 27 10.5 50.5t29 41 43 28T833 243q26 0 49.5-10.5t41.5-28 28.5-41T963 113t-10.5-51T924 21 882.5-6 833-16q-27 0-51.5 10t-43 27-29 41-10.5 51z"/><glyph glyph-name="perthousand" unicode="‰" horiz-adv-x="1264" d="M212 357q-38 0-71.5 14t-59 39-40 57.5T27 538t14.5 71.5 40 58 59 38.5 71.5 14 71.5-14 58.5-38.5 39.5-58T396 538t-14.5-70.5T342 410t-58.5-39-71.5-14zm0 237q-23 0-39.5-16.5T156 538t16.5-38.5T212 484q22 0 38.5 15.5T267 538t-16.5 39.5T212 594zM651-12q-38 0-71.5 14t-59 39-40 57.5T466 169t14.5 71.5 40 58 59 38.5 71.5 14 71.5-14 58.5-38.5 39.5-58T835 169t-14.5-70.5T781 41 722.5 2 651-12zm0 237q-23 0-39.5-16.5T595 169t16.5-38.5T651 115q22 0 38.5 15.5T706 169t-16.5 39.5T651 225zm402-237q-38 0-71.5 14t-59 39-40 57.5T868 169t14.5 71.5 40 58 59 38.5 71.5 14 71.5-14 58.5-38.5 39.5-58T1237 169t-14.5-70.5T1183 41t-58.5-39-71.5-14zm0 237q-23 0-39.5-16.5T997 169t16.5-38.5T1053 115q22 0 38.5 15.5T1108 169t-16.5 39.5T1053 225zM208 13l346 726 99-45L307-27z"/><glyph glyph-name="guilsinglleft" unicode="‹" horiz-adv-x="350" d="M17 274l176 248 129-83-115-165 115-165-129-83z"/><glyph glyph-name="guilsinglright" unicode="›" horiz-adv-x="350" d="M28 109l115 165L28 439l130 83 175-248L158 26z"/><glyph glyph-name="fraction" unicode="⁄" horiz-adv-x="100" d="M-163 13l346 726 99-45L-64-27z"/><glyph glyph-name="Euro" unicode="€" horiz-adv-x="700" d="M119 335q-1 7-1 12v18l1 11H32l47 131h58q19 55 53.5 96t81.5 69 104 42 120 14q18 0 40.5-1.5T582 722t44-7.5 37-10.5l-66-167q-20 7-50 12t-56 5q-18 0-36-3t-34.5-9-29.5-14.5-20-20.5h232l-46-131H330q-1-7-1-11v-18l1-12h217l-43-129H359q13-22 48.5-34.5T481 159q35 0 68.5 7.5T603 186l30-173q-26-14-70.5-23.5T458-20q-62 0-114.5 16t-94 45-70.5 71-44 94H30l42 129h47z"/><glyph glyph-name="afii61289" unicode="ℓ" horiz-adv-x="500" d="M465 56q-43-35-86.5-52.5T284-14q-42 0-74.5 12T155 30t-33 47.5-11 59.5v25l-54-45h-2L1 201l109 86v233q0 42 14 78.5t39.5 64 61 43T302 721q37 0 66.5-11.5T419 678t32-49 11-63q0-77-48-149.5T266 263V162q0-35 18-49t39-14q36 0 88 37h2zM336 557q0 25-9 43.5T301 619q-15 0-25-19.5T266 550V393q39 40 54.5 81t15.5 83z"/><glyph glyph-name="trademark" unicode="™" horiz-adv-x="1000" d="M152 605H40v103h346V605H274V296H152v309zm294 103h164l89-248 83 248h163V296H833v245h-2l-92-245h-91l-89 245h-2V296H446v412z"/><glyph glyph-name="Omega" unicode="Ω" horiz-adv-x="783" d="M419 0v279q51 12 72 48t21 86q0 52-34 86t-87 34q-26 0-48-9t-39-25.5-26.5-38.5-9.5-48q0-49 21-85t74-48V0H50v181h142v11q-32 10-58.5 31.5t-45 52T60 344t-10 82q0 72 27.5 127.5t74 92.5T260 702t131 19q70 0 132-19t108.5-56 74-92T733 427q0-44-10.5-82.5t-29-69-44.5-52-57-31.5v-11h141V0H419z"/><glyph glyph-name="estimated" unicode="℮" horiz-adv-x="800" d="M595 402v193q-82 79-194 79t-191-79V402h385zm-385-47V115q76-78 192-78 83 0 144 37.5T658 196l46-28q-30-48-61.5-82T575 30.5t-78.5-32T402-12q-78 0-141 28.5T153 95 84 211.5 60 355t24 143.5 69 116T261 692t141 28q76 0 139.5-27T650 617.5 720 502t25-147H210z"/><glyph glyph-name="partialdiff" unicode="∂" horiz-adv-x="776" d="M664 360q0-36-4.5-78t-16-83.5-32-79.5-53-67.5-78-47T373-13q-59 0-109.5 17T176 53.5 118.5 132 98 236q0 49 16.5 92t49 74.5 81.5 50T359 471q21 0 44.5-4.5T446 454q-4 32-27 55.5T343 533q-31 0-71-13.5T188 470q-24 38-47.5 77T93 624q57 50 125.5 73.5T356 721q90 0 149-34t94.5-86.5 50-116.5T664 360zm-208-55q-15 9-33.5 12.5T389 321q-35 0-55-19t-20-56q0-21 6.5-35.5t16.5-24 20.5-13.5 19.5-4q45 0 61 34t18 100v2z"/><glyph glyph-name="Delta" unicode="∆" horiz-adv-x="735" d="M10 0q66 179 133 354t133 354h165q72-179 142-354T725 0H10zm422 189q-19 58-38 115t-39 115q-18-58-36-115t-36-115h149z"/><glyph glyph-name="product" unicode="∏" horiz-adv-x="765" d="M521-214v837H244v-837H56V786h655V-214H521z"/><glyph glyph-name="summation" unicode="∑" horiz-adv-x="684" d="M27-214v133q70 94 140.5 186.5T308 292q-67 91-135 180.5T38 653v133h615V623H271q59-83 118.5-165T508 293q-63-87-126.5-172T255-51h409v-163H27z"/><glyph glyph-name="minus" unicode="−" horiz-adv-x="666" d="M592 376V232H74v144h518z"/><glyph glyph-name="uni2215" unicode="∕" horiz-adv-x="100" d="M-163 13l346 726 99-45L-64-27z"/><glyph glyph-name="uni2219" unicode="∙" d="M48 289q0 27 10.5 50.5t29 41 43 28T182 419q26 0 49.5-10.5t41.5-28 28.5-41T312 289t-10.5-51-28.5-41-41.5-27-49.5-10q-27 0-51.5 10t-43 27-29 41T48 289z"/><glyph glyph-name="radical" unicode="√" horiz-adv-x="601" d="M609 786q-54-251-108.5-500T392-214H246q-34 71-69 141.5T108 69q-13-6-25.5-11.5T57 46q-17 35-33.5 69T-10 184q51 22 101 45t101 45q23-52 47.5-102.5T287 69q38 181 74 358.5T435 786h174z"/><glyph glyph-name="infinity" unicode="∞" horiz-adv-x="859" d="M814 269q0-41-13-77.5T763 128t-62-43-84-16q-61 0-106.5 28T430 163q-18-19-37-36t-41-29.5-48.5-20T246 70q-46 0-83 15t-63.5 42T59 190t-14 78q0 40 13.5 76T97 406t61.5 41.5T242 463q33 0 60-8t49.5-22 42-32 36.5-37q17 20 36.5 38t42.5 32 50 22 59 8q46 0 82.5-15.5t62-41.5 38.5-62 13-76zm-146-3q0 26-14.5 41T614 322q-26 0-50-18.5T521 265q20-22 44.5-38t51.5-16q23 0 37 15.5t14 39.5zm-330-1q-22 20-47.5 38T242 321q-22 0-36.5-16T191 266q0-25 14.5-39.5T245 212t48.5 16 44.5 37z"/><glyph glyph-name="integral" unicode="∫" horiz-adv-x="655" d="M552 683q0-33-22-57.5T472 601q-15 0-26 5t-19 12.5-13.5 15.5-11.5 14q-4-9-5.5-21.5T395 602q0-10 .5-18.5t.5-15.5v20.5l-1 20.5v-17q0-17 .5-34t.5-34V115q0-26-.5-54T392 7q-3-41-12.5-80.5T349-144t-56-50-89-19q-20 0-44 6t-44.5 18.5-34.5 33T67-105q0 19 10 36 11 18 29.5 28.5T148-30q15 0 25-5t17-11.5 12.5-14T214-73q4 11 5.5 24t1.5 24q1 5 1 10v10q0 10-.5 19.5T221 33v486q0 46 7.5 93t28.5 85.5 59 62.5 100 24q17 0 40.5-5t44.5-16.5 36-31 15-48.5z"/><glyph glyph-name="approxequal" unicode="≈" horiz-adv-x="666" d="M619 485q-5-59-21-99.5T558 320t-53-36-59-11-61.5 9-62.5 20.5-60.5 20.5-54.5 9q-14 0-23.5-11.5T169 291H48q3 37 14 71.5T94 424t53.5 43.5T226 484q30 0 59-8t58-18 57.5-18 57.5-8q16 0 25.5 11t12.5 42h123zm0-234q-4-32-14-66.5T575.5 121 525 73.5 449 55q-31 0-64 9.5t-64.5 21-60.5 21-53 9.5q-14 0-24.5-13T167 60H46q3 37 14 74.5T91 202t51 49 74 19q31 0 61.5-9t60.5-19.5 60.5-19T460 214q24 0 36 37h123z"/><glyph glyph-name="notequal" unicode="≠" horiz-adv-x="666" d="M315 58L241-90q-35 17-71 33.5T99-23q11 20 22 40.5T143 58H69v152h153q11 23 24 45t24 45H69v152h280q20 36 39 73.5t39 73.5q35-16 70-33t70-33q-11-20-21.5-40.5T524 452h73V300H445q-11-23-24-45t-24-45h200V58H315z"/><glyph glyph-name="lessequal" unicode="≤" horiz-adv-x="666" d="M78 7v139h510V7H78zm510 156q-128 51-255 101.5T78 366v134q128 51 255 101.5T588 703V541q-69-29-137-55.5T314 430q69-26 137-51.5T588 327V163z"/><glyph glyph-name="greaterequal" unicode="≥" horiz-adv-x="666" d="M78 7v139h510V7H78zm0 156v164q69 26 137 51.5T352 430q-69 29-137 55.5T78 541v162q128-51 255-101.5T588 500V366q-128-51-255-101.5T78 163z"/><glyph glyph-name="lozenge" unicode="◊" horiz-adv-x="619" d="M568 356q-48-98-95-195.5T378-35H238q-46 98-92.5 195.5T53 356q48 98 93.5 195.5T240 747h138q48-98 95-195.5T568 356zm-173 0q-21 49-43.5 98.5T308 553q-22-49-42-98.5T224 356q22-49 42-98t42-98q21 49 43.5 98t43.5 98z"/><glyph glyph-name="dotlessj" unicode="" horiz-adv-x="346" d="M292 12q0-51-10.5-96.5t-37.5-80-73-55T55-240q-20 0-48 3t-48 9l12 188q11-3 20.5-4T8-45q26 0 39.5 14.5T61 19v507h231V12z"/><glyph glyph-name="commaaccent" unicode="" d="M290-45l-93-195H33l68 195h189z"/><glyph glyph-name="uniF8FF" unicode="" horiz-adv-x="512" d="M222 117v67h56v-67h-56zm3 117l-2 17q0 56 13 81 7 13 18 27.5t28 31.5q16 15 26 26.5t15 21 7 18 2 17.5q0 36-22.5 60.5T256 559t-53.5-22-28.5-73l-50 8q7 72 44 104.5t91 32.5 89-35.5 35-95.5q0-32-12.5-58.5T320 358q-37-33-43-52-6-20-6-72h-46zM462 50v617H50V50h412zm50 668V0H0v718h512z"/><glyph glyph-name="fi" unicode="ﬁ" horiz-adv-x="756" d="M471 526h231V0H471v526zm-4 152q0 24 9.5 45.5t26 37.5 38.5 25.5 47 9.5q24 0 45-9.5t37.5-25.5 26-37.5T706 678q0-25-9.5-46.5t-26-37T633 570t-45-9q-25 0-47 9t-38.5 24.5-26 37T467 678zm-41-80q-9 4-21 6.5t-24 2.5q-34 0-47.5-21T320 533v-7h111V361H320V0H90v361H0v165h90v12q0 49 11.5 94t39.5 79.5 75.5 54.5T336 786q23 0 53.5-3.5T441 771z"/><glyph glyph-name="fl" unicode="ﬂ" horiz-adv-x="759" d="M470 756h236V0H470v756zm-44-158q-9 4-21 6.5t-24 2.5q-34 0-47.5-21T320 533v-7h111V361H320V0H90v361H0v165h90v12q0 49 11.5 94t39.5 79.5 75.5 54.5T336 786q23 0 53.5-3.5T441 771z"/><glyph glyph-name="ccedilla.sc" horiz-adv-x="579" d="M327-240q-16 0-33.5 1.5T258-234t-34.5 7.5T194-217l34 78q17-8 41.5-12t43.5-4q15 0 27.5 4.5T353-134q0 11-11.5 14.5T316-116q-23 0-41-6l-44 34 63 75Q235-3 186 23.5T102.5 90 49 182.5 30 298q0 72 26 130t71.5 99.5 108.5 64T373 614q30 0 61-5t59.5-13.5 52.5-20 41-24.5L465 375q-15 18-38.5 27t-45.5 9q-21 0-41.5-7T303 382.5 277.5 347t-9.5-49q0-29 9.5-50t25.5-35 36.5-21 41.5-7q24 0 47.5 10.5T466 222L589 49q-32-26-80-44T406-18l-33-35q5 1 16 1 17 0 35-3.5T457-69t24.5-26.5T491-137q0-31-16.5-51t-41-31.5-53-16T327-240z"/><glyph glyph-name="four.onum" horiz-adv-x="700" d="M256 186h120v179h219V186h88V0h-87v-170H373V0H31v194l232 420h242z"/><glyph glyph-name="rcommaaccent.sc" horiz-adv-x="642" d="M61 594h288q53 0 98.5-10t79-33 52.5-60 19-90q0-63-25-105.5T500 234L648 0H384l-95 202h-7V0H61v594zm221-251h39q24 0 40 12.5t16 38.5q0 23-14.5 33.5T327 438h-45v-95zM438-45l-93-195H181l68 195h189z"/><glyph glyph-name="breve.cap" d="M180 764q-33 0-64 6.5t-55.5 23-41 44.5T0 908h110q1-12 8.5-20t17.5-12 22-5.5 22-1.5 22 1.5 22.5 5.5 17.5 12 8 20h110q-3-42-19-70t-41-44.5-56-23-64-6.5z"/><glyph glyph-name="five.onum" horiz-adv-x="600" d="M549 100q0-55-15.5-96.5T492-68t-60.5-49.5T359-149t-78-16.5-76-4.5q-31 0-71 3t-93 12L74 43q29-4 58-6t46-2q25 0 48.5 2.5T268 47t29 20 11 34q0 19-10 31.5T272.5 152t-35.5 9.5-39 2.5q-29 0-65.5-4.5T54 147l30 447h450V396H291l-9-75q9 2 17 2.5t15 .5q51 0 94-13.5t74.5-41.5 49-70 17.5-99z"/><glyph glyph-name="d.sc" horiz-adv-x="689" d="M61 0v594h234q72 0 138-14t116.5-48 80-90.5T659 300q0-78-28.5-135t-76-93.5-110.5-54T312 0H61zm222 187h15q60 0 94 25.5t34 88.5q0 53-32 80.5T305 409h-22V187z"/><glyph glyph-name="e.sc" horiz-adv-x="543" d="M61 594h428V428H277v-52h199V223H277v-56h227V0H61v594z"/><glyph glyph-name="g.sc" horiz-adv-x="650" d="M364-20q-72 0-133.5 22.5t-106 64-69.5 100T30 297t26 130.5 70.5 100 105 64T361 614q81 0 138-20t102-56L472 381q-40 37-99 37-21 0-41.5-7.5t-37-23-26.5-39-10-54.5q0-63 29.5-97t84.5-34q8 0 21 2t27 6v43h-95v142h286V49q-21-14-49-26.5t-60-22-67-15-71-5.5z"/><glyph glyph-name="six.onum" horiz-adv-x="700" d="M350 320q-32 0-52.5-20.5T277 249q0-31 20.5-52t52.5-21q34 0 54.5 21t20.5 52q0 30-20.5 50.5T350 320zm238 349q-29-23-59-48t-57-49.5-50-47-38-40.5l1-2q7 2 16.5 3t17.5 1q46 0 89-15.5t77-45.5 54.5-74T660 250q0-67-25-117.5T567 48 468-3 350-20q-61 0-117 14.5t-99 47-68.5 86T40 259q0 77 32.5 149t81 135.5T258 661t103 95z"/><glyph glyph-name="h.sc" horiz-adv-x="716" d="M422 219H294V0H61v594h232V395h128v199h234V0H422v219z"/><glyph glyph-name="i.sc" horiz-adv-x="358" d="M61 594h236V0H61v594z"/><glyph glyph-name="ring.cap" d="M295 857q0-24-9.5-45t-25-36.5-36.5-24-44-8.5-44 8.5-37 24T74 812t-9 45 9 45 25 36.5 37 24 44 8.5 44-8.5 36.5-24 25-36.5 9.5-45zm-55 0q0 25-17.5 42T180 916t-42.5-17-17.5-42 17.5-42 42.5-17 42.5 17 17.5 42z"/><glyph glyph-name="seven.onum" horiz-adv-x="620" d="M587 425q-39-79-78.5-163t-76-164.5T365-54t-53-124L67-130Q92-77 126-7t70 142.5T266.5 277 327 396H40v198h547V425z"/><glyph glyph-name="l.sc" horiz-adv-x="499" d="M61 594h234V184h184V0H61v594z"/><glyph glyph-name="m.sc" horiz-adv-x="883" d="M272 310h-4l4-310H61v594h290l88-300h5l79 300h299V0H598l3 310h-4L515 0H354z"/><glyph glyph-name="o.sc" horiz-adv-x="726" d="M696 299q0-77-27-136T596 63 490 1 363-20q-66 0-126.5 21T130 63 57 163 30 299q0 75 27 134t73 99 106.5 61T363 614q67 0 127-21t106-61 73-99 27-134zM363 412q-24 0-43.5-9t-34-24.5-22-36T256 300q0-24 7.5-44.5t22-36.5 34-25 43.5-9 43.5 9 34 25 22 36.5T470 300q0 22-8 42.5t-22 36-33.5 24.5-43.5 9z"/><glyph glyph-name="eight.onum" horiz-adv-x="700" d="M350 551q-27 0-42.5-16.5T292 499q0-20 15.5-37t42.5-17 42.5 17 15.5 37q0 19-15.5 35.5T350 551zm0-274q-31 0-46.5-18T288 218t15.5-40.5T350 160t46.5 17.5T412 218t-15.5 41-46.5 18zm176 91q51-19 84.5-61.5T644 204t-25.5-102.5-67-69.5-94-39.5T350-20 242-8t-94 39-66.5 69.5T56 203q0 58 32.5 100t85.5 64v3q-44 17-75 55.5T68 519t24 95 63.5 65 90.5 37 104 12q52 0 103-12t90.5-37 64-65 24.5-95-29-93.5-77-54.5v-3z"/><glyph glyph-name="p.sc" horiz-adv-x="614" d="M291 0H61v594h282q51 0 98-10t82.5-33.5 57-62.5 21.5-97q0-55-21-94.5t-56-65-82.5-37.5-99.5-12h-52V0zm0 334h39q9 0 18.5 2.5T366 345t13.5 16 5.5 25q0 16-6 26.5t-14.5 16T346 436t-19 2h-36V334z"/><glyph glyph-name="q.sc" horiz-adv-x="734" d="M696 312q0-48-17.5-88.5T635 163v-3l98 7V0H357q-68 0-127.5 18.5T125.5 74t-70 93T30 298t27.5 134 73.5 99.5T238 593t127 21q67 0 127-20t105.5-58.5 72-94.5T696 312zM363 412q-24 0-43.5-9.5t-34-25-22-36T256 299q0-24 7.5-45t22-36.5 34-25T363 183t43.5 9.5 33.5 25 21.5 36.5 7.5 45q0 22-7.5 42.5t-21.5 36-33.5 25T363 412z"/><glyph glyph-name="hungarumlaut.cap" d="M-55 764L56 908h212L114 764H-55zm243 0l111 144h212L357 764H188z"/><glyph glyph-name="nine.onum" horiz-adv-x="700" d="M350 274q32 0 52.5 20.5T423 345q0 31-20.5 52T350 418q-34 0-54.5-21T275 345q0-30 20.5-50.5T350 274zM105-97q34 29 66 58.5t59.5 57 49.5 51 36 40.5l-1 2q-7-2-16.5-3t-17.5-1q-46 0-89.5 15.5t-77 45.5-54 74T40 344q0 67 25 117.5t68 84.5 99 51 118 17 118-16 99-50 68-87.5T660 332q0-49-15-98.5T604.5 136t-59-93-70-86-73.5-76.5-70-64.5z"/><glyph glyph-name="t.sc" horiz-adv-x="529" d="M380 0H149v413H7v181h515V413H380V0z"/><glyph glyph-name="u.sc" horiz-adv-x="694" d="M345-20q-72 0-126.5 20t-91 55.5-55 83T54 241v353h236V262q0-77 58-77 27 0 42.5 19.5T406 262v332h234V241q0-55-18-102.5t-55-83T475 0 345-20z"/><glyph glyph-name="w.sc" horiz-adv-x="987" d="M410 0H177L-6 594h251l67-307h4l69 307h226l74-307h3l65 307h240L808 0H575l-83 305h-2z"/><glyph glyph-name="zero.sc" horiz-adv-x="640" d="M320-20q-88 0-144.5 31.5t-89 79-45 103.5T29 300t12.5 105.5 45 102 89 76.5T320 614t144.5-30 89-76.5 45-102T611 300t-12.5-106-45-103.5-89-79T320-20zm0 460q-20 0-33-13t-21-33-11-45-3-49q0-25 3-50.5t11-46.5 21-34 33-13 33.5 13 21 34 10.5 46.5 3 50.5q0 24-3 49t-10.5 45-21 33-33.5 13z"/><glyph glyph-name="x.sc" horiz-adv-x="690" d="M346 138L259 0H-4l205 304L10 593h265l77-128 75 128h257L493 304 694 0H427z"/><glyph glyph-name="y.sc" horiz-adv-x="632" d="M426 0H195v208L-20 594h262l77-198 77 198h256L426 208V0z"/><glyph glyph-name="dotaccent.cap" d="M72 858q0 22 8.5 41t23.5 33.5 34.5 23T181 964q21 0 40.5-8.5t34-23 23-33.5 8.5-41-8.5-41-23-33.5-34-22.5-40.5-8q-23 0-42.5 8T104 783.5 80.5 817 72 858z"/><glyph glyph-name="one.sc" horiz-adv-x="640" d="M252 367l-103-66L44 461l214 133h232V0H252v367z"/><glyph glyph-name="aacute.sc" horiz-adv-x="686" d="M222 594h246L696 0H451l-27 85H258L231 0H-10zm120-210l-49-154h97zM237 654l111 144h212L406 654H237z"/><glyph glyph-name="acircumflex.sc" horiz-adv-x="686" d="M222 594h246L696 0H451l-27 85H258L231 0H-10zm120-210l-49-154h97zm1 338l-67-68H124l137 144h169l134-144H410z"/><glyph glyph-name="adieresis.sc" horiz-adv-x="686" d="M222 594h246L696 0H451l-27 85H258L231 0H-10zm120-210l-49-154h97zm26 364q0 20 8 38t22 31.5 32 21.5 39 8q20 0 38-8t31.5-21.5T560 786t8-38q0-21-8-38.5t-21.5-31-31.5-21-38-7.5q-42 0-71.5 28T368 748zm-249 0q0 20 8 38t22 31.5 32 21.5 39 8q20 0 38-8t31.5-21.5T311 786t8-38q0-21-8-38.5t-21.5-31-31.5-21-38-7.5q-42 0-71.5 28T119 748z"/><glyph glyph-name="two.sc" horiz-adv-x="640" d="M322 346q17 13 22.5 25t5.5 23q0 12-8.5 23T316 428q-18 0-33.5-14.5T266 364L46 391q6 58 33 100t66.5 69.5T233 601t95 13q43 0 90-10.5t86-34.5 64.5-63 25.5-95q0-29-6.5-53T567 313t-36-40.5-52-39.5l-89-60h204V0H70v159z"/><glyph glyph-name="aring.sc" horiz-adv-x="686" d="M222 594h246L696 0H451l-27 85H258L231 0H-10zm120-210l-49-154h97zm116 363q0-24-9.5-45t-25-36.5-36.5-24-44-8.5-44 8.5-37 24-25 36.5-9 45 9 45 25 36.5 37 24 44 8.5 44-8.5 36.5-24 25-36.5 9.5-45zm-55 0q0 25-17.5 42T343 806t-42.5-17-17.5-42 17.5-42 42.5-17 42.5 17 17.5 42z"/><glyph glyph-name="amacron.sc" horiz-adv-x="686" d="M222 594h246L696 0H451l-27 85H258L231 0H-10zm120-210l-49-154h97zM163 777h360v-96H163v96z"/><glyph glyph-name="caron.alt" d="M310 708l-87-177H59l62 177h189z"/><glyph glyph-name="three.sc" horiz-adv-x="640" d="M489 312q53-12 79.5-48.5T595 182q0-55-23.5-93.5t-62-62.5-88-35T321-20q-49 0-95 10t-83.5 32T78 77t-39 80l211 53q4-24 22-38t42-14q17 0 32.5 9t15.5 28q0 26-22 34.5t-60 8.5h-60v132h67q32 0 50 9.5t18 32.5q0 17-12 24.5t-29 7.5-33-11.5-20-33.5L51 447q16 49 45 81t66 51 79.5 27 84.5 8q49 0 95.5-10t83-32 58.5-56 22-82q0-43-23.5-74.5T489 315v-3z"/><glyph glyph-name="ae.sc" horiz-adv-x="888" d="M834 428H622v-52h199V223H622v-56h227V0H408v95H259L215 0H-38l297 594h575V428zM319 250h89v178h-7z"/><glyph glyph-name="cacute.sc" horiz-adv-x="579" d="M370-20q-75 0-137.5 22.5T125 66.5 55 167 30 298t26 130 71.5 99.5 108.5 64T373 614q30 0 61-5t59.5-13.5 52.5-20 41-24.5L465 375q-15 18-38.5 27t-45.5 9q-21 0-41.5-7T303 382.5 277.5 347t-9.5-49q0-29 9.5-50t25.5-35 36.5-21 41.5-7q24 0 47.5 10.5T466 222L589 49q-37-29-95.5-49T370-20zM244 654l111 144h212L413 654H244z"/><glyph glyph-name="ccaron.sc" horiz-adv-x="579" d="M370-20q-75 0-137.5 22.5T125 66.5 55 167 30 298t26 130 71.5 99.5 108.5 64T373 614q30 0 61-5t59.5-13.5 52.5-20 41-24.5L465 375q-15 18-38.5 27t-45.5 9q-21 0-41.5-7T303 382.5 277.5 347t-9.5-49q0-29 9.5-50t25.5-35 36.5-21 41.5-7q24 0 47.5 10.5T466 222L589 49q-37-29-95.5-49T370-20zm226 818L462 654H293L156 798h152l67-68 67 68h154z"/><glyph glyph-name="four.sc" horiz-adv-x="640" d="M538 0H328v105H31v178l215 311h292V261h75V105h-75V0zM325 393l-88-132h91v132h-3z"/><glyph glyph-name="cdotaccent.sc" horiz-adv-x="579" d="M370-20q-75 0-137.5 22.5T125 66.5 55 167 30 298t26 130 71.5 99.5 108.5 64T373 614q30 0 61-5t59.5-13.5 52.5-20 41-24.5L465 375q-15 18-38.5 27t-45.5 9q-21 0-41.5-7T303 382.5 277.5 347t-9.5-49q0-29 9.5-50t25.5-35 36.5-21 41.5-7q24 0 47.5 10.5T466 222L589 49q-37-29-95.5-49T370-20zM267 748q0 22 8.5 41t23.5 33.5 34.5 23T376 854q21 0 40.5-8.5t34-23 23-33.5 8.5-41-8.5-41-23-33.5-34-22.5-40.5-8q-23 0-42.5 8T299 673.5 275.5 707t-8.5 41z"/><glyph glyph-name="uogonek.sc" horiz-adv-x="694" d="M344-240q-20 0-42.5 4T260-221.5t-31 29-12 46.5q0 20 7.5 38T245-74t29.5 30T308-18q-63 5-110.5 26.5t-79.5 56T70 144t-16 97v353h236V262q0-77 58-77 27 0 42.5 19.5T406 262v332h234V241q0-85-41.5-149T471-1q-63-44-87-68.5T360-112q0-20 23-20 26 0 56 18l44-83q-28-18-64.5-30.5T344-240z"/><glyph glyph-name="question.sc" horiz-adv-x="550" d="M422 295q-36-16-36-41v-9H189v20q0 47 24.5 74t64.5 49l11 6q12 7 22 15.5t10 18.5q0 14-10 22.5t-25 8.5q-29 0-40-17.5T235 406L39 428q6 50 28.5 85.5t57.5 58 80.5 32.5 96.5 10q41 0 81.5-8.5t73-28.5 53-52.5T530 443q0-30-7.5-53T501 350t-34-30.5-45-24.5zM291-17q-52 0-86 32t-34 83q0 24 9 45t25 36 38 24 48 9 48-9 38-24 25-36 9-45q0-51-34-83t-86-32z"/><glyph glyph-name="five.sc" horiz-adv-x="640" d="M584 200q0-62-24-104t-62-68-86.5-37T315-20t-92.5 10T142 22 79.5 77.5 40 158l211 55q6-28 23.5-40t34.5-12q25 0 36.5 11t11.5 26q0 17-8 28t-22 17-32.5 8-39.5 2q-13 0-33.5-2t-43.5-5-46.5-7-42.5-8l25 363h439V428H314l-4-42q12 2 24 3t21 1q46 0 87.5-11t73-34 50-59 18.5-86z"/><glyph glyph-name="eth.sc" horiz-adv-x="689" d="M61 0v231H7v138h54v225h234q72 0 138-14t116.5-48 80-90.5T659 300q0-78-28.5-135t-76-93.5-110.5-54T312 0H61zm216 231v-52h15q32 0 57.5 6.5t43.5 21 28 37.5 10 57q0 57-34.5 86.5T299 417h-22v-48h73V231h-73z"/><glyph glyph-name="egrave.sc" horiz-adv-x="543" d="M61 594h428V428H277v-52h199V223H277v-56h227V0H61v594zm32 204h212l111-144H247z"/><glyph glyph-name="ecircumflex.sc" horiz-adv-x="543" d="M61 594h428V428H277v-52h199V223H277v-56h227V0H61v594zm214 128l-67-68H56l137 144h169l134-144H342z"/><glyph glyph-name="six.sc" horiz-adv-x="640" d="M376 408h8l8-1q46-3 84.5-16.5t66-38 43-60.5 15.5-82q0-53-20-95.5T524.5 42 437-4 323-20q-62 0-113 15t-88.5 44-58 71.5T43 208q0 56 19 106t57 101l133 179h273L384 418zm-53-132q-25 0-42.5-17T263 215q0-26 17.5-43.5T323 154t42.5 17.5T383 215q0 27-17.5 44T323 276z"/><glyph glyph-name="ecaron.sc" horiz-adv-x="543" d="M61 594h428V428H277v-52h199V223H277v-56h227V0H61v594zm432 204L359 654H190L53 798h152l67-68 67 68h154z"/><glyph glyph-name="edieresis.sc" horiz-adv-x="543" d="M61 594h428V428H277v-52h199V223H277v-56h227V0H61v594zm238 154q0 20 8 38t22 31.5 32 21.5 39 8q20 0 38-8t31.5-21.5T491 786t8-38q0-21-8-38.5t-21.5-31-31.5-21-38-7.5q-42 0-71.5 28T299 748zm-249 0q0 20 8 38t22 31.5 32 21.5 39 8q20 0 38-8t31.5-21.5T242 786t8-38q0-21-8-38.5t-21.5-31-31.5-21-38-7.5q-42 0-71.5 28T50 748z"/><glyph glyph-name="commaaccent.alt" d="M42 584l93 195h164l-68-195H42z"/><glyph glyph-name="seven.sc" horiz-adv-x="640" d="M104 0l225 418H78v176h489V416L364 0H104z"/><glyph glyph-name="ebreve.sc" horiz-adv-x="543" d="M61 594h428V428H277v-52h199V223H277v-56h227V0H61v594zm213 60q-33 0-64 6.5t-55.5 23-41 44.5T94 798h110q1-12 8.5-20t17.5-12 22-5.5 22-1.5 22 1.5 22.5 5.5 17.5 12 8 20h110q-3-42-19-70t-41-44.5-56-23-64-6.5z"/><glyph glyph-name="eogonek.sc" horiz-adv-x="543" d="M61 594h428V428H277v-52h199V223H277v-56h227V0h-26q-64-45-88.5-69.5T365-112q0-20 23-20 26 0 56 18l44-83q-28-18-64.5-30.5T349-240q-20 0-42.5 4T265-221.5t-31 29-12 46.5q0 24 11 45t28 39 38.5 33.5T341 0H61v594z"/><glyph glyph-name="gdotaccent.sc" horiz-adv-x="650" d="M364-20q-72 0-133.5 22.5t-106 64-69.5 100T30 297t26 130.5 70.5 100 105 64T361 614q81 0 138-20t102-56L472 381q-40 37-99 37-21 0-41.5-7.5t-37-23-26.5-39-10-54.5q0-63 29.5-97t84.5-34q8 0 21 2t27 6v43h-95v142h286V49q-21-14-49-26.5t-60-22-67-15-71-5.5zM258 748q0 22 8.5 41t23.5 33.5 34.5 23T367 854q21 0 40.5-8.5t34-23 23-33.5 8.5-41-8.5-41-23-33.5-34-22.5-40.5-8q-23 0-42.5 8T290 673.5 266.5 707t-8.5 41z"/><glyph glyph-name="eight.sc" horiz-adv-x="640" d="M320 468q-24 0-38-15t-14-32q0-19 14-34t38-15q25 0 39 15t14 34q0 17-14 32t-39 15zm0-224q-27 0-41.5-16T264 189q0-22 14.5-37t41.5-15q29 0 41.5 15t12.5 37q0 23-12.5 39T320 244zm175 65q45-15 76.5-52t31.5-87q0-51-25-87t-65-59-90.5-33.5T320-20 217-9.5t-91 33T61 82t-25 87q0 49 31 85t79 54v3q-39 13-68.5 45.5T48 435q0 47 23.5 81t62 55.5 87 32T320 614q49 0 98-10.5t87.5-32T568 516t24-81q0-46-27-78.5T495 312v-3z"/><glyph glyph-name="gbreve.sc" horiz-adv-x="650" d="M364-20q-72 0-133.5 22.5t-106 64-69.5 100T30 297t26 130.5 70.5 100 105 64T361 614q81 0 138-20t102-56L472 381q-40 37-99 37-21 0-41.5-7.5t-37-23-26.5-39-10-54.5q0-63 29.5-97t84.5-34q8 0 21 2t27 6v43h-95v142h286V49q-21-14-49-26.5t-60-22-67-15-71-5.5zm1 674q-33 0-64 6.5t-55.5 23-41 44.5-19.5 70h110q1-12 8.5-20t17.5-12 22-5.5 22-1.5 22 1.5 22.5 5.5 17.5 12 8 20h110q-3-42-19-70t-41-44.5-56-23-64-6.5z"/><glyph glyph-name="gcommaaccent.sc" horiz-adv-x="650" d="M364-20q-72 0-133.5 22.5t-106 64-69.5 100T30 297t26 130.5 70.5 100 105 64T361 614q81 0 138-20t102-56L472 381q-40 37-99 37-21 0-41.5-7.5t-37-23-26.5-39-10-54.5q0-63 29.5-97t84.5-34q8 0 21 2t27 6v43h-95v142h286V49q-21-14-49-26.5t-60-22-67-15-71-5.5zm93-25l-93-195H200l68 195h189z"/><glyph glyph-name="grave.sc" d="M-36 798h212l111-144H118z"/><glyph glyph-name="nine.sc" horiz-adv-x="640" d="M262 186h-7l-8 1q-46 3-84.5 16.5t-66 38-43 60T38 384q0 53 20 95.5t56.5 72.5 87.5 46 113 16q61 0 112.5-15t88.5-44 58-71.5 21-97.5q0-56-19.5-106T518 179L387 0H114l141 176zm53 138q25 0 42.5 17t17.5 44q0 26-17.5 43.5T315 446t-42-17.5-17-43.5q0-27 17-44t42-17z"/><glyph glyph-name="igrave.sc" horiz-adv-x="358" d="M61 594h236V0H61v594zM-43 798h212l111-144H111z"/><glyph glyph-name="iacute.sc" horiz-adv-x="358" d="M61 594h236V0H61v594zm15 60l111 144h212L245 654H76z"/><glyph glyph-name="itilde.sc" horiz-adv-x="358" d="M61 594h236V0H61v594zm305 196q-2-30-10-55t-22.5-44-35-29.5T252 651q-21 0-40.5 6T171 674q-24 13-36 17.5t-27 4.5q-16 0-25-10.5T71 660H-9q3 57 32 96.5t81 39.5q23 0 42-6.5t41-17.5q23-12 36-17t29-5 23.5 10 11.5 30h79z"/><glyph glyph-name="grave.cap" d="M-36 908h212l111-144H118z"/><glyph glyph-name="idieresis.sc" horiz-adv-x="358" d="M61 594h236V0H61v594zm143 154q0 20 8 38t22 31.5 32 21.5 39 8q20 0 38-8t31.5-21.5T396 786t8-38q0-21-8-38.5t-21.5-31-31.5-21-38-7.5q-42 0-71.5 28T204 748zm-249 0q0 20 8 38t22 31.5T17 839t39 8q20 0 38-8t31.5-21.5T147 786t8-38q0-21-8-38.5t-21.5-31-31.5-21-38-7.5q-42 0-71.5 28T-45 748z"/><glyph glyph-name="imacron.sc" horiz-adv-x="358" d="M61 594h236V0H61v594zM-1 777h360v-96H-1v96z"/><glyph glyph-name="acute.sc" d="M73 654l111 144h212L242 654H73z"/><glyph glyph-name="acute.cap" d="M73 764l111 144h212L242 764H73z"/><glyph glyph-name="jcircumflex.sc" horiz-adv-x="541" d="M245-20Q145-20 80.5 23.5T-8 147l182 79q8-39 41-39 20 0 27.5 13.5T250 231v363h236V217q0-45-13-87.5t-42-76T356.5 0 245-20zm123 742l-67-68H149l137 144h169l134-144H435z"/><glyph glyph-name="kcommaaccent.sc" horiz-adv-x="671" d="M286 234h-1V0H61v594h223V378h2l115 216h269L484 323 681 0H401zM451-45l-93-195H194l68 195h189z"/><glyph glyph-name="lcaron.sc" horiz-adv-x="539" d="M61 594h234V184h184V0H61v594zm512 0l-93-195H316l68 195h189z"/><glyph glyph-name="circumflex.cap" d="M179 832l-67-68H-40L97 908h169l134-144H246z"/><glyph glyph-name="lcommaaccent.sc" horiz-adv-x="499" d="M61 594h234V184h184V0H61v594zM375-45l-93-195H118l68 195h189z"/><glyph glyph-name="ldot.sc" horiz-adv-x="530" d="M61 594h234V184h184V0H61v594zm276-246q0 22 8.5 41t23.5 33.5 34.5 23T446 454q21 0 40.5-8.5t34-23 23-33.5 8.5-41-8.5-41-23-33.5-34-22.5-40.5-8q-23 0-42.5 8T369 273.5 345.5 307t-8.5 41z"/><glyph glyph-name="circumflex.sc" d="M179 722l-67-68H-40L97 798h169l134-144H246z"/><glyph glyph-name="caron.cap" d="M400 908L266 764H97L-40 908h152l67-68 67 68h154z"/><glyph glyph-name="ncaron.sc" horiz-adv-x="710" d="M61 594h231l140-271h4l-7 271h220V0H414L279 256h-4l7-256H61v594zm515 204L442 654H273L136 798h152l67-68 67 68h154z"/><glyph glyph-name="ntilde.sc" horiz-adv-x="710" d="M61 594h231l140-271h4l-7 271h220V0H414L279 256h-4l7-256H61v594zm483 196q-2-30-10-55t-22.5-44-35-29.5T430 651q-21 0-40.5 6T349 674q-24 13-36 17.5t-27 4.5q-16 0-25-10.5T249 660h-80q3 57 32 96.5t81 39.5q23 0 42-6.5t41-17.5q23-12 36-17t29-5 23.5 10 11.5 30h79z"/><glyph glyph-name="ograve.sc" horiz-adv-x="726" d="M696 299q0-77-27-136T596 63 490 1 363-20q-66 0-126.5 21T130 63 57 163 30 299q0 75 27 134t73 99 106.5 61T363 614q67 0 127-21t106-61 73-99 27-134zM363 412q-24 0-43.5-9t-34-24.5-22-36T256 300q0-24 7.5-44.5t22-36.5 34-25 43.5-9 43.5 9 34 25 22 36.5T470 300q0 22-8 42.5t-22 36-33.5 24.5-43.5 9zM148 798h212l111-144H302z"/><glyph glyph-name="tilde.cap" d="M367 900q-2-30-10-55t-22.5-44-35-29.5T253 761q-21 0-40.5 6T172 784q-24 13-36 17.5t-27 4.5q-16 0-25-10.5T72 770H-8q3 57 32 96.5t81 39.5q23 0 42-6.5t41-17.5q23-12 36-17t29-5 23.5 10 11.5 30h79z"/><glyph glyph-name="oacute.sc" horiz-adv-x="726" d="M696 299q0-77-27-136T596 63 490 1 363-20q-66 0-126.5 21T130 63 57 163 30 299q0 75 27 134t73 99 106.5 61T363 614q67 0 127-21t106-61 73-99 27-134zM363 412q-24 0-43.5-9t-34-24.5-22-36T256 300q0-24 7.5-44.5t22-36.5 34-25 43.5-9 43.5 9 34 25 22 36.5T470 300q0 22-8 42.5t-22 36-33.5 24.5-43.5 9zM240 654l111 144h212L409 654H240z"/><glyph glyph-name="ocircumflex.sc" horiz-adv-x="726" d="M696 299q0-77-27-136T596 63 490 1 363-20q-66 0-126.5 21T130 63 57 163 30 299q0 75 27 134t73 99 106.5 61T363 614q67 0 127-21t106-61 73-99 27-134zM363 412q-24 0-43.5-9t-34-24.5-22-36T256 300q0-24 7.5-44.5t22-36.5 34-25 43.5-9 43.5 9 34 25 22 36.5T470 300q0 22-8 42.5t-22 36-33.5 24.5-43.5 9zm-1 310l-67-68H143l137 144h169l134-144H429z"/><glyph glyph-name="caron.sc" d="M400 798L266 654H97L-40 798h152l67-68 67 68h154z"/><glyph glyph-name="dieresis.cap" d="M205 858q0 20 8 38t22 31.5 32 21.5 39 8q20 0 38-8t31.5-21.5T397 896t8-38q0-21-8-38.5t-21.5-31-31.5-21-38-7.5q-42 0-71.5 28T205 858zm-249 0q0 20 8 38t22 31.5T18 949t39 8q20 0 38-8t31.5-21.5T148 896t8-38q0-21-8-38.5t-21.5-31-31.5-21-38-7.5q-42 0-71.5 28T-44 858z"/><glyph glyph-name="omacron.sc" horiz-adv-x="726" d="M696 299q0-77-27-136T596 63 490 1 363-20q-66 0-126.5 21T130 63 57 163 30 299q0 75 27 134t73 99 106.5 61T363 614q67 0 127-21t106-61 73-99 27-134zM363 412q-24 0-43.5-9t-34-24.5-22-36T256 300q0-24 7.5-44.5t22-36.5 34-25 43.5-9 43.5 9 34 25 22 36.5T470 300q0 22-8 42.5t-22 36-33.5 24.5-43.5 9zM182 777h360v-96H182v96z"/><glyph glyph-name="obreve.sc" horiz-adv-x="726" d="M696 299q0-77-27-136T596 63 490 1 363-20q-66 0-126.5 21T130 63 57 163 30 299q0 75 27 134t73 99 106.5 61T363 614q67 0 127-21t106-61 73-99 27-134zM363 412q-24 0-43.5-9t-34-24.5-22-36T256 300q0-24 7.5-44.5t22-36.5 34-25 43.5-9 43.5 9 34 25 22 36.5T470 300q0 22-8 42.5t-22 36-33.5 24.5-43.5 9zm-1 242q-33 0-64 6.5t-55.5 23-41 44.5-19.5 70h110q1-12 8.5-20t17.5-12 22-5.5 22-1.5 22 1.5 22.5 5.5 17.5 12 8 20h110q-3-42-19-70t-41-44.5-56-23-64-6.5z"/><glyph glyph-name="oslash.sc" horiz-adv-x="726" d="M696 299q0-77-27-136T596 63 490 1 363-20q-102 0-184 47l-70-73-85 78 68 71q-29 38-45.5 87T30 299q0 75 27 134t73 99 106.5 61T363 614q99 0 179-44l80 83 85-78-77-80q31-38 48.5-87T696 299zm-226 1q0 15-5 32L329 190q17-5 34-5 24 0 43.5 9t34 25 22 36.5T470 300zM363 412q-24 0-43.5-9t-34-24.5-22-36T256 300q0-16 3-31l134 139q-13 4-30 4z"/><glyph glyph-name="macron.cap" d="M0 887h360v-96H0v96z"/><glyph glyph-name="oe.sc" horiz-adv-x="901" d="M847 428H635v-52h199V223H635v-56h227V0H415q-73 0-139 14.5t-116 48-79.5 90T51 293q0 75 28 131t76 94 111 57 132 19h449V428zM284 297q0-31 10-53.5t26.5-37 37-21.5 42.5-7h26v238h-26q-22 0-42.5-7.5t-37-22.5-26.5-37.5-10-51.5z"/><glyph glyph-name="racute.sc" horiz-adv-x="642" d="M61 594h288q53 0 98.5-10t79-33 52.5-60 19-90q0-63-25-105.5T500 234L648 0H384l-95 202h-7V0H61v594zm221-251h39q24 0 40 12.5t16 38.5q0 23-14.5 33.5T327 438h-45v-95zm-83 311l111 144h212L368 654H199z"/><glyph glyph-name="tilde.sc" d="M367 790q-2-30-10-55t-22.5-44-35-29.5T253 651q-21 0-40.5 6T172 674q-24 13-36 17.5t-27 4.5q-16 0-25-10.5T72 660H-8q3 57 32 96.5t81 39.5q23 0 42-6.5t41-17.5q23-12 36-17t29-5 23.5 10 11.5 30h79z"/><glyph glyph-name="sacute.sc" horiz-adv-x="571" d="M542 189q0-59-25.5-99t-64-64.5-84.5-35T281-20q-76 0-150 22T4 65l126 147q27-25 63.5-40t70.5-15q14 0 25.5 4.5T301 180t-20 24-71 22q-28 6-57.5 18.5t-54 33.5T58 329.5 42 402q0 58 25.5 98t63.5 65.5 83.5 37T301 614q68 0 135-20t121-56L436 393q-28 18-57 28t-57 10q-19 0-31.5-5T278 407q0-6 2.5-10t11-8 23.5-8.5 40-9.5q35-7 68.5-20.5t60-35T526 263t16-74zM186 654l111 144h212L355 654H186z"/><glyph glyph-name="f.sc" horiz-adv-x="513" d="M287 362h174V200H288V0H61v594h424V428H287v-66z"/><glyph glyph-name="scaron.sc" horiz-adv-x="571" d="M542 189q0-59-25.5-99t-64-64.5-84.5-35T281-20q-76 0-150 22T4 65l126 147q27-25 63.5-40t70.5-15q14 0 25.5 4.5T301 180t-20 24-71 22q-28 6-57.5 18.5t-54 33.5T58 329.5 42 402q0 58 25.5 98t63.5 65.5 83.5 37T301 614q68 0 135-20t121-56L436 393q-28 18-57 28t-57 10q-19 0-31.5-5T278 407q0-6 2.5-10t11-8 23.5-8.5 40-9.5q35-7 68.5-20.5t60-35T526 263t16-74zm-20 609L388 654H219L82 798h152l67-68 67 68h154z"/><glyph glyph-name="k.sc" horiz-adv-x="671" d="M286 234h-1V0H61v594h223V378h2l115 216h269L484 323 681 0H401z"/><glyph glyph-name="scommaaccent.sc" horiz-adv-x="571" d="M542 189q0-59-25.5-99t-64-64.5-84.5-35T281-20q-76 0-150 22T4 65l126 147q27-25 63.5-40t70.5-15q14 0 25.5 4.5T301 180t-20 24-71 22q-28 6-57.5 18.5t-54 33.5T58 329.5 42 402q0 58 25.5 98t63.5 65.5 83.5 37T301 614q68 0 135-20t121-56L436 393q-28 18-57 28t-57 10q-19 0-31.5-5T278 407q0-6 2.5-10t11-8 23.5-8.5 40-9.5q35-7 68.5-20.5t60-35T526 263t16-74zM386-45l-93-195H129l68 195h189z"/><glyph glyph-name="n.sc" horiz-adv-x="710" d="M61 594h231l140-271h4l-7 271h220V0H414L279 256h-4l7-256H61v594z"/><glyph glyph-name="tcaron.sc" horiz-adv-x="529" d="M380 0H149v413H7v181h515V413H380V0zm106 798L352 654H183L46 798h152l67-68 67 68h154z"/><glyph glyph-name="dieresis.sc" d="M205 748q0 20 8 38t22 31.5 32 21.5 39 8q20 0 38-8t31.5-21.5T397 786t8-38q0-21-8-38.5t-21.5-31-31.5-21-38-7.5q-42 0-71.5 28T205 748zm-249 0q0 20 8 38t22 31.5T18 839t39 8q20 0 38-8t31.5-21.5T148 786t8-38q0-21-8-38.5t-21.5-31-31.5-21-38-7.5q-42 0-71.5 28T-44 748z"/><glyph glyph-name="tbar.sc" horiz-adv-x="529" d="M57 335h92v78H7v181h515V413H380v-78h92V235h-92V0H149v235H57v100z"/><glyph glyph-name="v.sc" horiz-adv-x="630" d="M-18 594h258l79-334h4l76 334h249L448 0H179z"/><glyph glyph-name="ugrave.sc" horiz-adv-x="694" d="M345-20q-72 0-126.5 20t-91 55.5-55 83T54 241v353h236V262q0-77 58-77 27 0 42.5 19.5T406 262v332h234V241q0-55-18-102.5t-55-83T475 0 345-20zM139 798h212l111-144H293z"/><glyph glyph-name="agrave.sc" horiz-adv-x="686" d="M222 594h246L696 0H451l-27 85H258L231 0H-10zm120-210l-49-154h97zM129 798h212l111-144H283z"/><glyph glyph-name="ucircumflex.sc" horiz-adv-x="694" d="M345-20q-72 0-126.5 20t-91 55.5-55 83T54 241v353h236V262q0-77 58-77 27 0 42.5 19.5T406 262v332h234V241q0-55-18-102.5t-55-83T475 0 345-20zm1 742l-67-68H127l137 144h169l134-144H413z"/><glyph glyph-name="atilde.sc" horiz-adv-x="686" d="M222 594h246L696 0H451l-27 85H258L231 0H-10zm120-210l-49-154h97zm188 406q-2-30-10-55t-22.5-44-35-29.5T416 651q-21 0-40.5 6T335 674q-24 13-36 17.5t-27 4.5q-16 0-25-10.5T235 660h-80q3 57 32 96.5t81 39.5q23 0 42-6.5t41-17.5q23-12 36-17t29-5 23.5 10 11.5 30h79z"/><glyph glyph-name="udieresis.sc" horiz-adv-x="694" d="M345-20q-72 0-126.5 20t-91 55.5-55 83T54 241v353h236V262q0-77 58-77 27 0 42.5 19.5T406 262v332h234V241q0-55-18-102.5t-55-83T475 0 345-20zm28 768q0 20 8 38t22 31.5 32 21.5 39 8q20 0 38-8t31.5-21.5T565 786t8-38q0-21-8-38.5t-21.5-31-31.5-21-38-7.5q-42 0-71.5 28T373 748zm-249 0q0 20 8 38t22 31.5 32 21.5 39 8q20 0 38-8t31.5-21.5T316 786t8-38q0-21-8-38.5t-21.5-31-31.5-21-38-7.5q-42 0-71.5 28T124 748z"/><glyph glyph-name="macron.sc" d="M0 777h360v-96H0v96z"/><glyph glyph-name="ubreve.sc" horiz-adv-x="694" d="M345-20q-72 0-126.5 20t-91 55.5-55 83T54 241v353h236V262q0-77 58-77 27 0 42.5 19.5T406 262v332h234V241q0-55-18-102.5t-55-83T475 0 345-20zm3 674q-33 0-64 6.5t-55.5 23-41 44.5-19.5 70h110q1-12 8.5-20t17.5-12 22-5.5 22-1.5 22 1.5 22.5 5.5 17.5 12 8 20h110q-3-42-19-70t-41-44.5-56-23-64-6.5z"/><glyph glyph-name="ccircumflex.sc" horiz-adv-x="579" d="M370-20q-75 0-137.5 22.5T125 66.5 55 167 30 298t26 130 71.5 99.5 108.5 64T373 614q30 0 61-5t59.5-13.5 52.5-20 41-24.5L465 375q-15 18-38.5 27t-45.5 9q-21 0-41.5-7T303 382.5 277.5 347t-9.5-49q0-29 9.5-50t25.5-35 36.5-21 41.5-7q24 0 47.5 10.5T466 222L589 49q-37-29-95.5-49T370-20zm5 742l-67-68H156l137 144h169l134-144H442z"/><glyph glyph-name="uhungarumlaut.sc" horiz-adv-x="694" d="M345-20q-72 0-126.5 20t-91 55.5-55 83T54 241v353h236V262q0-77 58-77 27 0 42.5 19.5T406 262v332h234V241q0-55-18-102.5t-55-83T475 0 345-20zM142 654l111 144h212L311 654H142zm243 0l111 144h212L554 654H385z"/><glyph glyph-name="dcroat.sc" horiz-adv-x="689" d="M61 0v231H7v138h54v225h234q72 0 138-14t116.5-48 80-90.5T659 300q0-78-28.5-135t-76-93.5-110.5-54T312 0H61zm216 231v-52h15q32 0 57.5 6.5t43.5 21 28 37.5 10 57q0 57-34.5 86.5T299 417h-22v-48h73V231h-73z"/><glyph glyph-name="wcircumflex.sc" horiz-adv-x="987" d="M410 0H177L-6 594h251l67-307h4l69 307h226l74-307h3l65 307h240L808 0H575l-83 305h-2zm85 722l-67-68H276l137 144h169l134-144H562z"/><glyph glyph-name="eacute.sc" horiz-adv-x="543" d="M61 594h428V428H277v-52h199V223H277v-56h227V0H61v594zm100 60l111 144h212L330 654H161z"/><glyph glyph-name="ycircumflex.sc" horiz-adv-x="632" d="M426 0H195v208L-20 594h262l77-198 77 198h256L426 208V0zM318 722l-67-68H99l137 144h169l134-144H385z"/><glyph glyph-name="breve.sc" d="M180 654q-33 0-64 6.5t-55.5 23-41 44.5T0 798h110q1-12 8.5-20t17.5-12 22-5.5 22-1.5 22 1.5 22.5 5.5 17.5 12 8 20h110q-3-42-19-70t-41-44.5-56-23-64-6.5z"/><glyph glyph-name="zacute.sc" horiz-adv-x="590" d="M38 181l216 229H47v184h507V425L322 184h242V0H38v181zm145 473l111 144h212L352 654H183z"/><glyph glyph-name="gcircumflex.sc" horiz-adv-x="650" d="M364-20q-72 0-133.5 22.5t-106 64-69.5 100T30 297t26 130.5 70.5 100 105 64T361 614q81 0 138-20t102-56L472 381q-40 37-99 37-21 0-41.5-7.5t-37-23-26.5-39-10-54.5q0-63 29.5-97t84.5-34q8 0 21 2t27 6v43h-95v142h286V49q-21-14-49-26.5t-60-22-67-15-71-5.5zm1 742l-67-68H146l137 144h169l134-144H432z"/><glyph glyph-name="zdotaccent.sc" horiz-adv-x="590" d="M38 181l216 229H47v184h507V425L322 184h242V0H38v181zm156 567q0 22 8.5 41t23.5 33.5 34.5 23T303 854q21 0 40.5-8.5t34-23 23-33.5 8.5-41-8.5-41-23-33.5-34-22.5-40.5-8q-23 0-42.5 8T226 673.5 202.5 707t-8.5 41z"/><glyph glyph-name="hbar.sc" horiz-adv-x="716" d="M422 202H294V0H61v594h232v-69h128v69h234V0H422v202zm-1 170v63H293v-63h128z"/><glyph glyph-name="fl.sc" horiz-adv-x="1022" d="M297 362h174V200H298V0H71v594h424V428H297v-66zm287 232h234V184h184V0H584v594z"/><glyph glyph-name="icircumflex.sc" horiz-adv-x="358" d="M61 594h236V0H61v594zm119 128l-67-68H-39L98 798h169l134-144H247z"/><glyph glyph-name="exclamdown.sc" horiz-adv-x="420" d="M210 611q52 0 86-32t34-83q0-24-9-45t-25-36-38-24-48-9-48 9-38 24-25 36-9 45q0 51 34 83t86 32zm117-268V0H93v343h234z"/><glyph glyph-name="ring.sc" d="M295 747q0-24-9.5-45t-25-36.5-36.5-24-44-8.5-44 8.5-37 24T74 702t-9 45 9 45 25 36.5 37 24 44 8.5 44-8.5 36.5-24 25-36.5 9.5-45zm-55 0q0 25-17.5 42T180 806t-42.5-17-17.5-42 17.5-42 42.5-17 42.5 17 17.5 42z"/><glyph glyph-name="Euro.sc" horiz-adv-x="640" d="M124 279q-1 7-1 10.5v15l1 9.5H44l37 100h54q15 51 44.5 88.5t71 62.5 91.5 37 106 12q36 0 74.5-5.5T593 592l-58-148q-14 7-38 12t-50 5q-30 0-54.5-12T356 414h173l-35-100H332q-1-5-1-8.5v-17l1-9.5h152l-34-98h-95q11-21 36.5-30t49.5-9q29 0 54.5 6.5T542 166l27-156q-27-14-66.5-22T414-20q-111 0-183.5 54T134 181H47l33 98h44z"/><glyph glyph-name="lacute.sc" horiz-adv-x="499" d="M61 594h234V184h184V0H61v594zm30 60l111 144h212L260 654H91z"/><glyph glyph-name="sterling.sc" horiz-adv-x="640" d="M464 425q-23 26-53 26-22 0-36.5-11.5T360 405v-23h122V244H360v-77h211V0H90v167h77v77H90v138h77v28q0 45 15.5 82.5T227 557t70.5 42 94.5 15q58 0 103.5-18.5T570 549L464 425z"/><glyph glyph-name="nacute.sc" horiz-adv-x="710" d="M61 594h231l140-271h4l-7 271h220V0H414L279 256h-4l7-256H61v594zm188 60l111 144h212L418 654H249z"/><glyph glyph-name="yen.sc" horiz-adv-x="640" d="M580 367V267H426v-57h154V110H426V0H212v110H61v100h151v57H61v100h86L2 594h229l91-182 92 182h224L494 367h86z"/><glyph glyph-name="ncommaaccent.sc" horiz-adv-x="710" d="M61 594h231l140-271h4l-7 271h220V0H414L279 256h-4l7-256H61v594zM458-45l-93-195H201l68 195h189z"/><glyph glyph-name="perthousand.sc" horiz-adv-x="1200" d="M203 283q-33 0-63.5 12t-54 33.5-37 52T35 448t13.5 67.5 37 52 54 33T203 612q34 0 64.5-11.5t54-33 37-52T372 448t-13.5-67.5-37-52-54-33.5-64.5-12zm0 116q21 0 36 13.5t15 36.5-15 36.5-36 13.5q-20 0-35.5-13.5T152 449t15.5-36.5T203 399zM648-17q-33 0-63.5 12t-54 33.5-37 52T480 148t13.5 67.5 37 52 54 33T648 312q34 0 64.5-11.5t54-33 37-52T817 148t-13.5-67.5-37-52-54-33.5T648-17zm0 116q21 0 36 13.5t15 36.5-15 36.5-36 13.5q-20 0-35.5-13.5T597 149t15.5-36.5T648 99zm361-116q-33 0-63.5 12t-54 33.5-37 52T841 148t13.5 67.5 37 52 54 33T1009 312q34 0 64.5-11.5t54-33 37-52T1178 148t-13.5-67.5-37-52-54-33.5-64.5-12zm0 116q21 0 36 13.5t15 36.5-15 36.5-36 13.5q-20 0-35.5-13.5T958 149t15.5-36.5T1009 99zM199 17l344 592 93-54L291-37z"/><glyph glyph-name="hungarumlaut.sc" d="M-55 654L56 798h212L114 654H-55zm243 0l111 144h212L357 654H188z"/><glyph glyph-name="one.onum" horiz-adv-x="550" d="M212 367l-103-66L4 461l214 133h232V0H212v367z"/><glyph glyph-name="ohungarumlaut.sc" horiz-adv-x="726" d="M696 299q0-77-27-136T596 63 490 1 363-20q-66 0-126.5 21T130 63 57 163 30 299q0 75 27 134t73 99 106.5 61T363 614q67 0 127-21t106-61 73-99 27-134zM363 412q-24 0-43.5-9t-34-24.5-22-36T256 300q0-24 7.5-44.5t22-36.5 34-25 43.5-9 43.5 9 34 25 22 36.5T470 300q0 22-8 42.5t-22 36-33.5 24.5-43.5 9zM156 654l111 144h212L325 654H156zm243 0l111 144h212L568 654H399z"/><glyph glyph-name="three.onum" horiz-adv-x="600" d="M535 400q-23-14-49.5-29t-52-29.5-49-26.5-41.5-21v-3q5 1 10.5 1.5t12.5.5q38 0 74-12.5t64-38 45-64T566 89q0-78-33-128t-84-79-112.5-40.5T218-170q-32 0-77.5 4T51-154L85 45q29-5 60.5-8t51.5-3q21 0 43.5 2t41.5 9 31 18.5T325 95q0 16-11 26.5T285.5 138t-38.5 8.5-41 2.5-52-3-66-11L49 293q20 9 47 22t57 28 60.5 30 57.5 29v4H52v188h483V400z"/><glyph glyph-name="c.sc" horiz-adv-x="579" d="M370-20q-75 0-137.5 22.5T125 66.5 55 167 30 298t26 130 71.5 99.5 108.5 64T373 614q30 0 61-5t59.5-13.5 52.5-20 41-24.5L465 375q-15 18-38.5 27t-45.5 9q-21 0-41.5-7T303 382.5 277.5 347t-9.5-49q0-29 9.5-50t25.5-35 36.5-21 41.5-7q24 0 47.5 10.5T466 222L589 49q-37-29-95.5-49T370-20z"/><glyph glyph-name="scircumflex.sc" horiz-adv-x="571" d="M542 189q0-59-25.5-99t-64-64.5-84.5-35T281-20q-76 0-150 22T4 65l126 147q27-25 63.5-40t70.5-15q14 0 25.5 4.5T301 180t-20 24-71 22q-28 6-57.5 18.5t-54 33.5T58 329.5 42 402q0 58 25.5 98t63.5 65.5 83.5 37T301 614q68 0 135-20t121-56L436 393q-28 18-57 28t-57 10q-19 0-31.5-5T278 407q0-6 2.5-10t11-8 23.5-8.5 40-9.5q35-7 68.5-20.5t60-35T526 263t16-74zM300 722l-67-68H81l137 144h169l134-144H367z"/><glyph glyph-name="j.sc" horiz-adv-x="541" d="M245-20Q145-20 80.5 23.5T-8 147l182 79q8-39 41-39 20 0 27.5 13.5T250 231v363h236V217q0-45-13-87.5t-42-76T356.5 0 245-20z"/><glyph glyph-name="germandbls.sc" horiz-adv-x="1142" d="M542 189q0-59-25.5-99t-64-64.5-84.5-35T281-20q-76 0-150 22T4 65l126 147q27-25 63.5-40t70.5-15q14 0 25.5 4.5T301 180t-20 24-71 22q-28 6-57.5 18.5t-54 33.5T58 329.5 42 402q0 58 25.5 98t63.5 65.5 83.5 37T301 614q68 0 135-20t121-56L436 393q-28 18-57 28t-57 10q-19 0-31.5-5T278 407q0-6 2.5-10t11-8 23.5-8.5 40-9.5q35-7 68.5-20.5t60-35T526 263t16-74zm571 0q0-59-25.5-99t-64-64.5-84.5-35T852-20q-76 0-150 22T575 65l126 147q27-25 63.5-40t70.5-15q14 0 25.5 4.5T872 180t-20 24-71 22q-28 6-57.5 18.5t-54 33.5-40.5 51.5-16 72.5q0 58 25.5 98t63.5 65.5 83.5 37T872 614q68 0 135-20t121-56l-121-145q-28 18-57 28t-57 10q-19 0-31.5-5T849 407q0-6 2.5-10t11-8 23.5-8.5 40-9.5q35-7 68.5-20.5t60-35T1097 263t16-74z"/><glyph glyph-name="dotaccent.sc" d="M72 748q0 22 8.5 41t23.5 33.5 34.5 23T181 854q21 0 40.5-8.5t34-23 23-33.5 8.5-41-8.5-41-23-33.5-34-22.5-40.5-8q-23 0-42.5 8T104 673.5 80.5 707 72 748z"/><glyph glyph-name="thorn.sc" horiz-adv-x="614" d="M286 112V0H61v594h225v-67h76q63 0 108.5-14.5T545 472t43-62.5 14-81.5q0-50-17-90t-49-68-77.5-43T356 112h-70zm0 164h40q32 0 47 14t15 35q0 19-14.5 32.5T328 371h-42v-95z"/><glyph glyph-name="z.sc" horiz-adv-x="590" d="M38 181l216 229H47v184h507V425L322 184h242V0H38v181z"/><glyph glyph-name="utilde.sc" horiz-adv-x="694" d="M345-20q-72 0-126.5 20t-91 55.5-55 83T54 241v353h236V262q0-77 58-77 27 0 42.5 19.5T406 262v332h234V241q0-55-18-102.5t-55-83T475 0 345-20zm192 810q-2-30-10-55t-22.5-44-35-29.5T423 651q-21 0-40.5 6T342 674q-24 13-36 17.5t-27 4.5q-16 0-25-10.5T242 660h-80q3 57 32 96.5t81 39.5q23 0 42-6.5t41-17.5q23-12 36-17t29-5 23.5 10 11.5 30h79z"/><glyph glyph-name="aogonek.sc" horiz-adv-x="686" d="M222 594h246L696 0H451l-27 85H258L231 0H-10zm120-210l-49-154h97zm117-624q-20 0-42.5 4T375-221.5t-31 29-12 46.5q0 24 11 45t28 39 38.5 33.5T451 0h137q-64-45-88.5-69.5T475-112q0-20 23-20 26 0 56 18l44-83q-28-18-64.5-30.5T459-240z"/><glyph glyph-name="uring.sc" horiz-adv-x="694" d="M345-20q-72 0-126.5 20t-91 55.5-55 83T54 241v353h236V262q0-77 58-77 27 0 42.5 19.5T406 262v332h234V241q0-55-18-102.5t-55-83T475 0 345-20zm118 767q0-24-9.5-45t-25-36.5-36.5-24-44-8.5-44 8.5-37 24-25 36.5-9 45 9 45 25 36.5 37 24 44 8.5 44-8.5 36.5-24 25-36.5 9.5-45zm-55 0q0 25-17.5 42T348 806t-42.5-17-17.5-42 17.5-42 42.5-17 42.5 17 17.5 42z"/><glyph glyph-name="a.sc" horiz-adv-x="686" d="M222 594h246L696 0H451l-27 85H258L231 0H-10zm120-210l-49-154h97z"/><glyph glyph-name="yacute.sc" horiz-adv-x="632" d="M426 0H195v208L-20 594h262l77-198 77 198h256L426 208V0zM209 654l111 144h212L378 654H209z"/><glyph glyph-name="iogonek.sc" horiz-adv-x="358" d="M61 594h236V0q-64-45-88.5-69.5T184-112q0-20 23-20 26 0 56 18l44-83q-28-18-64.5-30.5T168-240q-20 0-42.5 4T84-221.5t-31 29T41-146q0 24 11 45t28 39 38.5 33.5T160 0H61v594z"/><glyph glyph-name="zcaron.sc" horiz-adv-x="590" d="M38 181l216 229H47v184h507V425L322 184h242V0H38v181zm489 617L393 654H224L87 798h152l67-68 67 68h154z"/><glyph glyph-name="hcircumflex.sc" horiz-adv-x="716" d="M422 219H294V0H61v594h232V395h128v199h234V0H422v219zm-65 503l-67-68H138l137 144h169l134-144H424z"/><glyph glyph-name="ij.sc" horiz-adv-x="900" d="M61 594h236V0H61v594zM604-20q-100 0-164.5 43.5T351 147l182 79q8-39 41-39 20 0 27.5 13.5T609 231v363h236V217q0-45-13-87.5t-42-76T715.5 0 604-20z"/><glyph glyph-name="odieresis.sc" horiz-adv-x="726" d="M696 299q0-77-27-136T596 63 490 1 363-20q-66 0-126.5 21T130 63 57 163 30 299q0 75 27 134t73 99 106.5 61T363 614q67 0 127-21t106-61 73-99 27-134zM363 412q-24 0-43.5-9t-34-24.5-22-36T256 300q0-24 7.5-44.5t22-36.5 34-25 43.5-9 43.5 9 34 25 22 36.5T470 300q0 22-8 42.5t-22 36-33.5 24.5-43.5 9zm24 336q0 20 8 38t22 31.5 32 21.5 39 8q20 0 38-8t31.5-21.5T579 786t8-38q0-21-8-38.5t-21.5-31-31.5-21-38-7.5q-42 0-71.5 28T387 748zm-249 0q0 20 8 38t22 31.5 32 21.5 39 8q20 0 38-8t31.5-21.5T330 786t8-38q0-21-8-38.5t-21.5-31-31.5-21-38-7.5q-42 0-71.5 28T138 748z"/><glyph glyph-name="cent.sc" horiz-adv-x="640" d="M321-13q-54 8-98.5 31t-77 58.5-50 82.5T78 263q0 55 18 102t50 82.5 76.5 58.5 98.5 32v64h109v-61q45-4 85-18.5t64-33.5L464 323q-12 14-31.5 21.5T395 352q-17 0-33-5.5t-28.5-17-20.5-28-8-38.5 8-38.5 20.5-27 28.5-16 33-5.5q20 0 39 7.5t31 20.5L581 42q-26-21-66-36.5T430-15v-57H321v59z"/><glyph glyph-name="lslash.sc" horiz-adv-x="499" d="M61 147L6 105v190l55 42v257h228V493l96 73V377l-96-73V184h190V0H61v147z"/><glyph glyph-name="ordfeminine.sc" horiz-adv-x="390" d="M128 722h138l111-291H249l-13 42h-81l-14-42H15zm68-103l-25-75h49z"/><glyph glyph-name="s.sc" horiz-adv-x="571" d="M542 189q0-59-25.5-99t-64-64.5-84.5-35T281-20q-76 0-150 22T4 65l126 147q27-25 63.5-40t70.5-15q14 0 25.5 4.5T301 180t-20 24-71 22q-28 6-57.5 18.5t-54 33.5T58 329.5 42 402q0 58 25.5 98t63.5 65.5 83.5 37T301 614q68 0 135-20t121-56L436 393q-28 18-57 28t-57 10q-19 0-31.5-5T278 407q0-6 2.5-10t11-8 23.5-8.5 40-9.5q35-7 68.5-20.5t60-35T526 263t16-74z"/><glyph glyph-name="two.onum" horiz-adv-x="660" d="M102 192q66 31 114.5 56t80 46.5T343 335t15 39q0 26-15.5 39T304 426q-28 0-47.5-18T229 365L33 424q15 41 39.5 75.5t60 60 82.5 40T322 614q44 0 93-9t90.5-32 68.5-64.5T601 403q0-45-16.5-79t-42-59.5-55-44T431 190l-17-8v-2h199V0H53v169z"/><glyph glyph-name="b.sc" horiz-adv-x="636" d="M340 594q42 0 84.5-5.5t76.5-22 55.5-47.5 21.5-83q0-94-89-121v-4q53-8 84-43t31-96q0-49-20-82t-53.5-53-79-28.5T355 0H61v594h279zm-64-439h59q20 0 33.5 11t13.5 33q0 23-15 32.5t-35 9.5h-56v-86zm0 204h52q16 0 31 10t15 31q0 23-15 31.5t-31 8.5h-52v-81z"/><glyph glyph-name="scedilla.sc" horiz-adv-x="571" d="M248-240q-16 0-33.5 1.5T179-234t-34.5 7.5T115-217l34 78q17-8 41.5-12t43.5-4q15 0 27.5 4.5T274-134q0 11-11.5 14.5T237-116q-23 0-41-6l-44 34 61 73Q153-7 99 13T4 65l126 147q27-25 63.5-40t70.5-15q14 0 25.5 4.5T301 180t-20 24-71 22q-28 6-57.5 18.5t-54 33.5T58 329.5 42 402q0 58 25.5 98t63.5 65.5 83.5 37T301 614q68 0 135-20t121-56L436 393q-28 18-57 28t-57 10q-19 0-31.5-5T278 407q0-6 2.5-10t11-8 23.5-8.5 40-9.5q35-7 68.5-20.5t60-35T526 263t16-74q0-51-19-87.5T473 40 404 1.5 328-17l-34-36q5 1 16 1 17 0 35-3.5T378-69t24.5-26.5T412-137q0-31-16.5-51t-41-31.5-53-16T248-240z"/><glyph glyph-name="emacron.sc" horiz-adv-x="543" d="M61 594h428V428H277v-52h199V223H277v-56h227V0H61v594zm33 183h360v-96H94v96z"/><glyph glyph-name="uacute.sc" horiz-adv-x="694" d="M345-20q-72 0-126.5 20t-91 55.5-55 83T54 241v353h236V262q0-77 58-77 27 0 42.5 19.5T406 262v332h234V241q0-55-18-102.5t-55-83T475 0 345-20zm-95 674l111 144h212L419 654H250z"/><glyph glyph-name="abreve.sc" horiz-adv-x="686" d="M222 594h246L696 0H451l-27 85H258L231 0H-10zm120-210l-49-154h97zm1 270q-33 0-64 6.5t-55.5 23-41 44.5-19.5 70h110q1-12 8.5-20t17.5-12 22-5.5 22-1.5 22 1.5 22.5 5.5 17.5 12 8 20h110q-3-42-19-70t-41-44.5-56-23-64-6.5z"/><glyph glyph-name="dcaron.sc" horiz-adv-x="689" d="M61 0v594h234q72 0 138-14t116.5-48 80-90.5T659 300q0-78-28.5-135t-76-93.5-110.5-54T312 0H61zm222 187h15q60 0 94 25.5t34 88.5q0 53-32 80.5T305 409h-22V187zm265 611L414 654H245L108 798h152l67-68 67 68h154z"/><glyph glyph-name="idotaccent.sc" horiz-adv-x="358" d="M61 594h236V0H61v594zm7 154q0 22 8.5 41t23.5 33.5 34.5 23T177 854q21 0 40.5-8.5t34-23 23-33.5 8.5-41-8.5-41-23-33.5-34-22.5-40.5-8q-23 0-42.5 8T100 673.5 76.5 707 68 748z"/><glyph glyph-name="fi.sc" horiz-adv-x="871" d="M287 362h174V200H288V0H61v594h424V428H287v-66zm287 232h236V0H574v594z"/><glyph glyph-name="otilde.sc" horiz-adv-x="726" d="M696 299q0-77-27-136T596 63 490 1 363-20q-66 0-126.5 21T130 63 57 163 30 299q0 75 27 134t73 99 106.5 61T363 614q67 0 127-21t106-61 73-99 27-134zM363 412q-24 0-43.5-9t-34-24.5-22-36T256 300q0-24 7.5-44.5t22-36.5 34-25 43.5-9 43.5 9 34 25 22 36.5T470 300q0 22-8 42.5t-22 36-33.5 24.5-43.5 9zm188 378q-2-30-10-55t-22.5-44-35-29.5T437 651q-21 0-40.5 6T356 674q-24 13-36 17.5t-27 4.5q-16 0-25-10.5T256 660h-80q3 57 32 96.5t81 39.5q23 0 42-6.5t41-17.5q23-12 36-17t29-5 23.5 10 11.5 30h79z"/><glyph glyph-name="florin.sc" horiz-adv-x="640" d="M511 424q-11 10-21.5 13t-21.5 3q-12 0-22.5-8T430 399l-7-40h103V221H398L371 81q-7-35-20.5-65T313-37t-60.5-36T163-86q-16 0-34 2t-35.5 6T60-67.5 32-53l60 155q12-10 23.5-12.5T135 87q16 0 26.5 10t15.5 36l17 88h-67v138h92l17 84q10 49 30 81.5t48 52 62 27.5 72 8q43 0 78-9t62-26l-77-153z"/><glyph glyph-name="r.sc" horiz-adv-x="642" d="M61 594h288q53 0 98.5-10t79-33 52.5-60 19-90q0-63-25-105.5T500 234L648 0H384l-95 202h-7V0H61v594zm221-251h39q24 0 40 12.5t16 38.5q0 23-14.5 33.5T327 438h-45v-95z"/><glyph glyph-name="rcaron.sc" horiz-adv-x="642" d="M61 594h288q53 0 98.5-10t79-33 52.5-60 19-90q0-63-25-105.5T500 234L648 0H384l-95 202h-7V0H61v594zm221-251h39q24 0 40 12.5t16 38.5q0 23-14.5 33.5T327 438h-45v-95zm257 455L405 654H236L99 798h152l67-68 67 68h154z"/><glyph glyph-name="edotaccent.sc" horiz-adv-x="543" d="M61 594h428V428H277v-52h199V223H277v-56h227V0H61v594zm107 154q0 22 8.5 41t23.5 33.5 34.5 23T277 854q21 0 40.5-8.5t34-23 23-33.5 8.5-41-8.5-41-23-33.5-34-22.5-40.5-8q-23 0-42.5 8T200 673.5 176.5 707t-8.5 41z"/><glyph glyph-name="umacron.sc" horiz-adv-x="694" d="M345-20q-72 0-126.5 20t-91 55.5-55 83T54 241v353h236V262q0-77 58-77 27 0 42.5 19.5T406 262v332h234V241q0-55-18-102.5t-55-83T475 0 345-20zM167 777h360v-96H167v96z"/><glyph glyph-name="questiondown.sc" horiz-adv-x="550" d="M148 299q36 16 36 41v9h197v-20q0-47-24.5-74T292 206l-11-6q-12-7-22-15.5T249 166q0-14 10-22.5t25-8.5q29 0 40 17.5t11 35.5l196-22q-6-50-28.5-85.5t-57.5-58T364.5-10 268-20q-41 0-81.5 8.5t-73 28.5-53 52.5T40 151q0 30 7.5 53T69 244t34 30.5 45 24.5zm131 312q52 0 86-32t34-83q0-24-9-45t-25-36-38-24-48-9-48 9-38 24-25 36-9 45q0 51 34 83t86 32z"/><glyph glyph-name="zero.onum" horiz-adv-x="746" d="M706 299q0-77-27-136T606 63 500 1 373-20q-66 0-126.5 21T140 63 67 163 40 299q0 75 27 134t73 99 106.5 61T373 614q67 0 127-21t106-61 73-99 27-134zM373 412q-24 0-43.5-9t-34-24.5-22-36T266 300q0-24 7.5-44.5t22-36.5 34-25 43.5-9 43.5 9 34 25 22 36.5T480 300q0 22-8 42.5t-22 36-33.5 24.5-43.5 9z"/><glyph glyph-name="tcommaaccent.sc" horiz-adv-x="529" d="M380 0H149v413H7v181h515V413H380V0zm-10-45l-93-195H113l68 195h189z"/><glyph glyph-name="ydieresis.sc" horiz-adv-x="632" d="M426 0H195v208L-20 594h262l77-198 77 198h256L426 208V0zm-81 748q0 20 8 38t22 31.5 32 21.5 39 8q20 0 38-8t31.5-21.5T537 786t8-38q0-21-8-38.5t-21.5-31-31.5-21-38-7.5q-42 0-71.5 28T345 748zm-249 0q0 20 8 38t22 31.5 32 21.5 39 8q20 0 38-8t31.5-21.5T288 786t8-38q0-21-8-38.5t-21.5-31-31.5-21-38-7.5q-42 0-71.5 28T96 748z"/><glyph glyph-name="ampersand.sc" horiz-adv-x="800" d="M479 28Q445 5 398.5-7.5T306-20q-60 0-108.5 12.5t-83 37-53.5 60T42 172q0 60 34 100.5t89 59.5q-53 42-53 109 0 37 16.5 68.5t47 55T249 601t96 13 94.5-12.5 70-34.5 43.5-52.5 15-66.5q0-56-33-93t-90-60l40-35 45 52h256L621 143 781 0H507zM344 478q-17 0-28-12.5T305 439q0-25 31-47 26 7 36.5 19t10.5 26q0 17-10.5 29T344 478zm-65-252q-13-4-22.5-15t-9.5-25q0-12 5.5-20t13.5-13.5 17-7.5 16-2q31 0 49 16z"/><glyph glyph-name="percent.sc" horiz-adv-x="850" d="M203 283q-33 0-63.5 12t-54 33.5-37 52T35 448t13.5 67.5 37 52 54 33T203 612q34 0 64.5-11.5t54-33 37-52T372 448t-13.5-67.5-37-52-54-33.5-64.5-12zm0 116q21 0 36 13.5t15 36.5-15 36.5-36 13.5q-20 0-35.5-13.5T152 449t15.5-36.5T203 399zM648-17q-33 0-63.5 12t-54 33.5-37 52T480 148t13.5 67.5 37 52 54 33T648 312q34 0 64.5-11.5t54-33 37-52T817 148t-13.5-67.5-37-52-54-33.5T648-17zm0 116q21 0 36 13.5t15 36.5-15 36.5-36 13.5q-20 0-35.5-13.5T597 149t15.5-36.5T648 99zM199 17l344 592 93-54L291-37z"/><glyph glyph-name="dollar.sc" horiz-adv-x="640" d="M279 646h97v-53q54-6 105-23.5t93-46.5L459 387q-26 17-53.5 26.5T352 423q-17 0-29.5-5T310 399q0-5 2.5-9t10.5-7.5 22-8 38-9.5q33-6 64.5-18.5t56.5-33 40-50 15-69.5q0-46-17-79.5t-44.5-57-62-36.5T366 2v-64h-98V0q-60 6-116.5 26T53 78l118 138q26-23 60.5-37.5T298 164q12 0 23.5 4.5T333 186q0 14-19.5 23T246 229q-26 6-53.5 18T142 278.5t-38 48T89 395q0 45 17 79t44 58 61 38 68 20v56z"/><glyph glyph-name="exclam.sc" horiz-adv-x="420" d="M210-17q-52 0-86 32T90 98q0 24 9 45t25 36 38 24 48 9 48-9 38-24 25-36 9-45q0-51-34-83t-86-32zM93 594h234V251H93v343z"/></font>
</defs>
</svg>
