<svg><defs><font id="AvenirNext-MediumItalic" horiz-adv-x="250"><font-face font-family="Avenir Next Medium" font-weight="500" font-style="italic" panose-1="2 11 6 3 2 2 2 9 2 4" ascent="800" descent="-200" x-height="474" cap-height="708" bbox="-418 -427 1422 1199" underline-thickness="50" underline-position="-50" unicode-range="U+000D-U+FE48"/><glyph glyph-name="IJ" unicode="IJ" horiz-adv-x="759" d="M130 0H32l125 708h98zm210 155q5-36 29-61.5T434 68q34 0 56.5 12t37 33 23 49 13.5 59l86 487h98l-87-492q-6-38-18.5-79T605 61.5t-65-57T437-18q-41 0-73.5 11t-56 31-38 46.5T251 129z"/><glyph glyph-name="ij" unicode="ij" horiz-adv-x="516" d="M121 0H29l83 474h93zm124 647q0-25-17-43t-42-18q-24 0-41.5 15T127 643t18.5 44.5T188 705t40.5-16 16.5-42zm-87-802q18-5 37-5 21 0 35 8t23 21.5 14 32 9 39.5l94 533h93L368-62q-6-35-16.5-67.5t-30-57-50.5-39-77-14.5q-13 0-28.5 2t-26.5 4zm344 802q0-25-17-43t-42-18q-24 0-41.5 15T384 643t18.5 44.5T445 705t40.5-16 16.5-42z"/><glyph glyph-name="napostrophe" unicode="&amp;quot;n" horiz-adv-x="601" d="M216 474q-2-14-4.5-37.5T206 397h2q26 41 66.5 65.5T366 487q78 0 118.5-41.5T525 341q0-25-4-48L469 0h-93l46 262q6 27 6 53 0 41-20 67t-72 26q-56 0-97-42.5T185 252L141 0H48l65 371q4 19 8.5 49t6.5 54h88zm-99 44H40l104 190h93z"/><glyph glyph-name="fl" unicode="fl" horiz-adv-x="572" d="M435 0h-92l133 756h92zM319 399H208L138 0H47l70 399H22l14 75h93l18 100q7 37 20.5 72t37 62 57.5 43.5 81 16.5q33 0 57-7l-20-80q-10 3-20.5 5t-23.5 2q-24 0-41-9.5T266.5 653t-18-37-10.5-43l-18-99h113z"/><glyph glyph-name="fi" unicode="fi" horiz-adv-x="573" d="M559 647q0-24-17-42.5T500 586q-24 0-41.5 15T441 643q0 26 18.5 44t42.5 18q23 0 40-16t17-42zM435 0h-92l83 474h93zm-55 681q-10 3-20.5 5t-23.5 2q-24 0-41-9.5T266.5 653t-18-36.5T238 574l-18-100h113l-14-75H208L138 0H47l71 399H22l14 75h93l18 100q7 37 20.5 72t37 62 57.5 43.5 81 16.5q32 0 57-7z"/><glyph glyph-name=".notdef" horiz-adv-x="512" d="M222 117v67h56v-67h-56zm3 117l-2 17q0 56 13 81 7 13 18 27.5t28 31.5q16 15 26 26.5t15 21 7 18 2 17.5q0 36-22.5 60.5T256 559t-53.5-22-28.5-73l-50 8q7 72 44 104.5t91 32.5 89-35.5 35-95.5q0-32-12.5-58.5T320 358q-37-33-43-52-6-20-6-72h-46zM462 50v617H50V50h412zm50 668V0H0v718h512z"/><glyph glyph-name=".null" horiz-adv-x="500"/><glyph glyph-name=".null" horiz-adv-x="500"/><glyph glyph-name="nonmarkingreturn" horiz-adv-x="0"/><glyph glyph-name="space"/><glyph glyph-name="exclam" unicode="!" horiz-adv-x="287" d="M173 207H78l89 501h95zm-3-146q0-26-19-46T106-5 61 11.5 42 57t20 47.5 46 18.5 44-16.5T170 61z"/><glyph glyph-name="quotedbl" unicode="&amp;quot;" horiz-adv-x="425" d="M349 459h-80l44 249h80zm-160 0h-81l45 249h80z"/><glyph glyph-name="numbersign" unicode="#" horiz-adv-x="573" d="M120 211H24l13 72h105l45 143H89l12 72h109l67 210h74l-67-210h118l67 210h74l-67-210h90l-12-72H453l-45-143h93l-12-72H387L319 0h-74l68 211H194L127 0H53zm96 72h119l45 143H261z"/><glyph glyph-name="dollar" unicode="$" horiz-adv-x="595" d="M485 580q-16 23-43.5 40T376 639l-43-240q36-14 67-31t54-39.5 36-51.5 13-68q0-40-14.5-78T444 63t-75.5-50T261-11l-13-73h-46l13 73Q155-8 99.5 18.5T14 95l79 54q18-32 54.5-55T229 69l45 255q-32 11-62.5 26T158 387t-37 51-14 67q0 44 16 82.5t46 67 74 46T343 720l13 72h46l-13-72q57-5 101-26.5t70-56.5zm-156 59q-25-2-48-10t-41-23-28.5-37-10.5-52q0-41 23-64t65-39zm78-441q0 44-25.5 69T317 309L275 69q58 3 95 38.5t37 90.5z"/><glyph glyph-name="percent" unicode="%" horiz-adv-x="868" d="M415 574q0-44-15-81.5t-41.5-66-63-44.5-80.5-16q-34 0-63 11t-50 31-33 47-12 60q0 43 15 80t42 65 64 44 81 16q34 0 63-10.5t49.5-30 32-46T415 574zm-89-14q0 32-20.5 54.5T250 637q-45 0-73.5-32T148 525q0-32 19.5-54t54.5-22q46 0 75 32t29 79zm487-364q0-44-15-81.5t-41.5-66-63-44.5T613-12q-34 0-63 11t-50 31-33 47-12 60q0 43 15 80t42 65 64 44 81 16q34 0 63-10.5t49.5-30 32-46T813 196zm-89-14q0 32-20.5 54.5T648 259q-45 0-73.5-32T546 147q0-32 19.5-54T620 71q46 0 75 32t29 79zM180-40L120 2l564 739 59-42z"/><glyph glyph-name="ampersand" unicode="&amp;" horiz-adv-x="722" d="M517 168L656 0H537l-75 97q-55-59-109.5-84.5T236-13q-46 0-85 11.5T84 33 40.5 90 25 170q0 44 17.5 80t45 63.5 63 48.5 71.5 35q-23 30-36.5 66.5T172 538q0 42 14 76.5t39 59.5 59.5 38.5T359 726q37 0 68.5-10.5t55-30.5 36.5-49 13-66q0-34-13.5-63t-38-53-58.5-44.5-74-37.5l114-142 105 149h113zm-76 397q0 38-21.5 61.5T360 650q-45 0-72.5-30T260 544q0-32 14-63t32-51q28 11 52.5 25t43 30.5 29 36.5 10.5 43zM268 335q-29-11-55-25.5T167 276t-31.5-43.5T124 176q0-24 9.5-44T159 98t37.5-21.5T243 69q49 0 87.5 23.5T406 161z"/><glyph glyph-name="quotesingle" unicode="'" horiz-adv-x="265" d="M152 708h81l-44-249h-81z"/><glyph glyph-name="parenleft" unicode="(" horiz-adv-x="315" d="M104 172q0-81 17.5-156.5T172-121l-71-35Q63-91 41.5-6T20 171q0 154 62.5 298T256 733l59-43q-49-55-88-117.5t-66.5-129-42-135.5T104 172z"/><glyph glyph-name="parenright" unicode=")" horiz-adv-x="315" d="M209 405q0 81-18 156.5T141 698l71 35q38-65 59.5-150T293 406q0-154-62.5-298T57-156l-59 43Q47-58 86 4.5t66.5 129 42 135.5T209 405z"/><glyph glyph-name="asterisk" unicode="*" horiz-adv-x="453" d="M431 620l27-76-127-41 81-109-64-48-84 113-84-113-64 48 81 109-127 41 27 76 127-41v129h80V579z"/><glyph glyph-name="plus" unicode="+" horiz-adv-x="666" d="M374 344h222v-82H374V40h-82v222H70v82h222v222h82V344z"/><glyph glyph-name="comma" unicode="," horiz-adv-x="260" d="M36-133h-79L70 116h93z"/><glyph glyph-name="hyphen" unicode="-" horiz-adv-x="320" d="M258 205H26l14 79h232z"/><glyph glyph-name="period" unicode="." horiz-adv-x="260" d="M145 61q0-26-18.5-46T81-5Q55-5 36.5 11.5T18 57t20 47.5T84 123t43.5-16.5T145 61z"/><glyph glyph-name="slash" unicode="/" horiz-adv-x="379" d="M9-33L-57-8l440 749 64-25z"/><glyph glyph-name="zero" unicode="0" horiz-adv-x="595" d="M363 726q53 0 90-19.5t60.5-52.5 34.5-77.5 11-93.5q0-51-7-108t-22.5-112.5T490 156t-58-89.5T353 5 251-18q-53 0-90.5 19T99 52t-35 75.5T53 221q0 52 7 109.5T82.5 444t40 107 59 90 79.5 62 102 23zm-8-80q-45 0-83-36t-65-94.5-42-132T150 235q0-35 5.5-66t18-54.5T207 77t51-14q45 0 82 36t63.5 94T445 324.5 460 473q0 35-5 66.5t-17.5 55T405 632t-50 14z"/><glyph glyph-name="one" unicode="1" horiz-adv-x="595" d="M324 0h-95l105 593-155-113-45 71 225 157h90z"/><glyph glyph-name="two" unicode="2" horiz-adv-x="595" d="M469 0H8l16 92 327 279q55 46 81.5 84.5T459 541q0 49-32.5 76.5T343 645q-57 0-94.5-32.5T195 527l-88 22q28 83 91 130t150 47q45 0 83-12.5t66-35.5 43.5-56 15.5-74-10.5-73-30-60-48.5-55-65-57L143 86h341z"/><glyph glyph-name="three" unicode="3" horiz-adv-x="595" d="M231 409h33q88 0 132 36t44 104q0 45-30 71t-78 26q-91 0-136-83l-74 43q38 61 93 90.5T339 726q40 0 75.5-11.5t62.5-34 42.5-55T535 551q0-72-41-118t-108-63v-2q51-12 83.5-52.5T502 219q0-54-18.5-97.5T431 47 350-1 246-18q-83 0-141.5 40T24 133l91 30q11-48 48.5-73.5T252 64q71 0 111.5 39.5T404 209q0 33-12.5 56T358 303t-49.5 21.5T248 331h-31z"/><glyph glyph-name="four" unicode="4" horiz-adv-x="595" d="M438 242h103l-15-83H425L398 0h-92l27 159H6l16 92 375 457h124zm-26 363h-3L118 242h229z"/><glyph glyph-name="five" unicode="5" horiz-adv-x="595" d="M526 624H251l-39-187q18 6 39.5 9t43.5 3q42 0 80-13t67.5-38.5 47-62.5 17.5-86q0-60-19.5-109.5t-55-84.5T348 1 240-18q-83 0-140.5 39T21 118l87 36q14-41 48.5-65.5T239 64q41 0 72.5 13t53 36.5T397 168t11 67q0 33-11.5 58.5t-31 43.5-46 27-57.5 9q-38 0-80.5-11.5T106 331l75 377h361z"/><glyph glyph-name="six" unicode="6" horiz-adv-x="595" d="M519 241q0-55-19-102t-53.5-82-84-55T252-18q-48 0-89 15T92 39.5t-46.5 66T29 190q0 53 24.5 105.5T130 411l241 297h115L243 420l1-3q14 8 32.5 12.5T315 434q47 0 85-15t64.5-41 40.5-61 14-76zm-96-8q0 28-9.5 51.5t-26 40.5-39 26.5T299 361q-39 0-71-13t-55-36-35.5-54.5T125 190q0-28 10-51.5t27.5-41 41-27T255 61q39 0 70 13t52.5 36 33.5 54.5 12 68.5z"/><glyph glyph-name="seven" unicode="7" horiz-adv-x="595" d="M570 621L166 0H50l418 623H125l15 85h445z"/><glyph glyph-name="eight" unicode="8" horiz-adv-x="595" d="M549 556q0-38-12-68t-32-53-45.5-39-53.5-25l1-2q47-14 78-54t31-95q0-57-21-101t-56-74.5T356.5-2 257-18q-39 0-77 11t-68 34-48.5 58.5T45 171q0 42 14 76.5T97 309t55 44.5 66 24.5v3q-39 17-63.5 52T130 514q0 49 18 88.5t49 67 72 42 87 14.5q39 0 74-10.5t61.5-31.5 42-53 15.5-75zm-91-14q0 51-30 77.5T349 646q-29 0-53-10.5T255 607t-26.5-41.5T219 515q0-42 28-71.5t76-29.5q29 0 54 10.5t43 28.5 28 41 10 48zm-35-324q0 51-33 83.5T303 334q-36 0-66-11.5T185 290t-34.5-49-12.5-61q0-57 35.5-87.5T261 62q39 0 69 12t50.5 33 31.5 49.5 11 61.5z"/><glyph glyph-name="nine" unicode="9" horiz-adv-x="595" d="M581 518q0-53-24.5-105.5T480 297L239 0H124l243 288-1 3q-7-4-15.5-7t-17.5-5q-20-5-38-5-47 0-85 15t-64.5 41-40.5 61-14 76q0 55 19 102t53.5 82 84 55T358 726q48 0 89-15t71-42.5 46.5-66T581 518zm-95 0q0 28-10 51.5t-27.5 41-41.5 27-52 9.5q-39 0-70-13t-53-36-34-54.5-12-68.5q0-28 9.5-51.5t26-40.5 39.5-26.5 50-9.5q39 0 71 13t55 36 36 54.5 13 67.5z"/><glyph glyph-name="colon" unicode=":" horiz-adv-x="300" d="M170 61q0-26-19-46T106-5 61 11.5 42 57t20 47.5 46 18.5 44-16.5T170 61zm57 356q0-26-18.5-46T163 351q-26 0-44.5 16.5T100 413t20 48 46 19 43.5-17 17.5-46z"/><glyph glyph-name="semicolon" unicode=";" horiz-adv-x="300" d="M53-133h-82L83 116h97zm174 550q0-26-18.5-46T163 351q-26 0-44.5 16.5T100 413t20 48 46 19 43.5-17 17.5-46z"/><glyph glyph-name="less" unicode="&amp;lt;" horiz-adv-x="666" d="M589 479L204 303l383-176V42L79 273v60l510 231v-85z"/><glyph glyph-name="equal" unicode="=" horiz-adv-x="666" d="M596 426v-81H70v81h526zm0-165v-81H70v81h526z"/><glyph glyph-name="greater" unicode="&amp;gt;" horiz-adv-x="666" d="M79 564l508-231v-60L79 42v85l383 176L79 479v85z"/><glyph glyph-name="question" unicode="?" horiz-adv-x="500" d="M281 200h-92l8 49q8 53 32 86t64 64l43 34q29 22 52 48.5t23 67.5q0 42-25.5 65.5T315 638q-56 0-89-33t-43-78l-89 16q9 39 29.5 72t50.5 57 67.5 37.5T322 723q38 0 72-9.5t59.5-29.5 40.5-52.5 15-77.5q0-62-33.5-105T384 366l-40-30.5-28.5-28-18.5-32-11-42.5zm5-139q0-26-19-46T222-5t-44.5 16.5T159 57t19.5 47.5T224 123t44-16.5T286 61z"/><glyph glyph-name="at" unicode="@" horiz-adv-x="800" d="M788 449q0-58-16.5-110.5t-46.5-92-72.5-63T558 160q-43 0-65 21t-16 50h-4q-8-12-20.5-24.5t-29-23-36.5-17-42-6.5q-63 0-95.5 33.5T217 283q0 41 15.5 87.5t45 86.5 72.5 66 98 26q38 0 65.5-16.5T546 491h2l17 43h75l-73-187q-3-7-6.5-17.5l-7.5-22-6.5-23L544 266q0-20 8-29t29-9q28 0 52 18.5t41 49 27 68.5 10 77q0 51-18 90.5T643 599t-76.5 42.5T469 656q-78 0-142-29t-109.5-78.5-71-115.5T121 294q0-56 19-101t54.5-76.5 85-48.5T391 51q80 0 144 26t120 73l36-53q-62-57-140.5-86T381-18q-81 0-145.5 23T127 69t-67.5 97.5T36 291q0 88 32.5 167.5t90 138.5 137 94T470 726q70 0 128.5-18.5t100.5-54 65.5-87T788 449zm-285-38q0 28-13 48t-49 20q-26 0-50.5-15t-44-40.5-31.5-58-12-68.5q0-25 12.5-46t47.5-21q30 0 55.5 17t44 43 29.5 58.5 11 62.5z"/><glyph glyph-name="A" unicode="A" horiz-adv-x="681" d="M47 0H-68l459 708h89L624 0H521l-34 174H155zm159 261h267l-60 336z"/><glyph glyph-name="B" unicode="B" horiz-adv-x="633" d="M157 708h226q37 0 73.5-8t66-26.5 48-48T589 553q0-71-43-117.5T433 372v-2q58-9 95-48.5T565 219q0-54-22.5-95T480 55.5 384.5 14 263 0H32zm43-300h137q25 0 51.5 6.5t49 21 37 38T489 532q0 25-10 43t-27.5 29-41.5 16.5-52 5.5H239zM143 83h129q38 0 73 7.5t62 24 43 43.5 16 66q0 48-36.5 75T326 326H186z"/><glyph glyph-name="C" unicode="C" horiz-adv-x="700" d="M652 111q-21-27-49-50.5t-63-41T462.5-8 370-18q-71 0-129.5 22t-100 62T76 162 53 286q0 92 32.5 172T175 597.5t133.5 94T473 726q39 0 75.5-8t67.5-22.5 56-34.5 40-45l-81-59q-8 15-22 30t-34.5 27.5-46.5 20-58 7.5q-69 0-127-29.5T243 535t-65-110-23-127q0-48 14.5-90t43-73.5T283 85t96-18q59 0 112 24t95 75z"/><glyph glyph-name="D" unicode="D" horiz-adv-x="757" d="M157 708h229q60 0 119-16.5t106-52 76-92T716 412q0-93-32.5-169T593 113 456 29.5 284 0H32zM144 86h145q80 0 140.5 26.5T531 183t61.5 100.5T613 400q0 46-15 86.5t-45.5 71-78 48.5T362 624H239z"/><glyph glyph-name="E" unicode="E" horiz-adv-x="582" d="M144 87h367L496 0H32l125 708h436l-15-86H238l-37-214h324l-15-83H186z"/><glyph glyph-name="F" unicode="F" horiz-adv-x="553" d="M130 0H32l125 708h428l-15-86H240l-40-221h309l-14-83H186z"/><glyph glyph-name="G" unicode="G" horiz-adv-x="755" d="M387 67q99 1 164 38l35 198H426l16 84h254L636 44Q578 13 511.5-2.5T375-18q-72 0-131.5 22t-102 62T76 162 53 286q0 92 32.5 172T175 597.5t133.5 94T473 726q78 0 143.5-28T717 616l-81-59q-20 33-61 59t-105 26q-69 0-127-29.5T243 535t-65-110-23-127q0-49 15.5-91.5t45-73.5T288 84.5 387 67z"/><glyph glyph-name="H" unicode="H" horiz-adv-x="719" d="M157 708h98l-53-297h350l53 297h98L578 0h-98l57 325H187L130 0H32z"/><glyph glyph-name="I" unicode="I" horiz-adv-x="271" d="M130 0H32l125 708h98z"/><glyph glyph-name="J" unicode="J" horiz-adv-x="491" d="M72 155q5-36 29-61.5T166 68q34 0 56.5 12t37 33 23 49 13.5 59l86 487h98l-87-492q-6-38-18.5-79T337 61.5t-65-57T169-18q-41 0-73.5 11t-56 31-38 46.5T-17 129z"/><glyph glyph-name="K" unicode="K" horiz-adv-x="621" d="M198 392h2l339 316h136L298 377 583 0H456L195 366h-2L129 0H32l125 708h97z"/><glyph glyph-name="L" unicode="L" horiz-adv-x="511" d="M144 87h317L447 0H32l125 708h98z"/><glyph glyph-name="M" unicode="M" horiz-adv-x="903" d="M423 162h1l310 546h152L762 0h-97l105 591h-3L426 0h-62L233 591h-2L126 0H32l125 708h151z"/><glyph glyph-name="N" unicode="N" horiz-adv-x="768" d="M541 138h2l100 570h98L616 0H494L234 582h-2L129 0H32l125 708h125z"/><glyph glyph-name="O" unicode="O" horiz-adv-x="831" d="M381-18q-74 0-134.5 21.5T143 65t-66.5 96.5T53 288q0 91 31.5 170.5t87 139 130.5 94T465 726q72 0 132-21.5T700 643t66.5-96T790 421q0-91-30.5-171T674 110.5t-130-94T381-18zm307 430q0 48-15 89.5t-44 73-71.5 49.5-97.5 18q-69 0-125.5-29.5t-96.5-78T176.5 424 155 297q0-47 15-89t43.5-73.5 71-49.5T383 67q70 0 126.5 29t96 77.5 61 110.5T688 412z"/><glyph glyph-name="P" unicode="P" horiz-adv-x="595" d="M157 708h202q110 0 169.5-47T588 530q0-56-20.5-97.5t-58-68.5-89.5-40-115-13H184L129 0H32zm41-315h112q82 0 131 30t49 96q0 30-10.5 50.5t-29.5 33-45.5 17.5-58.5 5H240z"/><glyph glyph-name="Q" unicode="Q" horiz-adv-x="827" d="M780 427q0-69-17-124.5t-44-98-61-72T590 85v-3h189L764 0H381q-70 0-130 19.5t-103.5 57-68.5 93T54 297q0 90 31 168t85.5 136T299 692.5 459 726q71 0 130-21t101.5-60 66-94.5T780 427zm-101-13q0 48-14.5 89.5t-43 72.5-69.5 48.5-95 17.5q-69 0-124.5-28.5T237 538t-61.5-106.5T154 309q0-50 15.5-91t45.5-70.5 73-46T385 85q61 0 114.5 27t93.5 72 63 104.5T679 414z"/><glyph glyph-name="R" unicode="R" horiz-adv-x="612" d="M129 0H32l125 708h201q52 0 95-11.5t73.5-34 47-55T590 532q0-46-15-81t-41-60.5-62-41.5-79-23L544 0H434L293 316H184zm69 397h109q38 0 71.5 6t58 20.5 39 38T490 521q0 56-39.5 80T343 625H239z"/><glyph glyph-name="S" unicode="S" horiz-adv-x="569" d="M481 580q-20 29-54 46.5T350 644q-25 0-51.5-7t-49-22.5-37-39.5-14.5-57q0-23 8.5-40t23.5-30 36-23.5 46-19.5q39-14 72.5-31.5t59-41 40-54T498 208q0-49-18.5-90.5t-53-71.5T343-1 233-18q-34 0-67.5 7T101 9.5t-56.5 34T2 92l82 55q20-35 60.5-58.5T237 65q30 0 58.5 8.5t50.5 25 35.5 41T395 197q0 27-11 47t-30 35-44 26.5-53 21.5q-31 12-60 27t-51 36-35 50-13 69q0 49 19.5 89.5T172 667t83 43.5T359 726q62 0 115.5-23t82.5-65z"/><glyph glyph-name="T" unicode="T" horiz-adv-x="535" d="M260 0h-98l110 622H48l15 86h544l-15-86H370z"/><glyph glyph-name="U" unicode="U" horiz-adv-x="712" d="M317-18q-63 0-109.5 17T130 46t-46.5 69.5T68 200q0 30 6 62l78 446h98l-78-440q-5-28-5-53 0-30 8-56.5t26.5-47T249 79t71-12q52 0 88 17t60 45.5 37.5 64.5 20.5 74l77 440h98l-78-446q-10-54-31.5-104.5t-58-89.5-90-62.5T317-18z"/><glyph glyph-name="V" unicode="V" horiz-adv-x="628" d="M260 127h3l343 581h107L282 0h-93L76 708h104z"/><glyph glyph-name="W" unicode="W" horiz-adv-x="982" d="M233 142h2l275 566h108l57-566h2l267 566h104L704 0H602l-61 572h-2L256 0H153L84 708h103z"/><glyph glyph-name="X" unicode="X" horiz-adv-x="622" d="M332 441l226 267h121L377 366 550 0H437L305 297 53 0H-74l334 375-156 333h111z"/><glyph glyph-name="Y" unicode="Y" horiz-adv-x="560" d="M268 0h-98l54 306L46 708h111l130-322 259 322h120L322 306z"/><glyph glyph-name="Z" unicode="Z" horiz-adv-x="580" d="M601 622L111 87h403L499 0H-33l15 86 493 536H108l15 86h494z"/><glyph glyph-name="bracketleft" unicode="[" horiz-adv-x="315" d="M299 666h-93L73-90h93l-12-66H-23l157 888h177z"/><glyph glyph-name="backslash" unicode="\" horiz-adv-x="380" d="M4 716l70 26L382-9l-71-24z"/><glyph glyph-name="bracketright" unicode="]" horiz-adv-x="315" d="M9-90h93l134 756h-93l11 66h177L174-156H-3z"/><glyph glyph-name="asciicircum" unicode="^" horiz-adv-x="666" d="M300 708h66l226-399h-91L332 609 165 309H74z"/><glyph glyph-name="underscore" unicode="_" horiz-adv-x="500" d="M-67-75h500l-9-50H-76z"/><glyph glyph-name="grave" unicode="`" d="M19 708h110l100-144h-73z"/><glyph glyph-name="a" unicode="a" horiz-adv-x="537" d="M370 296q2 14 3 22t1 15q0 42-26 60.5T274 412q-38 0-76-15t-66-37l-38 62q38 30 89 47.5T287 487q34 0 65.5-7.5t56-24T448 412t15-65q0-9-1-23.5t-3-24.5l-35-192q-5-28-8-57.5T413 0h-85q0 15 1.5 32t4.5 34h-2q-34-40-74-58t-94-18q-24 0-50 6T66.5 16.5 31 55t-14 60q0 58 32 93.5t82.5 55 113.5 26 125 6.5zm-25-68q-39 0-81-3.5t-76.5-14T131 180t-22-52q0-20 7.5-32.5t20-20.5 28-11 31.5-3q31 0 58 10.5t47 28.5 33.5 42 18.5 51l7 35h-15z"/><glyph glyph-name="b" unicode="b" horiz-adv-x="633" d="M133 80L119 0H30l133 756h93l-65-358h2q26 38 71.5 63.5T365 487q47 0 85-15t65-42 42-64.5 15-83.5q0-61-20-114.5T496 74t-85.5-63T303-12q-52 0-98.5 23.5T135 80h-2zm344 193q0 58-34 97.5T345 410q-40 0-74-16.5t-59.5-45-40-66.5-14.5-80q0-30 9.5-55.5T194 103t43-28.5T293 64q42 0 76 16.5t58 44.5 37 66 13 82z"/><glyph glyph-name="c" unicode="c" horiz-adv-x="496" d="M419 353q-12 24-40.5 40.5T315 410q-41 0-75.5-16.5t-59.5-45-39-66-14-79.5q0-29 8.5-54t25.5-43.5T203.5 76 263 65q45 0 76 16t54 41l56-52q-38-38-84.5-60.5T257-13q-51 0-92.5 15T94 44t-45 64.5T33 192q0 59 20.5 112.5t58 94T202 463t118 24q26 0 51.5-5t48-14.5 41-24.5 30.5-36z"/><glyph glyph-name="d" unicode="d" horiz-adv-x="628" d="M30 193q0 61 20 114.5t56 93.5 85.5 63T300 487q58 0 100.5-24t64.5-67h2l63 360h93L489 0h-90l13 76h-2q-26-39-72-63.5T237-12q-47 0-85 15T87 45t-42 64.5T30 193zm96 9q0-58 34-97.5T258 65q39 0 73.5 16.5t60 45 40 66.5 14.5 80q0 30-9.5 55.5T409 372t-43 28.5-56 10.5q-42 0-76-16.5T176 350t-37-66.5-13-81.5z"/><glyph glyph-name="e" unicode="e" horiz-adv-x="565" d="M122 209q-1-5-1-8.5V193q0-28 10.5-51.5t29-41 44-27T259 64q51 0 87.5 20.5T408 136l55-52q-42-48-96-72.5T250-13q-47 0-87.5 14t-70 41-46 66T30 197q0 59 21 112t58 92.5 88 62.5 110 23q91 0 144-49.5T504 299q0-14-2.5-40.5T494 209H122zm293 68q1 7 1.5 15t.5 15q0 46-30 76.5T300 414q-34 0-62-12t-49.5-31-36-44-20.5-50h283z"/><glyph glyph-name="f" unicode="f" horiz-adv-x="309" d="M319 399H208L138 0H47l70 399H22l14 75h93l18 100q7 37 20.5 72t37 62 57.5 43.5 81 16.5q33 0 57-7l-20-80q-10 3-20.5 5t-23.5 2q-24 0-41-9.5T266.5 653t-18-37-10.5-43l-18-99h113z"/><glyph glyph-name="g" unicode="g" horiz-adv-x="630" d="M51-83q26-35 69.5-55.5T214-159q47 0 80 13.5t55.5 37T385-53t21 69l12 63h-2q-29-39-73-61.5T245-5q-47 0-85 15.5T95 53t-41.5 65T39 201q0 59 20 111t56 91 85 61.5T308 487q58 0 101-24t62-66h3l13 77h90L498 23q-9-51-26.5-98.5t-50-84-83-58.5T213-240q-64 0-125.5 23.5T-11-150zm83 291q0-29 9-53.5t26-43.5 42-29.5T268 71q40 0 74 16.5t59 44 39 64.5 14 78q0 59-36.5 98T318 411q-41 0-75-15.5T185 353t-37.5-64-13.5-81z"/><glyph glyph-name="h" unicode="h" horiz-adv-x="581" d="M347 487q78 0 118-41.5T505 341q0-25-4-48L449 0h-93l46 262q6 27 6 53 0 41-20 67t-72 26q-57 0-97.5-42.5T165 251L121 0H28l133 756h93l-62-354h2q23 36 62.5 60.5T347 487z"/><glyph glyph-name="i" unicode="i" horiz-adv-x="259" d="M121 0H29l83 474h93zm124 647q0-25-17-43t-42-18q-24 0-41.5 15T127 643t18.5 44.5T188 705t40.5-16 16.5-42z"/><glyph glyph-name="j" unicode="j" horiz-adv-x="259" d="M-99-155q18-5 37-5 21 0 35 8t23 21.5 14 32T19-59l94 533h93L111-62q-6-35-16.5-67.5t-30-57-50.5-39-77-14.5q-13 0-28.5 2t-26.5 4zm344 802q0-25-17-43t-42-18q-24 0-41.5 15T127 643t18.5 44.5T188 705t40.5-16 16.5-42z"/><glyph glyph-name="k" unicode="k" horiz-adv-x="504" d="M169 267h3l228 207h123L267 254 462 0H345L168 246h-3L122 0H29l133 756h93z"/><glyph glyph-name="l" unicode="l" horiz-adv-x="260" d="M122 0H29l133 756h94z"/><glyph glyph-name="m" unicode="m" horiz-adv-x="884" d="M648 487q80 0 120.5-41.5T809 341q0-12-1.5-23.5T804 293L752 0h-92l46 262q2 14 3.5 27t1.5 26q0 41-20 67.5T620 409q-33 0-57.5-13.5T521 360t-27.5-49-15.5-55L433 0h-93l50 281q2 12 3.5 23t1.5 21q0 38-19 61t-64 23q-26 0-50-11.5t-43.5-32T185 316t-20-64L121 0H28l65 371q4 19 8.5 49t6.5 54h88q-2-14-5-38l-5-39h2q25 38 63.5 64t91.5 26q49 0 87.5-23.5T480 390q29 46 71.5 71.5T648 487z"/><glyph glyph-name="n" unicode="n" horiz-adv-x="581" d="M196 474q-2-14-4.5-37.5T186 397h2q26 41 66.5 65.5T346 487q78 0 118.5-41.5T505 341q0-25-4-48L449 0h-93l46 262q6 27 6 53 0 41-20 67t-72 26q-56 0-97-42.5T165 252L121 0H28l65 371q4 19 8.5 49t6.5 54h88z"/><glyph glyph-name="o" unicode="o" horiz-adv-x="600" d="M255-13q-49 0-90 15T94 44.5 47 110t-17 84q0 59 20.5 112t58 93.5 90 64T315 487q49 0 90-15t71-42 46.5-64.5T539 282q0-60-20.5-113.5t-58-94-89.5-64T255-13zm190 286q0 29-9.5 54t-27 43.5-43 29T309 410q-41 0-75-17t-58.5-45.5-38-66T124 202q0-60 36-98.5T260 65q41 0 75 16.5t58.5 45 38 66.5 13.5 80z"/><glyph glyph-name="p" unicode="p" horiz-adv-x="632" d="M191 398q26 38 72 63t101 25q47 0 85-15t65-42 42-64.5 15-83.5q0-61-20.5-114.5T494 73t-85.5-63T301-13 200.5 11 136 77h-2L79-240h-93l126 714h90l-13-76h2zm284-126q0 58-34 97.5T343 409q-39 0-73.5-16.5t-60-45-40-66.5-14.5-80q0-30 9.5-55.5T192 102t43.5-28.5T292 63q41 0 75 16.5t58 44.5 37 66 13 82z"/><glyph glyph-name="q" unicode="q" horiz-adv-x="626" d="M30 193q0 61 20 114.5t56 93.5 85.5 63T300 487q52 0 98-24t69-69h2l14 80h90L447-240h-93l58 316h-2q-26-39-72-63.5T237-12q-47 0-85 15T87 45t-42 64.5T30 193zm96 9q0-58 34-97.5T258 65q39 0 73.5 16.5t60 45 40 66.5 14.5 80q0 30-9.5 55.5T409 372t-43 28.5-56 10.5q-42 0-76-16.5T176 350t-37-66.5-13-81.5z"/><glyph glyph-name="r" unicode="r" horiz-adv-x="343" d="M92 371q4 19 8.5 49t6.5 54h88q-1-7-2-17.5t-2.5-22l-3-22L185 394h2q25 42 62.5 67.5T335 487q22 0 37-4l-16-87q-20 5-41 5-34 0-60-12.5T210 355t-30.5-48.5T163 249L119 0H27l65 371z"/><glyph glyph-name="s" unicode="s" horiz-adv-x="444" d="M347 360q-14 23-38 38t-62 15q-17 0-34-3.5t-31.5-11T158 378t-9-31q0-30 22-43t63-24q68-20 104.5-51.5T375 139q0-39-17-68t-44.5-48T251-5.5 180-15q-68 0-117.5 25T-14 78l75 49q16-29 47.5-47T180 62q42 0 73 17.5t31 52.5q0 31-24.5 47T186 211q-28 9-51 19t-40 25-26.5 35-9.5 49q0 35 16 62.5t43 46.5 62.5 29 73.5 10q55 0 99-21t66-59z"/><glyph glyph-name="t" unicode="t" horiz-adv-x="324" d="M315 398H198l-45-249q-3-17-3-30 0-30 15.5-40.5T207 68q14 0 28 3t23 8l-7-74q-14-6-34.5-9.5T176-8q-55 0-87.5 24.5T56 94q0 11 1 23t3 24l46 257H16l14 76h89l23 136h92l-24-136h119z"/><glyph glyph-name="u" unicode="u" horiz-adv-x="581" d="M352 0q2 14 5 37.5l5 39.5h-2q-26-41-66.5-65.5T202-13q-78 0-118.5 41.5T43 134q0 11 1.5 23t3.5 24l52 293h92l-46-261q-2-14-3.5-27.5T141 159q0-41 20-67t71-26q56 0 97.5 42.5T383 222l45 252h92l-65-371q-4-19-8.5-49T440 0h-88z"/><glyph glyph-name="v" unicode="v" horiz-adv-x="490" d="M227 0h-99L32 474h96l66-374h2l216 374h99z"/><glyph glyph-name="w" unicode="w" horiz-adv-x="759" d="M137 474l33-362h2l185 362h93l47-362h3l180 362h98L528 0h-96l-48 359h-2L195 0H99L40 474h97z"/><glyph glyph-name="x" unicode="x" horiz-adv-x="489" d="M315 0l-94 185L51 0H-66l244 251L55 474h101l84-167 152 167h113L284 244 421 0H315z"/><glyph glyph-name="y" unicode="y" horiz-adv-x="495" d="M207 101h2l210 373h100L172-112q-18-30-35-53.5t-37-40T56-231t-54-9q-31 0-59 7l13 82q22-8 44-8 32 0 53 20.5T97-80l47 80L40 474h99z"/><glyph glyph-name="z" unicode="z" horiz-adv-x="461" d="M437 398L109 78h279L375 0H-21l13 76 327 322H65l14 76h371z"/><glyph glyph-name="braceleft" unicode="{" horiz-adv-x="315" d="M12 325q30 0 55.5 21t33.5 69l34 188q6 34 20 58.5t33 40.5 41.5 23 45.5 7h68l-12-69h-51q-17 0-28-6.5t-18.5-17-11.5-23-6-25.5l-32-183q-6-33-20.5-55T132 317.5 97.5 297 70 289v-2q9-1 21.5-5.5t24-14.5 20-27 8.5-43q0-14-3-32L110-15q-3-15-3-30 0-17 9-29.5T148-87h51l-12-69h-68q-41 0-70 23T20-57q0 13 3 30l33 184q3 15 3 28 0 35-17.5 50.5T-2 251z"/><glyph glyph-name="bar" unicode="|" horiz-adv-x="222" d="M152 750V-250H70V750h82z"/><glyph glyph-name="braceright" unicode="}" horiz-adv-x="315" d="M305 251q-30 0-55.5-21T216 161L182-27q-6-35-20-59t-33-40-41.5-23-45.5-7h-68l12 69h51q16 0 27.5 6.5t19 17 11.5 23 6 25.5l32 183q6 33 20.5 55t31.5 35.5 34 20 28 8.5v2q-9 1-21.5 5.5t-24 14.5-20 27-8.5 43q0 14 3 32l31 180q3 15 3 30 0 17-9 29.5T169 663h-51l12 69h68q41 0 70-23.5t29-75.5q0-14-3-30l-33-184q-3-15-3-28 0-35 17.5-50.5T319 325z"/><glyph glyph-name="asciitilde" unicode="~" horiz-adv-x="666" d="M340 346q19-12 33-20t25-12 20.5-5.5T439 307q50 0 87 68l59-55q-18-29-36-48t-36.5-30-36.5-15-35-4q-29 0-55 8t-61 30q-19 12-32.5 19.5T268 292t-20.5 5.5T227 299q-50 0-87-68l-59 55q35 58 72.5 78t71.5 20q30 0 55.5-8t59.5-30z"/><glyph glyph-name="uni00A0"/><glyph glyph-name="exclamdown" unicode="¡" horiz-adv-x="287" d="M90 280h95L97-221H2zm4 146q0 27 18.5 46.5T158 492q26 0 44.5-16.5T221 430t-19.5-47.5T156 364t-44 16.5T94 426z"/><glyph glyph-name="cent" unicode="¢" horiz-adv-x="595" d="M246-9Q165 4 117.5 57.5T70 192q0 56 18.5 107.5t53 91 83 65T333 486l11 63h51l-11-64q45-4 84-23t61-55l-72-54q-11 21-34 36.5T371 409L310 65q41 2 69.5 18t51.5 39l55-52q-37-37-83.5-59.5T296-13l-11-65h-51zm74 417q-35-5-63.5-23.5t-49-46.5-32-63-11.5-72q0-48 23-86t73-48z"/><glyph glyph-name="sterling" unicode="£" horiz-adv-x="595" d="M428 326H262L219 82h264L468 0H9l15 82h100l42 244H69l13 71h95l16 88q7 37 22.5 79.5t44 78.5 72.5 59.5T440 726q49 0 89-15t66-43l-58-66q-16 20-42 32.5T436 647q-41 0-67.5-17.5t-43-43T300 532t-13-53l-14-82h168z"/><glyph glyph-name="currency" unicode="¤" horiz-adv-x="595" d="M491 420q21-29 32-64t11-77-12.5-79-32.5-66l84-85-51-52-87 85q-28-20-63-31t-76-11q-38 0-74 12t-65 32L69-3 17 49l86 88q-19 28-31 64.5T60 279q0 42 10.5 76t29.5 63l-83 84 52 51 84-82q29 20 65.5 32.5T296 516q42 0 78-12.5t64-32.5l83 82 52-51zm-195 17q-35 0-63-12.5t-48-34-30.5-50T144 279t10.5-61.5T185 167t48-34.5 63-12.5 63.5 12.5T408 167t30.5 50.5T449 279t-10.5 61.5-30.5 50-48.5 34T296 437z"/><glyph glyph-name="yen" unicode="¥" horiz-adv-x="595" d="M237 228l16 92H83l11 65h150L94 708h104l120-294 217 294h109L386 385h142l-11-65H345l-17-92h172l-11-65H318L289 0h-91l29 163H56l10 65h171z"/><glyph glyph-name="brokenbar" unicode="¦" horiz-adv-x="222" d="M152 675V325H70v350h82zm0-500v-350H70v350h82z"/><glyph glyph-name="section" unicode="§" horiz-adv-x="583" d="M478 588q-19 29-48 43t-63 14q-50 0-82.5-24.5T252 552q0-18 6-32t19-25 33-21 48-22q34-14 60.5-29.5t45-34 28-42T501 293q0-61-32.5-97T388 142q21-19 33.5-43.5T434 46q0-46-17.5-81T369-93.5 300-129t-82-12q-31 0-62.5 7.5T96-112 46-78.5 12-34l79 50q17-38 54-57t72-19q23 0 44.5 5t38 16 26 28.5T335 31q0 19-6.5 34T308 92.5t-36.5 24T218 140q-66 26-101.5 60T81 293q0 55 34 95t89 56q-21 14-35 39.5T155 541q0 42 17 76t46.5 57.5 68.5 36 83 12.5q61 0 109-21t72-59zm-67-311q0 18-6 32.5T388.5 335 365 354t-28 15l-72 34q-17-3-34-10.5T201 373t-21-28.5-8-36.5q0-37 22-55.5t57-34.5l79-34q33 8 57 32t24 61z"/><glyph glyph-name="dieresis" unicode="¨" d="M143 647q0-25-16.5-42.5T85 587t-42 15-17 42 18.5 44T87 705t40-15.5 16-42.5zm198 0q0-25-16.5-42.5T282 587q-24 0-41 15t-17 42 18 44 43 17q24 0 40-15.5t16-42.5z"/><glyph glyph-name="copyright" unicode="©" horiz-adv-x="800" d="M20 353q0 79 30 147.5T131.5 620t121 80.5T401 730q78 0 147-29.5T668.5 620 750 500.5 780 353q0-78-30-146.5T668.5 87 548 7 401-22q-79 0-148.5 29t-121 80T50 206.5 20 353zm60 0q0-66 25.5-124t69-101.5 102-68.5T401 34t124 25 101.5 68.5T695 229t25 124-25 124.5-68.5 102-101.5 69T401 674t-124.5-25.5-102-69-69-102T80 353zm435 120q-17 23-44.5 33.5T417 517q-33 0-60.5-12t-47-33-30.5-50-11-62q0-71 39.5-115T414 201q35 0 61.5 13.5T519 251l61-43q-29-36-70.5-56T413 132q-50 0-92.5 16.5t-73 46.5-47.5 72-17 93q0 52 18 93.5t49.5 70.5 74 45 92.5 16q21 0 43-4t43-12 39-20.5 31-29.5z"/><glyph glyph-name="ordfeminine" unicode="ª" horiz-adv-x="380" d="M353 637q0-8-1-16t-2-15l-20-110q-3-17-4-35t-1-30h-56q0 19 4 39h-2q-16-21-39-33.5T177 424q-37 0-66 19.5T82 502q0 33 16 54t44 33 66 16.5 81 4.5q0 4 1 8.5t1 8.5q0 23-14 32.5t-40 9.5q-20 0-42-8.5T156 638l-27 43q27 21 58.5 31t58.5 10q49 0 78-22.5t29-62.5zm-78-73q-21 0-44-2t-41.5-7.5-31-16T146 511q0-22 15.5-29.5T194 474q35 0 56.5 21t28.5 51l4 18h-8z"/><glyph glyph-name="guillemotleft" unicode="«" horiz-adv-x="507" d="M209 65l-66-40L33 244l184 216 55-45-148-177zm200 0l-65-40-110 219 184 216 54-45-148-177z"/><glyph glyph-name="logicalnot" unicode="¬" horiz-adv-x="666" d="M596 139h-81v206H70v81h526V139z"/><glyph glyph-name="uni00AD" unicode="­" horiz-adv-x="320" d="M258 205H26l14 79h232z"/><glyph glyph-name="registered" unicode="®" horiz-adv-x="600" d="M351 511q14 0 25.5 9t11.5 24q0 16-13 23t-24 7h-47v-63h47zm44-143l-55 99h-36v-99h-61v256h110q18 0 35-4t31-13 22.5-24.5T450 544q0-26-14.5-43T399 476l68-108h-72zM112 493q0 47 18 88.5t49 72 72.5 48.5 88.5 18 88.5-18 72.5-48.5 49-72 18-88.5-18-88-49-71.5-72.5-48T340 268t-88.5 17.5-72.5 48-49 71.5-18 88zm36 0q0-39 15-74t41-61.5 61-41.5 75-15 75 15 61 41.5 41 61.5 15 74q0 40-15 75t-41 61-61 41-75 15-75-15-61-41-41-61-15-75z"/><glyph glyph-name="macron" unicode="¯" d="M323 597H29l11 66h295z"/><glyph glyph-name="degree" unicode="°" horiz-adv-x="400" d="M395 565q0-33-12-61t-33-48.5-49-32.5-61-12-61 12-49 32.5T97 504t-12 61 12 61 33 49 49 33 61 12 61-12 49-33 33-49 12-61zm-64 0q0 19-7 36t-19.5 29.5-29 19.5-35.5 7-35.5-7-29-19.5T156 601t-7-36q0-38 26.5-64.5T240 474t64.5 26.5T331 565z"/><glyph glyph-name="plusminus" unicode="±" horiz-adv-x="666" d="M70 419h223v150h81V419h222v-81H374V191h-81v147H70v81zm0-298h526V40H70v81z"/><glyph glyph-name="twosuperior" unicode="²" horiz-adv-x="385" d="M344 353l-13-67H51l12 69 186 154q33 28 47.5 49.5T311 602q0 26-16.5 39.5T249 655t-47-17.5-28-47.5l-67 19q19 53 58 80.5t88 27.5q60 0 94-30t34-81q0-24-6-43t-18-36-30.5-33.5L284 457 154 353h190z"/><glyph glyph-name="threesuperior" unicode="³" horiz-adv-x="385" d="M197 538q94 0 94 71 0 24-15.5 36.5T237 658q-26 0-43-11t-31-37l-56 34q23 40 58 58.5t78 18.5q56 0 88-31.5t32-78.5q0-43-25-69t-58-34q30-9 48-33t18-54q0-35-12-61t-32.5-44-48.5-27-60-9q-54 0-90 25.5T52 375l71 22q8-27 26.5-39.5T194 345q38 0 58 19t20 50q0 35-25.5 50T186 479h-22l11 59h22z"/><glyph glyph-name="acute" unicode="´" d="M190 564h-74l125 144h111z"/><glyph glyph-name="mu" unicode="µ" horiz-adv-x="578" d="M363 0q2 18 5.5 40.5T375 78h-2q-13-19-32-35.5t-42-29T250.5-6 199-13q-25 0-46 8t-31 22L67-240h-94l152 714h94l-55-262q-4-16-5.5-31t-1.5-29q0-38 18-62t66-24q57 0 101 42.5T401 222l53 252h94l-79-372q-2-9-4.5-22l-5-27-4.5-27.5L452 0h-89z"/><glyph glyph-name="paragraph" unicode="¶" horiz-adv-x="600" d="M447-126h-78l136 771H389L253-126h-78l80 453q-42 0-76 11.5T121.5 370t-36 48T73 479q0 40 15 81t47 74 83 53.5T341 708h253z"/><glyph glyph-name="periodcentered" unicode="·" horiz-adv-x="260" d="M197 306q0-26-18.5-46T133 240q-26 0-44.5 16.5T70 302t20 47.5 46 18.5 43.5-16.5T197 306z"/><glyph glyph-name="cedilla" unicode="¸" d="M54-70q8 2 14 2.5t12 .5q13 0 27.5-3.5t26.5-12 20-22 8-33.5q0-27-13-46t-32.5-30T74-230t-44-5q-26 0-55 6t-49 17l24 42q17-8 36.5-12.5T26-187q10 0 21 2t21 6.5 16.5 13T91-144q0 21-14.5 29T43-107q-10 0-21-2t-21-5l-17 20L63 0h50z"/><glyph glyph-name="onesuperior" unicode="¹" horiz-adv-x="385" d="M242 282h-77l59 333-79-59-36 51 142 101h66z"/><glyph glyph-name="ordmasculine" unicode="º" horiz-adv-x="380" d="M390 599q0-38-13-70t-36-55-54-36-67-13q-62 0-98.5 35T85 547q0 37 13 69t36 55.5 54 36.5 67 13q59 0 97-33.5t38-88.5zm-69-7q0 31-18.5 51.5T250 664q-21 0-38.5-9T181 631t-20-34.5-7-41.5q0-31 18.5-51.5T224 483q21 0 39 9t31 24 20 34.5 7 41.5z"/><glyph glyph-name="guillemotright" unicode="»" horiz-adv-x="507" d="M279 421l65 39 110-218L270 25l-54 46 148 177zm-201 0l66 39 110-218L69 25 15 71l148 177z"/><glyph glyph-name="onequarter" unicode="¼" horiz-adv-x="870" d="M769 94h-59L694 0h-71l17 93H448l10 61 222 272h85l-47-268h63zm-93 236L537 157h111l32 173h-4zM176-32L122 1l564 739 53-33zm66 314h-77l59 333-79-59-36 51 142 101h66z"/><glyph glyph-name="onehalf" unicode="½" horiz-adv-x="870" d="M808 320q0-24-6-43t-18-36-30.5-33.5L711 171 580 67h191L758 0H478l12 68 185 154q34 28 48.5 49.5T738 315q0 26-16.5 40T676 369t-47-17.5-28-47.5l-67 18q18 53 57 81t89 28q60 0 94-30t34-81zM176-32L122 1l564 739 53-33zm66 314h-77l59 333-79-59-36 51 142 101h66z"/><glyph glyph-name="threequarters" unicode="¾" horiz-adv-x="870" d="M769 94h-59L694 0h-71l17 93H448l10 61 222 272h85l-47-268h63zm-93 236L537 157h111l32 173h-4zM176-32L122 1l564 739 53-33zm187 644q0-44-25-70t-59-34q30-8 48.5-32.5T346 421q0-35-12-61t-32.5-44-48.5-27-60-9q-54 0-90 25.5T52 375l70 22q8-27 26.5-39.5T193 345q38 0 59 19t21 50q0 35-26 50t-61 15h-22l10 58h22q49 0 72 18.5t23 53.5q0 24-15 36.5T237 658q-26 0-43-11t-31-37l-56 34q23 39 58 58t78 19q55 0 87.5-31.5T363 612z"/><glyph glyph-name="questiondown" unicode="¿" horiz-adv-x="500" d="M202 287h92l-8-49q-4-26-12.5-47t-21-38.5-29-33T187 89l-42-33Q115 33 93.5 7T72-61q0-43 25.5-66.5T168-151q54 0 88 33t44 78l89-15q-9-39-29.5-72t-50-57-67.5-37.5-82-13.5q-38 0-71.5 9.5t-59 29.5-40.5 52-15 77Q-26-6 7.5 37t92.5 84q23 16 40 30t28.5 29 18.5 32.5 11 42.5zm-4 140q0 26 18.5 46t45.5 20q26 0 44.5-16.5T325 430q0-29-20-47.5T259 364t-43.5 17-17.5 46z"/><glyph glyph-name="Agrave" unicode="À" horiz-adv-x="681" d="M47 0H-68l459 708h89L624 0H521l-34 174H155zm159 261h267l-60 336zm63 647h110l100-144h-73z"/><glyph glyph-name="Aacute" unicode="Á" horiz-adv-x="681" d="M47 0H-68l459 708h89L624 0H521l-34 174H155zm159 261h267l-60 336zm264 503h-74l125 144h111z"/><glyph glyph-name="Acircumflex" unicode="Â" horiz-adv-x="681" d="M47 0H-68l459 708h89L624 0H521l-34 174H155zm159 261h267l-60 336zm403 503h-86l-59 99-94-99h-91l138 144h106z"/><glyph glyph-name="Atilde" unicode="Ã" horiz-adv-x="681" d="M47 0H-68l459 708h89L624 0H521l-34 174H155zm159 261h267l-60 336zm65 511q7 22 18 42.5t25.5 36.5 34 26 45.5 10q20 0 37.5-6t34.5-15q17-8 33-14.5t30-6.5q21 0 34 15t21 32h55q-8-22-18.5-42.5T595 813t-34.5-26-44.5-10q-18 0-35 6t-34 14q-17 9-33.5 15.5T382 819q-22 0-35-15t-21-32h-55z"/><glyph glyph-name="Adieresis" unicode="Ä" horiz-adv-x="681" d="M47 0H-68l459 708h89L624 0H521l-34 174H155zm159 261h267l-60 336zm410 586q0-25-16.5-42.5T557 787q-24 0-41 15t-17 42 18 44 43 17q24 0 40-15.5t16-42.5zm-198 0q0-25-16.5-42.5T360 787t-42 15-17 42 18.5 44 42.5 17 40-15.5 16-42.5z"/><glyph glyph-name="Aring" unicode="Å" horiz-adv-x="681" d="M47 0H-68l459 708h89L624 0H521l-34 174H155zm159 261h267l-60 336zm239 492q-38 0-62.5 24T358 836q0 24 8 44.5t23 36.5 35.5 25 44.5 9q39 0 63-23t24-59q0-49-31-82.5T445 753zm70 110q0 21-13 36t-36 15q-29 0-47.5-21T400 841q0-21 12.5-35.5T448 791q29 0 48 21t19 51z"/><glyph glyph-name="AE" unicode="Æ" horiz-adv-x="1006" d="M470 0l34 193H231L78 0H-37l569 708h485l-15-86H675l-38-214h312l-15-83H623L580 87h354L919 0H470zm48 275l62 347h-12L293 275h225z"/><glyph glyph-name="Ccedilla" unicode="Ç" horiz-adv-x="700" d="M652 111q-41-51-107-88T386-17l-44-53q8 2 14 2.5t12 .5q13 0 27.5-3.5t26.5-12 20-22 8-33.5q0-27-13-46t-32.5-30-42.5-16-44-5q-26 0-55 6t-49 17l24 42q17-8 36.5-12.5T314-187q10 0 21 2t21 6.5 16.5 13T379-144q0 21-14.5 29t-33.5 8q-10 0-21-2t-21-5l-17 20 65 78q-64 5-116.5 28.5t-89.5 63-57.5 93T53 286q0 92 32.5 172T175 597.5t133.5 94T473 726q39 0 75.5-8t67.5-22.5 56-34.5 40-45l-81-59q-8 15-22 30t-34.5 27.5-46.5 20-58 7.5q-69 0-127-29.5T243 535t-65-110-23-127q0-48 14.5-90t43-73.5T283 85t96-18q59 0 112 24t95 75z"/><glyph glyph-name="Egrave" unicode="È" horiz-adv-x="582" d="M144 87h367L496 0H32l125 708h436l-15-86H238l-37-214h324l-15-83H186zm99 821h110l100-144h-73z"/><glyph glyph-name="Eacute" unicode="É" horiz-adv-x="582" d="M144 87h367L496 0H32l125 708h436l-15-86H238l-37-214h324l-15-83H186zm241 677h-74l125 144h111z"/><glyph glyph-name="Ecircumflex" unicode="Ê" horiz-adv-x="582" d="M144 87h367L496 0H32l125 708h436l-15-86H238l-37-214h324l-15-83H186zm402 677h-86l-59 99-94-99h-91l138 144h106z"/><glyph glyph-name="Edieresis" unicode="Ë" horiz-adv-x="582" d="M144 87h367L496 0H32l125 708h436l-15-86H238l-37-214h324l-15-83H186zm408 760q0-25-16.5-42.5T493 787q-24 0-41 15t-17 42 18 44 43 17q24 0 40-15.5t16-42.5zm-198 0q0-25-16.5-42.5T296 787t-42 15-17 42 18.5 44 42.5 17 40-15.5 16-42.5z"/><glyph glyph-name="Igrave" unicode="Ì" horiz-adv-x="271" d="M130 0H32l125 708h98zM45 908h110l100-144h-73z"/><glyph glyph-name="Iacute" unicode="Í" horiz-adv-x="271" d="M130 0H32l125 708h98zm108 764h-74l125 144h111z"/><glyph glyph-name="Icircumflex" unicode="Î" horiz-adv-x="271" d="M130 0H32l125 708h98zm247 764h-86l-59 99-94-99H47l138 144h106z"/><glyph glyph-name="Idieresis" unicode="Ï" horiz-adv-x="271" d="M130 0H32l125 708h98zm252 847q0-25-16.5-42.5T323 787q-24 0-41 15t-17 42 18 44 43 17q24 0 40-15.5t16-42.5zm-198 0q0-25-16.5-42.5T126 787t-42 15-17 42 18.5 44 42.5 17 40-15.5 16-42.5z"/><glyph glyph-name="Eth" unicode="Ð" horiz-adv-x="757" d="M157 708h229q60 0 119-16.5t106-52 76-92T716 412q0-93-32.5-169T593 113 456 29.5 284 0H32l59 336H25l13 69h66zM144 86h145q80 0 140.5 26.5T531 183t61.5 100.5T613 400q0 46-15 86.5t-45.5 71-78 48.5T362 624H239l-39-219h230l-14-69H188z"/><glyph glyph-name="Ntilde" unicode="Ñ" horiz-adv-x="768" d="M541 138h2l100 570h98L616 0H494L234 582h-2L129 0H32l125 708h125zM284 772q7 22 18 42.5t25.5 36.5 34 26 45.5 10q20 0 37.5-6t34.5-15q17-8 33-14.5t30-6.5q21 0 34 15t21 32h55q-8-22-18.5-42.5T608 813t-34.5-26-44.5-10q-18 0-35 6t-34 14q-17 9-33.5 15.5T395 819q-22 0-35-15t-21-32h-55z"/><glyph glyph-name="Ograve" unicode="Ò" horiz-adv-x="831" d="M381-18q-74 0-134.5 21.5T143 65t-66.5 96.5T53 288q0 91 31.5 170.5t87 139 130.5 94T465 726q72 0 132-21.5T700 643t66.5-96T790 421q0-91-30.5-171T674 110.5t-130-94T381-18zm307 430q0 48-15 89.5t-44 73-71.5 49.5-97.5 18q-69 0-125.5-29.5t-96.5-78T176.5 424 155 297q0-47 15-89t43.5-73.5 71-49.5T383 67q70 0 126.5 29t96 77.5 61 110.5T688 412zM327 908h110l100-144h-73z"/><glyph glyph-name="Oacute" unicode="Ó" horiz-adv-x="831" d="M381-18q-74 0-134.5 21.5T143 65t-66.5 96.5T53 288q0 91 31.5 170.5t87 139 130.5 94T465 726q72 0 132-21.5T700 643t66.5-96T790 421q0-91-30.5-171T674 110.5t-130-94T381-18zm307 430q0 48-15 89.5t-44 73-71.5 49.5-97.5 18q-69 0-125.5-29.5t-96.5-78T176.5 424 155 297q0-47 15-89t43.5-73.5 71-49.5T383 67q70 0 126.5 29t96 77.5 61 110.5T688 412zM493 764h-74l125 144h111z"/><glyph glyph-name="Ocircumflex" unicode="Ô" horiz-adv-x="831" d="M381-18q-74 0-134.5 21.5T143 65t-66.5 96.5T53 288q0 91 31.5 170.5t87 139 130.5 94T465 726q72 0 132-21.5T700 643t66.5-96T790 421q0-91-30.5-171T674 110.5t-130-94T381-18zm307 430q0 48-15 89.5t-44 73-71.5 49.5-97.5 18q-69 0-125.5-29.5t-96.5-78T176.5 424 155 297q0-47 15-89t43.5-73.5 71-49.5T383 67q70 0 126.5 29t96 77.5 61 110.5T688 412zm-25 352h-86l-59 99-94-99h-91l138 144h106z"/><glyph glyph-name="Otilde" unicode="Õ" horiz-adv-x="831" d="M381-18q-74 0-134.5 21.5T143 65t-66.5 96.5T53 288q0 91 31.5 170.5t87 139 130.5 94T465 726q72 0 132-21.5T700 643t66.5-96T790 421q0-91-30.5-171T674 110.5t-130-94T381-18zm307 430q0 48-15 89.5t-44 73-71.5 49.5-97.5 18q-69 0-125.5-29.5t-96.5-78T176.5 424 155 297q0-47 15-89t43.5-73.5 71-49.5T383 67q70 0 126.5 29t96 77.5 61 110.5T688 412zM315 772q7 22 18 42.5t25.5 36.5 34 26 45.5 10q20 0 37.5-6t34.5-15q17-8 33-14.5t30-6.5q21 0 34 15t21 32h55q-8-22-18.5-42.5T639 813t-34.5-26-44.5-10q-18 0-35 6t-34 14q-17 9-33.5 15.5T426 819q-22 0-35-15t-21-32h-55z"/><glyph glyph-name="Odieresis" unicode="Ö" horiz-adv-x="831" d="M381-18q-74 0-134.5 21.5T143 65t-66.5 96.5T53 288q0 91 31.5 170.5t87 139 130.5 94T465 726q72 0 132-21.5T700 643t66.5-96T790 421q0-91-30.5-171T674 110.5t-130-94T381-18zm307 430q0 48-15 89.5t-44 73-71.5 49.5-97.5 18q-69 0-125.5-29.5t-96.5-78T176.5 424 155 297q0-47 15-89t43.5-73.5 71-49.5T383 67q70 0 126.5 29t96 77.5 61 110.5T688 412zm-27 435q0-25-16.5-42.5T602 787q-24 0-41 15t-17 42 18 44 43 17q24 0 40-15.5t16-42.5zm-198 0q0-25-16.5-42.5T405 787t-42 15-17 42 18.5 44 42.5 17 40-15.5 16-42.5z"/><glyph glyph-name="multiply" unicode="×" horiz-adv-x="666" d="M333 360l170 171 57-56-170-171 172-173-59-58-171 170L162 73l-58 58 172 170-171 174 57 56z"/><glyph glyph-name="Oslash" unicode="Ø" horiz-adv-x="831" d="M772 737l36-39-84-80q32-38 49-87.5T790 421q0-91-30.5-171T674 110.5t-130-94T381-18q-74 0-134.5 21.5T142 66L48-23 9 15l97 92q-26 37-39.5 82T53 288q0 91 31.5 170.5t87 139 130.5 94T465 726q66 0 122-18t99-52zM214 134q29-31 71-49t98-18q70 0 126.5 29t96 77.5 61 110.5T688 412q0 78-38 136zm401 454q-28 26-67 40t-88 14q-69 0-125.5-29.5t-96.5-78T176.5 424 155 297q0-32 7-62t21-56z"/><glyph glyph-name="Ugrave" unicode="Ù" horiz-adv-x="712" d="M317-18q-63 0-109.5 17T130 46t-46.5 69.5T68 200q0 30 6 62l78 446h98l-78-440q-5-28-5-53 0-30 8-56.5t26.5-47T249 79t71-12q52 0 88 17t60 45.5 37.5 64.5 20.5 74l77 440h98l-78-446q-10-54-31.5-104.5t-58-89.5-90-62.5T317-18zm-52 926h110l100-144h-73z"/><glyph glyph-name="Uacute" unicode="Ú" horiz-adv-x="712" d="M317-18q-63 0-109.5 17T130 46t-46.5 69.5T68 200q0 30 6 62l78 446h98l-78-440q-5-28-5-53 0-30 8-56.5t26.5-47T249 79t71-12q52 0 88 17t60 45.5 37.5 64.5 20.5 74l77 440h98l-78-446q-10-54-31.5-104.5t-58-89.5-90-62.5T317-18zm126 782h-74l125 144h111z"/><glyph glyph-name="Ucircumflex" unicode="Û" horiz-adv-x="712" d="M317-18q-63 0-109.5 17T130 46t-46.5 69.5T68 200q0 30 6 62l78 446h98l-78-440q-5-28-5-53 0-30 8-56.5t26.5-47T249 79t71-12q52 0 88 17t60 45.5 37.5 64.5 20.5 74l77 440h98l-78-446q-10-54-31.5-104.5t-58-89.5-90-62.5T317-18zm284 782h-86l-59 99-94-99h-91l138 144h106z"/><glyph glyph-name="Udieresis" unicode="Ü" horiz-adv-x="712" d="M317-18q-63 0-109.5 17T130 46t-46.5 69.5T68 200q0 30 6 62l78 446h98l-78-440q-5-28-5-53 0-30 8-56.5t26.5-47T249 79t71-12q52 0 88 17t60 45.5 37.5 64.5 20.5 74l77 440h98l-78-446q-10-54-31.5-104.5t-58-89.5-90-62.5T317-18zm287 865q0-25-16.5-42.5T545 787q-24 0-41 15t-17 42 18 44 43 17q24 0 40-15.5t16-42.5zm-198 0q0-25-16.5-42.5T348 787t-42 15-17 42 18.5 44 42.5 17 40-15.5 16-42.5z"/><glyph glyph-name="Yacute" unicode="Ý" horiz-adv-x="560" d="M268 0h-98l54 306L46 708h111l130-322 259 322h120L322 306zm119 764h-74l125 144h111z"/><glyph glyph-name="Thorn" unicode="Þ" horiz-adv-x="595" d="M130 0H33l125 708h97l-26-146h105q110 0 169.5-47T563 384q0-55-20.5-96t-58-68.5-89.5-41T280 165H159zm43 247h112q85 0 132.5 31.5T465 373q0 59-39 82.5T321 479H215z"/><glyph glyph-name="germandbls" unicode="ß" horiz-adv-x="610" d="M117 0H25l93 526q8 45 24.5 88.5T188 692t72 55 105 21q42 0 77.5-12t61-34.5 40-53.5 14.5-70q0-68-40-111.5T418 428v-2q31-7 56-23.5t42.5-39.5 27-52 9.5-62q0-59-20.5-107t-58-82-89-53T273-12q-17 0-38.5 2T196-4l14 78q11-3 29-5t31-2q37 0 70.5 10.5T400 110t41.5 56 15.5 81q0 30-11.5 55T414 345t-47.5 27.5T307 382h-11l15 81h11q27 0 52.5 7.5t45.5 23 32 39 12 55.5q0 44-27.5 71T361 686q-40 0-67-15.5T250 631t-26.5-53-13.5-56z"/><glyph glyph-name="agrave" unicode="à" horiz-adv-x="537" d="M370 296q2 14 3 22t1 15q0 42-26 60.5T274 412q-38 0-76-15t-66-37l-38 62q38 30 89 47.5T287 487q34 0 65.5-7.5t56-24T448 412t15-65q0-9-1-23.5t-3-24.5l-35-192q-5-28-8-57.5T413 0h-85q0 15 1.5 32t4.5 34h-2q-34-40-74-58t-94-18q-24 0-50 6T66.5 16.5 31 55t-14 60q0 58 32 93.5t82.5 55 113.5 26 125 6.5zm-25-68q-39 0-81-3.5t-76.5-14T131 180t-22-52q0-20 7.5-32.5t20-20.5 28-11 31.5-3q31 0 58 10.5t47 28.5 33.5 42 18.5 51l7 35h-15zM143 708h110l100-144h-73z"/><glyph glyph-name="aacute" unicode="á" horiz-adv-x="537" d="M370 296q2 14 3 22t1 15q0 42-26 60.5T274 412q-38 0-76-15t-66-37l-38 62q38 30 89 47.5T287 487q34 0 65.5-7.5t56-24T448 412t15-65q0-9-1-23.5t-3-24.5l-35-192q-5-28-8-57.5T413 0h-85q0 15 1.5 32t4.5 34h-2q-34-40-74-58t-94-18q-24 0-50 6T66.5 16.5 31 55t-14 60q0 58 32 93.5t82.5 55 113.5 26 125 6.5zm-25-68q-39 0-81-3.5t-76.5-14T131 180t-22-52q0-20 7.5-32.5t20-20.5 28-11 31.5-3q31 0 58 10.5t47 28.5 33.5 42 18.5 51l7 35h-15zm-21 336h-74l125 144h111z"/><glyph glyph-name="acircumflex" unicode="â" horiz-adv-x="537" d="M370 296q2 14 3 22t1 15q0 42-26 60.5T274 412q-38 0-76-15t-66-37l-38 62q38 30 89 47.5T287 487q34 0 65.5-7.5t56-24T448 412t15-65q0-9-1-23.5t-3-24.5l-35-192q-5-28-8-57.5T413 0h-85q0 15 1.5 32t4.5 34h-2q-34-40-74-58t-94-18q-24 0-50 6T66.5 16.5 31 55t-14 60q0 58 32 93.5t82.5 55 113.5 26 125 6.5zm-25-68q-39 0-81-3.5t-76.5-14T131 180t-22-52q0-20 7.5-32.5t20-20.5 28-11 31.5-3q31 0 58 10.5t47 28.5 33.5 42 18.5 51l7 35h-15zm132 336h-86l-59 99-94-99h-91l138 144h106z"/><glyph glyph-name="atilde" unicode="ã" horiz-adv-x="537" d="M370 296q2 14 3 22t1 15q0 42-26 60.5T274 412q-38 0-76-15t-66-37l-38 62q38 30 89 47.5T287 487q34 0 65.5-7.5t56-24T448 412t15-65q0-9-1-23.5t-3-24.5l-35-192q-5-28-8-57.5T413 0h-85q0 15 1.5 32t4.5 34h-2q-34-40-74-58t-94-18q-24 0-50 6T66.5 16.5 31 55t-14 60q0 58 32 93.5t82.5 55 113.5 26 125 6.5zm-25-68q-39 0-81-3.5t-76.5-14T131 180t-22-52q0-20 7.5-32.5t20-20.5 28-11 31.5-3q31 0 58 10.5t47 28.5 33.5 42 18.5 51l7 35h-15zM132 572q7 22 18 42.5t25.5 36.5 34 26 45.5 10q20 0 37.5-6t34.5-15q17-8 33-14.5t30-6.5q21 0 34 15t21 32h55q-8-22-18.5-42.5T456 613t-34.5-26-44.5-10q-18 0-35 6t-34 14q-17 9-33.5 15.5T243 619q-22 0-35-15t-21-32h-55z"/><glyph glyph-name="adieresis" unicode="ä" horiz-adv-x="537" d="M370 296q2 14 3 22t1 15q0 42-26 60.5T274 412q-38 0-76-15t-66-37l-38 62q38 30 89 47.5T287 487q34 0 65.5-7.5t56-24T448 412t15-65q0-9-1-23.5t-3-24.5l-35-192q-5-28-8-57.5T413 0h-85q0 15 1.5 32t4.5 34h-2q-34-40-74-58t-94-18q-24 0-50 6T66.5 16.5 31 55t-14 60q0 58 32 93.5t82.5 55 113.5 26 125 6.5zm-25-68q-39 0-81-3.5t-76.5-14T131 180t-22-52q0-20 7.5-32.5t20-20.5 28-11 31.5-3q31 0 58 10.5t47 28.5 33.5 42 18.5 51l7 35h-15zm-67 419q0-25-16.5-42.5T220 587t-42 15-17 42 18.5 44 42.5 17 40-15.5 16-42.5zm198 0q0-25-16.5-42.5T417 587q-24 0-41 15t-17 42 18 44 43 17q24 0 40-15.5t16-42.5z"/><glyph glyph-name="aring" unicode="å" horiz-adv-x="537" d="M370 296q2 14 3 22t1 15q0 42-26 60.5T274 412q-38 0-76-15t-66-37l-38 62q38 30 89 47.5T287 487q34 0 65.5-7.5t56-24T448 412t15-65q0-9-1-23.5t-3-24.5l-35-192q-5-28-8-57.5T413 0h-85q0 15 1.5 32t4.5 34h-2q-34-40-74-58t-94-18q-24 0-50 6T66.5 16.5 31 55t-14 60q0 58 32 93.5t82.5 55 113.5 26 125 6.5zm-25-68q-39 0-81-3.5t-76.5-14T131 180t-22-52q0-20 7.5-32.5t20-20.5 28-11 31.5-3q31 0 58 10.5t47 28.5 33.5 42 18.5 51l7 35h-15zm-37 325q-38 0-62.5 24T221 636q0 24 8 44.5t23 36.5 35.5 25 44.5 9q39 0 63-23t24-59q0-49-31-82.5T308 553zm70 110q0 21-13 36t-36 15q-29 0-47.5-21T263 641q0-21 12.5-35.5T311 591q29 0 48 21t19 51z"/><glyph glyph-name="ae" unicode="æ" horiz-adv-x="885" d="M446 400q27 36 75 61.5T626 487q91 0 144.5-49.5T824 299q0-14-2.5-40.5T813 209H447q-1-5-1.5-8.5t-.5-7.5q0-57 37.5-93T579 64q51 0 87 20.5t62 51.5l55-52q-86-97-214-97-63 0-112.5 29T387 95q-25-43-74.5-74T182-10q-27 0-56.5 6T72 16.5 32.5 55 17 116q0 55 31.5 87t82 48.5 113.5 21 127 4.5q3 14 5.5 31t2.5 24q0 45-27 62.5T280 412q-38 0-76.5-15T137 360l-38 62q38 30 89.5 47.5T292 487q60 0 100-21.5t54-65.5zM336 209q-47 0-88.5-3t-72-12-48-25-17.5-41q0-20 7.5-32.5T137 75t28-11 33-3q67 0 108 36t51 94l3 18h-24zm399 68q1 7 1.5 15t.5 15q0 46-30.5 76.5T619 414q-33 0-60-12t-48-31-34.5-44-19.5-50h278z"/><glyph glyph-name="ccedilla" unicode="ç" horiz-adv-x="496" d="M419 353q-12 24-40.5 40.5T315 410q-41 0-75.5-16.5t-59.5-45-39-66-14-79.5q0-29 8.5-54t25.5-43.5T203.5 76 263 65q45 0 76 16t54 41l56-52q-37-37-82-59T264-13l-48-57q8 2 14 2.5t12 .5q13 0 27.5-3.5t26.5-12 20-22 8-33.5q0-27-13-46t-32.5-30-42.5-16-44-5q-26 0-55 6t-49 17l24 42q17-8 36.5-12.5T188-187q10 0 21 2t21 6.5 16.5 13T253-144q0 21-14.5 29t-33.5 8q-10 0-21-2t-21-5l-17 20 70 84Q131 1 82 55T33 192q0 59 20.5 112.5t58 94T202 463t118 24q26 0 51.5-5t48-14.5 41-24.5 30.5-36z"/><glyph glyph-name="egrave" unicode="è" horiz-adv-x="565" d="M122 209q-1-5-1-8.5V193q0-28 10.5-51.5t29-41 44-27T259 64q51 0 87.5 20.5T408 136l55-52q-42-48-96-72.5T250-13q-47 0-87.5 14t-70 41-46 66T30 197q0 59 21 112t58 92.5 88 62.5 110 23q91 0 144-49.5T504 299q0-14-2.5-40.5T494 209H122zm293 68q1 7 1.5 15t.5 15q0 46-30 76.5T300 414q-34 0-62-12t-49.5-31-36-44-20.5-50h283zM166 708h110l100-144h-73z"/><glyph glyph-name="eacute" unicode="é" horiz-adv-x="565" d="M122 209q-1-5-1-8.5V193q0-28 10.5-51.5t29-41 44-27T259 64q51 0 87.5 20.5T408 136l55-52q-42-48-96-72.5T250-13q-47 0-87.5 14t-70 41-46 66T30 197q0 59 21 112t58 92.5 88 62.5 110 23q91 0 144-49.5T504 299q0-14-2.5-40.5T494 209H122zm293 68q1 7 1.5 15t.5 15q0 46-30 76.5T300 414q-34 0-62-12t-49.5-31-36-44-20.5-50h283zm-85 287h-74l125 144h111z"/><glyph glyph-name="ecircumflex" unicode="ê" horiz-adv-x="565" d="M122 209q-1-5-1-8.5V193q0-28 10.5-51.5t29-41 44-27T259 64q51 0 87.5 20.5T408 136l55-52q-42-48-96-72.5T250-13q-47 0-87.5 14t-70 41-46 66T30 197q0 59 21 112t58 92.5 88 62.5 110 23q91 0 144-49.5T504 299q0-14-2.5-40.5T494 209H122zm293 68q1 7 1.5 15t.5 15q0 46-30 76.5T300 414q-34 0-62-12t-49.5-31-36-44-20.5-50h283zm84 287h-86l-59 99-94-99h-91l138 144h106z"/><glyph glyph-name="edieresis" unicode="ë" horiz-adv-x="565" d="M122 209q-1-5-1-8.5V193q0-28 10.5-51.5t29-41 44-27T259 64q51 0 87.5 20.5T408 136l55-52q-42-48-96-72.5T250-13q-47 0-87.5 14t-70 41-46 66T30 197q0 59 21 112t58 92.5 88 62.5 110 23q91 0 144-49.5T504 299q0-14-2.5-40.5T494 209H122zm293 68q1 7 1.5 15t.5 15q0 46-30 76.5T300 414q-34 0-62-12t-49.5-31-36-44-20.5-50h283zM302 647q0-25-16.5-42.5T244 587t-42 15-17 42 18.5 44 42.5 17 40-15.5 16-42.5zm198 0q0-25-16.5-42.5T441 587q-24 0-41 15t-17 42 18 44 43 17q24 0 40-15.5t16-42.5z"/><glyph glyph-name="igrave" unicode="ì" horiz-adv-x="259" d="M121 0H29l83 474h93zM1 708h110l100-144h-73z"/><glyph glyph-name="iacute" unicode="í" horiz-adv-x="259" d="M121 0H29l83 474h93zm68 563h-74l125 144h111z"/><glyph glyph-name="icircumflex" unicode="î" horiz-adv-x="259" d="M121 0H29l83 474h93zm216 564h-86l-59 99-94-99H7l138 144h106z"/><glyph glyph-name="idieresis" unicode="ï" horiz-adv-x="259" d="M121 0H29l83 474h93zm27 647q0-25-16.5-42.5T90 587t-42 15-17 42 18.5 44T92 705t40-15.5 16-42.5zm198 0q0-25-16.5-42.5T287 587q-24 0-41 15t-17 42 18 44 43 17q24 0 40-15.5t16-42.5z"/><glyph glyph-name="eth" unicode="ð" horiz-adv-x="600" d="M315 487q83 0 129-46l3 2q-17 47-44.5 94T337 621l-119-54-40 47 120 53q-17 19-37.5 37T221 737l79 45 44.5-40.5L380 704l117 53 43-45-119-54q57-66 91.5-152.5T547 318q0-60-16-119T480.5 92.5t-89-76.5T259-13q-49 0-90 15T98 44.5 51.5 110 35 194q0 57 20 110t56.5 93.5 88.5 65T315 487zm134-214q0 29-9.5 54t-27 43.5-42.5 29-57 10.5q-41 0-74.5-17t-58-45.5-38-66T129 202q0-60 35.5-98.5T264 65q41 0 75 16.5t58.5 45 38 66.5 13.5 80z"/><glyph glyph-name="ntilde" unicode="ñ" horiz-adv-x="581" d="M196 474q-2-14-4.5-37.5T186 397h2q26 41 66.5 65.5T346 487q78 0 118.5-41.5T505 341q0-25-4-48L449 0h-93l46 262q6 27 6 53 0 41-20 67t-72 26q-56 0-97-42.5T165 252L121 0H28l65 371q4 19 8.5 49t6.5 54h88zm-36 98q7 22 18 42.5t25.5 36.5 34 26 45.5 10q20 0 37.5-6t34.5-15q17-8 33-14.5t30-6.5q21 0 34 15t21 32h55q-8-22-18.5-42.5T484 613t-34.5-26-44.5-10q-18 0-35 6t-34 14q-17 9-33.5 15.5T271 619q-22 0-35-15t-21-32h-55z"/><glyph glyph-name="ograve" unicode="ò" horiz-adv-x="600" d="M255-13q-49 0-90 15T94 44.5 47 110t-17 84q0 59 20.5 112t58 93.5 90 64T315 487q49 0 90-15t71-42 46.5-64.5T539 282q0-60-20.5-113.5t-58-94-89.5-64T255-13zm190 286q0 29-9.5 54t-27 43.5-43 29T309 410q-41 0-75-17t-58.5-45.5-38-66T124 202q0-60 36-98.5T260 65q41 0 75 16.5t58.5 45 38 66.5 13.5 80zM176 708h110l100-144h-73z"/><glyph glyph-name="oacute" unicode="ó" horiz-adv-x="600" d="M255-13q-49 0-90 15T94 44.5 47 110t-17 84q0 59 20.5 112t58 93.5 90 64T315 487q49 0 90-15t71-42 46.5-64.5T539 282q0-60-20.5-113.5t-58-94-89.5-64T255-13zm190 286q0 29-9.5 54t-27 43.5-43 29T309 410q-41 0-75-17t-58.5-45.5-38-66T124 202q0-60 36-98.5T260 65q41 0 75 16.5t58.5 45 38 66.5 13.5 80zm-96 291h-74l125 144h111z"/><glyph glyph-name="ocircumflex" unicode="ô" horiz-adv-x="600" d="M255-13q-49 0-90 15T94 44.5 47 110t-17 84q0 59 20.5 112t58 93.5 90 64T315 487q49 0 90-15t71-42 46.5-64.5T539 282q0-60-20.5-113.5t-58-94-89.5-64T255-13zm190 286q0 29-9.5 54t-27 43.5-43 29T309 410q-41 0-75-17t-58.5-45.5-38-66T124 202q0-60 36-98.5T260 65q41 0 75 16.5t58.5 45 38 66.5 13.5 80zm70 291h-86l-59 99-94-99h-91l138 144h106z"/><glyph glyph-name="otilde" unicode="õ" horiz-adv-x="600" d="M255-13q-49 0-90 15T94 44.5 47 110t-17 84q0 59 20.5 112t58 93.5 90 64T315 487q49 0 90-15t71-42 46.5-64.5T539 282q0-60-20.5-113.5t-58-94-89.5-64T255-13zm190 286q0 29-9.5 54t-27 43.5-43 29T309 410q-41 0-75-17t-58.5-45.5-38-66T124 202q0-60 36-98.5T260 65q41 0 75 16.5t58.5 45 38 66.5 13.5 80zM165 572q7 22 18 42.5t25.5 36.5 34 26 45.5 10q20 0 37.5-6t34.5-15q17-8 33-14.5t30-6.5q21 0 34 15t21 32h55q-8-22-18.5-42.5T489 613t-34.5-26-44.5-10q-18 0-35 6t-34 14q-17 9-33.5 15.5T276 619q-22 0-35-15t-21-32h-55z"/><glyph glyph-name="odieresis" unicode="ö" horiz-adv-x="600" d="M255-13q-49 0-90 15T94 44.5 47 110t-17 84q0 59 20.5 112t58 93.5 90 64T315 487q49 0 90-15t71-42 46.5-64.5T539 282q0-60-20.5-113.5t-58-94-89.5-64T255-13zm190 286q0 29-9.5 54t-27 43.5-43 29T309 410q-41 0-75-17t-58.5-45.5-38-66T124 202q0-60 36-98.5T260 65q41 0 75 16.5t58.5 45 38 66.5 13.5 80zM312 647q0-25-16.5-42.5T254 587t-42 15-17 42 18.5 44 42.5 17 40-15.5 16-42.5zm198 0q0-25-16.5-42.5T451 587q-24 0-41 15t-17 42 18 44 43 17q24 0 40-15.5t16-42.5z"/><glyph glyph-name="divide" unicode="÷" horiz-adv-x="666" d="M596 262H70v82h526v-82zM398 132q0-26-18.5-45.5T333 67t-46.5 19.5T268 132t18.5 45.5T333 197t46.5-19.5T398 132zm0 337q0-26-18.5-45.5T333 404t-46.5 19.5T268 469t18.5 45.5T333 534t46.5-19.5T398 469z"/><glyph glyph-name="oslash" unicode="ø" horiz-adv-x="600" d="M497 408q42-53 42-126 0-60-20.5-113.5t-58-94-89.5-64T255-13q-45 0-83 12.5T105 35L45-23 6 15l62 59q-18 24-28 54.5T30 194q0 59 20.5 112t58 93.5 90 64T315 487q84 0 143-42l57 54 36-39zM169 95q36-30 91-30 41 0 75 16.5t58.5 45 38 66.5 13.5 80q0 39-17 70zm225 289q-17 12-38 19t-47 7q-41 0-75-17t-58.5-45.5-38-66T124 202q0-37 13-63z"/><glyph glyph-name="ugrave" unicode="ù" horiz-adv-x="581" d="M352 0q2 14 5 37.5l5 39.5h-2q-26-41-66.5-65.5T202-13q-78 0-118.5 41.5T43 134q0 11 1.5 23t3.5 24l52 293h92l-46-261q-2-14-3.5-27.5T141 159q0-41 20-67t71-26q56 0 97.5 42.5T383 222l45 252h92l-65-371q-4-19-8.5-49T440 0h-88zM162 708h110l100-144h-73z"/><glyph glyph-name="uacute" unicode="ú" horiz-adv-x="581" d="M352 0q2 14 5 37.5l5 39.5h-2q-26-41-66.5-65.5T202-13q-78 0-118.5 41.5T43 134q0 11 1.5 23t3.5 24l52 293h92l-46-261q-2-14-3.5-27.5T141 159q0-41 20-67t71-26q56 0 97.5 42.5T383 222l45 252h92l-65-371q-4-19-8.5-49T440 0h-88zm-8 564h-74l125 144h111z"/><glyph glyph-name="ucircumflex" unicode="û" horiz-adv-x="581" d="M352 0q2 14 5 37.5l5 39.5h-2q-26-41-66.5-65.5T202-13q-78 0-118.5 41.5T43 134q0 11 1.5 23t3.5 24l52 293h92l-46-261q-2-14-3.5-27.5T141 159q0-41 20-67t71-26q56 0 97.5 42.5T383 222l45 252h92l-65-371q-4-19-8.5-49T440 0h-88zm138 564h-86l-59 99-94-99h-91l138 144h106z"/><glyph glyph-name="udieresis" unicode="ü" horiz-adv-x="581" d="M352 0q2 14 5 37.5l5 39.5h-2q-26-41-66.5-65.5T202-13q-78 0-118.5 41.5T43 134q0 11 1.5 23t3.5 24l52 293h92l-46-261q-2-14-3.5-27.5T141 159q0-41 20-67t71-26q56 0 97.5 42.5T383 222l45 252h92l-65-371q-4-19-8.5-49T440 0h-88zm-55 647q0-25-16.5-42.5T239 587t-42 15-17 42 18.5 44 42.5 17 40-15.5 16-42.5zm198 0q0-25-16.5-42.5T436 587q-24 0-41 15t-17 42 18 44 43 17q24 0 40-15.5t16-42.5z"/><glyph glyph-name="yacute" unicode="ý" horiz-adv-x="495" d="M207 101h2l210 373h100L172-112q-18-30-35-53.5t-37-40T56-231t-54-9q-31 0-59 7l13 82q22-8 44-8 32 0 53 20.5T97-80l47 80L40 474h99zm101 463h-74l125 144h111z"/><glyph glyph-name="thorn" unicode="þ" horiz-adv-x="633" d="M192 398q25 38 71 63t101 25q47 0 85-15t65-42 42-64.5 15-83.5q0-61-20.5-114.5T494 73t-85.5-63T301-13 200.5 11 136 77h-2L79-240h-93l175 996h93l-64-358h2zm283-126q0 58-34 97.5T343 409q-39 0-73.5-16.5t-60-45-40-66.5-14.5-80q0-30 9.5-55.5T192 102t43.5-28.5T292 63q41 0 75 16.5t58 44.5 37 66 13 82z"/><glyph glyph-name="ydieresis" unicode="ÿ" horiz-adv-x="495" d="M207 101h2l210 373h100L172-112q-18-30-35-53.5t-37-40T56-231t-54-9q-31 0-59 7l13 82q22-8 44-8 32 0 53 20.5T97-80l47 80L40 474h99zm56 546q0-25-16.5-42.5T205 587t-42 15-17 42 18.5 44 42.5 17 40-15.5 16-42.5zm198 0q0-25-16.5-42.5T402 587q-24 0-41 15t-17 42 18 44 43 17q24 0 40-15.5t16-42.5z"/><glyph glyph-name="Amacron" unicode="Ā" horiz-adv-x="681" d="M47 0H-68l459 708h89L624 0H521l-34 174H155zm159 261h267l-60 336zm388 536H300l11 66h295z"/><glyph glyph-name="amacron" unicode="ā" horiz-adv-x="537" d="M370 296q2 14 3 22t1 15q0 42-26 60.5T274 412q-38 0-76-15t-66-37l-38 62q38 30 89 47.5T287 487q34 0 65.5-7.5t56-24T448 412t15-65q0-9-1-23.5t-3-24.5l-35-192q-5-28-8-57.5T413 0h-85q0 15 1.5 32t4.5 34h-2q-34-40-74-58t-94-18q-24 0-50 6T66.5 16.5 31 55t-14 60q0 58 32 93.5t82.5 55 113.5 26 125 6.5zm-25-68q-39 0-81-3.5t-76.5-14T131 180t-22-52q0-20 7.5-32.5t20-20.5 28-11 31.5-3q31 0 58 10.5t47 28.5 33.5 42 18.5 51l7 35h-15zm112 369H163l11 66h295z"/><glyph glyph-name="Abreve" unicode="Ă" horiz-adv-x="681" d="M47 0H-68l459 708h89L624 0H521l-34 174H155zm159 261h267l-60 336zm412 647q-14-66-61.5-102T443 770t-104 33.5T301 908h56q0-20 7-34t19-22.5 28.5-12T447 836q42 0 73.5 15.5T563 908h55z"/><glyph glyph-name="abreve" unicode="ă" horiz-adv-x="537" d="M370 296q2 14 3 22t1 15q0 42-26 60.5T274 412q-38 0-76-15t-66-37l-38 62q38 30 89 47.5T287 487q34 0 65.5-7.5t56-24T448 412t15-65q0-9-1-23.5t-3-24.5l-35-192q-5-28-8-57.5T413 0h-85q0 15 1.5 32t4.5 34h-2q-34-40-74-58t-94-18q-24 0-50 6T66.5 16.5 31 55t-14 60q0 58 32 93.5t82.5 55 113.5 26 125 6.5zm-25-68q-39 0-81-3.5t-76.5-14T131 180t-22-52q0-20 7.5-32.5t20-20.5 28-11 31.5-3q31 0 58 10.5t47 28.5 33.5 42 18.5 51l7 35h-15zm133 480q-14-66-61.5-102T303 570t-104 33.5T161 708h56q0-20 7-34t19-22.5 28.5-12T307 636q42 0 73.5 15.5T423 708h55z"/><glyph glyph-name="Aogonek" unicode="Ą" horiz-adv-x="681" d="M585-191q-23-17-48-27t-51-10q-35 0-59 18.5T403-153q0 24 11 46t28.5 42 38 36.5L520 2l-33 172H155L47 0H-68l459 708h89L624 0h-52l-37-32.5L503.5-66 482-100l-8-33q0-20 12-27.5t29-7.5q30 0 56 21zM206 261h267l-60 336z"/><glyph glyph-name="aogonek" unicode="ą" horiz-adv-x="537" d="M392-191q-23-17-48-27t-51-10q-35 0-59 18.5T210-153q0 24 11.5 46.5t28.5 42T288-28t40 30q0 32 6 64h-2q-34-40-74-58t-94-18q-24 0-50 6T66.5 16.5 31 55t-14 60q0 58 32 93.5t82.5 55 113.5 26 125 6.5q2 14 3 22t1 15q0 42-26 60.5T274 412q-38 0-76-15t-66-37l-38 62q38 30 89 47.5T287 487q34 0 65.5-7.5t56-24T448 412t15-65q0-9-1-23.5t-3-24.5l-35-192q-5-28-8-57.5T413 0h-34l-37-32.5L310.5-66 289-100l-8-33q0-20 12-27.5t29-7.5q30 0 56 21zm-47 419q-39 0-81-3.5t-76.5-14T131 180t-22-52q0-20 7.5-32.5t20-20.5 28-11 31.5-3q31 0 58 10.5t47 28.5 33.5 42 18.5 51l7 35h-15z"/><glyph glyph-name="Cacute" unicode="Ć" horiz-adv-x="700" d="M652 111q-21-27-49-50.5t-63-41T462.5-8 370-18q-71 0-129.5 22t-100 62T76 162 53 286q0 92 32.5 172T175 597.5t133.5 94T473 726q39 0 75.5-8t67.5-22.5 56-34.5 40-45l-81-59q-8 15-22 30t-34.5 27.5-46.5 20-58 7.5q-69 0-127-29.5T243 535t-65-110-23-127q0-48 14.5-90t43-73.5T283 85t96-18q59 0 112 24t95 75zM487 764h-74l125 144h111z"/><glyph glyph-name="cacute" unicode="ć" horiz-adv-x="496" d="M419 353q-12 24-40.5 40.5T315 410q-41 0-75.5-16.5t-59.5-45-39-66-14-79.5q0-29 8.5-54t25.5-43.5T203.5 76 263 65q45 0 76 16t54 41l56-52q-38-38-84.5-60.5T257-13q-51 0-92.5 15T94 44t-45 64.5T33 192q0 59 20.5 112.5t58 94T202 463t118 24q26 0 51.5-5t48-14.5 41-24.5 30.5-36zm-80 211h-74l125 144h111z"/><glyph glyph-name="Ccircumflex" unicode="Ĉ" horiz-adv-x="700" d="M652 111q-21-27-49-50.5t-63-41T462.5-8 370-18q-71 0-129.5 22t-100 62T76 162 53 286q0 92 32.5 172T175 597.5t133.5 94T473 726q39 0 75.5-8t67.5-22.5 56-34.5 40-45l-81-59q-8 15-22 30t-34.5 27.5-46.5 20-58 7.5q-69 0-127-29.5T243 535t-65-110-23-127q0-48 14.5-90t43-73.5T283 85t96-18q59 0 112 24t95 75zm11 653h-86l-59 99-94-99h-91l138 144h106z"/><glyph glyph-name="ccircumflex" unicode="ĉ" horiz-adv-x="496" d="M419 353q-12 24-40.5 40.5T315 410q-41 0-75.5-16.5t-59.5-45-39-66-14-79.5q0-29 8.5-54t25.5-43.5T203.5 76 263 65q45 0 76 16t54 41l56-52q-38-38-84.5-60.5T257-13q-51 0-92.5 15T94 44t-45 64.5T33 192q0 59 20.5 112.5t58 94T202 463t118 24q26 0 51.5-5t48-14.5 41-24.5 30.5-36zm94 211h-86l-59 99-94-99h-91l138 144h106z"/><glyph glyph-name="Cdotaccent" unicode="Ċ" horiz-adv-x="700" d="M652 111q-21-27-49-50.5t-63-41T462.5-8 370-18q-71 0-129.5 22t-100 62T76 162 53 286q0 92 32.5 172T175 597.5t133.5 94T473 726q39 0 75.5-8t67.5-22.5 56-34.5 40-45l-81-59q-8 15-22 30t-34.5 27.5-46.5 20-58 7.5q-69 0-127-29.5T243 535t-65-110-23-127q0-48 14.5-90t43-73.5T283 85t96-18q59 0 112 24t95 75zm-91 736q0-25-17-43t-42-18q-24 0-41.5 15T443 843t18.5 44.5T504 905t40.5-16 16.5-42z"/><glyph glyph-name="cdotaccent" unicode="ċ" horiz-adv-x="496" d="M419 353q-12 24-40.5 40.5T315 410q-41 0-75.5-16.5t-59.5-45-39-66-14-79.5q0-29 8.5-54t25.5-43.5T203.5 76 263 65q45 0 76 16t54 41l56-52q-38-38-84.5-60.5T257-13q-51 0-92.5 15T94 44t-45 64.5T33 192q0 59 20.5 112.5t58 94T202 463t118 24q26 0 51.5-5t48-14.5 41-24.5 30.5-36zm-7 294q0-25-17-43t-42-18q-24 0-41.5 15T294 643t18.5 44.5T355 705t40.5-16 16.5-42z"/><glyph glyph-name="Ccaron" unicode="Č" horiz-adv-x="700" d="M652 111q-21-27-49-50.5t-63-41T462.5-8 370-18q-71 0-129.5 22t-100 62T76 162 53 286q0 92 32.5 172T175 597.5t133.5 94T473 726q39 0 75.5-8t67.5-22.5 56-34.5 40-45l-81-59q-8 15-22 30t-34.5 27.5-46.5 20-58 7.5q-69 0-127-29.5T243 535t-65-110-23-127q0-48 14.5-90t43-73.5T283 85t96-18q59 0 112 24t95 75zM543 764H437l-86 144h87l58-99 94 99h90z"/><glyph glyph-name="ccaron" unicode="č" horiz-adv-x="496" d="M419 353q-12 24-40.5 40.5T315 410q-41 0-75.5-16.5t-59.5-45-39-66-14-79.5q0-29 8.5-54t25.5-43.5T203.5 76 263 65q45 0 76 16t54 41l56-52q-38-38-84.5-60.5T257-13q-51 0-92.5 15T94 44t-45 64.5T33 192q0 59 20.5 112.5t58 94T202 463t118 24q26 0 51.5-5t48-14.5 41-24.5 30.5-36zm-28 211H285l-86 144h87l58-99 94 99h90z"/><glyph glyph-name="Dcaron" unicode="Ď" horiz-adv-x="757" d="M157 708h229q60 0 119-16.5t106-52 76-92T716 412q0-93-32.5-169T593 113 456 29.5 284 0H32zM144 86h145q80 0 140.5 26.5T531 183t61.5 100.5T613 400q0 46-15 86.5t-45.5 71-78 48.5T362 624H239zm322 678H360l-86 144h87l58-99 94 99h90z"/><glyph glyph-name="dcaron" unicode="ď" horiz-adv-x="628" d="M30 193q0 61 20 114.5t56 93.5 85.5 63T300 487q58 0 100.5-24t64.5-67h2l63 360h93L489 0h-90l13 76h-2q-26-39-72-63.5T237-12q-47 0-85 15T87 45t-42 64.5T30 193zm96 9q0-58 34-97.5T258 65q39 0 73.5 16.5t60 45 40 66.5 14.5 80q0 30-9.5 55.5T409 372t-43 28.5-56 10.5q-42 0-76-16.5T176 350t-37-66.5-13-81.5zm577 316h-77l104 190h93z"/><glyph glyph-name="Dcroat" unicode="Đ" horiz-adv-x="757" d="M157 708h229q60 0 119-16.5t106-52 76-92T716 412q0-93-32.5-169T593 113 456 29.5 284 0H32l59 336H25l13 69h66zM144 86h145q80 0 140.5 26.5T531 183t61.5 100.5T613 400q0 46-15 86.5t-45.5 71-78 48.5T362 624H239l-39-219h230l-14-69H188z"/><glyph glyph-name="dcroat" unicode="đ" horiz-adv-x="628" d="M508 633l22 123h93l-22-123h57l-11-63h-57L489 0h-90l13 76h-2q-26-39-72-63.5T237-12q-47 0-85 15T87 45t-42 64.5T30 193q0 61 20 114.5t56 93.5 85.5 63T300 487q58 0 100.5-24t64.5-67h2l30 174H334l11 63h163zM126 202q0-58 34-97.5T258 65q39 0 73.5 16.5t60 45 40 66.5 14.5 80q0 30-9.5 55.5T409 372t-43 28.5-56 10.5q-42 0-76-16.5T176 350t-37-66.5-13-81.5z"/><glyph glyph-name="Emacron" unicode="Ē" horiz-adv-x="582" d="M144 87h367L496 0H32l125 708h436l-15-86H238l-37-214h324l-15-83H186zm389 710H239l11 66h295z"/><glyph glyph-name="emacron" unicode="ē" horiz-adv-x="565" d="M122 209q-1-5-1-8.5V193q0-28 10.5-51.5t29-41 44-27T259 64q51 0 87.5 20.5T408 136l55-52q-42-48-96-72.5T250-13q-47 0-87.5 14t-70 41-46 66T30 197q0 59 21 112t58 92.5 88 62.5 110 23q91 0 144-49.5T504 299q0-14-2.5-40.5T494 209H122zm293 68q1 7 1.5 15t.5 15q0 46-30 76.5T300 414q-34 0-62-12t-49.5-31-36-44-20.5-50h283zm70 320H191l11 66h295z"/><glyph glyph-name="Ebreve" unicode="Ĕ" horiz-adv-x="582" d="M144 87h367L496 0H32l125 708h436l-15-86H238l-37-214h324l-15-83H186zm418 821q-14-66-61.5-102T387 770t-104 33.5T245 908h56q0-20 7-34t19-22.5 28.5-12T391 836q42 0 73.5 15.5T507 908h55z"/><glyph glyph-name="ebreve" unicode="ĕ" horiz-adv-x="565" d="M122 209q-1-5-1-8.5V193q0-28 10.5-51.5t29-41 44-27T259 64q51 0 87.5 20.5T408 136l55-52q-42-48-96-72.5T250-13q-47 0-87.5 14t-70 41-46 66T30 197q0 59 21 112t58 92.5 88 62.5 110 23q91 0 144-49.5T504 299q0-14-2.5-40.5T494 209H122zm293 68q1 7 1.5 15t.5 15q0 46-30 76.5T300 414q-34 0-62-12t-49.5-31-36-44-20.5-50h283zm94 431q-14-66-61.5-102T334 570t-104 33.5T192 708h56q0-20 7-34t19-22.5 28.5-12T338 636q42 0 73.5 15.5T454 708h55z"/><glyph glyph-name="Edotaccent" unicode="Ė" horiz-adv-x="582" d="M144 87h367L496 0H32l125 708h436l-15-86H238l-37-214h324l-15-83H186zm308 760q0-25-17-43t-42-18q-24 0-41.5 15T334 843t18.5 44.5T395 905t40.5-16 16.5-42z"/><glyph glyph-name="edotaccent" unicode="ė" horiz-adv-x="565" d="M122 209q-1-5-1-8.5V193q0-28 10.5-51.5t29-41 44-27T259 64q51 0 87.5 20.5T408 136l55-52q-42-48-96-72.5T250-13q-47 0-87.5 14t-70 41-46 66T30 197q0 59 21 112t58 92.5 88 62.5 110 23q91 0 144-49.5T504 299q0-14-2.5-40.5T494 209H122zm293 68q1 7 1.5 15t.5 15q0 46-30 76.5T300 414q-34 0-62-12t-49.5-31-36-44-20.5-50h283zm-12 370q0-25-17-43t-42-18q-24 0-41.5 15T285 643t18.5 44.5T346 705t40.5-16 16.5-42z"/><glyph glyph-name="Eogonek" unicode="Ę" horiz-adv-x="582" d="M490-191q-23-17-48-27t-51-10q-35 0-59 18.5T308-153q0 23 11 45t27.5 41.5 36.5 36T422 0H32l125 708h436l-15-86H238l-37-214h324l-15-83H186L144 87h367L496 0h-19l-37-32.5L408.5-66 387-100l-8-33q0-20 12-27.5t29-7.5q30 0 56 21z"/><glyph glyph-name="eogonek" unicode="ę" horiz-adv-x="565" d="M314-191q-23-17-48-27t-51-10q-35 0-59 18.5T132-153q0 21 8.5 40.5T163-75t31.5 33.5T230-12q-44 3-80.5 18.5t-63 42-41.5 64T30 197q0 59 21 112t58 92.5 88 62.5 110 23q91 0 144-49.5T504 299q0-14-2.5-40.5T494 209H122q-1-5-1-8.5V193q0-28 10.5-51.5t29-41 44-27T259 64q51 0 87.5 20.5T408 136l55-52q-35-41-79-64t-95-30q-35-30-60.5-61.5T203-133q0-20 12-27.5t29-7.5q30 0 56 21zm101 468q1 7 1.5 15t.5 15q0 46-30 76.5T300 414q-34 0-62-12t-49.5-31-36-44-20.5-50h283z"/><glyph glyph-name="Ecaron" unicode="Ě" horiz-adv-x="582" d="M144 87h367L496 0H32l125 708h436l-15-86H238l-37-214h324l-15-83H186zm293 677H331l-86 144h87l58-99 94 99h90z"/><glyph glyph-name="ecaron" unicode="ě" horiz-adv-x="565" d="M122 209q-1-5-1-8.5V193q0-28 10.5-51.5t29-41 44-27T259 64q51 0 87.5 20.5T408 136l55-52q-42-48-96-72.5T250-13q-47 0-87.5 14t-70 41-46 66T30 197q0 59 21 112t58 92.5 88 62.5 110 23q91 0 144-49.5T504 299q0-14-2.5-40.5T494 209H122zm293 68q1 7 1.5 15t.5 15q0 46-30 76.5T300 414q-34 0-62-12t-49.5-31-36-44-20.5-50h283zm-37 287H272l-86 144h87l58-99 94 99h90z"/><glyph glyph-name="Gcircumflex" unicode="Ĝ" horiz-adv-x="755" d="M387 67q99 1 164 38l35 198H426l16 84h254L636 44Q578 13 511.5-2.5T375-18q-72 0-131.5 22t-102 62T76 162 53 286q0 92 32.5 172T175 597.5t133.5 94T473 726q78 0 143.5-28T717 616l-81-59q-20 33-61 59t-105 26q-69 0-127-29.5T243 535t-65-110-23-127q0-49 15.5-91.5t45-73.5T288 84.5 387 67zm267 697h-86l-59 99-94-99h-91l138 144h106z"/><glyph glyph-name="gcircumflex" unicode="ĝ" horiz-adv-x="630" d="M51-83q26-35 69.5-55.5T214-159q47 0 80 13.5t55.5 37T385-53t21 69l12 63h-2q-29-39-73-61.5T245-5q-47 0-85 15.5T95 53t-41.5 65T39 201q0 59 20 111t56 91 85 61.5T308 487q58 0 101-24t62-66h3l13 77h90L498 23q-9-51-26.5-98.5t-50-84-83-58.5T213-240q-64 0-125.5 23.5T-11-150zm83 291q0-29 9-53.5t26-43.5 42-29.5T268 71q40 0 74 16.5t59 44 39 64.5 14 78q0 59-36.5 98T318 411q-41 0-75-15.5T185 353t-37.5-64-13.5-81zm393 356h-86l-59 99-94-99h-91l138 144h106z"/><glyph glyph-name="Gbreve" unicode="Ğ" horiz-adv-x="755" d="M387 67q99 1 164 38l35 198H426l16 84h254L636 44Q578 13 511.5-2.5T375-18q-72 0-131.5 22t-102 62T76 162 53 286q0 92 32.5 172T175 597.5t133.5 94T473 726q78 0 143.5-28T717 616l-81-59q-20 33-61 59t-105 26q-69 0-127-29.5T243 535t-65-110-23-127q0-49 15.5-91.5t45-73.5T288 84.5 387 67zm273 841q-14-66-61.5-102T485 770t-104 33.5T343 908h56q0-20 7-34t19-22.5 28.5-12T489 836q42 0 73.5 15.5T605 908h55z"/><glyph glyph-name="gbreve" unicode="ğ" horiz-adv-x="630" d="M51-83q26-35 69.5-55.5T214-159q47 0 80 13.5t55.5 37T385-53t21 69l12 63h-2q-29-39-73-61.5T245-5q-47 0-85 15.5T95 53t-41.5 65T39 201q0 59 20 111t56 91 85 61.5T308 487q58 0 101-24t62-66h3l13 77h90L498 23q-9-51-26.5-98.5t-50-84-83-58.5T213-240q-64 0-125.5 23.5T-11-150zm83 291q0-29 9-53.5t26-43.5 42-29.5T268 71q40 0 74 16.5t59 44 39 64.5 14 78q0 59-36.5 98T318 411q-41 0-75-15.5T185 353t-37.5-64-13.5-81zm401 500q-14-66-61.5-102T360 570t-104 33.5T218 708h56q0-20 7-34t19-22.5 28.5-12T364 636q42 0 73.5 15.5T480 708h55z"/><glyph glyph-name="Gdotaccent" unicode="Ġ" horiz-adv-x="755" d="M387 67q99 1 164 38l35 198H426l16 84h254L636 44Q578 13 511.5-2.5T375-18q-72 0-131.5 22t-102 62T76 162 53 286q0 92 32.5 172T175 597.5t133.5 94T473 726q78 0 143.5-28T717 616l-81-59q-20 33-61 59t-105 26q-69 0-127-29.5T243 535t-65-110-23-127q0-49 15.5-91.5t45-73.5T288 84.5 387 67zm173 780q0-25-17-43t-42-18q-24 0-41.5 15T442 843t18.5 44.5T503 905t40.5-16 16.5-42z"/><glyph glyph-name="gdotaccent" unicode="ġ" horiz-adv-x="630" d="M51-83q26-35 69.5-55.5T214-159q47 0 80 13.5t55.5 37T385-53t21 69l12 63h-2q-29-39-73-61.5T245-5q-47 0-85 15.5T95 53t-41.5 65T39 201q0 59 20 111t56 91 85 61.5T308 487q58 0 101-24t62-66h3l13 77h90L498 23q-9-51-26.5-98.5t-50-84-83-58.5T213-240q-64 0-125.5 23.5T-11-150zm83 291q0-29 9-53.5t26-43.5 42-29.5T268 71q40 0 74 16.5t59 44 39 64.5 14 78q0 59-36.5 98T318 411q-41 0-75-15.5T185 353t-37.5-64-13.5-81zm294 439q0-25-17-43t-42-18q-24 0-41.5 15T310 643t18.5 44.5T371 705t40.5-16 16.5-42z"/><glyph glyph-name="Gcommaaccent" unicode="Ģ" horiz-adv-x="755" d="M387 67q99 1 164 38l35 198H426l16 84h254L636 44Q578 13 511.5-2.5T375-18q-72 0-131.5 22t-102 62T76 162 53 286q0 92 32.5 172T175 597.5t133.5 94T473 726q78 0 143.5-28T717 616l-81-59q-20 33-61 59t-105 26q-69 0-127-29.5T243 535t-65-110-23-127q0-49 15.5-91.5t45-73.5T288 84.5 387 67zm-93-302h-77L321-45h93z"/><glyph glyph-name="gcommaaccent" unicode="ģ" horiz-adv-x="630" d="M51-83q26-35 69.5-55.5T214-159q47 0 80 13.5t55.5 37T385-53t21 69l12 63h-2q-29-39-73-61.5T245-5q-47 0-85 15.5T95 53t-41.5 65T39 201q0 59 20 111t56 91 85 61.5T308 487q58 0 101-24t62-66h3l13 77h90L498 23q-9-51-26.5-98.5t-50-84-83-58.5T213-240q-64 0-125.5 23.5T-11-150zm83 291q0-29 9-53.5t26-43.5 42-29.5T268 71q40 0 74 16.5t59 44 39 64.5 14 78q0 59-36.5 98T318 411q-41 0-75-15.5T185 353t-37.5-64-13.5-81zm280 551h77L387 564h-93z"/><glyph glyph-name="Hcircumflex" unicode="Ĥ" horiz-adv-x="719" d="M157 708h98l-53-297h350l53 297h98L578 0h-98l57 325H187L130 0H32zm445 56h-86l-59 99-94-99h-91l138 144h106z"/><glyph glyph-name="hcircumflex" unicode="ĥ" horiz-adv-x="581" d="M347 487q78 0 118-41.5T505 341q0-25-4-48L449 0h-93l46 262q6 27 6 53 0 41-20 67t-72 26q-57 0-97.5-42.5T165 251L121 0H28l133 756h93l-62-354h2q23 36 62.5 60.5T347 487zm204 309h-86l-59 99-94-99h-91l138 144h106z"/><glyph glyph-name="Hbar" unicode="Ħ" horiz-adv-x="719" d="M157 708h98l-26-145h350l26 145h98L578 0h-98l57 325H187L130 0H32zm395-297l16 89H218l-16-89h350z"/><glyph glyph-name="hbar" unicode="ħ" horiz-adv-x="581" d="M139 633l22 123h93l-22-123h158l-11-63H221l-29-168h2q23 36 62.5 60.5T347 487q78 0 118-41.5T505 341q0-25-4-48L449 0h-93l46 262q6 27 6 53 0 41-20 67t-72 26q-57 0-97.5-42.5T165 251L121 0H28l100 570H67l11 63h61z"/><glyph glyph-name="Itilde" unicode="Ĩ" horiz-adv-x="271" d="M130 0H32l125 708h98zM39 772q7 22 18 42.5T82.5 851t34 26 45.5 10q20 0 37.5-6t34.5-15q17-8 33-14.5t30-6.5q21 0 34 15t21 32h55q-8-22-18.5-42.5T363 813t-34.5-26-44.5-10q-18 0-35 6t-34 14q-17 9-33.5 15.5T150 819q-22 0-35-15t-21-32H39z"/><glyph glyph-name="itilde" unicode="ĩ" horiz-adv-x="259" d="M121 0H29l83 474h93zM-6 572q7 22 18 42.5T37.5 651t34 26 45.5 10q20 0 37.5-6t34.5-15q17-8 33-14.5t30-6.5q21 0 34 15t21 32h55q-8-22-18.5-42.5T318 613t-34.5-26-44.5-10q-18 0-35 6t-34 14q-17 9-33.5 15.5T105 619q-22 0-35-15t-21-32H-6z"/><glyph glyph-name="Imacron" unicode="Ī" horiz-adv-x="271" d="M130 0H32l125 708h98zm236 797H72l11 66h295z"/><glyph glyph-name="imacron" unicode="ī" horiz-adv-x="259" d="M121 0H29l83 474h93zm201 597H28l11 66h295z"/><glyph glyph-name="Iogonek" unicode="Į" horiz-adv-x="271" d="M139-191q-23-17-48-27t-51-10q-35 0-59 18.5T-43-153q0 23 11 45t27.5 41.5 36.5 36T71 0H32l125 708h98L130 0h-4L89-32.5 57.5-66 36-100l-8-33q0-20 12-27.5t29-7.5q30 0 56 21z"/><glyph glyph-name="iogonek" unicode="į" horiz-adv-x="259" d="M129-191q-23-17-48-27t-51-10q-35 0-59 18.5T-53-153q0 23 11 45t27.5 41.5 36.5 36T61 0H29l83 474h93L121 0h-5L79-32.5 47.5-66 26-100l-8-33q0-20 12-27.5t29-7.5q30 0 56 21zm116 838q0-25-17-43t-42-18q-24 0-41.5 15T127 643t18.5 44.5T188 705t40.5-16 16.5-42z"/><glyph glyph-name="Idotaccent" unicode="İ" horiz-adv-x="271" d="M130 0H32l125 708h98zm154 847q0-25-17-43t-42-18q-24 0-41.5 15T166 843t18.5 44.5T227 905t40.5-16 16.5-42z"/><glyph glyph-name="dotlessi" unicode="ı" horiz-adv-x="259" d="M121 0H29l83 474h93z"/><glyph glyph-name="Jcircumflex" unicode="Ĵ" horiz-adv-x="491" d="M72 155q5-36 29-61.5T166 68q34 0 56.5 12t37 33 23 49 13.5 59l86 487h98l-87-492q-6-38-18.5-79T337 61.5t-65-57T169-18q-41 0-73.5 11t-56 31-38 46.5T-17 129zm527 609h-86l-59 99-94-99h-91l138 144h106z"/><glyph glyph-name="jcircumflex" unicode="ĵ" horiz-adv-x="259" d="M-99-155q18-5 37-5 21 0 35 8t23 21.5 14 32T19-59l94 533h93L111-62q-6-35-16.5-67.5t-30-57-50.5-39-77-14.5q-13 0-28.5 2t-26.5 4zm435 719h-86l-59 99-94-99H6l138 144h106z"/><glyph glyph-name="Kcommaaccent" unicode="Ķ" horiz-adv-x="621" d="M198 392h2l339 316h136L298 377 583 0H456L195 366h-2L129 0H32l125 708h97zm7-627h-77L232-45h93z"/><glyph glyph-name="kcommaaccent" unicode="ķ" horiz-adv-x="504" d="M169 267h3l228 207h123L267 254 462 0H345L168 246h-3L122 0H29l133 756h93zm-13-502H79L183-45h93z"/><glyph glyph-name="Lacute" unicode="Ĺ" horiz-adv-x="511" d="M144 87h317L447 0H32l125 708h98zm107 677h-74l125 144h111z"/><glyph glyph-name="lacute" unicode="ĺ" horiz-adv-x="260" d="M122 0H29l133 756h94zm116 792h-74l125 144h111z"/><glyph glyph-name="Lcommaaccent" unicode="Ļ" horiz-adv-x="511" d="M144 87h317L447 0H32l125 708h98zm24-322H91L195-45h93z"/><glyph glyph-name="lcommaaccent" unicode="ļ" horiz-adv-x="260" d="M122 0H29l133 756h94zM10-235h-77L37-45h93z"/><glyph glyph-name="Lcaron" unicode="Ľ" horiz-adv-x="511" d="M144 87h317L447 0H32l125 708h98zm220 431h-77l104 190h93z"/><glyph glyph-name="lcaron" unicode="ľ" horiz-adv-x="260" d="M122 0H29l133 756h94zm206 518h-77l104 190h93z"/><glyph glyph-name="Ldot" unicode="Ŀ" horiz-adv-x="511" d="M144 87h317L447 0H32l125 708h98zm302 250q0-25-17-43t-42-18q-24 0-41.5 15T328 333t18.5 44.5T389 395t40.5-16 16.5-42z"/><glyph glyph-name="ldot" unicode="ŀ" horiz-adv-x="350" d="M122 0H29l133 756h94zm244 337q0-25-17-43t-42-18q-24 0-41.5 15T248 333t18.5 44.5T309 395t40.5-16 16.5-42z"/><glyph glyph-name="Lslash" unicode="Ł" horiz-adv-x="511" d="M198 384l244 184-16-89-244-184-37-208h317L447 0H32l40 222-89-66 16 90 88 65 70 397h98z"/><glyph glyph-name="lslash" unicode="ł" horiz-adv-x="260" d="M206 479l89 77-16-90-89-75L121 0H29l56 315-89-76 16 90 89 76 61 351h93z"/><glyph glyph-name="Nacute" unicode="Ń" horiz-adv-x="768" d="M541 138h2l100 570h98L616 0H494L234 582h-2L129 0H32l125 708h125zm-82 626h-74l125 144h111z"/><glyph glyph-name="nacute" unicode="ń" horiz-adv-x="581" d="M196 474q-2-14-4.5-37.5T186 397h2q26 41 66.5 65.5T346 487q78 0 118.5-41.5T505 341q0-25-4-48L449 0h-93l46 262q6 27 6 53 0 41-20 67t-72 26q-56 0-97-42.5T165 252L121 0H28l65 371q4 19 8.5 49t6.5 54h88zm140 90h-74l125 144h111z"/><glyph glyph-name="Ncommaaccent" unicode="Ņ" horiz-adv-x="768" d="M541 138h2l100 570h98L616 0H494L234 582h-2L129 0H32l125 708h125zM242-235h-77L269-45h93z"/><glyph glyph-name="ncommaaccent" unicode="ņ" horiz-adv-x="581" d="M196 474q-2-14-4.5-37.5T186 397h2q26 41 66.5 65.5T346 487q78 0 118.5-41.5T505 341q0-25-4-48L449 0h-93l46 262q6 27 6 53 0 41-20 67t-72 26q-56 0-97-42.5T165 252L121 0H28l65 371q4 19 8.5 49t6.5 54h88zm-31-709H88L192-45h93z"/><glyph glyph-name="Ncaron" unicode="Ň" horiz-adv-x="768" d="M541 138h2l100 570h98L616 0H494L234 582h-2L129 0H32l125 708h125zm-34 626H401l-86 144h87l58-99 94 99h90z"/><glyph glyph-name="ncaron" unicode="ň" horiz-adv-x="581" d="M196 474q-2-14-4.5-37.5T186 397h2q26 41 66.5 65.5T346 487q78 0 118.5-41.5T505 341q0-25-4-48L449 0h-93l46 262q6 27 6 53 0 41-20 67t-72 26q-56 0-97-42.5T165 252L121 0H28l65 371q4 19 8.5 49t6.5 54h88zm187 90H277l-86 144h87l58-99 94 99h90z"/><glyph glyph-name="Omacron" unicode="Ō" horiz-adv-x="831" d="M381-18q-74 0-134.5 21.5T143 65t-66.5 96.5T53 288q0 91 31.5 170.5t87 139 130.5 94T465 726q72 0 132-21.5T700 643t66.5-96T790 421q0-91-30.5-171T674 110.5t-130-94T381-18zm307 430q0 48-15 89.5t-44 73-71.5 49.5-97.5 18q-69 0-125.5-29.5t-96.5-78T176.5 424 155 297q0-47 15-89t43.5-73.5 71-49.5T383 67q70 0 126.5 29t96 77.5 61 110.5T688 412zm-45 385H349l11 66h295z"/><glyph glyph-name="omacron" unicode="ō" horiz-adv-x="600" d="M255-13q-49 0-90 15T94 44.5 47 110t-17 84q0 59 20.5 112t58 93.5 90 64T315 487q49 0 90-15t71-42 46.5-64.5T539 282q0-60-20.5-113.5t-58-94-89.5-64T255-13zm190 286q0 29-9.5 54t-27 43.5-43 29T309 410q-41 0-75-17t-58.5-45.5-38-66T124 202q0-60 36-98.5T260 65q41 0 75 16.5t58.5 45 38 66.5 13.5 80zm44 324H195l11 66h295z"/><glyph glyph-name="Obreve" unicode="Ŏ" horiz-adv-x="831" d="M381-18q-74 0-134.5 21.5T143 65t-66.5 96.5T53 288q0 91 31.5 170.5t87 139 130.5 94T465 726q72 0 132-21.5T700 643t66.5-96T790 421q0-91-30.5-171T674 110.5t-130-94T381-18zm307 430q0 48-15 89.5t-44 73-71.5 49.5-97.5 18q-69 0-125.5-29.5t-96.5-78T176.5 424 155 297q0-47 15-89t43.5-73.5 71-49.5T383 67q70 0 126.5 29t96 77.5 61 110.5T688 412zm-26 496q-14-66-61.5-102T487 770t-104 33.5T345 908h56q0-20 7-34t19-22.5 28.5-12T491 836q42 0 73.5 15.5T607 908h55z"/><glyph glyph-name="obreve" unicode="ŏ" horiz-adv-x="600" d="M255-13q-49 0-90 15T94 44.5 47 110t-17 84q0 59 20.5 112t58 93.5 90 64T315 487q49 0 90-15t71-42 46.5-64.5T539 282q0-60-20.5-113.5t-58-94-89.5-64T255-13zm190 286q0 29-9.5 54t-27 43.5-43 29T309 410q-41 0-75-17t-58.5-45.5-38-66T124 202q0-60 36-98.5T260 65q41 0 75 16.5t58.5 45 38 66.5 13.5 80zm64 435q-14-66-61.5-102T334 570t-104 33.5T192 708h56q0-20 7-34t19-22.5 28.5-12T338 636q42 0 73.5 15.5T454 708h55z"/><glyph glyph-name="Ohungarumlaut" unicode="Ő" horiz-adv-x="831" d="M381-18q-74 0-134.5 21.5T143 65t-66.5 96.5T53 288q0 91 31.5 170.5t87 139 130.5 94T465 726q72 0 132-21.5T700 643t66.5-96T790 421q0-91-30.5-171T674 110.5t-130-94T381-18zm307 430q0 48-15 89.5t-44 73-71.5 49.5-97.5 18q-69 0-125.5-29.5t-96.5-78T176.5 424 155 297q0-47 15-89t43.5-73.5 71-49.5T383 67q70 0 126.5 29t96 77.5 61 110.5T688 412zm-76 352h-76l126 144h113zm-180 0h-76l125 144h113z"/><glyph glyph-name="ohungarumlaut" unicode="ő" horiz-adv-x="600" d="M255-13q-49 0-90 15T94 44.5 47 110t-17 84q0 59 20.5 112t58 93.5 90 64T315 487q49 0 90-15t71-42 46.5-64.5T539 282q0-60-20.5-113.5t-58-94-89.5-64T255-13zm190 286q0 29-9.5 54t-27 43.5-43 29T309 410q-41 0-75-17t-58.5-45.5-38-66T124 202q0-60 36-98.5T260 65q41 0 75 16.5t58.5 45 38 66.5 13.5 80zm13 291h-76l126 144h113zm-180 0h-76l125 144h113z"/><glyph glyph-name="OE" unicode="Œ" horiz-adv-x="988" d="M984 623H657l-38-215h312l-15-82H605L562 87h355L902 0H383q-60 0-119 16.5t-106 52T82 160 53 296q0 93 32.5 169T176 595t137 83.5T485 708h514zm-504 1q-80 0-140.5-26.5T238 527t-62-100.5T155 310q0-46 14.5-87t45.5-71.5 78.5-48.5T406 85h61l95 539h-82z"/><glyph glyph-name="oe" unicode="œ" horiz-adv-x="971" d="M910 299q0-14-2.5-40t-8.5-49H528q-2-5-2-9v-8q0-28 10.5-52t29-41 44-27T664 63q51 0 87.5 21t62.5 52l55-51q-86-98-214-98-71 0-118.5 29T465 93q-32-47-84.5-76.5T253-13q-49 0-90 15T92.5 44t-46 65T30 193q0 60 21 113t59 93.5 90.5 64T316 487q69 0 117-28.5t71-79.5q33 50 88.5 79T712 487q91 0 144.5-49.5T910 299zm-87 7q0 47-30 78t-87 31q-34 0-62.5-12t-50-31.5-36-44.5-20.5-51h284q1 8 1.5 15.5t.5 15.5v-1zm-378-33q0 29-9.5 54.5t-27 44-42.5 29-57 10.5q-40 0-74-17t-58.5-45.5T138 282t-14-80q0-30 9-55t26.5-43.5 42.5-29T259 64q40 0 74.5 17t59 45.5T431 193t14 80z"/><glyph glyph-name="Racute" unicode="Ŕ" horiz-adv-x="612" d="M129 0H32l125 708h201q52 0 95-11.5t73.5-34 47-55T590 532q0-46-15-81t-41-60.5-62-41.5-79-23L544 0H434L293 316H184zm69 397h109q38 0 71.5 6t58 20.5 39 38T490 521q0 56-39.5 80T343 625H239zm170 367h-74l125 144h111z"/><glyph glyph-name="racute" unicode="ŕ" horiz-adv-x="343" d="M92 371q4 19 8.5 49t6.5 54h88q-1-7-2-17.5t-2.5-22l-3-22L185 394h2q25 42 62.5 67.5T335 487q22 0 37-4l-16-87q-20 5-41 5-34 0-60-12.5T210 355t-30.5-48.5T163 249L119 0H27zm132 193h-74l125 144h111z"/><glyph glyph-name="Rcommaaccent" unicode="Ŗ" horiz-adv-x="612" d="M129 0H32l125 708h201q52 0 95-11.5t73.5-34 47-55T590 532q0-46-15-81t-41-60.5-62-41.5-79-23L544 0H434L293 316H184zm69 397h109q38 0 71.5 6t58 20.5 39 38T490 521q0 56-39.5 80T343 625H239zm-12-632h-77L213-45h93z"/><glyph glyph-name="rcommaaccent" unicode="ŗ" horiz-adv-x="343" d="M92 371q4 19 8.5 49t6.5 54h88q-1-7-2-17.5t-2.5-22l-3-22L185 394h2q25 42 62.5 67.5T335 487q22 0 37-4l-16-87q-20 5-41 5-34 0-60-12.5T210 355t-30.5-48.5T163 249L119 0H27zM5-236h-77L32-46h93z"/><glyph glyph-name="Rcaron" unicode="Ř" horiz-adv-x="612" d="M129 0H32l125 708h201q52 0 95-11.5t73.5-34 47-55T590 532q0-46-15-81t-41-60.5-62-41.5-79-23L544 0H434L293 316H184zm69 397h109q38 0 71.5 6t58 20.5 39 38T490 521q0 56-39.5 80T343 625H239zm219 367H311l-86 144h87l58-99 94 99h90z"/><glyph glyph-name="rcaron" unicode="ř" horiz-adv-x="343" d="M92 371q4 19 8.5 49t6.5 54h88q-1-7-2-17.5t-2.5-22l-3-22L185 394h2q25 42 62.5 67.5T335 487q22 0 37-4l-16-87q-20 5-41 5-34 0-60-12.5T210 355t-30.5-48.5T163 249L119 0H27zm209 193H195l-86 144h87l58-99 94 99h90z"/><glyph glyph-name="Sacute" unicode="Ś" horiz-adv-x="569" d="M481 580q-20 29-54 46.5T350 644q-25 0-51.5-7t-49-22.5-37-39.5-14.5-57q0-23 8.5-40t23.5-30 36-23.5 46-19.5q39-14 72.5-31.5t59-41 40-54T498 208q0-49-18.5-90.5t-53-71.5T343-1 233-18q-34 0-67.5 7T101 9.5t-56.5 34T2 92l82 55q20-35 60.5-58.5T237 65q30 0 58.5 8.5t50.5 25 35.5 41T395 197q0 27-11 47t-30 35-44 26.5-53 21.5q-31 12-60 27t-51 36-35 50-13 69q0 49 19.5 89.5T172 667t83 43.5T359 726q62 0 115.5-23t82.5-65zM363 764h-74l125 144h111z"/><glyph glyph-name="sacute" unicode="ś" horiz-adv-x="444" d="M347 360q-14 23-38 38t-62 15q-17 0-34-3.5t-31.5-11T158 378t-9-31q0-30 22-43t63-24q68-20 104.5-51.5T375 139q0-39-17-68t-44.5-48T251-5.5 180-15q-68 0-117.5 25T-14 78l75 49q16-29 47.5-47T180 62q42 0 73 17.5t31 52.5q0 31-24.5 47T186 211q-28 9-51 19t-40 25-26.5 35-9.5 49q0 35 16 62.5t43 46.5 62.5 29 73.5 10q55 0 99-21t66-59zm-72 204h-74l125 144h111z"/><glyph glyph-name="Scircumflex" unicode="Ŝ" horiz-adv-x="569" d="M481 580q-20 29-54 46.5T350 644q-25 0-51.5-7t-49-22.5-37-39.5-14.5-57q0-23 8.5-40t23.5-30 36-23.5 46-19.5q39-14 72.5-31.5t59-41 40-54T498 208q0-49-18.5-90.5t-53-71.5T343-1 233-18q-34 0-67.5 7T101 9.5t-56.5 34T2 92l82 55q20-35 60.5-58.5T237 65q30 0 58.5 8.5t50.5 25 35.5 41T395 197q0 27-11 47t-30 35-44 26.5-53 21.5q-31 12-60 27t-51 36-35 50-13 69q0 49 19.5 89.5T172 667t83 43.5T359 726q62 0 115.5-23t82.5-65zm61 184h-86l-59 99-94-99h-91l138 144h106z"/><glyph glyph-name="scircumflex" unicode="ŝ" horiz-adv-x="444" d="M347 360q-14 23-38 38t-62 15q-17 0-34-3.5t-31.5-11T158 378t-9-31q0-30 22-43t63-24q68-20 104.5-51.5T375 139q0-39-17-68t-44.5-48T251-5.5 180-15q-68 0-117.5 25T-14 78l75 49q16-29 47.5-47T180 62q42 0 73 17.5t31 52.5q0 31-24.5 47T186 211q-28 9-51 19t-40 25-26.5 35-9.5 49q0 35 16 62.5t43 46.5 62.5 29 73.5 10q55 0 99-21t66-59zm96 204h-86l-59 99-94-99h-91l138 144h106z"/><glyph glyph-name="Scedilla" unicode="Ş" horiz-adv-x="569" d="M481 580q-20 29-54 46.5T350 644q-25 0-51.5-7t-49-22.5-37-39.5-14.5-57q0-23 8.5-40t23.5-30 36-23.5 46-19.5q39-14 72.5-31.5t59-41 40-54T498 208q0-46-16.5-85.5T434 53 359 5t-99-22l-44-53q8 2 14 2.5t12 .5q13 0 27.5-3.5t26.5-12 20-22 8-33.5q0-27-13-46t-32.5-30-42.5-16-44-5q-26 0-55 6t-49 17l24 42q17-8 36.5-12.5T188-187q10 0 21 2t21 6.5 16.5 13T253-144q0 21-14.5 29t-33.5 8q-10 0-21-2t-21-5l-17 20 64 77q-63 4-119.5 31T2 92l82 55q20-35 60.5-58.5T237 65q30 0 58.5 8.5t50.5 25 35.5 41T395 197q0 27-11 47t-30 35-44 26.5-53 21.5q-31 12-60 27t-51 36-35 50-13 69q0 49 19.5 89.5T172 667t83 43.5T359 726q62 0 115.5-23t82.5-65z"/><glyph glyph-name="scedilla" unicode="ş" horiz-adv-x="444" d="M347 360q-14 23-38 38t-62 15q-17 0-34-3.5t-31.5-11T158 378t-9-31q0-30 22-43t63-24q68-20 104.5-51.5T375 139q0-36-14-63t-37.5-45.5-54-29.5T206-13l-47-57q8 2 14 2.5t12 .5q13 0 27.5-3.5t26.5-12 20-22 8-33.5q0-27-13-46t-32.5-30-42.5-16-44-5q-26 0-55 6t-49 17l24 42q17-8 36.5-12.5T131-187q10 0 21 2t21 6.5 16.5 13T196-144q0 21-14.5 29t-33.5 8q-10 0-21-2t-21-5L89-94l67 80Q97-9 53.5 15T-14 78l75 49q16-29 47.5-47T180 62q42 0 73 17.5t31 52.5q0 31-24.5 47T186 211q-28 9-51 19t-40 25-26.5 35-9.5 49q0 35 16 62.5t43 46.5 62.5 29 73.5 10q55 0 99-21t66-59z"/><glyph glyph-name="Scaron" unicode="Š" horiz-adv-x="569" d="M481 580q-20 29-54 46.5T350 644q-25 0-51.5-7t-49-22.5-37-39.5-14.5-57q0-23 8.5-40t23.5-30 36-23.5 46-19.5q39-14 72.5-31.5t59-41 40-54T498 208q0-49-18.5-90.5t-53-71.5T343-1 233-18q-34 0-67.5 7T101 9.5t-56.5 34T2 92l82 55q20-35 60.5-58.5T237 65q30 0 58.5 8.5t50.5 25 35.5 41T395 197q0 27-11 47t-30 35-44 26.5-53 21.5q-31 12-60 27t-51 36-35 50-13 69q0 49 19.5 89.5T172 667t83 43.5T359 726q62 0 115.5-23t82.5-65zm-69 184H306l-86 144h87l58-99 94 99h90z"/><glyph glyph-name="scaron" unicode="š" horiz-adv-x="444" d="M347 360q-14 23-38 38t-62 15q-17 0-34-3.5t-31.5-11T158 378t-9-31q0-30 22-43t63-24q68-20 104.5-51.5T375 139q0-39-17-68t-44.5-48T251-5.5 180-15q-68 0-117.5 25T-14 78l75 49q16-29 47.5-47T180 62q42 0 73 17.5t31 52.5q0 31-24.5 47T186 211q-28 9-51 19t-40 25-26.5 35-9.5 49q0 35 16 62.5t43 46.5 62.5 29 73.5 10q55 0 99-21t66-59zm-28 204H213l-86 144h87l58-99 94 99h90z"/><glyph glyph-name="Tcommaaccent" unicode="Ţ" horiz-adv-x="535" d="M260 0h-98l110 622H48l15 86h544l-15-86H370zm-78-70q8 2 14 2.5t12 .5q13 0 27.5-3.5t26.5-12 20-22 8-33.5q0-27-13-46t-32.5-30-42.5-16-44-5q-26 0-55 6t-49 17l24 42q17-8 36.5-12.5T154-187q10 0 21 2t21 6.5 16.5 13T219-144q0 21-14.5 29t-33.5 8q-10 0-21-2t-21-5l-17 20 79 94h50z"/><glyph glyph-name="tcommaaccent" unicode="ţ" horiz-adv-x="324" d="M315 398H198l-45-249q-3-17-3-30 0-30 15.5-40.5T207 68q14 0 28 3t23 8l-7-74q-14-6-34.5-9.5T176-8q-55 0-87.5 24.5T56 94q0 11 1 23t3 24l46 257H16l14 76h89l23 136h92l-24-136h119zM139-70q8 2 14 2.5t12 .5q13 0 27.5-3.5t26.5-12 20-22 8-33.5q0-27-13-46t-32.5-30-42.5-16-44-5q-26 0-55 6t-49 17l24 42q17-8 36.5-12.5T111-187q10 0 21 2t21 6.5 16.5 13T176-144q0 21-14.5 29t-33.5 8q-10 0-21-2t-21-5L69-94l79 94h50z"/><glyph glyph-name="Tcaron" unicode="Ť" horiz-adv-x="535" d="M260 0h-98l110 622H48l15 86h544l-15-86H370zm136 764H290l-86 144h87l58-99 94 99h90z"/><glyph glyph-name="tcaron" unicode="ť" horiz-adv-x="324" d="M315 398H198l-45-249q-3-17-3-30 0-30 15.5-40.5T207 68q14 0 28 3t23 8l-7-74q-14-6-34.5-9.5T176-8q-55 0-87.5 24.5T56 94q0 11 1 23t3 24l46 257H16l14 76h89l23 136h92l-24-136h119zm14 143h-77l104 190h93z"/><glyph glyph-name="Tbar" unicode="Ŧ" horiz-adv-x="545" d="M259 525l18 97H53l15 86h544l-15-86H375l-18-97h163l-11-63H346L265 0h-98l81 462H84l11 63h164z"/><glyph glyph-name="tbar" unicode="ŧ" horiz-adv-x="324" d="M89 304l17 94H16l14 76h89l23 136h92l-24-136h119l-14-76H198l-17-94h103l-11-63H169l-16-92q-3-17-3-30 0-30 15.5-40.5T207 68q14 0 28 3t23 8l-7-74q-14-6-34.5-9.5T176-8q-55 0-87.5 24.5T56 94q0 11 1 23t3 24l18 100H6l11 63h72z"/><glyph glyph-name="Utilde" unicode="Ũ" horiz-adv-x="712" d="M317-18q-63 0-109.5 17T130 46t-46.5 69.5T68 200q0 30 6 62l78 446h98l-78-440q-5-28-5-53 0-30 8-56.5t26.5-47T249 79t71-12q52 0 88 17t60 45.5 37.5 64.5 20.5 74l77 440h98l-78-446q-10-54-31.5-104.5t-58-89.5-90-62.5T317-18zm-57 790q7 22 18 42.5t25.5 36.5 34 26 45.5 10q20 0 37.5-6t34.5-15q17-8 33-14.5t30-6.5q21 0 34 15t21 32h55q-8-22-18.5-42.5T584 813t-34.5-26-44.5-10q-18 0-35 6t-34 14q-17 9-33.5 15.5T371 819q-22 0-35-15t-21-32h-55z"/><glyph glyph-name="utilde" unicode="ũ" horiz-adv-x="581" d="M352 0q2 14 5 37.5l5 39.5h-2q-26-41-66.5-65.5T202-13q-78 0-118.5 41.5T43 134q0 11 1.5 23t3.5 24l52 293h92l-46-261q-2-14-3.5-27.5T141 159q0-41 20-67t71-26q56 0 97.5 42.5T383 222l45 252h92l-65-371q-4-19-8.5-49T440 0h-88zM149 572q7 22 18 42.5t25.5 36.5 34 26 45.5 10q20 0 37.5-6t34.5-15q17-8 33-14.5t30-6.5q21 0 34 15t21 32h55q-8-22-18.5-42.5T473 613t-34.5-26-44.5-10q-18 0-35 6t-34 14q-17 9-33.5 15.5T260 619q-22 0-35-15t-21-32h-55z"/><glyph glyph-name="Umacron" unicode="Ū" horiz-adv-x="712" d="M317-18q-63 0-109.5 17T130 46t-46.5 69.5T68 200q0 30 6 62l78 446h98l-78-440q-5-28-5-53 0-30 8-56.5t26.5-47T249 79t71-12q52 0 88 17t60 45.5 37.5 64.5 20.5 74l77 440h98l-78-446q-10-54-31.5-104.5t-58-89.5-90-62.5T317-18zm267 815H290l11 66h295z"/><glyph glyph-name="umacron" unicode="ū" horiz-adv-x="581" d="M352 0q2 14 5 37.5l5 39.5h-2q-26-41-66.5-65.5T202-13q-78 0-118.5 41.5T43 134q0 11 1.5 23t3.5 24l52 293h92l-46-261q-2-14-3.5-27.5T141 159q0-41 20-67t71-26q56 0 97.5 42.5T383 222l45 252h92l-65-371q-4-19-8.5-49T440 0h-88zm123 597H181l11 66h295z"/><glyph glyph-name="Ubreve" unicode="Ŭ" horiz-adv-x="712" d="M317-18q-63 0-109.5 17T130 46t-46.5 69.5T68 200q0 30 6 62l78 446h98l-78-440q-5-28-5-53 0-30 8-56.5t26.5-47T249 79t71-12q52 0 88 17t60 45.5 37.5 64.5 20.5 74l77 440h98l-78-446q-10-54-31.5-104.5t-58-89.5-90-62.5T317-18zm291 926q-14-66-61.5-102T433 770t-104 33.5T291 908h56q0-20 7-34t19-22.5 28.5-12T437 836q42 0 73.5 15.5T553 908h55z"/><glyph glyph-name="ubreve" unicode="ŭ" horiz-adv-x="581" d="M352 0q2 14 5 37.5l5 39.5h-2q-26-41-66.5-65.5T202-13q-78 0-118.5 41.5T43 134q0 11 1.5 23t3.5 24l52 293h92l-46-261q-2-14-3.5-27.5T141 159q0-41 20-67t71-26q56 0 97.5 42.5T383 222l45 252h92l-65-371q-4-19-8.5-49T440 0h-88zm144 708q-14-66-61.5-102T321 570t-104 33.5T179 708h56q0-20 7-34t19-22.5 28.5-12T325 636q42 0 73.5 15.5T441 708h55z"/><glyph glyph-name="Uring" unicode="Ů" horiz-adv-x="712" d="M317-18q-63 0-109.5 17T130 46t-46.5 69.5T68 200q0 30 6 62l78 446h98l-78-440q-5-28-5-53 0-30 8-56.5t26.5-47T249 79t71-12q52 0 88 17t60 45.5 37.5 64.5 20.5 74l77 440h98l-78-446q-10-54-31.5-104.5t-58-89.5-90-62.5T317-18zm118 771q-38 0-62.5 24T348 836q0 24 8 44.5t23 36.5 35.5 25 44.5 9q39 0 63-23t24-59q0-49-31-82.5T435 753zm70 110q0 21-13 36t-36 15q-29 0-47.5-21T390 841q0-21 12.5-35.5T438 791q29 0 48 21t19 51z"/><glyph glyph-name="uring" unicode="ů" horiz-adv-x="581" d="M352 0q2 14 5 37.5l5 39.5h-2q-26-41-66.5-65.5T202-13q-78 0-118.5 41.5T43 134q0 11 1.5 23t3.5 24l52 293h92l-46-261q-2-14-3.5-27.5T141 159q0-41 20-67t71-26q56 0 97.5 42.5T383 222l45 252h92l-65-371q-4-19-8.5-49T440 0h-88zm-30 553q-38 0-62.5 24T235 636q0 24 8 44.5t23 36.5 35.5 25 44.5 9q39 0 63-23t24-59q0-49-31-82.5T322 553zm70 110q0 21-13 36t-36 15q-29 0-47.5-21T277 641q0-21 12.5-35.5T325 591q29 0 48 21t19 51z"/><glyph glyph-name="Uhungarumlaut" unicode="Ű" horiz-adv-x="712" d="M317-18q-63 0-109.5 17T130 46t-46.5 69.5T68 200q0 30 6 62l78 446h98l-78-440q-5-28-5-53 0-30 8-56.5t26.5-47T249 79t71-12q52 0 88 17t60 45.5 37.5 64.5 20.5 74l77 440h98l-78-446q-10-54-31.5-104.5t-58-89.5-90-62.5T317-18zm235 782h-76l126 144h113zm-180 0h-76l125 144h113z"/><glyph glyph-name="uhungarumlaut" unicode="ű" horiz-adv-x="581" d="M352 0q2 14 5 37.5l5 39.5h-2q-26-41-66.5-65.5T202-13q-78 0-118.5 41.5T43 134q0 11 1.5 23t3.5 24l52 293h92l-46-261q-2-14-3.5-27.5T141 159q0-41 20-67t71-26q56 0 97.5 42.5T383 222l45 252h92l-65-371q-4-19-8.5-49T440 0h-88zm94 564h-76l126 144h113zm-180 0h-76l125 144h113z"/><glyph glyph-name="Uogonek" unicode="Ų" horiz-adv-x="712" d="M392-191q-23-17-48-27t-51-10q-35 0-59 18.5T210-153q0 20 8 38.5T238.5-79 267-46.5 300-18q-59 2-102.5 20t-72 47.5-43 68T68 200q0 30 6 62l78 446h98l-78-440q-5-28-5-53 0-30 8-56.5t26.5-47T249 79t71-12q52 0 88 17t60 45.5 37.5 64.5 20.5 74l77 440h98l-78-446q-9-50-28-96.5T544.5 81 468 17.5 361-15q-32-29-56-59t-24-59q0-20 12-27.5t29-7.5q30 0 56 21z"/><glyph glyph-name="uogonek" unicode="ų" horiz-adv-x="581" d="M417-191q-23-17-48-27t-51-10q-35 0-59 18.5T235-153q0 24 11 46t28.5 41.5 38 36.5T352 2l5 36.5 5 38.5h-2q-26-41-66.5-65.5T202-13q-78 0-118.5 41.5T43 134q0 11 1.5 23t3.5 24l52 293h92l-46-261q-2-14-3.5-27.5T141 159q0-41 20-67t71-26q56 0 97.5 42.5T383 222l45 252h92l-65-371q-4-19-8.5-49T440 0h-36l-37-32.5L335.5-66 314-100l-8-33q0-20 12-27.5t29-7.5q30 0 56 21z"/><glyph glyph-name="Wcircumflex" unicode="Ŵ" horiz-adv-x="982" d="M233 142h2l275 566h108l57-566h2l267 566h104L704 0H602l-61 572h-2L256 0H153L84 708h103zm504 622h-86l-59 99-94-99h-91l138 144h106z"/><glyph glyph-name="wcircumflex" unicode="ŵ" horiz-adv-x="759" d="M137 474l33-362h2l185 362h93l47-362h3l180 362h98L528 0h-96l-48 359h-2L195 0H99L40 474h97zm447 90h-86l-59 99-94-99h-91l138 144h106z"/><glyph glyph-name="Ycircumflex" unicode="Ŷ" horiz-adv-x="560" d="M268 0h-98l54 306L46 708h111l130-322 259 322h120L322 306zm255 764h-86l-59 99-94-99h-91l138 144h106z"/><glyph glyph-name="ycircumflex" unicode="ŷ" horiz-adv-x="495" d="M207 101h2l210 373h100L172-112q-18-30-35-53.5t-37-40T56-231t-54-9q-31 0-59 7l13 82q22-8 44-8 32 0 53 20.5T97-80l47 80L40 474h99zm251 463h-86l-59 99-94-99h-91l138 144h106z"/><glyph glyph-name="Ydieresis" unicode="Ÿ" horiz-adv-x="560" d="M268 0h-98l54 306L46 708h111l130-322 259 322h120L322 306zm256 847q0-25-16.5-42.5T465 787q-24 0-41 15t-17 42 18 44 43 17q24 0 40-15.5t16-42.5zm-198 0q0-25-16.5-42.5T268 787t-42 15-17 42 18.5 44 42.5 17 40-15.5 16-42.5z"/><glyph glyph-name="Zacute" unicode="Ź" horiz-adv-x="580" d="M601 622L111 87h403L499 0H-33l15 86 493 536H108l15 86h494zM377 764h-74l125 144h111z"/><glyph glyph-name="zacute" unicode="ź" horiz-adv-x="461" d="M437 398L109 78h279L375 0H-21l13 76 327 322H65l14 76h371zM277 564h-74l125 144h111z"/><glyph glyph-name="Zdotaccent" unicode="Ż" horiz-adv-x="580" d="M601 622L111 87h403L499 0H-33l15 86 493 536H108l15 86h494zM449 847q0-25-17-43t-42-18q-24 0-41.5 15T331 843t18.5 44.5T392 905t40.5-16 16.5-42z"/><glyph glyph-name="zdotaccent" unicode="ż" horiz-adv-x="461" d="M437 398L109 78h279L375 0H-21l13 76 327 322H65l14 76h371zm-90 249q0-25-17-43t-42-18q-24 0-41.5 15T229 643t18.5 44.5T290 705t40.5-16 16.5-42z"/><glyph glyph-name="Zcaron" unicode="Ž" horiz-adv-x="580" d="M601 622L111 87h403L499 0H-33l15 86 493 536H108l15 86h494zM426 764H320l-86 144h87l58-99 94 99h90z"/><glyph glyph-name="zcaron" unicode="ž" horiz-adv-x="461" d="M437 398L109 78h279L375 0H-21l13 76 327 322H65l14 76h371zM326 564H220l-86 144h87l58-99 94 99h90z"/><glyph glyph-name="florin" unicode="ƒ" horiz-adv-x="595" d="M458 351H330L211 30q-14-37-32-68t-42-53.5-55-35T11-139q-24 0-46.5 6T-76-115l50 69q21-13 48-13 21 0 37 8.5t27.5 23T107 6t17 40l111 305H124l13 72h125l47 127q12 34 29 65t40.5 54 54.5 37 72 14q29 0 53.5-8t46.5-22l-52-70q-11 8-25 12.5t-28 4.5q-24 0-41-11t-29-27-20.5-35.5T395 528l-39-105h115z"/><glyph glyph-name="Scommaaccent" unicode="Ș" horiz-adv-x="569" d="M481 580q-20 29-54 46.5T350 644q-25 0-51.5-7t-49-22.5-37-39.5-14.5-57q0-23 8.5-40t23.5-30 36-23.5 46-19.5q39-14 72.5-31.5t59-41 40-54T498 208q0-49-18.5-90.5t-53-71.5T343-1 233-18q-34 0-67.5 7T101 9.5t-56.5 34T2 92l82 55q20-35 60.5-58.5T237 65q30 0 58.5 8.5t50.5 25 35.5 41T395 197q0 27-11 47t-30 35-44 26.5-53 21.5q-31 12-60 27t-51 36-35 50-13 69q0 49 19.5 89.5T172 667t83 43.5T359 726q62 0 115.5-23t82.5-65zM154-235H77L181-45h93z"/><glyph glyph-name="scommaaccent" unicode="ș" horiz-adv-x="444" d="M347 360q-14 23-38 38t-62 15q-17 0-34-3.5t-31.5-11T158 378t-9-31q0-30 22-43t63-24q68-20 104.5-51.5T375 139q0-39-17-68t-44.5-48T251-5.5 180-15q-68 0-117.5 25T-14 78l75 49q16-29 47.5-47T180 62q42 0 73 17.5t31 52.5q0 31-24.5 47T186 211q-28 9-51 19t-40 25-26.5 35-9.5 49q0 35 16 62.5t43 46.5 62.5 29 73.5 10q55 0 99-21t66-59zM95-235H18L122-45h93z"/><glyph glyph-name="uni021A" unicode="Ț" horiz-adv-x="535" d="M260 0h-98l110 622H48l15 86h544l-15-86H370zM142-235H65L169-45h93z"/><glyph glyph-name="uni021B" unicode="ț" horiz-adv-x="324" d="M315 398H198l-45-249q-3-17-3-30 0-30 15.5-40.5T207 68q14 0 28 3t23 8l-7-74q-14-6-34.5-9.5T176-8q-55 0-87.5 24.5T56 94q0 11 1 23t3 24l46 257H16l14 76h89l23 136h92l-24-136h119zM68-235H-9L95-45h93z"/><glyph glyph-name="circumflex" unicode="ˆ" d="M335 564h-86l-59 99-94-99H5l138 144h106z"/><glyph glyph-name="caron" unicode="ˇ" d="M223 564H117L31 708h87l58-99 94 99h90z"/><glyph glyph-name="uni02C9" unicode="ˉ" d="M323 797H29l11 66h295z"/><glyph glyph-name="breve" unicode="˘" d="M354 708q-14-66-61.5-102T179 570 75 603.5 37 708h56q0-20 7-34t19-22.5 28.5-12T183 636q42 0 73.5 15.5T299 708h55z"/><glyph glyph-name="dotaccent" unicode="˙" d="M245 647q0-25-17-43t-42-18q-24 0-41.5 15T127 643t18.5 44.5T188 705t40.5-16 16.5-42z"/><glyph glyph-name="ring" unicode="˚" d="M175 553q-38 0-62.5 24T88 636q0 24 8 44.5t23 36.5 35.5 25 44.5 9q39 0 63-23t24-59q0-49-31-82.5T175 553zm70 110q0 21-13 36t-36 15q-29 0-47.5-21T130 641q0-21 12.5-35.5T178 591q29 0 48 21t19 51z"/><glyph glyph-name="ogonek" unicode="˛" d="M119-191q-23-17-48-27t-51-10q-35 0-59 18.5T-63-153q0 24 11.5 46.5t29 42T16-28L56 3h54Q90-13 72-30T39.5-64.5t-23-35T8-133q0-20 12-27.5t29-7.5q30 0 56 21z"/><glyph glyph-name="tilde" unicode="˜" d="M-1 572q7 22 18 42.5T42.5 651t34 26 45.5 10q20 0 37.5-6t34.5-15q17-8 33-14.5t30-6.5q21 0 34 15t21 32h55q-8-22-18.5-42.5T323 613t-34.5-26-44.5-10q-18 0-35 6t-34 14q-17 9-33.5 15.5T110 619q-22 0-35-15t-21-32H-1z"/><glyph glyph-name="hungarumlaut" unicode="˝" d="M300 564h-76l126 144h113zm-180 0H44l125 144h113z"/><glyph glyph-name="endash" unicode="–" horiz-adv-x="400" d="M363 207H23l14 75h340z"/><glyph glyph-name="emdash" unicode="—" horiz-adv-x="600" d="M563 207H23l14 75h540z"/><glyph glyph-name="quoteleft" unicode="‘" horiz-adv-x="245" d="M196 708h78L161 459H69z"/><glyph glyph-name="quoteright" unicode="’" horiz-adv-x="245" d="M147 459H69l113 249h92z"/><glyph glyph-name="quotesinglbase" unicode="‚" horiz-adv-x="245" d="M42-133h-77L77 116h93z"/><glyph glyph-name="quotedblleft" unicode="“" horiz-adv-x="424" d="M341 459h-93l127 249h78zm-180 0H69l127 249h77z"/><glyph glyph-name="quotedblright" unicode="”" horiz-adv-x="424" d="M326 459h-78l113 249h92zm-179 0H69l113 249h92z"/><glyph glyph-name="quotedblbase" unicode="„" horiz-adv-x="424" d="M222-133h-78l112 249h93zm-180 0h-77L77 116h93z"/><glyph glyph-name="uni0394" horiz-adv-x="678" d="M-39 0l427 712h95L617 0H-39zm452 613L101 83h406z"/><glyph glyph-name="uni03A9" horiz-adv-x="752" d="M379 0l39 185q43 8 79.5 28t64.5 49.5 46.5 66T636 406q6 27 6 53 0 39-13 72t-37 56.5-58.5 37T456 638q-50 0-96-18t-83.5-49-64-74-36.5-92q-3-16-5-30.5t-2-28.5q0-62 32-104.5t97-56.5L259 0H-4l16 77h190l13 62q-70 22-105 76T75 341q0 31 8 69 14 68 52 125t91 98.5T343 698t130 23q58 0 106.5-17.5t83.5-49 54.5-76T737 480q0-34-7-68-10-48-31-91.5T646.5 241t-73-62.5T482 139l-13-62h190L643 0H379z"/><glyph glyph-name="uni03BC" horiz-adv-x="578" d="M363 0q2 18 5.5 40.5T375 78h-2q-13-19-32-35.5t-42-29T250.5-6 199-13q-25 0-46 8t-31 22L67-240h-94l152 714h94l-55-262q-4-16-5.5-31t-1.5-29q0-38 18-62t66-24q57 0 101 42.5T401 222l53 252h94l-79-372q-2-9-4.5-22l-5-27-4.5-27.5L452 0h-89z"/><glyph glyph-name="pi" horiz-adv-x="578" d="M497 12q-20-9-39-14t-39-5q-44 0-59 18t-15 47q0 25 8 60l58 275H220L137 0H51l83 393H64l17 81h511l-17-81h-78l-57-270q-2-7-3-14t-1-14q0-12 6.5-20t23.5-8q22 0 45 10l-14-65z"/><glyph glyph-name="dagger" unicode="†" horiz-adv-x="574" d="M366 505h202l-14-78H352l-97-553h-89l97 553H62l14 78h201l36 203h89z"/><glyph glyph-name="daggerdbl" unicode="‡" horiz-adv-x="574" d="M369 520h194l-14-78H355l-53-301h194l-13-78H289l-34-189h-89l33 189H6l13 78h194l53 301H72l14 78h193l34 188h89z"/><glyph glyph-name="bullet" unicode="•" horiz-adv-x="500" d="M73 354q0 37 14 69t38 56 56 38 69 14 69-14 56-38 38-56 14-69-14-69-38-56-56-38-69-14-69 14-56 38-38 56-14 69z"/><glyph glyph-name="ellipsis" unicode="…" horiz-adv-x="1000" d="M188 61q0-26-19-46T124-5 79 11.5 60 57t20 47.5 46 18.5 44-16.5T188 61zm334 0q0-26-19-46T458-5t-45 16.5T394 57t20 47.5 46 18.5 44-16.5T522 61zm334 0q0-26-19-46T792-5t-45 16.5T728 57t20 47.5 46 18.5 44-16.5T856 61z"/><glyph glyph-name="perthousand" unicode="‰" horiz-adv-x="1041" d="M362 590q0-39-13.5-73t-37-59-56.5-39.5-72-14.5q-31 0-57 10t-45 27.5-29.5 42T41 537q0 39 13.5 72.5t37.5 58 57.5 39T222 721q63 0 101.5-36t38.5-95zm-80-12q0 29-18 49t-50 20q-40 0-66-29t-26-72q0-29 18-48.5t49-19.5q42 0 67.5 29t25.5 71zm376-402q0-39-13.5-73t-37-59T551 4.5 479-10q-31 0-57 10t-45 27.5-29.5 42T337 123q0 39 13.5 72.5t37.5 58 57.5 39T518 307q63 0 101.5-36t38.5-95zm-80-12q0 29-18 49t-50 20q-40 0-66-29t-26-72q0-29 18-48.5T485 64q42 0 67.5 29t25.5 71zm434 12q0-39-13.5-73t-37-59T905 4.5 833-10q-31 0-57 10t-45 27.5-29.5 42T691 123q0 39 13.5 72.5t37.5 58 57.5 39T872 307q63 0 101.5-36t38.5-95zm-80-12q0 29-18 49t-50 20q-40 0-66-29t-26-72q0-29 18-48.5T839 64q42 0 67.5 29t25.5 71zM105-40L48-1l526 739 55-39z"/><glyph glyph-name="guilsinglleft" unicode="‹" horiz-adv-x="306" d="M209 69l-67-43L33 244l184 216 54-43-147-175z"/><glyph glyph-name="guilsinglright" unicode="›" horiz-adv-x="306" d="M77 421l66 39 110-218L68 25 14 71l148 177z"/><glyph glyph-name="fraction" unicode="⁄" horiz-adv-x="100" d="M-204-32l-54 33 564 739 53-33z"/><glyph glyph-name="Euro" unicode="€" horiz-adv-x="595" d="M574 614q-23 15-54 22t-65 7q-38 0-72.5-12.5t-63-34.5-51.5-52.5-39-65.5h288l-35-71H203q-4-11-7.5-25t-6-29-4-29-1.5-24h253l-34-71H183q1-36 14.5-66.5t38-52 59-34T371 64q36 0 67.5 9t64.5 29l21-75Q491 6 450-6t-92-12q-66 0-115 20.5T160.5 57t-51 78.5T90 229H7l36 71h47q1 17 6 46.5t14 60.5H40l37 71h55q20 52 52.5 97.5t75.5 79 94.5 52.5T465 726q45 0 84-9t64-24l-39-79z"/><glyph glyph-name="afii61289" unicode="ℓ" horiz-adv-x="500" d="M473 612q0-44-19-88t-52-86.5-78.5-84.5-98.5-81q-12-50-18.5-80t-9.5-47.5-4-25.5-1-13q0-30 16-41.5T243 53q21 0 43.5 9T342 94h2l23-53q-39-29-74.5-42T218-14q-54 0-85 27t-31 77q0 5 1 12l3 20 6.5 34 11.5 55-67-54h-2l-25 51 110 83 54 254q19 88 65 132t108 44q47 0 76.5-31t29.5-78zm-76-4q0 22-11 37t-28 15q-22 0-40.5-20.5T288 565l-46-211q25 23 52.5 53t50.5 64 37.5 69 14.5 68z"/><glyph glyph-name="trademark" unicode="™" horiz-adv-x="1000" d="M465 636H338V296h-81v340H128v72h337v-72zm544-340h-82v307h-2L806 296h-55L631 603h-2V296h-81v412h118l113-292 113 292h117V296z"/><glyph glyph-name="Omega" unicode="Ω" horiz-adv-x="752" d="M379 0l39 185q43 8 79.5 28t64.5 49.5 46.5 66T636 406q6 27 6 53 0 39-13 72t-37 56.5-58.5 37T456 638q-50 0-96-18t-83.5-49-64-74-36.5-92q-3-16-5-30.5t-2-28.5q0-62 32-104.5t97-56.5L259 0H-4l16 77h190l13 62q-70 22-105 76T75 341q0 31 8 69 14 68 52 125t91 98.5T343 698t130 23q58 0 106.5-17.5t83.5-49 54.5-76T737 480q0-34-7-68-10-48-31-91.5T646.5 241t-73-62.5T482 139l-13-62h190L643 0H379z"/><glyph glyph-name="estimated" unicode="℮" horiz-adv-x="800" d="M595 402v193q-82 79-194 79t-191-79V402h385zm-385-47V115q76-78 192-78 83 0 144 37.5T658 196l46-28q-30-48-61.5-82T575 30.5t-78.5-32T402-12q-78 0-141 28.5T153 95 84 211.5 60 355t24 143.5 69 116T261 692t141 28q76 0 139.5-27T650 617.5 720 502t25-147H210z"/><glyph glyph-name="partialdiff" unicode="∂" horiz-adv-x="523" d="M481 360q0-59-9-124.5T437 115t-72.5-91T243-12q-48 0-86.5 18T91 54.5 49.5 126 35 213q0 45 14 84.5t40.5 69 64 46T238 429q46 0 85.5-19t70.5-51q0 10 .5 20t.5 21q0 39-8 83t-27 81.5-51 62-81 24.5q-35 0-62.5-13T112 604l-23.5 27.5L65 659q37 29 74 45.5t85 16.5q75 0 124.5-33t79-85.5T469 486t12-126zm-90-89q-23 42-60 66t-82 24q-33 0-57.5-12.5t-41-33.5-24.5-48.5-8-57.5q0-29 7.5-56.5T149 103t40-35.5T245 54q40 0 67.5 22t44.5 54.5 25 70.5 9 70z"/><glyph glyph-name="Delta" unicode="∆" horiz-adv-x="678" d="M-39 0l427 712h95L617 0H-39zm452 613L101 83h406z"/><glyph glyph-name="product" unicode="∏" horiz-adv-x="726" d="M570-214v917H157v-917H66V786h594V-214h-90z"/><glyph glyph-name="summation" unicode="∑" horiz-adv-x="626" d="M25-214v72l316 433L38 713v73h551v-83H157l292-412-311-423h463v-82H25z"/><glyph glyph-name="minus" unicode="−" horiz-adv-x="666" d="M596 262H70v82h526v-82z"/><glyph glyph-name="uni2215" unicode="∕" horiz-adv-x="100" d="M-204-32l-54 33 564 739 53-33z"/><glyph glyph-name="uni2219" unicode="∙" horiz-adv-x="260" d="M197 306q0-26-18.5-46T133 240q-26 0-44.5 16.5T70 302t20 47.5 46 18.5 43.5-16.5T197 306z"/><glyph glyph-name="radical" unicode="√" horiz-adv-x="515" d="M315-214h-86L71 114 23 91l-33 70 124 58L258-83l178 869h90z"/><glyph glyph-name="infinity" unicode="∞" horiz-adv-x="778" d="M681 260q0 37-21 63t-61 26q-20 0-40-9t-38.5-22.5-35-29.5L456 259l31.5-29 34.5-27 38-20 42-8q38 0 58.5 24.5T681 260zm-320-1l-31 28.5-36 29-39.5 22.5-40.5 9q-37 0-57.5-26.5T136 260q0-38 22-61.5t60-23.5q19 0 39 8t39 20.5 35.5 27.5 29.5 28zm393 4q0-36-11-68t-31.5-55.5-50.5-37T593 89q-30 0-55.5 9t-48 23.5-42.5 34-39 40.5l-39.5-40-41-34L281 98.5 225 90q-38 0-68.5 13T105 139t-32.5 54.5T61 262q0 36 11 67t31.5 54 50 36.5T221 433q31 0 57-9.5t48.5-25.5 42.5-36.5 39-42.5q18 22 38 42.5t42.5 36.5 48.5 26 57 10q37 0 66.5-13.5T711 384t32-54 11-67z"/><glyph glyph-name="integral" unicode="∫" horiz-adv-x="574" d="M442 723q0-19-12.5-30.5T398 681q-18 0-27 8.5t-14 19l-9 19-13 8.5-14.5-8.5-8-21-3-28-.5-28.5q0-26 1-49t1-37V-4q0-35-4.5-72T288-143.5t-40-50-69-19.5q-13 0-27.5 3t-27 10-20.5 18.5-8 28.5 12.5 29 29.5 12q18 0 26.5-8.5T178-139l9-18.5 12-8.5q9 0 14.5 10.5t7.5 25 2.5 29.5.5 24q0 20-1 37t-1 28q0 3 .5 6t.5 6v499q0 17-.5 36t-.5 39q0 37 4 74.5t17.5 68 39.5 50 71 19.5q12 0 27-3.5t28.5-11 23-19.5 9.5-29z"/><glyph glyph-name="approxequal" unicode="≈" horiz-adv-x="666" d="M599 440q-3-30-12-57.5T561.5 333t-41-35-58.5-13q-31 0-67.5 11T322 321l-68.5 24-56.5 11q-31 0-48.5-23.5T126 282H67q3 29 12.5 57t25.5 50 40.5 35.5T203 438q32 0 66.5-10.5T339 403q35-13 69-24t63-11q32 0 48.5 21.5T541 440h58zm0-200q-3-30-12-57.5T561.5 133t-41-35T462 85q-31 0-67.5 11T322 121l-68.5 24-56.5 11q-31 0-48.5-23.5T126 82H67q3 29 12.5 57t25.5 50 40.5 35.5T203 238q32 0 66.5-10.5T339 203q35-13 69-24t63-11q32 0 48.5 21.5T541 240h58z"/><glyph glyph-name="notequal" unicode="≠" horiz-adv-x="666" d="M266 108L189-41 116-3l58 111H40v84h177l63 123H40v84h284l77 149 74-37-59-112h136v-84H373l-64-123h243v-84H266z"/><glyph glyph-name="lessequal" unicode="≤" horiz-adv-x="666" d="M77 309v86l512 183v-89L192 352l397-134v-88zM77 8v84h512V8H77z"/><glyph glyph-name="greaterequal" unicode="≥" horiz-adv-x="666" d="M77 130v88l397 134L77 489v89l512-183v-86zM77 8v84h512V8H77z"/><glyph glyph-name="lozenge" unicode="◊" horiz-adv-x="593" d="M337-35h-82L82 356l173 391h82l174-391zm-41 696L169 356 296 51l128 305z"/><glyph glyph-name="dotlessj" unicode="" horiz-adv-x="259" d="M-99-155q18-5 37-5 21 0 35 8t23 21.5 14 32T19-59l94 533h93L111-62q-6-35-16.5-67.5t-30-57-50.5-39-77-14.5q-13 0-28.5 2t-26.5 4z"/><glyph glyph-name="commaaccent" unicode="" d="M80-235H3L107-45h93z"/><glyph glyph-name="uniF8FF" unicode="" horiz-adv-x="876" d="M484 664q24 29 55 43.5t52 14.5q0-67-46-119t-110-52q0 31 14 61 8 17 35 52zm194-427q19-29 44.5-51.5T766 158l-9-25-8-19q-23-50-48-78-40-44-58-57-26-17-60-17-29 0-69 17-38 16-59 16-19 0-75-22-30-11-48-11-49 0-103 58-22 23-44 56-41 60-61 115.5T104 319q0 88 54 159 58 76 146 76 42 0 71-12 63-26 78-26 27 0 57 12 66 26 90 26 58 0 90-23 15-12 60-64-42-19-67-59.5T658 321q0-55 20-84z"/><glyph glyph-name="thorn.sc" horiz-adv-x="490" d="M126 0H30l95 536h95l-17-95h79q91 0 134.5-36T460 304q0-85-54.5-129T240 131h-91zm36 209h82q63 0 92 21.5t29 63.5q0 31-22 49t-75 18h-79z"/><glyph glyph-name="cent.sc" horiz-adv-x="495" d="M216-9Q135 4 87.5 57.5T40 192q0 56 18.5 107.5t53 91 83 65T303 486l11 63h51l-11-64q45-4 84-23t61-55l-72-54q-11 21-34 36.5T341 409L280 65q41 2 69.5 18t51.5 39l55-52q-37-37-83.5-59.5T266-13l-11-65h-51zm74 417q-35-5-63.5-23.5t-49-46.5-32-63-11.5-72q0-48 23-86t73-48z"/><glyph glyph-name="ordfeminine.sc" horiz-adv-x="380" d="M269 430l-10 61H149l-38-61H35l189 289h57l58-289h-70zm-34 206l-57-95h73z"/><glyph glyph-name="florin.sc" horiz-adv-x="495" d="M397 270H289L217 62q-14-39-28-67t-32.5-46-43-26.5T56-86q-22 0-45 6.5T-30-61L11 6Q21 0 33-4t23-4q15 0 25 5t18 15.5T114 39t15 39l68 192h-96l12 70h106l33 91q20 56 55.5 87.5T401 550q53 0 91-31l-50-67q-11 10-22.5 13.5T396 469q-18 0-33.5-15.5T337 411l-25-71h97z"/><glyph glyph-name="questiondown.sc" horiz-adv-x="420" d="M287 335q-9-61-74-110l-36-27q-26-20-37-37.5T129 122t15.5-37T189 69q26 0 49 15t33 53l87-15q-14-64-62-100T185-14q-32 0-59.5 7t-48 23T45 56.5 33 117q0 42 21 75.5t74 68.5q19 13 32 23t21 19.5 11.5 19.5 5.5 23l2 17h91zm-94 142q0 26 18.5 45.5T256 542t44-16 18-45-19-47-45-18-43.5 16-17.5 45z"/><glyph glyph-name="ampersand.sc" horiz-adv-x="600" d="M421 428q0-48-33.5-86T290 276l75-93 66 101h102L418 125 518 0H403l-45 57q-31-33-72-52t-95-19q-35 0-64.5 9.5T74.5 23t-35 45T27 130q0 34 11.5 61t31 48 45.5 36 54 26q-35 48-35 103 0 32 11 58.5t30.5 46 47 30.5 61.5 11q64 0 100.5-32.5T421 428zM212 242q-42-17-67-40t-25-67q0-38 25-54t57-16q31 0 56.5 12.5T309 119zm123 181q0 22-13 38t-40 16-45-18.5-18-48.5q0-20 7.5-41t21.5-38q45 18 66 42t21 50z"/><glyph glyph-name="percent.sc" horiz-adv-x="700" d="M335 436q0-34-12-63t-33-50.5-49.5-34T178 276q-26 0-48.5 8.5T90 308t-26.5 35.5T54 389q0 33 12 62t33 50.5 50 33.5 64 12q52 0 87-30t35-81zm-84-12q0 21-12.5 34T203 471q-30 0-47.5-20.5T138 398q0-21 12-34t35-13q32 0 49 20.5t17 52.5zm388-276q0-34-12-63t-33-50.5-49.5-34T482-12q-26 0-48.5 8.5T394 20t-26.5 35.5T358 101q0 33 12 62t33 50.5 50 33.5 64 12q52 0 87-30t35-81zm-84-12q0 21-12.5 34T507 183q-30 0-47.5-20.5T442 110q0-21 12-34t35-13q32 0 49 20.5t17 52.5zM161-35L103 5l426 558 55-42z"/><glyph glyph-name="dollar.sc" horiz-adv-x="495" d="M215-58h-45l11 56q-43 2-84.5 23.5T33 76l72 52q29-49 88-54l30 163q-57 20-90 51.5T100 378q0 66 47.5 110T275 536l9 53h45l-9-54q41-3 71.5-19t50.5-41l-68-55q-12 17-29.5 27.5T307 460l-28-153q58-25 92-57t34-89q0-30-9.5-58.5t-31-51-56-37T225-2zm23 132q32 2 54 24t22 56q0 23-11.5 39.5T265 222zm25 386q-32-2-53-23.5T189 384q0-23 11-38t37-25z"/><glyph glyph-name="exclam.sc" horiz-adv-x="300" d="M172 173H79l64 363h93zm2-113q0-26-18.5-45.5T111-5 66.5 11 48 56t19.5 47 45.5 18 43.5-16T174 60z"/><glyph glyph-name="zero.sc" horiz-adv-x="495" d="M281 547q42 0 72-14.5t49-39.5 28-59 9-74q0-57-14-122.5t-43-121T307.5 24 198-13q-43 0-73 14T76 39.5t-28 58-9 73.5q0 58 14 124t43.5 122 75.5 93 109 37zm-8-84q-29 0-54-25t-43.5-65-29-90.5T136 180q0-48 16-77.5T203 73q29 0 54.5 24.5t44 64 29.5 90T342 354q0 48-17 78.5T273 463z"/><glyph glyph-name="one.sc" horiz-adv-x="495" d="M172 0l74 413-99-70-48 67 179 126h83L266 0h-94z"/><glyph glyph-name="two.sc" horiz-adv-x="495" d="M391 81L376 0H15l14 80 242 206q35 30 53.5 58t18.5 58q0 29-17.5 48T275 469q-37 0-63.5-23.5T172 383l-85 24q22 68 73.5 105.5T278 550q36 0 65.5-10t50-28.5 32-44.5 11.5-57q0-30-8-54.5T406 309t-36-43-47-43L151 81h240z"/><glyph glyph-name="three.sc" horiz-adv-x="495" d="M219 317q57 0 85 24.5t28 66.5q0 27-20 45.5T262 472q-26 0-50-15t-43-50l-71 43q31 51 74 75.5t95 24.5q31 0 60-9t50.5-27 34.5-43.5 13-58.5q0-24-8-46t-22.5-40-35-30.5T314 278v-2q43-12 64-44.5t21-68.5q0-83-51.5-130T205-14q-33 0-62 9T90.5 21 50 61.5 26 114l88 29q8-38 34.5-57T209 67q45 0 69.5 25.5T303 162q0 39-27 58.5T208 240h-38l14 77h35z"/><glyph glyph-name="four.sc" horiz-adv-x="495" d="M346 114L326 0h-88l20 114H24l16 87 265 335h114l-59-342h75l-15-80h-74zm-30 320h-1L136 194h136z"/><glyph glyph-name="five.sc" horiz-adv-x="495" d="M192 338q14 5 29 7.5t28 2.5q33 0 62.5-10.5t51.5-31 34.5-50T410 189q0-47-14.5-84.5t-41-63.5-64-40.5T207-14q-69 0-115.5 32.5T26 104l84 36q10-35 39-54t57-19q54 0 81 32t27 82q0 42-25.5 66T217 271q-27 0-62.5-10.5T89 229l61 307h284l-16-80H217z"/><glyph glyph-name="six.sc" horiz-adv-x="495" d="M206 328l2-2q14 7 30.5 9t26.5 2q34 0 62.5-11t48.5-31 31.5-48 11.5-62q0-43-16-79.5t-44-63T293 1t-81-15q-38 0-70.5 11.5T86 30.5t-36 53T37 155q0 53 24.5 100.5T127 355l142 181h112zm-75-173q0-36 24-62.5T217 66q49 0 78.5 31t29.5 80q0 38-23.5 63T242 265q-49 0-80-31.5T131 155z"/><glyph glyph-name="seven.sc" horiz-adv-x="495" d="M148 0H37l305 454H97l13 82h348l-15-81z"/><glyph glyph-name="eight.sc" horiz-adv-x="495" d="M132 145q0-42 25-60t55-18q51 0 78 28t27 70q0 37-22.5 58T237 244q-47 0-76-28t-29-71zm198 133q32-11 54-41.5t22-71.5q0-40-15-73t-41.5-56.5T286-1t-80-13q-27 0-56 7.5T97 19 57.5 65.5 42 136q0 31 10.5 57T80 238.5t40 32.5 47 18v2q-25 14-43 40t-18 61q0 40 15 70t39.5 49.5 56.5 29 65 9.5q28 0 55-7.5t48-23.5 34-41 13-59q0-31-9-54t-24-40-33-28-36-17v-2zM191 390q0-29 19-47t49-18q35 0 60.5 21t25.5 62q0 29-20 46.5T275 472q-39 0-61.5-23.5T191 390z"/><glyph glyph-name="nine.sc" horiz-adv-x="495" d="M265 211l-2 2q-14-6-30-8t-26-2q-34 0-62 11t-48 30.5-31 47T55 352q0 42 16 78.5t44 63 65.5 41.5 80.5 15q37 0 69-11t54.5-32.5T420 454t13-70q0-49-21.5-95T349 191L200 0H88zm76 173q0 18-6.5 33.5T317 445t-27 19-34 7q-48 0-78-31.5T148 360q0-38 23-62.5t59-24.5q24 0 44.5 9t35 24 23 35 8.5 43z"/><glyph glyph-name="zero.onum" horiz-adv-x="680" d="M368 550q56 0 101.5-17t77.5-48 49.5-73.5T614 317q0-68-23.5-128T525 84 425 12.5 298-14q-57 0-102.5 17T118 51t-49.5 74T51 220q0 68 24 128t67 105 100.5 71T368 550zM304 72q48 0 87 19.5t66.5 52.5 42.5 76 15 90q0 32-10.5 60.5t-30 49.5-48.5 33-65 12q-47 0-86-19.5T208 393t-43-75.5-15-88.5q0-33 10.5-61.5t30-49.5 48-33.5T304 72z"/><glyph glyph-name="one.onum" horiz-adv-x="390" d="M115 0l74 413-99-70-48 67 179 126h83L209 0h-94z"/><glyph glyph-name="two.onum" horiz-adv-x="530" d="M409 0H-2l15 81 65 37 119.5 70 91 62 58 60 20.5 64q0 28-9.5 46.5t-24 29-32 15T268 469q-39 0-72.5-20.5T138 390l-65 49q35 54 88 82.5T273 550q38 0 72-11t59.5-32 40.5-52 15-72q0-48-23.5-87.5t-61-72.5-84-61-93.5-53l-46-25v-3h272z"/><glyph glyph-name="three.onum" horiz-adv-x="540" d="M475 449q-20-17-51.5-40.5l-66.5-48-71-48.5-66-42-1-4q13 3 33 3 27 0 59.5-9t61-30.5 47.5-56T439 88q0-60-25-108t-68.5-81-103-51T113-170q-28 0-54 2t-48 7l15 84q19-5 42.5-7.5T115-87q48 0 89 11t71.5 32.5 48 52.5T341 81q0 60-40 91t-110 31q-26 0-53-4.5T90 188l-7 71 71.5 47.5 77.5 53 71.5 51L358 451l1 4H96l14 81h380l-15-87z"/><glyph glyph-name="four.onum" horiz-adv-x="570" d="M110 81h204l43 244h91L405 81h113L504 0H394l-30-170h-91L303 0H-5l15 86 352 464h107z"/><glyph glyph-name="five.onum" horiz-adv-x="540" d="M191 214q-29 0-63-5t-61-13l91 340h353l-16-86H224l-47-165q14 2 24 3t27 1q44 0 82-12t66-36 44-59.5 16-81.5q0-55-18-104t-56-86-96.5-59T126-171q-27 0-57.5 2T16-162l16 84q39-11 89-11 43 0 82.5 9T273-50t47.5 56T338 93q0 33-11.5 56t-31 37.5-46.5 21-58 6.5z"/><glyph glyph-name="six.onum" horiz-adv-x="595" d="M325 434q47 0 85-15t64.5-41 40.5-61 14-76q0-55-19-102t-53.5-82-84-55T262-18q-48 0-89 14.5t-70 42-45.5 67T41 195q0 73 34.5 144t90 137.5 125 127T429 715l76-53q-41-26-81.5-56.5T346 543t-69-66-56-68l3-2q22 14 50 20.5t51 6.5zm108-201q0 28-9.5 51.5t-26 40.5-39 26.5T309 361q-39 0-71-13t-55-36-35.5-54.5T135 190q0-28 10-51.5t27.5-41 41-27T265 61q39 0 70 13t52.5 36 33.5 54.5 12 68.5z"/><glyph glyph-name="seven.onum" horiz-adv-x="520" d="M500 448L390.5 284 283 116 184.5-44 102-183 5-157 96.5-11.5l107 165.5 106 162L399 450H64l15 86h436l-15-88z"/><glyph glyph-name="eight.onum" horiz-adv-x="595" d="M549 556q0-38-12-68t-32-53-45.5-39-53.5-25l1-2q47-14 78-54t31-95q0-57-21-101t-56-74.5T356.5-2 257-18q-39 0-77 11t-68 34-48.5 58.5T45 171q0 42 14 76.5T97 309t55 44.5 66 24.5v3q-39 17-63.5 52T130 514q0 49 18 88.5t49 67 72 42 87 14.5q39 0 74-10.5t61.5-31.5 42-53 15.5-75zm-91-14q0 51-30 77.5T349 646q-29 0-53-10.5T255 607t-26.5-41.5T219 515q0-42 28-71.5t76-29.5q29 0 54 10.5t43 28.5 28 41 10 48zm-35-324q0 51-33 83.5T303 334q-36 0-66-11.5T185 290t-34.5-49-12.5-61q0-57 35.5-87.5T261 62q39 0 69 12t50.5 33 31.5 49.5 11 61.5z"/><glyph glyph-name="nine.onum" horiz-adv-x="595" d="M253 98q-47 0-85 15t-64.5 41T63 215t-14 76q0 55 19 102t53.5 82 84 55T316 550q48 0 89-14.5t70-42 45.5-67T537 337q0-73-34.5-144.5t-90-138-125-127T149-184l-76 54q41 26 81.5 56.5T232-11t69 66 56 68l-3 2q-22-14-50-20.5T253 98zM145 299q0-28 9-51.5t25.5-40.5 39.5-26.5 50-9.5q39 0 71 13t55 36 35.5 54.5T443 342q0 28-10 51.5t-27.5 41-41 27T313 471q-39 0-70-13t-52.5-36-33.5-54.5-12-68.5z"/><glyph glyph-name="Euro.sc" horiz-adv-x="495" d="M452 445q-17 11-42 17t-51 6q-50 0-90.5-26T208 365h205l-29-66H185q-5-17-7.5-36t-2.5-28h183l-31-67H176q5-51 36.5-78T299 63q22 0 48 7t51 21l21-73Q393 1 356.5-6.5T287-14q-45 0-82 14t-63 38-41 57.5T85 168H19l31 67h35q1 11 3.5 27.5T96 299H41l32 66h42q36 95 101.5 140T368 550q34 0 67.5-8t52.5-19l-36-78z"/><glyph glyph-name="sterling.sc" horiz-adv-x="495" d="M341 237H224L197 80h191L374 0H24l14 80h65l28 157H67l13 70h62l13 71q13 76 61 124t131 48q36 0 69-11t58-36l-56-64q-17 18-36 25.5t-39 7.5q-38 0-63.5-28.5T243 351l-8-44h120z"/><glyph glyph-name="yen.sc" horiz-adv-x="495" d="M182 168l11 60H69l10 64h104L69 536h97l90-217 160 217h102L323 292h92l-10-64H282l-11-60h123l-10-64H260L242 0h-89l19 104H48l10 64h124z"/><glyph glyph-name="perthousand.sc" horiz-adv-x="1020" d="M335 436q0-34-12-63t-33-50.5-49.5-34T178 276q-26 0-48.5 8.5T90 308t-26.5 35.5T54 389q0 33 12 62t33 50.5 50 33.5 64 12q52 0 87-30t35-81zm-84-12q0 21-12.5 34T203 471q-30 0-47.5-20.5T138 398q0-21 12-34t35-13q32 0 49 20.5t17 52.5zm388-276q0-34-12-63t-33-50.5-49.5-34T482-12q-26 0-48.5 8.5T394 20t-26.5 35.5T358 101q0 33 12 62t33 50.5 50 33.5 64 12q52 0 87-30t35-81zm-84-12q0 21-12.5 34T507 183q-30 0-47.5-20.5T442 110q0-21 12-34t35-13q32 0 49 20.5t17 52.5zm393 12q0-34-12-63t-33-50.5-49.5-34T791-12q-26 0-48.5 8.5T703 20t-26.5 35.5T667 101q0 33 12 62t33 50.5 50 33.5 64 12q52 0 87-30t35-81zm-84-12q0 21-12.5 34T816 183q-30 0-47.5-20.5T751 110q0-21 12-34t35-13q32 0 49 20.5t17 52.5zM161-35L103 5l426 558 55-42z"/><glyph glyph-name="question.sc" horiz-adv-x="420" d="M138 201q9 61 76 110l37 27q27 20 37.5 37.5T299 414q0 24-17 39.5T236 469q-26 0-49-16t-33-54l-87 15q7 32 23 57t38.5 42.5 50 27T236 550t58-7 49.5-23 35-40.5T392 419q0-42-21.5-75.5T296 275q-20-13-32.5-23t-20-20-11.5-20-5-23l-2-16h-91zm94-142q0-26-18.5-45.5T169-6t-44 16-18 45 19 47 45 18 43.5-16T232 59z"/><glyph glyph-name="exclamdown.sc" horiz-adv-x="300" d="M112 363h93L141 0H48zm-2 113q0 26 18.5 45.5T173 541t44.5-16 18.5-45-19.5-47-45.5-18-43.5 16-17.5 45z"/><glyph glyph-name="a.sc" horiz-adv-x="534" d="M382 0l-23 124H130L53 0H-55l347 536h82L483 0H382zm-74 419L175 201h171z"/><glyph glyph-name="b.sc" horiz-adv-x="512" d="M299 536q73 0 118.5-30.5T463 412q0-47-25-81.5T368 281v-2q77-25 77-111 0-42-17.5-73.5T379 42t-74-31.5T211 0H30l94 536h175zM167 238L139 81h78q25 0 48.5 4.5t41.5 15 29 28 11 43.5q0 32-23 49t-66 17h-91zm38 218l-25-141h85q16 0 33.5 4t32 14 24 25.5T364 397q0 32-23.5 45.5T280 456h-75z"/><glyph glyph-name="c.sc" horiz-adv-x="580" d="M143 230q0-33 10-62t29.5-50.5 47-33.5T293 72q44 0 79.5 16.5T442 144l64-55q-38-48-92-75.5T284-14q-55 0-99.5 17t-76 47.5T60 124t-17 96q0 69 24 129.5t66.5 105 101 70T362 550q62 0 113-22t80-66l-78-59q-18 28-46.5 45T359 465q-49 0-89-19.5t-68-52-43.5-75T143 230z"/><glyph glyph-name="d.sc" horiz-adv-x="605" d="M125 536h176q48 0 93.5-12.5t81-39.5 57-70T554 310q0-70-24.5-127t-68-97.5-103.5-63T226 0H30zm15-455h87q56 0 98.5 18t71 48 43 69.5T454 300q0 32-10 60.5T413 410t-53 33.5-77 12.5h-77z"/><glyph glyph-name="e.sc" horiz-adv-x="493" d="M30 0l95 536h341l-13-80H206l-25-141h235l-14-77H168L140 81h266L392 0H30z"/><glyph glyph-name="f.sc" horiz-adv-x="473" d="M206 456l-26-150h224l-13-78H167L126 0H30l94 536h337l-14-80H206z"/><glyph glyph-name="g.sc" horiz-adv-x="609" d="M297 72q67 0 111 23l22 128H316l13 78h208L491 37q-47-26-98-38.5T288-14q-56 0-101 17.5T110 52t-49.5 74T43 220q0 69 24 129.5t66.5 105 101 70T362 550q62 0 113-22t80-66l-78-59q-18 28-46.5 45T359 465q-49 0-89-19.5t-68-52-43.5-75T143 230q0-33 10.5-62t30-50T232 84.5 297 72z"/><glyph glyph-name="h.sc" horiz-adv-x="585" d="M354 0l41 237H169L127 0H31l93 536h96l-38-220h227l39 220h95L450 0h-96z"/><glyph glyph-name="i.sc" horiz-adv-x="263" d="M30 0l95 536h96L126 0H30z"/><glyph glyph-name="j.sc" horiz-adv-x="404" d="M307 164q-6-34-17-66t-30.5-57-50-40T134-14Q71-14 33 20.5T-13 114l83 28q5-34 23.5-52T135 72q19 0 32 7t22 19.5 14 30.5 9 41l63 366h96z"/><glyph glyph-name="k.sc" horiz-adv-x="537" d="M357 0L174 266h-2L126 0H30l94 536h96l-41-231h2l243 231h132L275 284 479 0H357z"/><glyph glyph-name="l.sc" horiz-adv-x="425" d="M30 0l95 536h96L140 81h229L356 0H30z"/><glyph glyph-name="m.sc" horiz-adv-x="721" d="M493 0l69 391h-2L337 0h-61l-83 391h-2L122 0H30l94 536h130l80-386h3l214 386h128L585 0h-92z"/><glyph glyph-name="n.sc" horiz-adv-x="616" d="M365 0L196 399h-1L125 0H30l94 536h114l170-395h1l70 395h95L479 0H365z"/><glyph glyph-name="o.sc" horiz-adv-x="657" d="M360 550q56 0 101.5-17t77.5-48 49.5-73.5T606 317q0-68-23.5-128T517 84 417 12.5 290-14q-57 0-102.5 17T110 51t-49.5 74T43 220q0 68 24 128t67 105 100.5 71T360 550zM296 72q48 0 87 19.5t66.5 52.5 42.5 76 15 90q0 32-10.5 60.5t-30 49.5-48.5 33-65 12q-47 0-86-19.5T200 393t-43-75.5-15-88.5q0-33 10.5-61.5t30-49.5 48-33.5T296 72z"/><glyph glyph-name="p.sc" horiz-adv-x="489" d="M279 536q90 0 135-39t45-104q0-82-53.5-129T244 217h-80L126 0H30l94 536h155zM177 295h66q63 0 92 23.5t29 63.5q0 35-23 55.5T273 458h-68z"/><glyph glyph-name="q.sc" horiz-adv-x="657" d="M597 313q0-41-9-76t-25-64.5-38-52T478 83v-2h118L582 0H294q-56 0-102.5 15.5t-79.5 45-51 72T43 229q0 67 24 125.5t66 102 98.5 68.5T353 550q55 0 100-16.5t77-47.5 49.5-75 17.5-98zm-99-3q0 33-10 61.5t-29.5 49T411 453t-64 12q-45 0-82.5-19t-65-51-43-73.5T141 236q0-72 43-113.5T299 81q41 0 77.5 18.5T440 149t42.5 72.5T498 310z"/><glyph glyph-name="r.sc" horiz-adv-x="507" d="M438 0H333L231 226h-66L125 0H30l94 536h157q88 0 134-35t46-104q0-66-36-105.5T323 239zM178 304h61q60 0 92.5 20.5T364 390q0 32-23 50t-71 18h-65z"/><glyph glyph-name="s.sc" horiz-adv-x="454" d="M66 127q18-32 49.5-45.5T177 68q54 0 78 24t24 60q0 33-25 52t-70 36q-68 26-94 59.5T64 382q0 39 16 70t43.5 53 64.5 33.5 80 11.5q54 0 94-22t58-48l-72-57q-16 25-40 35.5T258 469q-42 0-69-22.5T162 389q0-27 16.5-42t55.5-30q74-26 110.5-62.5T381 158q0-42-15.5-74T322 30 256-3t-83-11q-65 0-113 24.5T-13 73z"/><glyph glyph-name="t.sc" horiz-adv-x="433" d="M289 458L208 0h-94l80 458H31l13 78h422l-14-78H289z"/><glyph glyph-name="u.sc" horiz-adv-x="571" d="M481 206q-8-45-25-85t-46.5-70T338 3.5 238-14q-88 0-137.5 45T51 148q0 11 1 22t3 25l60 341h96l-58-327q-2-11-3-22t-1-20q0-42 22.5-68.5T242 72q33 0 57.5 11.5T342 115t29.5 47 16.5 58l55 316h96z"/><glyph glyph-name="v.sc" horiz-adv-x="496" d="M213 0h-89L39 536h98l56-411h2l242 411h101z"/><glyph glyph-name="w.sc" horiz-adv-x="756" d="M534 0h-98l-42 393h-1L199 0H99L47 536h99l31-395h2l192 395h96l40-395h2l187 395h99z"/><glyph glyph-name="x.sc" horiz-adv-x="516" d="M331 0l-92 207L63 0H-57l254 284L78 536h107l81-187 157 187h115L308 276 439 0H331z"/><glyph glyph-name="y.sc" horiz-adv-x="465" d="M260 231L219 0h-95l40 232L28 536h105l93-228 183 228h112z"/><glyph glyph-name="z.sc" horiz-adv-x="491" d="M-15 0l14 82 346 376H88l14 78h383l-14-74L122 81h287L395 0H-15z"/><glyph glyph-name="aacute.sc" horiz-adv-x="534" d="M382 0l-23 124H130L53 0H-55l347 536h82L483 0H382zm-74 419L175 201h171zm65 175h-74l125 144h111z"/><glyph glyph-name="acircumflex.sc" horiz-adv-x="534" d="M382 0l-23 124H130L53 0H-55l347 536h82L483 0H382zm-74 419L175 201h171zm198 175h-86l-59 99-94-99h-91l138 144h106z"/><glyph glyph-name="adieresis.sc" horiz-adv-x="534" d="M382 0l-23 124H130L53 0H-55l347 536h82L483 0H382zm-74 419L175 201h171zm0 258q0-25-16.5-42.5T250 617t-42 15-17 42 18.5 44 42.5 17 40-15.5 16-42.5zm198 0q0-25-16.5-42.5T447 617q-24 0-41 15t-17 42 18 44 43 17q24 0 40-15.5t16-42.5z"/><glyph glyph-name="aring.sc" horiz-adv-x="534" d="M382 0l-23 124H130L53 0H-55l347 536h82L483 0H382zm-74 419L175 201h171zm31 164q-38 0-62.5 24T252 666q0 24 8 44.5t23 36.5 35.5 25 44.5 9q39 0 63-23t24-59q0-49-31-82.5T339 583zm70 110q0 21-13 36t-36 15q-29 0-47.5-21T294 671q0-21 12.5-35.5T342 621q29 0 48 21t19 51z"/><glyph glyph-name="amacron.sc" horiz-adv-x="534" d="M382 0l-23 124H130L53 0H-55l347 536h82L483 0H382zm-74 419L175 201h171zm181 208H195l11 66h295z"/><glyph glyph-name="ae.sc" horiz-adv-x="829" d="M366 0l24 134H183L77 0H-36l430 536h408l-13-80H542l-25-141h235l-14-77H504L476 81h266L728 0H366zM243 211h160l44 245h-11z"/><glyph glyph-name="agrave.sc" horiz-adv-x="534" d="M382 0l-23 124H130L53 0H-55l347 536h82L483 0H382zm-74 419L175 201h171zM164 738h110l100-144h-73z"/><glyph glyph-name="atilde.sc" horiz-adv-x="534" d="M382 0l-23 124H130L53 0H-55l347 536h82L483 0H382zm-74 419L175 201h171zM163 602q7 22 18 42.5t25.5 36.5 34 26 45.5 10q20 0 37.5-6.5T358 696q17-9 33-15t30-6q21 0 34 15t21 32h55q-8-22-18.5-42.5T487 643t-34.5-26-44.5-10q-18 0-35 6t-34 14-33.5 15-31.5 7q-22 0-35-15t-21-32h-55z"/><glyph glyph-name="aogonek.sc" horiz-adv-x="534" d="M445-194q-23-17-48-27t-51-10q-35 0-59 18.5T263-156q0 24 11.5 46.5t29 42T342-31l40 31-23 124H130L53 0H-55l347 536h82L483 0h-47q-20-16-38-33t-32.5-34.5-23-35T334-136q0-20 12-27.5t29-7.5q30 0 56 21zM308 419L175 201h171z"/><glyph glyph-name="abreve.sc" horiz-adv-x="534" d="M382 0l-23 124H130L53 0H-55l347 536h82L483 0H382zm-74 419L175 201h171zm203 319q-14-66-61.5-102T336 600t-104 33.5T194 738h56q0-20 7-34t19-22.5 28.5-12T340 666q42 0 73.5 15.5T456 738h55z"/><glyph glyph-name="cacute.sc" horiz-adv-x="580" d="M143 230q0-33 10-62t29.5-50.5 47-33.5T293 72q44 0 79.5 16.5T442 144l64-55q-38-48-92-75.5T284-14q-55 0-99.5 17t-76 47.5T60 124t-17 96q0 69 24 129.5t66.5 105 101 70T362 550q62 0 113-22t80-66l-78-59q-18 28-46.5 45T359 465q-49 0-89-19.5t-68-52-43.5-75T143 230zm224 364h-74l125 144h111z"/><glyph glyph-name="ccaron.sc" horiz-adv-x="580" d="M143 230q0-33 10-62t29.5-50.5 47-33.5T293 72q44 0 79.5 16.5T442 144l64-55q-38-48-92-75.5T284-14q-55 0-99.5 17t-76 47.5T60 124t-17 96q0 69 24 129.5t66.5 105 101 70T362 550q62 0 113-22t80-66l-78-59q-18 28-46.5 45T359 465q-49 0-89-19.5t-68-52-43.5-75T143 230zm281 364H318l-86 144h87l58-99 94 99h90z"/><glyph glyph-name="cdotaccent.sc" horiz-adv-x="580" d="M143 230q0-33 10-62t29.5-50.5 47-33.5T293 72q44 0 79.5 16.5T442 144l64-55q-38-48-92-75.5T284-14q-55 0-99.5 17t-76 47.5T60 124t-17 96q0 69 24 129.5t66.5 105 101 70T362 550q62 0 113-22t80-66l-78-59q-18 28-46.5 45T359 465q-49 0-89-19.5t-68-52-43.5-75T143 230zm298 447q0-25-17-43t-42-18q-24 0-41.5 15T323 673t18.5 44.5T384 735t40.5-16 16.5-42z"/><glyph glyph-name="ccedilla.sc" horiz-adv-x="580" d="M143 230q0-33 10-62t29.5-50.5 47-33.5T293 72q44 0 79.5 16.5T442 144l64-55q-38-48-90-74.5T292-14l-47-56q8 2 14 2.5t12 .5q13 0 27.5-3.5t26.5-12 20-22 8-33.5q0-27-13-46t-32.5-30-42.5-16-44-5q-26 0-55 6t-49 17l24 42q17-8 36.5-12.5T217-187q10 0 21 2t21 6.5 16.5 13T282-144q0 21-14.5 29t-33.5 8q-10 0-21-2t-21-5l-17 20 69 83q-46 6-83 24.5T97.5 62 57 132t-14 88q0 69 24 129.5t66.5 105 101 70T362 550q62 0 113-22t80-66l-78-59q-18 28-46.5 45T359 465q-49 0-89-19.5t-68-52-43.5-75T143 230z"/><glyph glyph-name="ccircumflex.sc" horiz-adv-x="580" d="M143 230q0-33 10-62t29.5-50.5 47-33.5T293 72q44 0 79.5 16.5T442 144l64-55q-38-48-92-75.5T284-14q-55 0-99.5 17t-76 47.5T60 124t-17 96q0 69 24 129.5t66.5 105 101 70T362 550q62 0 113-22t80-66l-78-59q-18 28-46.5 45T359 465q-49 0-89-19.5t-68-52-43.5-75T143 230zm399 364h-86l-59 99-94-99h-91l138 144h106z"/><glyph glyph-name="dcaron.sc" horiz-adv-x="605" d="M125 536h176q48 0 93.5-12.5t81-39.5 57-70T554 310q0-70-24.5-127t-68-97.5-103.5-63T226 0H30zm15-455h87q56 0 98.5 18t71 48 43 69.5T454 300q0 32-10 60.5T413 410t-53 33.5-77 12.5h-77zm231 513H265l-86 144h87l58-99 94 99h90z"/><glyph glyph-name="dcroat.sc" horiz-adv-x="605" d="M74 245H7l13 67h66l39 224h176q48 0 93.5-12.5t81-39.5 57-70T554 310q0-70-24.5-127t-68-97.5-103.5-63T226 0H30zm107 67h141l-14-67H169L140 81h87q56 0 98.5 18t71 48 43 69.5T454 300q0 32-10 60.5T413 410t-53 33.5-77 12.5h-77z"/><glyph glyph-name="egrave.sc" horiz-adv-x="493" d="M30 0l95 536h341l-13-80H206l-25-141h235l-14-77H168L140 81h266L392 0H30zm110 738h110l100-144h-73z"/><glyph glyph-name="ecircumflex.sc" horiz-adv-x="493" d="M30 0l95 536h341l-13-80H206l-25-141h235l-14-77H168L140 81h266L392 0H30zm436 594h-86l-59 99-94-99h-91l138 144h106z"/><glyph glyph-name="ecaron.sc" horiz-adv-x="493" d="M30 0l95 536h341l-13-80H206l-25-141h235l-14-77H168L140 81h266L392 0H30zm321 594H245l-86 144h87l58-99 94 99h90z"/><glyph glyph-name="edieresis.sc" horiz-adv-x="493" d="M30 0l95 536h341l-13-80H206l-25-141h235l-14-77H168L140 81h266L392 0H30zm241 677q0-25-16.5-42.5T213 617t-42 15-17 42 18.5 44 42.5 17 40-15.5 16-42.5zm198 0q0-25-16.5-42.5T410 617q-24 0-41 15t-17 42 18 44 43 17q24 0 40-15.5t16-42.5z"/><glyph glyph-name="ebreve.sc" horiz-adv-x="493" d="M30 0l95 536h341l-13-80H206l-25-141h235l-14-77H168L140 81h266L392 0H30zm442 738q-14-66-61.5-102T297 600t-104 33.5T155 738h56q0-20 7-34t19-22.5 28.5-12T301 666q42 0 73.5 15.5T417 738h55z"/><glyph glyph-name="eogonek.sc" horiz-adv-x="493" d="M370-194q-23-17-48-27t-51-10q-35 0-59 18.5T188-156q0 24 11.5 46.5t29 42T267-31l40 31H30l95 536h341l-13-80H206l-25-141h235l-14-77H168L140 81h266L392 0h-31q-20-16-38-33t-32.5-34.5-23-35T259-136q0-20 12-27.5t29-7.5q30 0 56 21z"/><glyph glyph-name="emacron.sc" horiz-adv-x="493" d="M30 0l95 536h341l-13-80H206l-25-141h235l-14-77H168L140 81h266L392 0H30zm424 627H160l11 66h295z"/><glyph glyph-name="eacute.sc" horiz-adv-x="493" d="M30 0l95 536h341l-13-80H206l-25-141h235l-14-77H168L140 81h266L392 0H30zm292 594h-74l125 144h111z"/><glyph glyph-name="edotaccent.sc" horiz-adv-x="493" d="M30 0l95 536h341l-13-80H206l-25-141h235l-14-77H168L140 81h266L392 0H30zm346 677q0-25-17-43t-42-18q-24 0-41.5 15T258 673t18.5 44.5T319 735t40.5-16 16.5-42z"/><glyph glyph-name="gdotaccent.sc" horiz-adv-x="609" d="M297 72q67 0 111 23l22 128H316l13 78h208L491 37q-47-26-98-38.5T288-14q-56 0-101 17.5T110 52t-49.5 74T43 220q0 69 24 129.5t66.5 105 101 70T362 550q62 0 113-22t80-66l-78-59q-18 28-46.5 45T359 465q-49 0-89-19.5t-68-52-43.5-75T143 230q0-33 10.5-62t30-50T232 84.5 297 72zm143 605q0-25-17-43t-42-18q-24 0-41.5 15T322 673t18.5 44.5T383 735t40.5-16 16.5-42z"/><glyph glyph-name="gbreve.sc" horiz-adv-x="609" d="M297 72q67 0 111 23l22 128H316l13 78h208L491 37q-47-26-98-38.5T288-14q-56 0-101 17.5T110 52t-49.5 74T43 220q0 69 24 129.5t66.5 105 101 70T362 550q62 0 113-22t80-66l-78-59q-18 28-46.5 45T359 465q-49 0-89-19.5t-68-52-43.5-75T143 230q0-33 10.5-62t30-50T232 84.5 297 72zm252 666q-14-66-61.5-102T374 600t-104 33.5T232 738h56q0-20 7-34t19-22.5 28.5-12T378 666q42 0 73.5 15.5T494 738h55z"/><glyph glyph-name="gcommaaccent.sc" horiz-adv-x="609" d="M297 72q67 0 111 23l22 128H316l13 78h208L491 37q-47-26-98-38.5T288-14q-56 0-101 17.5T110 52t-49.5 74T43 220q0 69 24 129.5t66.5 105 101 70T362 550q62 0 113-22t80-66l-78-59q-18 28-46.5 45T359 465q-49 0-89-19.5t-68-52-43.5-75T143 230q0-33 10.5-62t30-50T232 84.5 297 72zM196-235h-77L223-45h93z"/><glyph glyph-name="gcircumflex.sc" horiz-adv-x="609" d="M297 72q67 0 111 23l22 128H316l13 78h208L491 37q-47-26-98-38.5T288-14q-56 0-101 17.5T110 52t-49.5 74T43 220q0 69 24 129.5t66.5 105 101 70T362 550q62 0 113-22t80-66l-78-59q-18 28-46.5 45T359 465q-49 0-89-19.5t-68-52-43.5-75T143 230q0-33 10.5-62t30-50T232 84.5 297 72zm248 522h-86l-59 99-94-99h-91l138 144h106z"/><glyph glyph-name="hbar.sc" horiz-adv-x="585" d="M354 0l41 237H169L127 0H31l93 536h96l-17-93h228l17 93h95L450 0h-96zm53 310l14 80H194l-14-80h227z"/><glyph glyph-name="hcircumflex.sc" horiz-adv-x="585" d="M354 0l41 237H169L127 0H31l93 536h96l-38-220h227l39 220h95L450 0h-96zm160 594h-86l-59 99-94-99h-91l138 144h106z"/><glyph glyph-name="iogonek.sc" horiz-adv-x="263" d="M135-194q-23-17-48-27t-51-10q-35 0-59 18.5T-47-156q0 24 11.5 46.5t29 42T32-31L72 0H30l95 536h96L126 0q-20-16-38-33T55.5-67.5t-23-35T24-136q0-20 12-27.5t29-7.5q30 0 56 21z"/><glyph glyph-name="iacute.sc" horiz-adv-x="263" d="M30 0l95 536h96L126 0H30zm176 594h-74l125 144h111z"/><glyph glyph-name="itilde.sc" horiz-adv-x="263" d="M30 0l95 536h96L126 0H30zM-3 602q7 22 18 42.5T40.5 681t34 26 45.5 10q20 0 37.5-6.5T192 696q17-9 33-15t30-6q21 0 34 15t21 32h55q-8-22-18.5-42.5T321 643t-34.5-26-44.5-10q-18 0-35 6t-34 14-33.5 15-31.5 7q-22 0-35-15t-21-32H-3z"/><glyph glyph-name="idotaccent.sc" horiz-adv-x="263" d="M30 0l95 536h96L126 0H30zm225 647q0-25-17-43t-42-18q-24 0-41.5 15T137 643t18.5 44.5T198 705t40.5-16 16.5-42z"/><glyph glyph-name="icircumflex.sc" horiz-adv-x="263" d="M30 0l95 536h96L126 0H30zm314 594h-86l-59 99-94-99H14l138 144h106z"/><glyph glyph-name="idieresis.sc" horiz-adv-x="263" d="M30 0l95 536h96L126 0H30zm122 677q0-25-16.5-42.5T94 617t-42 15-17 42 18.5 44T96 735t40-15.5 16-42.5zm198 0q0-25-16.5-42.5T291 617q-24 0-41 15t-17 42 18 44 43 17q24 0 40-15.5t16-42.5z"/><glyph glyph-name="imacron.sc" horiz-adv-x="263" d="M30 0l95 536h96L126 0H30zm299 627H35l11 66h295z"/><glyph glyph-name="igrave.sc" horiz-adv-x="263" d="M30 0l95 536h96L126 0H30zM14 738h110l100-144h-73z"/><glyph glyph-name="jcircumflex.sc" horiz-adv-x="404" d="M307 164q-6-34-17-66t-30.5-57-50-40T134-14Q71-14 33 20.5T-13 114l83 28q5-34 23.5-52T135 72q19 0 32 7t22 19.5 14 30.5 9 41l63 366h96zm192 430h-86l-59 99-94-99h-91l138 144h106z"/><glyph glyph-name="kcommaaccent.sc" horiz-adv-x="537" d="M357 0L174 266h-2L126 0H30l94 536h96l-41-231h2l243 231h132L275 284 479 0H357zM163-235H86L190-45h93z"/><glyph glyph-name="lslash.sc" horiz-adv-x="425" d="M85 311l40 225h96l-26-146 129 92-16-89-129-92-39-220h229L356 0H30l39 222-89-66 16 90z"/><glyph glyph-name="lacute.sc" horiz-adv-x="425" d="M30 0l95 536h96L140 81h229L356 0H30zm188 594h-74l125 144h111z"/><glyph glyph-name="lcaron.sc" horiz-adv-x="426" d="M30 0l95 536h96L140 81h229L356 0H30zm289 346h-77l104 190h93z"/><glyph glyph-name="lcommaaccent.sc" horiz-adv-x="425" d="M30 0l95 536h96L140 81h229L356 0H30zm94-235H47L151-45h93z"/><glyph glyph-name="ldot.sc" horiz-adv-x="425" d="M30 0l95 536h96L140 81h229L356 0H30zm360 277q0-25-17-43t-42-18q-24 0-41.5 15T272 273t18.5 44.5T333 335t40.5-16 16.5-42z"/><glyph glyph-name="nacute.sc" horiz-adv-x="616" d="M365 0L196 399h-1L125 0H30l94 536h114l170-395h1l70 395h95L479 0H365zm-15 594h-74l125 144h111z"/><glyph glyph-name="ncommaaccent.sc" horiz-adv-x="616" d="M365 0L196 399h-1L125 0H30l94 536h114l170-395h1l70 395h95L479 0H365zM191-235h-77L218-45h93z"/><glyph glyph-name="ncaron.sc" horiz-adv-x="616" d="M365 0L196 399h-1L125 0H30l94 536h114l170-395h1l70 395h95L479 0H365zm39 594H298l-86 144h87l58-99 94 99h90z"/><glyph glyph-name="ntilde.sc" horiz-adv-x="616" d="M365 0L196 399h-1L125 0H30l94 536h114l170-395h1l70 395h95L479 0H365zM188 602q7 22 18 42.5t25.5 36.5 34 26 45.5 10q20 0 37.5-6.5T383 696q17-9 33-15t30-6q21 0 34 15t21 32h55q-8-22-18.5-42.5T512 643t-34.5-26-44.5-10q-18 0-35 6t-34 14-33.5 15-31.5 7q-22 0-35-15t-21-32h-55z"/><glyph glyph-name="ograve.sc" horiz-adv-x="657" d="M360 550q56 0 101.5-17t77.5-48 49.5-73.5T606 317q0-68-23.5-128T517 84 417 12.5 290-14q-57 0-102.5 17T110 51t-49.5 74T43 220q0 68 24 128t67 105 100.5 71T360 550zM296 72q48 0 87 19.5t66.5 52.5 42.5 76 15 90q0 32-10.5 60.5t-30 49.5-48.5 33-65 12q-47 0-86-19.5T200 393t-43-75.5-15-88.5q0-33 10.5-61.5t30-49.5 48-33.5T296 72zm-89 666h110l100-144h-73z"/><glyph glyph-name="oacute.sc" horiz-adv-x="657" d="M360 550q56 0 101.5-17t77.5-48 49.5-73.5T606 317q0-68-23.5-128T517 84 417 12.5 290-14q-57 0-102.5 17T110 51t-49.5 74T43 220q0 68 24 128t67 105 100.5 71T360 550zM296 72q48 0 87 19.5t66.5 52.5 42.5 76 15 90q0 32-10.5 60.5t-30 49.5-48.5 33-65 12q-47 0-86-19.5T200 393t-43-75.5-15-88.5q0-33 10.5-61.5t30-49.5 48-33.5T296 72zm101 522h-74l125 144h111z"/><glyph glyph-name="ocircumflex.sc" horiz-adv-x="657" d="M360 550q56 0 101.5-17t77.5-48 49.5-73.5T606 317q0-68-23.5-128T517 84 417 12.5 290-14q-57 0-102.5 17T110 51t-49.5 74T43 220q0 68 24 128t67 105 100.5 71T360 550zM296 72q48 0 87 19.5t66.5 52.5 42.5 76 15 90q0 32-10.5 60.5t-30 49.5-48.5 33-65 12q-47 0-86-19.5T200 393t-43-75.5-15-88.5q0-33 10.5-61.5t30-49.5 48-33.5T296 72zm257 522h-86l-59 99-94-99h-91l138 144h106z"/><glyph glyph-name="omacron.sc" horiz-adv-x="657" d="M360 550q56 0 101.5-17t77.5-48 49.5-73.5T606 317q0-68-23.5-128T517 84 417 12.5 290-14q-57 0-102.5 17T110 51t-49.5 74T43 220q0 68 24 128t67 105 100.5 71T360 550zM296 72q48 0 87 19.5t66.5 52.5 42.5 76 15 90q0 32-10.5 60.5t-30 49.5-48.5 33-65 12q-47 0-86-19.5T200 393t-43-75.5-15-88.5q0-33 10.5-61.5t30-49.5 48-33.5T296 72zm234 555H236l11 66h295z"/><glyph glyph-name="obreve.sc" horiz-adv-x="657" d="M360 550q56 0 101.5-17t77.5-48 49.5-73.5T606 317q0-68-23.5-128T517 84 417 12.5 290-14q-57 0-102.5 17T110 51t-49.5 74T43 220q0 68 24 128t67 105 100.5 71T360 550zM296 72q48 0 87 19.5t66.5 52.5 42.5 76 15 90q0 32-10.5 60.5t-30 49.5-48.5 33-65 12q-47 0-86-19.5T200 393t-43-75.5-15-88.5q0-33 10.5-61.5t30-49.5 48-33.5T296 72zm259 666q-14-66-61.5-102T380 600t-104 33.5T238 738h56q0-20 7-34t19-22.5 28.5-12T384 666q42 0 73.5 15.5T500 738h55z"/><glyph glyph-name="oslash.sc" horiz-adv-x="657" d="M562 459q21-29 32.5-64.5T606 317q0-68-23.5-128T517 84 417 12.5 290-14q-102 0-167 53L59-23 20 15l66 63q-43 58-43 142 0 68 24 128t67 105 100.5 71T360 550q99 0 164-53l64 61 36-39zM295 69q49 0 89 20t68 53.5 43 77 15 91.5q0 44-19 80L191 104q41-35 104-35zM139 229q0-47 19-82l299 286q-20 17-46 26t-58 9q-48 0-87.5-20T198 394.5 154.5 318 139 229z"/><glyph glyph-name="odieresis.sc" horiz-adv-x="657" d="M360 550q56 0 101.5-17t77.5-48 49.5-73.5T606 317q0-68-23.5-128T517 84 417 12.5 290-14q-57 0-102.5 17T110 51t-49.5 74T43 220q0 68 24 128t67 105 100.5 71T360 550zM296 72q48 0 87 19.5t66.5 52.5 42.5 76 15 90q0 32-10.5 60.5t-30 49.5-48.5 33-65 12q-47 0-86-19.5T200 393t-43-75.5-15-88.5q0-33 10.5-61.5t30-49.5 48-33.5T296 72zm58 605q0-25-16.5-42.5T296 617t-42 15-17 42 18.5 44 42.5 17 40-15.5 16-42.5zm198 0q0-25-16.5-42.5T493 617q-24 0-41 15t-17 42 18 44 43 17q24 0 40-15.5t16-42.5z"/><glyph glyph-name="otilde.sc" horiz-adv-x="657" d="M360 550q56 0 101.5-17t77.5-48 49.5-73.5T606 317q0-68-23.5-128T517 84 417 12.5 290-14q-57 0-102.5 17T110 51t-49.5 74T43 220q0 68 24 128t67 105 100.5 71T360 550zM296 72q48 0 87 19.5t66.5 52.5 42.5 76 15 90q0 32-10.5 60.5t-30 49.5-48.5 33-65 12q-47 0-86-19.5T200 393t-43-75.5-15-88.5q0-33 10.5-61.5t30-49.5 48-33.5T296 72zm-92 530q7 22 18 42.5t25.5 36.5 34 26 45.5 10q20 0 37.5-6.5T399 696q17-9 33-15t30-6q21 0 34 15t21 32h55q-8-22-18.5-42.5T528 643t-34.5-26-44.5-10q-18 0-35 6t-34 14-33.5 15-31.5 7q-22 0-35-15t-21-32h-55z"/><glyph glyph-name="ohungarumlaut.sc" horiz-adv-x="657" d="M360 550q56 0 101.5-17t77.5-48 49.5-73.5T606 317q0-68-23.5-128T517 84 417 12.5 290-14q-57 0-102.5 17T110 51t-49.5 74T43 220q0 68 24 128t67 105 100.5 71T360 550zM296 72q48 0 87 19.5t66.5 52.5 42.5 76 15 90q0 32-10.5 60.5t-30 49.5-48.5 33-65 12q-47 0-86-19.5T200 393t-43-75.5-15-88.5q0-33 10.5-61.5t30-49.5 48-33.5T296 72zm203 522h-76l126 144h113zm-180 0h-76l125 144h113z"/><glyph glyph-name="racute.sc" horiz-adv-x="507" d="M438 0H333L231 226h-66L125 0H30l94 536h157q88 0 134-35t46-104q0-66-36-105.5T323 239zM178 304h61q60 0 92.5 20.5T364 390q0 32-23 50t-71 18h-65zm114 290h-74l125 144h111z"/><glyph glyph-name="rcommaaccent.sc" horiz-adv-x="507" d="M438 0H333L231 226h-66L125 0H30l94 536h157q88 0 134-35t46-104q0-66-36-105.5T323 239zM178 304h61q60 0 92.5 20.5T364 390q0 32-23 50t-71 18h-65zm-34-539H67L171-45h93z"/><glyph glyph-name="rcaron.sc" horiz-adv-x="507" d="M438 0H333L231 226h-66L125 0H30l94 536h157q88 0 134-35t46-104q0-66-36-105.5T323 239zM178 304h61q60 0 92.5 20.5T364 390q0 32-23 50t-71 18h-65zm165 290H237l-86 144h87l58-99 94 99h90z"/><glyph glyph-name="sacute.sc" horiz-adv-x="454" d="M66 127q18-32 49.5-45.5T177 68q54 0 78 24t24 60q0 33-25 52t-70 36q-68 26-94 59.5T64 382q0 39 16 70t43.5 53 64.5 33.5 80 11.5q54 0 94-22t58-48l-72-57q-16 25-40 35.5T258 469q-42 0-69-22.5T162 389q0-27 16.5-42t55.5-30q74-26 110.5-62.5T381 158q0-42-15.5-74T322 30 256-3t-83-11q-65 0-113 24.5T-13 73zm211 467h-74l125 144h111z"/><glyph glyph-name="scaron.sc" horiz-adv-x="454" d="M66 127q18-32 49.5-45.5T177 68q54 0 78 24t24 60q0 33-25 52t-70 36q-68 26-94 59.5T64 382q0 39 16 70t43.5 53 64.5 33.5 80 11.5q54 0 94-22t58-48l-72-57q-16 25-40 35.5T258 469q-42 0-69-22.5T162 389q0-27 16.5-42t55.5-30q74-26 110.5-62.5T381 158q0-42-15.5-74T322 30 256-3t-83-11q-65 0-113 24.5T-13 73zm260 467H220l-86 144h87l58-99 94 99h90z"/><glyph glyph-name="scommaaccent.sc" horiz-adv-x="454" d="M66 127q18-32 49.5-45.5T177 68q54 0 78 24t24 60q0 33-25 52t-70 36q-68 26-94 59.5T64 382q0 39 16 70t43.5 53 64.5 33.5 80 11.5q54 0 94-22t58-48l-72-57q-16 25-40 35.5T258 469q-42 0-69-22.5T162 389q0-27 16.5-42t55.5-30q74-26 110.5-62.5T381 158q0-42-15.5-74T322 30 256-3t-83-11q-65 0-113 24.5T-13 73zm48-362H37L141-45h93z"/><glyph glyph-name="scedilla.sc" horiz-adv-x="454" d="M66 127q18-32 49.5-45.5T177 68q54 0 78 24t24 60q0 33-25 52t-70 36q-68 26-94 59.5T64 382q0 39 16 70t43.5 53 64.5 33.5 80 11.5q54 0 94-22t58-48l-72-57q-16 25-40 35.5T258 469q-42 0-69-22.5T162 389q0-27 16.5-42t55.5-30q74-26 110.5-62.5T381 158q0-38-13-68t-36.5-51.5-55.5-34T205-12l-48-58q8 2 14 2.5t12 .5q13 0 27.5-3.5t26.5-12 20-22 8-33.5q0-27-13-46t-32.5-30-42.5-16-44-5q-26 0-55 6t-49 17l24 42q17-8 36.5-12.5T129-187q10 0 21 2t21 6.5 16.5 13T194-144q0 21-14.5 29t-33.5 8q-10 0-21-2t-21-5L87-94l67 81Q96-9 53 14t-66 59z"/><glyph glyph-name="scircumflex.sc" horiz-adv-x="454" d="M66 127q18-32 49.5-45.5T177 68q54 0 78 24t24 60q0 33-25 52t-70 36q-68 26-94 59.5T64 382q0 39 16 70t43.5 53 64.5 33.5 80 11.5q54 0 94-22t58-48l-72-57q-16 25-40 35.5T258 469q-42 0-69-22.5T162 389q0-27 16.5-42t55.5-30q74-26 110.5-62.5T381 158q0-42-15.5-74T322 30 256-3t-83-11q-65 0-113 24.5T-13 73zm378 467h-86l-59 99-94-99h-91l138 144h106z"/><glyph glyph-name="germandbls.sc" horiz-adv-x="908" d="M66 127q18-32 49.5-45.5T177 68q54 0 78 24t24 60q0 33-25 52t-70 36q-68 26-94 59.5T64 382q0 39 16 70t43.5 53 64.5 33.5 80 11.5q54 0 94-22t58-48l-72-57q-16 25-40 35.5T258 469q-42 0-69-22.5T162 389q0-27 16.5-42t55.5-30q74-26 110.5-62.5T381 158q0-42-15.5-74T322 30 256-3t-83-11q-65 0-113 24.5T-13 73zm454 0q18-32 49.5-45.5T631 68q54 0 78 24t24 60q0 33-25 52t-70 36q-68 26-94 59.5T518 382q0 39 16 70t43.5 53 64.5 33.5 80 11.5q54 0 94-22t58-48l-72-57q-16 25-40 35.5T712 469q-42 0-69-22.5T616 389q0-27 16.5-42t55.5-30q74-26 110.5-62.5T835 158q0-42-15.5-74T776 30 710-3t-83-11q-65 0-113 24.5T441 73z"/><glyph glyph-name="tcommaaccent.sc" horiz-adv-x="433" d="M289 458L208 0h-94l80 458H31l13 78h422l-14-78H289zM95-235H18L122-45h93z"/><glyph glyph-name="tcaron.sc" horiz-adv-x="433" d="M289 458L208 0h-94l80 458H31l13 78h422l-14-78H289zm28 136H211l-86 144h87l58-99 94 99h90z"/><glyph glyph-name="tbar.sc" horiz-adv-x="433" d="M259 290L208 0h-94l50 290H64l12 63h99l19 105H31l13 78h422l-14-78H289l-19-105h109l-12-63H259z"/><glyph glyph-name="uogonek.sc" horiz-adv-x="571" d="M306-194q-23-17-48-27t-51-10q-35 0-59 18.5T124-156q0 21 9 41t23 38 32 34 36 30Q143-9 97 35T51 148q0 11 1 22t3 25l60 341h96l-58-327q-2-11-3-22t-1-20q0-42 22.5-68.5T242 72q33 0 57.5 11.5T342 115t29.5 47 16.5 58l55 316h96l-58-330q-7-40-21.5-76T421 65t-57.5-48.5T284-10q-35-31-62-63t-27-63q0-20 12-27.5t29-7.5q30 0 56 21z"/><glyph glyph-name="uacute.sc" horiz-adv-x="571" d="M481 206q-8-45-25-85t-46.5-70T338 3.5 238-14q-88 0-137.5 45T51 148q0 11 1 22t3 25l60 341h96l-58-327q-2-11-3-22t-1-20q0-42 22.5-68.5T242 72q33 0 57.5 11.5T342 115t29.5 47 16.5 58l55 316h96zM348 594h-74l125 144h111z"/><glyph glyph-name="ugrave.sc" horiz-adv-x="571" d="M481 206q-8-45-25-85t-46.5-70T338 3.5 238-14q-88 0-137.5 45T51 148q0 11 1 22t3 25l60 341h96l-58-327q-2-11-3-22t-1-20q0-42 22.5-68.5T242 72q33 0 57.5 11.5T342 115t29.5 47 16.5 58l55 316h96zM169 738h110l100-144h-73z"/><glyph glyph-name="ucircumflex.sc" horiz-adv-x="571" d="M481 206q-8-45-25-85t-46.5-70T338 3.5 238-14q-88 0-137.5 45T51 148q0 11 1 22t3 25l60 341h96l-58-327q-2-11-3-22t-1-20q0-42 22.5-68.5T242 72q33 0 57.5 11.5T342 115t29.5 47 16.5 58l55 316h96zm23 388h-86l-59 99-94-99h-91l138 144h106z"/><glyph glyph-name="udieresis.sc" horiz-adv-x="571" d="M481 206q-8-45-25-85t-46.5-70T338 3.5 238-14q-88 0-137.5 45T51 148q0 11 1 22t3 25l60 341h96l-58-327q-2-11-3-22t-1-20q0-42 22.5-68.5T242 72q33 0 57.5 11.5T342 115t29.5 47 16.5 58l55 316h96zM311 677q0-25-16.5-42.5T253 617t-42 15-17 42 18.5 44 42.5 17 40-15.5 16-42.5zm198 0q0-25-16.5-42.5T450 617q-24 0-41 15t-17 42 18 44 43 17q24 0 40-15.5t16-42.5z"/><glyph glyph-name="ubreve.sc" horiz-adv-x="571" d="M481 206q-8-45-25-85t-46.5-70T338 3.5 238-14q-88 0-137.5 45T51 148q0 11 1 22t3 25l60 341h96l-58-327q-2-11-3-22t-1-20q0-42 22.5-68.5T242 72q33 0 57.5 11.5T342 115t29.5 47 16.5 58l55 316h96zm27 532q-14-66-61.5-102T333 600t-104 33.5T191 738h56q0-20 7-34t19-22.5 28.5-12T337 666q42 0 73.5 15.5T453 738h55z"/><glyph glyph-name="uhungarumlaut.sc" horiz-adv-x="571" d="M481 206q-8-45-25-85t-46.5-70T338 3.5 238-14q-88 0-137.5 45T51 148q0 11 1 22t3 25l60 341h96l-58-327q-2-11-3-22t-1-20q0-42 22.5-68.5T242 72q33 0 57.5 11.5T342 115t29.5 47 16.5 58l55 316h96zm-32 388h-76l126 144h113zm-180 0h-76l125 144h113z"/><glyph glyph-name="umacron.sc" horiz-adv-x="571" d="M481 206q-8-45-25-85t-46.5-70T338 3.5 238-14q-88 0-137.5 45T51 148q0 11 1 22t3 25l60 341h96l-58-327q-2-11-3-22t-1-20q0-42 22.5-68.5T242 72q33 0 57.5 11.5T342 115t29.5 47 16.5 58l55 316h96zm5 421H192l11 66h295z"/><glyph glyph-name="utilde.sc" horiz-adv-x="571" d="M481 206q-8-45-25-85t-46.5-70T338 3.5 238-14q-88 0-137.5 45T51 148q0 11 1 22t3 25l60 341h96l-58-327q-2-11-3-22t-1-20q0-42 22.5-68.5T242 72q33 0 57.5 11.5T342 115t29.5 47 16.5 58l55 316h96zM164 602q7 22 18 42.5t25.5 36.5 34 26 45.5 10q20 0 37.5-6.5T359 696q17-9 33-15t30-6q21 0 34 15t21 32h55q-8-22-18.5-42.5T488 643t-34.5-26-44.5-10q-18 0-35 6t-34 14-33.5 15-31.5 7q-22 0-35-15t-21-32h-55z"/><glyph glyph-name="uring.sc" horiz-adv-x="571" d="M481 206q-8-45-25-85t-46.5-70T338 3.5 238-14q-88 0-137.5 45T51 148q0 11 1 22t3 25l60 341h96l-58-327q-2-11-3-22t-1-20q0-42 22.5-68.5T242 72q33 0 57.5 11.5T342 115t29.5 47 16.5 58l55 316h96zM338 583q-38 0-62.5 24T251 666q0 24 8 44.5t23 36.5 35.5 25 44.5 9q39 0 63-23t24-59q0-49-31-82.5T338 583zm70 110q0 21-13 36t-36 15q-29 0-47.5-21T293 671q0-21 12.5-35.5T341 621q29 0 48 21t19 51z"/><glyph glyph-name="wcircumflex.sc" horiz-adv-x="756" d="M534 0h-98l-42 393h-1L199 0H99L47 536h99l31-395h2l192 395h96l40-395h2l187 395h99zm61 594h-86l-59 99-94-99h-91l138 144h106z"/><glyph glyph-name="ycircumflex.sc" horiz-adv-x="465" d="M260 231L219 0h-95l40 232L28 536h105l93-228 183 228h112zm194 363h-86l-59 99-94-99h-91l138 144h106z"/><glyph glyph-name="yacute.sc" horiz-adv-x="465" d="M260 231L219 0h-95l40 232L28 536h105l93-228 183 228h112zm33 363h-74l125 144h111z"/><glyph glyph-name="ydieresis.sc" horiz-adv-x="465" d="M260 231L219 0h-95l40 232L28 536h105l93-228 183 228h112zm-8 446q0-25-16.5-42.5T194 617t-42 15-17 42 18.5 44 42.5 17 40-15.5 16-42.5zm198 0q0-25-16.5-42.5T391 617q-24 0-41 15t-17 42 18 44 43 17q24 0 40-15.5t16-42.5z"/><glyph glyph-name="zacute.sc" horiz-adv-x="491" d="M-15 0l14 82 346 376H88l14 78h383l-14-74L122 81h287L395 0H-15zm297 594h-74l125 144h111z"/><glyph glyph-name="zdotaccent.sc" horiz-adv-x="491" d="M-15 0l14 82 346 376H88l14 78h383l-14-74L122 81h287L395 0H-15zm381 677q0-25-17-43t-42-18q-24 0-41.5 15T248 673t18.5 44.5T309 735t40.5-16 16.5-42z"/><glyph glyph-name="zcaron.sc" horiz-adv-x="491" d="M-15 0l14 82 346 376H88l14 78h383l-14-74L122 81h287L395 0H-15zm367 594H246l-86 144h87l58-99 94 99h90z"/><glyph glyph-name="ij.sc" horiz-adv-x="656" d="M30 0l95 536h96L126 0H30zm529 164q-6-34-17-66t-30.5-57-50-40T386-14q-63 0-101 34.5T239 114l83 28q5-34 23.5-52T387 72q19 0 32 7t22 19.5 14 30.5 9 41l63 366h96z"/><glyph glyph-name="fi.sc" horiz-adv-x="736" d="M206 456l-26-150h224l-13-78H167L126 0H30l94 536h337l-14-80H206zM503 0l95 536h96L599 0h-96z"/><glyph glyph-name="fl.sc" horiz-adv-x="898" d="M206 456l-26-150h224l-13-78H167L126 0H30l94 536h337l-14-80H206zM503 0l95 536h96L613 81h229L829 0H503z"/><glyph glyph-name="oe.sc" horiz-adv-x="784" d="M294 0q-57 0-103 14.5T112.5 57 62 126t-18 93q0 68 25 126t68.5 100.5 102 66.5T364 536h393l-13-80H497l-25-141h235l-14-77H459L431 81h266L683 0H294zm42 86l64 364h-43q-47 0-86-17.5t-67.5-48-44.5-71-16-86.5q0-66 41.5-103.5T300 86h36z"/><glyph glyph-name="eth.sc" horiz-adv-x="605" d="M74 245H7l13 67h66l39 224h176q48 0 93.5-12.5t81-39.5 57-70T554 310q0-70-24.5-127t-68-97.5-103.5-63T226 0H30zm107 67h141l-14-67H169L140 81h87q56 0 98.5 18t71 48 43 69.5T454 300q0 32-10 60.5T413 410t-53 33.5-77 12.5h-77z"/><glyph glyph-name="circumflex.sc" d="M335 594h-86l-59 99-94-99H5l138 144h106z"/><glyph glyph-name="caron.sc" d="M223 594H117L31 738h87l58-99 94 99h90z"/><glyph glyph-name="tilde.sc" d="M-1 602q7 22 18 42.5T42.5 681t34 26 45.5 10q20 0 37.5-6.5T194 696q17-9 33-15t30-6q21 0 34 15t21 32h55q-8-22-18.5-42.5T323 643t-34.5-26-44.5-10q-18 0-35 6t-34 14-33.5 15-31.5 7q-22 0-35-15t-21-32H-1z"/><glyph glyph-name="dieresis.sc" d="M143 677q0-25-16.5-42.5T85 617t-42 15-17 42 18.5 44T87 735t40-15.5 16-42.5zm198 0q0-25-16.5-42.5T282 617q-24 0-41 15t-17 42 18 44 43 17q24 0 40-15.5t16-42.5z"/><glyph glyph-name="macron.sc" d="M323 627H29l11 66h295z"/><glyph glyph-name="breve.sc" d="M354 738q-14-66-61.5-102T179 600 75 633.5 37 738h56q0-20 7-34t19-22.5 28.5-12T183 666q42 0 73.5 15.5T299 738h55z"/><glyph glyph-name="ring.sc" d="M175 583q-38 0-62.5 24T88 666q0 24 8 44.5t23 36.5 35.5 25 44.5 9q39 0 63-23t24-59q0-49-31-82.5T175 583zm70 110q0 21-13 36t-36 15q-29 0-47.5-21T130 671q0-21 12.5-35.5T178 621q29 0 48 21t19 51z"/><glyph glyph-name="hungarumlaut.sc" d="M300 594h-76l126 144h113zm-180 0H44l125 144h113z"/><glyph glyph-name="dotaccent.sc" d="M245 677q0-25-17-43t-42-18q-24 0-41.5 15T127 673t18.5 44.5T188 735t40.5-16 16.5-42z"/><glyph glyph-name="grave.sc" d="M19 738h110l100-144h-73z"/><glyph glyph-name="acute.sc" d="M190 594h-74l125 144h111z"/><glyph glyph-name="hungarumlaut.cap" d="M300 764h-76l126 144h113zm-180 0H44l125 144h113z"/><glyph glyph-name="dotaccent.cap" d="M245 847q0-25-17-43t-42-18q-24 0-41.5 15T127 843t18.5 44.5T188 905t40.5-16 16.5-42z"/><glyph glyph-name="caron.cap" d="M223 764H117L31 908h87l58-99 94 99h90z"/><glyph glyph-name="tilde.cap" d="M-1 772q7 22 18 42.5T42.5 851t34 26 45.5 10q20 0 37.5-6t34.5-15q17-8 33-14.5t30-6.5q21 0 34 15t21 32h55q-8-22-18.5-42.5T323 813t-34.5-26-44.5-10q-18 0-35 6t-34 14q-17 9-33.5 15.5T110 819q-22 0-35-15t-21-32H-1z"/><glyph glyph-name="dieresis.cap" d="M341 847q0-25-16.5-42.5T282 787q-24 0-41 15t-17 42 18 44 43 17q24 0 40-15.5t16-42.5zm-198 0q0-25-16.5-42.5T85 787t-42 15-17 42 18.5 44T87 905t40-15.5 16-42.5z"/><glyph glyph-name="macron.cap" d="M323 797H29l11 66h295z"/><glyph glyph-name="breve.cap" d="M354 908q-14-66-61.5-102T179 770 75 803.5 37 908h56q0-20 7-34t19-22.5 28.5-12T183 836q42 0 73.5 15.5T299 908h55z"/><glyph glyph-name="ring.cap" d="M175 753q-38 0-62.5 24T88 836q0 24 8 44.5t23 36.5 35.5 25 44.5 9q39 0 63-23t24-59q0-49-31-82.5T175 753zm70 110q0 21-13 36t-36 15q-29 0-47.5-21T130 841q0-21 12.5-35.5T178 791q29 0 48 21t19 51z"/><glyph glyph-name="grave.cap" d="M19 908h110l100-144h-73z"/><glyph glyph-name="acute.cap" d="M190 764h-74l125 144h111z"/><glyph glyph-name="circumflex.cap" d="M335 764h-86l-59 99-94-99H5l138 144h106z"/><glyph glyph-name="caron.alt" d="M132 518H55l104 190h93z"/><glyph glyph-name="commaaccent.alt" d="M220 759h77L193 564h-93z"/><glyph glyph-name="Ohorn" unicode="Ơ" horiz-adv-x="831" d="M882 765q0-67-39-108.5T728 613q29-38 45.5-86.5T790 421q0-91-30.5-171T674 110.5t-130-94T381-18q-74 0-134.5 21.5T143 64.5t-66.5 96T53 287q0 91 31.5 171t87 139.5 130.5 94T465 726q52 0 88-9t63-19.5l49-19.5 45-9q42 0 66.5 24.5T801 760q0 23-7 42l80 20q8-24 8-57zM382 67q70 0 127 29t96.5 77.5 61 110.5T688 412q0 48-15 89.5t-44 73-71.5 49.5-97.5 18q-70 0-126.5-29.5t-96.5-78T175.5 424 154 297q0-48 15-89.5t44-73T284.5 85 382 67z"/><glyph glyph-name="ohorn" unicode="ơ" horiz-adv-x="605" d="M660 548q0-67-39.5-108.5T505 396q34-49 34-115 0-60-20.5-113.5t-58-93.5-90-63.5T254-13q-49 0-90 15T93 44t-46.5 65T30 193q0 59 20.5 112t58 93.5 90 64T314 486q33 0 56-5.5t42-11.5l36.5-11.5L488 452q43 0 67 24.5t24 66.5q0 23-7 42l80 20q8-24 8-57zM445 273q0 29-9.5 54t-27 43.5-43 29T308 410q-41 0-74.5-17t-58-45.5-38-66.5-13.5-80q0-60 35.5-98.5T259 64q41 0 75.5 17t59 45.5 38 66.5 13.5 80z"/><glyph glyph-name="Uhorn" unicode="Ư" horiz-adv-x="722" d="M622 262q-9-54-30.5-104.5t-58-89.5-90-62.5T317-18q-63 0-109.5 17T130 46t-46.5 69.5T68 200q0 30 6 62l78 446h97l-77-440q-3-13-4-26.5t-1-26.5q0-30 8-56.5t26-47T248.5 79 320 67q52 0 88 17t60 45 37.5 64.5T526 268l77 440h66q43 0 67 24.5t24 66.5q0 23-7 42l80 20q8-24 8-57 0-31-9-58t-28-47.5-47-33-66-13.5l-69-390z"/><glyph glyph-name="uhorn" unicode="ư" horiz-adv-x="591" d="M360 77q-26-41-66.5-65.5T202-13q-78 0-118.5 41.5T43 133q0 12 1.5 23.5T48 181l52 293h92l-46-262q-6-27-6-53 0-41 20-67t72-26q56 0 97.5 42T383 222l45 252h60q43 0 67 24.5t24 66.5q0 23-7 42l80 20q8-24 8-57 0-31-9-58t-28-47.5-47-33-66-13.5l-55-315q-4-19-8.5-49T440 0h-88l10 77h-2z"/><glyph glyph-name="hookabovecomb" unicode="̉" d="M74 555q5 23 17 40t42 31q38 17 38 46t-34 29q-20 0-34-11.5T81 652l-66 8q15 46 47 68.5t77 22.5q48 0 73.5-21t25.5-55q0-29-17.5-50T173 591q-19-8-27-16.5T136 555H74z"/><glyph glyph-name="uni037E" unicode=";" horiz-adv-x="300" d="M53-133h-82L83 116h97zm174 550q0-26-18.5-46T163 351q-26 0-44.5 16.5T100 413t20 48 46 19 43.5-17 17.5-46z"/><glyph glyph-name="uni1E02" unicode="Ḃ" horiz-adv-x="633" d="M157 708h226q37 0 73.5-8t66-26.5 48-48T589 553q0-71-43-117.5T433 372v-2q58-9 95-48.5T565 219q0-54-22.5-95T480 55.5 384.5 14 263 0H32zm43-300h137q25 0 51.5 6.5t49 21 37 38T489 532q0 25-10 43t-27.5 29-41.5 16.5-52 5.5H239zM143 83h129q38 0 73 7.5t62 24 43 43.5 16 66q0 48-36.5 75T326 326H186zm310 764q0-25-17-43t-42-18q-24 0-41.5 15T335 843t18.5 44.5T396 905t40.5-16 16.5-42z"/><glyph glyph-name="uni1E03" unicode="ḃ" horiz-adv-x="633" d="M133 80L119 0H30l133 756h93l-65-358h2q26 38 71.5 63.5T365 487q47 0 85-15t65-42 42-64.5 15-83.5q0-61-20-114.5T496 74t-85.5-63T303-12q-52 0-98.5 23.5T135 80h-2zm344 193q0 58-34 97.5T345 410q-40 0-74-16.5t-59.5-45-40-66.5-14.5-80q0-30 9.5-55.5T194 103t43-28.5T293 64q42 0 76 16.5t58 44.5 37 66 13 82zm-6 574q0-25-17-43t-42-18q-24 0-41.5 15T353 843t18.5 44.5T414 905t40.5-16 16.5-42z"/><glyph glyph-name="uni1E0A" unicode="Ḋ" horiz-adv-x="757" d="M157 708h229q60 0 119-16.5t106-52 76-92T716 412q0-93-32.5-169T593 113 456 29.5 284 0H32zM144 86h145q80 0 140.5 26.5T531 183t61.5 100.5T613 400q0 46-15 86.5t-45.5 71-78 48.5T362 624H239zm353 761q0-25-17-43t-42-18q-24 0-41.5 15T379 843t18.5 44.5T440 905t40.5-16 16.5-42z"/><glyph glyph-name="uni1E0B" unicode="ḋ" horiz-adv-x="628" d="M30 193q0 61 20 114.5t56 93.5 85.5 63T300 487q58 0 100.5-24t64.5-67h2l63 360h93L489 0h-90l13 76h-2q-26-39-72-63.5T237-12q-47 0-85 15T87 45t-42 64.5T30 193zm96 9q0-58 34-97.5T258 65q39 0 73.5 16.5t60 45 40 66.5 14.5 80q0 30-9.5 55.5T409 372t-43 28.5-56 10.5q-42 0-76-16.5T176 350t-37-66.5-13-81.5zm331 645q0-25-17-43t-42-18q-24 0-41.5 15T339 843t18.5 44.5T400 905t40.5-16 16.5-42z"/><glyph glyph-name="uni1E1E" unicode="Ḟ" horiz-adv-x="553" d="M130 0H32l125 708h428l-15-86H240l-40-221h309l-14-83H186zm324 847q0-25-17-43t-42-18q-24 0-41.5 15T336 843t18.5 44.5T397 905t40.5-16 16.5-42z"/><glyph glyph-name="uni1E1F" unicode="ḟ" horiz-adv-x="309" d="M319 399H208L138 0H47l70 399H22l14 75h93l18 100q7 37 20.5 72t37 62 57.5 43.5 81 16.5q33 0 57-7l-20-80q-10 3-20.5 5t-23.5 2q-24 0-41-9.5T266.5 653t-18-37-10.5-43l-18-99h113zm17 484q0-25-17-43t-42-18q-24 0-41.5 15T218 879t18.5 44.5T279 941t40.5-16 16.5-42z"/><glyph glyph-name="uni1E22" unicode="Ḣ" horiz-adv-x="719" d="M157 708h98l-53-297h350l53 297h98L578 0h-98l57 325H187L130 0H32zm356 139q0-25-17-43t-42-18q-24 0-41.5 15T395 843t18.5 44.5T456 905t40.5-16 16.5-42z"/><glyph glyph-name="uni1E23" unicode="ḣ" horiz-adv-x="581" d="M347 487q78 0 118-41.5T505 341q0-25-4-48L449 0h-93l46 262q6 27 6 53 0 41-20 67t-72 26q-57 0-97.5-42.5T165 251L121 0H28l133 756h93l-62-354h2q23 36 62.5 60.5T347 487zm115 352q0-25-17-43t-42-18q-24 0-41.5 15T344 835t18.5 44.5T405 897t40.5-16 16.5-42z"/><glyph glyph-name="uni1E56" unicode="Ṗ" horiz-adv-x="595" d="M157 708h202q110 0 169.5-47T588 530q0-56-20.5-97.5t-58-68.5-89.5-40-115-13H184L129 0H32zm41-315h112q82 0 131 30t49 96q0 30-10.5 50.5t-29.5 33-45.5 17.5-58.5 5H240zm255 454q0-25-17-43t-42-18q-24 0-41.5 15T335 843t18.5 44.5T396 905t40.5-16 16.5-42z"/><glyph glyph-name="uni1E57" unicode="ṗ" horiz-adv-x="632" d="M191 398q26 38 72 63t101 25q47 0 85-15t65-42 42-64.5 15-83.5q0-61-20.5-114.5T494 73t-85.5-63T301-13 200.5 11 136 77h-2L79-240h-93l126 714h90l-13-76h2zm284-126q0 58-34 97.5T343 409q-39 0-73.5-16.5t-60-45-40-66.5-14.5-80q0-30 9.5-55.5T192 102t43.5-28.5T292 63q41 0 75 16.5t58 44.5 37 66 13 82zm-37 375q0-25-17-43t-42-18q-24 0-41.5 15T320 643t18.5 44.5T381 705t40.5-16 16.5-42z"/><glyph glyph-name="uni1E60" unicode="Ṡ" horiz-adv-x="569" d="M481 580q-20 29-54 46.5T350 644q-25 0-51.5-7t-49-22.5-37-39.5-14.5-57q0-23 8.5-40t23.5-30 36-23.5 46-19.5q39-14 72.5-31.5t59-41 40-54T498 208q0-49-18.5-90.5t-53-71.5T343-1 233-18q-34 0-67.5 7T101 9.5t-56.5 34T2 92l82 55q20-35 60.5-58.5T237 65q30 0 58.5 8.5t50.5 25 35.5 41T395 197q0 27-11 47t-30 35-44 26.5-53 21.5q-31 12-60 27t-51 36-35 50-13 69q0 49 19.5 89.5T172 667t83 43.5T359 726q62 0 115.5-23t82.5-65zm-35 267q0-25-17-43t-42-18q-24 0-41.5 15T328 843t18.5 44.5T389 905t40.5-16 16.5-42z"/><glyph glyph-name="uni1E61" unicode="ṡ" horiz-adv-x="444" d="M347 360q-14 23-38 38t-62 15q-17 0-34-3.5t-31.5-11T158 378t-9-31q0-30 22-43t63-24q68-20 104.5-51.5T375 139q0-39-17-68t-44.5-48T251-5.5 180-15q-68 0-117.5 25T-14 78l75 49q16-29 47.5-47T180 62q42 0 73 17.5t31 52.5q0 31-24.5 47T186 211q-28 9-51 19t-40 25-26.5 35-9.5 49q0 35 16 62.5t43 46.5 62.5 29 73.5 10q55 0 99-21t66-59zm2 287q0-25-17-43t-42-18q-24 0-41.5 15T231 643t18.5 44.5T292 705t40.5-16 16.5-42z"/><glyph glyph-name="uni1E6A" unicode="Ṫ" horiz-adv-x="535" d="M260 0h-98l110 622H48l15 86h544l-15-86H370zm161 847q0-25-17-43t-42-18q-24 0-41.5 15T303 843t18.5 44.5T364 905t40.5-16 16.5-42z"/><glyph glyph-name="uni1E6B" unicode="ṫ" horiz-adv-x="324" d="M315 398H198l-45-249q-3-17-3-30 0-30 15.5-40.5T207 68q14 0 28 3t23 8l-7-74q-14-6-34.5-9.5T176-8q-55 0-87.5 24.5T56 94q0 11 1 23t3 24l46 257H16l14 76h89l23 136h92l-24-136h119zm-43 359q0-25-17-43t-42-18q-24 0-41.5 15T154 753t18.5 44.5T215 815t40.5-16 16.5-42z"/><glyph glyph-name="uni1EA0" unicode="Ạ" horiz-adv-x="681" d="M47 0H-68l459 708h89L624 0H521l-34 174H155zm159 261h267l-60 336zm131-405q0-24-17-42t-42-18q-24 0-41 15t-17 42q0 26 18.5 43.5T280-86q24 0 40.5-16t16.5-42z"/><glyph glyph-name="uni1EA1" unicode="ạ" horiz-adv-x="537" d="M370 296q2 14 3 22t1 15q0 42-26 60.5T274 412q-38 0-76-15t-66-37l-38 62q38 30 89 47.5T287 487q34 0 65.5-7.5t56-24T448 412t15-65q0-9-1-23.5t-3-24.5l-35-192q-5-28-8-57.5T413 0h-85q0 15 1.5 32t4.5 34h-2q-34-40-74-58t-94-18q-24 0-50 6T66.5 16.5 31 55t-14 60q0 58 32 93.5t82.5 55 113.5 26 125 6.5zm-25-68q-39 0-81-3.5t-76.5-14T131 180t-22-52q0-20 7.5-32.5t20-20.5 28-11 31.5-3q31 0 58 10.5t47 28.5 33.5 42 18.5 51l7 35h-15zM238-144q0-24-17-42t-42-18q-24 0-41 15t-17 42q0 26 18.5 43.5T181-86q24 0 40.5-16t16.5-42z"/><glyph glyph-name="uni1EA2" unicode="Ả" horiz-adv-x="681" d="M47 0H-68l459 708h89L624 0H521l-34 174H155zm159 261h267l-60 336zm199 493q5 23 17 40t42 31q38 17 38 46t-34 29q-20 0-34-11.5T412 851l-66 8q15 46 47 68.5t77 22.5q48 0 73.5-21t25.5-55q0-29-17.5-50T504 790q-19-8-27-16.5T467 754h-62z"/><glyph glyph-name="uni1EA3" unicode="ả" horiz-adv-x="537" d="M370 296q2 14 3 22t1 15q0 42-26 60.5T274 412q-38 0-76-15t-66-37l-38 62q38 30 89 47.5T287 487q34 0 65.5-7.5t56-24T448 412t15-65q0-9-1-23.5t-3-24.5l-35-192q-5-28-8-57.5T413 0h-85q0 15 1.5 32t4.5 34h-2q-34-40-74-58t-94-18q-24 0-50 6T66.5 16.5 31 55t-14 60q0 58 32 93.5t82.5 55 113.5 26 125 6.5zm-25-68q-39 0-81-3.5t-76.5-14T131 180t-22-52q0-20 7.5-32.5t20-20.5 28-11 31.5-3q31 0 58 10.5t47 28.5 33.5 42 18.5 51l7 35h-15zm-75 327q5 23 17 40t42 31q38 17 38 46t-34 29q-20 0-34-11.5T277 652l-66 8q15 46 47 68.5t77 22.5q48 0 73.5-21t25.5-55q0-29-17.5-50T369 591q-19-8-27-16.5T332 555h-62z"/><glyph glyph-name="uni1EA4" unicode="Ấ" horiz-adv-x="681" d="M47 0H-68l459 708h89L624 0H521l-34 174H155zm159 261h267l-60 336zm311 493l-59 99-94-99h-91l138 144h106l85-144h-85zm148 234h109L640 858h-71z"/><glyph glyph-name="uni1EA5" unicode="ấ" horiz-adv-x="537" d="M370 296q2 14 3 22t1 15q0 42-26 60.5T274 412q-38 0-76-15t-66-37l-38 62q38 30 89 47.5T287 487q34 0 65.5-7.5t56-24T448 412t15-65q0-9-1-23.5t-3-24.5l-35-192q-5-28-8-57.5T413 0h-85q0 15 1.5 32t4.5 34h-2q-34-40-74-58t-94-18q-24 0-50 6T66.5 16.5 31 55t-14 60q0 58 32 93.5t82.5 55 113.5 26 125 6.5zm-25-68q-39 0-81-3.5t-76.5-14T131 180t-22-52q0-20 7.5-32.5t20-20.5 28-11 31.5-3q31 0 58 10.5t47 28.5 33.5 42 18.5 51l7 35h-15zm35 316l-59 99-94-99h-91l138 144h106l85-144h-85zm154 249h110L505 658h-71z"/><glyph glyph-name="uni1EA6" unicode="Ầ" horiz-adv-x="681" d="M47 0H-68l459 708h89L624 0H521l-34 174H155zm159 261h267l-60 336zm311 493l-59 99-94-99h-91l138 144h106l85-144h-85zM345 863h-71L159 993h109z"/><glyph glyph-name="uni1EA7" unicode="ầ" horiz-adv-x="537" d="M370 296q2 14 3 22t1 15q0 42-26 60.5T274 412q-38 0-76-15t-66-37l-38 62q38 30 89 47.5T287 487q34 0 65.5-7.5t56-24T448 412t15-65q0-9-1-23.5t-3-24.5l-35-192q-5-28-8-57.5T413 0h-85q0 15 1.5 32t4.5 34h-2q-34-40-74-58t-94-18q-24 0-50 6T66.5 16.5 31 55t-14 60q0 58 32 93.5t82.5 55 113.5 26 125 6.5zm-25-68q-39 0-81-3.5t-76.5-14T131 180t-22-52q0-20 7.5-32.5t20-20.5 28-11 31.5-3q31 0 58 10.5t47 28.5 33.5 42 18.5 51l7 35h-15zm35 316l-59 99-94-99h-91l138 144h106l85-144h-85zM209 658h-71L18 793h110z"/><glyph glyph-name="uni1EA8" unicode="Ẩ" horiz-adv-x="681" d="M47 0H-68l459 708h89L624 0H521l-34 174H155zm159 261h267l-60 336zm311 493l-59 99-94-99h-91l138 144h106l85-144h-85zm78 90q4 20 14 35.5t34 26.5q26 13 26 30 0 8-6 14t-17 6q-29 0-42-34l-57 7q12 35 38 53t63 18q38 0 59.5-17t21.5-44q0-44-56-67-14-6-20-13t-8-15h-50z"/><glyph glyph-name="uni1EA9" unicode="ẩ" horiz-adv-x="537" d="M370 296q2 14 3 22t1 15q0 42-26 60.5T274 412q-38 0-76-15t-66-37l-38 62q38 30 89 47.5T287 487q34 0 65.5-7.5t56-24T448 412t15-65q0-9-1-23.5t-3-24.5l-35-192q-5-28-8-57.5T413 0h-85q0 15 1.5 32t4.5 34h-2q-34-40-74-58t-94-18q-24 0-50 6T66.5 16.5 31 55t-14 60q0 58 32 93.5t82.5 55 113.5 26 125 6.5zm-25-68q-39 0-81-3.5t-76.5-14T131 180t-22-52q0-20 7.5-32.5t20-20.5 28-11 31.5-3q31 0 58 10.5t47 28.5 33.5 42 18.5 51l7 35h-15zm35 316l-59 99-94-99h-91l138 144h106l85-144h-85zm76 105q4 20 14 35.5t34 26.5q26 13 26 30 0 8-6 14t-17 6q-29 0-42-34l-57 7q12 35 38 53t63 18q38 0 59.5-17t21.5-44q0-44-56-67-14-6-20-13t-8-15h-50z"/><glyph glyph-name="uni1EAA" unicode="Ẫ" horiz-adv-x="681" d="M47 0H-68l459 708h89L624 0H521l-34 174H155zm159 261h267l-60 336zm307 493l-61 73-87-73h-93l133 114h106l90-114h-88zM303 902q7 20 17 39t23.5 34 31.5 24 42 9q18 0 34.5-6t31.5-14q16-8 30-14t27-6q21 0 33.5 14t20.5 31h49q-7-20-17-39t-23.5-33.5T571 917t-42-9q-17 0-32.5 5.5T466 927l-31.5 14.5L406 948q-20 0-32.5-14.5T353 902h-50z"/><glyph glyph-name="uni1EAB" unicode="ẫ" horiz-adv-x="537" d="M370 296q2 14 3 22t1 15q0 42-26 60.5T274 412q-38 0-76-15t-66-37l-38 62q38 30 89 47.5T287 487q34 0 65.5-7.5t56-24T448 412t15-65q0-9-1-23.5t-3-24.5l-35-192q-5-28-8-57.5T413 0h-85q0 15 1.5 32t4.5 34h-2q-34-40-74-58t-94-18q-24 0-50 6T66.5 16.5 31 55t-14 60q0 58 32 93.5t82.5 55 113.5 26 125 6.5zm-25-68q-39 0-81-3.5t-76.5-14T131 180t-22-52q0-20 7.5-32.5t20-20.5 28-11 31.5-3q31 0 58 10.5t47 28.5 33.5 42 18.5 51l7 35h-15zm35 316l-59 99-94-99h-91l138 144h106l85-144h-85zM174 726q7 21 17 40.5t23.5 34.5 31.5 24 42 9q18 0 34.5-6.5t32-14.5 29.5-14.5 27-6.5q21 0 33.5 14.5T465 839h49q-7-20-17-39.5T473.5 765 442 741t-42-9q-18 0-34 6.5T334.5 753t-30 14.5T277 774q-21 0-33.5-15T223 726h-49z"/><glyph glyph-name="uni1EAC" unicode="Ậ" horiz-adv-x="681" d="M47 0H-68l459 708h89L624 0H521l-34 174H155zm159 261h267l-60 336zm404 509h-86l-59 99-94-99h-91l138 144h106zM337-144q0-24-17-42t-42-18q-24 0-41 15t-17 42q0 26 18.5 43.5T280-86q24 0 40.5-16t16.5-42z"/><glyph glyph-name="uni1EAD" unicode="ậ" horiz-adv-x="537" d="M370 296q2 14 3 22t1 15q0 42-26 60.5T274 412q-38 0-76-15t-66-37l-38 62q38 30 89 47.5T287 487q34 0 65.5-7.5t56-24T448 412t15-65q0-9-1-23.5t-3-24.5l-35-192q-5-28-8-57.5T413 0h-85q0 15 1.5 32t4.5 34h-2q-34-40-74-58t-94-18q-24 0-50 6T66.5 16.5 31 55t-14 60q0 58 32 93.5t82.5 55 113.5 26 125 6.5zm-25-68q-39 0-81-3.5t-76.5-14T131 180t-22-52q0-20 7.5-32.5t20-20.5 28-11 31.5-3q31 0 58 10.5t47 28.5 33.5 42 18.5 51l7 35h-15zm125 336h-86l-59 99-94-99h-91l138 144h106zM238-144q0-24-17-42t-42-18q-24 0-41 15t-17 42q0 26 18.5 43.5T181-86q24 0 40.5-16t16.5-42z"/><glyph glyph-name="uni1EAE" unicode="Ắ" horiz-adv-x="681" d="M47 0H-68l459 708h89L624 0H521l-34 174H155zm159 261h267l-60 336zm404 628q-14-66-61-102t-113-36-104 33.5T294 889h55q0-41 26.5-57t64.5-16q42 0 73.5 16t42.5 57h54zM484 995h107L464 872h-71z"/><glyph glyph-name="uni1EAF" unicode="ắ" horiz-adv-x="537" d="M370 296q2 14 3 22t1 15q0 42-26 60.5T274 412q-38 0-76-15t-66-37l-38 62q38 30 89 47.5T287 487q34 0 65.5-7.5t56-24T448 412t15-65q0-9-1-23.5t-3-24.5l-35-192q-5-28-8-57.5T413 0h-85q0 15 1.5 32t4.5 34h-2q-34-40-74-58t-94-18q-24 0-50 6T66.5 16.5 31 55t-14 60q0 58 32 93.5t82.5 55 113.5 26 125 6.5zm-25-68q-39 0-81-3.5t-76.5-14T131 180t-22-52q0-20 7.5-32.5t20-20.5 28-11 31.5-3q31 0 58 10.5t47 28.5 33.5 42 18.5 51l7 35h-15zm129 460q-14-66-61-102t-113-36-104 33.5T158 688h55q0-41 26.5-57t64.5-16q42 0 73.5 16t42.5 57h54zM361 829h110L332 695h-71z"/><glyph glyph-name="uni1EB0" unicode="Ằ" horiz-adv-x="681" d="M47 0H-68l459 708h89L624 0H521l-34 174H155zm159 261h267l-60 336zm404 628q-14-66-61-102t-113-36-104 33.5T294 889h55q0-41 26.5-57t64.5-16q42 0 73.5 16t42.5 57h54zm-114-17h-71L315 995h107z"/><glyph glyph-name="uni1EB1" unicode="ằ" horiz-adv-x="537" d="M370 296q2 14 3 22t1 15q0 42-26 60.5T274 412q-38 0-76-15t-66-37l-38 62q38 30 89 47.5T287 487q34 0 65.5-7.5t56-24T448 412t15-65q0-9-1-23.5t-3-24.5l-35-192q-5-28-8-57.5T413 0h-85q0 15 1.5 32t4.5 34h-2q-34-40-74-58t-94-18q-24 0-50 6T66.5 16.5 31 55t-14 60q0 58 32 93.5t82.5 55 113.5 26 125 6.5zm-25-68q-39 0-81-3.5t-76.5-14T131 180t-22-52q0-20 7.5-32.5t20-20.5 28-11 31.5-3q31 0 58 10.5t47 28.5 33.5 42 18.5 51l7 35h-15zm129 460q-14-66-61-102t-113-36-104 33.5T158 688h55q0-41 26.5-57t64.5-16q42 0 73.5 16t42.5 57h54zm-115 7h-71L168 829h110z"/><glyph glyph-name="uni1EB2" unicode="Ẳ" horiz-adv-x="681" d="M47 0H-68l459 708h89L624 0H521l-34 174H155zm159 261h267l-60 336zm403 628q-14-66-61-102t-113-36-104 33.5T293 889h55q0-41 26.5-57t64.5-16q42 0 73.5 16t42.5 57h54zm-198-27q4 20 13.5 34t34.5 25q14 7 20 13t6 16q0 19-24 19-29 0-42-34l-56 7q12 35 38 53t62 18q38 0 59.5-16.5T544 954q0-25-15-40t-40-26q-14-6-20-12.5t-8-13.5h-50z"/><glyph glyph-name="uni1EB3" unicode="ẳ" horiz-adv-x="537" d="M370 296q2 14 3 22t1 15q0 42-26 60.5T274 412q-38 0-76-15t-66-37l-38 62q38 30 89 47.5T287 487q34 0 65.5-7.5t56-24T448 412t15-65q0-9-1-23.5t-3-24.5l-35-192q-5-28-8-57.5T413 0h-85q0 15 1.5 32t4.5 34h-2q-34-40-74-58t-94-18q-24 0-50 6T66.5 16.5 31 55t-14 60q0 58 32 93.5t82.5 55 113.5 26 125 6.5zm-25-68q-39 0-81-3.5t-76.5-14T131 180t-22-52q0-20 7.5-32.5t20-20.5 28-11 31.5-3q31 0 58 10.5t47 28.5 33.5 42 18.5 51l7 35h-15zm129 460q-14-66-61-102t-113-36-104 33.5T158 688h55q0-41 26.5-57t64.5-16q42 0 73.5 16t42.5 57h54zm-193-2q4 20 14 35.5t34 26.5q26 13 26 30 0 8-6 14t-17 6q-29 0-42-34l-57 7q12 35 38 53t63 18q38 0 59.5-17t21.5-44q0-44-56-67-14-6-20-13t-8-15h-50z"/><glyph glyph-name="uni1EB4" unicode="Ẵ" horiz-adv-x="681" d="M47 0H-68l459 708h89L624 0H521l-34 174H155zm159 261h267l-60 336zm402 619q-14-62-60.5-95.5T435 751q-67 0-105 31.5T292 880h55q0-36 27-50t65-14q42 0 73 14.5t42 49.5h54zm-313 27q7 19 17 37t23.5 32.5 31.5 23 41 8.5q18 0 34.5-6t32.5-14 29.5-14 27.5-6q20 0 32.5 14t20.5 31h50q-8-20-17.5-39t-23-33.5T563 917t-42-9q-17 0-33 5.5T457 927q-16 8-31 14.5t-29 6.5q-20 0-32-13t-20-28h-50z"/><glyph glyph-name="uni1EB5" unicode="ẵ" horiz-adv-x="537" d="M370 296q2 14 3 22t1 15q0 42-26 60.5T274 412q-38 0-76-15t-66-37l-38 62q38 30 89 47.5T287 487q34 0 65.5-7.5t56-24T448 412t15-65q0-9-1-23.5t-3-24.5l-35-192q-5-28-8-57.5T413 0h-85q0 15 1.5 32t4.5 34h-2q-34-40-74-58t-94-18q-24 0-50 6T66.5 16.5 31 55t-14 60q0 58 32 93.5t82.5 55 113.5 26 125 6.5zm-25-68q-39 0-81-3.5t-76.5-14T131 180t-22-52q0-20 7.5-32.5t20-20.5 28-11 31.5-3q31 0 58 10.5t47 28.5 33.5 42 18.5 51l7 35h-15zm128 453q-14-63-60.5-97T300 550q-67 0-105 32t-38 99h55q0-38 27-52t65-14q42 0 73 15t42 51h54zm-308 48q7 19 16.5 38t23 33 31.5 23 42 9q18 0 34.5-6t31.5-15l30-14.5 27-6.5q21 0 33.5 15t20.5 32h49q-7-20-17-39.5T463.5 763 432 739t-42-9q-17 0-32.5 6T327 750q-17 9-31.5 15.5T267 772q-20 0-32.5-13.5T214 729h-49z"/><glyph glyph-name="uni1EB6" unicode="Ặ" horiz-adv-x="681" d="M47 0H-68l459 708h89L624 0H521l-34 174H155zm159 261h267l-60 336zm415 653q-14-66-61.5-102T446 776t-104 33.5T304 914h56q0-20 7-34t19-22.5 28.5-12T450 842q42 0 73.5 15.5T566 914h55zM337-144q0-24-17-42t-42-18q-24 0-41 15t-17 42q0 26 18.5 43.5T280-86q24 0 40.5-16t16.5-42z"/><glyph glyph-name="uni1EB7" unicode="ặ" horiz-adv-x="537" d="M370 296q2 14 3 22t1 15q0 42-26 60.5T274 412q-38 0-76-15t-66-37l-38 62q38 30 89 47.5T287 487q34 0 65.5-7.5t56-24T448 412t15-65q0-9-1-23.5t-3-24.5l-35-192q-5-28-8-57.5T413 0h-85q0 15 1.5 32t4.5 34h-2q-34-40-74-58t-94-18q-24 0-50 6T66.5 16.5 31 55t-14 60q0 58 32 93.5t82.5 55 113.5 26 125 6.5zm-25-68q-39 0-81-3.5t-76.5-14T131 180t-22-52q0-20 7.5-32.5t20-20.5 28-11 31.5-3q31 0 58 10.5t47 28.5 33.5 42 18.5 51l7 35h-15zm134 480q-14-66-61.5-102T304 570t-104 33.5T162 708h56q0-20 7-34t19-22.5 28.5-12T308 636q42 0 73.5 15.5T424 708h55zM238-144q0-24-17-42t-42-18q-24 0-41 15t-17 42q0 26 18.5 43.5T181-86q24 0 40.5-16t16.5-42z"/><glyph glyph-name="uni1EB8" unicode="Ẹ" horiz-adv-x="582" d="M144 87h367L496 0H32l125 708h436l-15-86H238l-37-214h324l-15-83H186zm138-231q0-24-17-42t-42-18q-24 0-41 15t-17 42q0 26 18.5 43.5T225-86q24 0 40.5-16t16.5-42z"/><glyph glyph-name="uni1EB9" unicode="ẹ" horiz-adv-x="565" d="M122 209q-1-5-1-8.5V193q0-28 10.5-51.5t29-41 44-27T259 64q51 0 87.5 20.5T408 136l55-52q-42-48-96-72.5T250-13q-47 0-87.5 14t-70 41-46 66T30 197q0 59 21 112t58 92.5 88 62.5 110 23q91 0 144-49.5T504 299q0-14-2.5-40.5T494 209H122zm293 68q1 7 1.5 15t.5 15q0 46-30 76.5T300 414q-34 0-62-12t-49.5-31-36-44-20.5-50h283zM262-144q0-24-17-42t-42-18q-24 0-41 15t-17 42q0 26 18.5 43.5T205-86q24 0 40.5-16t16.5-42z"/><glyph glyph-name="uni1EBA" unicode="Ẻ" horiz-adv-x="582" d="M144 87h367L496 0H32l125 708h436l-15-86H238l-37-214h324l-15-83H186zm205 667q5 23 17 40t42 31q38 17 38 46t-34 29q-20 0-34-11.5T356 851l-66 8q15 46 47 68.5t77 22.5q48 0 73.5-21t25.5-55q0-29-17.5-50T448 790q-19-8-27-16.5T411 754h-62z"/><glyph glyph-name="uni1EBB" unicode="ẻ" horiz-adv-x="565" d="M122 209q-1-5-1-8.5V193q0-28 10.5-51.5t29-41 44-27T259 64q51 0 87.5 20.5T408 136l55-52q-42-48-96-72.5T250-13q-47 0-87.5 14t-70 41-46 66T30 197q0 59 21 112t58 92.5 88 62.5 110 23q91 0 144-49.5T504 299q0-14-2.5-40.5T494 209H122zm293 68q1 7 1.5 15t.5 15q0 46-30 76.5T300 414q-34 0-62-12t-49.5-31-36-44-20.5-50h283zM295 555q5 23 17 40t42 31q38 17 38 46t-34 29q-20 0-34-11.5T302 652l-66 8q15 46 47 68.5t77 22.5q48 0 73.5-21t25.5-55q0-29-17.5-50T394 591q-19-8-27-16.5T357 555h-62z"/><glyph glyph-name="uni1EBC" unicode="Ẽ" horiz-adv-x="582" d="M144 87h367L496 0H32l125 708h436l-15-86H238l-37-214h324l-15-83H186zm66 685q7 22 18 42.5t25.5 36.5 34 26 45.5 10q20 0 37.5-6t34.5-15q17-8 33-14.5t30-6.5q21 0 34 15t21 32h55q-8-22-18.5-42.5T534 813t-34.5-26-44.5-10q-18 0-35 6t-34 14q-17 9-33.5 15.5T321 819q-22 0-35-15t-21-32h-55z"/><glyph glyph-name="uni1EBD" unicode="ẽ" horiz-adv-x="565" d="M122 209q-1-5-1-8.5V193q0-28 10.5-51.5t29-41 44-27T259 64q51 0 87.5 20.5T408 136l55-52q-42-48-96-72.5T250-13q-47 0-87.5 14t-70 41-46 66T30 197q0 59 21 112t58 92.5 88 62.5 110 23q91 0 144-49.5T504 299q0-14-2.5-40.5T494 209H122zm293 68q1 7 1.5 15t.5 15q0 46-30 76.5T300 414q-34 0-62-12t-49.5-31-36-44-20.5-50h283zM158 572q7 22 18 42.5t25.5 36.5 34 26 45.5 10q20 0 37.5-6t34.5-15q17-8 33-14.5t30-6.5q21 0 34 15t21 32h55q-8-22-18.5-42.5T482 613t-34.5-26-44.5-10q-18 0-35 6t-34 14q-17 9-33.5 15.5T269 619q-22 0-35-15t-21-32h-55z"/><glyph glyph-name="uni1EBE" unicode="Ế" horiz-adv-x="582" d="M144 87h367L496 0H32l125 708h436l-15-86H238l-37-214h324l-15-83H186zm317 667l-59 99-94-99h-91l138 144h106l85-144h-85zm148 234h109L584 858h-71z"/><glyph glyph-name="uni1EBF" unicode="ế" horiz-adv-x="565" d="M122 209q-1-5-1-8.5V193q0-28 10.5-51.5t29-41 44-27T259 64q51 0 87.5 20.5T408 136l55-52q-42-48-96-72.5T250-13q-47 0-87.5 14t-70 41-46 66T30 197q0 59 21 112t58 92.5 88 62.5 110 23q91 0 144-49.5T504 299q0-14-2.5-40.5T494 209H122zm293 68q1 7 1.5 15t.5 15q0 46-30 76.5T300 414q-34 0-62-12t-49.5-31-36-44-20.5-50h283zm-11 267l-59 99-94-99h-91l138 144h106l85-144h-85zm154 249h110L529 658h-71z"/><glyph glyph-name="uni1EC0" unicode="Ề" horiz-adv-x="582" d="M144 87h367L496 0H32l125 708h436l-15-86H238l-37-214h324l-15-83H186zm317 667l-59 99-94-99h-91l138 144h106l85-144h-85zM289 863h-71L103 993h109z"/><glyph glyph-name="uni1EC1" unicode="ề" horiz-adv-x="565" d="M122 209q-1-5-1-8.5V193q0-28 10.5-51.5t29-41 44-27T259 64q51 0 87.5 20.5T408 136l55-52q-42-48-96-72.5T250-13q-47 0-87.5 14t-70 41-46 66T30 197q0 59 21 112t58 92.5 88 62.5 110 23q91 0 144-49.5T504 299q0-14-2.5-40.5T494 209H122zm293 68q1 7 1.5 15t.5 15q0 46-30 76.5T300 414q-34 0-62-12t-49.5-31-36-44-20.5-50h283zm-11 267l-59 99-94-99h-91l138 144h106l85-144h-85zM233 658h-71L42 793h110z"/><glyph glyph-name="uni1EC2" unicode="Ể" horiz-adv-x="582" d="M144 87h367L496 0H32l125 708h436l-15-86H238l-37-214h324l-15-83H186zm317 667l-59 99-94-99h-91l138 144h106l85-144h-85zm78 90q4 20 14 35.5t34 26.5q26 13 26 30 0 8-6 14t-17 6q-29 0-42-34l-57 7q12 35 38 53t63 18q38 0 59.5-17t21.5-44q0-44-56-67-14-6-20-13t-8-15h-50z"/><glyph glyph-name="uni1EC3" unicode="ể" horiz-adv-x="565" d="M122 209q-1-5-1-8.5V193q0-28 10.5-51.5t29-41 44-27T259 64q51 0 87.5 20.5T408 136l55-52q-42-48-96-72.5T250-13q-47 0-87.5 14t-70 41-46 66T30 197q0 59 21 112t58 92.5 88 62.5 110 23q91 0 144-49.5T504 299q0-14-2.5-40.5T494 209H122zm293 68q1 7 1.5 15t.5 15q0 46-30 76.5T300 414q-34 0-62-12t-49.5-31-36-44-20.5-50h283zm-11 267l-59 99-94-99h-91l138 144h106l85-144h-85zm76 105q4 20 14 35.5t34 26.5q26 13 26 30 0 8-6 14t-17 6q-29 0-42-34l-57 7q12 35 38 53t63 18q38 0 59.5-17t21.5-44q0-44-56-67-14-6-20-13t-8-15h-50z"/><glyph glyph-name="uni1EC4" unicode="Ễ" horiz-adv-x="582" d="M144 87h367L496 0H32l125 708h436l-15-86H238l-37-214h324l-15-83H186zm314 667l-61 73-87-73h-93l133 114h106l90-114h-88zM248 902q7 20 17 39t23.5 34 31.5 24 42 9q18 0 34.5-6t31.5-14q16-8 30-14t27-6q21 0 33.5 14t20.5 31h49q-7-20-17-39t-23.5-33.5T516 917t-42-9q-17 0-32.5 5.5T411 927l-31.5 14.5L351 948q-20 0-32.5-14.5T298 902h-50z"/><glyph glyph-name="uni1EC5" unicode="ễ" horiz-adv-x="565" d="M122 209q-1-5-1-8.5V193q0-28 10.5-51.5t29-41 44-27T259 64q51 0 87.5 20.5T408 136l55-52q-42-48-96-72.5T250-13q-47 0-87.5 14t-70 41-46 66T30 197q0 59 21 112t58 92.5 88 62.5 110 23q91 0 144-49.5T504 299q0-14-2.5-40.5T494 209H122zm293 68q1 7 1.5 15t.5 15q0 46-30 76.5T300 414q-34 0-62-12t-49.5-31-36-44-20.5-50h283zm-11 267l-59 99-94-99h-91l138 144h106l85-144h-85zM198 726q7 21 17 40.5t23.5 34.5 31.5 24 42 9q18 0 34.5-6.5t32-14.5 29.5-14.5 27-6.5q21 0 33.5 14.5T489 839h49q-7-20-17-39.5T497.5 765 466 741t-42-9q-18 0-34 6.5T358.5 753t-30 14.5T301 774q-21 0-33.5-15T247 726h-49z"/><glyph glyph-name="uni1EC6" unicode="Ệ" horiz-adv-x="582" d="M144 87h367L496 0H32l125 708h436l-15-86H238l-37-214h324l-15-83H186zm410 683h-86l-59 99-94-99h-91l138 144h106zM282-144q0-24-17-42t-42-18q-24 0-41 15t-17 42q0 26 18.5 43.5T225-86q24 0 40.5-16t16.5-42z"/><glyph glyph-name="uni1EC7" unicode="ệ" horiz-adv-x="565" d="M122 209q-1-5-1-8.5V193q0-28 10.5-51.5t29-41 44-27T259 64q51 0 87.5 20.5T408 136l55-52q-42-48-96-72.5T250-13q-47 0-87.5 14t-70 41-46 66T30 197q0 59 21 112t58 92.5 88 62.5 110 23q91 0 144-49.5T504 299q0-14-2.5-40.5T494 209H122zm293 68q1 7 1.5 15t.5 15q0 46-30 76.5T300 414q-34 0-62-12t-49.5-31-36-44-20.5-50h283zm79 287h-86l-59 99-94-99h-91l138 144h106zM262-144q0-24-17-42t-42-18q-24 0-41 15t-17 42q0 26 18.5 43.5T205-86q24 0 40.5-16t16.5-42z"/><glyph glyph-name="uni1EC8" unicode="Ỉ" horiz-adv-x="271" d="M130 0H32l125 708h98zm51 754q5 23 17 40t42 31q38 17 38 46t-34 29q-20 0-34-11.5T188 851l-66 8q15 46 47 68.5t77 22.5q48 0 73.5-21t25.5-55q0-29-17.5-50T280 790q-19-8-27-16.5T243 754h-62z"/><glyph glyph-name="uni1EC9" unicode="ỉ" horiz-adv-x="259" d="M121 0H29l83 474h93zm19 555q5 23 17 40t42 31q38 17 38 46t-34 29q-20 0-34-11.5T147 652l-66 8q15 46 47 68.5t77 22.5q48 0 73.5-21t25.5-55q0-29-17.5-50T239 591q-19-8-27-16.5T202 555h-62z"/><glyph glyph-name="uni1ECA" unicode="Ị" horiz-adv-x="271" d="M130 0H32l125 708h98zm-17-144q0-24-17-42t-42-18q-24 0-41 15t-17 42q0 26 18.5 43.5T56-86q24 0 40.5-16t16.5-42z"/><glyph glyph-name="uni1ECB" unicode="ị" horiz-adv-x="259" d="M121 0H29l83 474h93zm124 647q0-25-17-43t-42-18q-24 0-41.5 15T127 643t18.5 44.5T188 705t40.5-16 16.5-42zM107-144q0-24-17-42t-42-18q-24 0-41 15t-17 42q0 26 18.5 43.5T50-86q24 0 40.5-16t16.5-42z"/><glyph glyph-name="uni1ECC" unicode="Ọ" horiz-adv-x="831" d="M381-18q-74 0-134.5 21.5T143 65t-66.5 96.5T53 288q0 91 31.5 170.5t87 139 130.5 94T465 726q72 0 132-21.5T700 643t66.5-96T790 421q0-91-30.5-171T674 110.5t-130-94T381-18zm307 430q0 48-15 89.5t-44 73-71.5 49.5-97.5 18q-69 0-125.5-29.5t-96.5-78T176.5 424 155 297q0-47 15-89t43.5-73.5 71-49.5T383 67q70 0 126.5 29t96 77.5 61 110.5T688 412zM387-144q0-24-17-42t-42-18q-24 0-41 15t-17 42q0 26 18.5 43.5T330-86q24 0 40.5-16t16.5-42z"/><glyph glyph-name="uni1ECD" unicode="ọ" horiz-adv-x="600" d="M255-13q-49 0-90 15T94 44.5 47 110t-17 84q0 59 20.5 112t58 93.5 90 64T315 487q49 0 90-15t71-42 46.5-64.5T539 282q0-60-20.5-113.5t-58-94-89.5-64T255-13zm190 286q0 29-9.5 54t-27 43.5-43 29T309 410q-41 0-75-17t-58.5-45.5-38-66T124 202q0-60 36-98.5T260 65q41 0 75 16.5t58.5 45 38 66.5 13.5 80zM270-144q0-24-17-42t-42-18q-24 0-41 15t-17 42q0 26 18.5 43.5T213-86q24 0 40.5-16t16.5-42z"/><glyph glyph-name="uni1ECE" unicode="Ỏ" horiz-adv-x="831" d="M381-18q-74 0-134.5 21.5T143 65t-66.5 96.5T53 288q0 91 31.5 170.5t87 139 130.5 94T465 726q72 0 132-21.5T700 643t66.5-96T790 421q0-91-30.5-171T674 110.5t-130-94T381-18zm307 430q0 48-15 89.5t-44 73-71.5 49.5-97.5 18q-69 0-125.5-29.5t-96.5-78T176.5 424 155 297q0-47 15-89t43.5-73.5 71-49.5T383 67q70 0 126.5 29t96 77.5 61 110.5T688 412zM455 754q5 23 17 40t42 31q38 17 38 46t-34 29q-20 0-34-11.5T462 851l-66 8q15 46 47 68.5t77 22.5q48 0 73.5-21t25.5-55q0-29-17.5-50T554 790q-19-8-27-16.5T517 754h-62z"/><glyph glyph-name="uni1ECF" unicode="ỏ" horiz-adv-x="600" d="M255-13q-49 0-90 15T94 44.5 47 110t-17 84q0 59 20.5 112t58 93.5 90 64T315 487q49 0 90-15t71-42 46.5-64.5T539 282q0-60-20.5-113.5t-58-94-89.5-64T255-13zm190 286q0 29-9.5 54t-27 43.5-43 29T309 410q-41 0-75-17t-58.5-45.5-38-66T124 202q0-60 36-98.5T260 65q41 0 75 16.5t58.5 45 38 66.5 13.5 80zM303 555q5 23 17 40t42 31q38 17 38 46t-34 29q-20 0-34-11.5T310 652l-66 8q15 46 47 68.5t77 22.5q48 0 73.5-21t25.5-55q0-29-17.5-50T402 591q-19-8-27-16.5T365 555h-62z"/><glyph glyph-name="uni1ED0" unicode="Ố" horiz-adv-x="831" d="M381-18q-74 0-134.5 21.5T143 65t-66.5 96.5T53 288q0 91 31.5 170.5t87 139 130.5 94T465 726q72 0 132-21.5T700 643t66.5-96T790 421q0-91-30.5-171T674 110.5t-130-94T381-18zm307 430q0 48-15 89.5t-44 73-71.5 49.5-97.5 18q-69 0-125.5-29.5t-96.5-78T176.5 424 155 297q0-47 15-89t43.5-73.5 71-49.5T383 67q70 0 126.5 29t96 77.5 61 110.5T688 412zM567 754l-59 99-94-99h-91l138 144h106l85-144h-85zm148 234h109L690 858h-71z"/><glyph glyph-name="uni1ED1" unicode="ố" horiz-adv-x="600" d="M255-13q-49 0-90 15T94 44.5 47 110t-17 84q0 59 20.5 112t58 93.5 90 64T315 487q49 0 90-15t71-42 46.5-64.5T539 282q0-60-20.5-113.5t-58-94-89.5-64T255-13zm190 286q0 29-9.5 54t-27 43.5-43 29T309 410q-41 0-75-17t-58.5-45.5-38-66T124 202q0-60 36-98.5T260 65q41 0 75 16.5t58.5 45 38 66.5 13.5 80zm-33 271l-59 99-94-99h-91l138 144h106l85-144h-85zm154 249h110L537 658h-71z"/><glyph glyph-name="uni1ED2" unicode="Ồ" horiz-adv-x="831" d="M381-18q-74 0-134.5 21.5T143 65t-66.5 96.5T53 288q0 91 31.5 170.5t87 139 130.5 94T465 726q72 0 132-21.5T700 643t66.5-96T790 421q0-91-30.5-171T674 110.5t-130-94T381-18zm307 430q0 48-15 89.5t-44 73-71.5 49.5-97.5 18q-69 0-125.5-29.5t-96.5-78T176.5 424 155 297q0-47 15-89t43.5-73.5 71-49.5T383 67q70 0 126.5 29t96 77.5 61 110.5T688 412zM567 754l-59 99-94-99h-91l138 144h106l85-144h-85zM395 863h-71L209 993h109z"/><glyph glyph-name="uni1ED3" unicode="ồ" horiz-adv-x="600" d="M255-13q-49 0-90 15T94 44.5 47 110t-17 84q0 59 20.5 112t58 93.5 90 64T315 487q49 0 90-15t71-42 46.5-64.5T539 282q0-60-20.5-113.5t-58-94-89.5-64T255-13zm190 286q0 29-9.5 54t-27 43.5-43 29T309 410q-41 0-75-17t-58.5-45.5-38-66T124 202q0-60 36-98.5T260 65q41 0 75 16.5t58.5 45 38 66.5 13.5 80zm-33 271l-59 99-94-99h-91l138 144h106l85-144h-85zM241 658h-71L50 793h110z"/><glyph glyph-name="uni1ED4" unicode="Ổ" horiz-adv-x="831" d="M381-18q-74 0-134.5 21.5T143 65t-66.5 96.5T53 288q0 91 31.5 170.5t87 139 130.5 94T465 726q72 0 132-21.5T700 643t66.5-96T790 421q0-91-30.5-171T674 110.5t-130-94T381-18zm307 430q0 48-15 89.5t-44 73-71.5 49.5-97.5 18q-69 0-125.5-29.5t-96.5-78T176.5 424 155 297q0-47 15-89t43.5-73.5 71-49.5T383 67q70 0 126.5 29t96 77.5 61 110.5T688 412zM567 754l-59 99-94-99h-91l138 144h106l85-144h-85zm78 90q4 20 14 35.5t34 26.5q26 13 26 30 0 8-6 14t-17 6q-29 0-42-34l-57 7q12 35 38 53t63 18q38 0 59.5-17t21.5-44q0-44-56-67-14-6-20-13t-8-15h-50z"/><glyph glyph-name="uni1ED5" unicode="ổ" horiz-adv-x="600" d="M255-13q-49 0-90 15T94 44.5 47 110t-17 84q0 59 20.5 112t58 93.5 90 64T315 487q49 0 90-15t71-42 46.5-64.5T539 282q0-60-20.5-113.5t-58-94-89.5-64T255-13zm190 286q0 29-9.5 54t-27 43.5-43 29T309 410q-41 0-75-17t-58.5-45.5-38-66T124 202q0-60 36-98.5T260 65q41 0 75 16.5t58.5 45 38 66.5 13.5 80zm-33 271l-59 99-94-99h-91l138 144h106l85-144h-85zm76 105q4 20 14 35.5t34 26.5q26 13 26 30 0 8-6 14t-17 6q-29 0-42-34l-57 7q12 35 38 53t63 18q38 0 59.5-17t21.5-44q0-44-56-67-14-6-20-13t-8-15h-50z"/><glyph glyph-name="uni1ED6" unicode="Ỗ" horiz-adv-x="831" d="M381-18q-74 0-134.5 21.5T143 65t-66.5 96.5T53 288q0 91 31.5 170.5t87 139 130.5 94T465 726q72 0 132-21.5T700 643t66.5-96T790 421q0-91-30.5-171T674 110.5t-130-94T381-18zm307 430q0 48-15 89.5t-44 73-71.5 49.5-97.5 18q-69 0-125.5-29.5t-96.5-78T176.5 424 155 297q0-47 15-89t43.5-73.5 71-49.5T383 67q70 0 126.5 29t96 77.5 61 110.5T688 412zM563 754l-61 73-87-73h-93l133 114h106l90-114h-88zM353 902q7 20 17 39t23.5 34 31.5 24 42 9q18 0 34.5-6t31.5-14q16-8 30-14t27-6q21 0 33.5 14t20.5 31h49q-7-20-17-39t-23.5-33.5T621 917t-42-9q-17 0-32.5 5.5T516 927l-31.5 14.5L456 948q-20 0-32.5-14.5T403 902h-50z"/><glyph glyph-name="uni1ED7" unicode="ỗ" horiz-adv-x="600" d="M255-13q-49 0-90 15T94 44.5 47 110t-17 84q0 59 20.5 112t58 93.5 90 64T315 487q49 0 90-15t71-42 46.5-64.5T539 282q0-60-20.5-113.5t-58-94-89.5-64T255-13zm190 286q0 29-9.5 54t-27 43.5-43 29T309 410q-41 0-75-17t-58.5-45.5-38-66T124 202q0-60 36-98.5T260 65q41 0 75 16.5t58.5 45 38 66.5 13.5 80zm-33 271l-59 99-94-99h-91l138 144h106l85-144h-85zM206 726q7 21 17 40.5t23.5 34.5 31.5 24 42 9q18 0 34.5-6.5t32-14.5 29.5-14.5 27-6.5q21 0 33.5 14.5T497 839h49q-7-20-17-39.5T505.5 765 474 741t-42-9q-18 0-34 6.5T366.5 753t-30 14.5T309 774q-21 0-33.5-15T255 726h-49z"/><glyph glyph-name="uni1ED8" unicode="Ộ" horiz-adv-x="831" d="M381-18q-74 0-134.5 21.5T143 65t-66.5 96.5T53 288q0 91 31.5 170.5t87 139 130.5 94T465 726q72 0 132-21.5T700 643t66.5-96T790 421q0-91-30.5-171T674 110.5t-130-94T381-18zm307 430q0 48-15 89.5t-44 73-71.5 49.5-97.5 18q-69 0-125.5-29.5t-96.5-78T176.5 424 155 297q0-47 15-89t43.5-73.5 71-49.5T383 67q70 0 126.5 29t96 77.5 61 110.5T688 412zm-28 358h-86l-59 99-94-99h-91l138 144h106zM387-144q0-24-17-42t-42-18q-24 0-41 15t-17 42q0 26 18.5 43.5T330-86q24 0 40.5-16t16.5-42z"/><glyph glyph-name="uni1ED9" unicode="ộ" horiz-adv-x="600" d="M255-13q-49 0-90 15T94 44.5 47 110t-17 84q0 59 20.5 112t58 93.5 90 64T315 487q49 0 90-15t71-42 46.5-64.5T539 282q0-60-20.5-113.5t-58-94-89.5-64T255-13zm190 286q0 29-9.5 54t-27 43.5-43 29T309 410q-41 0-75-17t-58.5-45.5-38-66T124 202q0-60 36-98.5T260 65q41 0 75 16.5t58.5 45 38 66.5 13.5 80zm57 291h-86l-59 99-94-99h-91l138 144h106zM270-144q0-24-17-42t-42-18q-24 0-41 15t-17 42q0 26 18.5 43.5T213-86q24 0 40.5-16t16.5-42z"/><glyph glyph-name="uni1EDA" unicode="Ớ" horiz-adv-x="831" d="M882 765q0-67-39-108.5T728 613q29-38 45.5-86.5T790 421q0-91-30.5-171T674 110.5t-130-94T381-18q-74 0-134.5 21.5T143 64.5t-66.5 96T53 287q0 91 31.5 171t87 139.5 130.5 94T465 726q52 0 88-9t63-19.5l49-19.5 45-9q42 0 66.5 24.5T801 760q0 23-7 42l80 20q8-24 8-57zM382 67q70 0 127 29t96.5 77.5 61 110.5T688 412q0 48-15 89.5t-44 73-71.5 49.5-97.5 18q-70 0-126.5-29.5t-96.5-78T175.5 424 154 297q0-48 15-89.5t44-73T284.5 85 382 67zm126 697h-74l125 144h111z"/><glyph glyph-name="uni1EDB" unicode="ớ" horiz-adv-x="605" d="M660 548q0-67-39.5-108.5T505 396q34-49 34-115 0-60-20.5-113.5t-58-93.5-90-63.5T254-13q-49 0-90 15T93 44t-46.5 65T30 193q0 59 20.5 112t58 93.5 90 64T314 486q33 0 56-5.5t42-11.5l36.5-11.5L488 452q43 0 67 24.5t24 66.5q0 23-7 42l80 20q8-24 8-57zM445 273q0 29-9.5 54t-27 43.5-43 29T308 410q-41 0-74.5-17t-58-45.5-38-66.5-13.5-80q0-60 35.5-98.5T259 64q41 0 75.5 17t59 45.5 38 66.5 13.5 80zm-96 291h-74l125 144h111z"/><glyph glyph-name="uni1EDC" unicode="Ờ" horiz-adv-x="831" d="M882 765q0-67-39-108.5T728 613q29-38 45.5-86.5T790 421q0-91-30.5-171T674 110.5t-130-94T381-18q-74 0-134.5 21.5T143 64.5t-66.5 96T53 287q0 91 31.5 171t87 139.5 130.5 94T465 726q52 0 88-9t63-19.5l49-19.5 45-9q42 0 66.5 24.5T801 760q0 23-7 42l80 20q8-24 8-57zM382 67q70 0 127 29t96.5 77.5 61 110.5T688 412q0 48-15 89.5t-44 73-71.5 49.5-97.5 18q-70 0-126.5-29.5t-96.5-78T175.5 424 154 297q0-48 15-89.5t44-73T284.5 85 382 67zm-48 841h110l100-144h-73z"/><glyph glyph-name="uni1EDD" unicode="ờ" horiz-adv-x="605" d="M660 548q0-67-39.5-108.5T505 396q34-49 34-115 0-60-20.5-113.5t-58-93.5-90-63.5T254-13q-49 0-90 15T93 44t-46.5 65T30 193q0 59 20.5 112t58 93.5 90 64T314 486q33 0 56-5.5t42-11.5l36.5-11.5L488 452q43 0 67 24.5t24 66.5q0 23-7 42l80 20q8-24 8-57zM445 273q0 29-9.5 54t-27 43.5-43 29T308 410q-41 0-74.5-17t-58-45.5-38-66.5-13.5-80q0-60 35.5-98.5T259 64q41 0 75.5 17t59 45.5 38 66.5 13.5 80zM178 708h110l100-144h-73z"/><glyph glyph-name="uni1EDE" unicode="Ở" horiz-adv-x="831" d="M882 765q0-67-39-108.5T728 613q29-38 45.5-86.5T790 421q0-91-30.5-171T674 110.5t-130-94T381-18q-74 0-134.5 21.5T143 64.5t-66.5 96T53 287q0 91 31.5 171t87 139.5 130.5 94T465 726q52 0 88-9t63-19.5l49-19.5 45-9q42 0 66.5 24.5T801 760q0 23-7 42l80 20q8-24 8-57zM382 67q70 0 127 29t96.5 77.5 61 110.5T688 412q0 48-15 89.5t-44 73-71.5 49.5-97.5 18q-70 0-126.5-29.5t-96.5-78T175.5 424 154 297q0-48 15-89.5t44-73T284.5 85 382 67zm72 687q5 23 17 40t42 31q38 17 38 46t-34 29q-20 0-34-11.5T461 851l-66 8q15 46 47 68.5t77 22.5q48 0 73.5-21t25.5-55q0-29-17.5-50T553 790q-19-8-27-16.5T516 754h-62z"/><glyph glyph-name="uni1EDF" unicode="ở" horiz-adv-x="605" d="M660 548q0-67-39.5-108.5T505 396q34-49 34-115 0-60-20.5-113.5t-58-93.5-90-63.5T254-13q-49 0-90 15T93 44t-46.5 65T30 193q0 59 20.5 112t58 93.5 90 64T314 486q33 0 56-5.5t42-11.5l36.5-11.5L488 452q43 0 67 24.5t24 66.5q0 23-7 42l80 20q8-24 8-57zM445 273q0 29-9.5 54t-27 43.5-43 29T308 410q-41 0-74.5-17t-58-45.5-38-66.5-13.5-80q0-60 35.5-98.5T259 64q41 0 75.5 17t59 45.5 38 66.5 13.5 80zM303 555q5 23 17 40t42 31q38 17 38 46t-34 29q-20 0-34-11.5T310 652l-66 8q15 46 47 68.5t77 22.5q48 0 73.5-21t25.5-55q0-29-17.5-50T402 591q-19-8-27-16.5T365 555h-62z"/><glyph glyph-name="uni1EE0" unicode="Ỡ" horiz-adv-x="831" d="M882 765q0-67-39-108.5T728 613q29-38 45.5-86.5T790 421q0-91-30.5-171T674 110.5t-130-94T381-18q-74 0-134.5 21.5T143 64.5t-66.5 96T53 287q0 91 31.5 171t87 139.5 130.5 94T465 726q52 0 88-9t63-19.5l49-19.5 45-9q42 0 66.5 24.5T801 760q0 23-7 42l80 20q8-24 8-57zM382 67q70 0 127 29t96.5 77.5 61 110.5T688 412q0 48-15 89.5t-44 73-71.5 49.5-97.5 18q-70 0-126.5-29.5t-96.5-78T175.5 424 154 297q0-48 15-89.5t44-73T284.5 85 382 67zm-67 705q7 22 18 42.5t25.5 36.5 34 26 45.5 10q20 0 37.5-6t34.5-15q17-8 33-14.5t30-6.5q21 0 34 15t21 32h55q-8-22-18.5-42.5T639 813t-34.5-26-44.5-10q-18 0-35 6t-34 14q-17 9-33.5 15.5T426 819q-22 0-35-15t-21-32h-55z"/><glyph glyph-name="uni1EE1" unicode="ỡ" horiz-adv-x="605" d="M660 548q0-67-39.5-108.5T505 396q34-49 34-115 0-60-20.5-113.5t-58-93.5-90-63.5T254-13q-49 0-90 15T93 44t-46.5 65T30 193q0 59 20.5 112t58 93.5 90 64T314 486q33 0 56-5.5t42-11.5l36.5-11.5L488 452q43 0 67 24.5t24 66.5q0 23-7 42l80 20q8-24 8-57zM445 273q0 29-9.5 54t-27 43.5-43 29T308 410q-41 0-74.5-17t-58-45.5-38-66.5-13.5-80q0-60 35.5-98.5T259 64q41 0 75.5 17t59 45.5 38 66.5 13.5 80zM166 572q7 22 18 42.5t25.5 36.5 34 26 45.5 10q20 0 37.5-6t34.5-15q17-8 33-14.5t30-6.5q21 0 34 15t21 32h55q-8-22-18.5-42.5T490 613t-34.5-26-44.5-10q-18 0-35 6t-34 14q-17 9-33.5 15.5T277 619q-22 0-35-15t-21-32h-55z"/><glyph glyph-name="uni1EE2" unicode="Ợ" horiz-adv-x="831" d="M882 765q0-67-39-108.5T728 613q29-38 45.5-86.5T790 421q0-91-30.5-171T674 110.5t-130-94T381-18q-74 0-134.5 21.5T143 64.5t-66.5 96T53 287q0 91 31.5 171t87 139.5 130.5 94T465 726q52 0 88-9t63-19.5l49-19.5 45-9q42 0 66.5 24.5T801 760q0 23-7 42l80 20q8-24 8-57zM382 67q70 0 127 29t96.5 77.5 61 110.5T688 412q0 48-15 89.5t-44 73-71.5 49.5-97.5 18q-70 0-126.5-29.5t-96.5-78T175.5 424 154 297q0-48 15-89.5t44-73T284.5 85 382 67zm5-211q0-24-17-42t-42-18q-24 0-41 15t-17 42q0 26 18.5 43.5T330-86q24 0 40.5-16t16.5-42z"/><glyph glyph-name="uni1EE3" unicode="ợ" horiz-adv-x="605" d="M660 548q0-67-39.5-108.5T505 396q34-49 34-115 0-60-20.5-113.5t-58-93.5-90-63.5T254-13q-49 0-90 15T93 44t-46.5 65T30 193q0 59 20.5 112t58 93.5 90 64T314 486q33 0 56-5.5t42-11.5l36.5-11.5L488 452q43 0 67 24.5t24 66.5q0 23-7 42l80 20q8-24 8-57zM445 273q0 29-9.5 54t-27 43.5-43 29T308 410q-41 0-74.5-17t-58-45.5-38-66.5-13.5-80q0-60 35.5-98.5T259 64q41 0 75.5 17t59 45.5 38 66.5 13.5 80zM270-144q0-24-17-42t-42-18q-24 0-41 15t-17 42q0 26 18.5 43.5T213-86q24 0 40.5-16t16.5-42z"/><glyph glyph-name="uni1EE4" unicode="Ụ" horiz-adv-x="712" d="M317-18q-63 0-109.5 17T130 46t-46.5 69.5T68 200q0 30 6 62l78 446h98l-78-440q-5-28-5-53 0-30 8-56.5t26.5-47T249 79t71-12q52 0 88 17t60 45.5 37.5 64.5 20.5 74l77 440h98l-78-446q-10-54-31.5-104.5t-58-89.5-90-62.5T317-18zm12-126q0-24-17-42t-42-18q-24 0-41 15t-17 42q0 26 18.5 43.5T272-86q24 0 40.5-16t16.5-42z"/><glyph glyph-name="uni1EE5" unicode="ụ" horiz-adv-x="581" d="M352 0l10 77h-2q-26-41-66.5-65.5T202-13q-78 0-118.5 41.5T43 134q0 11 1.5 23t3.5 24l52 293h92l-46-261q-2-14-3.5-27.5T141 159q0-41 20-67t71-26q56 0 97.5 42.5T383 222l45 252h92l-65-371q-4-19-8.5-49T440 0h-88zm-96-144q0-24-17-42t-42-18q-24 0-41 15t-17 42q0 26 18.5 43.5T199-86q24 0 40.5-16t16.5-42z"/><glyph glyph-name="uni1EE6" unicode="Ủ" horiz-adv-x="712" d="M317-18q-63 0-109.5 17T130 46t-46.5 69.5T68 200q0 30 6 62l78 446h98l-78-440q-5-28-5-53 0-30 8-56.5t26.5-47T249 79t71-12q52 0 88 17t60 45.5 37.5 64.5 20.5 74l77 440h98l-78-446q-10-54-31.5-104.5t-58-89.5-90-62.5T317-18zm79 772q5 23 17 40t42 31q38 17 38 46t-34 29q-20 0-34-11.5T403 851l-66 8q15 46 47 68.5t77 22.5q48 0 73.5-21t25.5-55q0-29-17.5-50T495 790q-19-8-27-16.5T458 754h-62z"/><glyph glyph-name="uni1EE7" unicode="ủ" horiz-adv-x="581" d="M352 0l10 77h-2q-26-41-66.5-65.5T202-13q-78 0-118.5 41.5T43 134q0 11 1.5 23t3.5 24l52 293h92l-46-261q-2-14-3.5-27.5T141 159q0-41 20-67t71-26q56 0 97.5 42.5T383 222l45 252h92l-65-371q-4-19-8.5-49T440 0h-88zm-63 555q5 23 17 40t42 31q38 17 38 46t-34 29q-20 0-34-11.5T296 652l-66 8q15 46 47 68.5t77 22.5q48 0 73.5-21t25.5-55q0-29-17.5-50T388 591q-19-8-27-16.5T351 555h-62z"/><glyph glyph-name="uni1EE8" unicode="Ứ" horiz-adv-x="722" d="M622 262q-9-54-30.5-104.5t-58-89.5-90-62.5T317-18q-63 0-109.5 17T130 46t-46.5 69.5T68 200q0 30 6 62l78 446h97l-77-440q-3-13-4-26.5t-1-26.5q0-30 8-56.5t26-47T248.5 79 320 67q52 0 88 17t60 45 37.5 64.5T526 268l77 440h66q43 0 67 24.5t24 66.5q0 23-7 42l80 20q8-24 8-57 0-31-9-58t-28-47.5-47-33-66-13.5zM450 764h-74l125 144h111z"/><glyph glyph-name="uni1EE9" unicode="ứ" horiz-adv-x="591" d="M360 77q-26-41-66.5-65.5T202-13q-78 0-118.5 41.5T43 133q0 12 1.5 23.5T48 181l52 293h92l-46-262q-6-27-6-53 0-41 20-67t72-26q56 0 97.5 42T383 222l45 252h60q43 0 67 24.5t24 66.5q0 23-7 42l80 20q8-24 8-57 0-31-9-58t-28-47.5-47-33-66-13.5l-55-315q-4-19-8.5-49T440 0h-88l10 77h-2zm-25 487h-74l125 144h111z"/><glyph glyph-name="uni1EEA" unicode="Ừ" horiz-adv-x="722" d="M622 262q-9-54-30.5-104.5t-58-89.5-90-62.5T317-18q-63 0-109.5 17T130 46t-46.5 69.5T68 200q0 30 6 62l78 446h97l-77-440q-3-13-4-26.5t-1-26.5q0-30 8-56.5t26-47T248.5 79 320 67q52 0 88 17t60 45 37.5 64.5T526 268l77 440h66q43 0 67 24.5t24 66.5q0 23-7 42l80 20q8-24 8-57 0-31-9-58t-28-47.5-47-33-66-13.5zM276 908h110l100-144h-73z"/><glyph glyph-name="uni1EEB" unicode="ừ" horiz-adv-x="591" d="M360 77q-26-41-66.5-65.5T202-13q-78 0-118.5 41.5T43 133q0 12 1.5 23.5T48 181l52 293h92l-46-262q-6-27-6-53 0-41 20-67t72-26q56 0 97.5 42T383 222l45 252h60q43 0 67 24.5t24 66.5q0 23-7 42l80 20q8-24 8-57 0-31-9-58t-28-47.5-47-33-66-13.5l-55-315q-4-19-8.5-49T440 0h-88l10 77h-2zM164 708h110l100-144h-73z"/><glyph glyph-name="uni1EEC" unicode="Ử" horiz-adv-x="722" d="M622 262q-9-54-30.5-104.5t-58-89.5-90-62.5T317-18q-63 0-109.5 17T130 46t-46.5 69.5T68 200q0 30 6 62l78 446h97l-77-440q-3-13-4-26.5t-1-26.5q0-30 8-56.5t26-47T248.5 79 320 67q52 0 88 17t60 45 37.5 64.5T526 268l77 440h66q43 0 67 24.5t24 66.5q0 23-7 42l80 20q8-24 8-57 0-31-9-58t-28-47.5-47-33-66-13.5zM396 754q5 23 17 40t42 31q38 17 38 46t-34 29q-20 0-34-11.5T403 851l-66 8q15 46 47 68.5t77 22.5q48 0 73.5-21t25.5-55q0-29-17.5-50T495 790q-19-8-27-16.5T458 754h-62z"/><glyph glyph-name="uni1EED" unicode="ử" horiz-adv-x="591" d="M360 77q-26-41-66.5-65.5T202-13q-78 0-118.5 41.5T43 133q0 12 1.5 23.5T48 181l52 293h92l-46-262q-6-27-6-53 0-41 20-67t72-26q56 0 97.5 42T383 222l45 252h60q43 0 67 24.5t24 66.5q0 23-7 42l80 20q8-24 8-57 0-31-9-58t-28-47.5-47-33-66-13.5l-55-315q-4-19-8.5-49T440 0h-88l10 77h-2zm-71 478q5 23 17 40t42 31q38 17 38 46t-34 29q-20 0-34-11.5T296 652l-66 8q15 46 47 68.5t77 22.5q48 0 73.5-21t25.5-55q0-29-17.5-50T388 591q-19-8-27-16.5T351 555h-62z"/><glyph glyph-name="uni1EEE" unicode="Ữ" horiz-adv-x="722" d="M622 262q-9-54-30.5-104.5t-58-89.5-90-62.5T317-18q-63 0-109.5 17T130 46t-46.5 69.5T68 200q0 30 6 62l78 446h97l-77-440q-3-13-4-26.5t-1-26.5q0-30 8-56.5t26-47T248.5 79 320 67q52 0 88 17t60 45 37.5 64.5T526 268l77 440h66q43 0 67 24.5t24 66.5q0 23-7 42l80 20q8-24 8-57 0-31-9-58t-28-47.5-47-33-66-13.5zM257 772q7 22 18 42.5t25.5 36.5 34 26 45.5 10q20 0 37.5-6t34.5-15q17-8 33-14.5t30-6.5q21 0 34 15t21 32h55q-8-22-18.5-42.5T581 813t-34.5-26-44.5-10q-18 0-35 6t-34 14q-17 9-33.5 15.5T368 819q-22 0-35-15t-21-32h-55z"/><glyph glyph-name="uni1EEF" unicode="ữ" horiz-adv-x="591" d="M360 77q-26-41-66.5-65.5T202-13q-78 0-118.5 41.5T43 133q0 12 1.5 23.5T48 181l52 293h92l-46-262q-6-27-6-53 0-41 20-67t72-26q56 0 97.5 42T383 222l45 252h60q43 0 67 24.5t24 66.5q0 23-7 42l80 20q8-24 8-57 0-31-9-58t-28-47.5-47-33-66-13.5l-55-315q-4-19-8.5-49T440 0h-88l10 77h-2zM152 572q7 22 18 42.5t25.5 36.5 34 26 45.5 10q20 0 37.5-6t34.5-15q17-8 33-14.5t30-6.5q21 0 34 15t21 32h55q-8-22-18.5-42.5T476 613t-34.5-26-44.5-10q-18 0-35 6t-34 14q-17 9-33.5 15.5T263 619q-22 0-35-15t-21-32h-55z"/><glyph glyph-name="uni1EF0" unicode="Ự" horiz-adv-x="722" d="M622 262q-9-54-30.5-104.5t-58-89.5-90-62.5T317-18q-63 0-109.5 17T130 46t-46.5 69.5T68 200q0 30 6 62l78 446h97l-77-440q-3-13-4-26.5t-1-26.5q0-30 8-56.5t26-47T248.5 79 320 67q52 0 88 17t60 45 37.5 64.5T526 268l77 440h66q43 0 67 24.5t24 66.5q0 23-7 42l80 20q8-24 8-57 0-31-9-58t-28-47.5-47-33-66-13.5zM329-144q0-24-17-42t-42-18q-24 0-41 15t-17 42q0 26 18.5 43.5T272-86q24 0 40.5-16t16.5-42z"/><glyph glyph-name="uni1EF1" unicode="ự" horiz-adv-x="591" d="M360 77q-26-41-66.5-65.5T202-13q-78 0-118.5 41.5T43 133q0 12 1.5 23.5T48 181l52 293h92l-46-262q-6-27-6-53 0-41 20-67t72-26q56 0 97.5 42T383 222l45 252h60q43 0 67 24.5t24 66.5q0 23-7 42l80 20q8-24 8-57 0-31-9-58t-28-47.5-47-33-66-13.5l-55-315q-4-19-8.5-49T440 0h-88l10 77h-2zM256-144q0-24-17-42t-42-18q-24 0-41 15t-17 42q0 26 18.5 43.5T199-86q24 0 40.5-16t16.5-42z"/><glyph glyph-name="Ygrave" unicode="Ỳ" horiz-adv-x="560" d="M268 0h-98l54 306L46 708h111l130-322 259 322h120L322 306zm-87 908h110l100-144h-73z"/><glyph glyph-name="ygrave" unicode="ỳ" horiz-adv-x="495" d="M207 101h2l210 373h100L172-112q-18-30-35-53.5t-37-40T56-231t-54-9q-31 0-59 7l13 82q22-8 44-8 32 0 53 20.5T97-80l47 80L40 474h99zm-72 607h110l100-144h-73z"/><glyph glyph-name="quotereversed" unicode="‛" horiz-adv-x="245" d="M229 459h-70l-46 249h84z"/><glyph glyph-name="dong" unicode="₫" horiz-adv-x="628" d="M464-138H16l11 63h448zm184 708h-59L488 0h-89l13 76h-2q-26-39-72-63.5T237-12q-47 0-85 15T87 45t-42 64.5T30 192q0 61 20 114.5t56 93.5 85.5 63T300 486q58 0 100.5-23.5T465 396h2l30 174H336l11 62h161l22 124h92l-22-124h59zM125 202q0-29 8.5-54t25.5-44 42-29.5T258 64q39 0 73.5 17t60 45.5 40 66.5 14.5 80q0 30-9.5 55.5T409 372t-43.5 28.5T309 411q-42 0-76-16.5T175 350t-37-66.5-13-81.5z"/><glyph glyph-name="dotmath" unicode="⋅" horiz-adv-x="260" d="M197 306q0-26-18.5-46T133 240q-26 0-44.5 16.5T70 302t20 47.5 46 18.5 43.5-16.5T197 306z"/><glyph glyph-name="dotbelowcomb" d="M105-144q0-24-17-42t-42-18q-24 0-41 15t-17 42q0 26 18.5 43.5T48-86q24 0 40.5-16t16.5-42z"/><glyph glyph-name="gravecmb" unicode="̀" horiz-adv-x="0" d="M-255 710h107l102-144h-72z"/><glyph glyph-name="acutecmb" unicode="́" horiz-adv-x="0" d="M-182 566h-73l126 144h108z"/><glyph glyph-name="circumflexcmb" unicode="̂" horiz-adv-x="0" d="M66 566h-79l-61 101-98-101h-83l138 144h97z"/><glyph glyph-name="tildecmb" unicode="̃" horiz-adv-x="0" d="M-255 576q7 21 17 41t24 35 32.5 24.5 42.5 9.5q19 0 36.5-7t34.5-15l32.5-15 30.5-7q22 0 35 14.5T51 690h50q-8-21-18.5-41T58 613.5t-32.5-25T-17 579q-18 0-35.5 7t-34 15.5T-119 617t-31 7q-23 0-35-15t-20-33h-50z"/><glyph glyph-name="macroncmb" unicode="̄" horiz-adv-x="0" d="M31 600h-286l10 62H41z"/><glyph glyph-name="brevecmb" unicode="̆" horiz-adv-x="0" d="M52 710q-6-32-21.5-57t-38-42-50.5-26.5-59-9.5q-64 0-101 33t-37 102h53q0-41 26-57t61-16q40 0 72.5 17.5T-2 710h54z"/><glyph glyph-name="dotaccentcmb" unicode="̇" horiz-adv-x="0" d="M-143 653q0-24-16.5-41.5T-200 594q-23 0-39 14.5t-16 38.5q0 26 17.5 43t40.5 17 38.5-15 15.5-39z"/><glyph glyph-name="dieresiscmb" unicode="̈" horiz-adv-x="0" d="M-142 653q0-24-17-41.5t-41-17.5q-23 0-39 14.5t-16 38.5q0 26 17.5 43t41.5 17q23 0 38.5-15t15.5-39zm203 0q0-24-16.5-41.5T3 594q-23 0-39 14.5T-52 647q0 26 17.5 43T6 707t39-15 16-39z"/><glyph glyph-name="ringcmb" unicode="̊" horiz-adv-x="0" d="M-168 555q-39 0-63 23t-24 58q0 24 8 45t23 36.5 35 25 44 9.5q39 0 63.5-22.5T-57 671q0-24-8.5-45t-23-37-35-25-44.5-9zm73 112q0 22-14 37t-38 15q-31 0-50.5-23.5T-217 640q0-22 14-36.5t37-14.5q31 0 51 23t20 55z"/><glyph glyph-name="hungarumlautcmb" unicode="̋" horiz-adv-x="0" d="M-180 566h-75l127 144h110zm183 0h-75L55 710h109z"/><glyph glyph-name="caroncmb" unicode="̌" horiz-adv-x="0" d="M-72 566h-97l-86 144h79l61-102 97 102h84z"/><glyph glyph-name="doublegravecmb" unicode="̏" horiz-adv-x="0" d="M-255 710h107l102-144h-72zm-163 0h107l102-144h-72z"/><glyph glyph-name="invertedbrevecmb" unicode="̑" horiz-adv-x="0" d="M-307 575q6 31 21 56.5t37.5 42.5 50.5 26.5 60 9.5q63 0 100.5-33T0 575h-54q0 41-25.5 57t-60.5 16q-40 0-72.5-17.5T-254 575h-53z"/><glyph glyph-name="horncmb" unicode="̛" horiz-adv-x="0" d="M-195 476q38 0 63.5 22t25.5 65q0 24-7 43l74 18q8-24 8-57 0-30-9-56.5T-68 464t-47-31.5-66-11.5q-30 0-53.5 5t-40.5 11-27 12-13 8q-4 9-4 19h124z"/><glyph glyph-name="dotbelowcmb" unicode="̣" horiz-adv-x="0" d="M-142-131q0-27-18.5-47t-46.5-20q-27 0-45 16.5t-18 43.5q0 29 19.5 48.5T-203-70q26 0 43.5-16.5T-142-131z"/><glyph glyph-name="dieresisbelowcmb" unicode="̤" horiz-adv-x="0" d="M-142-124q0-25-17-42.5t-41-17.5q-23 0-39 14.5t-16 39.5q0 26 17.5 43t41.5 17q23 0 38.5-15t15.5-39zm203 0q0-25-16.5-42.5T3-184q-23 0-39 14.5T-52-130q0 26 17.5 43T6-70t39-15 16-39z"/><glyph glyph-name="ringbelowcmb" unicode="̥" horiz-adv-x="0" d="M-168-267q-39 0-63 23t-24 58q0 24 8 45t23 36.5 35 25 44 9.5q39 0 63.5-22.5T-57-151q0-24-8.5-45t-23-37-35-25-44.5-9zm73 112q0 22-14 37t-38 15q-31 0-50.5-23.5T-217-182q0-22 14-36.5t37-14.5q31 0 51 23t20 55z"/><glyph glyph-name="commabelowcmb" unicode="̦" horiz-adv-x="0" d="M-194-317h-76l113 247h92z"/><glyph glyph-name="cedillacmb" unicode="̧" horiz-adv-x="0" d="M-130-71q13 3 28 3 12 0 26-3.5T-50.5-83t19-21.5T-24-137q0-27-12.5-45t-31-29.5-41-16.5-43.5-5q-12 0-25.5 1.5T-205-227t-27 7-23 9l22 42q16-8 36.5-11.5t39.5-3.5q10 0 21 2t20.5 6.5 15.5 13 6 20.5q0 19-14 27t-34 8q-10 0-21-2t-22-5l-18 18 80 96h52z"/><glyph glyph-name="ogonekcmb" unicode="̨" horiz-adv-x="0" d="M-73-189q-22-17-47.5-27t-51.5-10q-32 0-57.5 17t-25.5 55q0 25 11.5 47.5t28.5 42 38 36L-138 1h59q-45-36-74.5-70t-29.5-63q0-20 12-26.5t28-6.5q14 0 29 5.5t27 15.5z"/><glyph glyph-name="circumflexbelowcmb" unicode="̭" horiz-adv-x="0" d="M66-214h-79l-61 101-98-101h-83l138 144h97z"/><glyph glyph-name="brevebelowcmb" unicode="̮" horiz-adv-x="0" d="M52-70q-6-32-21.5-57t-38-42-50.5-26.5-59-9.5q-64 0-101 33t-37 102h53q0-41 26-57t61-16q40 0 72.5 17.5T-2-70h54z"/><glyph glyph-name="tildebelowcmb" unicode="̰" horiz-adv-x="0" d="M-255-184q7 21 17 41t24 35 32.5 24.5T-139-74q19 0 36.5-7T-68-96l32.5-15 30.5-7q22 0 35 14.5T51-70h50q-8-21-18.5-41T58-146.5t-32.5-25T-17-181q-18 0-35.5 7t-34 15.5T-119-143t-31 7q-23 0-35-15t-20-33h-50z"/><glyph glyph-name="macronbelowcmb" unicode="̱" horiz-adv-x="0" d="M31-132h-286l10 62H41z"/><glyph glyph-name="clickdental" unicode="ǀ" horiz-adv-x="227" d="M153 750V-250H75q0 251-.5 500T74 750h79z"/><glyph glyph-name="clicklateral" unicode="ǁ" horiz-adv-x="454" d="M153 750V-250H75q0 251-.5 500T74 750h79zm226 0V-250h-78V750h78z"/><glyph glyph-name="combininggraphemejoiner" unicode="͏" horiz-adv-x="500"/><glyph glyph-name="zerowidthspace" unicode="​" horiz-adv-x="500"/><glyph glyph-name="afii61664" unicode="‌" horiz-adv-x="500"/><glyph glyph-name="afii301" unicode="‍" horiz-adv-x="500"/></font>
</defs>
</svg>
