<svg xmlns="http://www.w3.org/2000/svg"><defs><font id="Montserrat-Bold" horiz-adv-x="350"><font-face font-family="Montserrat" font-weight="700" panose-1="0 0 8 0 0 0 0 0 0 0" ascent="800" descent="-200" x-height="539" cap-height="700" bbox="-275 -295 1445 975" underline-thickness="50" underline-position="-200" unicode-range="U+0020-FB02"/><glyph glyph-name="fi" unicode="fi" horiz-adv-x="697" d="M542 602q-40 0-65.5 26T451 694t25.5 65.5T542 785t66-25.5 26-65.5-26-66-66-26zm-441-82v45q0 88 58 136.5T307 750q60 0 105-21l-6-137q-37 21-72 21-62 0-62-59v-34h122V406H272V0H101v406H28v114h73zm355 19h172V0H456v539z"/><glyph glyph-name="fl" unicode="fl" horiz-adv-x="714" d="M101 520v52q0 81 57 131t149 49q62 0 106-19l-6-138q-29 21-64 23-31 1-51-19t-20-52v-27h123l-1-113H272V0H101v407H28l1 113h72zm539 222V0H467v742h173z"/><glyph glyph-name=".notdef" horiz-adv-x="500" d="M0 0v700h500V0H0zm250 395l170 255H80zm30-45L450 95v510zM80 50h340L250 305zM50 605V95l170 255z"/><glyph glyph-name=".null" horiz-adv-x="0"/><glyph glyph-name="nonmarkingreturn" horiz-adv-x="333"/><glyph glyph-name="space" horiz-adv-x="232"/><glyph glyph-name="exclam" unicode="!" horiz-adv-x="254" d="M216 518l-30-278H82L52 518v178h164V518zm-85-359q37 0 60.5-23T215 76t-23.5-60.5T131-8Q95-8 71.5 15.5T48 76t23.5 60 59.5 23z"/><glyph glyph-name="quotedbl" unicode="&amp;quot;" horiz-adv-x="439" d="M190 427H60v273h130V427zm189 0H249v273h130V427z"/><glyph glyph-name="numbersign" unicode="#" horiz-adv-x="735" d="M570 418l-18-143h135l-14-119H537L518 0H394l19 156H274L255 0H131l19 156H15l14 119h136l17 143H49l13 119h135l20 163h124l-20-163h140l20 163h124l-20-163h135l-13-119H570zm-124 0H307l-18-143h139z"/><glyph glyph-name="dollar" unicode="$" horiz-adv-x="644" d="M617 208q0-90-63-144.5T389-3v-151H257V1Q118 23 17 106l69 137q53-46 125-75.5T339 138q43 0 67 15.5t24 45.5q0 29-27.5 48.5t-68.5 29-89 25.5-89 35-68.5 60.5T60 497q0 79 52.5 133T257 701v148h132V706q131-14 226-76l-67-139q-55 32-118 52.5T324 564q-77 0-77-51 0-33 38-53t92.5-34.5 109-35T579 324t38-116z"/><glyph glyph-name="percent" unicode="%" horiz-adv-x="1023" d="M227 703q90 0 142.5-57T422 492q0-98-52.5-155T227 280 84 337 31 492q0 97 53 154t143 57zM178 0l500 701h162L340 0H178zm49 611q-40 0-62.5-31.5T142 492t22.5-87.5T227 373t62.5 31.5T312 492t-22.5 87.5T227 611zm570-191q90 0 142.5-57T992 209q0-98-52.5-155.5T797-4 654 53.5 601 209q0 97 53 154t143 57zm0-92q-40 0-62.5-31.5T712 209t22.5-88T797 89t62.5 32 22.5 88-22.5 87.5T797 328z"/><glyph glyph-name="ampersand" unicode="&amp;" horiz-adv-x="685" d="M591-30l-99 96Q403-8 293-8 190-8 122.5 49.5T55 196q0 64 37 107.5T194 383q-59 84-59 157 0 77 54.5 122.5T335 708q88 0 144-44t56-113q0-66-43.5-109T370 359q53-58 111-115 29 50 47 112l110-78q-25-68-64-124l104-99zM270 540q0-44 36-99 94 51 94 109 0 27-17.5 44T337 611q-31 0-49-20t-18-51zm30-427q54 0 104 39-106 106-143 148-65-43-65-92 0-42 29.5-68.5T300 113z"/><glyph glyph-name="quotesingle" unicode="'" horiz-adv-x="250" d="M190 427H60v273h130V427z"/><glyph glyph-name="parenleft" unicode="(" horiz-adv-x="346" d="M189 742h155Q223 548 223 309t121-433H189Q61 59 61 309t128 433z"/><glyph glyph-name="parenright" unicode=")" horiz-adv-x="358" d="M51 742h155q127-181 127-433T206-124H51Q171 68 171 309T51 742z"/><glyph glyph-name="asterisk" unicode="*" horiz-adv-x="378" d="M230 480l2-96h-86l2 96-82-49-43 74 83 47-83 45 43 77 81-50-1 95h86l-1-95 82 48 43-75-85-45 85-47-43-76z"/><glyph glyph-name="plus" unicode="+" horiz-adv-x="510" d="M477 272H309V104H200v168H33v109h167v168h109V381h168V272z"/><glyph glyph-name="comma" unicode="," horiz-adv-x="241" d="M122 158q35 0 58.5-22T204 76q0-32-22-66L109-96H27L72 11Q39 33 39 76q0 36 23.5 59t59.5 23z"/><glyph glyph-name="hyphen" unicode="-" horiz-adv-x="374" d="M319 252H55v109h264V252z"/><glyph glyph-name="period" unicode="." horiz-adv-x="243" d="M121 159q37 0 60.5-23T205 76t-23.5-60.5T121-8 61 15.5 38 76t23 60 60 23z"/><glyph glyph-name="slash" unicode="/" horiz-adv-x="353" d="M109-111H-36l323 922h145z"/><glyph glyph-name="zero" unicode="0" horiz-adv-x="703" d="M352 706q149 0 229-92t80-263q0-172-80-264T352-5Q202-5 121.5 87T41 351q0 171 80.5 263T352 706zm0-130q-68 0-98-52.5T224 351t30-173 98-53q66 0 96.5 53.5T479 351t-30.5 172-96.5 53z"/><glyph glyph-name="one" unicode="1" horiz-adv-x="412" d="M314 0H136v558H7v143h307V0z"/><glyph glyph-name="two" unicode="2" horiz-adv-x="600" d="M306 708q105 0 172-50.5T545 525q0-98-132-233L271 141h295V0H42v115l250 265q67 70 67 120 0 30-21 47t-58 17q-87 0-191-89L22 603q140 105 284 105z"/><glyph glyph-name="three" unicode="3" horiz-adv-x="558" d="M320 416l33-5q79-12 126.5-62T527 220q0-101-73.5-164.5T259-8q-71 0-142 23T-2 77l72 135q79-85 175-85 52 0 80 24t28 67q0 88-109 88H132v95l156 162H33v136h462V598z"/><glyph glyph-name="four" unicode="4" horiz-adv-x="633" d="M211 289h148v150h165V289h95V154h-95V0H359v154H27v119l221 427h171z"/><glyph glyph-name="five" unicode="5" horiz-adv-x="595" d="M532 559H235V446h63q119 0 192-58.5T563 235q0-110-76-176T284-7q-68 0-141.5 24T14 80l71 135q80-86 178-86 52 0 80.5 24.5T372 223q0 41-28.5 64T263 310q-118 0-190-5v395h459V559z"/><glyph glyph-name="six" unicode="6" horiz-adv-x="632" d="M365 708q131 0 226-58l-68-124q-62 45-147 45-82 0-124-49t-40-137q53 75 167 75 103 0 164.5-62T605 234q0-111-71.5-176.5T343-8Q202-8 121.5 85T41 340q0 167 88 267.5T365 708zm-26-378q-51 0-79.5-27T231 232q0-42 27-70t78-28q49 0 76.5 26.5T440 235q0 45-26.5 70T339 330z"/><glyph glyph-name="seven" unicode="7" horiz-adv-x="594" d="M578 579L320 0H132l250 559H189v-98H33v239h545V579z"/><glyph glyph-name="eight" unicode="8" horiz-adv-x="642" d="M320 708q115 0 183-51t68-137q0-46-23.5-84T483 375q58-24 91.5-71.5T608 198q0-94-78-150T321-8 112 47 34 195q0 60 36 108t97 72q-45 25-71 65t-26 85q0 84 68 133.5T320 708zm1-117q-49 0-75-21t-26-60q0-38 26-58t75-20 75 20 26 58q0 39-26 60t-75 21zm0-287q-58 0-88.5-23.5T202 213t30.5-68 88.5-24 89 23.5 31 68.5q0 44-31 67.5T321 304z"/><glyph glyph-name="nine" unicode="9" horiz-adv-x="632" d="M270-7Q139-7 44 51l68 124q62-45 147-45 82 0 124 49t40 137q-53-75-167-75-103 0-164.5 62T30 467q0 111 71.5 176.5T292 709q141 0 221.5-93T594 361q0-167-88-267.5T270-7zm26 378q51 0 79.5 27t28.5 71q0 42-27 70t-78 28q-49 0-76.5-26.5T195 466q0-45 26.5-70t74.5-25z"/><glyph glyph-name="colon" unicode=":" horiz-adv-x="240" d="M121 456q37 0 60.5-23t23.5-60-23.5-60.5T121 289t-60 23.5T38 373t23 60 60 23zm0-297q37 0 60.5-23T205 76t-23.5-60.5T121-8 61 15.5 38 76t23 60 60 23z"/><glyph glyph-name="semicolon" unicode=";" horiz-adv-x="242" d="M121 289q-37 0-60 23.5T38 373t23 60 60 23 60.5-23 23.5-60-23.5-60.5T121 289zm1-131q35 0 58.5-22T204 76q0-32-22-66L109-96H27L72 11Q39 33 39 76q0 36 23.5 59t59.5 23z"/><glyph glyph-name="less" unicode="&amp;lt;" horiz-adv-x="510" d="M477 457L145 324l332-133V70L33 255v139l444 185V457z"/><glyph glyph-name="equal" unicode="=" horiz-adv-x="510" d="M477 380H33v109h444V380zm0-215H33v109h444V165z"/><glyph glyph-name="greater" unicode="&amp;gt;" horiz-adv-x="510" d="M32 199l333 133L32 465v121l445-185V262L32 77v122z"/><glyph glyph-name="question" unicode="?" horiz-adv-x="472" d="M136 475L3 476q1 107 61.5 167T231 703q101 0 158-45.5T446 529q0-42-16-76.5T392 395t-44.5-45-38.5-50-16-61H164q0 43 12.5 76.5t31 54.5 36.5 40 30.5 41.5T287 501q0 65-72 65-78 0-79-91zm90-316q37 0 60.5-23T310 76t-23.5-60.5T226-8t-60 23.5T143 76t23 60 60 23z"/><glyph glyph-name="at" unicode="@" horiz-adv-x="917" d="M465 700q184 0 306-121t122-305q0-111-53.5-178.5T701 28q-98 0-117 78l-2 13q-56-80-151-80-87 0-152.5 65T213 270q0 99 57 167t148 68q36 0 69-14.5t48-28 19-21.5v53h122V157q0-49 37-49 33 0 58 46.5T796 271q0 147-89.5 243T465 610q-143 0-243-100T122 268q0-140 94.5-233T452-58q108 0 189 61l46-80q-43-32-109.5-52T452-149q-183 0-305.5 119T24 268q0 182 128 307t313 125zm-22-306q-43 0-70-34.5T346 275q0-53 27-90t71-37q47 0 74.5 36t27.5 90q0 51-28 85.5T443 394z"/><glyph glyph-name="A" unicode="A" horiz-adv-x="770" d="M535 129H229L178 0H-5l302 700h183L775 0H585zm-52 135L383 523 281 264h202z"/><glyph glyph-name="B" unicode="B" horiz-adv-x="715" d="M70 700h331q118 0 187.5-47.5T658 525q0-55-32-96.5T538 371q66-13 105-61t39-116q0-89-72.5-141.5T413 0H70v700zm177-136V420h144q39 0 62 19.5t23 53.5q0 33-23 52t-62 19H247zm0-272V137h144q50 0 78.5 21t28.5 58q0 35-28.5 55.5T391 292H247z"/><glyph glyph-name="C" unicode="C" horiz-adv-x="692" d="M398 706q78 0 153.5-32T680 588L577 466q-34 42-81.5 66.5T401 557q-83 0-139-58.5T206 354q0-88 56-147t139-59q44 0 91.5 22t84.5 60l104-110q-57-58-134.5-93T392-8Q234-8 129 95T24 352q0 151 107 252.5T398 706z"/><glyph glyph-name="D" unicode="D" horiz-adv-x="767" d="M70 700h301q165 0 268.5-97T743 350q0-155-105-252.5T364 0H70v700zm178-142V142h127q82 0 134.5 57.5T562 349t-55 150.5T367 558H248z"/><glyph glyph-name="E" unicode="E" horiz-adv-x="674" d="M618 560H248V421h334V281H248V140h381V0H70v700h548V560z"/><glyph glyph-name="F" unicode="F" horiz-adv-x="604" d="M589 560H248V398h314V258H248V0H70v700h519V560z"/><glyph glyph-name="G" unicode="G" horiz-adv-x="743" d="M535 356h154V83q-57-40-137.5-65.5T398-8Q238-8 131 94.5T24 350q0 152 110 254t276 102q78 0 155-28t131-76L596 481q-38 35-88 55.5T409 557q-86 0-144.5-59.5T206 350q0-89 59-149t146-60q56 0 124 34v181z"/><glyph glyph-name="H" unicode="H" horiz-adv-x="786" d="M716 0H538v272H248V0H70v700h178V412h290v288h178V0z"/><glyph glyph-name="I" unicode="I" horiz-adv-x="318" d="M248 0H70v700h178V0z"/><glyph glyph-name="J" unicode="J" horiz-adv-x="536" d="M478 701V227q0-111-64.5-173T236-8Q93-8-5 104l82 119q75-78 147-78 75 0 75 86v326H59v144h419z"/><glyph glyph-name="K" unicode="K" horiz-adv-x="747" d="M526 0L341 275l-93-103V0H70v700h178V397l268 303h206L462 410 739 0H526z"/><glyph glyph-name="L" unicode="L" horiz-adv-x="560" d="M248 149h297V0H70v700h178V149z"/><glyph glyph-name="M" unicode="M" horiz-adv-x="910" d="M839 0H682l-1 455L513 70H397L229 455V0H70v701h195l190-417 190 417h194V0z"/><glyph glyph-name="N" unicode="N" horiz-adv-x="786" d="M716 0H559L237 431V0H70v700h157l323-432v432h166V0z"/><glyph glyph-name="O" unicode="O" horiz-adv-x="805" d="M402 706q163 0 271-101.5T781 351q0-153-108.5-256T402-8 132 94.5 24 351q0 153 108 254t270 101zm2-149q-82 0-140-59.5T206 350t58.5-148.5T404 141t137.5 60.5T598 350t-56.5 147.5T404 557z"/><glyph glyph-name="P" unicode="P" horiz-adv-x="680" d="M70 700h305q134 0 208-63.5T657 456q0-123-74-191t-208-68H248V0H70v700zm178-140V337h118q59 0 91 29t32 84q0 54-32 82t-91 28H248z"/><glyph glyph-name="Q" unicode="Q" horiz-adv-x="810" d="M753 22l63-110q-40-36-95-56.5T613-165q-72 0-131 41.5T388-8Q231-3 127.5 99T24 351q0 153 108 254t270 101q163 0 271-101.5T781 351q0-115-63.5-205T548 17q38-48 85-48 51 0 120 53zM206 350q0-88 58.5-148.5T404 141t137.5 60.5T598 350t-56.5 147.5T404 557q-82 0-140-59.5T206 350z"/><glyph glyph-name="R" unicode="R" horiz-adv-x="724" d="M492 0L388 197H248V0H70v700h313q139 0 215-63.5T674 456q0-162-127-225L694 0H492zM248 337h135q58 0 90 29t32 84q0 54-32 82t-90 28H248V337z"/><glyph glyph-name="S" unicode="S" horiz-adv-x="644" d="M339 708q157 0 276-78l-67-139q-55 32-118 52.5T324 564q-77 0-77-51 0-33 38-53t92.5-34.5 109-35T579 324t38-116q0-101-79-157.5T337-6q-87 0-172 30T17 106l69 137q53-46 125-75.5T339 138q43 0 67 15.5t24 45.5q0 29-27.5 48.5t-68.5 29-89 25.5-89 35-68.5 60.5T60 497q0 96 76.5 153.5T339 708z"/><glyph glyph-name="T" unicode="T" horiz-adv-x="611" d="M605 557H394V0H216v557H7v144h598V557z"/><glyph glyph-name="U" unicode="U" horiz-adv-x="758" d="M700 700V294q0-139-86-220.5T381-8Q233-8 145.5 73.5T58 294v406h178V294q0-70 40.5-111.5T382 141q64 0 102.5 41T523 294v406h177z"/><glyph glyph-name="V" unicode="V" horiz-adv-x="729" d="M455 0H271L-1 700h190l179-515 179 515h183z"/><glyph glyph-name="W" unicode="W" horiz-adv-x="1081" d="M857 0H674L544 484 412 0H228L-1 700h190l137-515 134 515h174l137-515 135 515h182z"/><glyph glyph-name="X" unicode="X" horiz-adv-x="734" d="M476 366L727 0H514L363 223 212 0H5l250 358L21 700h207l135-204 135 204h209z"/><glyph glyph-name="Y" unicode="Y" horiz-adv-x="680" d="M431 226V0H254v221L-5 700h178l169-305 165 305h178z"/><glyph glyph-name="Z" unicode="Z" horiz-adv-x="675" d="M640 586L266 141h380V0H28v114l375 445H41v141h599V586z"/><glyph glyph-name="bracketleft" unicode="[" horiz-adv-x="362" d="M344 614H224V4h120v-128H70v866h274V614z"/><glyph glyph-name="backslash" unicode="\" horiz-adv-x="455" d="M158 811l323-922H336L13 811h145z"/><glyph glyph-name="bracketright" unicode="]" horiz-adv-x="433" d="M363 742v-866H89V4h120v610H89v128h274z"/><glyph glyph-name="asciicircum" unicode="^" horiz-adv-x="575" d="M420 138L287 427 154 138H32l186 387h139l185-387H420z"/><glyph glyph-name="underscore" unicode="_" horiz-adv-x="583" d="M583-204H0v94h583v-94z"/><glyph glyph-name="grave" unicode="`" d="M303 600H171L41 713l156 55z"/><glyph glyph-name="a" unicode="a" horiz-adv-x="600" d="M311 547q111 0 172.5-51.5T546 352V0H377v62Q324-8 212-8 127-8 77 39T27 161q0 77 53.5 119.5T234 324h142v8q0 40-26.5 62.5T271 417q-73 0-161-45L61 486q131 61 250 61zm-46-438q41 0 72 20.5t39 53.5v48H267q-78 0-78-58 0-30 20-47t56-17z"/><glyph glyph-name="b" unicode="b" horiz-adv-x="685" d="M408 545q114 0 183.5-76.5T661 267q0-123-68-198T412-6Q306-6 247 72V0H74v742h173V468q60 77 161 77zm-42-414q54 0 87.5 39.5T487 272t-33.5 101-87.5 39q-52 0-85.5-39T247 272q0-63 33-102t86-39z"/><glyph glyph-name="c" unicode="c" horiz-adv-x="562" d="M304 545q80 0 142.5-31.5T544 424l-124-75q-40 56-109 56-50 0-81.5-37.5T198 269q0-62 31-99.5t82-37.5q76 0 110 61l126-74q-33-60-96.5-92.5T302-6Q177-6 100.5 69.5T24 268q0 124 77.5 200.5T304 545z"/><glyph glyph-name="d" unicode="d" horiz-adv-x="686" d="M612 742V0H439v71Q380-7 277-7 163-7 94 70T25 272q0 124 68 199t180 75q107 0 166-78v274h173zM319 127q54 0 87 39t33 102q0 62-33 101t-87 39-87-38.5T198 268q1-63 34-102t87-39z"/><glyph glyph-name="e" unicode="e" horiz-adv-x="602" d="M305 545q140 0 210.5-86T577 223H198q13-48 46-74t81-26q74 0 129 55l91-89Q458-6 310-6 179-6 101.5 69T24 268q0 125 77.5 201T305 545zM195 316h216q0 49-28.5 79T307 425q-44 0-74-29.5T195 316z"/><glyph glyph-name="f" unicode="f" horiz-adv-x="386" d="M334 613q-27 1-44.5-14.5T272 554v-39h122V401H272V0H101v401H28v114h73v50q0 87 58 136t148 49q86 0 151-38l-61-121q-30 22-63 22z"/><glyph glyph-name="g" unicode="g" horiz-adv-x="647" d="M584 539V49q0-114-80.5-182T292-201q-134 0-240 71l60 117q78-54 167-54 62 0 97.5 30T412 44v57q-55-72-155-72-103 0-167.5 72T25 290q0 114 63 184.5T253 545q103 1 159-72v66h172zM300 154q50 0 81 36.5t31 94.5q0 59-31 95.5T300 417q-51 0-82.5-36.5T186 285q0-58 31.5-94.5T300 154z"/><glyph glyph-name="h" unicode="h" horiz-adv-x="678" d="M428 547q89 0 143-56.5T625 340V0H452v292q0 47-25.5 74.5T357 394q-50 0-80-36t-30-92V0H74v742h173V450q57 95 181 97z"/><glyph glyph-name="i" unicode="i" horiz-adv-x="311" d="M156 785q40 0 65.5-25.5T247 694t-25.5-66-65.5-26-65.5 26T65 694t25.5 65.5T156 785zM241 0H69v539h172V0z"/><glyph glyph-name="j" unicode="j" horiz-adv-x="319" d="M157 785q43 0 70.5-25.5T255 693q0-40-27.5-65.5T157 602t-70.5 25.5T59 693t27.5 66 70.5 26zm87-246V-16q0-88-55-137T48-201q-79 0-135 35l44 121q32-19 61-19 25-1 39 14T71-5v544h173z"/><glyph glyph-name="k" unicode="k" horiz-adv-x="630" d="M305 208l-58-61V0H74v742h173V350l178 189h196L423 332 627 0H422z"/><glyph glyph-name="l" unicode="l" horiz-adv-x="321" d="M247 0H74v742h173V0z"/><glyph glyph-name="m" unicode="m" horiz-adv-x="1037" d="M789 547q89 0 141.5-56.5T983 340V0H811v292q0 48-25 75.5T718 395q-48-1-76.5-36.5T613 267V0H440v292q0 48-24.5 75.5T348 395q-49-1-78-37t-29-91V0H69v539h172v-89q55 95 178 97 65 0 112.5-32.5T599 425q53 120 190 122z"/><glyph glyph-name="n" unicode="n" horiz-adv-x="673" d="M422 547q89 0 143-56.5T619 340V0H447v292q0 47-25.5 74.5T352 394q-46 0-75.5-30T242 285V0H69v539h173v-88q57 94 180 96z"/><glyph glyph-name="o" unicode="o" horiz-adv-x="637" d="M319 545q132 0 213-75.5T613 270 532 70 319-6Q186-6 105 70T24 270t81 199.5T319 545zm0-137q-54 0-87.5-39T198 268q0-63 33.5-101.5T319 128q53 0 86.5 38.5T439 268q0 62-33.5 101T319 408z"/><glyph glyph-name="p" unicode="p" horiz-adv-x="685" d="M408 545q114 0 183.5-76.5T661 267q0-123-68-198T412-6Q306-6 247 72v-266H74v733h173v-71q60 77 161 77zm-42-414q54 0 87.5 39.5T487 272t-33.5 101-87.5 39q-52 0-85.5-39T247 272q0-63 33-102t86-39z"/><glyph glyph-name="q" unicode="q" horiz-adv-x="686" d="M612 539v-733H439V71Q380-7 277-7 163-7 94 70T25 272q0 124 68 199t180 75q107 0 166-78v71h173zM319 127q54 0 87 39t33 102q0 62-33 101t-87 39-87-38.5T198 268q1-63 34-102t87-39z"/><glyph glyph-name="r" unicode="r" horiz-adv-x="427" d="M242 539v-91q57 97 175 99V391q-74 7-121-24.5T242 277V0H69v539h173z"/><glyph glyph-name="s" unicode="s" horiz-adv-x="513" d="M262 547q119 0 222-61l-59-112q-100 54-170 54-53 0-53-37 0-20 29-33.5t71-24.5 83.5-27.5T456 253t29-88q0-81-63-126.5T258-7Q115-7 16 69l55 110q95-67 191-67 59 0 59 37 0 21-28.5 35T223 209t-82 27.5T71.5 288 43 376q0 81 61 126t158 45z"/><glyph glyph-name="t" unicode="t" horiz-adv-x="435" d="M383 149l34-120Q354-8 273-8q-80 0-129.5 44.5T94 163v238H19v113h75v150h172V515h141V401H266V190q0-31 12.5-45.5T316 131q24 0 67 18z"/><glyph glyph-name="u" unicode="u" horiz-adv-x="663" d="M594 539V0H421v89Q366-7 246-7q-88 0-140.5 56T53 199v340h173V248q0-48 24.5-75.5T316 145q49 1 77 36.5t28 91.5v266h173z"/><glyph glyph-name="v" unicode="v" horiz-adv-x="571" d="M375 0H198L-5 539h178l116-381 117 381h172z"/><glyph glyph-name="w" unicode="w" horiz-adv-x="937" d="M747 0H576L470 342 364 0H192L-5 539h176l111-373 108 373h165l111-373 109 373h169z"/><glyph glyph-name="x" unicode="x" horiz-adv-x="606" d="M304 384l96 155h189L418 277 601 0H402l-98 169L194 0H4l184 276L16 539h198z"/><glyph glyph-name="y" unicode="y" horiz-adv-x="580" d="M587 539L354-56q-60-146-208-146-86 0-157 55L61-29q36-29 71-29 46 0 67 43l13 27-224 527h178l132-358 117 358h172z"/><glyph glyph-name="z" unicode="z" horiz-adv-x="553" d="M515 435L251 130h273V0H34v104l265 305H44v130h471V435z"/><glyph glyph-name="braceleft" unicode="{" horiz-adv-x="356" d="M254 551V429q0-55-19-82.5T170 309q46-11 65-39t19-82V67q0-36 18.5-50.5T342 2v-128h-67q-97 0-136 31.5T100 14v185q0 24-8.5 34T63 243H24v132h39q20 0 28.5 9.5T100 418v186q0 77 39 108t136 31h67V616q-51 0-69.5-14.5T254 551z"/><glyph glyph-name="bar" unicode="|" horiz-adv-x="299" d="M214-110H85v913h129v-913z"/><glyph glyph-name="braceright" unicode="}" horiz-adv-x="391" d="M384 375V243h-38q-20 0-29-10t-9-34V14q0-77-39-108.5T133-126H67V2q50 0 69 14.5T155 67v121q0 55 18.5 82.5T239 308q-47 11-65.5 38.5T155 429v122q0 36-19 50.5T67 616v127h66q97 0 136-31t39-108V418q0-24 8.5-33.5T346 375h38z"/><glyph glyph-name="asciitilde" unicode="~" horiz-adv-x="510" d="M169 412q38 0 81.5-25.5T306 361q33 0 33 46h115q0-170-113-170-38 0-81.5 25.5T204 288q-32 0-32-46H56q0 170 113 170z"/><glyph glyph-name="nbspace" horiz-adv-x="232"/><glyph glyph-name="exclamdown" unicode="¡" horiz-adv-x="254" d="M136 379q-37 0-60.5 23T52 462q0 38 23.5 61.5T136 547q36 0 59.5-24t23.5-61-23.5-60-59.5-23zM51 21l30 277h104l30-277v-179H51V21z"/><glyph glyph-name="cent" unicode="¢" horiz-adv-x="559" d="M421 193l126-74Q495 25 377 1v-155H243V-1Q143 16 83.5 88.5T24 268q0 108 59.5 181T243 540v159h134V538q112-25 167-114l-124-75q-40 56-109 56-50 0-81.5-37.5T198 269q0-62 31-99.5t82-37.5q76 0 110 61z"/><glyph glyph-name="sterling" unicode="£" horiz-adv-x="557" d="M283 134h258V0H28v134h76v147H28v118h76v75q0 112 62.5 173T342 708q127 0 213-86l-67-130q-64 67-127 67-78 0-78-89v-71h167V281H283V134z"/><glyph glyph-name="currency" unicode="¤" horiz-adv-x="701" d="M612 321q0-72-37-131L677 88 580-9 477 95q-61-32-127-32T225 95L121-9 24 88l102 102q-36 59-36 131 0 70 34 127L24 547l97 97 99-99q60 35 130 35t132-35l98 99 97-97-99-99q34-57 34-127zM350 198q53 0 90 36t37 87q0 52-37 88.5T350 446q-52 0-88.5-36.5T225 321q0-51 36.5-87t88.5-36z"/><glyph glyph-name="yen" unicode="¥" horiz-adv-x="665" d="M491 339h115v-65H456l-25-47v-18h175v-66H431V0H254v143H69v66h185v13l-28 52H69v65h122L-5 701h178l169-307 165 307h178z"/><glyph glyph-name="brokenbar" unicode="¦" horiz-adv-x="299" d="M214 461H85v342h129V461zm0-571H85v343h129v-343z"/><glyph glyph-name="section" unicode="§" horiz-adv-x="545" d="M282 694q114 0 223-61l-52-106q-102 53-169 53-64 0-64-38 0-19 22-33.5t55.5-24T370 461t72.5-31 55.5-48.5 22-74.5q0-44-27-79.5T421 174q35-21 50-43t15-59q0-71-61.5-115.5T261-88Q124-88 16-11L65 96q100-68 192-68 32 0 51 11t19 28q0 22-30.5 37.5T223 133t-86.5 30.5-74 52T32 300q0 94 105 132-41 22-56.5 45.5T65 535q0 71 59 115t158 44zm-23-341q-73 0-73-42 0-24 29-39.5t72-15.5q74 0 74 42 0 24-29.5 39.5T259 353z"/><glyph glyph-name="dieresis" unicode="¨" horiz-adv-x="368" d="M79 770q34 0 55.5-22t21.5-56-21.5-56T79 614q-35 0-56.5 22T1 692t22 56 56 22zm193 0q34 0 56-22t22-56-22-56-56-22-56 22-22 56 22 56 56 22z"/><glyph glyph-name="copyright" unicode="©" horiz-adv-x="725" d="M363 689q142 0 240-99.5T701 350t-99-240.5T361 9q-141 0-239 99.5T24 348t98.5 240.5T363 689zm0-80q-109 0-184-76.5T104 348q0-107 74-183t183-76 185 77 76 184-75 183-184 76zm6-94q79 0 132-55l-48-57q-36 42-82 42-40 0-66.5-27T278 351q0-41 26.5-69t66.5-28q44 0 82 38l48-51q-57-60-135-60-74 0-123 48t-49 120q0 71 50 118.5T369 515z"/><glyph glyph-name="ordfeminine" unicode="ª" horiz-adv-x="393" d="M204 785q72 0 112-31t39-86V458H239v41q-34-46-105-46-52 0-82.5 27.5T21 553q0 46 34 71t97 25h87v5q0 46-63 46-44 0-106-24l-28 76q86 33 162 33zm-29-259q44 0 64 35v34h-62q-44 0-44-33 0-36 42-36z"/><glyph glyph-name="guillemotleft" unicode="«" horiz-adv-x="502" d="M156 266L262 82H122L2 266l120 184h140zm221 0L484 82H344L224 266l120 184h140z"/><glyph glyph-name="logicalnot" unicode="¬" horiz-adv-x="578" d="M514 426V137H390v180H33v109h481z"/><glyph glyph-name="softhyphen" unicode="­" horiz-adv-x="374" d="M319 252H55v109h264V252z"/><glyph glyph-name="registered" unicode="®" horiz-adv-x="725" d="M363 689q142 0 240-99.5T701 350t-99-240.5T361 9q-141 0-239 99.5T24 348t98.5 240.5T363 689zm-2-600q109 0 185 77t76 184-75 183-184 76-184-76.5T104 348q0-107 74-183t183-76zm144 320q0-74-58-104l68-105h-91l-48 90h-63v-90h-79v320h138q64 0 98.5-29t34.5-82zm-192-57h59q27 0 42 14t15 40q0 53-57 53h-59V352z"/><glyph glyph-name="macron" unicode="¯" d="M314 632H36v116h278V632z"/><glyph glyph-name="degree" unicode="°" horiz-adv-x="374" d="M202 817q49 0 84-34.5t35-83.5-35-83.5-84-34.5-84 34.5T83 699t35 83.5 84 34.5zm0-67q-21 0-36.5-15T150 699t15.5-36 36.5-15q22 0 37 15t15 36-15 36-37 15z"/><glyph glyph-name="plusminus" unicode="±" horiz-adv-x="510" d="M477 453V348H309V187H200v161H33v105h167v162h109V453h168zM33 112h444V2H33v110z"/><glyph glyph-name="twosuperior" unicode="²" horiz-adv-x="389" d="M201 705q66 0 108.5-30.5T352 595q0-60-83-140l-82-81h176v-91H32v75l155 155q38 40 38 65 0 32-43 32-54 0-118-53l-46 84q91 64 183 64z"/><glyph glyph-name="threesuperior" unicode="³" horiz-adv-x="365" d="M217 533l20-4q47-8 75.5-37.5T341 415q0-61-46.5-99T172 278Q72 278 5 330l49 89q48-54 108-54t60 49q0 47-61 47H89v61l94 92H26v85h295v-67z"/><glyph glyph-name="acute" unicode="´" d="M306 713L176 600H44l106 168z"/><glyph glyph-name="mu" unicode="µ" horiz-adv-x="684" d="M615 539V0H442v89Q387-7 267-7l-20 1v-188H74v733h173V248q0-48 24.5-75.5T337 145q49 1 77 36.5t28 91.5v266h173z"/><glyph glyph-name="paragraph" unicode="¶" horiz-adv-x="650" d="M580-107H451v752H351v-752H223v432h-27q-57 0-99 20t-63 52.5-30.5 65T-6 529q0 90 60 151.5T237 742h343v-849z"/><glyph glyph-name="periodcentered" unicode="·" horiz-adv-x="240" d="M119 371q36 0 59-23t23-59-23-59-59-23q-35 0-58 23t-23 59 23 59 58 23z"/><glyph glyph-name="cedilla" unicode="¸" d="M250 14l-33-65q31-8 49.5-29.5T285-132q0-47-35-75t-90-28q-49 0-95 31l32 71q22-20 49-20 19 0 30.5 10.5T188-116t-12 26-34 10q-12 0-36-4l47 98h97z"/><glyph glyph-name="onesuperior" unicode="¹" horiz-adv-x="274" d="M89 283v324H10v93h201V283H89z"/><glyph glyph-name="ordmasculine" unicode="º" horiz-adv-x="413" d="M206 785q85 0 136-45.5T393 619q0-74-51-119.5T206 454q-84 0-135 45.5T20 619q0 75 51 120.5T206 785zm0-91q-30 0-48.5-21T139 618t18.5-55 48.5-21 48.5 21 18.5 55-18.5 55-48.5 21z"/><glyph glyph-name="guillemotright" unicode="»" horiz-adv-x="508" d="M141 266L35 450h140l120-184L175 82H35zm222 0L257 450h140l120-184L397 82H257z"/><glyph glyph-name="onequarter" unicode="¼" horiz-adv-x="881" d="M67 0l500 701h162L229 0H67zm22 283v324H10v93h201V283H89zm608-112v89h113v-89h58V87h-58V0H697v87H490v79l134 251h117L614 171h83z"/><glyph glyph-name="onehalf" unicode="½" horiz-adv-x="902" d="M67 0l500 701h162L229 0H67zm22 283v324H10v93h201V283H89zm625 139q67 0 109-30.5t42-80.5q0-59-83-139l-82-82h176V0H545v75l155 154q38 42 38 66 0 32-43 32-52 0-118-53l-46 84q91 64 183 64z"/><glyph glyph-name="threequarters" unicode="¾" horiz-adv-x="940" d="M127 0l500 701h162L289 0H127zm90 533l20-4q47-8 75.5-37.5T341 415q0-61-46.5-99T172 278Q72 278 5 330l49 89q48-54 108-54t60 49q0 47-61 47H89v61l94 92H26v85h295v-67zm539-362v89h113v-89h58V87h-58V0H756v87H549v79l134 251h117L673 171h83z"/><glyph glyph-name="questiondown" unicode="¿" horiz-adv-x="472" d="M246 380q-37 0-60.5 23T162 463t23.5 60.5T246 547q36 0 59.5-23.5T329 463t-23.5-60-59.5-23zm90-316l133-1q-1-107-61.5-167T241-164q-101 0-158.5 45.5T25 10q0 42 16 76.5T79.5 144t45 45 38.5 50 16 61h129q0-43-13-76.5t-31-55-36-40T197 87t-13-50q0-64 73-64 76 0 79 91z"/><glyph glyph-name="Agrave" unicode="À" horiz-adv-x="770" d="M341 761L211 874l156 55 106-168H341zm194-632H229L178 0H-5l302 700h183L775 0H585zm-52 135L383 523 281 264h202z"/><glyph glyph-name="Aacute" unicode="Á" horiz-adv-x="770" d="M431 761H299l106 168 156-55zm104-632H229L178 0H-5l302 700h183L775 0H585zm-52 135L383 523 281 264h202z"/><glyph glyph-name="Acircumflex" unicode="Â" horiz-adv-x="770" d="M327 771H203l113 151h138l113-151H443l-58 85zm208-642H229L178 0H-5l302 700h183L775 0H585zm-52 135L383 523 281 264h202z"/><glyph glyph-name="Atilde" unicode="Ã" horiz-adv-x="770" d="M343 825q-30 0-30-43H207q0 156 105 156 33 0 69-23.5t46-23.5q31 0 31 42h105q0-155-104-155-34 0-69.5 23.5T343 825zm192-696H229L178 0H-5l302 700h183L775 0H585zm-52 135L383 523 281 264h202z"/><glyph glyph-name="Adieresis" unicode="Ä" horiz-adv-x="770" d="M289 775q-34 0-56 21.5T211 852t22 56 56 22 56-22 22-56-22-55.5-56-21.5zm193 0q-34 0-56 21.5T404 852t22 56 56 22 56-22 22-56-22-55.5-56-21.5zm53-646H229L178 0H-5l302 700h183L775 0H585zm-52 135L383 523 281 264h202z"/><glyph glyph-name="Aring" unicode="Å" horiz-adv-x="770" d="M535 129H229L178 0H-5l295 685q-30 35-30 83 0 53 37.5 90t90.5 37q54 0 91.5-37t37.5-90q0-49-31-83L775 0H585zM388 822q-22 0-38-16t-16-38 16-38 38-16q23 0 39 15.5t16 38.5-16 38.5-39 15.5zm95-558L383 523 281 264h202z"/><glyph glyph-name="AE" unicode="Æ" horiz-adv-x="1102" d="M1057 140V0H498v148H258L180 0H-5l398 700h105v1h548V560H675V421h335V282H675V140h382zM498 276v288h-20L326 276h172z"/><glyph glyph-name="Ccedilla" unicode="Ç" horiz-adv-x="692" d="M577 230l104-110Q581 17 441-4l-24-47q31-8 49.5-29.5T485-132q0-47-35-75t-90-28q-49 0-95 31l32 71q22-20 49-20 19 0 30.5 10.5T388-116t-12 26-34 10q-12 0-36-4l38 79Q204 11 114 111T24 352q0 151 107 252.5T398 706q78 0 153.5-32T680 588L577 466q-34 42-81.5 66.5T401 557q-83 0-139-58.5T206 354q0-88 56-147t139-59q44 0 91.5 22t84.5 60z"/><glyph glyph-name="Egrave" unicode="È" horiz-adv-x="674" d="M434 761H302L172 874l156 55zm184-201H248V421h334V281H248V140h381V0H70v700h548V560z"/><glyph glyph-name="Eacute" unicode="É" horiz-adv-x="674" d="M522 874L392 761H260l106 168zm96-314H248V421h334V281H248V140h381V0H70v700h548V560z"/><glyph glyph-name="Ecircumflex" unicode="Ê" horiz-adv-x="674" d="M528 771H404l-58 85-58-85H164l113 151h138zm90-211H248V421h334V281H248V140h381V0H70v700h548V560z"/><glyph glyph-name="Edieresis" unicode="Ë" horiz-adv-x="674" d="M250 930q34 0 56-22t22-56-22-55.5-56-21.5-56 21.5-22 55.5 22 56 56 22zm193 0q34 0 56-22t22-56-22-55.5-56-21.5-56 21.5-22 55.5 22 56 56 22zm175-370H248V421h334V281H248V140h381V0H70v700h548V560z"/><glyph glyph-name="Igrave" unicode="Ì" horiz-adv-x="318" d="M247 761H115L-15 874l156 55zm1-761H70v700h178V0z"/><glyph glyph-name="Iacute" unicode="Í" horiz-adv-x="318" d="M334 874L204 761H72l106 168zM248 0H70v700h178V0z"/><glyph glyph-name="Icircumflex" unicode="Î" horiz-adv-x="318" d="M341 771H217l-58 85-58-85H-23L90 922h138zM248 0H70v700h178V0z"/><glyph glyph-name="Idieresis" unicode="Ï" horiz-adv-x="318" d="M63 930q34 0 56-22t22-56-22-55.5T63 775 7 796.5-15 852t22 56 56 22zm193 0q34 0 56-22t22-56-22-55.5-56-21.5-56 21.5-22 55.5 22 56 56 22zM248 0H70v700h178V0z"/><glyph glyph-name="Eth" unicode="Ð" horiz-adv-x="799" d="M102 700h301q165 0 268.5-97T775 350q0-155-105-252.5T396 0H102v304H0v94h102v302zm177-558h128q82 0 134.5 57.5T594 349t-55 150.5T399 558H279V398h159v-94H279V142z"/><glyph glyph-name="Ntilde" unicode="Ñ" horiz-adv-x="786" d="M320 938q33 0 69-23.5t46-23.5q31 0 31 42h105q0-155-104-155-35 0-70 23.5T351 825q-30 0-30-43H215q0 156 105 156zM716 0H559L237 431V0H70v700h157l323-432v432h166V0z"/><glyph glyph-name="Ograve" unicode="Ò" horiz-adv-x="805" d="M483 761H351L221 874l156 55zm-81-55q163 0 271-101.5T781 351q0-153-108.5-256T402-8 132 94.5 24 351q0 153 108 254t270 101zm2-149q-82 0-140-59.5T206 350t58.5-148.5T404 141t137.5 60.5T598 350t-56.5 147.5T404 557z"/><glyph glyph-name="Oacute" unicode="Ó" horiz-adv-x="805" d="M570 874L440 761H308l106 168zM402 706q163 0 271-101.5T781 351q0-153-108.5-256T402-8 132 94.5 24 351q0 153 108 254t270 101zm2-149q-82 0-140-59.5T206 350t58.5-148.5T404 141t137.5 60.5T598 350t-56.5 147.5T404 557z"/><glyph glyph-name="Ocircumflex" unicode="Ô" horiz-adv-x="805" d="M577 771H453l-58 85-58-85H213l113 151h138zm-175-65q163 0 271-101.5T781 351q0-153-108.5-256T402-8 132 94.5 24 351q0 153 108 254t270 101zm2-149q-82 0-140-59.5T206 350t58.5-148.5T404 141t137.5 60.5T598 350t-56.5 147.5T404 557z"/><glyph glyph-name="Otilde" unicode="Õ" horiz-adv-x="805" d="M322 938q33 0 69-23.5t46-23.5q31 0 31 42h105q0-155-104-155-35 0-70 23.5T353 825q-30 0-30-43H217q0 156 105 156zm80-232q163 0 271-101.5T781 351q0-153-108.5-256T402-8 132 94.5 24 351q0 153 108 254t270 101zm2-149q-82 0-140-59.5T206 350t58.5-148.5T404 141t137.5 60.5T598 350t-56.5 147.5T404 557z"/><glyph glyph-name="Odieresis" unicode="Ö" horiz-adv-x="805" d="M299 930q34 0 56-22t22-56-22-55.5-56-21.5-56 21.5-22 55.5 22 56 56 22zm193 0q34 0 56-22t22-56-22-55.5-56-21.5-56 21.5-22 55.5 22 56 56 22zm-90-224q163 0 271-101.5T781 351q0-153-108.5-256T402-8 132 94.5 24 351q0 153 108 254t270 101zm2-149q-82 0-140-59.5T206 350t58.5-148.5T404 141t137.5 60.5T598 350t-56.5 147.5T404 557z"/><glyph glyph-name="multiply" unicode="×" horiz-adv-x="510" d="M332 327l118-119-77-77-118 119-119-119-77 77 119 119L59 445l77 77 119-118 118 118 77-77z"/><glyph glyph-name="Oslash" unicode="Ø" horiz-adv-x="805" d="M596 809l-45-129q105-39 167.5-127.5T781 351q0-153-108.5-256T402-8q-47 0-89 9l-40-114H173l51 145Q132 76 78 160.5T24 351q0 153 108 254t270 101q32 0 57-4l37 107h100zM206 350q0-99 73-162l129 369h-4q-82 0-140-59.5T206 350zm198-209q81 0 137.5 60.5T598 350q0 59-26.5 107T499 532L364 145q26-4 40-4z"/><glyph glyph-name="Ugrave" unicode="Ù" horiz-adv-x="758" d="M467 761H335L205 874l156 55zm233-61V294q0-139-86-220.5T381-8Q233-8 145.5 73.5T58 294v406h178V294q0-70 40.5-111.5T382 141q64 0 102.5 41T523 294v406h177z"/><glyph glyph-name="Uacute" unicode="Ú" horiz-adv-x="758" d="M555 874L425 761H293l106 168zm145-174V294q0-139-86-220.5T381-8Q233-8 145.5 73.5T58 294v406h178V294q0-70 40.5-111.5T382 141q64 0 102.5 41T523 294v406h177z"/><glyph glyph-name="Ucircumflex" unicode="Û" horiz-adv-x="758" d="M562 771H438l-58 85-58-85H198l113 151h138zm138-71V294q0-139-86-220.5T381-8Q233-8 145.5 73.5T58 294v406h178V294q0-70 40.5-111.5T382 141q64 0 102.5 41T523 294v406h177z"/><glyph glyph-name="Udieresis" unicode="Ü" horiz-adv-x="758" d="M284 930q34 0 56-22t22-56-22-55.5-56-21.5-56 21.5-22 55.5 22 56 56 22zm193 0q34 0 56-22t22-56-22-55.5-56-21.5-56 21.5-22 55.5 22 56 56 22zm223-230V294q0-139-86-220.5T381-8Q233-8 145.5 73.5T58 294v406h178V294q0-70 40.5-111.5T382 141q64 0 102.5 41T523 294v406h177z"/><glyph glyph-name="Yacute" unicode="Ý" horiz-adv-x="680" d="M385 761H253l106 168 156-55zm46-535V0H254v221L-5 700h178l169-305 165 305h178z"/><glyph glyph-name="Thorn" unicode="Þ" horiz-adv-x="689" d="M248 608h122q139 0 217.5-64T666 367q0-119-79-187t-217-68H248V0H70v700h178v-92zm0-360h115q58 0 89.5 29.5T484 362q0 53-31.5 81.5T363 472H248V248z"/><glyph glyph-name="germandbls" unicode="ß" horiz-adv-x="662" d="M329 750q116 0 187-54.5T587 550q0-52-26-97.5T491 383q62-17 100-61.5T629 214q0-96-76-155T351 0h-49v123h41q57 0 88 24.5t31 67.5q0 44-34 67t-97 23h-18v122q52 0 79.5 25.5T420 525q0 46-23.5 70.5T330 620q-48 0-74-30t-26-86V0H58v492q0 118 73 188t198 70z"/><glyph glyph-name="agrave" unicode="à" horiz-adv-x="600" d="M255 600L125 713l156 55 106-168H255zm56-53q111 0 172.5-51.5T546 352V0H377v62Q324-8 212-8 127-8 77 39T27 161q0 77 53.5 119.5T234 324h142v8q0 40-26.5 62.5T271 417q-73 0-161-45L61 486q131 61 250 61zm-46-438q41 0 72 20.5t39 53.5v48H267q-78 0-78-58 0-30 20-47t56-17z"/><glyph glyph-name="aacute" unicode="á" horiz-adv-x="600" d="M345 600H213l106 168 156-55zm-34-53q111 0 172.5-51.5T546 352V0H377v62Q324-8 212-8 127-8 77 39T27 161q0 77 53.5 119.5T234 324h142v8q0 40-26.5 62.5T271 417q-73 0-161-45L61 486q131 61 250 61zm-46-438q41 0 72 20.5t39 53.5v48H267q-78 0-78-58 0-30 20-47t56-17z"/><glyph glyph-name="acircumflex" unicode="â" horiz-adv-x="600" d="M241 610H117l113 151h138l113-151H357l-58 85zm70-63q111 0 172.5-51.5T546 352V0H377v62Q324-8 212-8 127-8 77 39T27 161q0 77 53.5 119.5T234 324h142v8q0 40-26.5 62.5T271 417q-73 0-161-45L61 486q131 61 250 61zm-46-438q41 0 72 20.5t39 53.5v48H267q-78 0-78-58 0-30 20-47t56-17z"/><glyph glyph-name="atilde" unicode="ã" horiz-adv-x="600" d="M257 664q-30 0-30-43H121q0 156 105 156 33 0 69-23.5t46-23.5q31 0 31 42h105q0-155-104-155-35 0-70 23.5T257 664zm54-117q111 0 172.5-51.5T546 352V0H377v62Q324-8 212-8 127-8 77 39T27 161q0 77 53.5 119.5T234 324h142v8q0 40-26.5 62.5T271 417q-73 0-161-45L61 486q131 61 250 61zm-46-438q41 0 72 20.5t39 53.5v48H267q-78 0-78-58 0-30 20-47t56-17z"/><glyph glyph-name="adieresis" unicode="ä" horiz-adv-x="600" d="M203 614q-34 0-56 21.5T125 691t22 56 56 22 56-22 22-56-22-55.5-56-21.5zm193 0q-34 0-56 21.5T318 691t22 56 56 22 56-22 22-56-22-55.5-56-21.5zm-85-67q111 0 172.5-51.5T546 352V0H377v62Q324-8 212-8 127-8 77 39T27 161q0 77 53.5 119.5T234 324h142v8q0 40-26.5 62.5T271 417q-73 0-161-45L61 486q131 61 250 61zm-46-438q41 0 72 20.5t39 53.5v48H267q-78 0-78-58 0-30 20-47t56-17z"/><glyph glyph-name="aring" unicode="å" horiz-adv-x="600" d="M299 574q-50 0-85.5 35T178 694t35.5 85 85.5 35 85.5-35 35.5-85-35.5-85-85.5-35zm0 172q-22 0-37.5-15.5T246 694q0-22 15.5-37t37.5-15 37.5 15 15.5 37q0 21-15.5 36.5T299 746zm12-199q111 0 172.5-51.5T546 352V0H377v62Q324-8 212-8 127-8 77 39T27 161q0 77 53.5 119.5T234 324h142v8q0 40-26.5 62.5T271 417q-73 0-161-45L61 486q131 61 250 61zm-46-438q41 0 72 20.5t39 53.5v48H267q-78 0-78-58 0-30 20-47t56-17z"/><glyph glyph-name="ae" unicode="æ" horiz-adv-x="966" d="M663 545q134 0 210-85.5T942 232H554q10-52 44-80.5t84-28.5q75 0 130 55l91-89Q816-6 667-6 512-6 444 107 379-8 223-8 132-8 79.5 37.5T27 159t54 116.5T235 317h144v15q0 40-27.5 62.5T273 417q-77 0-172-45L61 488q136 59 251 59 118 0 182-59 66 57 169 57zM552 315h217q0 50-29 82t-76 32q-44 0-74-31.5T552 315zM266 104q76 0 113 69v62H270q-38 0-59.5-16T189 173q0-32 21-50.5t56-18.5zm154 54v3l-5 1z"/><glyph glyph-name="ccedilla" unicode="ç" horiz-adv-x="562" d="M421 193l126-74Q489 16 357-2l-25-49q31-8 49.5-29.5T400-132q0-47-35-75t-90-28q-49 0-95 31l32 71q22-20 49-20 19 0 30.5 10.5T303-116t-12 26-34 10q-12 0-36-4l39 81Q152 10 88 83T24 268q0 124 77.5 200.5T304 545q80 0 142.5-31.5T544 424l-124-75q-40 56-109 56-50 0-81.5-37.5T198 269q0-62 31-99.5t82-37.5q76 0 110 61z"/><glyph glyph-name="egrave" unicode="è" horiz-adv-x="602" d="M257 600L127 713l156 55 106-168H257zm48-55q140 0 210.5-86T577 223H198q13-48 46-74t81-26q74 0 129 55l91-89Q458-6 310-6 179-6 101.5 69T24 268q0 125 77.5 201T305 545zM195 316h216q0 49-28.5 79T307 425q-44 0-74-29.5T195 316z"/><glyph glyph-name="eacute" unicode="é" horiz-adv-x="602" d="M346 600H214l106 168 156-55zm-41-55q140 0 210.5-86T577 223H198q13-48 46-74t81-26q74 0 129 55l91-89Q458-6 310-6 179-6 101.5 69T24 268q0 125 77.5 201T305 545zM195 316h216q0 49-28.5 79T307 425q-44 0-74-29.5T195 316z"/><glyph glyph-name="ecircumflex" unicode="ê" horiz-adv-x="602" d="M243 609H119l113 151h138l113-151H359l-58 85zm62-64q140 0 210.5-86T577 223H198q13-48 46-74t81-26q74 0 129 55l91-89Q458-6 310-6 179-6 101.5 69T24 268q0 125 77.5 201T305 545zM195 316h216q0 49-28.5 79T307 425q-44 0-74-29.5T195 316z"/><glyph glyph-name="edieresis" unicode="ë" horiz-adv-x="602" d="M205 614q-34 0-56 21.5T127 691t22 56 56 22 56-22 22-56-22-55.5-56-21.5zm193 0q-34 0-56 21.5T320 691t22 56 56 22 56-22 22-56-22-55.5-56-21.5zm-93-69q140 0 210.5-86T577 223H198q13-48 46-74t81-26q74 0 129 55l91-89Q458-6 310-6 179-6 101.5 69T24 268q0 125 77.5 201T305 545zM195 316h216q0 49-28.5 79T307 425q-44 0-74-29.5T195 316z"/><glyph glyph-name="igrave" unicode="ì" horiz-adv-x="311" d="M244 600H112L-18 713l156 55zM241 0H69v539h172V0z"/><glyph glyph-name="iacute" unicode="í" horiz-adv-x="311" d="M331 713L201 600H69l106 168zM241 0H69v539h172V0z"/><glyph glyph-name="icircumflex" unicode="î" horiz-adv-x="311" d="M338 610H214l-58 85-58-85H-26L87 761h138zM241 0H69v539h172V0z"/><glyph glyph-name="idieresis" unicode="ï" horiz-adv-x="311" d="M60 769q34 0 56-22t22-56-22-55.5T60 614 4 635.5-18 691t22 56 56 22zm193 0q34 0 56-22t22-56-22-55.5-56-21.5-56 21.5-22 55.5 22 56 56 22zM241 0H69v539h172V0z"/><glyph glyph-name="eth" unicode="ð" horiz-adv-x="604" d="M550 625l-98-33q128-139 128-308 0-133-81-212.5T283-8Q164-8 93 56T22 226q0 100 62 159.5T249 445q50 0 93.5-16t67.5-44q-27 80-107 157l-163-54-26 80 113 38q-60 43-125 73l116 70q92-37 162-92l143 48zM290 135q49 0 77.5 26.5T396 232t-28.5 71-77.5 27q-47 0-75-26t-28-70q0-45 28-72t75-27z"/><glyph glyph-name="ntilde" unicode="ñ" horiz-adv-x="673" d="M311 664q-30 0-30-43H175q0 156 105 156 33 0 69-23.5t46-23.5q31 0 31 42h105q0-155-104-155-35 0-70 23.5T311 664zm111-117q89 0 143-56.5T619 340V0H447v292q0 47-25.5 74.5T352 394q-46 0-75.5-30T242 285V0H69v539h173v-88q57 94 180 96z"/><glyph glyph-name="ograve" unicode="ò" horiz-adv-x="637" d="M407 600H275L145 713l156 55zm-88-55q132 0 213-75.5T613 270 532 70 319-6Q186-6 105 70T24 270t81 199.5T319 545zm0-137q-54 0-87.5-39T198 268q0-63 33.5-101.5T319 128q53 0 86.5 38.5T439 268q0 62-33.5 101T319 408z"/><glyph glyph-name="oacute" unicode="ó" horiz-adv-x="637" d="M494 713L364 600H232l106 168zM319 545q132 0 213-75.5T613 270 532 70 319-6Q186-6 105 70T24 270t81 199.5T319 545zm0-137q-54 0-87.5-39T198 268q0-63 33.5-101.5T319 128q53 0 86.5 38.5T439 268q0 62-33.5 101T319 408z"/><glyph glyph-name="ocircumflex" unicode="ô" horiz-adv-x="637" d="M501 609H377l-58 85-58-85H137l113 151h138zm-182-64q132 0 213-75.5T613 270 532 70 319-6Q186-6 105 70T24 270t81 199.5T319 545zm0-137q-54 0-87.5-39T198 268q0-63 33.5-101.5T319 128q53 0 86.5 38.5T439 268q0 62-33.5 101T319 408z"/><glyph glyph-name="otilde" unicode="õ" horiz-adv-x="637" d="M245 777q33 0 69-23.5t46-23.5q31 0 31 42h105q0-155-104-155-34 0-70 23.5T276 664q-30 0-30-43H140q0 156 105 156zm74-232q132 0 213-75.5T613 270 532 70 319-6Q186-6 105 70T24 270t81 199.5T319 545zm0-137q-54 0-87.5-39T198 268q0-63 33.5-101.5T319 128q53 0 86.5 38.5T439 268q0 62-33.5 101T319 408z"/><glyph glyph-name="odieresis" unicode="ö" horiz-adv-x="637" d="M223 769q34 0 56-22t22-56-22-55.5-56-21.5-56 21.5-22 55.5 22 56 56 22zm193 0q34 0 56-22t22-56-22-55.5-56-21.5-56 21.5-22 55.5 22 56 56 22zm-97-224q132 0 213-75.5T613 270 532 70 319-6Q186-6 105 70T24 270t81 199.5T319 545zm0-137q-54 0-87.5-39T198 268q0-63 33.5-101.5T319 128q53 0 86.5 38.5T439 268q0 62-33.5 101T319 408z"/><glyph glyph-name="divide" unicode="÷" horiz-adv-x="510" d="M247 584q35 0 56.5-22t21.5-56-22-55.5-56-21.5-56 21.5-22 55.5 22 56 56 22zm230-312H33v109h444V272zm-230-45q34 0 56-22t22-56-22-56-56-22-56 22-22 56 22 56 56 22z"/><glyph glyph-name="oslash" unicode="ø" horiz-adv-x="637" d="M485 671l-47-145q82-29 128.5-96T613 270q0-124-81-200T319-6q-27 0-53 3l-45-139h-71l50 155q-82 29-129 96.5T24 270q0 124 81 199.5T319 545q27 0 53-3l42 129h71zM187 268q0-88 54-129l92 282-14 1q-59 0-95.5-42.5T187 268zm117-153l15-1q59 0 95 42t36 112q0 85-54 129z"/><glyph glyph-name="ugrave" unicode="ù" horiz-adv-x="663" d="M283 600L153 713l156 55 106-168H283zm311-61V0H421v89Q366-7 246-7q-88 0-140.5 56T53 199v340h173V248q0-48 24.5-75.5T316 145q49 1 77 36.5t28 91.5v266h173z"/><glyph glyph-name="uacute" unicode="ú" horiz-adv-x="663" d="M372 600H240l106 168 156-55zm222-61V0H421v89Q366-7 246-7q-88 0-140.5 56T53 199v340h173V248q0-48 24.5-75.5T316 145q49 1 77 36.5t28 91.5v266h173z"/><glyph glyph-name="ucircumflex" unicode="û" horiz-adv-x="663" d="M269 610H145l113 151h138l113-151H385l-58 85zm325-71V0H421v89Q366-7 246-7q-88 0-140.5 56T53 199v340h173V248q0-48 24.5-75.5T316 145q49 1 77 36.5t28 91.5v266h173z"/><glyph glyph-name="udieresis" unicode="ü" horiz-adv-x="663" d="M231 614q-34 0-56 21.5T153 691t22 56 56 22 56-22 22-56-22-55.5-56-21.5zm193 0q-34 0-56 21.5T346 691t22 56 56 22 56-22 22-56-22-55.5-56-21.5zm170-75V0H421v89Q366-7 246-7q-88 0-140.5 56T53 199v340h173V248q0-48 24.5-75.5T316 145q49 1 77 36.5t28 91.5v266h173z"/><glyph glyph-name="yacute" unicode="ý" horiz-adv-x="580" d="M466 713L336 600H204l106 168zm121-174L354-56q-60-146-208-146-86 0-157 55L61-29q36-29 71-29 46 0 67 43l13 27-224 527h178l132-358 117 358h172z"/><glyph glyph-name="thorn" unicode="þ" horiz-adv-x="685" d="M408 545q114 0 183.5-76.5T661 267q0-123-68-198T412-6Q306-6 247 72v-266H74v936h173V468q60 77 161 77zm-42-414q54 0 87.5 39.5T487 272t-33.5 101-87.5 39q-52 0-85.5-39T247 272q0-63 33-102t86-39z"/><glyph glyph-name="ydieresis" unicode="ÿ" horiz-adv-x="580" d="M195 769q34 0 56-22t22-56-22-55.5-56-21.5-56 21.5-22 55.5 22 56 56 22zm193 0q34 0 56-22t22-56-22-55.5-56-21.5-56 21.5-22 55.5 22 56 56 22zm199-230L354-56q-60-146-208-146-86 0-157 55L61-29q36-29 71-29 46 0 67 43l13 27-224 527h178l132-358 117 358h172z"/><glyph glyph-name="Amacron" unicode="Ā" horiz-adv-x="770" d="M524 793H246v116h278V793zm11-664H229L178 0H-5l302 700h183L775 0H585zm-52 135L383 523 281 264h202z"/><glyph glyph-name="amacron" unicode="ā" horiz-adv-x="600" d="M438 632H160v116h278V632zm-127-85q111 0 172.5-51.5T546 352V0H377v62Q324-8 212-8 127-8 77 39T27 161q0 77 53.5 119.5T234 324h142v8q0 40-26.5 62.5T271 417q-73 0-161-45L61 486q131 61 250 61zm-46-438q41 0 72 20.5t39 53.5v48H267q-78 0-78-58 0-30 20-47t56-17z"/><glyph glyph-name="Abreve" unicode="Ă" horiz-adv-x="770" d="M385 762q-71 0-115.5 43T221 920h108q2-26 17.5-42t38.5-16 38.5 16 17.5 42h108q-4-72-48.5-115T385 762zm150-633H229L178 0H-5l302 700h183L775 0H585zm-52 135L383 523 281 264h202z"/><glyph glyph-name="abreve" unicode="ă" horiz-adv-x="600" d="M299 601q-71 0-115.5 43T135 759h108q2-26 17.5-42t38.5-16 38.5 16 17.5 42h108q-4-72-48.5-115T299 601zm12-54q111 0 172.5-51.5T546 352V0H377v62Q324-8 212-8 127-8 77 39T27 161q0 77 53.5 119.5T234 324h142v8q0 40-26.5 62.5T271 417q-73 0-161-45L61 486q131 61 250 61zm-46-438q41 0 72 20.5t39 53.5v48H267q-78 0-78-58 0-30 20-47t56-17z"/><glyph glyph-name="Aogonek" unicode="Ą" horiz-adv-x="770" d="M775 0h-51q-43-63-43-92 0-24 21-24 22 0 43 31l44-51q-39-67-108-67-35 0-61.5 20T593-120q0 48 48 120h-55l-51 129H230L178 0H-5l302 701h183zM281 264h204L384 523z"/><glyph glyph-name="aogonek" unicode="ą" horiz-adv-x="605" d="M313 547q111 0 173-51.5T549 352V0h-41q-44-64-44-92 0-24 22-24t43 31l44-51q-39-67-108-67-35 0-61.5 20T377-120q0 52 48 120h-46v62Q326-8 213-8 127-8 77 39T27 161q0 77 54 119.5T235 324h144v9q-3 84-107 84-72 0-162-45L61 486q131 61 252 61zm66-316H268q-79 0-79-58 0-29 20.5-46.5T266 109q40 0 72.5 21t40.5 51v50z"/><glyph glyph-name="Cacute" unicode="Ć" horiz-adv-x="692" d="M559 874L429 761H297l106 168zM398 706q78 0 153.5-32T680 588L577 466q-34 42-81.5 66.5T401 557q-83 0-139-58.5T206 354q0-88 56-147t139-59q44 0 91.5 22t84.5 60l104-110q-57-58-134.5-93T392-8Q234-8 129 95T24 352q0 151 107 252.5T398 706z"/><glyph glyph-name="cacute" unicode="ć" horiz-adv-x="562" d="M468 713L338 600H206l106 168zM304 545q80 0 142.5-31.5T544 424l-124-75q-40 56-109 56-50 0-81.5-37.5T198 269q0-62 31-99.5t82-37.5q76 0 110 61l126-74q-33-60-96.5-92.5T302-6Q177-6 100.5 69.5T24 268q0 124 77.5 200.5T304 545z"/><glyph glyph-name="Ccaron" unicode="Č" horiz-adv-x="692" d="M183 922h135l61-92 61 92h135L454 758H304zm215-216q78 0 153.5-32T680 588L577 466q-34 42-81.5 66.5T401 557q-83 0-139-58.5T206 354q0-88 56-147t139-59q44 0 91.5 22t84.5 60l104-110q-57-58-134.5-93T392-8Q234-8 129 95T24 352q0 151 107 252.5T398 706z"/><glyph glyph-name="ccaron" unicode="č" horiz-adv-x="562" d="M93 760h135l61-92 61 92h135L364 596H214zm211-215q80 0 142.5-31.5T544 424l-124-75q-40 56-109 56-50 0-81.5-37.5T198 269q0-62 31-99.5t82-37.5q76 0 110 61l126-74q-33-60-96.5-92.5T302-6Q177-6 100.5 69.5T24 268q0 124 77.5 200.5T304 545z"/><glyph glyph-name="Dcaron" unicode="Ď" horiz-adv-x="767" d="M158 922h135l61-92 61 92h135L429 758H279zM70 700h301q165 0 268.5-97T743 350q0-155-105-252.5T364 0H70v700zm178-142V142h127q82 0 134.5 57.5T562 349t-55 150.5T367 558H248z"/><glyph glyph-name="dcaron" unicode="ď" horiz-adv-x="786" d="M439 742h173V0H439v71Q380-7 277-7 163-7 94 70T25 272q0 124 68 199t180 75q107 0 166-78v274zm306-65q35 0 58.5-22t23.5-60q0-32-22-66l-73-106h-82l45 107q-33 22-33 65 0 36 23.5 59t59.5 23zM319 127q54 0 87 39t33 102q0 62-33 101t-87 39-87-38.5T198 268q1-63 34-102t87-39z"/><glyph glyph-name="Dcroat" unicode="Đ" horiz-adv-x="767" d="M497 793H219v116h278V793zM70 700h301q165 0 268.5-97T743 350q0-155-105-252.5T364 0H70v700zm178-142V142h127q82 0 134.5 57.5T562 349t-55 150.5T367 558H248z"/><glyph glyph-name="dcroat" unicode="đ" horiz-adv-x="686" d="M677 595h-65V0H439v71Q380-7 277-7 163-7 94 70T25 272q0 124 68 199t180 75q107 0 166-78v127h-85v89h85v58h173v-58h65v-89zM319 127q54 0 87 39t33 102q0 62-33 101t-87 39-87-38.5T198 268q1-63 34-102t87-39z"/><glyph glyph-name="Emacron" unicode="Ē" horiz-adv-x="674" d="M485 793H207v116h278V793zm133-233H248V421h334V281H248V140h381V0H70v700h548V560z"/><glyph glyph-name="emacron" unicode="ē" horiz-adv-x="602" d="M440 632H162v116h278V632zm-135-87q140 0 210.5-86T577 223H198q13-48 46-74t81-26q74 0 129 55l91-89Q458-6 310-6 179-6 101.5 69T24 268q0 125 77.5 201T305 545zM195 316h216q0 49-28.5 79T307 425q-44 0-74-29.5T195 316z"/><glyph glyph-name="Edotaccent" unicode="Ė" horiz-adv-x="674" d="M346 946q40 0 65.5-25.5T437 855t-25.5-66-65.5-26-65.5 26-25.5 66 25.5 65.5T346 946zm272-386H248V421h334V281H248V140h381V0H70v700h548V560z"/><glyph glyph-name="edotaccent" unicode="ė" horiz-adv-x="602" d="M301 602q-40 0-65.5 26T210 694t25.5 65.5T301 785t65.5-25.5T392 694t-25.5-66-65.5-26zm4-57q140 0 210.5-86T577 223H198q13-48 46-74t81-26q74 0 129 55l91-89Q458-6 310-6 179-6 101.5 69T24 268q0 125 77.5 201T305 545zM195 316h216q0 49-28.5 79T307 425q-44 0-74-29.5T195 316z"/><glyph glyph-name="Eogonek" unicode="Ę" horiz-adv-x="678" d="M623 564H248V421h339V285H248V136h385V0h-71q-43-62-43-92 0-24 21-24 22 0 43 31l45-51q-41-67-109-67-35 0-61 20t-26 63q0 50 47 120H70v700h553V564z"/><glyph glyph-name="eogonek" unicode="ę" horiz-adv-x="602" d="M306 545q137 1 209-85.5T577 223H199q13-48 45.5-74.5T325 122q73 0 129 56l91-89Q436-36 436-91q0-25 21-25t42 31l44-51q-39-67-107-67-35 0-61.5 20.5T348-119q0 59 56 136-45-23-96-23-129 0-206 75T25 269q0 123 75.5 199T306 545zm2-120q-45 0-75.5-30T195 316h216q0 48-28.5 78.5T308 425z"/><glyph glyph-name="Ecaron" unicode="Ě" horiz-adv-x="674" d="M146 922h135l61-92 61 92h135L417 758H267zm472-362H248V421h334V281H248V140h381V0H70v700h548V560z"/><glyph glyph-name="ecaron" unicode="ě" horiz-adv-x="602" d="M221 596L100 760h135l61-92 61 92h135L371 596H221zm84-51q140 0 210.5-86T577 223H198q13-48 46-74t81-26q74 0 129 55l91-89Q458-6 310-6 179-6 101.5 69T24 268q0 125 77.5 201T305 545zM195 316h216q0 49-28.5 79T307 425q-44 0-74-29.5T195 316z"/><glyph glyph-name="Gbreve" unicode="Ğ" horiz-adv-x="743" d="M392 762q-71 0-115.5 43T228 920h108q2-26 17.5-42t38.5-16 38.5 16 17.5 42h108q-4-72-48.5-115T392 762zm143-406h154V83q-57-40-137.5-65.5T398-8Q238-8 131 94.5T24 350q0 152 110 254t276 102q78 0 155-28t131-76L596 481q-38 35-88 55.5T409 557q-86 0-144.5-59.5T206 350q0-89 59-149t146-60q56 0 124 34v181z"/><glyph glyph-name="gbreve" unicode="ğ" horiz-adv-x="647" d="M324 601q-71 0-115.5 43T160 759h108q2-26 17.5-42t38.5-16 38.5 16 17.5 42h108q-4-72-48.5-115T324 601zm260-62V49q0-114-80.5-182T292-201q-134 0-240 71l60 117q78-54 167-54 62 0 97.5 30T412 44v57q-55-72-155-72-103 0-167.5 72T25 290q0 114 63 184.5T253 545q103 1 159-72v66h172zM300 154q50 0 81 36.5t31 94.5q0 59-31 95.5T300 417q-51 0-82.5-36.5T186 285q0-58 31.5-94.5T300 154z"/><glyph glyph-name="Gcommaaccent" unicode="Ģ" horiz-adv-x="743" d="M535 356h154V83q-57-40-137.5-65.5T398-8Q238-8 131 94.5T24 350q0 152 110 254t276 102q78 0 155-28t131-76L596 481q-38 35-88 55.5T409 557q-86 0-144.5-59.5T206 350q0-89 59-149t146-60q56 0 124 34v181zM398-41q35 0 58.5-22t23.5-60q0-34-22-66l-73-106h-82l45 106q-33 23-33 65 0 37 23.5 60T398-41z"/><glyph glyph-name="gcommaaccent" unicode="ģ" horiz-adv-x="647" d="M317 580q-35 0-58.5 22T235 662q0 34 22 66l73 106h82l-45-106q33-23 33-65 0-37-23.5-60T317 580zm267-41V49q0-114-80.5-182T292-201q-134 0-240 71l60 117q78-54 167-54 62 0 97.5 30T412 44v57q-55-72-155-72-103 0-167.5 72T25 290q0 114 63 184.5T253 545q103 1 159-72v66h172zM300 154q50 0 81 36.5t31 94.5q0 59-31 95.5T300 417q-51 0-82.5-36.5T186 285q0-58 31.5-94.5T300 154z"/><glyph glyph-name="hbar" unicode="ħ" horiz-adv-x="743" d="M428 547q89 0 143-56.5T625 340V0H452v292q0 47-25.5 74.5T357 394q-50 0-80-36t-30-92V0H74v576H-5v94h79v72h173v-72h118v-94H247V450q57 95 181 97z"/><glyph glyph-name="Itilde" unicode="Ĩ" horiz-adv-x="318" d="M86 938q33 0 69-23.5t46-23.5q31 0 31 42h105q0-155-104-155-35 0-70 23.5T117 825q-30 0-30-43H-19q0 156 105 156zM248 0H70v700h178V0z"/><glyph glyph-name="itilde" unicode="ĩ" horiz-adv-x="311" d="M82 777q33 0 69-23.5t46-23.5q31 0 31 42h105q0-155-104-155-34 0-69.5 23.5T113 664q-30 0-30-43H-23q0 156 105 156zM241 0H69v539h172V0z"/><glyph glyph-name="Imacron" unicode="Ī" horiz-adv-x="318" d="M298 793H20v116h278V793zM248 0H70v700h178V0z"/><glyph glyph-name="imacron" unicode="ī" horiz-adv-x="311" d="M294 632H16v116h278V632zM241 0H69v539h172V0z"/><glyph glyph-name="Iogonek" unicode="Į" horiz-adv-x="318" d="M231-85l44-51q-39-67-108-67-35 0-61.5 20T79-120q0 50 47 120H70v701h178V0h-38q-44-64-44-92 0-24 21-24 23 0 44 31z"/><glyph glyph-name="iogonek" unicode="į" horiz-adv-x="290" d="M146 785q40 0 66-25.5t26-66.5q0-40-26-65.5T146 602t-66 25.5T54 693t26 66 66 26zM232 0h-40q-44-64-44-92 0-24 22-24t43 31l44-51q-39-67-108-67-36 0-62 20t-26 63q0 50 47 120H60v539h172V0z"/><glyph glyph-name="Idotaccent" unicode="İ" horiz-adv-x="318" d="M159 946q40 0 65.5-25.5T250 855t-25.5-66-65.5-26-65.5 26T68 855t25.5 65.5T159 946zM248 0H70v700h178V0z"/><glyph glyph-name="dotlessi" unicode="ı" horiz-adv-x="311" d="M241 0H69v539h172V0z"/><glyph glyph-name="IJ" unicode="Ĳ" horiz-adv-x="853" d="M796 701V227q0-111-64.5-173T554-8Q411-8 313 104l82 119q75-78 147-78 75 0 75 86v326H377v144h419zM248 0H70v700h178V0z"/><glyph glyph-name="ij" unicode="ĳ" horiz-adv-x="630" d="M156 785q40 0 65.5-25.5T247 694t-25.5-66-65.5-26-65.5 26T65 694t25.5 65.5T156 785zm312 0q43 0 70.5-25.5T566 693q0-40-27.5-65.5T468 602t-70.5 25.5T370 693t27.5 66 70.5 26zM241 0H69v539h172V0zm314 539V-16q0-88-55-137t-141-48q-79 0-135 35l44 121q32-19 61-19 25-1 39 14t14 45v544h173z"/><glyph glyph-name="Jcircumflex" unicode="Ĵ" horiz-adv-x="536" d="M448 771H324l-58 85-58-85H84l113 151h138zm30-70V227q0-111-64.5-173T236-8Q93-8-5 104l82 119q75-78 147-78 75 0 75 86v326H59v144h419z"/><glyph glyph-name="jcircumflex" unicode="ĵ" horiz-adv-x="308" d="M333 610H209l-58 85-58-85H-31L82 761h138zm-89-71V-20q0-85-51.5-133.5T53-201q-82 2-143 35l40 119q33-19 64-19 28-1 42.5 17T71 5v534h173z"/><glyph glyph-name="Kcommaaccent" unicode="Ķ" horiz-adv-x="747" d="M739 0H526L341 275l-93-103V0H70v700h178V397l268 303h206L462 410zM370-41q35 0 58.5-22t23.5-60q0-34-22-66l-73-106h-82l45 106q-33 23-33 65 0 37 23.5 60T370-41z"/><glyph glyph-name="kcedilla" unicode="ķ" horiz-adv-x="630" d="M305 208l-58-61V0h-46l-26-49q30-8 49-29.5t19-49.5q0-48-34-77t-92-29q-49 0-93 31l31 71q21-19 47-19 20 0 32.5 11t11.5 29q0 17-12.5 27.5T101-73q-19 0-35-3l38 76H74v742h173V350l178 189h196L423 332 627 0H422z"/><glyph glyph-name="kgreenlandic" unicode="ĸ" horiz-adv-x="624" d="M299 208l-58-61V0H69v539h172V350l178 189h196L417 332 621 0H416z"/><glyph glyph-name="Lacute" unicode="Ĺ" horiz-adv-x="560" d="M331 874L201 761H69l106 168zm-83-725h297V0H70v700h178V149z"/><glyph glyph-name="lacute" unicode="ĺ" horiz-adv-x="321" d="M336 916L206 803H74l106 168zM247 0H74v742h173V0z"/><glyph glyph-name="Lcommaaccent" unicode="Ļ" horiz-adv-x="560" d="M545 149V0H70v700h178V149h297zM297-41q35 0 58.5-22t23.5-60q0-34-22-66l-73-106h-82l45 106q-33 23-33 65 0 37 23.5 60T297-41z"/><glyph glyph-name="lcommaaccent" unicode="ļ" horiz-adv-x="321" d="M247 0H74v742h173V0zm-79-41q35 0 58.5-22t23.5-60q0-34-22-66l-73-106H73l45 106q-33 23-33 65 0 37 23.5 60T168-41z"/><glyph glyph-name="Lcaron" unicode="Ľ" horiz-adv-x="560" d="M545 149V0H70v700h178V149h297zM356 415l45 107q-33 22-33 65 0 36 23.5 59t59.5 23q35 0 58.5-22t23.5-60q0-32-22-66l-73-106h-82z"/><glyph glyph-name="lcaron" unicode="ľ" horiz-adv-x="406" d="M74 742h173V0H74v742zm291-65q35 0 58.5-22t23.5-60q0-32-22-66l-73-106h-82l45 107q-33 22-33 65 0 36 23.5 59t59.5 23z"/><glyph glyph-name="Ldot" unicode="Ŀ" horiz-adv-x="560" d="M248 149h297V0H70v700h178V149zm165 413q36 0 59.5-23t23.5-59-23.5-59-59.5-23q-35 0-58 23t-23 59 23 59 58 23z"/><glyph glyph-name="ldot" unicode="ŀ" horiz-adv-x="393" d="M247 0H74v742h173V0zm100 395q36 0 59-23t23-60-23-60-59-23q-37 0-60 23t-23 60 23 60 60 23z"/><glyph glyph-name="Lslash" unicode="Ł" horiz-adv-x="580" d="M564 149V0H89v333l-73-21-29 104 102 30v254h178V497l144 42 29-105-173-50V149h297z"/><glyph glyph-name="lslash" unicode="ł" horiz-adv-x="343" d="M268 402V0H95v352l-99-28-30 104 129 37v277h173V515l82 24 29-105z"/><glyph glyph-name="Nacute" unicode="Ń" horiz-adv-x="786" d="M569 874L439 761H307l106 168zM716 0H559L237 431V0H70v700h157l323-432v432h166V0z"/><glyph glyph-name="nacute" unicode="ń" horiz-adv-x="673" d="M399 600H267l106 168 156-55zm23-53q89 0 143-56.5T619 340V0H447v292q0 47-25.5 74.5T352 394q-46 0-75.5-30T242 285V0H69v539h173v-88q57 94 180 96z"/><glyph glyph-name="Ncommaaccent" unicode="Ņ" horiz-adv-x="786" d="M716 700V0H559L237 431V0H70v700h157l323-432v432h166zM400-41q35 0 58.5-22t23.5-60q0-34-22-66l-73-106h-82l45 106q-33 23-33 65 0 37 23.5 60T400-41z"/><glyph glyph-name="ncommaaccent" unicode="ņ" horiz-adv-x="673" d="M422 547q89 0 143-56.5T619 340V0H447v292q0 47-25.5 74.5T352 394q-46 0-75.5-30T242 285V0H69v539h173v-88q57 94 180 96zM348-41q35 0 58.5-22t23.5-60q0-34-22-66l-73-106h-82l45 106q-33 23-33 65 0 37 23.5 60T348-41z"/><glyph glyph-name="Ncaron" unicode="Ň" horiz-adv-x="786" d="M193 922h135l61-92 61 92h135L464 758H314zM716 0H559L237 431V0H70v700h157l323-432v432h166V0z"/><glyph glyph-name="ncaron" unicode="ň" horiz-adv-x="673" d="M274 597L153 761h135l61-92 61 92h135L424 597H274zm148-50q89 0 143-56.5T619 340V0H447v292q0 47-25.5 74.5T352 394q-46 0-75.5-30T242 285V0H69v539h173v-88q57 94 180 96z"/><glyph glyph-name="Omacron" unicode="Ō" horiz-adv-x="805" d="M534 793H256v116h278V793zm-132-87q163 0 271-101.5T781 351q0-153-108.5-256T402-8 132 94.5 24 351q0 153 108 254t270 101zm2-149q-82 0-140-59.5T206 350t58.5-148.5T404 141t137.5 60.5T598 350t-56.5 147.5T404 557z"/><glyph glyph-name="omacron" unicode="ō" horiz-adv-x="637" d="M457 632H179v116h278V632zm-138-87q132 0 213-75.5T613 270 532 70 319-6Q186-6 105 70T24 270t81 199.5T319 545zm0-137q-54 0-87.5-39T198 268q0-63 33.5-101.5T319 128q53 0 86.5 38.5T439 268q0 62-33.5 101T319 408z"/><glyph glyph-name="Ohungarumlaut" unicode="Ő" horiz-adv-x="805" d="M437 883l-90-123H221l85 171zm194 0l-90-123H415l85 171zM402 706q163 0 271-101.5T781 351q0-153-108.5-256T402-8 132 94.5 24 351q0 153 108 254t270 101zm2-149q-82 0-140-59.5T206 350t58.5-148.5T404 141t137.5 60.5T598 350t-56.5 147.5T404 557z"/><glyph glyph-name="ohungarumlaut" unicode="ő" horiz-adv-x="637" d="M361 721l-90-123H145l85 171zm194 0l-90-123H339l85 171zM319 545q132 0 213-75.5T613 270 532 70 319-6Q186-6 105 70T24 270t81 199.5T319 545zm0-137q-54 0-87.5-39T198 268q0-63 33.5-101.5T319 128q53 0 86.5 38.5T439 268q0 62-33.5 101T319 408z"/><glyph glyph-name="OE" unicode="Œ" horiz-adv-x="1113" d="M1068 140V0H401Q240 0 132 99.5T24 349t107.5 251T401 701h657V560H687V421h334V282H687V140h381zm-559 4v410H402q-84 0-140-59t-56-147 56-146.5T402 143z"/><glyph glyph-name="oe" unicode="œ" horiz-adv-x="1019" d="M715 545q134 0 210-85.5T994 232H603q11-52 45.5-80.5T734 123q74 0 131 55l91-89Q867-6 719-6 587-6 521 84 452-6 319-6T105 70 24 270t81 199.5T319 545q134 0 203-91 64 91 193 91zM602 315h220q0 50-29.5 82T716 429q-45 0-75.5-31.5T602 315zM319 128q53 0 86.5 38.5T439 268q0 62-33.5 101T319 408q-54 0-87.5-39T198 268q0-63 33.5-101.5T319 128z"/><glyph glyph-name="Racute" unicode="Ŕ" horiz-adv-x="724" d="M409 761H277l106 168 156-55zM492 0L388 197H248V0H70v700h313q139 0 215-63.5T674 456q0-162-127-225L694 0H492zM248 337h135q58 0 90 29t32 84q0 54-32 82t-90 28H248V337z"/><glyph glyph-name="racute" unicode="ŕ" horiz-adv-x="427" d="M270 600H138l106 168 156-55zm-28-61v-91q57 97 175 99V391q-74 7-121-24.5T242 277V0H69v539h173z"/><glyph glyph-name="Rcommaaccent" unicode="Ŗ" horiz-adv-x="724" d="M694 0H492L388 197H248V0H70v700h313q139 0 215-63.5T674 456q0-162-127-225zM248 337h135q58 0 90 29t32 84q0 54-32 82t-90 28H248V337zM366-41q35 0 58.5-22t23.5-60q0-34-22-66l-73-106h-82l45 106q-33 23-33 65 0 37 23.5 60T366-41z"/><glyph glyph-name="rcommaaccent" unicode="ŗ" horiz-adv-x="427" d="M242 539v-91q57 97 175 99V391q-74 7-121-24.5T242 277V0H69v539h173zM157-41q35 0 58.5-22t23.5-60q0-34-22-66l-73-106H62l45 106q-33 23-33 65 0 37 23.5 60T157-41z"/><glyph glyph-name="Rcaron" unicode="Ř" horiz-adv-x="724" d="M284 758L163 922h135l61-92 61 92h135L434 758H284zM492 0L388 197H248V0H70v700h313q139 0 215-63.5T674 456q0-162-127-225L694 0H492zM248 337h135q58 0 90 29t32 84q0 54-32 82t-90 28H248V337z"/><glyph glyph-name="rcaron" unicode="ř" horiz-adv-x="427" d="M145 597L24 761h135l61-92 61 92h135L295 597H145zm97-58v-91q57 97 175 99V391q-74 7-121-24.5T242 277V0H69v539h173z"/><glyph glyph-name="Sacute" unicode="Ś" horiz-adv-x="644" d="M515 874L385 761H253l106 168zM339 708q157 0 276-78l-67-139q-55 32-118 52.5T324 564q-77 0-77-51 0-33 38-53t92.5-34.5 109-35T579 324t38-116q0-101-79-157.5T337-6q-87 0-172 30T17 106l69 137q53-46 125-75.5T339 138q43 0 67 15.5t24 45.5q0 29-27.5 48.5t-68.5 29-89 25.5-89 35-68.5 60.5T60 497q0 96 76.5 153.5T339 708z"/><glyph glyph-name="sacute" unicode="ś" horiz-adv-x="513" d="M441 713L311 600H179l106 168zM262 547q119 0 222-61l-59-112q-100 54-170 54-53 0-53-37 0-20 29-33.5t71-24.5 83.5-27.5T456 253t29-88q0-81-63-126.5T258-7Q115-7 16 69l55 110q95-67 191-67 59 0 59 37 0 21-28.5 35T223 209t-82 27.5T71.5 288 43 376q0 81 61 126t158 45z"/><glyph glyph-name="Scedilla" unicode="Ş" horiz-adv-x="644" d="M617 208q0-88-60.5-142.5T398-2l-25-49q31-8 49.5-29.5T441-132q0-47-35-75t-90-28q-49 0-95 31l32 71q22-20 49-20 19 0 30.5 10.5T344-116t-12 26-34 10q-12 0-36-4l38 79q-79 7-153 36T17 106l69 137q53-46 125-75.5T339 138q43 0 67 15.5t24 45.5q0 29-27.5 48.5t-68.5 29-89 25.5-89 35-68.5 60.5T60 497q0 96 76.5 153.5T339 708q157 0 276-78l-67-139q-55 32-118 52.5T324 564q-77 0-77-51 0-33 38-53t92.5-34.5 109-35T579 324t38-116z"/><glyph glyph-name="scedilla" unicode="ş" horiz-adv-x="513" d="M202 391q0-20 29-33.5t71-24.5 83.5-27.5T456 253t29-88q0-67-44-110T322-2l-25-49q31-8 49.5-29.5T365-132q0-47-35-75t-90-28q-49 0-95 31l32 71q22-20 49-20 19 0 30.5 10.5T268-116t-12 26-34 10q-12 0-36-4l38 78Q101 3 16 69l55 110q95-67 191-67 59 0 59 37 0 21-28.5 35T223 209t-82 27.5T71.5 288 43 376q0 81 61 126t158 45q119 0 222-61l-59-112q-100 54-170 54-53 0-53-37z"/><glyph glyph-name="Scaron" unicode="Š" horiz-adv-x="644" d="M139 922h135l61-92 61 92h135L410 758H260zm200-214q157 0 276-78l-67-139q-55 32-118 52.5T324 564q-77 0-77-51 0-33 38-53t92.5-34.5 109-35T579 324t38-116q0-101-79-157.5T337-6q-87 0-172 30T17 106l69 137q53-46 125-75.5T339 138q43 0 67 15.5t24 45.5q0 29-27.5 48.5t-68.5 29-89 25.5-89 35-68.5 60.5T60 497q0 96 76.5 153.5T339 708z"/><glyph glyph-name="scaron" unicode="š" horiz-adv-x="513" d="M66 761h135l61-92 61 92h135L337 597H187zm196-214q119 0 222-61l-59-112q-100 54-170 54-53 0-53-37 0-20 29-33.5t71-24.5 83.5-27.5T456 253t29-88q0-81-63-126.5T258-7Q115-7 16 69l55 110q95-67 191-67 59 0 59 37 0 21-28.5 35T223 209t-82 27.5T71.5 288 43 376q0 81 61 126t158 45z"/><glyph glyph-name="Tcedilla" unicode="Ţ" horiz-adv-x="611" d="M361 0l-26-51q31-8 49.5-29.5T403-132q0-47-35-75t-90-28q-49 0-95 31l32 71q22-20 49-20 19 0 30.5 10.5T306-116t-12 26-34 10q-12 0-36-4l40 84h-48v557H7v144h598V557H394V0h-33z"/><glyph glyph-name="tcedilla" unicode="ţ" horiz-adv-x="435" d="M325-3l-24-48q31-8 49.5-29.5T369-132q0-47-35-75t-90-28q-49 0-95 31l32 71q22-20 49-20 19 0 30.5 10.5T272-116t-12 26-34 10q-12 0-36-4l38 80q-62 12-98 55T94 163v238H19v113h75v150h172V515h141V401H266V190q0-31 12.5-45.5T316 131q24 0 67 18l34-120Q374 4 325-3z"/><glyph glyph-name="Tcaron" unicode="Ť" horiz-adv-x="611" d="M117 922h135l61-92 61 92h135L388 758H238zm488-365H394V0H216v557H7v144h598V557z"/><glyph glyph-name="tcaron" unicode="ť" horiz-adv-x="428" d="M402 833q35 0 58.5-22t23.5-60q0-32-22-66l-73-106h-82l45 107q-33 22-33 65 0 36 23.5 59t59.5 23zm-86-702q24 0 67 18l34-120Q354-8 273-8q-80 0-129.5 44.5T94 163v238H19v113h75v150h172V515h141V401H266V190q0-31 12.5-45.5T316 131z"/><glyph glyph-name="Umacron" unicode="Ū" horiz-adv-x="758" d="M518 793H240v116h278V793zm182-93V294q0-139-86-220.5T381-8Q233-8 145.5 73.5T58 294v406h178V294q0-70 40.5-111.5T382 141q64 0 102.5 41T523 294v406h177z"/><glyph glyph-name="umacron" unicode="ū" horiz-adv-x="663" d="M466 632H188v116h278V632zm128-93V0H421v89Q366-7 246-7q-88 0-140.5 56T53 199v340h173V248q0-48 24.5-75.5T316 145q49 1 77 36.5t28 91.5v266h173z"/><glyph glyph-name="Uring" unicode="Ů" horiz-adv-x="758" d="M379 975q50 0 85.5-35t35.5-85-35.5-85-85.5-35-85.5 35-35.5 85 35.5 85 85.5 35zm0-68q-22 0-37.5-15.5T326 855q0-22 15.5-37t37.5-15 37.5 15 15.5 37q0 21-15.5 36.5T379 907zm321-207V294q0-139-86-220.5T381-8Q233-8 145.5 73.5T58 294v406h178V294q0-70 40.5-111.5T382 141q64 0 102.5 41T523 294v406h177z"/><glyph glyph-name="uring" unicode="ů" horiz-adv-x="663" d="M327 574q-50 0-85.5 35T206 694t35.5 85 85.5 35 85.5-35 35.5-85-35.5-85-85.5-35zm0 172q-22 0-37.5-15.5T274 694q0-22 15.5-37t37.5-15 37.5 15 15.5 37q0 21-15.5 36.5T327 746zm267-207V0H421v89Q366-7 246-7q-88 0-140.5 56T53 199v340h173V248q0-48 24.5-75.5T316 145q49 1 77 36.5t28 91.5v266h173z"/><glyph glyph-name="Uhungarumlaut" unicode="Ű" horiz-adv-x="758" d="M422 883l-90-123H206l85 171zm194 0l-90-123H400l85 171zm84-183V294q0-139-86-220.5T381-8Q233-8 145.5 73.5T58 294v406h178V294q0-70 40.5-111.5T382 141q64 0 102.5 41T523 294v406h177z"/><glyph glyph-name="uhungarumlaut" unicode="ű" horiz-adv-x="663" d="M279 599H153l85 171 131-48zm68 0l85 171 131-48-90-123H347zm247-60V0H421v89Q366-7 246-7q-88 0-140.5 56T53 199v340h173V248q0-48 24.5-75.5T316 145q49 1 77 36.5t28 91.5v266h173z"/><glyph glyph-name="Uogonek" unicode="Ų" horiz-adv-x="759" d="M701 701V294q0-106-51.5-180T505 10q-50-73-50-102 0-24 21-24 22 0 43 31l44-51q-39-67-108-67-35 0-61.5 20T367-120q0 50 43 113l-29-1Q233-8 145.5 73.5T58 294v407h177V294q0-70 41-111.5T382 141q64 0 102.5 41T523 294v407h178z"/><glyph glyph-name="uogonek" unicode="ų" horiz-adv-x="660" d="M598 0h-42q-44-62-44-92 0-24 22-24t43 31l44-51q-39-67-108-67-35 0-61.5 20T425-120q0 50 47 120h-46v89Q370-7 249-7q-89 0-142 56T54 199v340h172V248q0-48 25-75.5t69-27.5q46 1 74.5 33t31.5 84v277h172V0z"/><glyph glyph-name="Wcircumflex" unicode="Ŵ" horiz-adv-x="1081" d="M696 771H572l-58 85-58-85H332l113 151h138zM857 0H674L544 484 412 0H228L-1 700h190l137-515 134 515h174l137-515 135 515h182z"/><glyph glyph-name="wcircumflex" unicode="ŵ" horiz-adv-x="937" d="M651 610H527l-58 85-58-85H287l113 151h138zM747 0H576L470 342 364 0H192L-5 539h176l111-373 108 373h165l111-373 109 373h169z"/><glyph glyph-name="Ycircumflex" unicode="Ŷ" horiz-adv-x="680" d="M282 771H158l113 151h138l113-151H398l-58 85zm149-545V0H254v221L-5 700h178l169-305 165 305h178z"/><glyph glyph-name="ycircumflex" unicode="ŷ" horiz-adv-x="580" d="M473 610H349l-58 85-58-85H109l113 151h138zm114-71L354-56q-60-146-208-146-86 0-157 55L61-29q36-29 71-29 46 0 67 43l13 27-224 527h178l132-358 117 358h172z"/><glyph glyph-name="Ydieresis" unicode="Ÿ" horiz-adv-x="680" d="M244 775q-34 0-56 21.5T166 852t22 56 56 22 56-22 22-56-22-55.5-56-21.5zm193 0q-34 0-56 21.5T359 852t22 56 56 22 56-22 22-56-22-55.5-56-21.5zm-6-549V0H254v221L-5 700h178l169-305 165 305h178z"/><glyph glyph-name="Zacute" unicode="Ź" horiz-adv-x="675" d="M528 874L398 761H266l106 168zm112-288L266 141h380V0H28v114l375 445H41v141h599V586z"/><glyph glyph-name="zacute" unicode="ź" horiz-adv-x="553" d="M452 713L322 600H190l106 168zm63-278L251 130h273V0H34v104l265 305H44v130h471V435z"/><glyph glyph-name="Zdotaccent" unicode="Ż" horiz-adv-x="675" d="M353 946q40 0 65.5-25.5T444 855t-25.5-66-65.5-26-65.5 26-25.5 66 25.5 65.5T353 946zm287-360L266 141h380V0H28v114l375 445H41v141h599V586z"/><glyph glyph-name="zdotaccent" unicode="ż" horiz-adv-x="553" d="M277 785q40 0 65.5-25.5T368 694t-25.5-66-65.5-26-65.5 26-25.5 66 25.5 65.5T277 785zm238-350L251 130h273V0H34v104l265 305H44v130h471V435z"/><glyph glyph-name="Zcaron" unicode="Ž" horiz-adv-x="675" d="M152 922h135l61-92 61 92h135L423 758H273zm488-336L266 141h380V0H28v114l375 445H41v141h599V586z"/><glyph glyph-name="zcaron" unicode="ž" horiz-adv-x="553" d="M76 760h135l61-92 61 92h135L347 596H197zm439-325L251 130h273V0H34v104l265 305H44v130h471V435z"/><glyph glyph-name="florin" unicode="ƒ" horiz-adv-x="410" d="M364 618q-30 1-50-17.5T290 550l-10-84h122l-14-111H266L220-24q-11-82-67-130.5T9-202q-75 2-122 39l44 119q26-23 58-23 26-1 42 17.5T51 1l44 354H22l14 111h73l13 109q10 81 68.5 129.5T337 752q88 0 147-39l-58-118q-27 21-62 23z"/><glyph glyph-name="Scommaaccent" unicode="Ș" horiz-adv-x="644" d="M247 513q0-33 38-53t92.5-34.5 109-35T579 324t38-116q0-101-79-157.5T337-6q-87 0-172 30T17 106l69 137q53-46 125-75.5T339 138q43 0 67 15.5t24 45.5q0 29-27.5 48.5t-68.5 29-89 25.5-89 35-68.5 60.5T60 497q0 96 76.5 153.5T339 708q157 0 276-78l-67-139q-55 32-118 52.5T324 564q-77 0-77-51zm91-554q35 0 58.5-22t23.5-60q0-34-22-66l-73-106h-82l45 106q-33 23-33 65 0 37 23.5 60T338-41z"/><glyph glyph-name="scommaaccent" unicode="ș" horiz-adv-x="513" d="M202 391q0-20 29-33.5t71-24.5 83.5-27.5T456 253t29-88q0-81-63-126.5T258-7Q115-7 16 69l55 110q95-67 191-67 59 0 59 37 0 21-28.5 35T223 209t-82 27.5T71.5 288 43 376q0 81 61 126t158 45q119 0 222-61l-59-112q-100 54-170 54-53 0-53-37zm60-432q35 0 58.5-22t23.5-60q0-34-22-66l-73-106h-82l45 106q-33 23-33 65 0 37 23.5 60T262-41z"/><glyph glyph-name="Tcommaaccent" unicode="Ț" horiz-adv-x="611" d="M605 701V557H394V0H216v557H7v144h598zM300-41q35 0 58.5-22t23.5-60q0-34-22-66l-73-106h-82l45 106q-33 23-33 65 0 37 23.5 60T300-41z"/><glyph glyph-name="tcommaaccent" unicode="ț" horiz-adv-x="435" d="M383 149l34-120Q354-8 273-8q-80 0-129.5 44.5T94 163v238H19v113h75v150h172V515h141V401H266V190q0-31 12.5-45.5T316 131q24 0 67 18zM265-41q35 0 58.5-22t23.5-60q0-34-22-66l-73-106h-82l45 106q-33 23-33 65 0 37 23.5 60T265-41z"/><glyph glyph-name="dotlessj" unicode="ȷ" horiz-adv-x="308" d="M244 539V-20q0-85-51.5-133.5T53-201q-82 2-143 35l40 119q33-19 64-19 28-1 42.5 17T71 5v534h173z"/><glyph glyph-name="circumflex" unicode="ˆ" d="M357 611H233l-58 85-58-85H-7l113 151h138z"/><glyph glyph-name="caron" unicode="ˇ" d="M-21 762h135l61-92 61 92h135L250 598H100z"/><glyph glyph-name="firsttonechinese" unicode="ˉ" d="M314 632H36v116h278V632z"/><glyph glyph-name="breve" unicode="˘" d="M231 759h108q-4-72-48.5-115T175 601 59.5 644 11 759h108q2-26 17.5-42t38.5-16 38.5 16 17.5 42z"/><glyph glyph-name="dotaccent" unicode="˙" d="M175 785q40 0 65.5-25.5T266 694t-25.5-66-65.5-26-65.5 26T84 694t25.5 65.5T175 785z"/><glyph glyph-name="ring" unicode="˚" d="M175 814q50 0 85.5-35t35.5-85-35.5-85-85.5-35-85.5 35T54 694t35.5 85 85.5 35zm0-68q-22 0-37.5-15.5T122 694q0-22 15.5-37t37.5-15 37.5 15 15.5 37q0 21-15.5 36.5T175 746z"/><glyph glyph-name="ogonek" unicode="˛" d="M138 18h84q-57-78-57-110 0-24 22-24t43 31l44-51q-39-67-108-67-35 0-61.5 20T78-120q0 57 60 138z"/><glyph glyph-name="tilde" unicode="˜" d="M102 777q33 0 69-23.5t46-23.5q31 0 31 42h105q0-155-104-155-35 0-70 23.5T133 664q-30 0-30-43H-3q0 156 105 156z"/><glyph glyph-name="hungarumlaut" unicode="˝" d="M186 723L96 600H-30l85 171zm194 0l-90-123H164l85 171z"/><glyph glyph-name="commaaccent" unicode="̦" horiz-adv-x="0" d="M122-41q35 0 58.5-22t23.5-60q0-34-22-66l-73-106H27l45 106q-33 23-33 65 0 37 23.5 60T122-41z"/><glyph glyph-name="Delta" unicode="Δ" horiz-adv-x="770" d="M775 0H-5l302 700h183zM536 129L383 523 229 129h307z"/><glyph glyph-name="pi" unicode="π" horiz-adv-x="729" d="M592 418V0H449v418h-89L315 0H173l44 418h-31q-30 0-49.5-17.5T118 355q0-30 22-69L21 245q-37 69-37 139-1 67 50 111t130 44h553l1-121H592z"/><glyph glyph-name="Wgrave" unicode="Ẁ" horiz-adv-x="1081" d="M602 761H470L340 874l156 55zM857 0H674L544 484 412 0H228L-1 700h190l137-515 134 515h174l137-515 135 515h182z"/><glyph glyph-name="wgrave" unicode="ẁ" horiz-adv-x="937" d="M557 600H425L295 713l156 55zM747 0H576L470 342 364 0H192L-5 539h176l111-373 108 373h165l111-373 109 373h169z"/><glyph glyph-name="Wacute" unicode="Ẃ" horiz-adv-x="1081" d="M690 874L560 761H428l106 168zM857 0H674L544 484 412 0H228L-1 700h190l137-515 134 515h174l137-515 135 515h182z"/><glyph glyph-name="wacute" unicode="ẃ" horiz-adv-x="937" d="M644 713L514 600H382l106 168zM747 0H576L470 342 364 0H192L-5 539h176l111-373 108 373h165l111-373 109 373h169z"/><glyph glyph-name="Wdieresis" unicode="Ẅ" horiz-adv-x="1081" d="M418 930q34 0 56-22t22-56-22-55.5-56-21.5-56 21.5-22 55.5 22 56 56 22zm193 0q34 0 56-22t22-56-22-55.5-56-21.5-56 21.5-22 55.5 22 56 56 22zM857 0H674L544 484 412 0H228L-1 700h190l137-515 134 515h174l137-515 135 515h182z"/><glyph glyph-name="wdieresis" unicode="ẅ" horiz-adv-x="937" d="M373 769q34 0 56-22t22-56-22-55.5-56-21.5-56 21.5-22 55.5 22 56 56 22zm193 0q34 0 56-22t22-56-22-55.5-56-21.5-56 21.5-22 55.5 22 56 56 22zM747 0H576L470 342 364 0H192L-5 539h176l111-373 108 373h165l111-373 109 373h169z"/><glyph glyph-name="Ygrave" unicode="Ỳ" horiz-adv-x="680" d="M296 761L166 874l156 55 106-168H296zm135-535V0H254v221L-5 700h178l169-305 165 305h178z"/><glyph glyph-name="ygrave" unicode="ỳ" horiz-adv-x="580" d="M378 600H246L116 713l156 55zm209-61L354-56q-60-146-208-146-86 0-157 55L61-29q36-29 71-29 46 0 67 43l13 27-224 527h178l132-358 117 358h172z"/><glyph glyph-name="endash" unicode="–" horiz-adv-x="407" d="M407 217H0v109h407V217z"/><glyph glyph-name="emdash" unicode="—" horiz-adv-x="648" d="M648 217H0v109h648V217z"/><glyph glyph-name="quoteleft" unicode="‘" horiz-adv-x="241" d="M204 703l-44-106q32-23 32-65 0-36-23.5-59T109 450q-35 0-58.5 22T27 532q0 32 22 66l73 105h82z"/><glyph glyph-name="quoteright" unicode="’" horiz-adv-x="241" d="M122 701q34 0 58-22t24-60q0-34-22-66l-73-106H27l45 106q-33 23-33 65 0 37 23.5 60t59.5 23z"/><glyph glyph-name="quotesinglbase" unicode="‚" horiz-adv-x="241" d="M122 158q35 0 58.5-22T204 76q0-32-22-66L109-96H27L72 11Q39 33 39 76q0 36 23.5 59t59.5 23z"/><glyph glyph-name="quotedblleft" unicode="“" horiz-adv-x="394" d="M204 704l-45-107q33-22 33-65 0-36-23.5-59T109 450q-35 0-58.5 22T27 532q0 32 22 66l73 106h82zm185 0l-45-107q33-22 33-65 0-36-23.5-59T294 450q-35 0-58.5 22T212 532q0 32 22 66l73 106h82z"/><glyph glyph-name="quotedblright" unicode="”" horiz-adv-x="412" d="M122 701q35 0 58.5-22t23.5-60q0-32-22-66l-73-106H27l45 107q-33 22-33 65 0 36 23.5 59t59.5 23zm185 0q35 0 58.5-22t23.5-60q0-32-22-66l-73-106h-82l45 107q-33 22-33 65 0 36 23.5 59t59.5 23z"/><glyph glyph-name="quotedblbase" unicode="„" horiz-adv-x="426" d="M122 158q35 0 58.5-22T204 76q0-32-22-66L109-96H27L72 11Q39 33 39 76q0 36 23.5 59t59.5 23zm185 0q35 0 58.5-22T389 76q0-32-22-66L294-96h-82l45 107q-33 22-33 65 0 36 23.5 59t59.5 23z"/><glyph glyph-name="dagger" unicode="†" horiz-adv-x="574" d="M369 494h187V354H369v-541H199v541H18v140h181v205h170V494z"/><glyph glyph-name="daggerdbl" unicode="‡" horiz-adv-x="574" d="M369 354V171h187V31H369v-218H199V31H18v140h181v183H18v140h181v205h170V494h187V354H369z"/><glyph glyph-name="bullet" unicode="•" horiz-adv-x="327" d="M163 401q55 0 90.5-35t35.5-90q0-56-35.5-91.5T163 149t-90 35.5T38 276q0 55 35 90t90 35z"/><glyph glyph-name="ellipsis" unicode="…" horiz-adv-x="680" d="M119 156q36 0 59-23t23-59-23-59-59-23Q84-8 61 15T38 74t23 59 58 23zm220 0q36 0 59-23t23-59-23-59-59-23q-35 0-58 23t-23 59 23 59 58 23zm220 0q36 0 59-23t23-59-23-59-59-23q-35 0-58 23t-23 59 23 59 58 23z"/><glyph glyph-name="perthousand" unicode="‰" horiz-adv-x="1476" d="M227 703q90 0 142.5-57T422 492q0-98-52.5-155T227 280 84 337 31 492q0 97 53 154t143 57zM178 0l500 701h162L340 0H178zm49 611q-40 0-62.5-31.5T142 492t22.5-87.5T227 373t62.5 31.5T312 492t-22.5 87.5T227 611zm570-191q90 0 142.5-57T992 209q0-98-52.5-155.5T797-4 654 53.5 601 209q0 97 53 154t143 57zm453 0q90 0 142.5-57t52.5-154q0-98-52.5-155.5T1250-4t-143 57.5-53 155.5q0 97 53 154t143 57zm-453-92q-40 0-62.5-31.5T712 209t22.5-88T797 89t62.5 32 22.5 88-22.5 87.5T797 328zm453 0q-40 0-62.5-31.5T1165 209t22.5-88 62.5-32 62.5 32 22.5 88-22.5 87.5T1250 328z"/><glyph glyph-name="guilsinglleft" unicode="‹" horiz-adv-x="281" d="M156 266L262 82H122L2 266l120 184h140z"/><glyph glyph-name="guilsinglright" unicode="›" horiz-adv-x="286" d="M142 266L35 450h140l120-184L175 82H35z"/><glyph glyph-name="fraction" unicode="⁄" horiz-adv-x="117" d="M-275 0l500 701h162L-113 0h-162z"/><glyph glyph-name="Euro" unicode="€" horiz-adv-x="782" d="M667 230l103-110q-56-58-134-93T481-8Q356-8 260.5 60T130 239H28v75h87q-2 24-2 38 0 13 2 35H28v75h102q36 110 133 177t225 67q77 0 153-32t128-86L667 466q-35 42-82.5 66.5T490 557q-53 0-97-25.5T324 462h226v-75H297q-2-22-2-33 0-20 3-40h252v-75H327q26-42 69-66.5t94-24.5q45 0 92 22t85 60z"/><glyph glyph-name="literSign" unicode="ℓ" horiz-adv-x="473" d="M323 709q56 0 88.5-35.5T444 574q0-53-21.5-105T360 369t-73-78.5-80-70.5q-18-112 53-112 57 0 122 79l51-61Q349-6 223-6 91-6 80 146l-47-30-24 71 83 58 39 240q20 112 71.5 168T323 709zm-4-90q-45 0-66-119l-26-157q51 51 86.5 112T349 571q0 48-30 48z"/><glyph glyph-name="trademark" unicode="™" horiz-adv-x="904" d="M340 600H228V280H103v320H-8v101h348V600zm523-320H751v245l-86-204h-84l-86 204V280H383v421h137l103-231 103 231h137V280z"/><glyph glyph-name="Omega" unicode="Ω" horiz-adv-x="856" d="M428 709q156 0 258-93t102-235q0-64-32-132t-82-110h175V0H500v129q57 37 94 104.5T631 366q0 86-57.5 142T428 564t-145-56-57-142q0-65 37-132.5T357 128V0H7v139h176q-50 42-82.5 110T68 381q0 142 102 235t258 93z"/><glyph glyph-name="estimated" unicode="℮" horiz-adv-x="809" d="M740 312H197q-5 0-5-4V144q0-9 8-19 83-89 206-89 63 0 119.5 26.5T621 135h49q-46-54-116-85.5T405 18q-139 0-237 88T70 319t98 213.5T405 621t237-88.5T740 319v-7zm-122 21v165q0 11-9 20-85 85-203 85-120 0-205-88-9-9-9-20V333q0-5 5-5h416q5 0 5 5z"/><glyph glyph-name="oneeighth" unicode="⅛" horiz-adv-x="895" d="M67 0l500 701h162L229 0H67zm22 283v324H10v93h201V283H89zm597 139q73 0 116.5-31t43.5-83q0-54-52-85 34-14 54.5-42.5T869 118q0-57-49-90T687-5q-83 0-132.5 33T505 116q0 35 22 64t59 43q-58 33-58 89 0 50 43 80t115 30zm1-77q-57 0-57-43 0-42 57-42t57 42q0 43-57 43zm0-169q-67 0-67-48t67-48 67 48-67 48z"/><glyph glyph-name="threeeighths" unicode="⅜" horiz-adv-x="954" d="M127 0l500 701h162L289 0H127zm90 533l20-4q47-8 75.5-37.5T341 415q0-61-46.5-99T172 278Q72 278 5 330l49 89q48-54 108-54t60 49q0 47-61 47H89v61l94 92H26v85h295v-67zm528-111q73 0 116.5-31t43.5-83q0-54-52-85 34-14 54.5-42.5T928 118q0-57-49-90T746-5q-83 0-132.5 33T564 116q0 35 22 64t59 43q-58 33-58 89 0 50 43 80t115 30zm1-77q-57 0-57-43 0-42 57-42t57 42q0 43-57 43zm0-169q-67 0-67-48t67-48 67 48-67 48z"/><glyph glyph-name="fiveeighths" unicode="⅝" horiz-adv-x="969" d="M142 0l500 701h162L304 0H142zm20 610v-65q16 2 33 2 76 0 121.5-33.5T362 424q0-66-48-106t-129-40q-93 0-172 53l49 90q48-55 109-55 60 0 60 50 0 45-60 45-81 0-120-3v242h292v-90H162zm598-188q73 0 116.5-31t43.5-83q0-54-52-85 34-14 54.5-42.5T943 118q0-57-49-90T761-5q-83 0-132.5 33T579 116q0 35 22 64t59 43q-58 33-58 89 0 50 43 80t115 30zm1-77q-57 0-57-43 0-42 57-42t57 42q0 43-57 43zm0-169q-67 0-67-48t67-48 67 48-67 48z"/><glyph glyph-name="seveneighths" unicode="⅞" horiz-adv-x="941" d="M113 0l500 701h162L275 0H113zm102 283H87l152 327H134v-59H27v149h346v-79zm517 139q73 0 116.5-31t43.5-83q0-54-52-85 34-14 54.5-42.5T915 118q0-57-49-90T733-5q-83 0-132.5 33T551 116q0 35 22 64t59 43q-58 33-58 89 0 50 43 80t115 30zm1-77q-57 0-57-43 0-42 57-42t57 42q0 43-57 43zm0-169q-67 0-67-48t67-48 67 48-67 48z"/><glyph glyph-name="partialdiff" unicode="∂" horiz-adv-x="632" d="M275 708q144 0 230-98.5T591 347q0-165-80.5-260T289-8Q171-8 99.5 57.5T28 233q0 103 63 165t169 62q116 0 160-87 5 95-35.5 146T264 570q-90 0-155-55L41 641q103 67 234 67zm18-378q-48 0-74-25t-26-71q0-48 27.5-73.5T296 135q51 0 78 27.5t27 69.5q0 44-28.5 71T293 330z"/><glyph glyph-name="product" unicode="∏" horiz-adv-x="742" d="M672-194H499v800H243v-800H70v936h602v-936z"/><glyph glyph-name="summation" unicode="∑" horiz-adv-x="616" d="M600 596H243l237-293L242 11h368v-149H27v124l264 317L38 618v126h562V596z"/><glyph glyph-name="minus" unicode="−" horiz-adv-x="510" d="M477 272H33v109h444V272z"/><glyph glyph-name="divisionslash" unicode="∕" horiz-adv-x="353" d="M109-111H-36l323 922h145z"/><glyph glyph-name="bulletoperator" unicode="∙" horiz-adv-x="327" d="M163 401q55 0 90.5-35t35.5-90q0-56-35.5-91.5T163 149t-90 35.5T38 276q0 55 35 90t90 35z"/><glyph glyph-name="radical" unicode="√" horiz-adv-x="708" d="M246 408L358 15l197 731h165L449-157H265L128 273H2v135h244z"/><glyph glyph-name="infinity" unicode="∞" horiz-adv-x="854" d="M625 513q89 0 147-60.5T830 300q0-93-58-154T625 85q-69 0-114 32.5T428 208q-37-58-83-90.5T228 85q-88 0-146 61T24 299t58 153 146 61q69 0 114-32.5t83-90.5q38 58 83.5 90.5T625 513zM228 201q48 0 80.5 26t62.5 74q-30 46-63 71t-80 25q-37 0-62-28t-25-70q0-43 24.5-70.5T228 201zm397 1q38 0 63 27.5t25 70.5q0 42-25 69.5T625 397q-47 0-79.5-25.5T483 298q30-46 63-71t79-25z"/><glyph glyph-name="integral" unicode="∫" horiz-adv-x="390" d="M403 829l-18-110q-29 11-55 11-44 0-62-24.5T250 622q0-46 12.5-253.5T275 107q0-133-43-189T87-138q-65 0-107 26L1-2q39-18 65-18 44 0 63.5 26.5T149 95q0 54-13.5 259.5T122 607q0 132 43 188t144 56q41 0 94-22z"/><glyph glyph-name="approxequal" unicode="≈" horiz-adv-x="510" d="M169 528q38 0 81.5-25t55.5-25q33 0 33 46h115q0-170-113-170-38 0-81.5 25T204 404q-32 0-32-46H56q0 170 113 170zm0-230q38 0 81.5-25t55.5-25q33 0 33 46h115q0-170-113-170-38 0-81.5 25T204 174q-32 0-32-46H56q0 170 113 170z"/><glyph glyph-name="notequal" unicode="≠" horiz-adv-x="510" d="M332 380l-33-106h178V165H264L219 22H89l45 143H33v109h136l33 106H33v109h204l43 137h130l-43-137h110V380H332z"/><glyph glyph-name="lessequal" unicode="≤" horiz-adv-x="510" d="M477 527L145 398l332-128V153L33 331v134l444 179V527zm0-525H33v110h444V2z"/><glyph glyph-name="greaterequal" unicode="≥" horiz-adv-x="510" d="M32 277l333 129L32 534v117l445-179V339L32 160v117zM477 2H33v110h444V2z"/><glyph glyph-name="lozenge" unicode="◊" horiz-adv-x="508" d="M483 330L253-14 25 330l229 341zm-333 0l103-155 105 155-104 154z"/><glyph glyph-name="zero.dnom" horiz-adv-x="453" d="M227 420q90 0 142.5-57T422 209q0-98-52.5-155.5T227-4 84 53.5 31 209q0 97 53 154t143 57zm0-92q-40 0-62.5-31.5T142 209t22.5-88T227 89t62.5 32 22.5 88-22.5 87.5T227 328z"/><glyph glyph-name="one.dnom" horiz-adv-x="274" d="M89 0v324H10v93h201V0H89z"/><glyph glyph-name="two.dnom" horiz-adv-x="389" d="M201 422q67 0 109-30.5t42-80.5q0-59-83-139l-82-82h176V0H32v75l155 154q38 42 38 66 0 32-43 32-52 0-118-53l-46 84q91 64 183 64z"/><glyph glyph-name="three.dnom" horiz-adv-x="365" d="M217 249l20-3q47-8 75.5-38t28.5-77q0-61-46-98.5T172-5Q70-5 5 47l49 89q48-54 108-54t60 49q0 46-61 46H89v62l94 91H26v85h295v-66z"/><glyph glyph-name="four.dnom" horiz-adv-x="414" d="M230 171v89h113v-89h58V87h-58V0H230v87H23v79l134 251h117L147 171h83z"/><glyph glyph-name="five.dnom" horiz-adv-x="387" d="M162 327v-66q12 3 33 3 76 0 121.5-33.5T362 141q0-66-48-106T185-5Q89-5 13 48l49 90q48-56 109-56 60 0 60 51 0 45-60 45-81 0-120-3v242h292v-90H162z"/><glyph glyph-name="six.dnom" horiz-adv-x="410" d="M237 422q82 0 144-35l-47-83q-36 27-90 27-99 0-96-100 30 44 100 44 64 0 102-37t38-99q0-66-45.5-105T222-5Q133-5 82 50.5T31 203q0 99 56 159t150 60zm-18-232q-28 0-43.5-13.5T160 139q0-50 58-50 57 0 57 52 0 49-56 49z"/><glyph glyph-name="seven.dnom" horiz-adv-x="388" d="M215 0H87l152 327H134v-60H27v150h346v-80z"/><glyph glyph-name="eight.dnom" horiz-adv-x="416" d="M207 422q73 0 116.5-31t43.5-83q0-54-52-85 34-14 54.5-42.5T390 118q0-57-49-90T208-5Q125-5 75.5 28T26 116q0 35 22 64t59 43q-58 33-58 89 0 50 43 80t115 30zm1-77q-57 0-57-43 0-42 57-42t57 42q0 43-57 43zm0-169q-67 0-67-48t67-48 67 48-67 48z"/><glyph glyph-name="nine.dnom" horiz-adv-x="412" d="M175-5Q93-5 31 30l46 82q38-26 91-26 99 0 96 100-31-45-100-45-63 0-101.5 37.5T24 277q0 67 45 106t120 39q89 0 140-56t51-152q0-100-55.5-159.5T175-5zm17 232q59 0 59 51 0 23-14.5 36.5T194 328q-57 0-57-52 0-49 55-49z"/><glyph glyph-name="zero.numr" horiz-adv-x="453" d="M227 703q90 0 142.5-57T422 492q0-98-52.5-155T227 280 84 337 31 492q0 97 53 154t143 57zm0-92q-40 0-62.5-31.5T142 492t22.5-87.5T227 373t62.5 31.5T312 492t-22.5 87.5T227 611z"/><glyph glyph-name="one.numr" horiz-adv-x="274" d="M89 283v324H10v93h201V283H89z"/><glyph glyph-name="two.numr" horiz-adv-x="389" d="M201 705q66 0 108.5-30.5T352 595q0-60-83-140l-82-81h176v-91H32v75l155 155q38 40 38 65 0 32-43 32-54 0-118-53l-46 84q91 64 183 64z"/><glyph glyph-name="three.numr" horiz-adv-x="365" d="M217 533l20-4q47-8 75.5-37.5T341 415q0-61-46.5-99T172 278Q72 278 5 330l49 89q48-54 108-54t60 49q0 47-61 47H89v61l94 92H26v85h295v-67z"/><glyph glyph-name="four.numr" horiz-adv-x="414" d="M230 455v89h113v-89h58v-84h-58v-88H230v88H23v78l134 251h117L147 455h83z"/><glyph glyph-name="five.numr" horiz-adv-x="387" d="M162 610v-65q16 2 33 2 76 0 121.5-33.5T362 424q0-66-48-106t-129-40q-93 0-172 53l49 90q48-55 109-55 60 0 60 50 0 45-60 45-81 0-120-3v242h292v-90H162z"/><glyph glyph-name="six.numr" horiz-adv-x="410" d="M237 705q82 0 144-35l-47-82q-36 27-90 27-99 0-96-101 30 44 100 44 64 0 102-37t38-98q0-66-45.5-105.5T222 278q-88 0-139.5 56T31 486q0 99 56 159t150 60zm-18-232q-28 0-43.5-13.5T160 422q0-22 14.5-36t43.5-14q57 0 57 52 0 49-56 49z"/><glyph glyph-name="seven.numr" horiz-adv-x="388" d="M215 283H87l152 327H134v-59H27v149h346v-79z"/><glyph glyph-name="eight.numr" horiz-adv-x="416" d="M207 705q74 0 117-31t43-83q0-54-52-85 35-14 55-42t20-62q0-57-49.5-90.5T208 278 75.5 311 26 399q0 35 22 64t59 43q-58 33-58 89 0 50 43 80t115 30zm1-77q-57 0-57-43 0-41 57-41t57 41q0 43-57 43zm0-168q-67 0-67-48 0-49 67-49t67 48q0 49-67 49z"/><glyph glyph-name="nine.numr" horiz-adv-x="412" d="M175 278q-83 0-144 36l46 81q38-26 91-26 48 0 72.5 25.5T264 469q-32-45-100-45-64 0-102 37.5T24 561q0 66 45 105t120 39q89 0 140-56t51-152q0-99-56-159t-149-60zm17 232q59 0 59 51 0 23-14.5 37T194 612q-57 0-57-52 0-50 55-50z"/></font>
</defs>
</svg>
