<?xml version="1.0" encoding="UTF-8"?>
<svg width="67px" height="67px" viewBox="0 0 67 67" version="1.1" xmlns="http://www.w3.org/2000/svg" xmlns:xlink="http://www.w3.org/1999/xlink">
    <title>Group 4</title>
    <defs>
        <polygon id="path-1" points="0 0 26.9868228 0 26.9868228 26.9868228 0 26.9868228"></polygon>
    </defs>
    <g id="01_User-Flow" stroke="none" stroke-width="1" fill="none" fill-rule="evenodd">
        <g id="1.2-Control-Center-03" transform="translate(-1919.000000, -55.000000)">
            <g id="Group-4" transform="translate(1919.062958, 55.472914)">
                <g id="Group" fill="#FFFFFF">
                    <circle id="Oval" cx="32.9838946" cy="32.9838946" r="32.9838946"></circle>
                </g>
                <g id="Group-3" transform="translate(20.989751, 17.991215)">
                    <mask id="mask-2" fill="white">
                        <use xlink:href="#path-1"></use>
                    </mask>
                    <g id="Clip-2"></g>
                    <path d="M16.8081094,6.22826704 L4.07148536,6.22826704 L9.77156487,1.86897032 C10.221464,1.52541622 10.3130724,0.874635497 9.97513913,0.415871413 C9.63822372,-0.0439305976 9.00001839,-0.136306171 8.55113713,0.208285855 L0.426488092,6.42235953 C0.396969823,6.44311809 0.373558782,6.47425592 0.345058384,6.49916619 C0.321647343,6.5220006 0.297218431,6.54275916 0.275843133,6.56766943 C0.259557192,6.58427627 0.242253379,6.59569348 0.22800318,6.61230032 C0.21273511,6.63202095 0.198484911,6.65070365 0.185252584,6.67042428 C0.161841543,6.70363797 0.156752186,6.74100337 0.13639476,6.77525498 C0.109930105,6.82611345 0.0844833212,6.87593398 0.0671795084,6.93094415 C0.0407148536,7.00878874 0.0285003975,7.08559539 0.0203574268,7.1644779 C0.0173038128,7.20080538 0,7.23090528 0,7.26619483 C0,7.28280167 0.00916084206,7.29525681 0.00916084206,7.31186365 C0.0101787134,7.32950842 0.00305361402,7.3471532 0.0050893567,7.36479797 L0.0050893567,7.36687382 C0.00814297072,7.4032013 0.0142501988,7.43849084 0.0213752981,7.47378039 L0.0213752981,7.47689417 C0.0295182689,7.51425957 0.050893567,7.54747326 0.0631080231,7.58587659 C0.0793939645,7.63569712 0.0966977773,7.6834418 0.120108818,7.73118648 C0.152680701,7.795538 0.192377683,7.8515861 0.238181894,7.90867213 C0.27380739,7.95434095 0.308415016,7.99793392 0.351165612,8.03633725 C0.369487296,8.05294409 0.378648139,8.07370265 0.397987694,8.08927157 C0.397987694,8.08927157 0.399005565,8.08927157 0.399005565,8.09030949 C0.397987694,8.09030949 0.401041308,8.09134742 0.402059179,8.09238535 C0.402059179,8.09134742 0.403077051,8.0944612 0.405112793,8.0944612 C0.406130665,8.09549913 0.407148536,8.09653706 0.408166407,8.09653706 L8.55113713,14.3241038 C8.7333361,14.4642241 8.94708908,14.5316894 9.15982419,14.5316894 C9.47027495,14.5316894 9.77563635,14.3884553 9.97513913,14.1165182 C10.1125518,13.9307292 10.1787134,13.7127643 10.1787134,13.4958374 C10.1787134,13.1792694 10.039265,12.8668532 9.77156487,12.6634193 L4.07148536,8.30412262 L16.8081094,8.30412262 C21.2979399,8.30412262 24.9510802,12.0292455 24.9510802,16.6075449 C24.9510802,18.8307863 24.1031933,20.9128694 22.5601004,22.4770266 C21.0302398,24.0463734 18.9883898,24.9109673 16.8081094,24.9109673 L1.54003934,24.9109673 C0.977156487,24.9109673 0.522167997,25.374921 0.522167997,25.9488951 C0.522167997,26.5228691 0.977156487,26.9868228 1.54003934,26.9868228 L16.8081094,26.9868228 C19.5339689,26.9868228 22.088826,25.9053021 23.9993705,23.9446565 C25.9262009,21.9923143 26.9868228,19.3871156 26.9868228,16.6075449 C26.9868228,10.8844111 22.420652,6.22826704 16.8081094,6.22826704" id="Fill-1" fill="#FE0000" mask="url(#mask-2)"></path>
                </g>
            </g>
        </g>
    </g>
</svg>