<?xml version="1.0" encoding="UTF-8"?>
<svg width="59px" height="46px" viewBox="0 0 59 46" version="1.1" xmlns="http://www.w3.org/2000/svg" xmlns:xlink="http://www.w3.org/1999/xlink">
    <title>Fill 1</title>
    <g id="01_User-Flow" stroke="none" stroke-width="1" fill="none" fill-rule="evenodd">
        <g id="3.1-Output-02-Copy-3" transform="translate(-70.000000, -66.000000)" fill="#FFFFFF">
            <g id="Group-13" transform="translate(70.879821, 52.474378)">
                <path d="M56.7718946,31.5911799 L29.4102426,14.3858274 C29.1028711,14.1920902 28.711671,14.1958159 28.4061624,14.3951417 L0.422315925,32.636243 C-0.00800417446,32.9156717 -0.129089917,33.4931575 0.150338719,33.9234776 C0.329173046,34.1973177 0.627230258,34.3463463 0.9327389,34.3463463 C1.10784751,34.3463463 1.28295612,34.297912 1.43943616,34.1954548 L8.81635215,29.3874194 L8.81635215,58.2896547 C8.81635215,58.8038034 9.23176938,59.2210835 9.74778093,59.2210835 C10.2619296,59.2210835 10.6792097,58.8038034 10.6792097,58.2896547 L10.6792097,28.1746992 L28.9240368,16.2803536 L47.8134126,28.1597963 L47.8134126,58.2896547 C47.8134126,58.8038034 48.2306927,59.2210835 48.7448414,59.2210835 C49.2608529,59.2210835 49.6762701,58.8038034 49.6762701,58.2896547 L49.6762701,29.3315337 L55.7808544,33.1690203 C56.2167631,33.4428604 56.7905232,33.3124603 57.0643633,32.8746888 C57.3382033,32.440643 57.2075881,31.86502 56.7718946,31.5911799" id="Fill-1"></path>
            </g>
        </g>
    </g>
</svg>