<?xml version="1.0" encoding="UTF-8"?>
<svg width="39px" height="31px" viewBox="0 0 39 31" version="1.1" xmlns="http://www.w3.org/2000/svg" xmlns:xlink="http://www.w3.org/1999/xlink">
    <title>Fill 1</title>
    <g id="01_User-Flow" stroke="none" stroke-width="1" fill="none" fill-rule="evenodd">
        <g id="0.0-Home-Page" transform="translate(-47.000000, -44.000000)" fill="#6E6E6E">
            <g id="Group-13" transform="translate(47.276287, 35.000000)">
                <path d="M37.8664102,21.0710702 L19.6164021,9.59523449 C19.4113877,9.4660133 19.1504603,9.46849832 18.9466884,9.60144705 L0.281681422,21.7681191 C-0.00533872183,21.9544959 -0.0861019659,22.3396744 0.100274751,22.6266945 C0.21955585,22.8093437 0.418357682,22.9087446 0.622129559,22.9087446 C0.738925635,22.9087446 0.855721711,22.8764393 0.960092673,22.8081012 L5.880438,19.6011792 L5.880438,38.8787443 C5.880438,39.2216774 6.15751806,39.5 6.50169373,39.5 C6.84462689,39.5 7.12294945,39.2216774 7.12294945,38.8787443 L7.12294945,18.7923042 L19.2921066,10.8588686 L31.8911726,18.7823641 L31.8911726,38.8787443 C31.8911726,39.2216774 32.1694952,39.5 32.5124284,39.5 C32.856604,39.5 33.1336841,39.2216774 33.1336841,38.8787443 L33.1336841,19.5639038 L37.2053941,22.1234774 C37.4961418,22.3061266 37.8788353,22.2191508 38.0614845,21.9271606 C38.2441337,21.6376554 38.1570143,21.2537194 37.8664102,21.0710702" id="Fill-1"></path>
            </g>
        </g>
    </g>
</svg>