<?xml version="1.0" encoding="UTF-8"?>
<svg width="61px" height="83px" viewBox="0 0 61 83" version="1.1" xmlns="http://www.w3.org/2000/svg" xmlns:xlink="http://www.w3.org/1999/xlink">
    <title>Group 3</title>
    <defs>
        <polygon id="path-1" points="0 0 61 0 61 83 0 83"></polygon>
    </defs>
    <g id="01_User-Flow" stroke="none" stroke-width="1" fill="none" fill-rule="evenodd">
        <g id="3.1-Output-02-Copy-4" transform="translate(-663.000000, -319.000000)">
            <g id="Group-12" transform="translate(344.000000, 240.000000)">
                <g id="Group-3" transform="translate(319.000000, 79.000000)">
                    <mask id="mask-2" fill="white">
                        <use xlink:href="#path-1"></use>
                    </mask>
                    <g id="Clip-2"></g>
                    <path d="M19.3420833,62.8622205 C17.9814444,65.6042608 16.3344444,67.5081044 13.7292361,68.8028865 C13.1565139,69.0884631 12.7329028,69.2266181 12.4389167,69.292326 C12.9311528,68.2174125 14.7315,65.9134247 19.3420833,62.8622205 L19.3420833,62.8622205 Z M43.3549028,53.5881434 C46.2363056,53.5418109 47.80875,54.1811991 48.2925139,54.4221279 C48.9770694,54.7616186 49.2380139,55.090158 49.3083333,55.2249434 C49.1363472,55.4111157 48.3899444,55.865174 46.5523194,55.865174 C45.1874444,55.865174 43.6387222,55.0370863 42.0391667,53.6530088 C42.5051389,53.6151004 42.9431528,53.5948826 43.3549028,53.5881434 L43.3549028,53.5881434 Z M29.8849167,42.0446172 C31.5437778,45.3872949 33.588125,48.7501903 35.8154722,51.594162 C33.3983472,52.2655617 30.8456667,53.2124291 28.2218194,54.4162311 C27.2314167,54.8711318 26.2842222,55.3226628 25.3810833,55.7699818 C25.5640833,55.1920895 25.7487778,54.5990338 25.9394028,53.9924995 C26.3350556,52.7263593 26.7552778,51.3860871 27.2127778,49.9691557 L27.2127778,49.9691557 C27.7795694,48.2161032 28.4209167,46.3417439 29.0402361,44.5288804 C29.3325278,43.674678 29.6146528,42.8465903 29.8849167,42.0446172 L29.8849167,42.0446172 Z M29.8239167,27.0093071 C29.8781389,27.0101495 29.9060972,27.0135191 29.9069444,27.0093071 C29.9645556,27.0800694 30.5499861,27.9317446 29.4960417,32.3240635 C29.257125,31.4184741 29.0842917,30.5701686 28.9885556,29.800207 C28.7513333,27.8845697 29.0919167,27.134826 29.2833889,27.0868087 C29.5570417,27.019416 29.7307222,27.0093071 29.8239167,27.0093071 L29.8239167,27.0093071 Z M29.8476389,23.8204423 C29.4494444,23.8157358 29.0038056,23.8654379 28.5047917,23.9901144 C27.2475139,24.302648 25.2243472,25.5241406 25.8021528,30.1910847 C26.0571667,32.2524587 26.8162778,34.8799314 27.9422361,37.7070549 C27.3373194,39.5923655 26.6637778,41.5627594 26.0004028,43.5011418 C25.3768472,45.3266414 24.7304167,47.2127945 24.156,48.9919616 C23.6951111,50.4190019 23.2723472,51.769383 22.8733056,53.0447898 C22.3141389,54.832381 21.8075,56.4523329 21.3101806,57.9189664 C12.7269722,62.7645011 9.29911111,66.9605387 9.08815278,69.5433637 C9.00258333,70.5921626 9.41518056,71.5036487 10.2191944,72.0427903 C10.6224722,72.3148883 11.2019722,72.5431811 12.0059861,72.5431811 C12.8142361,72.5431811 13.8512361,72.3115187 15.1652778,71.6578095 C19.7978889,69.3555066 21.9845694,65.546977 23.9357222,60.1193378 C25.5835694,59.223015 27.4516944,58.2854142 29.5672083,57.3141169 C32.9035694,55.7843028 35.7451528,54.8382778 38.132625,54.2822881 C40.892875,57.1650106 43.81325,59.0579029 46.5523194,59.0579029 C49.5328472,59.0579029 51.6348056,58.0781816 52.3202083,56.3714616 C52.8251528,55.1129031 52.4388194,53.7136622 51.2882917,52.6277975 C49.6531528,51.0861896 46.7454861,50.2960102 43.1058194,50.3996265 C41.8968333,50.4341653 40.6192222,50.5706355 39.284,50.8031403 C36.2594167,47.1925767 33.3220972,42.1794026 31.3480694,37.5646879 C33.3712361,31.0756138 34.1091667,26.8349285 32.2656111,24.8434744 C31.8047222,24.3456108 31.0422222,23.8351112 29.8476389,23.8204423 L29.8476389,23.8204423 Z M38.5265833,4.30976281 L55.9844444,22.3465751 L38.5265833,22.3465751 L38.5265833,4.30976281 Z M6.43295833,3.19188649 L35.3156111,3.19188649 L35.3156111,23.9420971 C35.3156111,24.824099 36.0349028,25.5384615 36.9210972,25.5384615 L57.789875,25.5384615 L57.789875,76.6204391 C57.789875,78.3777036 56.3445139,79.8072711 54.5670417,79.8072711 L6.43295833,79.8072711 C4.65633333,79.8072711 3.210125,78.378546 3.210125,76.6204391 L3.210125,6.37956093 C3.210125,4.62229643 4.65633333,3.19188649 6.43295833,3.19188649 L6.43295833,3.19188649 Z M6.43295833,0 C2.88563889,0 0,2.86166229 0,6.37956093 L0,76.6204391 C0,80.1383377 2.88563889,83 6.43295833,83 L54.5670417,83 C58.1143611,83 61,80.1383377 61,76.6204391 L61,23.5680676 C61,23.1552874 60.8390278,22.7593553 60.5518194,22.461985 L39.2848472,0.489439443 C38.9823889,0.176905823 38.5638611,0 38.1283889,0 L6.43295833,0 Z" id="Fill-1" fill="#FF0000" mask="url(#mask-2)"></path>
                </g>
            </g>
        </g>
    </g>
</svg>