<?xml version="1.0" encoding="UTF-8"?>
<svg width="19px" height="35px" viewBox="0 0 19 35" version="1.1" xmlns="http://www.w3.org/2000/svg" xmlns:xlink="http://www.w3.org/1999/xlink">
    <title>Group 3 Copy 2</title>
    <defs>
        <polygon id="path-1" points="0 0 17.9912152 0 17.9912152 33.3337238 0 33.3337238"></polygon>
    </defs>
    <g id="01_User-Flow" stroke="none" stroke-width="1" fill="none" fill-rule="evenodd">
        <g id="1.2-Control-Center-03" transform="translate(-1734.000000, -1076.000000)">
            <g id="Group-10-Copy" transform="translate(1584.726208, 1076.746613)">
                <g id="Group-3-Copy-2" transform="translate(149.926794, 0.000000)">
                    <mask id="mask-2" fill="white">
                        <use xlink:href="#path-1"></use>
                    </mask>
                    <g id="Clip-2"></g>
                    <path d="M17.9635547,16.818492 C17.9733172,16.7682987 17.9912152,16.7181053 17.9912152,16.6662928 C17.9912152,16.6160995 17.9733172,16.5659061 17.9635547,16.5157128 C17.9537922,16.4639003 17.9521651,16.4120878 17.9310129,16.3635136 C17.9114878,16.3133202 17.8740648,16.2744609 17.8447771,16.2291249 C17.8171166,16.1870273 17.7992186,16.1400722 17.7617956,16.102832 C17.7601685,16.0995937 17.7569143,16.0979746 17.7536601,16.0963554 C17.7504059,16.0931172 17.7504059,16.0898789 17.7471518,16.0866406 L1.38025557,0.228779861 C1.05971888,-0.0820950895 0.543931421,-0.075618528 0.229903091,0.244971264 C-0.0824981482,0.563941916 -0.075989789,1.07720941 0.246173989,1.3897035 L16.012674,16.6662928 L0.246173989,31.9445013 C-0.075989789,32.2569954 -0.0824981482,32.7686438 0.229903091,33.0892336 C0.389357891,33.2527667 0.600879563,33.3337238 0.812401236,33.3337238 C1.01741455,33.3337238 1.22242786,33.2576242 1.38025557,33.105425 L17.7471518,17.2475642 C17.7504059,17.244326 17.7504059,17.2410877 17.7536601,17.2378494 C17.7569143,17.2346111 17.7601685,17.2346111 17.7617956,17.2313728 C17.7992186,17.1925135 17.8171166,17.1471775 17.8447771,17.1050799 C17.8740648,17.059744 17.9114878,17.0192654 17.9310129,16.9706912 C17.9521651,16.9204979 17.9537922,16.8703045 17.9635547,16.818492" id="Fill-1" fill="#FFFFFF" mask="url(#mask-2)"></path>
                </g>
            </g>
        </g>
    </g>
</svg>