<?xml version="1.0" encoding="UTF-8"?>
<svg width="36px" height="31px" viewBox="0 0 36 31" version="1.1" xmlns="http://www.w3.org/2000/svg" xmlns:xlink="http://www.w3.org/1999/xlink">
    <title>Group 3</title>
    <defs>
        <polygon id="path-1" points="0 0.516666667 36 0.516666667 36 29.5166667 0 29.5166667"></polygon>
    </defs>
    <g id="01_User-Flow" stroke="none" stroke-width="1" fill="none" fill-rule="evenodd">
        <g id="0.0-Home-Page" transform="translate(-202.000000, -45.000000)">
            <g id="Group-13" transform="translate(47.276287, 35.000000)">
                <g id="Group-6" transform="translate(154.723713, 0.000000)">
                    <g id="Group-3" transform="translate(0.000000, 10.483333)">
                        <mask id="mask-2" fill="white">
                            <use xlink:href="#path-1"></use>
                        </mask>
                        <g id="Clip-2"></g>
                        <path d="M34.9951551,28.5346507 L9.43929424,28.5346507 L9.43929424,20.1332412 L18.6278111,20.1332412 C18.9054885,20.1332412 19.1302336,19.9136021 19.1302336,19.6422332 L19.1302336,11.6275243 L34.9951551,11.6275243 L34.9951551,28.5346507 Z M18.1253887,12.2372562 L18.1253887,19.1520733 L10.2480295,19.1520733 L18.1253887,12.2372562 Z M1.00484489,10.0052475 L10.1933618,10.0052475 C10.4701714,10.0052475 10.6957842,9.78476036 10.6957842,9.51423955 L10.6957842,1.49868263 L26.559838,1.49868263 L26.559838,10.6446604 L18.6278111,10.6446604 C18.5054595,10.6446604 18.3969918,10.6929979 18.3093499,10.7642322 C18.3050112,10.7684724 18.2972015,10.7667763 18.2919951,10.7710165 L9.34384265,18.6254481 C9.25359751,18.4965479 9.10868465,18.405809 8.93687179,18.405809 L1.00484489,18.405809 L1.00484489,10.0052475 Z M9.69093933,2.10841448 L9.69093933,9.02323157 L1.81358016,9.02323157 L9.69093933,2.10841448 Z M35.4975776,10.6446604 L27.5646829,10.6446604 L27.5646829,1.00767465 C27.5646829,0.736305816 27.3399378,0.516666667 27.0622605,0.516666667 L10.1933618,0.516666667 C10.0701425,0.516666667 9.96254248,0.56500424 9.87490057,0.636238559 C9.86969412,0.639630669 9.86275219,0.637934614 9.85754574,0.642174752 L0.166606407,9.14873966 C0.16313544,9.15213177 0.162267698,9.15552388 0.158796732,9.15891599 C0.12235158,9.19283709 0.0954515872,9.23439044 0.0702870779,9.27763985 C0.0624774026,9.29290435 0.049461277,9.30308068 0.0425193434,9.31834518 C0.0156193506,9.37855514 0,9.44385326 0,9.51423955 L0,18.896817 C0,19.1681858 0.224745101,19.387825 0.502422446,19.387825 L8.51775255,19.387825 C8.51341384,19.3946092 8.50907513,19.4005454 8.50473642,19.4064816 C8.49692675,19.420898 8.48391062,19.4319224 8.47696869,19.4471869 C8.4500687,19.5065488 8.43444935,19.572695 8.43444935,19.6422332 L8.43444935,29.0256587 C8.43444935,29.2961795 8.65919445,29.5166667 8.93687179,29.5166667 L35.4975776,29.5166667 C35.7752549,29.5166667 36,29.2961795 36,29.0256587 L36,11.1356683 C36,10.8651475 35.7752549,10.6446604 35.4975776,10.6446604 L35.4975776,10.6446604 Z" id="Fill-1" fill="#6E6E6E" mask="url(#mask-2)"></path>
                    </g>
                </g>
            </g>
        </g>
    </g>
</svg>