<?xml version="1.0" encoding="UTF-8"?>
<svg width="37px" height="37px" viewBox="0 0 37 37" version="1.1" xmlns="http://www.w3.org/2000/svg" xmlns:xlink="http://www.w3.org/1999/xlink">
    <title>Group 3</title>
    <g id="01_User-Flow" stroke="none" stroke-width="1" fill="none" fill-rule="evenodd" stroke-linecap="round" stroke-linejoin="round">
        <g id="0.0-Home-Page" transform="translate(-128.000000, -42.000000)" stroke="#6E6E6E">
            <g id="Group-13" transform="translate(47.276287, 35.000000)">
                <g id="Group-5" transform="translate(81.723713, 8.000000)">
                    <path d="M24.4878049,17.0006918 C24.4878049,20.8662911 21.3527125,24 17.4871131,24 C13.6215137,24 10.4878049,20.8662911 10.4878049,17.0006918 C10.4878049,13.1350924 13.6215137,10 17.4871131,10 C21.3527125,10 24.4878049,13.1350924 24.4878049,17.0006918 Z" id="Stroke-1"></path>
                    <path d="M35.4878049,18.311583 L35.4878049,16.688417 C35.4878049,15.163312 34.2517214,13.9272285 32.7266164,13.9272285 C30.4699254,13.9272285 29.3396444,11.1995871 30.9357146,9.60351692 C32.0143845,8.52613729 32.0143845,6.77781464 30.9357146,5.69914473 L29.7886601,4.55079997 C28.7099902,3.47342033 26.9629579,3.47342033 25.884288,4.55079997 C24.2882178,6.14687016 21.5592861,5.01658925 21.5592861,2.75989825 C21.5592861,1.23608346 20.3232027,0 18.7980976,0 L17.1762219,0 C15.6511168,0 14.4150334,1.23608346 14.4150334,2.75989825 L14.4150334,2.76118853 C14.4150334,5.01787953 11.687392,6.14816044 10.0913218,4.55209025 L10.0913218,4.55079997 C9.01265189,3.47342033 7.26432925,3.47342033 6.18694961,4.55079997 L5.03860485,5.69914473 C3.96122521,6.77781464 3.96122521,8.52613729 5.03860485,9.60351692 C6.63467504,11.1995871 5.50439413,13.9272285 3.24770313,13.9272285 C1.72388834,13.9272285 0.487804878,15.163312 0.487804878,16.688417 L0.487804878,18.311583 C0.487804878,19.836688 1.72388834,21.0714812 3.24770313,21.0714812 C5.50439413,21.0714812 6.63467504,23.8004129 5.03860485,25.3964831 C3.96122521,26.475153 3.96122521,28.2221854 5.03860485,29.3008553 L6.18694961,30.4479098 C7.26432925,31.5265797 9.01265189,31.5265797 10.0900315,30.4479098 L10.0913218,30.4479098 C11.687392,28.8518396 14.4150334,29.9821205 14.4150334,32.2388115 L14.4150334,32.2388115 C14.4150334,33.7639165 15.6511168,35 17.1762219,35 L18.7993879,35 C20.3244929,35 21.5592861,33.7639165 21.5592861,32.2388115 C21.5592861,29.9834107 24.2882178,28.8531298 25.884288,30.4492 C26.9629579,31.5265797 28.7099902,31.5265797 29.7873699,30.4492 L30.9357146,29.3008553 C32.0143845,28.2234756 32.0143845,26.475153 30.9357146,25.3964831 L30.9357146,25.3964831 C29.3383542,23.8004129 30.4686351,21.0714812 32.7253261,21.0714812 L32.7266164,21.0714812 C34.2517214,21.0714812 35.4878049,19.836688 35.4878049,18.311583 Z" id="Stroke-3"></path>
                </g>
            </g>
        </g>
    </g>
</svg>