<?xml version="1.0" encoding="utf-8"?>
<!-- Generator: Adobe Illustrator 24.2.3, SVG Export Plug-In . SVG Version: 6.00 Build 0)  -->
<svg version="1.1" id="Layer_1" xmlns="http://www.w3.org/2000/svg" xmlns:xlink="http://www.w3.org/1999/xlink" x="0px" y="0px"
	 viewBox="0 0 409 115" style="enable-background:new 0 0 409 115;" xml:space="preserve">
<style type="text/css">
	.st0{filter:url(#filter-2);}
	.st1{fill-rule:evenodd;clip-rule:evenodd;}
	.st2{fill-rule:evenodd;clip-rule:evenodd;fill:#FFFFFF;}
	.st3{filter:url(#filter-4);}
	.st4{fill:none;stroke:#FFFFFF;stroke-width:1.4993;}
	.st5{filter:url(#filter-6);}
	.st6{fill:none;stroke:#485CC7;stroke-width:1.4993;stroke-linecap:round;stroke-linejoin:round;}
	.st7{filter:url(#Adobe_OpacityMaskFilter);}
	.st8{mask:url(#mask-8_1_);fill:none;stroke:#485CC7;stroke-width:1.4993;stroke-linecap:round;stroke-linejoin:round;}
	.st9{filter:url(#Adobe_OpacityMaskFilter_1_);}
	.st10{mask:url(#mask-10_1_);fill-rule:evenodd;clip-rule:evenodd;fill:#FFFFFF;}
</style>
<filter  filterUnits="objectBoundingBox" height="142.9%" id="filter-6" width="142.9%" x="-21.4%" y="-10.7%">
	<feOffset  dx="0" dy="9" in="SourceAlpha" result="shadowOffsetOuter1"></feOffset>
	<feGaussianBlur  in="shadowOffsetOuter1" result="shadowBlurOuter1" stdDeviation="4.5"></feGaussianBlur>
	<feColorMatrix  in="shadowBlurOuter1" type="matrix" values="0 0 0 0 0   0 0 0 0 0   0 0 0 0 0  0 0 0 0.0951704545 0">
		</feColorMatrix>
</filter>
<filter  filterUnits="objectBoundingBox" height="142.9%" id="filter-4" width="142.9%" x="-21.4%" y="-10.7%">
	<feOffset  dx="0" dy="9" in="SourceAlpha" result="shadowOffsetOuter1"></feOffset>
	<feMorphology  in="SourceAlpha" operator="erode" radius="1.49926794" result="shadowInner"></feMorphology>
	<feOffset  dx="0" dy="9" in="shadowInner" result="shadowInner"></feOffset>
	<feComposite  in="shadowOffsetOuter1" in2="shadowInner" operator="out" result="shadowOffsetOuter1"></feComposite>
	<feGaussianBlur  in="shadowOffsetOuter1" result="shadowBlurOuter1" stdDeviation="4.5"></feGaussianBlur>
	<feColorMatrix  in="shadowBlurOuter1" type="matrix" values="0 0 0 0 0   0 0 0 0 0   0 0 0 0 0  0 0 0 0.0951704545 0">
		</feColorMatrix>
</filter>
<filter  filterUnits="objectBoundingBox" height="142.9%" id="filter-2" width="142.9%" x="-21.4%" y="-10.7%">
	<feOffset  dx="0" dy="9" in="SourceAlpha" result="shadowOffsetOuter1"></feOffset>
	<feGaussianBlur  in="shadowOffsetOuter1" result="shadowBlurOuter1" stdDeviation="4.5"></feGaussianBlur>
	<feColorMatrix  in="shadowBlurOuter1" type="matrix" values="0 0 0 0 0   0 0 0 0 0   0 0 0 0 0  0 0 0 0.0951704545 0">
		</feColorMatrix>
</filter>
<g id="_x30_1_x5F_User-Flow">
	<g id="_x33_.1-Output-02-Copy-3" transform="translate(-233.000000, -215.000000)">
		<g id="Group-9" transform="translate(242.693997, 217.019034)">
			<g id="button-bg" transform="translate(119.941435, 10.869693)">
				<g class="st0">
					<circle id="path-1_2_" class="st1" cx="42" cy="42" r="42"/>
				</g>
				<g>
					<circle id="path-1_1_" class="st2" cx="42" cy="42" r="42"/>
				</g>
			</g>
			<g id="button-bg_1_" transform="translate(235.572474, 10.869693)">
				<g class="st3">
					<circle id="path-3_1_" class="st1" cx="42" cy="42" r="42"/>
				</g>
				<circle class="st4" cx="42" cy="42" r="41.2"/>
			</g>
			<g id="button-bg_2_" transform="translate(0.000000, 10.869693)">
				<g class="st5">
					<circle id="path-5_2_" class="st1" cx="42" cy="42" r="42"/>
				</g>
				<g>
					<circle id="path-5_1_" class="st2" cx="42" cy="42" r="42"/>
				</g>
			</g>
			<g id="Group-11" transform="translate(22.489019, 30.895586)">
				<g id="Group-5" transform="translate(0.579810, 0.000000)">
					<polygon id="Stroke-1" class="st6" points="7.9,15.1 28.9,15.1 28.9,0 7.9,0 					"/>
					<polygon id="Stroke-3_1_" class="st6" points="7.9,42.3 28.8,42.3 28.8,27.3 7.9,27.3 					"/>
					<line id="Stroke-4" class="st6" x1="0" y1="21.5" x2="37.3" y2="21.5"/>
				</g>
				<line id="Stroke-6" class="st6" x1="12" y1="30.2" x2="25.5" y2="30.2"/>
				<line id="Stroke-7" class="st6" x1="12" y1="34.7" x2="25.5" y2="34.7"/>
				<line id="Stroke-8" class="st6" x1="12" y1="39.2" x2="25.5" y2="39.2"/>
				<polyline id="Stroke-9" class="st6" points="5.1,38.4 0,38.4 0,16 39,16 39,38.4 33.9,38.4 				"/>
			</g>
			<g id="Group-6" transform="translate(140.931186, 37.856365)">
				<polygon id="Stroke-1_1_" class="st6" points="21,16.6 0,1.5 0,30 42,30 42,1.5 				"/>
				<g id="Group-5_1_" transform="translate(9.204400, 0.000000)">
					<g id="Clip-4">
					</g>
					<defs>
						<filter id="Adobe_OpacityMaskFilter" filterUnits="userSpaceOnUse" x="-0.7" y="0" width="27.6" height="1.5">
							<feColorMatrix  type="matrix" values="1 0 0 0 0  0 1 0 0 0  0 0 1 0 0  0 0 0 1 0"/>
						</filter>
					</defs>
					<mask maskUnits="userSpaceOnUse" x="-0.7" y="0" width="27.6" height="1.5" id="mask-8_1_">
						<g class="st7">
							<polygon id="path-7_1_" class="st2" points="0,0 26.1,0 26.1,1.5 0,1.5 							"/>
						</g>
					</mask>
					<line id="Stroke-3_2_" class="st8" x1="0" y1="0.7" x2="26.1" y2="0.7"/>
				</g>
			</g>
			<g id="Group-3" transform="translate(265.557833, 36.357247)">
				<g id="Clip-2">
				</g>
				<defs>
					<filter id="Adobe_OpacityMaskFilter_1_" filterUnits="userSpaceOnUse" x="0" y="0" width="30" height="30">
						<feColorMatrix  type="matrix" values="1 0 0 0 0  0 1 0 0 0  0 0 1 0 0  0 0 0 1 0"/>
					</filter>
				</defs>
				<mask maskUnits="userSpaceOnUse" x="0" y="0" width="30" height="30" id="mask-10_1_">
					<g class="st9">
						<polygon id="path-9_1_" class="st2" points="0,0 30,0 30,30 0,30 						"/>
					</g>
				</mask>
				<path id="Fill-1" class="st10" d="M18.7,6.9H4.5l6.3-4.8c0.5-0.4,0.6-1.1,0.2-1.6C10.7,0,10-0.2,9.5,0.2l-9,6.9
					c0,0-0.1,0.1-0.1,0.1c0,0-0.1,0-0.1,0.1c0,0,0,0-0.1,0c0,0,0,0,0,0.1c0,0,0,0.1-0.1,0.1c0,0.1-0.1,0.1-0.1,0.2C0,7.8,0,7.9,0,8
					C0,8,0,8,0,8.1c0,0,0,0,0,0.1c0,0,0,0,0,0.1v0c0,0,0,0.1,0,0.1v0c0,0,0,0.1,0,0.1c0,0.1,0,0.1,0.1,0.2c0,0.1,0.1,0.1,0.1,0.2
					c0,0.1,0.1,0.1,0.1,0.1c0,0,0,0,0.1,0.1c0,0,0,0,0,0c0,0,0,0,0,0c0,0,0,0,0,0c0,0,0,0,0,0l9,6.9c0.2,0.2,0.4,0.2,0.7,0.2
					c0.3,0,0.7-0.2,0.9-0.5c0.2-0.2,0.2-0.4,0.2-0.7c0-0.4-0.2-0.7-0.5-0.9L4.5,9.2h14.2c5,0,9,4.1,9,9.2c0,2.5-0.9,4.8-2.7,6.5
					c-1.7,1.7-4,2.7-6.4,2.7h-17c-0.6,0-1.1,0.5-1.1,1.2S1.1,30,1.7,30h17c3,0,5.9-1.2,8-3.4c2.1-2.2,3.3-5.1,3.3-8.2
					C30,12.1,24.9,6.9,18.7,6.9"/>
			</g>
		</g>
	</g>
</g>
</svg>
