<?xml version="1.0" encoding="UTF-8"?>
<svg width="51px" height="52px" viewBox="0 0 51 52" version="1.1" xmlns="http://www.w3.org/2000/svg" xmlns:xlink="http://www.w3.org/1999/xlink">
    <title>Group 8</title>
    <defs>
        <polygon id="path-1" points="0 0 50.3373212 0 50.3373212 50.3361218 0 50.3361218"></polygon>
    </defs>
    <g id="01_User-Flow" stroke="none" stroke-width="1" fill="none" fill-rule="evenodd">
        <g id="3.1-Output-02-Copy-3" transform="translate(-1926.000000, -65.000000)">
            <g id="Group-13" transform="translate(70.879821, 52.474378)">
                <g id="Group-8" transform="translate(1855.679476, 13.493711)">
                    <path d="M25.4721124,11.5494606 C22.0627772,11.5494606 19.2891315,14.3231063 19.2891315,17.7324416 C19.2891315,21.1402776 22.0627772,23.9139233 25.4721124,23.9139233 C28.8814477,23.9139233 31.6550934,21.1402776 31.6550934,17.7324416 C31.6550934,14.3231063 28.8814477,11.5494606 25.4721124,11.5494606 M25.4721124,25.4131912 C21.2366805,25.4131912 17.7898635,21.9678735 17.7898635,17.7324416 C17.7898635,13.4955104 21.2366805,10.0501927 25.4721124,10.0501927 C29.7075444,10.0501927 33.1543613,13.4955104 33.1543613,17.7324416 C33.1543613,21.9678735 29.7075444,25.4131912 25.4721124,25.4131912" id="Fill-1" fill="#FFFFFF"></path>
                    <path d="M39.6874214,36.8671485 C39.344089,36.8671485 39.0337406,36.6287649 38.9557786,36.2794354 C38.8973072,36.0335555 37.3605575,30.1309376 25.4728621,30.1309376 C13.5611783,30.1309376 11.8145312,36.0560445 11.7455649,36.3079215 C11.6376176,36.7052275 11.2268182,36.9466097 10.8295122,36.8386624 C10.4322061,36.7352129 10.1923233,36.3304105 10.2942735,35.9316053 C10.3707362,35.633251 12.3137874,28.6316697 25.4728621,28.6316697 C38.6514272,28.6316697 40.3545956,35.6572392 40.4205634,35.9555936 C40.5090202,36.3603959 40.2541447,36.7607004 39.8493423,36.8491572 C39.7953687,36.8611514 39.741395,36.8671485 39.6874214,36.8671485" id="Fill-3" fill="#FFFFFF"></path>
                    <g id="Group-7">
                        <mask id="mask-2" fill="white">
                            <use xlink:href="#path-1"></use>
                        </mask>
                        <g id="Clip-6"></g>
                        <path d="M25.1691104,1.49896808 C12.117983,1.49896808 1.49866823,12.1167836 1.49866823,25.167911 C1.49866823,38.2190384 12.117983,48.8368539 25.1691104,48.8368539 C38.2202378,48.8368539 48.8380533,38.2190384 48.8380533,25.167911 C48.8380533,12.1167836 38.2202378,1.49896808 25.1691104,1.49896808 M25.1691104,50.3361218 C11.2903871,50.3361218 -0.000599707174,39.045135 -0.000599707174,25.167911 C-0.000599707174,11.290687 11.2903871,-0.000299853587 25.1691104,-0.000299853587 C39.0463344,-0.000299853587 50.3373212,11.290687 50.3373212,25.167911 C50.3373212,39.045135 39.0463344,50.3361218 25.1691104,50.3361218" id="Fill-5" fill="#FFFFFF" mask="url(#mask-2)"></path>
                    </g>
                </g>
            </g>
        </g>
    </g>
</svg>