<?xml version="1.0" encoding="UTF-8"?>
<svg width="34px" height="35px" viewBox="0 0 34 35" version="1.1" xmlns="http://www.w3.org/2000/svg" xmlns:xlink="http://www.w3.org/1999/xlink">
    <title>Group 8</title>
    <defs>
        <polygon id="path-1" points="0 0.426 33.5746 0.426 33.5746 33.9998 0 33.9998"></polygon>
    </defs>
    <g id="01_User-Flow" stroke="none" stroke-width="1" fill="none" fill-rule="evenodd">
        <g id="0.0-Home-Page" transform="translate(-1285.000000, -43.000000)">
            <g id="Group-13" transform="translate(47.276287, 35.000000)">
                <g id="Group-8" transform="translate(1237.723713, 8.000000)">
                    <path d="M16.9897,8.7036 C14.7157,8.7036 12.8657,10.5536 12.8657,12.8276 C12.8657,15.1006 14.7157,16.9506 16.9897,16.9506 C19.2637,16.9506 21.1137,15.1006 21.1137,12.8276 C21.1137,10.5536 19.2637,8.7036 16.9897,8.7036 M16.9897,17.9506 C14.1647,17.9506 11.8657,15.6526 11.8657,12.8276 C11.8657,10.0016 14.1647,7.7036 16.9897,7.7036 C19.8147,7.7036 22.1137,10.0016 22.1137,12.8276 C22.1137,15.6526 19.8147,17.9506 16.9897,17.9506" id="Fill-1" fill="#6E6E6E"></path>
                    <path d="M26.4712,25.5903 C26.2422,25.5903 26.0352,25.4313 25.9832,25.1983 C25.9442,25.0343 24.9192,21.0973 16.9902,21.0973 C9.0452,21.0973 7.8802,25.0493 7.8342,25.2173 C7.7622,25.4823 7.4882,25.6433 7.2232,25.5713 C6.9582,25.5023 6.7982,25.2323 6.8662,24.9663 C6.9172,24.7673 8.2132,20.0973 16.9902,20.0973 C25.7802,20.0973 26.9162,24.7833 26.9602,24.9823 C27.0192,25.2523 26.8492,25.5193 26.5792,25.5783 C26.5432,25.5863 26.5072,25.5903 26.4712,25.5903" id="Fill-3" fill="#6E6E6E"></path>
                    <g id="Group-7" transform="translate(0.000000, 0.574200)">
                        <mask id="mask-2" fill="white">
                            <use xlink:href="#path-1"></use>
                        </mask>
                        <g id="Clip-6"></g>
                        <path d="M16.7876,1.4258 C8.0826,1.4258 0.9996,8.5078 0.9996,17.2128 C0.9996,25.9178 8.0826,32.9998 16.7876,32.9998 C25.4926,32.9998 32.5746,25.9178 32.5746,17.2128 C32.5746,8.5078 25.4926,1.4258 16.7876,1.4258 M16.7876,33.9998 C7.5306,33.9998 -0.0004,26.4688 -0.0004,17.2128 C-0.0004,7.9568 7.5306,0.4258 16.7876,0.4258 C26.0436,0.4258 33.5746,7.9568 33.5746,17.2128 C33.5746,26.4688 26.0436,33.9998 16.7876,33.9998" id="Fill-5" fill="#6E6E6E" mask="url(#mask-2)"></path>
                    </g>
                </g>
            </g>
        </g>
    </g>
</svg>